<svg width="24" height="24" viewBox="0 0 24 24" fill="none" xmlns="http://www.w3.org/2000/svg">
<path d="M12.002 3.7002C11.8882 3.7002 11.786 3.76435 11.7354 3.86328L11.7168 3.90723L9.98828 9.22754H4.39355C4.26359 9.22754 4.14856 9.31194 4.1084 9.43555C4.06843 9.55897 4.11193 9.69414 4.2168 9.77051L8.74316 13.0576L7.01465 18.3799C6.97469 18.5033 7.01813 18.6385 7.12305 18.7148C7.2281 18.7912 7.37047 18.791 7.47559 18.7148L12.002 15.4268L16.5283 18.7148C16.6334 18.791 16.7758 18.7912 16.8809 18.7148C16.9858 18.6385 17.0292 18.5033 16.9893 18.3799L15.2598 13.0576L19.7871 9.77051C19.892 9.69414 19.9355 9.55896 19.8955 9.43555C19.8553 9.31195 19.7403 9.22755 19.6104 9.22754H14.0156L12.2871 3.90723C12.2469 3.78369 12.1319 3.70021 12.002 3.7002Z" fill="black"/>
</svg>
