<?xml version="1.0" encoding="UTF-8"?> <svg xmlns="http://www.w3.org/2000/svg" width="24" height="24" viewBox="0 0 24 24" fill="none"><circle cx="17" cy="18.0071" r="4.5" stroke="#9FCE10"></circle><path fill-rule="evenodd" clip-rule="evenodd" d="M1.69595 10.9619L1.70207 10.9713L1.70841 10.9805C2.18506 11.675 2.83323 12.2004 3.62046 12.5617C4.41295 12.9255 5.30221 13.0918 6.26335 13.0918C7.13693 13.0918 7.94994 12.9573 8.68307 12.6642L5.81724 17.9194H10.6808L12.5475 14.5048C12.5984 14.7865 12.6759 15.0598 12.7806 15.3233C12.9973 14.9832 13.2541 14.6711 13.5442 14.3935C13.497 14.1592 13.4734 13.9144 13.4734 13.6592C13.4734 13.2141 13.5431 12.8039 13.6825 12.4285C13.7657 12.2046 13.8736 11.9931 14.0063 11.794C14.039 11.7449 14.073 11.6969 14.1082 11.6498C14.4552 11.1861 14.9228 10.8214 15.5111 10.5557C16.1589 10.2631 16.9008 10.1168 17.7368 10.1168C18.5936 10.1168 19.3408 10.2631 19.9782 10.5557C20.6156 10.8483 21.1119 11.261 21.4672 11.794C21.8225 12.3269 22.0001 12.9486 22.0001 13.6592C22.0001 14.3593 21.8225 14.981 21.4672 15.5244C21.4445 15.5585 21.4212 15.5921 21.3973 15.6252C21.576 15.9545 21.7189 16.3061 21.8206 16.6748C21.9962 16.4923 22.1561 16.2938 22.2993 16.0791L22.3042 16.0716C22.7742 15.3527 23.0001 14.5377 23.0001 13.6592C23.0001 12.7736 22.7759 11.9542 22.2993 11.2393C21.8315 10.5376 21.1846 10.0092 20.3953 9.64687C19.6014 9.28243 18.7064 9.11683 17.7368 9.11683C16.8381 9.11683 15.9991 9.26538 15.2373 9.58437L18.2005 4.16382H13.3186L11.4379 7.61256C11.3319 7.08313 11.1299 6.58562 10.8258 6.12951C10.3581 5.42789 9.7112 4.89942 8.92191 4.53712C8.12793 4.17268 7.23295 4.00708 6.26335 4.00708C5.31017 4.00708 4.42402 4.17419 3.62604 4.53457L3.62046 4.53712C2.83323 4.89848 2.18499 5.42375 1.70833 6.11831L1.70087 6.12951C1.2259 6.84195 1 7.65539 1 8.53375C1 9.41957 1.22429 10.2405 1.69595 10.9619ZM19.2222 13.5268C19.1996 13.1188 19.0702 12.792 18.834 12.5463C18.5832 12.2746 18.2174 12.1388 17.7368 12.1388C17.2665 12.1388 16.9008 12.2746 16.6396 12.5463C16.5096 12.6872 16.4133 12.8547 16.3507 13.0489C16.5632 13.0213 16.7799 13.0071 17 13.0071C17.7982 13.0071 18.5528 13.1941 19.2222 13.5268ZM9.99378 10.4146C9.90729 10.5444 9.81244 10.667 9.70923 10.7825C9.38848 11.1414 8.98698 11.4315 8.50474 11.6529C7.86733 11.9455 7.1202 12.0918 6.26335 12.0918C5.41695 12.0918 4.67504 11.9455 4.03763 11.6529C3.40022 11.3603 2.89865 10.9476 2.53292 10.4146C2.17764 9.87127 2 9.24431 2 8.53375C2 7.83364 2.17764 7.21712 2.53292 6.68421C2.89865 6.15129 3.40022 5.73854 4.03763 5.44595C4.68549 5.15337 5.4274 5.00708 6.26335 5.00708C7.1202 5.00708 7.86733 5.15337 8.50474 5.44595C9.14215 5.73854 9.6385 6.15129 9.99378 6.68421C10.3491 7.21712 10.5267 7.83364 10.5267 8.53375C10.5267 8.88194 10.484 9.21007 10.3987 9.51811C10.3099 9.8387 10.175 10.1375 9.99378 10.4146ZM10.0878 16.9194H7.5016L13.9123 5.16382H16.5142L10.0878 16.9194Z" fill="#9FCE10"></path><path fill-rule="evenodd" clip-rule="evenodd" d="M5 8.52747C5 9.00814 5.12539 9.37909 5.37618 9.64033C5.63741 9.90156 6.00314 10.0322 6.47336 10.0322C6.94358 10.0322 7.30931 9.90156 7.57055 9.64033C7.83178 9.37909 7.9624 9.00814 7.9624 8.52747C7.9624 8.05724 7.83178 7.68629 7.57055 7.41461C7.31976 7.14292 6.95403 7.00708 6.47336 7.00708C6.00314 7.00708 5.63741 7.14292 5.37618 7.41461C5.12539 7.68629 5 8.05724 5 8.52747ZM6.83574 8.09289L6.84266 8.10037L6.84971 8.10771C6.8901 8.14971 6.9624 8.24845 6.9624 8.52747C6.9624 8.82613 6.88552 8.91114 6.86344 8.93322C6.83738 8.95928 6.75433 9.03218 6.47336 9.03218C6.21611 9.03218 6.12478 8.97107 6.09119 8.94075C6.06489 8.90987 6 8.80997 6 8.52747C6 8.25425 6.06524 8.1461 6.10422 8.10049C6.13799 8.06811 6.22366 8.00708 6.47336 8.00708C6.7576 8.00708 6.82488 8.08096 6.83574 8.09289Z" fill="#9FCE10"></path><path d="M16.6696 16.477H17.1688C17.3922 16.477 17.5741 16.6588 17.5741 16.8822C17.5741 17.1378 17.7813 17.345 18.0368 17.345C18.2924 17.345 18.4995 17.1378 18.4995 16.8822C18.4995 16.2211 18.0147 15.6712 17.382 15.5688V15.4698C17.382 15.2143 17.1748 15.0071 16.9192 15.0071C16.6637 15.0071 16.4565 15.2143 16.4565 15.4698V15.5688C15.8237 15.6712 15.3389 16.221 15.3389 16.8822V17.1391C15.3389 17.8728 15.9359 18.4698 16.6696 18.4698H17.1688C17.3922 18.4698 17.5741 18.6517 17.5741 18.8751V19.1319C17.5741 19.3554 17.3922 19.5372 17.1688 19.5372H16.6696C16.4462 19.5372 16.2643 19.3554 16.2643 19.1319V19.108C16.2643 18.8524 16.0571 18.6452 15.8016 18.6452C15.5461 18.6452 15.3389 18.8524 15.3389 19.108V19.1319C15.3389 19.7931 15.8237 20.3431 16.4565 20.4454V20.5443C16.4565 20.7999 16.6637 21.0071 16.9192 21.0071C17.1748 21.0071 17.382 20.7999 17.382 20.5443V20.4454C18.0147 20.343 18.4995 19.7931 18.4995 19.1319V18.8751C18.4995 18.1414 17.9025 17.5444 17.1688 17.5444H16.6696C16.4462 17.5444 16.2643 17.3625 16.2643 17.1391V16.8822C16.2643 16.6588 16.4462 16.477 16.6696 16.477Z" fill="#9FCE10" stroke="#9FCE10" stroke-width="0.134088"></path></svg> 