<?xml version="1.0" encoding="UTF-8"?> <svg xmlns="http://www.w3.org/2000/svg" width="44" height="44" viewBox="0 0 44 44" fill="none"><path d="M22 1.83337L27.2971 5.69735L33.8537 5.68486L35.8679 11.9244L41.1796 15.7682L39.1417 22L41.1796 28.2319L35.8679 32.0757L33.8537 38.3152L27.2971 38.3027L22 42.1667L16.7029 38.3027L10.1463 38.3152L8.13211 32.0757L2.82037 28.2319L4.85835 22L2.82037 15.7682L8.13211 11.9244L10.1463 5.68486L16.7029 5.69735L22 1.83337Z" stroke="#B4E913" stroke-width="3.3" stroke-linecap="round" stroke-linejoin="round"></path><path d="M30.0208 13.9792L13.9792 30.0209M18.5625 15.698C18.5625 17.28 17.28 18.5625 15.6979 18.5625C14.1159 18.5625 12.8333 17.28 12.8333 15.698C12.8333 14.1159 14.1159 12.8334 15.6979 12.8334C17.28 12.8334 18.5625 14.1159 18.5625 15.698ZM31.1667 28.3021C31.1667 29.8842 29.8842 31.1667 28.3021 31.1667C26.72 31.1667 25.4375 29.8842 25.4375 28.3021C25.4375 26.7201 26.72 25.4375 28.3021 25.4375C29.8842 25.4375 31.1667 26.7201 31.1667 28.3021Z" stroke="#B4E913" stroke-width="3.3" stroke-linecap="round" stroke-linejoin="round"></path></svg> 