<?xml version="1.0" encoding="UTF-8"?> <svg xmlns="http://www.w3.org/2000/svg" width="18" height="18" viewBox="0 0 18 18" fill="none"><g clip-path="url(#clip0_478_59884)"><path fill-rule="evenodd" clip-rule="evenodd" d="M14.9531 15.75C16.8216 14.1009 18 11.6881 18 9C18 6.31194 16.8216 3.89913 14.9531 2.25H3.0469C1.17845 3.89913 0 6.31194 0 9C0 11.6881 1.17845 14.1009 3.0469 15.75H14.9531Z" fill="#F4F5F8"></path><path fill-rule="evenodd" clip-rule="evenodd" d="M17.6981 11.3203C17.895 10.5801 18 9.80228 18 9C18 8.24836 17.9079 7.51823 17.7343 6.82031H0.265746C0.0921418 7.51823 0 8.24836 0 9C0 9.80228 0.104976 10.5801 0.301942 11.3203H17.6981Z" fill="#2D2A4A"></path><path fill-rule="evenodd" clip-rule="evenodd" d="M1.16357 4.57031C2.70946 1.84148 5.63957 0 8.99979 0C12.36 0 15.2901 1.84148 16.836 4.57031H1.16357ZM8.99979 18C12.3311 18 15.2396 16.1901 16.7957 13.5H1.20383C2.75997 16.1901 5.66852 18 8.99979 18Z" fill="#A51931"></path><path fill-rule="evenodd" clip-rule="evenodd" d="M9 17.475C13.6806 17.475 17.475 13.6806 17.475 9C17.475 4.31939 13.6806 0.525 9 0.525C4.31939 0.525 0.525 4.31939 0.525 9C0.525 13.6806 4.31939 17.475 9 17.475ZM9 18C13.9706 18 18 13.9706 18 9C18 4.02944 13.9706 0 9 0C4.02944 0 0 4.02944 0 9C0 13.9706 4.02944 18 9 18Z" fill="#D9D9D9"></path></g><defs><clipPath id="clip0_478_59884"><rect width="18" height="18" fill="white"></rect></clipPath></defs></svg> 