<?xml version="1.0" encoding="UTF-8"?> <svg xmlns="http://www.w3.org/2000/svg" width="24" height="24" viewBox="0 0 24 24" fill="none"><g clip-path="url(#clip0_235_9657)"><path fill-rule="evenodd" clip-rule="evenodd" d="M23.6218 15C22.2897 20.1757 17.5914 24 11.9999 24C6.40836 24 1.71006 20.1757 0.37793 15H23.6218Z" fill="#FFCE00"></path><path fill-rule="evenodd" clip-rule="evenodd" d="M23.6218 9H0.37793C1.71006 3.82432 6.40836 0 11.9999 0C17.5914 0 22.2897 3.82432 23.6218 9Z" fill="black"></path><path fill-rule="evenodd" clip-rule="evenodd" d="M23.6219 15C23.8687 14.0411 24 13.0359 24 12C24 10.9641 23.8687 9.95886 23.6219 9H0.378052C0.131259 9.95886 0 10.9641 0 12C0 13.0359 0.131259 14.0411 0.378052 15H23.6219Z" fill="#DD0000"></path><path fill-rule="evenodd" clip-rule="evenodd" d="M12 23.3C18.2408 23.3 23.3 18.2408 23.3 12C23.3 5.75918 18.2408 0.7 12 0.7C5.75918 0.7 0.7 5.75918 0.7 12C0.7 18.2408 5.75918 23.3 12 23.3ZM12 24C18.6274 24 24 18.6274 24 12C24 5.37258 18.6274 0 12 0C5.37258 0 0 5.37258 0 12C0 18.6274 5.37258 24 12 24Z" fill="#D9D9D9"></path></g><defs><clipPath id="clip0_235_9657"><rect width="24" height="24" fill="white"></rect></clipPath></defs></svg> 