<?xml version="1.0" encoding="UTF-8"?> <svg xmlns="http://www.w3.org/2000/svg" width="25" height="25" viewBox="0 0 25 25" fill="none"><path d="M22.6868 8.47697H21.964V5.03235C21.964 4.49192 21.5242 4.05225 20.9838 4.05225H2.64714C2.10671 4.05225 1.66699 4.49192 1.66699 5.03235V15.5353C1.66699 16.0757 2.10671 16.5154 2.64714 16.5154H3.37003V19.96C3.37003 20.5005 3.80974 20.9401 4.35018 20.9401H22.6868C23.2273 20.9401 23.667 20.5005 23.667 19.96V9.45713C23.667 8.91669 23.2273 8.47697 22.6868 8.47697ZM2.64714 15.8252C2.48727 15.8252 2.35719 15.6951 2.35719 15.5353V5.03235C2.35719 4.87249 2.48727 4.74244 2.64714 4.74244H20.9838C21.1437 4.74244 21.2738 4.87249 21.2738 5.03235V8.47697H20.2573V7.54523C20.2573 7.35465 20.1028 7.20013 19.9122 7.20013C19.2271 7.20013 18.6697 6.64276 18.6697 5.95762C18.6697 5.76704 18.5152 5.61252 18.3246 5.61252H5.30636C5.11578 5.61252 4.96126 5.76704 4.96126 5.95762C4.96126 6.64276 4.40389 7.20013 3.71875 7.20013C3.52817 7.20013 3.37365 7.35465 3.37365 7.54523L3.37003 15.8252H2.64714ZM14.6952 8.47697C14.0927 7.5201 13.0274 6.88262 11.8155 6.88262C10.6036 6.88262 9.53827 7.5201 8.93579 8.47697H4.35018C4.25059 8.47697 4.15447 8.49201 4.06385 8.51975V7.85949C4.85355 7.7166 5.47773 7.09241 5.62058 6.30271H18.0103C18.1532 7.09241 18.7774 7.7166 19.5671 7.85949V8.47697H14.6952ZM13.8337 8.47697H9.79726C10.2938 7.92257 11.0143 7.57282 11.8155 7.57282C12.6166 7.57282 13.3371 7.92257 13.8337 8.47697ZM22.9768 19.96C22.9768 20.1199 22.8467 20.2499 22.6868 20.2499H4.35018C4.19031 20.2499 4.06023 20.1199 4.06023 19.96V9.45713C4.06023 9.29726 4.19031 9.16717 4.35018 9.16717H22.6868C22.8467 9.16717 22.9768 9.29726 22.9768 9.45713V19.96Z" fill="#9FCE10" stroke="#9FCE10" stroke-width="0.3"></path><path d="M21.6147 11.6252C20.9296 11.6252 20.3722 11.0678 20.3722 10.3827C20.3722 10.1921 20.2177 10.0376 20.0271 10.0376H7.00888C6.8183 10.0376 6.66378 10.1921 6.66378 10.3827C6.66378 11.0678 6.10641 11.6252 5.42127 11.6252C5.23069 11.6252 5.07617 11.7797 5.07617 11.9703V17.4475C5.07617 17.6381 5.23069 17.7926 5.42127 17.7926C6.10641 17.7926 6.66378 18.3499 6.66378 19.0351C6.66378 19.2257 6.8183 19.3802 7.00888 19.3802H20.0271C20.2177 19.3802 20.3722 19.2257 20.3722 19.0351C20.3722 18.3499 20.9296 17.7926 21.6147 17.7926C21.8053 17.7926 21.9598 17.6381 21.9598 17.4475V11.9703C21.9598 11.7797 21.8053 11.6252 21.6147 11.6252ZM21.2696 17.1332C20.4799 17.2761 19.8557 17.9003 19.7129 18.69H7.32314C7.18025 17.9003 6.55607 17.2761 5.76637 17.1332V12.2845C6.55607 12.1416 7.18025 11.5174 7.3231 10.7278H19.7129C19.8557 11.5174 20.4799 12.1416 21.2696 12.2845V17.1332Z" fill="#9FCE10" stroke="#9FCE10" stroke-width="0.3"></path><path d="M13.5184 11.3071C11.643 11.3071 10.1172 12.8329 10.1172 14.7084C10.1172 16.5838 11.643 18.1095 13.5184 18.1095C15.3938 18.1095 16.9196 16.5838 16.9196 14.7084C16.9196 12.8329 15.3938 11.3071 13.5184 11.3071ZM13.5184 17.4193C12.0236 17.4193 10.8074 16.2032 10.8074 14.7084C10.8074 13.2135 12.0236 11.9973 13.5184 11.9973C15.0133 11.9973 16.2294 13.2135 16.2294 14.7084C16.2294 16.2032 15.0133 17.4193 13.5184 17.4193Z" fill="#9FCE10" stroke="#9FCE10" stroke-width="0.3"></path><path d="M13.3323 13.5684H13.7046C13.8712 13.5684 14.0068 13.704 14.0068 13.8706C14.0068 14.0612 14.1613 14.2157 14.3519 14.2157C14.5425 14.2157 14.697 14.0612 14.697 13.8706C14.697 13.3775 14.3354 12.9674 13.8635 12.8911V12.8173C13.8635 12.6267 13.709 12.4722 13.5185 12.4722C13.3279 12.4722 13.1734 12.6267 13.1734 12.8173V12.8911C12.7014 12.9674 12.3398 13.3775 12.3398 13.8706V14.0622C12.3398 14.6094 12.7851 15.0546 13.3323 15.0546H13.7046C13.8712 15.0546 14.0068 15.1902 14.0068 15.3569V15.5484C14.0068 15.715 13.8712 15.8506 13.7046 15.8506H13.3323C13.1656 15.8506 13.03 15.715 13.03 15.5484V15.5305C13.03 15.34 12.8755 15.1854 12.6849 15.1854C12.4944 15.1854 12.3398 15.34 12.3398 15.5305V15.5484C12.3398 16.0415 12.7014 16.4516 13.1734 16.528V16.6018C13.1734 16.7923 13.3279 16.9469 13.5185 16.9469C13.709 16.9469 13.8635 16.7923 13.8635 16.6018V16.5279C14.3354 16.4516 14.697 16.0415 14.697 15.5484V15.3569C14.697 14.8097 14.2518 14.3644 13.7046 14.3644H13.3323C13.1656 14.3644 13.03 14.2288 13.03 14.0622V13.8706C13.03 13.704 13.1656 13.5684 13.3323 13.5684Z" fill="#9FCE10" stroke="#9FCE10" stroke-width="0.3"></path><path d="M19.8971 14.3638H18.39C18.1994 14.3638 18.0449 14.5183 18.0449 14.7089C18.0449 14.8994 18.1994 15.054 18.39 15.054H19.8971C20.0877 15.054 20.2422 14.8994 20.2422 14.7089C20.2422 14.5183 20.0877 14.3638 19.8971 14.3638Z" fill="#9FCE10" stroke="#9FCE10" stroke-width="0.3"></path><path d="M8.64615 14.3638H7.13904C6.94846 14.3638 6.79395 14.5183 6.79395 14.7089C6.79395 14.8994 6.94846 15.054 7.13904 15.054H8.64615C8.83673 15.054 8.99125 14.8994 8.99125 14.7089C8.99125 14.5183 8.83673 14.3638 8.64615 14.3638Z" fill="#9FCE10" stroke="#9FCE10" stroke-width="0.3"></path></svg> 