<?xml version="1.0" encoding="UTF-8"?> <svg xmlns="http://www.w3.org/2000/svg" width="24" height="24" viewBox="0 0 24 24" fill="none"><path d="M6.57255 14.763C6.11242 14.763 5.70876 14.694 5.36157 14.5559C5.01856 14.4179 4.74667 14.2255 4.54588 13.9787C4.34928 13.7319 4.2468 13.4474 4.23843 13.1253H5.39922C5.42431 13.3554 5.54144 13.5395 5.75059 13.6775C5.95974 13.8114 6.24209 13.8783 6.59765 13.8783C6.92811 13.8783 7.17909 13.8281 7.35059 13.7277C7.52628 13.6273 7.61412 13.4914 7.61412 13.3199C7.61412 13.2236 7.58693 13.1421 7.53255 13.0751C7.48235 13.0082 7.39451 12.9517 7.26902 12.9057C7.14353 12.8597 6.97203 12.8263 6.75451 12.8053L6.07686 12.7489C5.46196 12.6945 5.0102 12.546 4.72157 12.3034C4.43712 12.0608 4.2949 11.7366 4.2949 11.3308C4.2949 11.0255 4.38275 10.764 4.55843 10.5465C4.73412 10.3248 4.98301 10.1554 5.3051 10.0383C5.62719 9.91698 6.00575 9.85632 6.44078 9.85632C6.87163 9.85632 7.2481 9.92116 7.5702 10.0508C7.89647 10.1805 8.15373 10.3604 8.34196 10.5904C8.53438 10.8205 8.63895 11.0882 8.65569 11.3936H7.50118C7.48026 11.2053 7.38196 11.0506 7.20628 10.9293C7.03059 10.8038 6.76915 10.741 6.42196 10.741C6.10824 10.741 5.86771 10.7891 5.70039 10.8853C5.53307 10.9816 5.44941 11.1133 5.44941 11.2806C5.44941 11.3643 5.47242 11.4396 5.51843 11.5065C5.56863 11.5693 5.6502 11.6216 5.76314 11.6634C5.88026 11.7052 6.03922 11.7345 6.24 11.7512L6.98039 11.814C7.41543 11.8516 7.76471 11.929 8.02824 12.0461C8.29177 12.1591 8.48209 12.3117 8.59922 12.5042C8.71634 12.6924 8.7749 12.9204 8.7749 13.1881C8.7749 13.4976 8.68497 13.7716 8.5051 14.01C8.32523 14.2443 8.07007 14.4283 7.73961 14.5622C7.41333 14.6961 7.02431 14.763 6.57255 14.763ZM6.9302 9.4422V15.1771H6.07059V9.4422H6.9302ZM9.24427 11.632C9.26936 11.2681 9.38858 10.9544 9.60191 10.6908C9.81525 10.4231 10.0976 10.2182 10.449 10.0759C10.8045 9.92953 11.2061 9.85632 11.6537 9.85632C12.0803 9.85632 12.4526 9.92116 12.7705 10.0508C13.0884 10.1805 13.3373 10.3625 13.5172 10.5967C13.6971 10.831 13.787 11.1008 13.787 11.4061C13.787 11.6446 13.7243 11.8663 13.5988 12.0712C13.4733 12.272 13.2746 12.4728 13.0027 12.6736C12.7308 12.8744 12.3732 13.0877 11.9298 13.3136L10.5682 14.0289L10.5054 13.7214H13.9188V14.6626H9.32583V13.8344L11.3462 12.6736C11.6683 12.4895 11.9193 12.3327 12.0992 12.203C12.2832 12.0691 12.4129 11.9457 12.4882 11.8328C12.5635 11.7199 12.6011 11.5985 12.6011 11.4689C12.6011 11.335 12.5635 11.2158 12.4882 11.1112C12.4171 11.0066 12.3083 10.9251 12.1619 10.8665C12.0155 10.808 11.8315 10.7787 11.6098 10.7787C11.3462 10.7787 11.1287 10.8184 10.9572 10.8979C10.7857 10.9732 10.6581 11.0757 10.5745 11.2053C10.4908 11.335 10.4406 11.4772 10.4239 11.632H9.24427ZM17.0638 14.763C16.5326 14.763 16.0725 14.6605 15.6834 14.4555C15.2944 14.2506 14.9932 13.9661 14.7799 13.6022C14.5666 13.2341 14.4599 12.8033 14.4599 12.3097C14.4599 11.8202 14.5666 11.3915 14.7799 11.0234C14.9932 10.6553 15.2944 10.3687 15.6834 10.1638C16.0725 9.95881 16.5326 9.85632 17.0638 9.85632C17.5909 9.85632 18.0489 9.95881 18.4379 10.1638C18.827 10.3687 19.1281 10.6553 19.3415 11.0234C19.5548 11.3873 19.6615 11.8161 19.6615 12.3097C19.6615 12.7991 19.5548 13.2278 19.3415 13.5959C19.1281 13.964 18.827 14.2506 18.4379 14.4555C18.0489 14.6605 17.5909 14.763 17.0638 14.763ZM17.0638 13.7967C17.5114 13.7967 17.8586 13.667 18.1054 13.4077C18.3564 13.1483 18.4819 12.7823 18.4819 12.3097C18.4819 11.837 18.3564 11.471 18.1054 11.2116C17.8586 10.9523 17.5114 10.8226 17.0638 10.8226C16.6162 10.8226 16.267 10.9523 16.016 11.2116C15.765 11.471 15.6395 11.837 15.6395 12.3097C15.6395 12.7823 15.765 13.1483 16.016 13.4077C16.267 13.667 16.6162 13.7967 17.0638 13.7967Z" fill="#9FCE10"></path><circle cx="12" cy="12" r="10.5" stroke="#9FCE10"></circle></svg> 