<?xml version="1.0" encoding="UTF-8"?> <svg xmlns="http://www.w3.org/2000/svg" width="13" height="13" viewBox="0 0 13 13" fill="none"><g clip-path="url(#clip0_571_42292)"><path fill-rule="evenodd" clip-rule="evenodd" d="M6.83281 10.3556C8.87627 10.3556 10.5328 8.69902 10.5328 6.65557C10.5328 4.61211 8.87627 2.95557 6.83281 2.95557C4.78936 2.95557 3.13281 4.61211 3.13281 6.65557C3.13281 8.69902 4.78936 10.3556 6.83281 10.3556Z" fill="white"></path><path fill-rule="evenodd" clip-rule="evenodd" d="M9.2802 9.43059C10.0483 8.75262 10.5328 7.76068 10.5328 6.65559C10.5328 6.33619 10.4923 6.02624 10.4162 5.73059H3.24938C3.17328 6.02624 3.13281 6.33619 3.13281 6.65559C3.13281 7.76068 3.61729 8.75262 4.38542 9.43059H9.2802Z" fill="#0039A6"></path><path fill-rule="evenodd" clip-rule="evenodd" d="M10.4169 7.58057C10.0061 9.1764 8.55749 10.3556 6.83343 10.3556C5.10938 10.3556 3.66074 9.1764 3.25 7.58057H10.4169Z" fill="#D52B1E"></path><path fill-rule="evenodd" clip-rule="evenodd" d="M6.83281 10.1397C8.75706 10.1397 10.317 8.57982 10.317 6.65557C10.317 4.73131 8.75706 3.1714 6.83281 3.1714C4.90856 3.1714 3.34865 4.73131 3.34865 6.65557C3.34865 8.57982 4.90856 10.1397 6.83281 10.1397ZM6.83281 10.3556C8.87627 10.3556 10.5328 8.69902 10.5328 6.65557C10.5328 4.61211 8.87627 2.95557 6.83281 2.95557C4.78936 2.95557 3.13281 4.61211 3.13281 6.65557C3.13281 8.69902 4.78936 10.3556 6.83281 10.3556Z" fill="#D9D9D9"></path></g><rect x="1.89948" y="1.72223" width="9.86667" height="9.86667" rx="4.93333" stroke="#F5F5F8" stroke-width="2.46667"></rect><defs><clipPath id="clip0_571_42292"><rect x="3.13281" y="2.95557" width="7.4" height="7.4" rx="3.7" fill="white"></rect></clipPath></defs></svg> 