<?xml version="1.0" encoding="UTF-8"?> <svg xmlns="http://www.w3.org/2000/svg" width="44" height="44" viewBox="0 0 44 44" fill="none"><g clip-path="url(#clip0_1_1491)"><path d="M38.4999 13.0165C39.621 13.0165 41.1731 13.13 42.4384 14.3954C43.3207 15.2778 43.8173 16.4747 43.8173 17.7225V42.1669C43.8172 42.834 43.415 43.4358 42.7988 43.6913C42.1823 43.9466 41.4718 43.8055 40.9999 43.3339L35.372 37.7059H17.7226C16.4749 37.7059 15.2778 37.2101 14.3954 36.328C13.513 35.4456 13.0166 34.2478 13.0165 32.9999V31.3632C13.0166 30.452 13.7557 29.7137 14.6669 29.7137C15.578 29.7139 16.3172 30.4521 16.3173 31.3632V32.9999C16.3174 33.3725 16.465 33.7305 16.7285 33.994C16.992 34.2574 17.3499 34.4061 17.7226 34.4061H36.0556C36.493 34.4062 36.9133 34.5793 37.2226 34.8885L40.5165 38.1825V17.7225C40.5165 17.3499 40.3688 16.992 40.1054 16.7284C39.8209 16.4439 39.444 16.3173 38.4999 16.3173C37.5889 16.3171 36.8506 15.5779 36.8505 14.6669C36.8505 13.7557 37.5888 13.0167 38.4999 13.0165ZM27.9072 0.182495C29.2089 0.182533 30.4583 0.700583 31.3788 1.62097C32.2991 2.54139 32.8161 3.79014 32.8163 5.09167V21.3885C32.8163 22.6905 32.2994 23.9396 31.3788 24.8602C30.4582 25.7809 29.2091 26.2977 27.9072 26.2977H9.0351L2.99994 32.3329C2.52804 32.8048 1.81767 32.9457 1.20111 32.6903C0.585054 32.4347 0.182556 31.8329 0.182556 31.1659V5.09167C0.182799 3.78999 0.700584 2.54142 1.62103 1.62097C2.5415 0.700532 3.79004 0.182706 5.09174 0.182495H27.9072ZM5.09174 3.48328C4.66525 3.48349 4.25564 3.65241 3.95404 3.95398C3.65246 4.25556 3.48358 4.6652 3.48334 5.09167V27.1825L7.18451 23.4813L7.3056 23.371C7.59911 23.1305 7.96876 22.998 8.3515 22.9979H27.9072C28.3339 22.9979 28.7431 22.828 29.0449 22.5262C29.3466 22.2245 29.5165 21.8153 29.5165 21.3885V5.09167C29.5163 4.6652 29.3464 4.25556 29.0449 3.95398C28.7432 3.65256 28.3337 3.48331 27.9072 3.48328H5.09174ZM9.16693 10.9999C10.1792 11.0001 10.9997 11.8207 10.9999 12.8329C10.9999 13.8453 10.1793 14.6667 9.16693 14.6669C8.15441 14.6669 7.33295 13.8454 7.33295 12.8329C7.33319 11.8206 8.15456 10.9999 9.16693 10.9999ZM16.4999 10.9999C17.5123 10.9999 18.3327 11.8206 18.3329 12.8329C18.3329 13.8454 17.5125 14.6669 16.4999 14.6669C15.4874 14.6669 14.6669 13.8454 14.6669 12.8329C14.6672 11.8206 15.4876 10.9999 16.4999 10.9999ZM23.8329 10.9999C24.8453 10.9999 25.6667 11.8206 25.6669 12.8329C25.6669 13.8454 24.8455 14.6669 23.8329 14.6669C22.8206 14.6667 21.9999 13.8453 21.9999 12.8329C22.0002 11.8207 22.8207 11.0001 23.8329 10.9999Z" fill="#B4E913"></path></g><defs><clipPath id="clip0_1_1491"><rect width="44" height="44" fill="white"></rect></clipPath></defs></svg> 