<?xml version="1.0" encoding="UTF-8"?> <svg xmlns="http://www.w3.org/2000/svg" width="24" height="24" viewBox="0 0 24 24" fill="none"><path d="M17.1117 10.998C18.2663 10.4095 18.988 9.37261 18.8186 7.64651C18.5909 5.28691 16.5537 4.49691 13.9822 4.27272L13.981 1.42066C13.9816 1.41153 13.9863 1.40366 13.9863 1.39421C13.9863 1.17664 13.81 1.00063 13.5924 1.00031H12.3918C12.2875 1.0004 12.1875 1.0419 12.1137 1.1157C12.04 1.18951 11.9986 1.28957 11.9986 1.3939H11.9894L11.991 4.18739C11.4671 4.18739 10.9318 4.19778 10.4003 4.2088L10.3993 1.42853C10.4003 1.41657 10.4063 1.40618 10.4063 1.3939C10.4063 1.17633 10.2299 1.00031 10.0124 1H8.81179C8.70746 1.00008 8.60743 1.04159 8.53369 1.11539C8.45995 1.18919 8.41852 1.28925 8.41852 1.39358L8.41884 1.39453H8.40908L8.4097 4.27335C7.97834 4.28217 7.55484 4.2913 7.14174 4.2913L7.14142 4.28091H4.3939V4.285C4.34216 4.28496 4.29092 4.29512 4.24311 4.3149C4.1953 4.33468 4.15186 4.36369 4.11528 4.40028C4.07869 4.43686 4.04968 4.4803 4.0299 4.52811C4.01012 4.57592 3.99996 4.62716 4 4.6789V6.00952C4 6.2271 4.17633 6.40342 4.3939 6.40342L4.39547 6.40311V6.40909C4.39547 6.40909 5.86653 6.38044 5.84197 6.40657C6.64866 6.40689 6.91157 6.87509 6.98808 7.27907L6.98966 11.008L6.98997 11.0222L6.99155 16.2449C6.95628 16.4987 6.80703 16.9039 6.24342 16.9048C6.26893 16.9272 4.79535 16.9045 4.79535 16.9045L4.79504 16.9064C4.79252 16.9064 4.79063 16.9048 4.78811 16.9048C4.59888 16.9048 4.44837 17.0409 4.41027 17.2188L4.39421 17.2178L4.03149 18.8454L4.03999 18.8469C4.03841 18.8614 4.03149 18.874 4.03149 18.8891C4.03149 19.0982 4.19585 19.2654 4.40177 19.2783L4.40083 19.2843L6.99312 19.2833C7.4755 19.2833 7.95031 19.2912 8.41632 19.2941L8.41852 22.2103H8.41947C8.41947 22.4276 8.59579 22.6039 8.81336 22.6039H10.0139C10.1183 22.6038 10.2183 22.5622 10.2921 22.4883C10.3658 22.4145 10.4072 22.3144 10.4072 22.21H10.4078L10.4066 19.3293C10.9529 19.3403 11.4815 19.3444 11.9979 19.3432L11.9986 22.2103H11.9995C11.9998 22.4276 12.1758 22.6039 12.3931 22.6039H13.5937C13.698 22.6038 13.7981 22.5622 13.8718 22.4883C13.9455 22.4145 13.9869 22.3144 13.9869 22.21L13.9895 22.2097L13.9888 19.2981C17.3374 19.1045 19.6813 18.26 19.971 15.1148C20.2046 12.583 19.0128 11.4533 17.1117 10.998ZM10.4475 6.55047C11.5719 6.54984 15.1041 6.19089 15.1053 8.5379C15.1057 10.7886 11.5732 10.5272 10.4488 10.5279L10.4475 6.55047ZM10.451 16.9206L10.45 12.5348C11.8002 12.5348 16.0336 12.145 16.0345 14.7247C16.0364 17.1983 11.8011 16.9184 10.451 16.9206Z" fill="#FFA114"></path></svg> 