<?xml version="1.0" encoding="UTF-8"?> <svg xmlns="http://www.w3.org/2000/svg" width="86" height="40" viewBox="0 0 86 40" fill="none"><path d="M1 39C1.35808 38.6504 2.23008 37.9302 2.85338 37.8462C3.63252 37.7412 5.00262 37.2954 6.15781 37.0332C7.31299 36.7709 8.73683 36.2988 9.43531 36.4037C10.1338 36.5086 10.9397 36.404 11.5039 37.2694C12.0681 38.1348 12.686 40.0754 13.465 37.6889C14.2441 35.3025 13.9486 34.7518 16.2321 34.6994C18.5156 34.6469 19.0529 34.3057 19.8857 34.332C20.7185 34.3582 23.217 34.2007 24.2378 33.7811C25.2587 33.3615 25.9572 33.8337 26.978 32.6274C27.9989 31.421 27.8377 30.1361 32.1361 30.1623C36.4344 30.1886 41.6462 30.2408 43.5536 29.9785C45.461 29.7163 48.7654 28.7463 49.7594 28.5628C50.7534 28.3792 54.1115 27.5398 55.0786 27.2513C56.0457 26.9628 57.5233 26.648 58.4636 26.7005C59.4038 26.7529 60.4516 27.2778 60.9083 26.2288C61.365 25.1799 62.4933 22.6624 63.1918 21.561C63.8903 20.4596 66.0126 14.5063 66.5499 12.8017C67.0872 11.0971 68.5647 7.6617 68.914 6.42915C69.2632 5.1966 70.0692 2.548 70.1766 2.04973C70.2841 1.55147 70.6333 -0.179112 71.3318 2.31221C72.0303 4.80353 72.2452 5.9576 73.5616 6.19337C74.6147 6.38199 82.2927 6.42915 86 6.42915" stroke="#B4E913" stroke-width="2"></path></svg> 