<?xml version="1.0" encoding="UTF-8"?> <svg xmlns="http://www.w3.org/2000/svg" width="25" height="24" viewBox="0 0 25 24" fill="none"><path d="M1.93269 11.6087C1.96066 11.2078 2.09117 10.8629 2.32424 10.5739C2.55731 10.2802 2.86495 10.0542 3.24718 9.89568C3.63407 9.7372 4.07224 9.65796 4.56168 9.65796C5.02781 9.65796 5.43568 9.73021 5.78528 9.87471C6.13488 10.0145 6.40757 10.2127 6.60334 10.469C6.79912 10.7254 6.89701 11.0237 6.89701 11.364C6.89701 11.625 6.82942 11.8674 6.69424 12.0912C6.55906 12.3149 6.34231 12.541 6.04398 12.7694C5.75032 12.9931 5.35877 13.2355 4.86933 13.4966L3.28214 14.3706L3.19125 14.0489H7.04384V15.0068H2.0096V14.1678L4.25403 12.8533C4.62694 12.6389 4.91827 12.4548 5.12803 12.3009C5.33779 12.1424 5.48696 11.9956 5.57552 11.8604C5.66409 11.7253 5.70837 11.5808 5.70837 11.4269C5.70837 11.2638 5.66409 11.1193 5.57552 10.9934C5.48696 10.8676 5.35411 10.7697 5.17698 10.6998C5.00451 10.6298 4.78542 10.5949 4.51973 10.5949C4.20742 10.5949 3.95105 10.6415 3.75061 10.7347C3.55017 10.8233 3.39868 10.9445 3.29613 11.0983C3.19824 11.2521 3.13997 11.4223 3.12133 11.6087H1.93269ZM10.4246 9.65796C10.8628 9.65796 11.2497 9.72321 11.5853 9.85373C11.9209 9.98425 12.1936 10.1637 12.4034 10.3921C12.6178 10.6159 12.7483 10.8722 12.7949 11.1612H11.6692C11.5993 10.9934 11.4711 10.8536 11.2847 10.7417C11.0982 10.6252 10.8232 10.5669 10.4596 10.5669C10.0774 10.5669 9.76273 10.6392 9.51568 10.7837C9.26863 10.9235 9.08683 11.1263 8.9703 11.392C8.85377 11.653 8.7955 11.97 8.7955 12.3429C8.7955 12.7391 8.86076 13.077 8.99128 13.3567C9.12179 13.6317 9.31291 13.8415 9.56462 13.986C9.82099 14.1258 10.1333 14.1958 10.5015 14.1958C10.7672 14.1958 10.991 14.1585 11.1728 14.0839C11.3546 14.0093 11.4921 13.9068 11.5853 13.7762C11.6785 13.6457 11.7251 13.4989 11.7251 13.3357C11.7251 13.1773 11.6832 13.0374 11.5993 12.9162C11.5154 12.7904 11.3872 12.6925 11.2147 12.6226C11.0423 12.5526 10.8255 12.5177 10.5645 12.5177C10.2102 12.5177 9.87926 12.5993 9.57161 12.7624C9.26396 12.9256 8.99594 13.1493 8.76753 13.4336L8.32704 13.126C8.4762 12.837 8.66964 12.5783 8.90737 12.3499C9.1451 12.1215 9.42478 11.942 9.74641 11.8115C10.068 11.6763 10.4293 11.6087 10.8302 11.6087C11.2544 11.6087 11.6226 11.6786 11.9349 11.8185C12.2472 11.9583 12.4873 12.1564 12.6551 12.4128C12.8276 12.6645 12.9138 12.9605 12.9138 13.3008C12.9138 13.655 12.8159 13.9697 12.6201 14.2447C12.429 14.5151 12.1517 14.7272 11.7881 14.881C11.4292 15.0348 10.9956 15.1117 10.4876 15.1117C9.86761 15.1117 9.34787 14.9975 8.92835 14.7691C8.50883 14.536 8.19419 14.2144 7.98443 13.8042C7.77467 13.3894 7.66979 12.9162 7.66979 12.3848C7.66979 11.8534 7.77467 11.3826 7.98443 10.9725C8.19419 10.5623 8.50417 10.2406 8.91436 10.0076C9.32456 9.77449 9.82799 9.65796 10.4246 9.65796ZM16.4015 15.1117C15.8142 15.1117 15.3061 14.9998 14.8773 14.7761C14.4531 14.5477 14.1245 14.2284 13.8914 13.8182C13.6583 13.408 13.5418 12.9302 13.5418 12.3848C13.5418 11.8395 13.6583 11.3617 13.8914 10.9515C14.1245 10.5413 14.4531 10.2243 14.8773 10.0006C15.3061 9.77216 15.8142 9.65796 16.4015 9.65796C16.9842 9.65796 17.4876 9.77216 17.9118 10.0006C18.3407 10.2243 18.6716 10.5413 18.9047 10.9515C19.1377 11.3617 19.2543 11.8395 19.2543 12.3848C19.2543 12.9302 19.1377 13.408 18.9047 13.8182C18.6716 14.2284 18.3407 14.5477 17.9118 14.7761C17.4876 14.9998 16.9842 15.1117 16.4015 15.1117ZM16.4015 14.1468C16.9283 14.1468 17.3361 13.993 17.6251 13.6853C17.9188 13.373 18.0656 12.9395 18.0656 12.3848C18.0656 11.8255 17.9188 11.392 17.6251 11.0843C17.3361 10.7767 16.9283 10.6229 16.4015 10.6229C15.8748 10.6229 15.4646 10.7767 15.1709 11.0843C14.8773 11.392 14.7305 11.8255 14.7305 12.3848C14.7305 12.9442 14.8773 13.3777 15.1709 13.6853C15.4646 13.993 15.8748 14.1468 16.4015 14.1468ZM21.3112 14.4894V10.5739H22.1782V14.4894H21.3112ZM19.7869 12.9652V12.0982H23.7024V12.9652H19.7869Z" fill="#9FCE10"></path></svg> 