<?xml version="1.0" encoding="UTF-8"?> <svg xmlns="http://www.w3.org/2000/svg" width="13" height="13" viewBox="0 0 13 13" fill="none"><g clip-path="url(#clip0_483_32495)"><path fill-rule="evenodd" clip-rule="evenodd" d="M6.83281 10.3556C8.87627 10.3556 10.5328 8.69902 10.5328 6.65557C10.5328 4.61211 8.87627 2.95557 6.83281 2.95557C4.78936 2.95557 3.13281 4.61211 3.13281 6.65557C3.13281 8.69902 4.78936 10.3556 6.83281 10.3556Z" fill="#012169"></path><path fill-rule="evenodd" clip-rule="evenodd" d="M10.1007 4.91938L7.75751 6.66704L10.0956 8.40115C9.91803 8.73244 9.69145 9.03355 9.42558 9.29479L6.83251 7.36079L4.24411 9.29938C3.97817 9.03899 3.75135 8.7388 3.5733 8.40844L5.89594 6.67861L3.55566 4.93564C3.7299 4.60435 3.95289 4.30272 4.21511 4.04028L6.82094 5.97329L9.43543 4.02588C9.6996 4.28739 9.92457 4.58842 10.1007 4.91938Z" fill="white"></path><path fill-rule="evenodd" clip-rule="evenodd" d="M9.57121 4.16699C9.65619 4.26044 9.73645 4.35825 9.81162 4.46005L7.65408 6.08904L7.6772 5.58029L9.57121 4.16699ZM3.65625 4.75783C3.72432 4.64411 3.79833 4.53436 3.87784 4.429L5.89658 5.9156H5.20283L3.65625 4.75783ZM9.78769 8.8832C9.86268 8.78389 9.93279 8.68067 9.99764 8.57391L8.03564 7.12966H7.3997L9.78769 8.8832ZM4.11311 9.1639L5.97752 7.7656L5.90814 7.36091L3.87445 8.8777C3.94923 8.97711 4.0289 9.07263 4.11311 9.1639Z" fill="#C8102E"></path><path fill-rule="evenodd" clip-rule="evenodd" d="M10.4162 7.58057C10.4923 7.28492 10.5328 6.97497 10.5328 6.65557C10.5328 6.33616 10.4923 6.02621 10.4162 5.73057H7.76938V3.07513C7.47025 2.9971 7.15638 2.95557 6.83281 2.95557C6.51757 2.95557 6.21154 2.99499 5.91938 3.06918V5.73057H3.24938C3.17328 6.02621 3.13281 6.33616 3.13281 6.65557C3.13281 6.97497 3.17328 7.28492 3.24938 7.58057H5.91938V10.242C6.21154 10.3161 6.51757 10.3556 6.83281 10.3556C7.15638 10.3556 7.47025 10.314 7.76938 10.236V7.58057H10.4162Z" fill="white"></path><path fill-rule="evenodd" clip-rule="evenodd" d="M10.4897 7.22213C10.5181 7.03742 10.5328 6.84821 10.5328 6.65557C10.5328 6.47095 10.5193 6.28949 10.4932 6.11213H7.42811L7.44913 3.00667C7.2487 2.97306 7.0428 2.95557 6.83281 2.95557C6.66547 2.95557 6.50072 2.96668 6.33926 2.9882L6.31811 6.11213H3.17244C3.14633 6.28949 3.13281 6.47095 3.13281 6.65557C3.13281 6.84821 3.14754 7.03742 3.17592 7.22213H6.31059L6.28964 10.316C6.46692 10.3421 6.64829 10.3556 6.83281 10.3556C7.02556 10.3556 7.21487 10.3408 7.39967 10.3124L7.42059 7.22213H10.4897Z" fill="#C8102E"></path><path fill-rule="evenodd" clip-rule="evenodd" d="M6.83281 10.1397C8.75706 10.1397 10.317 8.57982 10.317 6.65557C10.317 4.73131 8.75706 3.1714 6.83281 3.1714C4.90856 3.1714 3.34865 4.73131 3.34865 6.65557C3.34865 8.57982 4.90856 10.1397 6.83281 10.1397ZM6.83281 10.3556C8.87627 10.3556 10.5328 8.69902 10.5328 6.65557C10.5328 4.61211 8.87627 2.95557 6.83281 2.95557C4.78936 2.95557 3.13281 4.61211 3.13281 6.65557C3.13281 8.69902 4.78936 10.3556 6.83281 10.3556Z" fill="#D9D9D9"></path></g><rect x="1.89948" y="1.72223" width="9.86667" height="9.86667" rx="4.93333" stroke="#F5F5F8" stroke-width="2.46667"></rect><defs><clipPath id="clip0_483_32495"><rect x="3.13281" y="2.95557" width="7.4" height="7.4" rx="3.7" fill="white"></rect></clipPath></defs></svg> 