<?xml version="1.0" encoding="UTF-8"?> <svg xmlns="http://www.w3.org/2000/svg" width="16" height="20" viewBox="0 0 16 20" fill="none"><path d="M5.58581 0.5H9.93032V2.00421C10.4676 2.1087 10.8829 2.25183 11.3578 2.4336C12.475 2.86115 13.3646 3.46111 14.0266 4.23347C14.6886 5.00583 15.0472 6.46559 15.1024 7.5H10.4268C10.3579 7.04486 10.082 6.1092 9.59931 5.80577C9.13038 5.48855 8.44077 5.34504 7.44774 5.34504C6.63401 5.34504 5.9513 5.44718 5.48237 5.68164C5.02723 5.90232 4.79966 6.13119 4.79966 6.58633C4.79966 6.79322 4.85482 7.09533 4.96516 7.27463C5.08929 7.44014 5.29617 7.57806 5.58581 7.6884C5.88923 7.79873 6.30989 7.88148 6.84779 7.93665L9.49587 8.14354C10.9578 8.25387 12.1302 8.48834 13.0129 8.84693C13.8956 9.20553 14.53 9.68825 14.9162 10.2951C15.3161 10.902 15.5161 11.9101 15.5161 12.7928C15.5161 13.8824 15.1989 14.5776 14.5645 15.4051C13.9438 16.2326 13.068 16.8739 11.9371 17.3291C11.3011 17.585 10.6928 17.769 9.93032 17.881V19.5H5.58581V17.8321C4.91669 17.7184 4.38418 17.5507 3.80662 17.3291C2.6205 16.8739 1.69643 16.2395 1.03441 15.4258C0.372387 14.5982 0.0275842 13.8686 0 12.7928H4.69622C4.77897 13.3858 5.10998 13.6328 5.68925 13.9776C6.26852 14.3086 7.08915 14.6547 8.06839 14.6547C8.96487 14.6547 9.6131 14.3569 10.0958 14.1224C10.5786 13.8742 10.8199 13.5156 10.8199 13.0466C10.8199 12.7984 10.751 12.5846 10.613 12.4053C10.4751 12.2122 10.2406 12.0605 9.90964 11.9502C9.59242 11.8398 9.15797 11.764 8.60628 11.7226L6.22714 11.5364C4.07557 11.3571 2.51706 10.8675 1.55161 10.0675C0.586165 9.2538 0 7.92417 0 6.58633C0 5.49676 0.406868 4.83343 1.01372 4.08865C1.62057 3.34388 2.47568 2.7784 3.57905 2.39222C4.21745 2.16366 4.82581 2.00041 5.58581 1.90246V0.5Z" fill="url(#paint0_linear_483_32308)"></path><defs><linearGradient id="paint0_linear_483_32308" x1="0.698593" y1="0.500004" x2="17.9483" y2="2.64063" gradientUnits="userSpaceOnUse"><stop stop-color="#B7E70D"></stop><stop offset="1" stop-color="#8BCC00"></stop></linearGradient></defs></svg> 