<?xml version="1.0" encoding="UTF-8"?> <svg xmlns="http://www.w3.org/2000/svg" width="281" height="60" viewBox="0 0 281 60" fill="none"><path d="M57.7517 36.9573C53.8435 52.6331 37.9666 62.1731 22.289 58.264C6.6178 54.3558 -2.92227 38.478 0.987755 22.8032C4.89412 7.12559 20.7711 -2.41537 36.4441 1.49282C52.1207 5.40102 61.6599 21.2807 57.7517 36.9573Z" fill="#F7931A"></path><path d="M42.2761 25.7053C42.8586 21.8117 39.8941 19.7186 35.8405 18.3223L37.1554 13.048L33.9449 12.2479L32.6647 17.3832C31.8207 17.1729 30.9539 16.9745 30.0925 16.7779L31.3818 11.6087L28.1731 10.8086L26.8573 16.0811C26.1587 15.922 25.4729 15.7647 24.8072 15.5992L24.8108 15.5827L20.3833 14.4772L19.5292 17.9062C19.5292 17.9062 21.9113 18.4522 21.861 18.486C23.1613 18.8106 23.3962 19.6711 23.3569 20.3532L21.8591 26.3618C21.9487 26.3847 22.0649 26.4176 22.1929 26.4688C22.0859 26.4423 21.9716 26.413 21.8537 26.3847L19.7541 34.8018C19.595 35.1969 19.1918 35.7894 18.2829 35.5644C18.3149 35.6111 15.9493 34.982 15.9493 34.982L14.3555 38.657L18.5334 39.6985C19.3107 39.8933 20.0724 40.0972 20.8222 40.2892L19.4936 45.6239L22.7004 46.424L24.0162 41.146C24.8922 41.3838 25.7426 41.6032 26.5748 41.8099L25.2635 47.0632L28.474 47.8633L29.8026 42.5387C35.2772 43.5747 39.3939 43.1568 41.1267 38.2053C42.523 34.2184 41.0572 31.9187 38.1768 30.4191C40.2744 29.9353 41.8546 28.5555 42.2761 25.7053ZM34.9407 35.9915C33.9486 39.9783 27.2359 37.823 25.0596 37.2826L26.8226 30.2151C28.9989 30.7583 35.9776 31.8337 34.9407 35.9915ZM35.9337 25.6477C35.0285 29.2742 29.4414 27.4317 27.6291 26.98L29.2275 20.57C31.0398 21.0217 36.8765 21.8647 35.9337 25.6477Z" fill="white"></path><path d="M85.9173 18.3285C88.2902 18.3285 90.3403 18.7537 92.0631 19.5885C93.794 20.4316 95.2223 21.5673 96.3681 22.9956C97.4983 24.4313 98.3396 26.1092 98.8827 28.0322C99.4222 29.9607 99.6929 32.0337 99.6929 34.253C99.6929 37.6619 99.0684 40.8825 97.8074 43.9183C96.5464 46.9587 94.8355 49.5959 92.6592 51.8453C90.4848 54.092 87.9171 55.8632 84.9563 57.1718C82 58.4812 78.7858 59.1359 75.3348 59.1359C74.8886 59.1359 74.104 59.1231 72.9957 59.1003C71.8875 59.0774 70.6137 58.9631 69.1872 58.7701C67.7516 58.5699 66.2337 58.2736 64.6307 57.8768C63.0287 57.4872 61.5071 56.9413 60.0742 56.2482L72.8869 2.41135L84.3628 0.632812L79.7752 19.7376C80.7573 19.295 81.7467 18.9521 82.7342 18.7025C83.7227 18.4565 84.7834 18.3285 85.9173 18.3285ZM76.2913 50.032C78.0195 50.032 79.6481 49.6068 81.1779 48.772C82.7123 47.9362 84.0364 46.8078 85.1455 45.4024C86.2547 43.9905 87.1325 42.4004 87.7726 40.6237C88.4127 38.847 88.7364 36.9935 88.7364 35.065C88.7364 32.6957 88.3405 30.8477 87.5513 29.5117C86.7622 28.1813 85.3019 27.5119 83.1814 27.5119C82.4864 27.5119 81.5912 27.6445 80.4811 27.8813C79.3674 28.1328 78.3707 28.6549 77.4773 29.4404L72.5925 49.7294C72.8869 49.7815 73.1475 49.8309 73.3697 49.8775C73.5874 49.9278 73.8279 49.9635 74.0674 49.9882C74.3207 50.0165 74.6106 50.0311 74.9608 50.0311C75.3111 50.0311 75.749 50.032 76.2913 50.032Z" fill="#4D4D4D"></path><path d="M111.486 58.1023H100.525L109.782 19.1512H120.818L111.486 58.1023ZM116.82 14.4054C115.29 14.4054 113.903 13.95 112.672 13.0374C111.432 12.1303 110.817 10.734 110.817 8.85214C110.817 7.81703 111.027 6.84591 111.444 5.92967C111.868 5.01526 112.421 4.22796 113.114 3.55861C113.806 2.89475 114.608 2.36438 115.519 1.96479C116.435 1.57159 117.41 1.375 118.449 1.375C119.978 1.375 121.357 1.83038 122.593 2.74296C123.824 3.66012 124.443 5.05642 124.443 6.92822C124.443 7.96699 124.233 8.94175 123.813 9.85616C123.395 10.7706 122.842 11.5579 122.148 12.2272C121.462 12.892 120.652 13.4205 119.744 13.8165C118.826 14.2161 117.855 14.4054 116.82 14.4054Z" fill="#4D4D4D"></path><path d="M130.493 9.44065L141.974 7.66211L139.154 19.1435H151.45L149.229 28.176H137.008L133.753 41.8008C133.453 42.9364 133.283 43.9971 133.235 44.9829C133.181 45.9732 133.307 46.8236 133.603 47.5396C133.897 48.2574 134.427 48.8106 135.195 49.202C135.959 49.5998 137.054 49.8 138.49 49.8C139.672 49.8 140.824 49.6875 141.938 49.4644C143.045 49.245 144.167 48.9396 145.303 48.54L146.12 56.9855C144.639 57.5286 143.035 57.9959 141.307 58.3891C139.576 58.7878 137.527 58.9798 135.158 58.9798C131.753 58.9798 129.113 58.4741 127.232 57.4674C125.354 56.4533 124.026 55.0679 123.232 53.3141C122.448 51.5667 122.098 49.5522 122.196 47.2826C122.297 45.0076 122.64 42.6164 123.232 40.0981L130.493 9.44065Z" fill="#4D4D4D"></path><path d="M150.953 42.5447C150.953 39.1897 151.496 36.0259 152.582 33.0641C153.665 30.0996 155.226 27.5072 157.252 25.2824C159.27 23.0686 161.729 21.3148 164.623 20.0273C167.503 18.7471 170.728 18.1016 174.282 18.1016C176.507 18.1016 178.494 18.3119 180.243 18.7334C181.998 19.1586 183.587 19.7082 185.023 20.3977L181.243 28.9931C180.255 28.5926 179.23 28.2396 178.171 27.9196C177.11 27.5931 175.815 27.4359 174.283 27.4359C170.625 27.4359 167.733 28.6968 165.58 31.2106C163.436 33.7261 162.356 37.1122 162.356 41.3596C162.356 43.877 162.899 45.9125 163.989 47.4697C165.073 49.027 167.077 49.8014 169.986 49.8014C171.421 49.8014 172.807 49.6515 174.133 49.3589C175.47 49.0626 176.651 48.6895 177.69 48.2488L178.509 57.0601C177.123 57.5977 175.594 58.0833 173.917 58.5085C172.236 58.919 170.235 59.1321 167.915 59.1321C164.853 59.1321 162.261 58.6841 160.14 57.8017C158.019 56.9055 156.266 55.7159 154.885 54.2089C153.497 52.6983 152.5 50.9344 151.884 48.9099C151.268 46.8872 150.953 44.7621 150.953 42.5447Z" fill="#4D4D4D"></path><path d="M199.589 59.1321C196.973 59.1321 194.701 58.7334 192.773 57.9443C190.851 57.1551 189.259 56.0478 188 54.6122C186.739 53.1839 185.795 51.4913 185.149 49.5408C184.502 47.5913 184.191 45.4324 184.191 43.0668C184.191 40.0996 184.668 37.1332 185.631 34.1751C186.589 31.2106 188.011 28.5469 189.893 26.1795C191.76 23.8084 194.063 21.8698 196.776 20.3583C199.485 18.8569 202.601 18.1016 206.102 18.1016C208.67 18.1016 210.931 18.5011 212.885 19.2903C214.83 20.0776 216.432 21.1941 217.698 22.6224C218.951 24.058 219.903 25.7433 220.543 27.6965C221.188 29.6424 221.506 31.8068 221.506 34.1742C221.506 37.1323 221.036 40.0986 220.103 43.0659C219.169 46.0185 217.784 48.6886 215.955 51.0615C214.13 53.4289 211.848 55.3666 209.106 56.8717C206.369 58.3768 203.194 59.1321 199.589 59.1321ZM205.067 27.4368C203.443 27.4368 202.006 27.9086 200.776 28.8404C199.542 29.7832 198.505 30.9682 197.669 32.3975C196.824 33.8331 196.198 35.3986 195.774 37.1003C195.355 38.8057 195.149 40.4178 195.149 41.9494C195.149 44.4211 195.547 46.3459 196.331 47.7312C197.126 49.1093 198.553 49.8024 200.628 49.8024C202.258 49.8024 203.688 49.3342 204.925 48.3924C206.152 47.4569 207.19 46.2709 208.032 44.8389C208.871 43.4106 209.503 41.8406 209.927 40.1361C210.341 38.4363 210.552 36.815 210.552 35.2861C210.552 32.8208 210.155 30.8914 209.364 29.5079C208.574 28.1299 207.14 27.4368 205.067 27.4368Z" fill="#4D4D4D"></path><path d="M233.533 58.1023H222.562L231.819 19.1512H242.861L233.533 58.1023ZM238.858 14.4054C237.329 14.4054 235.943 13.95 234.714 13.0374C233.48 12.1303 232.86 10.734 232.86 8.85214C232.86 7.81703 233.073 6.84591 233.491 5.92967C233.909 5.01526 234.465 4.22796 235.158 3.55861C235.847 2.89475 236.656 2.36438 237.565 1.96479C238.476 1.57159 239.451 1.375 240.486 1.375C242.018 1.375 243.403 1.83038 244.635 2.74296C245.869 3.66012 246.492 5.05642 246.492 6.92822C246.492 7.96699 246.27 8.94175 245.856 9.85616C245.442 10.7706 244.885 11.5579 244.195 12.2272C243.5 12.892 242.701 13.4205 241.79 13.8165C240.872 14.2161 239.899 14.4054 238.858 14.4054Z" fill="#4D4D4D"></path><path d="M250.692 20.9172C251.524 20.674 252.454 20.3814 253.464 20.0632C254.478 19.745 255.611 19.4487 256.877 19.1817C258.128 18.9064 259.541 18.6833 261.095 18.5105C262.648 18.334 264.419 18.248 266.385 18.248C272.166 18.248 276.151 19.9315 278.351 23.2883C280.55 26.6451 280.93 31.2391 279.504 37.0621L274.462 58.0935H263.428L268.315 37.5047C268.613 36.219 268.847 34.9763 269.02 33.762C269.195 32.5586 269.184 31.4979 268.981 30.5798C268.786 29.6727 268.327 28.9302 267.614 28.355C266.891 27.789 265.798 27.5046 264.316 27.5046C262.887 27.5046 261.433 27.6583 259.949 27.9545L252.764 58.0926H241.727L250.692 20.9172Z" fill="#4D4D4D"></path></svg> 