<?xml version="1.0" encoding="UTF-8"?> <svg xmlns="http://www.w3.org/2000/svg" width="260" height="127" viewBox="0 0 260 127" fill="none"><path d="M118.85 29V28.088L121.814 25.064C122.606 24.272 123.002 23.592 123.002 23.024C123.002 22.552 122.858 22.184 122.57 21.92C122.282 21.656 121.93 21.524 121.514 21.524C120.722 21.524 120.146 21.9 119.786 22.652L118.85 22.1C119.114 21.556 119.478 21.144 119.942 20.864C120.414 20.584 120.934 20.444 121.502 20.444C122.206 20.444 122.818 20.676 123.338 21.14C123.858 21.604 124.118 22.228 124.118 23.012C124.118 23.86 123.618 24.784 122.618 25.784L120.47 27.92H124.274V29H118.85ZM130.797 27.968C130.229 28.76 129.433 29.156 128.409 29.156C127.385 29.156 126.589 28.76 126.021 27.968C125.453 27.176 125.169 26.12 125.169 24.8C125.169 23.48 125.453 22.424 126.021 21.632C126.589 20.84 127.385 20.444 128.409 20.444C129.433 20.444 130.229 20.84 130.797 21.632C131.365 22.424 131.649 23.48 131.649 24.8C131.649 26.12 131.365 27.176 130.797 27.968ZM126.837 27.212C127.205 27.78 127.729 28.064 128.409 28.064C129.089 28.064 129.613 27.78 129.981 27.212C130.357 26.644 130.545 25.84 130.545 24.8C130.545 23.76 130.357 22.956 129.981 22.388C129.613 21.812 129.089 21.524 128.409 21.524C127.729 21.524 127.205 21.808 126.837 22.376C126.469 22.944 126.285 23.752 126.285 24.8C126.285 25.84 126.469 26.644 126.837 27.212ZM132.467 29V28.088L135.431 25.064C136.223 24.272 136.619 23.592 136.619 23.024C136.619 22.552 136.475 22.184 136.187 21.92C135.899 21.656 135.547 21.524 135.131 21.524C134.339 21.524 133.763 21.9 133.403 22.652L132.467 22.1C132.731 21.556 133.095 21.144 133.559 20.864C134.031 20.584 134.551 20.444 135.119 20.444C135.823 20.444 136.435 20.676 136.955 21.14C137.475 21.604 137.735 22.228 137.735 23.012C137.735 23.86 137.235 24.784 136.235 25.784L134.087 27.92H137.891V29H132.467ZM140.681 20.6H141.641V29H140.537V21.8L138.749 22.328L138.473 21.368L140.681 20.6Z" fill="#BEBEBE"></path><path d="M63.4768 48.5V49.82H60.3718V59H58.9918V49.82H55.9018V48.5H63.4768ZM68.4574 51.305C69.3374 51.305 70.0424 51.585 70.5724 52.145C71.1024 52.695 71.3674 53.445 71.3674 54.395V59H70.0624V54.47C70.0624 53.86 69.8974 53.39 69.5674 53.06C69.2374 52.72 68.7824 52.55 68.2024 52.55C67.5524 52.55 67.0274 52.755 66.6274 53.165C66.2274 53.565 66.0274 54.185 66.0274 55.025V59H64.7224V48.5H66.0274V52.58C66.5574 51.73 67.3674 51.305 68.4574 51.305ZM74.1042 55.85C74.2342 56.52 74.5392 57.04 75.0192 57.41C75.5092 57.78 76.1092 57.965 76.8192 57.965C77.8092 57.965 78.5292 57.6 78.9792 56.87L80.0892 57.5C79.3592 58.63 78.2592 59.195 76.7892 59.195C75.5992 59.195 74.6292 58.825 73.8792 58.085C73.1392 57.335 72.7692 56.39 72.7692 55.25C72.7692 54.12 73.1342 53.18 73.8642 52.43C74.5942 51.68 75.5392 51.305 76.6992 51.305C77.7992 51.305 78.6942 51.695 79.3842 52.475C80.0842 53.245 80.4342 54.175 80.4342 55.265C80.4342 55.455 80.4192 55.65 80.3892 55.85H74.1042ZM76.6992 52.535C75.9992 52.535 75.4192 52.735 74.9592 53.135C74.4992 53.525 74.2142 54.05 74.1042 54.71H79.1142C79.0042 54 78.7242 53.46 78.2742 53.09C77.8242 52.72 77.2992 52.535 76.6992 52.535ZM93.7843 51.305C94.6243 51.305 95.3043 51.58 95.8243 52.13C96.3443 52.67 96.6043 53.405 96.6043 54.335V59H95.2993V54.38C95.2993 53.8 95.1493 53.35 94.8493 53.03C94.5493 52.71 94.1493 52.55 93.6493 52.55C93.0893 52.55 92.6393 52.74 92.2993 53.12C91.9693 53.49 91.8043 54.06 91.8043 54.83V59H90.4993V54.38C90.4993 53.8 90.3543 53.35 90.0643 53.03C89.7843 52.71 89.3993 52.55 88.9093 52.55C88.3593 52.55 87.8993 52.74 87.5293 53.12C87.1693 53.5 86.9893 54.07 86.9893 54.83V59H85.6843V51.5H86.9893V52.505C87.4993 51.705 88.2443 51.305 89.2243 51.305C90.2343 51.305 90.9693 51.73 91.4293 52.58C91.9493 51.73 92.7343 51.305 93.7843 51.305ZM104.744 58.055C103.974 58.815 103.039 59.195 101.939 59.195C100.839 59.195 99.9038 58.815 99.1338 58.055C98.3738 57.295 97.9938 56.36 97.9938 55.25C97.9938 54.14 98.3738 53.205 99.1338 52.445C99.9038 51.685 100.839 51.305 101.939 51.305C103.039 51.305 103.974 51.685 104.744 52.445C105.514 53.205 105.899 54.14 105.899 55.25C105.899 56.36 105.514 57.295 104.744 58.055ZM101.939 57.92C102.689 57.92 103.319 57.665 103.829 57.155C104.339 56.645 104.594 56.01 104.594 55.25C104.594 54.49 104.339 53.855 103.829 53.345C103.319 52.835 102.689 52.58 101.939 52.58C101.199 52.58 100.574 52.835 100.064 53.345C99.5538 53.855 99.2988 54.49 99.2988 55.25C99.2988 56.01 99.5538 56.645 100.064 57.155C100.574 57.665 101.199 57.92 101.939 57.92ZM108.401 53.525C108.401 53.815 108.546 54.05 108.836 54.23C109.126 54.4 109.476 54.54 109.886 54.65C110.296 54.75 110.706 54.87 111.116 55.01C111.526 55.14 111.876 55.37 112.166 55.7C112.456 56.02 112.601 56.435 112.601 56.945C112.601 57.625 112.336 58.17 111.806 58.58C111.286 58.99 110.616 59.195 109.796 59.195C109.066 59.195 108.441 59.035 107.921 58.715C107.401 58.395 107.031 57.97 106.811 57.44L107.936 56.795C108.056 57.155 108.281 57.44 108.611 57.65C108.941 57.86 109.336 57.965 109.796 57.965C110.226 57.965 110.581 57.885 110.861 57.725C111.141 57.555 111.281 57.295 111.281 56.945C111.281 56.655 111.136 56.425 110.846 56.255C110.556 56.075 110.206 55.935 109.796 55.835C109.386 55.725 108.976 55.6 108.566 55.46C108.156 55.32 107.806 55.09 107.516 54.77C107.226 54.45 107.081 54.04 107.081 53.54C107.081 52.89 107.331 52.355 107.831 51.935C108.341 51.515 108.976 51.305 109.736 51.305C110.346 51.305 110.886 51.445 111.356 51.725C111.836 51.995 112.196 52.375 112.436 52.865L111.341 53.48C111.071 52.84 110.536 52.52 109.736 52.52C109.366 52.52 109.051 52.61 108.791 52.79C108.531 52.96 108.401 53.205 108.401 53.525ZM117.933 52.76H115.938V56.825C115.938 57.195 116.008 57.46 116.148 57.62C116.298 57.77 116.523 57.85 116.823 57.86C117.123 57.86 117.493 57.85 117.933 57.83V59C116.793 59.15 115.958 59.06 115.428 58.73C114.898 58.39 114.633 57.755 114.633 56.825V52.76H113.148V51.5H114.633V49.79L115.938 49.4V51.5H117.933V52.76ZM129.482 48.5H130.787V59H129.482V57.71C128.832 58.7 127.887 59.195 126.647 59.195C125.597 59.195 124.702 58.815 123.962 58.055C123.222 57.285 122.852 56.35 122.852 55.25C122.852 54.15 123.222 53.22 123.962 52.46C124.702 51.69 125.597 51.305 126.647 51.305C127.887 51.305 128.832 51.8 129.482 52.79V48.5ZM126.812 57.935C127.572 57.935 128.207 57.68 128.717 57.17C129.227 56.65 129.482 56.01 129.482 55.25C129.482 54.49 129.227 53.855 128.717 53.345C128.207 52.825 127.572 52.565 126.812 52.565C126.062 52.565 125.432 52.825 124.922 53.345C124.412 53.855 124.157 54.49 124.157 55.25C124.157 56.01 124.412 56.65 124.922 57.17C125.432 57.68 126.062 57.935 126.812 57.935ZM137.999 51.5H139.394L136.334 59.465C136.014 60.315 135.564 60.96 134.984 61.4C134.414 61.85 133.754 62.05 133.004 62V60.785C133.924 60.855 134.599 60.345 135.029 59.255L135.164 58.97L131.894 51.5H133.289L135.839 57.38L137.999 51.5ZM144.219 51.305C145.099 51.305 145.804 51.585 146.334 52.145C146.864 52.695 147.129 53.445 147.129 54.395V59H145.824V54.47C145.824 53.86 145.659 53.39 145.329 53.06C144.999 52.72 144.544 52.55 143.964 52.55C143.314 52.55 142.789 52.755 142.389 53.165C141.989 53.565 141.789 54.185 141.789 55.025V59H140.484V51.5H141.789V52.58C142.319 51.73 143.129 51.305 144.219 51.305ZM155.161 51.5H156.466V59H155.161V57.71C154.511 58.7 153.566 59.195 152.326 59.195C151.276 59.195 150.381 58.815 149.641 58.055C148.901 57.285 148.531 56.35 148.531 55.25C148.531 54.15 148.901 53.22 149.641 52.46C150.381 51.69 151.276 51.305 152.326 51.305C153.566 51.305 154.511 51.8 155.161 52.79V51.5ZM152.491 57.935C153.251 57.935 153.886 57.68 154.396 57.17C154.906 56.65 155.161 56.01 155.161 55.25C155.161 54.49 154.906 53.855 154.396 53.345C153.886 52.825 153.251 52.565 152.491 52.565C151.741 52.565 151.111 52.825 150.601 53.345C150.091 53.855 149.836 54.49 149.836 55.25C149.836 56.01 150.091 56.65 150.601 57.17C151.111 57.68 151.741 57.935 152.491 57.935ZM166.543 51.305C167.383 51.305 168.063 51.58 168.583 52.13C169.103 52.67 169.363 53.405 169.363 54.335V59H168.058V54.38C168.058 53.8 167.908 53.35 167.608 53.03C167.308 52.71 166.908 52.55 166.408 52.55C165.848 52.55 165.398 52.74 165.058 53.12C164.728 53.49 164.563 54.06 164.563 54.83V59H163.258V54.38C163.258 53.8 163.113 53.35 162.823 53.03C162.543 52.71 162.158 52.55 161.668 52.55C161.118 52.55 160.658 52.74 160.288 53.12C159.928 53.5 159.748 54.07 159.748 54.83V59H158.443V51.5H159.748V52.505C160.258 51.705 161.003 51.305 161.983 51.305C162.993 51.305 163.728 51.73 164.188 52.58C164.708 51.73 165.493 51.305 166.543 51.305ZM171.833 50.135C171.583 50.135 171.373 50.05 171.203 49.88C171.033 49.71 170.948 49.505 170.948 49.265C170.948 49.025 171.033 48.82 171.203 48.65C171.373 48.47 171.583 48.38 171.833 48.38C172.073 48.38 172.278 48.47 172.448 48.65C172.618 48.82 172.703 49.025 172.703 49.265C172.703 49.505 172.618 49.71 172.448 49.88C172.278 50.05 172.073 50.135 171.833 50.135ZM171.173 59V51.5H172.478V59H171.173ZM177.994 59.195C176.864 59.195 175.924 58.82 175.174 58.07C174.424 57.31 174.049 56.37 174.049 55.25C174.049 54.13 174.424 53.195 175.174 52.445C175.924 51.685 176.864 51.305 177.994 51.305C178.734 51.305 179.399 51.485 179.989 51.845C180.579 52.195 181.019 52.67 181.309 53.27L180.214 53.9C180.024 53.5 179.729 53.18 179.329 52.94C178.939 52.7 178.494 52.58 177.994 52.58C177.244 52.58 176.614 52.835 176.104 53.345C175.604 53.855 175.354 54.49 175.354 55.25C175.354 56 175.604 56.63 176.104 57.14C176.614 57.65 177.244 57.905 177.994 57.905C178.494 57.905 178.944 57.79 179.344 57.56C179.744 57.32 180.049 57 180.259 56.6L181.369 57.245C181.049 57.835 180.589 58.31 179.989 58.67C179.389 59.02 178.724 59.195 177.994 59.195ZM188.764 51.5H190.069V59H188.764V57.71C188.114 58.7 187.169 59.195 185.929 59.195C184.879 59.195 183.984 58.815 183.244 58.055C182.504 57.285 182.134 56.35 182.134 55.25C182.134 54.15 182.504 53.22 183.244 52.46C183.984 51.69 184.879 51.305 185.929 51.305C187.169 51.305 188.114 51.8 188.764 52.79V51.5ZM186.094 57.935C186.854 57.935 187.489 57.68 187.999 57.17C188.509 56.65 188.764 56.01 188.764 55.25C188.764 54.49 188.509 53.855 187.999 53.345C187.489 52.825 186.854 52.565 186.094 52.565C185.344 52.565 184.714 52.825 184.204 53.345C183.694 53.855 183.439 54.49 183.439 55.25C183.439 56.01 183.694 56.65 184.204 57.17C184.714 57.68 185.344 57.935 186.094 57.935ZM192.047 59V48.05H193.352V59H192.047ZM195.343 59V48.05H196.648V59H195.343ZM203.873 51.5H205.268L202.208 59.465C201.888 60.315 201.438 60.96 200.858 61.4C200.288 61.85 199.628 62.05 198.878 62V60.785C199.798 60.855 200.473 60.345 200.903 59.255L201.038 58.97L197.768 51.5H199.163L201.713 57.38L203.873 51.5ZM75.4295 66.5H76.7345V77H75.4295V75.71C74.7795 76.7 73.8345 77.195 72.5945 77.195C71.5445 77.195 70.6495 76.815 69.9095 76.055C69.1695 75.285 68.7995 74.35 68.7995 73.25C68.7995 72.15 69.1695 71.22 69.9095 70.46C70.6495 69.69 71.5445 69.305 72.5945 69.305C73.8345 69.305 74.7795 69.8 75.4295 70.79V66.5ZM72.7595 75.935C73.5195 75.935 74.1545 75.68 74.6645 75.17C75.1745 74.65 75.4295 74.01 75.4295 73.25C75.4295 72.49 75.1745 71.855 74.6645 71.345C74.1545 70.825 73.5195 70.565 72.7595 70.565C72.0095 70.565 71.3795 70.825 70.8695 71.345C70.3595 71.855 70.1045 72.49 70.1045 73.25C70.1045 74.01 70.3595 74.65 70.8695 75.17C71.3795 75.68 72.0095 75.935 72.7595 75.935ZM79.6267 73.85C79.7567 74.52 80.0617 75.04 80.5417 75.41C81.0317 75.78 81.6317 75.965 82.3417 75.965C83.3317 75.965 84.0517 75.6 84.5017 74.87L85.6117 75.5C84.8817 76.63 83.7817 77.195 82.3117 77.195C81.1217 77.195 80.1517 76.825 79.4017 76.085C78.6617 75.335 78.2917 74.39 78.2917 73.25C78.2917 72.12 78.6567 71.18 79.3867 70.43C80.1167 69.68 81.0617 69.305 82.2217 69.305C83.3217 69.305 84.2167 69.695 84.9067 70.475C85.6067 71.245 85.9567 72.175 85.9567 73.265C85.9567 73.455 85.9417 73.65 85.9117 73.85H79.6267ZM82.2217 70.535C81.5217 70.535 80.9417 70.735 80.4817 71.135C80.0217 71.525 79.7367 72.05 79.6267 72.71H84.6367C84.5267 72 84.2467 71.46 83.7967 71.09C83.3467 70.72 82.8217 70.535 82.2217 70.535ZM92.4138 69.5H93.8238L90.8238 77H89.2938L86.2938 69.5H87.7038L90.0588 75.605L92.4138 69.5ZM95.5495 73.85C95.6795 74.52 95.9845 75.04 96.4645 75.41C96.9545 75.78 97.5545 75.965 98.2645 75.965C99.2545 75.965 99.9745 75.6 100.425 74.87L101.535 75.5C100.805 76.63 99.7045 77.195 98.2345 77.195C97.0445 77.195 96.0745 76.825 95.3245 76.085C94.5845 75.335 94.2145 74.39 94.2145 73.25C94.2145 72.12 94.5795 71.18 95.3095 70.43C96.0395 69.68 96.9845 69.305 98.1445 69.305C99.2445 69.305 100.14 69.695 100.83 70.475C101.53 71.245 101.88 72.175 101.88 73.265C101.88 73.455 101.865 73.65 101.835 73.85H95.5495ZM98.1445 70.535C97.4445 70.535 96.8645 70.735 96.4045 71.135C95.9445 71.525 95.6595 72.05 95.5495 72.71H100.56C100.45 72 100.17 71.46 99.7195 71.09C99.2695 70.72 98.7445 70.535 98.1445 70.535ZM103.38 77V66.05H104.685V77H103.38ZM113.006 76.055C112.236 76.815 111.301 77.195 110.201 77.195C109.101 77.195 108.166 76.815 107.396 76.055C106.636 75.295 106.256 74.36 106.256 73.25C106.256 72.14 106.636 71.205 107.396 70.445C108.166 69.685 109.101 69.305 110.201 69.305C111.301 69.305 112.236 69.685 113.006 70.445C113.776 71.205 114.161 72.14 114.161 73.25C114.161 74.36 113.776 75.295 113.006 76.055ZM110.201 75.92C110.951 75.92 111.581 75.665 112.091 75.155C112.601 74.645 112.856 74.01 112.856 73.25C112.856 72.49 112.601 71.855 112.091 71.345C111.581 70.835 110.951 70.58 110.201 70.58C109.461 70.58 108.836 70.835 108.326 71.345C107.816 71.855 107.561 72.49 107.561 73.25C107.561 74.01 107.816 74.645 108.326 75.155C108.836 75.665 109.461 75.92 110.201 75.92ZM119.839 69.305C120.889 69.305 121.784 69.69 122.524 70.46C123.264 71.22 123.634 72.15 123.634 73.25C123.634 74.35 123.264 75.285 122.524 76.055C121.784 76.815 120.889 77.195 119.839 77.195C118.599 77.195 117.654 76.7 117.004 75.71V80H115.699V69.5H117.004V70.79C117.654 69.8 118.599 69.305 119.839 69.305ZM119.674 75.935C120.424 75.935 121.054 75.68 121.564 75.17C122.074 74.65 122.329 74.01 122.329 73.25C122.329 72.49 122.074 71.855 121.564 71.345C121.054 70.825 120.424 70.565 119.674 70.565C118.914 70.565 118.279 70.825 117.769 71.345C117.259 71.855 117.004 72.49 117.004 73.25C117.004 74.01 117.259 74.65 117.769 75.17C118.279 75.68 118.914 75.935 119.674 75.935ZM125.851 68.135C125.601 68.135 125.391 68.05 125.221 67.88C125.051 67.71 124.966 67.505 124.966 67.265C124.966 67.025 125.051 66.82 125.221 66.65C125.391 66.47 125.601 66.38 125.851 66.38C126.091 66.38 126.296 66.47 126.466 66.65C126.636 66.82 126.721 67.025 126.721 67.265C126.721 67.505 126.636 67.71 126.466 67.88C126.296 68.05 126.091 68.135 125.851 68.135ZM125.191 77V69.5H126.496V77H125.191ZM132.222 69.305C133.102 69.305 133.807 69.585 134.337 70.145C134.867 70.695 135.132 71.445 135.132 72.395V77H133.827V72.47C133.827 71.86 133.662 71.39 133.332 71.06C133.002 70.72 132.547 70.55 131.967 70.55C131.317 70.55 130.792 70.755 130.392 71.165C129.992 71.565 129.792 72.185 129.792 73.025V77H128.487V69.5H129.792V70.58C130.322 69.73 131.132 69.305 132.222 69.305ZM143.179 69.5H144.469V76.685C144.469 77.795 144.094 78.655 143.344 79.265C142.594 79.885 141.694 80.195 140.644 80.195C139.804 80.195 139.079 80.035 138.469 79.715C137.859 79.405 137.399 78.955 137.089 78.365L138.229 77.72C138.639 78.56 139.454 78.98 140.674 78.98C141.454 78.98 142.064 78.775 142.504 78.365C142.954 77.955 143.179 77.395 143.179 76.685V75.62C142.519 76.62 141.579 77.12 140.359 77.12C139.289 77.12 138.384 76.74 137.644 75.98C136.904 75.22 136.534 74.295 136.534 73.205C136.534 72.115 136.904 71.195 137.644 70.445C138.384 69.685 139.289 69.305 140.359 69.305C141.589 69.305 142.529 69.8 143.179 70.79V69.5ZM138.604 75.11C139.114 75.62 139.749 75.875 140.509 75.875C141.269 75.875 141.904 75.62 142.414 75.11C142.924 74.6 143.179 73.965 143.179 73.205C143.179 72.455 142.924 71.825 142.414 71.315C141.904 70.805 141.269 70.55 140.509 70.55C139.749 70.55 139.114 70.805 138.604 71.315C138.094 71.825 137.839 72.455 137.839 73.205C137.839 73.965 138.094 74.6 138.604 75.11ZM154.336 69.305C155.386 69.305 156.281 69.69 157.021 70.46C157.761 71.22 158.131 72.15 158.131 73.25C158.131 74.35 157.761 75.285 157.021 76.055C156.281 76.815 155.386 77.195 154.336 77.195C153.096 77.195 152.151 76.7 151.501 75.71V77H150.196V66.5H151.501V70.79C152.151 69.8 153.096 69.305 154.336 69.305ZM154.171 75.935C154.921 75.935 155.551 75.68 156.061 75.17C156.571 74.65 156.826 74.01 156.826 73.25C156.826 72.49 156.571 71.855 156.061 71.345C155.551 70.825 154.921 70.565 154.171 70.565C153.411 70.565 152.776 70.825 152.266 71.345C151.756 71.855 151.501 72.49 151.501 73.25C151.501 74.01 151.756 74.65 152.266 75.17C152.776 75.68 153.411 75.935 154.171 75.935ZM160.993 70.76C161.423 69.83 162.203 69.365 163.333 69.365V70.73C162.693 70.7 162.143 70.87 161.683 71.24C161.223 71.61 160.993 72.205 160.993 73.025V77H159.688V69.5H160.993V70.76ZM170.53 76.055C169.76 76.815 168.825 77.195 167.725 77.195C166.625 77.195 165.69 76.815 164.92 76.055C164.16 75.295 163.78 74.36 163.78 73.25C163.78 72.14 164.16 71.205 164.92 70.445C165.69 69.685 166.625 69.305 167.725 69.305C168.825 69.305 169.76 69.685 170.53 70.445C171.3 71.205 171.685 72.14 171.685 73.25C171.685 74.36 171.3 75.295 170.53 76.055ZM167.725 75.92C168.475 75.92 169.105 75.665 169.615 75.155C170.125 74.645 170.38 74.01 170.38 73.25C170.38 72.49 170.125 71.855 169.615 71.345C169.105 70.835 168.475 70.58 167.725 70.58C166.985 70.58 166.36 70.835 165.85 71.345C165.34 71.855 165.085 72.49 165.085 73.25C165.085 74.01 165.34 74.645 165.85 75.155C166.36 75.665 166.985 75.92 167.725 75.92ZM179.568 77H177.948L174.528 73.445V77H173.223V66.5H174.528V72.815L177.768 69.5H179.448L175.863 73.13L179.568 77ZM181.009 73.85C181.139 74.52 181.444 75.04 181.924 75.41C182.414 75.78 183.014 75.965 183.724 75.965C184.714 75.965 185.434 75.6 185.884 74.87L186.994 75.5C186.264 76.63 185.164 77.195 183.694 77.195C182.504 77.195 181.534 76.825 180.784 76.085C180.044 75.335 179.674 74.39 179.674 73.25C179.674 72.12 180.039 71.18 180.769 70.43C181.499 69.68 182.444 69.305 183.604 69.305C184.704 69.305 185.599 69.695 186.289 70.475C186.989 71.245 187.339 72.175 187.339 73.265C187.339 73.455 187.324 73.65 187.294 73.85H181.009ZM183.604 70.535C182.904 70.535 182.324 70.735 181.864 71.135C181.404 71.525 181.119 72.05 181.009 72.71H186.019C185.909 72 185.629 71.46 185.179 71.09C184.729 70.72 184.204 70.535 183.604 70.535ZM190.144 70.76C190.574 69.83 191.354 69.365 192.484 69.365V70.73C191.844 70.7 191.294 70.87 190.834 71.24C190.374 71.61 190.144 72.205 190.144 73.025V77H188.839V69.5H190.144V70.76Z" fill="#B4E913"></path><path d="M117.638 97.656H113.918V100.38H117.482V101.436H113.918V105H112.802V96.6H117.638V97.656ZM123.946 104.244C123.33 104.852 122.582 105.156 121.702 105.156C120.822 105.156 120.074 104.852 119.458 104.244C118.85 103.636 118.546 102.888 118.546 102C118.546 101.112 118.85 100.364 119.458 99.756C120.074 99.148 120.822 98.844 121.702 98.844C122.582 98.844 123.33 99.148 123.946 99.756C124.562 100.364 124.87 101.112 124.87 102C124.87 102.888 124.562 103.636 123.946 104.244ZM121.702 104.136C122.302 104.136 122.806 103.932 123.214 103.524C123.622 103.116 123.826 102.608 123.826 102C123.826 101.392 123.622 100.884 123.214 100.476C122.806 100.068 122.302 99.864 121.702 99.864C121.11 99.864 120.61 100.068 120.202 100.476C119.794 100.884 119.59 101.392 119.59 102C119.59 102.608 119.794 103.116 120.202 103.524C120.61 103.932 121.11 104.136 121.702 104.136ZM127.145 100.008C127.489 99.264 128.113 98.892 129.017 98.892V99.984C128.505 99.96 128.065 100.096 127.697 100.392C127.329 100.688 127.145 101.164 127.145 101.82V105H126.101V99H127.145V100.008ZM133.35 98.844C134.19 98.844 134.906 99.152 135.498 99.768C136.09 100.376 136.386 101.12 136.386 102C136.386 102.88 136.09 103.628 135.498 104.244C134.906 104.852 134.19 105.156 133.35 105.156C132.358 105.156 131.602 104.76 131.082 103.968V105H130.038V96.6H131.082V100.032C131.602 99.24 132.358 98.844 133.35 98.844ZM133.218 104.148C133.818 104.148 134.322 103.944 134.73 103.536C135.138 103.12 135.342 102.608 135.342 102C135.342 101.392 135.138 100.884 134.73 100.476C134.322 100.06 133.818 99.852 133.218 99.852C132.61 99.852 132.102 100.06 131.694 100.476C131.286 100.884 131.082 101.392 131.082 102C131.082 102.608 131.286 103.12 131.694 103.536C132.102 103.944 132.61 104.148 133.218 104.148ZM138.364 102.48C138.468 103.016 138.712 103.432 139.096 103.728C139.488 104.024 139.968 104.172 140.536 104.172C141.328 104.172 141.904 103.88 142.264 103.296L143.152 103.8C142.568 104.704 141.688 105.156 140.512 105.156C139.56 105.156 138.784 104.86 138.184 104.268C137.592 103.668 137.296 102.912 137.296 102C137.296 101.096 137.588 100.344 138.172 99.744C138.756 99.144 139.512 98.844 140.44 98.844C141.32 98.844 142.036 99.156 142.588 99.78C143.148 100.396 143.428 101.14 143.428 102.012C143.428 102.164 143.416 102.32 143.392 102.48H138.364ZM140.44 99.828C139.88 99.828 139.416 99.988 139.048 100.308C138.68 100.62 138.452 101.04 138.364 101.568H142.372C142.284 101 142.06 100.568 141.7 100.272C141.34 99.976 140.92 99.828 140.44 99.828ZM145.294 100.62C145.294 100.852 145.41 101.04 145.642 101.184C145.874 101.32 146.154 101.432 146.482 101.52C146.81 101.6 147.138 101.696 147.466 101.808C147.794 101.912 148.074 102.096 148.306 102.36C148.538 102.616 148.654 102.948 148.654 103.356C148.654 103.9 148.442 104.336 148.018 104.664C147.602 104.992 147.066 105.156 146.41 105.156C145.826 105.156 145.326 105.028 144.91 104.772C144.494 104.516 144.198 104.176 144.022 103.752L144.922 103.236C145.018 103.524 145.198 103.752 145.462 103.92C145.726 104.088 146.042 104.172 146.41 104.172C146.754 104.172 147.038 104.108 147.262 103.98C147.486 103.844 147.598 103.636 147.598 103.356C147.598 103.124 147.482 102.94 147.25 102.804C147.018 102.66 146.738 102.548 146.41 102.468C146.082 102.38 145.754 102.28 145.426 102.168C145.098 102.056 144.818 101.872 144.586 101.616C144.354 101.36 144.238 101.032 144.238 100.632C144.238 100.112 144.438 99.684 144.838 99.348C145.246 99.012 145.754 98.844 146.362 98.844C146.85 98.844 147.282 98.956 147.658 99.18C148.042 99.396 148.33 99.7 148.522 100.092L147.646 100.584C147.43 100.072 147.002 99.816 146.362 99.816C146.066 99.816 145.814 99.888 145.606 100.032C145.398 100.168 145.294 100.364 145.294 100.62Z" fill="#BEBEBE"></path><path d="M212.523 29C212.19 26.8333 209.823 22 203.023 20C203.357 22.1667 205.723 27 212.523 29Z" fill="#F3F3F3"></path><path d="M212.445 22.551C216.799 25.0921 216.939 30.6712 217.001 33.1419C217.016 33.7417 217.026 34.1583 217.091 34.3038C213.467 31.1767 213.085 27.6792 212.775 24.8365C212.684 24.0111 212.6 23.2409 212.445 22.551Z" fill="#F3F3F3"></path><path d="M205.116 29.3028C207.316 32.035 211.112 32.7783 213.571 33.2599C214.64 33.4691 215.456 33.629 215.78 33.8811C213.417 28.9404 209.166 29.1026 205.116 29.3028Z" fill="#F3F3F3"></path><path d="M210.107 34.0132C212.107 37.1918 215.651 38.3355 217.976 39.0856C218.999 39.4157 219.786 39.6696 220.101 39.9873C218.802 36.407 215.994 33.9595 210.107 34.0132Z" fill="#F3F3F3"></path><path d="M214.388 39.3775C215.55 42.4871 220.476 45.0166 222.597 46.1057C223.15 46.3896 223.513 46.5756 223.568 46.6485C222.612 42.8834 220.108 40.0261 214.388 39.3775Z" fill="#F3F3F3"></path><path d="M217.927 45.3234C218.926 48.9989 222.098 50.9622 224.213 52.2715C225.159 52.8571 225.894 53.3119 226.129 53.7305C225.6 49.0301 222.102 46.0591 217.927 45.3234Z" fill="#F3F3F3"></path><path d="M220.625 51.7002C221.17 55.5354 223.932 57.7901 225.817 59.3294C226.719 60.0653 227.42 60.6376 227.583 61.141C227.573 56.7369 225.073 52.8999 220.625 51.7002Z" fill="#F3F3F3"></path><path d="M222.368 58.3353C222.102 61.8092 224.493 64.5368 226.185 66.4669C227.012 67.41 227.672 68.1627 227.774 68.719C228.508 63.8131 225.948 59.8315 222.368 58.3353Z" fill="#F3F3F3"></path><path d="M223.031 65.0894C222.095 68.3646 223.994 71.4467 225.361 73.6662C226.037 74.7631 226.583 75.6493 226.593 76.2439C228.557 71.0126 225.68 66.6464 223.031 65.0894Z" fill="#F3F3F3"></path><path d="M222.475 71.8007C221.008 74.7662 222.561 79.0466 223.466 81.5387C223.817 82.5065 224.07 83.2046 224.011 83.4513C226.13 79.7524 225.882 74.5499 222.475 71.8007Z" fill="#F3F3F3"></path><path d="M220.68 78.2969C218.533 81.1571 219.324 84.7027 219.896 87.2661C220.175 88.5187 220.403 89.5367 220.209 90.1256C223.601 85.1062 222.719 80.5596 220.68 78.2969Z" fill="#F3F3F3"></path><path d="M217.734 84.4317C215.005 87.059 215.312 90.6887 215.533 93.2973C215.64 94.5673 215.727 95.5953 215.434 96.1477C219.346 91.8275 219.464 87.0904 217.734 84.4317Z" fill="#F3F3F3"></path><path d="M213.755 90.1076C210.524 92.1689 210.429 95.9193 210.36 98.6423C210.327 99.944 210.3 101.011 209.939 101.546C214.848 96.9181 214.81 92.3853 213.755 90.1076Z" fill="#F3F3F3"></path><path d="M204.569 103.542C204.865 100.864 205.276 97.1564 208.943 95.2702C209.823 97.8587 208.975 102.198 203.902 106.337C204.316 105.829 204.43 104.799 204.569 103.542Z" fill="#F3F3F3"></path><path d="M207.592 105.97C210.866 105.436 214.931 104.774 218.453 99.7188C216.618 100.838 214.888 101.242 213.176 101.642C210.387 102.293 207.645 102.933 204.575 106.638C205.454 106.318 206.477 106.151 207.592 105.97Z" fill="#F3F3F3"></path><path d="M213.243 101.049C216.354 100.288 220.395 99.2998 223.495 93.6518C221.806 94.9468 220.151 95.5372 218.507 96.1235C215.852 97.0707 213.228 98.007 210.54 101.885C211.296 101.526 212.219 101.3 213.243 101.049Z" fill="#F3F3F3"></path><path d="M218.447 95.4714C221.49 94.364 225.586 92.8733 227.681 86.8465C226.197 88.4172 224.688 89.1517 223.162 89.8945C220.802 91.0437 218.4 92.2127 215.987 96.5299C216.64 96.1292 217.492 95.8192 218.447 95.4714Z" fill="#F3F3F3"></path><path d="M222.777 89.3086C225.526 87.8612 229.584 85.7248 230.751 79.3938C229.739 80.8967 228.405 81.8601 227 82.8748C224.756 84.4961 222.33 86.2485 220.743 90.5426C221.219 90.1289 221.937 89.7509 222.777 89.3086Z" fill="#F3F3F3"></path><path d="M226.084 82.5921C228.612 80.6414 232.6 77.5632 232.488 71.5063C231.619 73.3619 230.57 74.3405 229.474 75.3631C227.772 76.9516 225.956 78.646 224.524 83.8993C224.886 83.5167 225.437 83.0913 226.084 82.5921Z" fill="#F3F3F3"></path><path d="M228.522 75.1692C230.65 72.9903 233.91 69.6505 232.834 63.4807C232.27 65.3302 231.43 66.4216 230.56 67.5521C229.152 69.3822 227.664 71.315 227.142 76.7327C227.442 76.2758 227.94 75.766 228.522 75.1692Z" fill="#F3F3F3"></path><path d="M229.25 67.9128C230.828 65.7052 233.821 61.5197 231.874 55.586C231.598 57.1163 230.945 58.3667 230.266 59.667C229.031 62.0318 227.711 64.5613 228.415 69.2381C228.519 68.9354 228.836 68.4921 229.25 67.9128Z" fill="#F3F3F3"></path><path d="M229.034 60.0262C230.289 57.5673 232.488 53.26 229.771 48.0117C229.697 49.3985 229.25 50.6013 228.78 51.8659C227.872 54.3115 226.878 56.9885 228.323 61.6747C228.386 61.2946 228.67 60.7378 229.034 60.0262Z" fill="#F3F3F3"></path><path d="M227.409 52.8036C228.283 50.2531 230.007 45.2254 226.706 40.8478C226.763 41.7366 226.529 42.7702 226.262 43.948C225.653 46.6376 224.873 50.0792 227.002 54.2665C226.998 54.0007 227.172 53.4924 227.409 52.8036Z" fill="#F3F3F3"></path><path d="M224.831 45.5389C225.384 42.9523 226.393 38.2376 222.774 34.1431C222.885 35.3379 222.744 36.4324 222.6 37.5511C222.268 40.1239 221.919 42.8247 224.586 47.1672C224.552 46.8393 224.673 46.2754 224.831 45.5389Z" fill="#F3F3F3"></path><path d="M221.319 39.0877C221.583 36.5791 222.111 31.5664 217.994 27.9951C218.132 28.9089 218.132 29.8563 218.131 30.8468C218.129 33.6426 218.127 36.782 221.255 40.479C221.197 40.2387 221.249 39.7506 221.319 39.0877Z" fill="#F3F3F3"></path><path d="M47.5234 29C47.8568 26.8333 50.2234 22 57.0234 20C56.6901 22.1667 54.3234 27 47.5234 29Z" fill="#F3F3F3"></path><path d="M47.6022 22.551C43.2481 25.0921 43.1081 30.6712 43.0461 33.1419C43.0311 33.7417 43.0206 34.1583 42.9556 34.3038C46.5801 31.1767 46.9619 27.6792 47.2723 24.8365C47.3624 24.0111 47.4465 23.2409 47.6022 22.551Z" fill="#F3F3F3"></path><path d="M54.9312 29.3028C52.7305 32.035 48.935 32.7783 46.4755 33.2599C45.4071 33.4691 44.5907 33.629 44.2668 33.8811C46.6294 28.9404 50.8806 29.1026 54.9312 29.3028Z" fill="#F3F3F3"></path><path d="M49.9397 34.0132C47.9403 37.1918 44.3956 38.3355 42.0707 39.0856C41.0474 39.4157 40.2604 39.6696 39.9455 39.9873C41.2444 36.407 44.0533 33.9595 49.9397 34.0132Z" fill="#F3F3F3"></path><path d="M45.6593 39.3775C44.4972 42.4871 39.5706 45.0166 37.4494 46.1057C36.8966 46.3896 36.5343 46.5756 36.479 46.6485C37.4345 42.8834 39.9385 40.0261 45.6593 39.3775Z" fill="#F3F3F3"></path><path d="M42.1203 45.3234C41.1206 48.9989 37.9489 50.9622 35.8335 52.2715C34.8875 52.8571 34.1528 53.3119 33.9181 53.7305C34.4464 49.0301 37.9451 46.0591 42.1203 45.3234Z" fill="#F3F3F3"></path><path d="M39.422 51.7002C38.8767 55.5354 36.115 57.7901 34.2296 59.3294C33.3282 60.0653 32.6272 60.6376 32.4642 61.141C32.4741 56.7369 34.9743 52.8999 39.422 51.7002Z" fill="#F3F3F3"></path><path d="M37.6792 58.3353C37.9447 61.8092 35.5535 64.5368 33.8614 66.4669C33.0346 67.41 32.3747 68.1627 32.2733 68.719C31.5388 63.8131 34.0993 59.8315 37.6792 58.3353Z" fill="#F3F3F3"></path><path d="M37.0163 65.0894C37.9518 68.3646 36.053 71.4467 34.6858 73.6662C34.01 74.7631 33.4641 75.6493 33.4543 76.2439C31.4894 71.0126 34.3667 66.6464 37.0163 65.0894Z" fill="#F3F3F3"></path><path d="M37.5722 71.8007C39.0389 74.7662 37.4855 79.0466 36.5811 81.5387C36.2298 82.5065 35.9764 83.2046 36.0359 83.4513C33.9165 79.7524 34.1647 74.5499 37.5722 71.8007Z" fill="#F3F3F3"></path><path d="M39.3667 78.2969C41.5136 81.1571 40.7227 84.7027 40.1509 87.2661C39.8714 88.5187 39.6444 89.5367 39.838 90.1256C36.4458 85.1062 37.3279 80.5596 39.3667 78.2969Z" fill="#F3F3F3"></path><path d="M42.3129 84.4317C45.0421 87.059 44.7348 90.6887 44.514 93.2973C44.4065 94.5673 44.3195 95.5953 44.6134 96.1477C40.7011 91.8275 40.5829 87.0904 42.3129 84.4317Z" fill="#F3F3F3"></path><path d="M46.292 90.1076C49.5225 92.1689 49.6178 95.9193 49.687 98.6423C49.7201 99.944 49.7472 101.011 50.108 101.546C45.1991 96.9181 45.2365 92.3853 46.292 90.1076Z" fill="#F3F3F3"></path><path d="M55.478 103.542C55.1815 100.864 54.7711 97.1564 51.1037 95.2702C50.224 97.8587 51.0719 102.198 56.1446 106.337C55.731 105.829 55.6171 104.799 55.478 103.542Z" fill="#F3F3F3"></path><path d="M52.4549 105.97C49.181 105.436 45.1161 104.774 41.5938 99.7188C43.4284 100.838 45.1584 101.242 46.8706 101.642C49.66 102.293 52.4021 102.933 55.4717 106.638C54.5931 106.318 53.5697 106.151 52.4549 105.97Z" fill="#F3F3F3"></path><path d="M46.8034 101.049C43.6927 100.288 39.6515 99.2998 36.5521 93.6518C38.241 94.9468 39.8961 95.5372 41.5396 96.1235C44.1946 97.0707 46.8193 98.007 49.5071 101.885C48.7513 101.526 47.8278 101.3 46.8034 101.049Z" fill="#F3F3F3"></path><path d="M41.5996 95.4714C38.557 94.364 34.4612 92.8733 32.3659 86.8465C33.85 88.4172 35.3588 89.1517 36.8845 89.8945C39.2453 91.0437 41.6467 92.2127 44.0599 96.5299C43.4067 96.1292 42.555 95.8192 41.5996 95.4714Z" fill="#F3F3F3"></path><path d="M37.2695 89.3086C34.5205 87.8612 30.4629 85.7248 29.296 79.3938C30.308 80.8967 31.6417 81.8601 33.0465 82.8748C35.2911 84.4961 37.7172 86.2485 39.3034 90.5426C38.8276 90.1289 38.1096 89.7509 37.2695 89.3086Z" fill="#F3F3F3"></path><path d="M33.9626 82.5921C31.4353 80.6414 27.4473 77.5632 27.5588 71.5063C28.4278 73.3619 29.4766 74.3405 30.5726 75.3631C32.2751 76.9516 34.0912 78.646 35.5228 83.8993C35.1606 83.5167 34.6095 83.0913 33.9626 82.5921Z" fill="#F3F3F3"></path><path d="M31.5245 75.1692C29.3973 72.9903 26.1366 69.6505 27.2131 63.4807C27.7767 65.3302 28.6166 66.4216 29.4866 67.5521C30.895 69.3822 32.3824 71.315 32.905 76.7327C32.6048 76.2758 32.1071 75.766 31.5245 75.1692Z" fill="#F3F3F3"></path><path d="M30.7966 67.9128C29.2184 65.7052 26.2263 61.5197 28.1728 55.586C28.4489 57.1163 29.1018 58.3667 29.7807 59.667C31.0154 62.0318 32.3362 64.5613 31.6322 69.2381C31.5276 68.9354 31.2107 68.4921 30.7966 67.9128Z" fill="#F3F3F3"></path><path d="M31.0133 60.0262C29.7578 57.5673 27.5585 53.26 30.2757 48.0117C30.3502 49.3985 30.7969 50.6013 31.2666 51.8659C32.1748 54.3115 33.1691 56.9885 31.7242 61.6747C31.661 61.2946 31.3767 60.7378 31.0133 60.0262Z" fill="#F3F3F3"></path><path d="M32.6383 52.8036C31.7637 50.2531 30.0396 45.2254 33.341 40.8478C33.2839 41.7366 33.518 42.7702 33.7849 43.948C34.3941 46.6376 35.1738 50.0792 33.0454 54.2665C33.0489 54.0007 32.8746 53.4924 32.6383 52.8036Z" fill="#F3F3F3"></path><path d="M35.2162 45.5389C34.6627 42.9523 33.6538 38.2376 37.2728 34.1431C37.1616 35.3379 37.3028 36.4324 37.4471 37.5511C37.779 40.1239 38.1274 42.8247 35.4609 47.1672C35.4945 46.8393 35.3738 46.2754 35.2162 45.5389Z" fill="#F3F3F3"></path><path d="M38.7281 39.0877C38.4638 36.5791 37.9355 31.5664 42.0532 27.9951C41.9146 28.9089 41.9153 29.8563 41.9159 30.8468C41.9178 33.6426 41.9198 36.782 38.7918 40.479C38.8494 40.2387 38.798 39.7506 38.7281 39.0877Z" fill="#F3F3F3"></path></svg> 