<?xml version="1.0" encoding="UTF-8"?> <svg xmlns="http://www.w3.org/2000/svg" width="12" height="12" viewBox="0 0 12 12" fill="none"><path d="M1.76003 8.752C1.76003 9.15734 1.84003 9.44534 2.00003 9.616C2.1707 9.776 2.3947 9.856 2.67203 9.856C2.94936 9.856 3.16803 9.776 3.32803 9.616C3.4987 9.44534 3.58403 9.15734 3.58403 8.752V2.704C3.58403 2.29867 3.4987 2.016 3.32803 1.856C3.16803 1.68534 2.94936 1.6 2.67203 1.6C2.3947 1.6 2.1707 1.68534 2.00003 1.856C1.84003 2.016 1.76003 2.29867 1.76003 2.704V8.752ZM2.8342e-05 2.816C2.8342e-05 1.90934 0.229362 1.216 0.688028 0.736002C1.1467 0.245336 1.80803 2.86102e-06 2.67203 2.86102e-06C3.53603 2.86102e-06 4.19736 0.245336 4.65603 0.736002C5.1147 1.216 5.34403 1.90934 5.34403 2.816V8.64C5.34403 9.54667 5.1147 10.2453 4.65603 10.736C4.19736 11.216 3.53603 11.456 2.67203 11.456C1.80803 11.456 1.1467 11.216 0.688028 10.736C0.229362 10.2453 2.8342e-05 9.54667 2.8342e-05 8.64V2.816ZM9.87978 2.88C9.87978 2.37867 9.79445 2.04267 9.62378 1.872C9.46378 1.69067 9.24511 1.6 8.96778 1.6C8.69045 1.6 8.46645 1.68534 8.29578 1.856C8.13578 2.016 8.05578 2.29867 8.05578 2.704V3.424H6.39178V2.816C6.39178 1.90934 6.61045 1.216 7.04778 0.736002C7.49578 0.245336 8.15178 2.86102e-06 9.01578 2.86102e-06C9.87978 2.86102e-06 10.5304 0.245336 10.9678 0.736002C11.4158 1.216 11.6398 1.90934 11.6398 2.816V3.104C11.6398 4.29867 11.2291 5.06667 10.4078 5.408C10.8558 5.6 11.1704 5.89867 11.3518 6.304C11.5438 6.69867 11.6398 7.184 11.6398 7.76V8.64C11.6398 9.54667 11.4158 10.2453 10.9678 10.736C10.5304 11.216 9.87978 11.456 9.01578 11.456C8.15178 11.456 7.49578 11.216 7.04778 10.736C6.61045 10.2453 6.39178 9.54667 6.39178 8.64V7.712H8.05578V8.752C8.05578 9.15734 8.13578 9.44534 8.29578 9.616C8.46645 9.776 8.69045 9.856 8.96778 9.856C9.24511 9.856 9.46378 9.77067 9.62378 9.6C9.79445 9.42934 9.87978 9.09334 9.87978 8.592V7.712C9.87978 7.18934 9.78911 6.82134 9.60778 6.608C9.42645 6.39467 9.13311 6.288 8.72778 6.288H8.13578V4.688H8.82378C9.15445 4.688 9.41045 4.60267 9.59178 4.432C9.78378 4.26134 9.87978 3.952 9.87978 3.504V2.88Z" fill="white"></path></svg> 