<?xml version="1.0" encoding="UTF-8"?> <svg xmlns="http://www.w3.org/2000/svg" width="31" height="31" viewBox="0 0 31 31" fill="none"><path fill-rule="evenodd" clip-rule="evenodd" d="M15.3333 3.32528C14.0873 3.32528 12.8886 3.5145 11.7627 3.8646C10.8859 4.13725 9.95401 3.64746 9.68136 2.77062C9.4087 1.89378 9.8985 0.961933 10.7753 0.689281C12.2173 0.240912 13.7487 0 15.3333 0C23.8016 0 30.6665 6.86493 30.6665 15.3333C30.6665 20.0853 28.5027 24.3335 25.1129 27.1434C24.4454 27.6966 23.4649 27.6442 22.8603 27.0229L17.467 21.4807C17.4465 21.4597 17.4266 21.4381 17.4073 21.416C15.6123 19.3646 15.4637 16.4343 17.1755 14.2946C18.4383 12.7162 20.2286 10.9819 21.3946 9.87728C22.0612 9.24576 23.1135 9.2742 23.745 9.94081C24.3766 10.6074 24.3481 11.6598 23.6815 12.2913C22.5075 13.4035 20.874 14.9945 19.7721 16.3719C19.1263 17.1791 19.1186 18.2973 19.8843 19.1968L24.105 23.5339C26.114 21.3863 27.3412 18.5036 27.3412 15.3333C27.3412 8.70143 21.9651 3.32528 15.3333 3.32528ZM5.55365 3.33838C6.22111 2.78513 7.20164 2.83759 7.80625 3.45889L13.1995 9.00103C13.22 9.02207 13.2399 9.04364 13.2592 9.06573C15.0542 11.1172 15.2028 14.0474 13.491 16.1872C12.2282 17.7656 10.4379 19.4999 9.27194 20.6045C8.60534 21.236 7.55299 21.2076 6.92147 20.541C6.28995 19.8744 6.31839 18.822 6.985 18.1905C8.15903 17.0782 9.79252 15.4872 10.8944 14.1099C11.5402 13.3026 11.5479 12.1844 10.7822 11.285L6.56154 6.94783C4.55247 9.0955 3.32528 11.9782 3.32528 15.1485C3.32528 21.7803 8.70143 27.1565 15.3333 27.1565C16.5792 27.1565 17.7779 26.9673 18.9038 26.6172C19.7806 26.3445 20.7125 26.8343 20.9851 27.7111C21.2578 28.588 20.768 29.5198 19.8912 29.7925C18.4492 30.2409 16.9178 30.4818 15.3333 30.4818C6.86493 30.4818 -7.04719e-07 23.6168 0 15.1485C3.5236e-07 10.3964 2.16376 6.14825 5.55365 3.33838Z" fill="#9FCE10"></path></svg> 