<?xml version="1.0" encoding="UTF-8"?> <svg xmlns="http://www.w3.org/2000/svg" width="50" height="16" viewBox="0 0 50 16" fill="none"><g clip-path="url(#clip0_2286_9273)"><path d="M21.3807 15.7333H17.3557L19.8717 0.275594H23.8967L21.3807 15.7333ZM13.9708 0.275594L10.1347 10.9082L9.68135 8.61897L8.32782 1.66912C8.32782 1.66912 8.16336 0.277816 6.41867 0.277816H0.0733435L0 0.540075C0 0.540075 1.94027 0.944576 4.20947 2.30699L7.70551 15.7377H11.8994L18.3025 0.275594H13.9708ZM45.6263 15.7333H49.3224L46.0997 0.275594H42.8637C41.3702 0.275594 41.0057 1.42686 41.0057 1.42686L35.0026 15.7333H39.1988L40.0367 13.4374H45.1529L45.6241 15.7333H45.6263ZM41.1968 10.2659L43.3105 4.48062L44.4995 10.2659H41.1946H41.1968ZM35.3182 3.99389L35.8917 0.673427C35.8917 0.673427 34.1203 0 32.2712 0C30.2731 0 25.5302 0.873455 25.5302 5.11849C25.5302 9.11238 31.0977 9.16127 31.0977 11.2593C31.0977 13.3574 26.1036 12.9818 24.4567 11.6594L23.8589 15.131C23.8589 15.131 25.6569 16.0044 28.4017 16.0044C31.1466 16.0044 35.2916 14.582 35.2916 10.7126C35.2916 6.84317 29.6752 6.31866 29.6752 4.57175C29.6752 2.82484 33.5958 3.04931 35.3182 3.99833V3.99389Z" fill="black"></path><path d="M9.68134 8.61877L8.32782 1.6667C8.32782 1.6667 8.16336 0.275391 6.41867 0.275391H0.0733435L0 0.537649C0 0.537649 3.04931 1.16885 5.97194 3.53584C8.76789 5.79838 9.67912 8.61877 9.67912 8.61877H9.68134Z" fill="black"></path></g><defs><clipPath id="clip0_2286_9273"><rect width="49.3224" height="16" fill="white"></rect></clipPath></defs></svg> 