<?xml version="1.0" encoding="UTF-8"?> <svg xmlns="http://www.w3.org/2000/svg" width="25" height="24" viewBox="0 0 25 24" fill="none"><g clip-path="url(#clip0_675_50433)"><path d="M19.334 11V3C19.334 1.89543 18.4386 1 17.334 1H3.33398C2.22941 1 1.33398 1.89543 1.33398 3V16C1.33398 17.1046 2.22941 18 3.33398 18H10.834" stroke="#9FCE10"></path><circle cx="6.33398" cy="6" r="2.5" stroke="#9FCE10"></circle><rect x="11.334" y="4" width="5" height="1" fill="#9FCE10"></rect><rect x="11.334" y="6" width="5" height="1" fill="#9FCE10"></rect><circle cx="16.834" cy="16.5" r="6.03571" stroke="#9FCE10" stroke-width="0.928571"></circle><path d="M16.9149 18.9564C16.4038 18.9564 15.9561 18.8814 15.5717 18.7314C15.1919 18.5767 14.8919 18.361 14.6715 18.0844C14.4559 17.8078 14.3434 17.489 14.334 17.128H15.5014C15.5342 17.414 15.6748 17.6414 15.9233 17.8101C16.1765 17.9742 16.514 18.0563 16.936 18.0563C17.3345 18.0563 17.6368 17.993 17.8431 17.8664C18.0541 17.7398 18.1596 17.5734 18.1596 17.3671C18.1596 17.2452 18.1268 17.1421 18.0611 17.0577C18.0002 16.9733 17.8924 16.903 17.7376 16.8467C17.5876 16.7857 17.3766 16.7436 17.1047 16.7201L16.3663 16.6498C15.6959 16.5888 15.2013 16.4248 14.8825 16.1575C14.5637 15.8903 14.4043 15.5363 14.4043 15.0956C14.4043 14.7581 14.5004 14.4698 14.6926 14.2307C14.8895 13.9869 15.1638 13.7993 15.5154 13.6681C15.867 13.5368 16.2819 13.4712 16.7601 13.4712C17.2383 13.4712 17.6556 13.5438 18.0119 13.6892C18.3729 13.8298 18.6565 14.0291 18.8628 14.2869C19.0691 14.5401 19.1816 14.8378 19.2004 15.18H18.04C18.0119 14.9456 17.8924 14.7534 17.6814 14.6034C17.4704 14.4487 17.1586 14.3713 16.7461 14.3713C16.3663 14.3713 16.0757 14.4323 15.8741 14.5541C15.6772 14.676 15.5787 14.8425 15.5787 15.0534C15.5787 15.1519 15.6068 15.2433 15.6631 15.3277C15.7194 15.4074 15.8178 15.473 15.9585 15.5246C16.0991 15.5762 16.2913 15.6137 16.5351 15.6371L17.3368 15.7075C17.8197 15.7496 18.2065 15.8364 18.4971 15.9677C18.7925 16.0942 19.0058 16.263 19.1371 16.474C19.2683 16.685 19.334 16.9405 19.334 17.2405C19.334 17.5734 19.2355 17.8711 19.0386 18.1336C18.8417 18.3915 18.5628 18.5931 18.2018 18.7384C17.8408 18.8837 17.4118 18.9564 16.9149 18.9564ZM17.2665 13V19.4276H16.3874V13H17.2665Z" fill="#9FCE10"></path></g><defs><clipPath id="clip0_675_50433"><rect width="24" height="24" fill="white" transform="translate(0.333984)"></rect></clipPath></defs></svg> 