<?xml version="1.0" encoding="UTF-8"?> <svg xmlns="http://www.w3.org/2000/svg" width="106" height="26" viewBox="0 0 106 26" fill="none"><path d="M38.1451 1.70361H15.1818C5.35163 1.70361 0 6.21925 0 13.6218C0 21.0243 5.35163 25.5399 15.1818 25.5399H38.1451C47.9753 25.5399 53.3269 21.0222 53.3269 13.6218C53.3269 6.22131 47.9753 1.70361 38.1451 1.70361Z" fill="#B4E913"></path><path d="M75.2276 8.37903H64.7632C64.5305 8.37903 64.3741 8.22254 64.3741 7.98986C64.3741 6.35698 64.9177 5.81132 66.8635 5.81132C70.0531 5.81132 72.2708 6.00488 74.0601 6.20049C74.2928 6.23961 74.4102 6.044 74.4493 5.81132L74.8385 3.47834C74.8776 3.24566 74.682 3.16741 74.4493 3.08917C71.4162 2.19551 68.6529 1.14331 64.7632 1.14331C61.3019 1.14331 59.1233 3.55453 59.1233 6.86146V7.98986C59.1233 8.22254 58.9668 8.37903 58.7341 8.37903H55.0772C54.8445 8.37903 54.688 8.53553 54.688 8.76821V12.1143C54.688 12.3469 54.8445 12.5034 55.0772 12.5034H58.7341C58.9668 12.5034 59.1233 12.6599 59.1233 12.8926V19.5827C59.1233 19.8153 59.2798 19.9718 59.5125 19.9718H63.9849C64.2176 19.9718 64.3741 19.8153 64.3741 19.5827V12.8926C64.3741 12.6599 64.5305 12.5034 64.7632 12.5034H75.2276C75.4603 12.5034 75.6168 12.3469 75.6168 12.1143V8.76821C75.6168 8.53553 75.4603 8.37903 75.2276 8.37903Z" fill="black"></path><path d="M82.7722 8.37891H78.2998C78.0849 8.37891 77.9106 8.55315 77.9106 8.76808V19.5825C77.9106 19.7975 78.0849 19.9717 78.2998 19.9717H82.7722C82.9871 19.9717 83.1614 19.7975 83.1614 19.5825V8.76808C83.1614 8.55315 82.9871 8.37891 82.7722 8.37891Z" fill="black"></path><path d="M80.5567 0.313477C78.7282 0.313477 77.4062 1.63542 77.4062 3.38567C77.4062 5.13592 78.7282 6.53612 80.5567 6.53612C82.3852 6.53612 83.7071 5.21416 83.7071 3.38567C83.7071 1.55718 82.3852 0.313477 80.5567 0.313477Z" fill="black"></path><path d="M100.083 6.00659C97.4371 6.00659 93.8584 7.21323 91.1753 8.49606C90.9427 8.61343 90.747 8.5743 90.6688 8.3025L90.2796 6.74581C90.2405 6.55226 90.0861 6.43488 89.8513 6.43488H86.1943C85.9617 6.43488 85.8052 6.59138 85.8052 6.82406V19.5823C85.8052 19.815 85.9617 19.9715 86.1943 19.9715H90.6667C90.8994 19.9715 91.0559 19.815 91.0559 19.5823V11.6465C91.0559 11.4529 91.1342 11.2573 91.3277 11.2182C93.3106 10.6746 95.8001 10.3616 97.1632 10.3616C99.6136 10.3616 99.7701 11.49 99.7701 14.0577V19.5823C99.7701 19.815 99.9266 19.9715 100.159 19.9715H104.671C104.903 19.9715 105.06 19.815 105.06 19.5823V12.2684C105.06 7.9504 104.127 6.00659 100.081 6.00659H100.083Z" fill="black"></path><path d="M41.8185 6.22935C39.2837 6.22935 35.8553 7.38452 33.2834 8.61381C33.059 8.725 32.8737 8.68793 32.7995 8.42643L32.4268 6.93563C32.3898 6.75031 32.2395 6.63706 32.0171 6.63706H28.6998C28.4754 6.63706 28.3271 6.78531 28.3271 7.00976V19.2347C28.3271 19.4592 28.4754 19.6074 28.6998 19.6074H32.7995C33.024 19.6074 33.1722 19.4592 33.1722 19.2347V11.6325C33.1722 11.4451 33.2464 11.2598 33.4337 11.2227C35.3343 10.7017 37.7188 10.4032 39.0242 10.4032C41.3716 10.4032 41.5219 11.4842 41.5219 13.9428V19.2347C41.5219 19.4592 41.6702 19.6074 41.8946 19.6074H45.9943C46.2188 19.6074 46.367 19.4592 46.367 19.2347V12.2275C46.367 8.09079 45.4734 6.22729 41.8205 6.22729L41.8185 6.22935Z" fill="black"></path><path d="M15.7358 6.04395C9.80968 6.04395 5.82324 8.35427 5.82324 12.7896C5.82324 17.2249 9.40198 19.7968 15.7358 19.7968C22.0696 19.7968 25.6484 17.4123 25.6484 12.7896C25.6484 8.16689 21.6599 6.04395 15.7358 6.04395ZM15.7358 15.7341C12.2333 15.7341 10.5921 14.616 10.5921 12.8267C10.5921 11.0373 12.2312 9.99332 15.7358 9.99332C19.2404 9.99332 20.8795 11.0744 20.8795 12.8267C20.8795 14.579 19.2404 15.7341 15.7358 15.7341Z" fill="black"></path></svg> 