<?xml version="1.0" encoding="UTF-8"?> <svg xmlns="http://www.w3.org/2000/svg" width="25" height="24" viewBox="0 0 25 24" fill="none"><path d="M8.16621 7.60003V7.6C8.16621 5.05949 10.2257 3 12.7662 3C15.3067 3 17.3662 5.05949 17.3662 7.6V10H15.3662V7.6C15.3662 6.16406 14.2021 5 12.7662 5C11.3303 5 10.1662 6.16404 10.1662 7.59996C10.1662 7.59997 10.1662 7.59999 10.1662 7.6L10.166 10H8.16605L8.16621 7.60003Z" stroke="#9FCE10"></path><path d="M12.166 14H13.166L13.666 17H11.666L12.166 14Z" fill="#9FCE10"></path><path fill-rule="evenodd" clip-rule="evenodd" d="M5.66602 11.2C5.66602 10.2611 6.42713 9.5 7.36602 9.5H17.966C18.9049 9.5 19.666 10.2611 19.666 11.2V16.2C19.666 19.1271 17.2931 21.5 14.366 21.5H10.966C8.03891 21.5 5.66602 19.1271 5.66602 16.2V11.2ZM7.36602 10.5C6.97942 10.5 6.66602 10.8134 6.66602 11.2V16.2C6.66602 18.5748 8.59119 20.5 10.966 20.5H14.366C16.7408 20.5 18.666 18.5748 18.666 16.2V11.2C18.666 10.8134 18.3526 10.5 17.966 10.5H7.36602Z" fill="#9FCE10"></path><circle cx="12.666" cy="14" r="1" fill="#9FCE10"></circle></svg> 