<?xml version="1.0" encoding="UTF-8"?> <svg xmlns="http://www.w3.org/2000/svg" width="92" height="87" viewBox="0 0 92 87" fill="none"><path d="M44.4675 71.4852C56.2308 71.4852 65.7669 61.9491 65.7669 50.1857C65.7669 38.4223 56.2308 28.8862 44.4675 28.8862C32.7041 28.8862 23.168 38.4223 23.168 50.1857C23.168 61.9491 32.7041 71.4852 44.4675 71.4852Z" fill="#E58613"></path><path d="M44.4617 67.1577C53.8336 67.1577 61.4311 59.5602 61.4311 50.1882C61.4311 40.8162 53.8336 33.2188 44.4617 33.2188C35.0897 33.2188 27.4922 40.8162 27.4922 50.1882C27.4922 59.5602 35.0897 67.1577 44.4617 67.1577Z" fill="white"></path><path d="M50.9361 55.934H48.4117V60.2815H44.0992V55.934H35.334V52.8486L44.3446 39.3853H48.4117V52.5857H50.9361V55.934ZM44.0992 52.4279V48.3959C44.0992 48.1505 44.0992 47.8875 44.0992 47.5895C44.0992 47.2915 44.0992 46.9935 44.0992 46.6779V45.7663C44.0992 45.4858 44.0992 45.2404 44.0992 45.0125C44.0992 44.7846 44.0992 44.6444 44.0992 44.5567H43.9765L43.398 45.8365C43.1876 46.2747 42.9247 46.7305 42.6617 47.1863L39.1556 52.4454L44.0992 52.4279Z" fill="black"></path><path d="M44.5353 22.0672C49.2697 22.0672 53.1077 17.3109 53.1077 11.4438C53.1077 5.57659 49.2697 0.820312 44.5353 0.820312C39.8009 0.820312 35.9629 5.57659 35.9629 11.4438C35.9629 17.3109 39.8009 22.0672 44.5353 22.0672Z" fill="#678925"></path><path d="M58.175 30.7808C58.8309 29.0242 59.3238 27.2109 59.6475 25.3639C60.9974 26.0301 62.0141 31.2717 61.8739 34.0064C65.7737 38.1392 68.0679 43.5297 68.3426 49.2053C71.1475 44.9104 79.3693 15.1963 54.5637 7.8335C55.896 22.4188 45.9562 24.0667 44.7992 24.1017C43.6422 24.1368 32.861 22.7519 34.281 8.09645C17.9777 11.6551 16.6103 26.6612 17.0836 32.1657C20.6204 30.1546 24.5609 28.9569 28.6186 28.6597C28.8871 27.4453 29.4466 26.3143 30.249 25.3639C30.249 26.6612 30.3366 27.3975 30.3541 28.4668C31.143 28.3616 33.2467 28.1513 35.9814 28.0461C39.6254 26.6592 43.5538 26.1865 47.4228 26.6694C51.2919 27.1522 54.9836 28.5759 58.175 30.8159V30.7808Z" fill="#678925"></path><path d="M87.3618 74.516C89.7297 70.4163 87.5306 64.714 82.45 61.7795C77.3694 58.845 71.3312 59.7897 68.9633 63.8893C66.5954 67.989 68.7944 73.6914 73.875 76.6258C78.9556 79.5603 84.9938 78.6157 87.3618 74.516Z" fill="#2F6FA8"></path><path d="M67.0084 63.0547C67.6044 62.0029 74.1433 53.3954 86.099 62.0029C91.253 46.0852 78.9466 37.4603 73.9329 35.0586C73.9458 39.1363 73.0348 43.1639 71.2683 46.839C72.1737 47.6876 72.8647 48.7391 73.2843 49.9069L70.532 48.4518C70.234 49.1706 69.4101 51.0113 68.1829 53.3604C67.6828 57.285 66.2166 61.0243 63.9158 64.2429C61.6151 67.4615 58.5516 70.059 55 71.8024C56.1018 73.0657 57.3036 74.2382 58.5938 75.3085C57.4718 76.0448 53.3346 74.7124 50.7577 73.3626C45.2322 74.848 39.358 74.3134 34.1914 71.855C38.3636 77.9556 58.5061 96.4502 76.2119 79.7086C62.9063 73.5204 66.4474 64.0715 67.0084 63.0547Z" fill="#2F6FA8"></path><path d="M19.9408 63.8254C17.5567 59.7233 11.5262 58.7942 6.44235 61.7218C1.35852 64.6493 -0.762659 70.3643 1.62148 74.4489C4.00562 78.5334 10.0361 79.4976 15.1024 76.5525C20.1687 73.6074 22.36 67.9275 19.9408 63.8254Z" fill="#C1A840"></path><path d="M20.591 50.3457C20.591 49.4341 20.591 48.5926 20.7488 47.646C18.8711 47.9599 17.0278 48.453 15.2442 49.1186C15.139 47.5584 19.434 43.8594 21.8356 42.7375C23.142 38.8498 25.4307 35.3655 28.4797 32.6224C29.5307 31.5137 30.7073 30.5312 31.9858 29.6948C28.7076 28.8709 -3.61856 36.2162 2.72746 62.1787C14.6657 53.7115 21.0818 61.4775 21.6779 62.4768C22.2739 63.476 26.5163 73.5385 13.1055 79.7092C24.3074 91.9805 37.9812 85.6871 42.5216 82.514C38.9784 80.4917 35.9396 77.6927 33.6336 74.3273C32.4509 74.677 31.2044 74.7549 29.9873 74.5552L32.6169 72.8022C32.2312 72.2938 31.3547 71.0491 30.2853 69.4539C27.2905 67.2462 24.854 64.3682 23.1706 61.0502C21.4873 57.7322 20.6038 54.0663 20.591 50.3457Z" fill="#C1A840"></path></svg> 