<?xml version="1.0" encoding="UTF-8"?> <svg xmlns="http://www.w3.org/2000/svg" width="20" height="20" viewBox="0 0 20 20" fill="none"><g clip-path="url(#clip0_478_62348)"><path d="M10.0002 15.5642C13.0732 15.5642 15.5644 13.0731 15.5644 10.0001C15.5644 6.92707 13.0732 4.43591 10.0002 4.43591C6.92719 4.43591 4.43604 6.92707 4.43604 10.0001C4.43604 13.0731 6.92719 15.5642 10.0002 15.5642Z" fill="white"></path><path d="M10.0002 0H9.75244V0.00304C9.83476 0.00104 9.9174 0 10.0002 0Z" fill="#B22234"></path><path d="M9.75244 1.53848H15.3317C13.7884 0.56408 11.9602 0 10.0002 0C9.9174 0 9.83476 0.00104 9.75244 0.00304V1.5384V1.53848Z" fill="#E82127"></path><path d="M9.75244 4.61538H18.4281C18.0745 4.06314 17.6681 3.54794 17.216 3.0769H9.75244V4.61538Z" fill="#E82127"></path><path d="M9.75244 10.7692H19.9711C19.9904 10.5153 20.0002 10.2588 20.0002 10C20.0002 9.74124 19.9904 9.48467 19.9711 9.23083H9.75244V10.7693V10.7692Z" fill="#E82127"></path><path d="M9.75244 7.69229H19.7324C19.6072 7.16189 19.4396 6.64781 19.2336 6.15381H9.75244V7.69229Z" fill="#E82127"></path><path d="M2.78435 16.9231H17.216C17.6681 16.4521 18.0745 15.937 18.4281 15.3846H1.57227C1.92587 15.9369 2.33227 16.4521 2.78435 16.9231Z" fill="#E82127"></path><path d="M0.766458 13.8462H19.2333C19.4393 13.3522 19.6068 12.8381 19.7321 12.3077H0.267578C0.392858 12.8381 0.560378 13.3522 0.766378 13.8462H0.766458Z" fill="#E82127"></path><path d="M4.66846 18.4615C6.21166 19.4359 8.0399 20 9.99998 20C11.9601 20 13.7882 19.4359 15.3315 18.4615H4.66846Z" fill="#E82127"></path><path d="M9.75244 9.23074H19.9711C19.9312 8.70554 19.8504 8.1917 19.7324 7.69226H9.75244V9.23074Z" fill="white"></path><path d="M1.57204 15.3847H18.4279C18.7388 14.8989 19.0089 14.3844 19.2333 13.8462H0.766602C0.991082 14.3844 1.26108 14.8989 1.57204 15.3847Z" fill="white"></path><path d="M0.0292969 10.7692C0.0692169 11.2944 0.149937 11.8082 0.267937 12.3076H19.7324C19.8504 11.8082 19.9311 11.2944 19.9711 10.7692H0.0292969Z" fill="white"></path><path d="M4.6685 18.4615H15.3315C16.0211 18.026 16.6538 17.5087 17.2158 16.923H2.78418C3.34626 17.5087 3.9789 18.026 4.6685 18.4615Z" fill="white"></path><path d="M9.75244 6.15384H19.2336C19.0092 5.6156 18.7392 5.10112 18.4282 4.61536H9.75252V6.15384H9.75244Z" fill="white"></path><path d="M9.75244 3.07693H17.216C16.654 2.49125 16.0213 1.97389 15.3317 1.53845H9.75244V3.07693Z" fill="white"></path><path d="M2.09164 3.87952C2.03084 3.958 1.97108 4.0372 1.9126 4.11752H2.01428L2.09164 3.87952Z" fill="#3C3B6E"></path><path d="M0.661818 7.61115L0.346058 7.38171C0.318218 7.48459 0.292138 7.58819 0.267578 7.69235H0.635418L0.661818 7.61115Z" fill="#3C3B6E"></path><path d="M5.64062 1.53849H6.26414L5.95239 1.31201L5.64062 1.53849Z" fill="#3C3B6E"></path><path d="M7.11914 4.61536H7.31906L7.21906 4.54272L7.11914 4.61536Z" fill="#3C3B6E"></path><path d="M8.17383 1.53849H8.79727L8.48559 1.31201L8.17383 1.53849Z" fill="#3C3B6E"></path><path d="M6.53748 0.886812L6.1758 1.14961L6.30221 1.53849H8.13572L8.26213 1.14961L7.90044 0.886812H8.34756L8.48572 0.461612L8.62388 0.886812H9.07101L8.70933 1.14961L8.83572 1.53849H9.75245V0.00305176C8.44533 0.0348118 7.20044 0.317532 6.06396 0.804652L6.0906 0.886732H6.53772L6.53748 0.886812Z" fill="#3C3B6E"></path><path d="M5.60222 1.53848L5.72862 1.1496L5.56838 1.0332C5.25894 1.1864 4.9587 1.3552 4.66846 1.53848H5.6023H5.60222Z" fill="#3C3B6E"></path><path d="M2.73774 4.11754L2.37606 4.38034L2.45246 4.61538H4.38598L4.46238 4.38034L4.1007 4.11754H4.54782L4.68598 3.69234L4.82414 4.11754H5.27126L4.90958 4.38034L4.98598 4.61538H6.9195L6.9959 4.38034L6.63422 4.11754H7.08134L7.2195 3.69234L7.35766 4.11754H7.80478L7.4431 4.38034L7.5195 4.61538H9.75294V3.0769H9.02158L8.70982 3.30338L8.84798 3.72858L8.4863 3.46578L8.12462 3.72858L8.26278 3.30338L7.95102 3.0769H6.48822L6.17646 3.30338L6.31462 3.72858L5.95294 3.46578L5.59126 3.72858L5.72942 3.30338L5.41766 3.0769H3.95486L3.6431 3.30338L3.78126 3.72858L3.41958 3.46578L3.0579 3.72858L3.19606 3.30338L2.8843 3.0769H2.78486C2.5723 3.29842 2.36982 3.5297 2.17822 3.77002L2.2911 4.11754H2.73822H2.73774Z" fill="#3C3B6E"></path><path d="M2.05225 4.61536H2.25225L2.15225 4.54272L2.05225 4.61536Z" fill="#3C3B6E"></path><path d="M0.885469 6.92309L1.02363 7.34829H1.47075L1.10907 7.61109L1.13547 7.69229H3.16891L3.19531 7.61109L2.83363 7.34829H3.28075L3.41891 6.92309L3.55707 7.34829H4.00419L3.64251 7.61109L3.66891 7.69229H5.70235L5.72875 7.61109L5.36707 7.34829H5.81419L5.95235 6.92309L6.09051 7.34829H6.53763L6.17595 7.61109L6.20235 7.69229H8.23579L8.26219 7.61109L7.90051 7.34829H8.34763L8.48579 6.92309L8.62395 7.34829H9.07107L8.70939 7.61109L8.73579 7.69229H9.75251V6.15381H7.31915L7.35731 6.27133H7.80443L7.44275 6.53413L7.58091 6.95933L7.21923 6.69653L6.85755 6.95933L6.99571 6.53413L6.63403 6.27133H7.08115L7.11931 6.15381H4.78595L4.82411 6.27133H5.27123L4.90955 6.53413L5.04771 6.95933L4.68603 6.69653L4.32435 6.95933L4.46251 6.53413L4.10083 6.27133H4.54795L4.58611 6.15381H2.25275L2.29091 6.27133H2.73803L2.37635 6.53413L2.51451 6.95933L2.15283 6.69653L1.79115 6.95933L1.92931 6.53413L1.56763 6.27133H2.01475L2.05291 6.15381H0.766509C0.605309 6.54029 0.467709 6.93901 0.355469 7.34829H0.747309L0.885469 6.92309Z" fill="#3C3B6E"></path><path d="M9.75224 9.23079H8.5356L8.62376 9.50215H9.07088L8.7092 9.76495L8.84736 10.1902L8.48568 9.92735L8.124 10.1902L8.26216 9.76495L7.90048 9.50215H8.3476L8.43576 9.23079H6.0024L6.09056 9.50215H6.53768L6.176 9.76495L6.31416 10.1902L5.95248 9.92735L5.5908 10.1902L5.72896 9.76495L5.36728 9.50215H5.8144L5.90256 9.23079H3.4692L3.55736 9.50215H4.00448L3.6428 9.76495L3.78096 10.1902L3.41928 9.92735L3.0576 10.1902L3.19576 9.76495L2.83408 9.50215H3.2812L3.36936 9.23079H0.9356L1.02376 9.50215H1.47088L1.1092 9.76495L1.24736 10.1902L0.88568 9.92735L0.524 10.1902L0.66216 9.76495L0.30048 9.50215H0.7476L0.83576 9.23079H0.02912C0.00984 9.48463 0 9.74119 0 9.99999C0 10.2588 0.00984 10.5154 0.02912 10.7692H9.75224V9.23071V9.23079Z" fill="#3C3B6E"></path><path d="M1.92891 4.38028L1.79475 4.28284C1.71843 4.39212 1.64419 4.50292 1.57227 4.61532H1.85251L1.92891 4.38028Z" fill="#3C3B6E"></path><path d="M4.58545 4.61536H4.78537L4.68545 4.54272L4.58545 4.61536Z" fill="#3C3B6E"></path><path d="M0.885457 9.0769L0.935457 9.23074H3.36882L3.41882 9.0769L3.46882 9.23074H5.90218L5.95218 9.0769L6.00218 9.23074H8.43554L8.48554 9.0769L8.53554 9.23074H9.75218V7.69226H8.73546L8.84722 8.03626L8.48554 7.77346L8.12386 8.03626L8.23562 7.69226H6.20218L6.31394 8.03626L5.95226 7.77346L5.59058 8.03626L5.70234 7.69226H3.6689L3.78066 8.03626L3.41898 7.77346L3.0573 8.03626L3.16906 7.69226H1.13562L1.24738 8.03626L0.885697 7.77346L0.524017 8.03626L0.635777 7.69226H0.267937C0.210977 7.9333 0.162817 8.1777 0.123617 8.42514H0.204337L0.113297 8.4913C0.0764169 8.73498 0.0482569 8.98154 0.0292969 9.23074H0.835697L0.885697 9.0769H0.885457ZM7.08066 8.42522L7.21882 8.00002L7.35698 8.42522H7.8041L7.44242 8.68802L7.58058 9.11322L7.2189 8.85042L6.85722 9.11322L6.99538 8.68802L6.6337 8.42522H7.08082H7.08066ZM4.5473 8.42522L4.68546 8.00002L4.82362 8.42522H5.27074L4.90906 8.68802L5.04722 9.11322L4.68554 8.85042L4.32386 9.11322L4.46202 8.68802L4.10034 8.42522H4.54746H4.5473ZM2.01394 8.42522L2.1521 8.00002L2.29026 8.42522H2.73738L2.3757 8.68802L2.51386 9.11322L2.15218 8.85042L1.7905 9.11322L1.92866 8.68802L1.56698 8.42522H2.0141H2.01394Z" fill="#3C3B6E"></path><path d="M2.15203 5.84616L2.25203 6.15384H4.58539L4.68539 5.84616L4.78539 6.15384H7.11875L7.21875 5.84616L7.31875 6.15384H9.75211V4.61536H7.51867L7.58043 4.80552L7.31867 4.61536H7.11875L6.85699 4.80552L6.91875 4.61536H4.98523L5.04699 4.80552L4.78523 4.61536H4.58531L4.32355 4.80552L4.38531 4.61536H2.45179L2.51355 4.80552L2.25179 4.61536H2.05187L1.79011 4.80552L1.85187 4.61536H1.57163C1.45075 4.80416 1.33619 4.99728 1.22795 5.1944H1.47035L1.10867 5.4572L1.24683 5.8824L0.975713 5.68544C0.901953 5.83944 0.832113 5.9956 0.766113 6.15376H2.05179L2.15179 5.84608L2.15203 5.84616ZM8.34723 5.19448L8.48539 4.76928L8.62355 5.19448H9.07067L8.70899 5.45728L8.84715 5.88248L8.48547 5.61968L8.12379 5.88248L8.26195 5.45728L7.90027 5.19448H8.34739H8.34723ZM5.81387 5.19448L5.95203 4.76928L6.09019 5.19448H6.53731L6.17563 5.45728L6.31379 5.88248L5.95211 5.61968L5.59043 5.88248L5.72859 5.45728L5.36691 5.19448H5.81403H5.81387ZM3.28051 5.19448L3.41867 4.76928L3.55683 5.19448H4.00395L3.64227 5.45728L3.78043 5.88248L3.41875 5.61968L3.05707 5.88248L3.19523 5.45728L2.83355 5.19448H3.28067H3.28051Z" fill="#3C3B6E"></path><path d="M2.83347 3.04061H3.28059L3.41875 2.61541L3.55691 3.04061H4.00403L3.95403 3.07693H5.41683L5.36683 3.04061H5.81395L5.95211 2.61541L6.09027 3.04061H6.53739L6.48739 3.07693H7.95019L7.90019 3.04061H8.34731L8.48547 2.61541L8.62363 3.04061H9.07075L9.02075 3.07693H9.75211V1.53845H8.83539L8.84723 1.57477L8.79723 1.53845H8.17379L8.12379 1.57477L8.13563 1.53845H7.21891L7.35707 1.96365H7.80419L7.44251 2.22645L7.58067 2.65165L7.21899 2.38885L6.85731 2.65165L6.99547 2.22645L6.63379 1.96365H7.08091L7.21907 1.53845H6.30235L6.31419 1.57477L6.26419 1.53845H5.64075L5.59075 1.57477L5.60259 1.53845H4.68587L4.82403 1.96365H5.27115L4.90947 2.22645L5.04763 2.65165L4.68595 2.38885L4.32427 2.65165L4.46243 2.22645L4.10075 1.96365H4.54787L4.68603 1.53845H4.66899C3.97939 1.97389 3.34667 2.49125 2.78467 3.07693H2.88411L2.83411 3.04061H2.83347Z" fill="#3C3B6E"></path><path d="M0.123601 8.42517C0.120081 8.44717 0.116561 8.46925 0.113281 8.49133L0.204321 8.42517H0.123601Z" fill="white"></path><path d="M1.10903 5.45738L1.47071 5.19458H1.22831C1.13991 5.35562 1.05575 5.51938 0.976074 5.68562L1.24719 5.88258L1.10903 5.45738Z" fill="white"></path><path d="M0.300293 7.34839L0.346293 7.38175C0.349333 7.37063 0.352453 7.35951 0.355573 7.34839H0.300373H0.300293Z" fill="white"></path><path d="M0.635631 7.6923H1.13547L1.10907 7.6111L1.47075 7.3483H1.02363L0.885471 6.9231L0.747311 7.3483H0.355471C0.352431 7.35942 0.349231 7.37054 0.346191 7.38166L0.661951 7.6111L0.635551 7.6923H0.635631Z" fill="white"></path><path d="M0.523926 8.03626L0.885686 7.77346L1.24737 8.03626L1.13561 7.69226H0.635686L0.523926 8.03626Z" fill="white"></path><path d="M0.747413 9.5022H0.300293L0.661973 9.765L0.523813 10.1902L0.885573 9.9274L1.24725 10.1902L1.10909 9.765L1.47077 9.5022H1.02373L0.935573 9.23083H0.835573L0.747413 9.5022Z" fill="white"></path><path d="M0.835449 9.23074H0.935449L0.885449 9.0769L0.835449 9.23074Z" fill="white"></path><path d="M2.15211 3.69234L2.09131 3.87954C2.11979 3.84282 2.14843 3.80634 2.17739 3.77002L2.15211 3.69226V3.69234Z" fill="white"></path><path d="M1.85219 4.61538H2.05211L2.15211 4.54274L2.25211 4.61538H2.45203L2.37563 4.38034L2.73731 4.11754H2.29019L2.17731 3.77002C2.14835 3.80634 2.11963 3.84282 2.09123 3.87954L2.01387 4.11754H1.91219C1.87235 4.17218 1.83315 4.22738 1.79443 4.2829L1.92859 4.38034L1.85219 4.61538Z" fill="white"></path><path d="M1.79053 4.80552L2.05221 4.61536H1.85229L1.79053 4.80552Z" fill="white"></path><path d="M2.51412 4.80552L2.45236 4.61536H2.25244L2.51412 4.80552Z" fill="white"></path><path d="M2.01401 6.27133H1.56689L1.92865 6.53413L1.79049 6.95933L2.15217 6.69653L2.51385 6.95933L2.37569 6.53413L2.73745 6.27133H2.29033L2.25217 6.15381H2.05217L2.01401 6.27133Z" fill="white"></path><path d="M2.05225 6.15387H2.25225L2.15225 5.84619L2.05225 6.15387Z" fill="white"></path><path d="M1.79049 9.11328L2.15217 8.85048L2.51385 9.11328L2.37569 8.688L2.73745 8.4252H2.29033L2.15217 8L2.01401 8.4252H1.56689L1.92865 8.688L1.79049 9.11328Z" fill="white"></path><path d="M3.19555 3.30338L3.05739 3.72858L3.41907 3.46578L3.78083 3.72858L3.64267 3.30338L3.95435 3.0769H2.88379L3.19555 3.30338Z" fill="white"></path><path d="M3.55686 3.04064L3.4187 2.61536L3.28054 3.04064H2.8335L2.88342 3.07696H3.95398L4.00398 3.04064H3.55686Z" fill="white"></path><path d="M3.05702 5.88244L3.4187 5.61965L3.78046 5.88244L3.6423 5.45724L4.00398 5.19444H3.55686L3.4187 4.76917L3.28054 5.19444H2.8335L3.19518 5.45724L3.05702 5.88244Z" fill="white"></path><path d="M4.00398 7.34838H3.55686L3.4187 6.9231L3.28054 7.34838H2.8335L3.19518 7.61118L3.16878 7.69238H3.6687L3.6423 7.61118L4.00398 7.34838Z" fill="white"></path><path d="M3.05713 8.03626L3.41881 7.77346L3.78057 8.03626L3.66881 7.69226H3.16889L3.05713 8.03626Z" fill="white"></path><path d="M3.28054 9.5022H2.8335L3.19518 9.765L3.05702 10.1902L3.4187 9.9274L3.78046 10.1902L3.6423 9.765L4.00398 9.5022H3.55686L3.4687 9.23083H3.3687L3.28054 9.5022Z" fill="white"></path><path d="M3.36865 9.23074H3.46865L3.41865 9.0769L3.36865 9.23074Z" fill="white"></path><path d="M4.1001 1.96365L4.46178 2.22645L4.32362 2.65165L4.68538 2.38885L5.04706 2.65165L4.9089 2.22645L5.27058 1.96365H4.82354L4.68538 1.53845L4.54722 1.96365H4.1001Z" fill="white"></path><path d="M5.27058 4.11758H4.82354L4.68538 3.69238L4.54722 4.11758H4.1001L4.46178 4.38038L4.38546 4.61542H4.58538L4.68538 4.54278L4.7853 4.61542H4.9853L4.9089 4.38038L5.27058 4.11758Z" fill="white"></path><path d="M5.0474 4.80552L4.98564 4.61536H4.78564L5.0474 4.80552Z" fill="white"></path><path d="M4.32373 4.80552L4.58549 4.61536H4.38557L4.32373 4.80552Z" fill="white"></path><path d="M4.54722 6.27133H4.1001L4.46178 6.53413L4.32362 6.95933L4.68538 6.69653L5.04706 6.95933L4.9089 6.53413L5.27058 6.27133H4.82354L4.7853 6.15381H4.58538L4.54722 6.27133Z" fill="white"></path><path d="M4.58545 6.15387H4.78537L4.68545 5.84619L4.58545 6.15387Z" fill="white"></path><path d="M4.32362 9.11328L4.68538 8.85048L5.04706 9.11328L4.9089 8.688L5.27058 8.4252H4.82354L4.68538 8L4.54722 8.4252H4.1001L4.46178 8.688L4.32362 9.11328Z" fill="white"></path><path d="M5.60228 1.53857H5.64044L5.9522 1.31209L6.26396 1.53857H6.30212L6.17572 1.14969L6.5374 0.88689H6.09028L6.06364 0.80481C5.89612 0.87657 5.731 0.95273 5.56836 1.03329L5.7286 1.14969L5.6022 1.53857H5.60228Z" fill="white"></path><path d="M6.31408 1.57477L6.30232 1.53845H6.26416L6.31408 1.57477Z" fill="white"></path><path d="M5.59033 1.57477L5.64025 1.53845H5.60209L5.59033 1.57477Z" fill="white"></path><path d="M5.72875 3.30338L5.59059 3.72858L5.95227 3.46578L6.31395 3.72858L6.17579 3.30338L6.48755 3.0769H5.41699L5.72875 3.30338Z" fill="white"></path><path d="M6.09063 3.04064L5.95247 2.61536L5.81431 3.04064H5.36719L5.41719 3.07696H6.48775L6.53775 3.04064H6.09063Z" fill="white"></path><path d="M5.59079 5.88244L5.95247 5.61965L6.31415 5.88244L6.17599 5.45724L6.53775 5.19444H6.09063L5.95247 4.76917L5.81431 5.19444H5.36719L5.72895 5.45724L5.59079 5.88244Z" fill="white"></path><path d="M6.53775 7.34838H6.09063L5.95247 6.9231L5.81431 7.34838H5.36719L5.72895 7.61118L5.70255 7.69238H6.20239L6.17599 7.61118L6.53775 7.34838Z" fill="white"></path><path d="M5.59033 8.03626L5.95201 7.77346L6.31369 8.03626L6.20193 7.69226H5.70209L5.59033 8.03626Z" fill="white"></path><path d="M5.81431 9.5022H5.36719L5.72895 9.765L5.59079 10.1902L5.95247 9.9274L6.31415 10.1902L6.17599 9.765L6.53775 9.5022H6.09063L6.00247 9.23083H5.90247L5.81431 9.5022Z" fill="white"></path><path d="M5.90234 9.23074H6.00234L5.95234 9.0769L5.90234 9.23074Z" fill="white"></path><path d="M6.63379 1.96365L6.99555 2.22645L6.85739 2.65165L7.21907 2.38885L7.58083 2.65165L7.44267 2.22645L7.80435 1.96365H7.35723L7.21907 1.53845L7.08091 1.96365H6.63379Z" fill="white"></path><path d="M7.80435 4.11758H7.35723L7.21907 3.69238L7.08091 4.11758H6.63379L6.99555 4.38038L6.91915 4.61542H7.11915L7.21907 4.54278L7.31907 4.61542H7.51899L7.44267 4.38038L7.80435 4.11758Z" fill="white"></path><path d="M7.58061 4.80552L7.51877 4.61536H7.31885L7.58061 4.80552Z" fill="white"></path><path d="M6.85742 4.80552L7.11918 4.61536H6.91918L6.85742 4.80552Z" fill="white"></path><path d="M7.08091 6.27133H6.63379L6.99555 6.53413L6.85739 6.95933L7.21907 6.69653L7.58083 6.95933L7.44267 6.53413L7.80435 6.27133H7.35723L7.31907 6.15381H7.11915L7.08091 6.27133Z" fill="white"></path><path d="M7.11914 6.15387H7.31906L7.21906 5.84619L7.11914 6.15387Z" fill="white"></path><path d="M6.85739 9.11328L7.21907 8.85048L7.58083 9.11328L7.44267 8.688L7.80435 8.4252H7.35723L7.21907 8L7.08091 8.4252H6.63379L6.99555 8.688L6.85739 9.11328Z" fill="white"></path><path d="M9.07087 0.886706H8.62383L8.48567 0.461426L8.34751 0.886706H7.90039L8.26207 1.14943L8.13575 1.53839H8.17391L8.48567 1.31191L8.79735 1.53839H8.83559L8.70919 1.14943L9.07087 0.886706Z" fill="white"></path><path d="M8.84736 1.57477L8.8356 1.53845H8.79736L8.84736 1.57477Z" fill="white"></path><path d="M8.12402 1.57477L8.17402 1.53845H8.13586L8.12402 1.57477Z" fill="white"></path><path d="M8.26188 3.30338L8.12372 3.72858L8.48548 3.46578L8.84716 3.72858L8.709 3.30338L9.02076 3.0769H7.9502L8.26188 3.30338Z" fill="white"></path><path d="M8.62383 3.04064L8.48567 2.61536L8.34751 3.04064H7.90039L7.95039 3.07696H9.02095L9.07087 3.04064H8.62383Z" fill="white"></path><path d="M8.12391 5.88244L8.48567 5.61965L8.84735 5.88244L8.70919 5.45724L9.07087 5.19444H8.62383L8.48567 4.76917L8.34751 5.19444H7.90039L8.26207 5.45724L8.12391 5.88244Z" fill="white"></path><path d="M9.07087 7.34838H8.62383L8.48567 6.9231L8.34751 7.34838H7.90039L8.26207 7.61118L8.23567 7.69238H8.73559L8.70919 7.61118L9.07087 7.34838Z" fill="white"></path><path d="M8.12402 8.03626L8.48578 7.77346L8.84746 8.03626L8.7357 7.69226H8.23578L8.12402 8.03626Z" fill="white"></path><path d="M8.34751 9.5022H7.90039L8.26207 9.765L8.12391 10.1902L8.48567 9.9274L8.84735 10.1902L8.70919 9.765L9.07087 9.5022H8.62383L8.53567 9.23083H8.43567L8.34751 9.5022Z" fill="white"></path><path d="M8.43555 9.23074H8.53555L8.48555 9.0769L8.43555 9.23074Z" fill="white"></path></g><defs><clipPath id="clip0_478_62348"><rect width="20" height="20" fill="white"></rect></clipPath></defs></svg> 