<?xml version="1.0" encoding="UTF-8"?> <svg xmlns="http://www.w3.org/2000/svg" width="24" height="24" viewBox="0 0 24 24" fill="none"><path d="M5.86271 4.68285C5.86271 4.00997 6.02103 3.49541 6.33768 3.13918C6.66224 2.77504 7.14513 2.59296 7.78635 2.59296C8.42756 2.59296 8.9065 2.77504 9.22315 3.13918C9.54771 3.49541 9.70999 4.00997 9.70999 4.68285V4.94408H8.47506V4.59973C8.47506 4.29891 8.41569 4.08913 8.29695 3.97039C8.18612 3.84373 8.02779 3.7804 7.82197 3.7804C7.61615 3.7804 7.45387 3.84373 7.33512 3.97039C7.2243 4.08913 7.16888 4.29891 7.16888 4.59973C7.16888 4.88471 7.23221 5.13803 7.35887 5.35969C7.48553 5.57342 7.64386 5.77925 7.83385 5.97715C8.02384 6.16714 8.2257 6.36109 8.43944 6.559C8.66109 6.74898 8.86691 6.95876 9.0569 7.18834C9.24689 7.41791 9.40522 7.67914 9.53188 7.97204C9.65854 8.26494 9.72187 8.6093 9.72187 9.00511C9.72187 9.67799 9.55563 10.1965 9.22315 10.5606C8.89858 10.9169 8.41569 11.095 7.77448 11.095C7.13326 11.095 6.64641 10.9169 6.31393 10.5606C5.98937 10.1965 5.82708 9.67799 5.82708 9.00511V8.49451H7.06201V9.08823C7.06201 9.38905 7.12139 9.59883 7.24013 9.71757C7.36679 9.83631 7.53303 9.89569 7.73885 9.89569C7.94467 9.89569 8.10696 9.83631 8.2257 9.71757C8.35236 9.59883 8.41569 9.38905 8.41569 9.08823C8.41569 8.80325 8.35236 8.55389 8.2257 8.34015C8.09904 8.11849 7.94072 7.91267 7.75073 7.72268C7.56074 7.52478 7.35491 7.33083 7.13326 7.14084C6.91952 6.94293 6.71766 6.72919 6.52767 6.49962C6.33768 6.27005 6.17935 6.00882 6.0527 5.71592C5.92604 5.42302 5.86271 5.07866 5.86271 4.68285ZM10.4821 8.35202C10.4821 7.92454 10.5494 7.56436 10.684 7.27146C10.8265 6.97064 11.06 6.74898 11.3846 6.60649C10.7829 6.35317 10.4821 5.7832 10.4821 4.89659V4.74222C10.4821 4.06934 10.6404 3.55874 10.9571 3.21043C11.2816 2.86212 11.7724 2.68796 12.4295 2.68796H13.9257V3.87539H12.4532C12.2474 3.87539 12.0851 3.93477 11.9664 4.05351C11.8477 4.17225 11.7883 4.38203 11.7883 4.68285V5.19345C11.7883 5.52593 11.8556 5.7555 11.9901 5.88216C12.1326 6.00882 12.3266 6.07215 12.572 6.07215H13.142V5.14595H14.4481V6.07215H14.7925V7.25958H14.4481V9.99068C14.4481 10.1965 14.4561 10.3786 14.4719 10.5369C14.4877 10.6873 14.5273 10.8417 14.5906 11H13.2607C13.229 10.9129 13.2053 10.8298 13.1895 10.7506C13.1736 10.6636 13.1578 10.529 13.142 10.3469C12.9124 10.8456 12.5087 11.095 11.9308 11.095C11.4479 11.095 11.0837 10.9327 10.8383 10.6081C10.6008 10.2836 10.4821 9.81257 10.4821 9.1951V8.35202ZM11.7883 9.08823C11.7883 9.38905 11.8477 9.60279 11.9664 9.72945C12.0931 9.84819 12.2593 9.90756 12.4651 9.90756C12.663 9.90756 12.8213 9.85215 12.9401 9.74132C13.0588 9.63049 13.1261 9.44446 13.142 9.18323V7.25958H12.6432C12.3424 7.25958 12.1247 7.33874 11.9901 7.49707C11.8556 7.65539 11.7883 7.9285 11.7883 8.3164V9.08823ZM17.3106 2.68796C17.9676 2.68796 18.4545 2.86212 18.7711 3.21043C19.0957 3.55874 19.258 4.06934 19.258 4.74222V5.82279C19.258 6.49567 19.0957 7.00626 18.7711 7.35458C18.4545 7.70289 17.9676 7.87705 17.3106 7.87705H16.6931V11H15.3869V2.68796H17.3106ZM16.6931 3.87539V6.68961H17.3106C17.5164 6.68961 17.6747 6.6342 17.7856 6.52337C17.8964 6.41254 17.9518 6.20672 17.9518 5.90591V4.6591C17.9518 4.35828 17.8964 4.15246 17.7856 4.04163C17.6747 3.93081 17.5164 3.87539 17.3106 3.87539H16.6931ZM7.08855 18.3164V19.0882C7.08855 19.389 7.14792 19.5988 7.26666 19.7176C7.39332 19.8363 7.55956 19.8957 7.76538 19.8957C7.97121 19.8957 8.13349 19.8363 8.25223 19.7176C8.37889 19.5988 8.44222 19.389 8.44222 19.0882V17.2596C8.44222 16.9588 8.37889 16.749 8.25223 16.6302C8.13349 16.5036 7.97121 16.4403 7.76538 16.4403C7.55956 16.4403 7.39332 16.5036 7.26666 16.6302C7.14792 16.749 7.08855 16.9588 7.08855 17.2596V17.5089H5.85361L6.0911 12.688H9.53466V13.8754H7.26666L7.15979 15.8584C7.4052 15.4547 7.78517 15.2528 8.29973 15.2528C8.78262 15.2528 9.14281 15.4151 9.38029 15.7397C9.6257 16.0642 9.7484 16.5352 9.7484 17.1527V19.0051C9.7484 19.678 9.58216 20.1965 9.24968 20.5606C8.92511 20.9169 8.44222 21.095 7.80101 21.095C7.15979 21.095 6.67294 20.9169 6.34046 20.5606C6.0159 20.1965 5.85361 19.678 5.85361 19.0051V18.3164H7.08855ZM11.8203 19.0882C11.8203 19.389 11.8797 19.6028 11.9984 19.7294C12.1251 19.8482 12.2913 19.9076 12.4971 19.9076C12.7029 19.9076 12.8652 19.8482 12.984 19.7294C13.1106 19.6028 13.174 19.389 13.174 19.0882V14.5997C13.174 14.2989 13.1106 14.0891 12.984 13.9704C12.8652 13.8437 12.7029 13.7804 12.4971 13.7804C12.2913 13.7804 12.1251 13.8437 11.9984 13.9704C11.8797 14.0891 11.8203 14.2989 11.8203 14.5997V19.0882ZM10.5141 14.6828C10.5141 14.01 10.6843 13.4954 11.0247 13.1392C11.3651 12.775 11.8559 12.593 12.4971 12.593C13.1383 12.593 13.6291 12.775 13.9695 13.1392C14.3099 13.4954 14.4801 14.01 14.4801 14.6828V19.0051C14.4801 19.678 14.3099 20.1965 13.9695 20.5606C13.6291 20.9169 13.1383 21.095 12.4971 21.095C11.8559 21.095 11.3651 20.9169 11.0247 20.5606C10.6843 20.1965 10.5141 19.678 10.5141 19.0051V14.6828ZM16.5283 19.0882C16.5283 19.389 16.5877 19.6028 16.7064 19.7294C16.8331 19.8482 16.9993 19.9076 17.2051 19.9076C17.4109 19.9076 17.5732 19.8482 17.692 19.7294C17.8186 19.6028 17.882 19.389 17.882 19.0882V14.5997C17.882 14.2989 17.8186 14.0891 17.692 13.9704C17.5732 13.8437 17.4109 13.7804 17.2051 13.7804C16.9993 13.7804 16.8331 13.8437 16.7064 13.9704C16.5877 14.0891 16.5283 14.2989 16.5283 14.5997V19.0882ZM15.2221 14.6828C15.2221 14.01 15.3923 13.4954 15.7327 13.1392C16.0731 12.775 16.5639 12.593 17.2051 12.593C17.8463 12.593 18.3371 12.775 18.6775 13.1392C19.0179 13.4954 19.1881 14.01 19.1881 14.6828V19.0051C19.1881 19.678 19.0179 20.1965 18.6775 20.5606C18.3371 20.9169 17.8463 21.095 17.2051 21.095C16.5639 21.095 16.0731 20.9169 15.7327 20.5606C15.3923 20.1965 15.2221 19.678 15.2221 19.0051V14.6828Z" fill="black"></path></svg> 