<?xml version="1.0" encoding="UTF-8"?> <svg xmlns="http://www.w3.org/2000/svg" width="21" height="21" viewBox="0 0 21 21" fill="none"><path d="M15.0215 17.2074C14.128 18.0885 13.1525 17.9494 12.2134 17.532C11.2196 17.1054 10.3079 17.0868 9.25944 17.532C7.94655 18.107 7.25364 17.9401 6.46956 17.2074C2.02034 12.5422 2.67678 5.43776 7.72774 5.17807C8.95857 5.24299 9.81559 5.8644 10.5359 5.92004C11.6117 5.69745 12.6419 5.0575 13.7907 5.14097C15.1674 5.25226 16.2068 5.80875 16.8906 6.81042C14.046 8.54479 14.7207 12.3567 17.3282 13.4233C16.8085 14.8145 16.1338 16.1964 15.0124 17.2167L15.0215 17.2074ZM10.4447 5.12242C10.3079 3.05416 11.9581 1.34761 13.8545 1.18066C14.1189 3.57354 11.7211 5.35429 10.4447 5.12242Z" fill="#323238"></path></svg> 