<?xml version="1.0" encoding="UTF-8"?> <svg xmlns="http://www.w3.org/2000/svg" width="12" height="12" viewBox="0 0 12 12" fill="none"><path d="M1.76 8.752C1.76 9.15733 1.84 9.44533 2 9.616C2.17067 9.776 2.39467 9.856 2.672 9.856C2.94933 9.856 3.168 9.776 3.328 9.616C3.49867 9.44533 3.584 9.15733 3.584 8.752V2.704C3.584 2.29867 3.49867 2.016 3.328 1.856C3.168 1.68533 2.94933 1.6 2.672 1.6C2.39467 1.6 2.17067 1.68533 2 1.856C1.84 2.016 1.76 2.29867 1.76 2.704V8.752ZM0 2.816C0 1.90933 0.229333 1.216 0.688 0.735999C1.14667 0.245333 1.808 0 2.672 0C3.536 0 4.19733 0.245333 4.656 0.735999C5.11467 1.216 5.344 1.90933 5.344 2.816V8.64C5.344 9.54667 5.11467 10.2453 4.656 10.736C4.19733 11.216 3.536 11.456 2.672 11.456C1.808 11.456 1.14667 11.216 0.688 10.736C0.229333 10.2453 0 9.54667 0 8.64V2.816Z" fill="#B4E913"></path><path d="M9.97575 2.88C9.97575 2.37867 9.89042 2.04267 9.71975 1.872C9.55975 1.69067 9.34108 1.6 9.06375 1.6C8.78642 1.6 8.56242 1.68533 8.39175 1.856C8.23175 2.016 8.15175 2.29867 8.15175 2.704V3.904H6.48775V2.816C6.48775 1.90933 6.70642 1.216 7.14375 0.735999C7.59175 0.245333 8.24775 0 9.11175 0C9.97575 0 10.6264 0.245333 11.0638 0.735999C11.5118 1.216 11.7358 1.90933 11.7358 2.816C11.7358 3.424 11.6398 3.97333 11.4478 4.464C11.2664 4.95467 11.0371 5.40267 10.7598 5.808C10.4824 6.21333 10.1838 6.58667 9.86375 6.928C9.54375 7.25867 9.25575 7.57867 8.99975 7.888C8.74375 8.18667 8.54108 8.48533 8.39175 8.784C8.24242 9.08267 8.19442 9.39733 8.24775 9.728H11.5758V11.328H6.48775V9.952C6.48775 9.408 6.57308 8.928 6.74375 8.512C6.91442 8.096 7.12775 7.71733 7.38375 7.376C7.65042 7.024 7.93308 6.69867 8.23175 6.4C8.53042 6.09067 8.80775 5.76533 9.06375 5.424C9.33042 5.08267 9.54908 4.70933 9.71975 4.304C9.89042 3.89867 9.97575 3.424 9.97575 2.88Z" fill="#B4E913"></path></svg> 