<?xml version="1.0" encoding="UTF-8"?> <svg xmlns="http://www.w3.org/2000/svg" width="25" height="24" viewBox="0 0 25 24" fill="none"><path d="M12.2176 4.03827C12.4011 3.66665 12.931 3.66665 13.1144 4.03827L14.9239 7.70476C15.1424 8.14747 15.5647 8.45433 16.0533 8.52532L20.0995 9.11327C20.5096 9.17286 20.6734 9.67685 20.3766 9.96611L17.4488 12.8201C17.0952 13.1647 16.9339 13.6612 17.0174 14.1478L17.7085 18.1776C17.7786 18.5861 17.3499 18.8976 16.9831 18.7047L13.364 16.8021C12.927 16.5723 12.405 16.5723 11.968 16.8021L8.34896 18.7047C7.98215 18.8976 7.55343 18.5861 7.62349 18.1776L8.31466 14.1478C8.39812 13.6612 8.2368 13.1647 7.88327 12.8201L4.95541 9.96611C4.65865 9.67685 4.8224 9.17286 5.23251 9.11327L9.27872 8.52532C9.76729 8.45433 10.1896 8.14747 10.4081 7.70476L12.2176 4.03827Z" stroke="#9FCE10"></path><path d="M7.66602 6L4.66602 3" stroke="#9FCE10" stroke-linecap="round" stroke-linejoin="round"></path><path d="M17.666 6L20.666 3" stroke="#9FCE10" stroke-linecap="round" stroke-linejoin="round"></path></svg> 