<?xml version="1.0" encoding="UTF-8"?> <svg xmlns="http://www.w3.org/2000/svg" width="24" height="24" viewBox="0 0 24 24" fill="none"><g clip-path="url(#clip0_513_23599)"><path d="M11.6218 9.47778H12.3785C12.7172 9.47778 12.9928 9.75333 12.9928 10.0921C12.9928 10.4794 13.3069 10.7935 13.6943 10.7935C14.0817 10.7935 14.3957 10.4794 14.3957 10.0921C14.3957 9.08978 13.6608 8.25623 12.7016 8.10107V7.95097C12.7016 7.56359 12.3875 7.24951 12.0002 7.24951C11.6128 7.24951 11.2987 7.56359 11.2987 7.95097V8.10107C10.3395 8.25618 9.60449 9.08976 9.60449 10.0921V10.4814C9.60449 11.5937 10.5095 12.4987 11.6218 12.4987H12.3785C12.7172 12.4987 12.9928 12.7743 12.9928 13.1131V13.5023C12.9928 13.8411 12.7172 14.1167 12.3785 14.1167H11.6218C11.283 14.1167 11.0074 13.8411 11.0074 13.5023V13.466C11.0074 13.0786 10.6933 12.7646 10.3059 12.7646C9.91857 12.7646 9.60449 13.0786 9.60449 13.466V13.5023C9.60449 14.5046 10.3395 15.3383 11.2987 15.4934V15.6434C11.2987 16.0308 11.6128 16.3449 12.0002 16.3449C12.3875 16.3449 12.7016 16.0308 12.7016 15.6434V15.4934C13.6608 15.3382 14.3957 14.5046 14.3957 13.5023V13.1131C14.3957 12.0008 13.4908 11.0958 12.3785 11.0958H11.6218C11.283 11.0958 11.0074 10.8202 11.0074 10.4814V10.0921C11.0074 9.75333 11.283 9.47778 11.6218 9.47778Z" fill="#9FCE10" stroke="#9FCE10" stroke-width="0.203263"></path><path d="M21.0441 6.77928C22.2839 8.92668 22.7191 11.4452 22.2717 13.8841C21.8244 16.323 20.5237 18.5232 18.6024 20.0907C16.6812 21.6583 14.2648 22.491 11.7857 22.4399C9.30665 22.3887 6.92668 21.457 5.07176 19.8115C3.21684 18.166 2.00803 15.9141 1.66167 13.4588C1.31531 11.0035 1.85401 8.50505 3.18135 6.41062C4.5087 4.3162 6.53806 2.76249 8.90625 2.02754C11.2744 1.29259 13.8269 1.42438 16.1068 2.39933" stroke="#9FCE10"></path></g><defs><clipPath id="clip0_513_23599"><rect width="24" height="24" fill="white"></rect></clipPath></defs></svg> 