<?xml version="1.0" encoding="UTF-8"?> <svg xmlns="http://www.w3.org/2000/svg" width="20" height="21" viewBox="0 0 20 21" fill="none"><g clip-path="url(#clip0_478_62346)"><path d="M20 10.2305C20 11.4171 19.7932 12.5556 19.4137 13.6118C18.4944 16.171 16.5613 18.2468 14.0988 19.3545C12.8479 19.9174 11.4606 20.2305 10 20.2305C8.53938 20.2305 7.15206 19.9174 5.90124 19.3545C3.4387 18.2468 1.50557 16.171 0.586307 13.6118C0.206753 12.5556 0 11.4171 0 10.2305C0 9.04381 0.206753 7.90491 0.586541 6.84867C1.50581 4.2899 3.4387 2.21441 5.90124 1.10642C7.15206 0.543759 8.53938 0.230469 10 0.230469C11.4606 0.230469 12.8479 0.543759 14.0988 1.10642C16.5613 2.21441 18.4942 4.2899 19.4135 6.84867C19.7932 7.90491 20 9.04357 20 10.2305Z" fill="#002DA0"></path><path d="M10.0021 3.13904L10.2367 3.82252L10.9593 3.83446L10.3819 4.2688L10.5938 4.95977L10.0021 4.54463L9.41066 4.95977L9.62257 4.2688L9.04492 3.83446L9.7675 3.82252L10.0021 3.13904Z" fill="#FDCC00"></path><path d="M3.96355 9.24512L4.19816 9.92883L4.92074 9.94077L4.3431 10.3751L4.555 11.0659L3.96355 10.6509L3.37185 11.0659L3.58399 10.3751L3.00635 9.94077L3.72893 9.92883L3.96355 9.24512Z" fill="#FDCC00"></path><path d="M4.74626 6.16772L4.98088 6.8512L5.70346 6.86314L5.12581 7.29749L5.33772 7.98846L4.74626 7.57332L4.15457 7.98846L4.36647 7.29749L3.78906 6.86314L4.51164 6.8512L4.74626 6.16772Z" fill="#FDCC00"></path><path d="M6.96599 3.98572L7.2006 4.6692L7.92318 4.68114L7.34554 5.11548L7.55744 5.80645L6.96599 5.39131L6.37429 5.80645L6.58643 5.11548L6.00879 4.68114L6.73137 4.6692L6.96599 3.98572Z" fill="#FDCC00"></path><path d="M15.2467 6.16772L15.0121 6.8512L14.2896 6.86314L14.8672 7.29749L14.6553 7.98846L15.2467 7.57332L15.8384 7.98846L15.6263 7.29749L16.2039 6.86314L15.4814 6.8512L15.2467 6.16772Z" fill="#FDCC00"></path><path d="M4.74626 12.2648L4.98088 12.9485L5.70346 12.9602L5.12581 13.3945L5.33772 14.0855L4.74626 13.6704L4.15457 14.0855L4.36647 13.3945L3.78906 12.9602L4.51164 12.9485L4.74626 12.2648Z" fill="#FDCC00"></path><path d="M15.2467 12.2648L15.0121 12.9485L14.2896 12.9602L14.8672 13.3945L14.6553 14.0855L15.2467 13.6704L15.8384 14.0855L15.6263 13.3945L16.2039 12.9602L15.4814 12.9485L15.2467 12.2648Z" fill="#FDCC00"></path><path d="M13.027 3.98572L12.7924 4.6692L12.0698 4.68114L12.6475 5.11548L12.4353 5.80645L13.027 5.39131L13.6185 5.80645L13.4066 5.11548L13.9842 4.68114L13.2616 4.6692L13.027 3.98572Z" fill="#FDCC00"></path><path d="M6.96599 14.4468L7.2006 15.1303L7.92318 15.1422L7.34554 15.5765L7.55744 16.2675L6.96599 15.8524L6.37429 16.2675L6.58643 15.5765L6.00879 15.1422L6.73137 15.1303L6.96599 14.4468Z" fill="#FDCC00"></path><path d="M13.027 14.4468L12.7924 15.1303L12.0698 15.1422L12.6475 15.5765L12.4353 16.2675L13.027 15.8524L13.6185 16.2675L13.4066 15.5765L13.9842 15.1422L13.2616 15.1303L13.027 14.4468Z" fill="#FDCC00"></path><path d="M16.0827 9.24512L16.3173 9.92883L17.0399 9.94077L16.4625 10.3751L16.6744 11.0659L16.0827 10.6509L15.4912 11.0659L15.7031 10.3751L15.1255 9.94077L15.8481 9.92883L16.0827 9.24512Z" fill="#FDCC00"></path><path d="M10.0021 15.2843L10.2367 15.9678L10.9593 15.9797L10.3819 16.4141L10.5938 17.105L10.0021 16.6899L9.41066 17.105L9.62257 16.4141L9.04492 15.9797L9.7675 15.9678L10.0021 15.2843Z" fill="#FDCC00"></path></g><defs><clipPath id="clip0_478_62346"><rect width="20" height="20" fill="white" transform="translate(0 0.230469)"></rect></clipPath></defs></svg> 