<?xml version="1.0" encoding="UTF-8"?> <svg xmlns="http://www.w3.org/2000/svg" width="260" height="127" viewBox="0 0 260 127" fill="none"><path d="M117.795 29V28.088L120.759 25.064C121.551 24.272 121.947 23.592 121.947 23.024C121.947 22.552 121.803 22.184 121.515 21.92C121.227 21.656 120.875 21.524 120.459 21.524C119.667 21.524 119.091 21.9 118.731 22.652L117.795 22.1C118.059 21.556 118.423 21.144 118.887 20.864C119.359 20.584 119.879 20.444 120.447 20.444C121.151 20.444 121.763 20.676 122.283 21.14C122.803 21.604 123.063 22.228 123.063 23.012C123.063 23.86 122.563 24.784 121.563 25.784L119.415 27.92H123.219V29H117.795ZM129.742 27.968C129.174 28.76 128.378 29.156 127.354 29.156C126.33 29.156 125.534 28.76 124.966 27.968C124.398 27.176 124.114 26.12 124.114 24.8C124.114 23.48 124.398 22.424 124.966 21.632C125.534 20.84 126.33 20.444 127.354 20.444C128.378 20.444 129.174 20.84 129.742 21.632C130.31 22.424 130.594 23.48 130.594 24.8C130.594 26.12 130.31 27.176 129.742 27.968ZM125.782 27.212C126.15 27.78 126.674 28.064 127.354 28.064C128.034 28.064 128.558 27.78 128.926 27.212C129.302 26.644 129.49 25.84 129.49 24.8C129.49 23.76 129.302 22.956 128.926 22.388C128.558 21.812 128.034 21.524 127.354 21.524C126.674 21.524 126.15 21.808 125.782 22.376C125.414 22.944 125.23 23.752 125.23 24.8C125.23 25.84 125.414 26.644 125.782 27.212ZM131.412 29V28.088L134.376 25.064C135.168 24.272 135.564 23.592 135.564 23.024C135.564 22.552 135.42 22.184 135.132 21.92C134.844 21.656 134.492 21.524 134.076 21.524C133.284 21.524 132.708 21.9 132.348 22.652L131.412 22.1C131.676 21.556 132.04 21.144 132.504 20.864C132.976 20.584 133.496 20.444 134.064 20.444C134.768 20.444 135.38 20.676 135.9 21.14C136.42 21.604 136.68 22.228 136.68 23.012C136.68 23.86 136.18 24.784 135.18 25.784L133.032 27.92H136.836V29H131.412ZM137.741 29V28.088L140.705 25.064C141.497 24.272 141.893 23.592 141.893 23.024C141.893 22.552 141.749 22.184 141.461 21.92C141.173 21.656 140.821 21.524 140.405 21.524C139.613 21.524 139.037 21.9 138.677 22.652L137.741 22.1C138.005 21.556 138.369 21.144 138.833 20.864C139.305 20.584 139.825 20.444 140.393 20.444C141.097 20.444 141.709 20.676 142.229 21.14C142.749 21.604 143.009 22.228 143.009 23.012C143.009 23.86 142.509 24.784 141.509 25.784L139.361 27.92H143.165V29H137.741Z" fill="#BEBEBE"></path><path d="M65.4906 51.62L63.8406 54.365L65.4906 57.095H64.0806L62.4306 54.365L64.0806 51.62H65.4906ZM68.0406 51.62L66.3906 54.365L68.0406 57.095H66.6306L64.9806 54.365L66.6306 51.62H68.0406ZM76.1821 53.555C76.6621 53.785 77.0421 54.115 77.3221 54.545C77.6121 54.975 77.7571 55.47 77.7571 56.03C77.7571 56.87 77.4621 57.575 76.8721 58.145C76.2821 58.715 75.5621 59 74.7121 59H70.1821V48.5H74.3821C75.2021 48.5 75.8971 48.775 76.4671 49.325C77.0371 49.875 77.3221 50.555 77.3221 51.365C77.3221 52.295 76.9421 53.025 76.1821 53.555ZM74.3821 49.805H71.5771V53.015H74.3821C74.8221 53.015 75.1921 52.86 75.4921 52.55C75.7921 52.24 75.9421 51.86 75.9421 51.41C75.9421 50.97 75.7871 50.595 75.4771 50.285C75.1771 49.965 74.8121 49.805 74.3821 49.805ZM74.7121 57.695C75.1821 57.695 75.5771 57.53 75.8971 57.2C76.2171 56.87 76.3771 56.465 76.3771 55.985C76.3771 55.515 76.2121 55.115 75.8821 54.785C75.5621 54.455 75.1721 54.29 74.7121 54.29H71.5771V57.695H74.7121ZM80.2346 55.85C80.3646 56.52 80.6696 57.04 81.1496 57.41C81.6396 57.78 82.2396 57.965 82.9496 57.965C83.9396 57.965 84.6596 57.6 85.1096 56.87L86.2196 57.5C85.4896 58.63 84.3896 59.195 82.9196 59.195C81.7296 59.195 80.7596 58.825 80.0096 58.085C79.2696 57.335 78.8996 56.39 78.8996 55.25C78.8996 54.12 79.2646 53.18 79.9946 52.43C80.7246 51.68 81.6696 51.305 82.8296 51.305C83.9296 51.305 84.8246 51.695 85.5146 52.475C86.2146 53.245 86.5646 54.175 86.5646 55.265C86.5646 55.455 86.5496 55.65 86.5196 55.85H80.2346ZM82.8296 52.535C82.1296 52.535 81.5496 52.735 81.0896 53.135C80.6296 53.525 80.3446 54.05 80.2346 54.71H85.2446C85.1346 54 84.8546 53.46 84.4046 53.09C83.9546 52.72 83.4296 52.535 82.8296 52.535ZM88.8967 53.525C88.8967 53.815 89.0417 54.05 89.3317 54.23C89.6217 54.4 89.9717 54.54 90.3817 54.65C90.7917 54.75 91.2017 54.87 91.6117 55.01C92.0217 55.14 92.3717 55.37 92.6617 55.7C92.9517 56.02 93.0967 56.435 93.0967 56.945C93.0967 57.625 92.8317 58.17 92.3017 58.58C91.7817 58.99 91.1117 59.195 90.2917 59.195C89.5617 59.195 88.9367 59.035 88.4167 58.715C87.8967 58.395 87.5267 57.97 87.3067 57.44L88.4317 56.795C88.5517 57.155 88.7767 57.44 89.1067 57.65C89.4367 57.86 89.8317 57.965 90.2917 57.965C90.7217 57.965 91.0767 57.885 91.3567 57.725C91.6367 57.555 91.7767 57.295 91.7767 56.945C91.7767 56.655 91.6317 56.425 91.3417 56.255C91.0517 56.075 90.7017 55.935 90.2917 55.835C89.8817 55.725 89.4717 55.6 89.0617 55.46C88.6517 55.32 88.3017 55.09 88.0117 54.77C87.7217 54.45 87.5767 54.04 87.5767 53.54C87.5767 52.89 87.8267 52.355 88.3267 51.935C88.8367 51.515 89.4717 51.305 90.2317 51.305C90.8417 51.305 91.3817 51.445 91.8517 51.725C92.3317 51.995 92.6917 52.375 92.9317 52.865L91.8367 53.48C91.5667 52.84 91.0317 52.52 90.2317 52.52C89.8617 52.52 89.5467 52.61 89.2867 52.79C89.0267 52.96 88.8967 53.205 88.8967 53.525ZM98.4289 52.76H96.4339V56.825C96.4339 57.195 96.5039 57.46 96.6439 57.62C96.7939 57.77 97.0189 57.85 97.3189 57.86C97.6189 57.86 97.9889 57.85 98.4289 57.83V59C97.2889 59.15 96.4539 59.06 95.9239 58.73C95.3939 58.39 95.1289 57.755 95.1289 56.825V52.76H93.6439V51.5H95.1289V49.79L96.4339 49.4V51.5H98.4289V52.76ZM105.298 57.68H110.173V59H103.903V48.5H110.098V49.82H105.298V53.045H109.723V54.35H105.298V57.68ZM116.719 59.195C115.129 59.195 113.814 58.67 112.774 57.62C111.744 56.57 111.229 55.28 111.229 53.75C111.229 52.22 111.744 50.93 112.774 49.88C113.814 48.83 115.129 48.305 116.719 48.305C117.679 48.305 118.559 48.535 119.359 48.995C120.169 49.455 120.799 50.075 121.249 50.855L120.034 51.56C119.734 50.98 119.284 50.52 118.684 50.18C118.094 49.83 117.439 49.655 116.719 49.655C115.509 49.655 114.519 50.045 113.749 50.825C112.989 51.605 112.609 52.58 112.609 53.75C112.609 54.91 112.989 55.88 113.749 56.66C114.519 57.44 115.509 57.83 116.719 57.83C117.439 57.83 118.094 57.66 118.684 57.32C119.284 56.97 119.734 56.51 120.034 55.94L121.249 56.63C120.809 57.41 120.184 58.035 119.374 58.505C118.564 58.965 117.679 59.195 116.719 59.195ZM129.354 48.5H130.749V59H129.624L124.224 51.155V59H122.829V48.5H123.954L129.354 56.33V48.5ZM142.745 53.555C143.225 53.785 143.605 54.115 143.885 54.545C144.175 54.975 144.32 55.47 144.32 56.03C144.32 56.87 144.025 57.575 143.435 58.145C142.845 58.715 142.125 59 141.275 59H136.745V48.5H140.945C141.765 48.5 142.46 48.775 143.03 49.325C143.6 49.875 143.885 50.555 143.885 51.365C143.885 52.295 143.505 53.025 142.745 53.555ZM140.945 49.805H138.14V53.015H140.945C141.385 53.015 141.755 52.86 142.055 52.55C142.355 52.24 142.505 51.86 142.505 51.41C142.505 50.97 142.35 50.595 142.04 50.285C141.74 49.965 141.375 49.805 140.945 49.805ZM141.275 57.695C141.745 57.695 142.14 57.53 142.46 57.2C142.78 56.87 142.94 56.465 142.94 55.985C142.94 55.515 142.775 55.115 142.445 54.785C142.125 54.455 141.735 54.29 141.275 54.29H138.14V57.695H141.275ZM147.143 52.76C147.573 51.83 148.353 51.365 149.483 51.365V52.73C148.843 52.7 148.293 52.87 147.833 53.24C147.373 53.61 147.143 54.205 147.143 55.025V59H145.838V51.5H147.143V52.76ZM156.68 58.055C155.91 58.815 154.975 59.195 153.875 59.195C152.775 59.195 151.84 58.815 151.07 58.055C150.31 57.295 149.93 56.36 149.93 55.25C149.93 54.14 150.31 53.205 151.07 52.445C151.84 51.685 152.775 51.305 153.875 51.305C154.975 51.305 155.91 51.685 156.68 52.445C157.45 53.205 157.835 54.14 157.835 55.25C157.835 56.36 157.45 57.295 156.68 58.055ZM153.875 57.92C154.625 57.92 155.255 57.665 155.765 57.155C156.275 56.645 156.53 56.01 156.53 55.25C156.53 54.49 156.275 53.855 155.765 53.345C155.255 52.835 154.625 52.58 153.875 52.58C153.135 52.58 152.51 52.835 152 53.345C151.49 53.855 151.235 54.49 151.235 55.25C151.235 56.01 151.49 56.645 152 57.155C152.51 57.665 153.135 57.92 153.875 57.92ZM165.718 59H164.098L160.678 55.445V59H159.373V48.5H160.678V54.815L163.918 51.5H165.598L162.013 55.13L165.718 59ZM167.158 55.85C167.288 56.52 167.593 57.04 168.073 57.41C168.563 57.78 169.163 57.965 169.873 57.965C170.863 57.965 171.583 57.6 172.033 56.87L173.143 57.5C172.413 58.63 171.313 59.195 169.843 59.195C168.653 59.195 167.683 58.825 166.933 58.085C166.193 57.335 165.823 56.39 165.823 55.25C165.823 54.12 166.188 53.18 166.918 52.43C167.648 51.68 168.593 51.305 169.753 51.305C170.853 51.305 171.748 51.695 172.438 52.475C173.138 53.245 173.488 54.175 173.488 55.265C173.488 55.455 173.473 55.65 173.443 55.85H167.158ZM169.753 52.535C169.053 52.535 168.473 52.735 168.013 53.135C167.553 53.525 167.268 54.05 167.158 54.71H172.168C172.058 54 171.778 53.46 171.328 53.09C170.878 52.72 170.353 52.535 169.753 52.535ZM176.294 52.76C176.724 51.83 177.504 51.365 178.634 51.365V52.73C177.994 52.7 177.444 52.87 176.984 53.24C176.524 53.61 176.294 54.205 176.294 55.025V59H174.989V51.5H176.294V52.76ZM187.8 51.305C188.85 51.305 189.745 51.69 190.485 52.46C191.225 53.22 191.595 54.15 191.595 55.25C191.595 56.35 191.225 57.285 190.485 58.055C189.745 58.815 188.85 59.195 187.8 59.195C186.56 59.195 185.615 58.7 184.965 57.71V59H183.66V48.5H184.965V52.79C185.615 51.8 186.56 51.305 187.8 51.305ZM187.635 57.935C188.385 57.935 189.015 57.68 189.525 57.17C190.035 56.65 190.29 56.01 190.29 55.25C190.29 54.49 190.035 53.855 189.525 53.345C189.015 52.825 188.385 52.565 187.635 52.565C186.875 52.565 186.24 52.825 185.73 53.345C185.22 53.855 184.965 54.49 184.965 55.25C184.965 56.01 185.22 56.65 185.73 57.17C186.24 57.68 186.875 57.935 187.635 57.935ZM198.095 51.5H199.49L196.43 59.465C196.11 60.315 195.66 60.96 195.08 61.4C194.51 61.85 193.85 62.05 193.1 62V60.785C194.02 60.855 194.695 60.345 195.125 59.255L195.26 58.97L191.99 51.5H193.385L195.935 57.38L198.095 51.5ZM87.6687 66.5V67.82H84.5637V77H83.1837V67.82H80.0937V66.5H87.6687ZM89.1939 70.76C89.6239 69.83 90.4039 69.365 91.5339 69.365V70.73C90.8939 70.7 90.3439 70.87 89.8839 71.24C89.4239 71.61 89.1939 72.205 89.1939 73.025V77H87.8889V69.5H89.1939V70.76ZM98.6106 69.5H99.9156V77H98.6106V75.71C97.9606 76.7 97.0156 77.195 95.7756 77.195C94.7256 77.195 93.8306 76.815 93.0906 76.055C92.3506 75.285 91.9806 74.35 91.9806 73.25C91.9806 72.15 92.3506 71.22 93.0906 70.46C93.8306 69.69 94.7256 69.305 95.7756 69.305C97.0156 69.305 97.9606 69.8 98.6106 70.79V69.5ZM95.9406 75.935C96.7006 75.935 97.3356 75.68 97.8456 75.17C98.3556 74.65 98.6106 74.01 98.6106 73.25C98.6106 72.49 98.3556 71.855 97.8456 71.345C97.3356 70.825 96.7006 70.565 95.9406 70.565C95.1906 70.565 94.5606 70.825 94.0506 71.345C93.5406 71.855 93.2856 72.49 93.2856 73.25C93.2856 74.01 93.5406 74.65 94.0506 75.17C94.5606 75.68 95.1906 75.935 95.9406 75.935ZM108.103 66.5H109.408V77H108.103V75.71C107.453 76.7 106.508 77.195 105.268 77.195C104.218 77.195 103.323 76.815 102.583 76.055C101.843 75.285 101.473 74.35 101.473 73.25C101.473 72.15 101.843 71.22 102.583 70.46C103.323 69.69 104.218 69.305 105.268 69.305C106.508 69.305 107.453 69.8 108.103 70.79V66.5ZM105.433 75.935C106.193 75.935 106.828 75.68 107.338 75.17C107.848 74.65 108.103 74.01 108.103 73.25C108.103 72.49 107.848 71.855 107.338 71.345C106.828 70.825 106.193 70.565 105.433 70.565C104.683 70.565 104.053 70.825 103.543 71.345C103.033 71.855 102.778 72.49 102.778 73.25C102.778 74.01 103.033 74.65 103.543 75.17C104.053 75.68 104.683 75.935 105.433 75.935ZM112.3 73.85C112.43 74.52 112.735 75.04 113.215 75.41C113.705 75.78 114.305 75.965 115.015 75.965C116.005 75.965 116.725 75.6 117.175 74.87L118.285 75.5C117.555 76.63 116.455 77.195 114.985 77.195C113.795 77.195 112.825 76.825 112.075 76.085C111.335 75.335 110.965 74.39 110.965 73.25C110.965 72.12 111.33 71.18 112.06 70.43C112.79 69.68 113.735 69.305 114.895 69.305C115.995 69.305 116.89 69.695 117.58 70.475C118.28 71.245 118.63 72.175 118.63 73.265C118.63 73.455 118.615 73.65 118.585 73.85H112.3ZM114.895 70.535C114.195 70.535 113.615 70.735 113.155 71.135C112.695 71.525 112.41 72.05 112.3 72.71H117.31C117.2 72 116.92 71.46 116.47 71.09C116.02 70.72 115.495 70.535 114.895 70.535ZM121.435 70.76C121.865 69.83 122.645 69.365 123.775 69.365V70.73C123.135 70.7 122.585 70.87 122.125 71.24C121.665 71.61 121.435 72.205 121.435 73.025V77H120.13V69.5H121.435V70.76ZM125.899 71.525C125.899 71.815 126.044 72.05 126.334 72.23C126.624 72.4 126.974 72.54 127.384 72.65C127.794 72.75 128.204 72.87 128.614 73.01C129.024 73.14 129.374 73.37 129.664 73.7C129.954 74.02 130.099 74.435 130.099 74.945C130.099 75.625 129.834 76.17 129.304 76.58C128.784 76.99 128.114 77.195 127.294 77.195C126.564 77.195 125.939 77.035 125.419 76.715C124.899 76.395 124.529 75.97 124.309 75.44L125.434 74.795C125.554 75.155 125.779 75.44 126.109 75.65C126.439 75.86 126.834 75.965 127.294 75.965C127.724 75.965 128.079 75.885 128.359 75.725C128.639 75.555 128.779 75.295 128.779 74.945C128.779 74.655 128.634 74.425 128.344 74.255C128.054 74.075 127.704 73.935 127.294 73.835C126.884 73.725 126.474 73.6 126.064 73.46C125.654 73.32 125.304 73.09 125.014 72.77C124.724 72.45 124.579 72.04 124.579 71.54C124.579 70.89 124.829 70.355 125.329 69.935C125.839 69.515 126.474 69.305 127.234 69.305C127.844 69.305 128.384 69.445 128.854 69.725C129.334 69.995 129.694 70.375 129.934 70.865L128.839 71.48C128.569 70.84 128.034 70.52 127.234 70.52C126.864 70.52 126.549 70.61 126.289 70.79C126.029 70.96 125.899 71.205 125.899 71.525ZM142.174 76.19C141.444 76.86 140.499 77.195 139.339 77.195C138.179 77.195 137.229 76.86 136.489 76.19C135.759 75.51 135.394 74.605 135.394 73.475V66.5H136.789V73.415C136.789 74.155 137.009 74.745 137.449 75.185C137.889 75.615 138.519 75.83 139.339 75.83C140.159 75.83 140.789 75.615 141.229 75.185C141.669 74.745 141.889 74.155 141.889 73.415V66.5H143.269V73.475C143.269 74.605 142.904 75.51 142.174 76.19ZM149.002 69.305C149.882 69.305 150.587 69.585 151.117 70.145C151.647 70.695 151.912 71.445 151.912 72.395V77H150.607V72.47C150.607 71.86 150.442 71.39 150.112 71.06C149.782 70.72 149.327 70.55 148.747 70.55C148.097 70.55 147.572 70.755 147.172 71.165C146.772 71.565 146.572 72.185 146.572 73.025V77H145.267V69.5H146.572V70.58C147.102 69.73 147.912 69.305 149.002 69.305ZM154.394 68.135C154.144 68.135 153.934 68.05 153.764 67.88C153.594 67.71 153.509 67.505 153.509 67.265C153.509 67.025 153.594 66.82 153.764 66.65C153.934 66.47 154.144 66.38 154.394 66.38C154.634 66.38 154.839 66.47 155.009 66.65C155.179 66.82 155.264 67.025 155.264 67.265C155.264 67.505 155.179 67.71 155.009 67.88C154.839 68.05 154.634 68.135 154.394 68.135ZM153.734 77V69.5H155.039V77H153.734ZM163.36 76.055C162.59 76.815 161.655 77.195 160.555 77.195C159.455 77.195 158.52 76.815 157.75 76.055C156.99 75.295 156.61 74.36 156.61 73.25C156.61 72.14 156.99 71.205 157.75 70.445C158.52 69.685 159.455 69.305 160.555 69.305C161.655 69.305 162.59 69.685 163.36 70.445C164.13 71.205 164.515 72.14 164.515 73.25C164.515 74.36 164.13 75.295 163.36 76.055ZM160.555 75.92C161.305 75.92 161.935 75.665 162.445 75.155C162.955 74.645 163.21 74.01 163.21 73.25C163.21 72.49 162.955 71.855 162.445 71.345C161.935 70.835 161.305 70.58 160.555 70.58C159.815 70.58 159.19 70.835 158.68 71.345C158.17 71.855 157.915 72.49 157.915 73.25C157.915 74.01 158.17 74.645 158.68 75.155C159.19 75.665 159.815 75.92 160.555 75.92ZM169.788 69.305C170.668 69.305 171.373 69.585 171.903 70.145C172.433 70.695 172.698 71.445 172.698 72.395V77H171.393V72.47C171.393 71.86 171.228 71.39 170.898 71.06C170.568 70.72 170.113 70.55 169.533 70.55C168.883 70.55 168.358 70.755 167.958 71.165C167.558 71.565 167.358 72.185 167.358 73.025V77H166.053V69.5H167.358V70.58C167.888 69.73 168.698 69.305 169.788 69.305ZM175.96 69.62L177.61 72.365L175.96 75.095H174.55L176.2 72.365L174.55 69.62H175.96ZM178.51 69.62L180.16 72.365L178.51 75.095H177.1L178.75 72.365L177.1 69.62H178.51Z" fill="#B4E913"></path><path d="M77.4147 96.6V97.656H74.9307V105H73.8267V97.656H71.3547V96.6H77.4147ZM78.6348 100.008C78.9788 99.264 79.6028 98.892 80.5068 98.892V99.984C79.9948 99.96 79.5548 100.096 79.1868 100.392C78.8188 100.688 78.6348 101.164 78.6348 101.82V105H77.5908V99H78.6348V100.008ZM86.1682 99H87.2122V105H86.1682V103.968C85.6482 104.76 84.8922 105.156 83.9002 105.156C83.0602 105.156 82.3442 104.852 81.7522 104.244C81.1602 103.628 80.8642 102.88 80.8642 102C80.8642 101.12 81.1602 100.376 81.7522 99.768C82.3442 99.152 83.0602 98.844 83.9002 98.844C84.8922 98.844 85.6482 99.24 86.1682 100.032V99ZM84.0322 104.148C84.6402 104.148 85.1482 103.944 85.5562 103.536C85.9642 103.12 86.1682 102.608 86.1682 102C86.1682 101.392 85.9642 100.884 85.5562 100.476C85.1482 100.06 84.6402 99.852 84.0322 99.852C83.4322 99.852 82.9282 100.06 82.5202 100.476C82.1122 100.884 81.9082 101.392 81.9082 102C81.9082 102.608 82.1122 103.12 82.5202 103.536C82.9282 103.944 83.4322 104.148 84.0322 104.148ZM93.762 96.6H94.806V105H93.762V103.968C93.242 104.76 92.486 105.156 91.494 105.156C90.654 105.156 89.938 104.852 89.346 104.244C88.754 103.628 88.458 102.88 88.458 102C88.458 101.12 88.754 100.376 89.346 99.768C89.938 99.152 90.654 98.844 91.494 98.844C92.486 98.844 93.242 99.24 93.762 100.032V96.6ZM91.626 104.148C92.234 104.148 92.742 103.944 93.15 103.536C93.558 103.12 93.762 102.608 93.762 102C93.762 101.392 93.558 100.884 93.15 100.476C92.742 100.06 92.234 99.852 91.626 99.852C91.026 99.852 90.522 100.06 90.114 100.476C89.706 100.884 89.502 101.392 89.502 102C89.502 102.608 89.706 103.12 90.114 103.536C90.522 103.944 91.026 104.148 91.626 104.148ZM97.1197 102.48C97.2237 103.016 97.4677 103.432 97.8517 103.728C98.2437 104.024 98.7237 104.172 99.2917 104.172C100.084 104.172 100.66 103.88 101.02 103.296L101.908 103.8C101.324 104.704 100.444 105.156 99.2677 105.156C98.3157 105.156 97.5397 104.86 96.9397 104.268C96.3477 103.668 96.0517 102.912 96.0517 102C96.0517 101.096 96.3437 100.344 96.9277 99.744C97.5117 99.144 98.2677 98.844 99.1957 98.844C100.076 98.844 100.792 99.156 101.344 99.78C101.904 100.396 102.184 101.14 102.184 102.012C102.184 102.164 102.172 102.32 102.148 102.48H97.1197ZM99.1957 99.828C98.6357 99.828 98.1717 99.988 97.8037 100.308C97.4357 100.62 97.2077 101.04 97.1197 101.568H101.128C101.04 101 100.816 100.568 100.456 100.272C100.096 99.976 99.6757 99.828 99.1957 99.828ZM104.428 100.008C104.772 99.264 105.396 98.892 106.3 98.892V99.984C105.788 99.96 105.348 100.096 104.98 100.392C104.612 100.688 104.428 101.164 104.428 101.82V105H103.384V99H104.428V100.008ZM107.999 100.62C107.999 100.852 108.115 101.04 108.347 101.184C108.579 101.32 108.859 101.432 109.187 101.52C109.515 101.6 109.843 101.696 110.171 101.808C110.499 101.912 110.779 102.096 111.011 102.36C111.243 102.616 111.359 102.948 111.359 103.356C111.359 103.9 111.147 104.336 110.723 104.664C110.307 104.992 109.771 105.156 109.115 105.156C108.531 105.156 108.031 105.028 107.615 104.772C107.199 104.516 106.903 104.176 106.727 103.752L107.627 103.236C107.723 103.524 107.903 103.752 108.167 103.92C108.431 104.088 108.747 104.172 109.115 104.172C109.459 104.172 109.743 104.108 109.967 103.98C110.191 103.844 110.303 103.636 110.303 103.356C110.303 103.124 110.187 102.94 109.955 102.804C109.723 102.66 109.443 102.548 109.115 102.468C108.787 102.38 108.459 102.28 108.131 102.168C107.803 102.056 107.523 101.872 107.291 101.616C107.059 101.36 106.943 101.032 106.943 100.632C106.943 100.112 107.143 99.684 107.543 99.348C107.951 99.012 108.459 98.844 109.067 98.844C109.555 98.844 109.987 98.956 110.363 99.18C110.747 99.396 111.035 99.7 111.227 100.092L110.351 100.584C110.135 100.072 109.707 99.816 109.067 99.816C108.771 99.816 108.519 99.888 108.311 100.032C108.103 100.168 107.999 100.364 107.999 100.62ZM121.019 104.352C120.435 104.888 119.679 105.156 118.751 105.156C117.823 105.156 117.063 104.888 116.471 104.352C115.887 103.808 115.595 103.084 115.595 102.18V96.6H116.711V102.132C116.711 102.724 116.887 103.196 117.239 103.548C117.591 103.892 118.095 104.064 118.751 104.064C119.407 104.064 119.911 103.892 120.263 103.548C120.615 103.196 120.791 102.724 120.791 102.132V96.6H121.895V102.18C121.895 103.084 121.603 103.808 121.019 104.352ZM126.481 98.844C127.185 98.844 127.749 99.068 128.173 99.516C128.597 99.956 128.809 100.556 128.809 101.316V105H127.765V101.376C127.765 100.888 127.633 100.512 127.369 100.248C127.105 99.976 126.741 99.84 126.277 99.84C125.757 99.84 125.337 100.004 125.017 100.332C124.697 100.652 124.537 101.148 124.537 101.82V105H123.493V99H124.537V99.864C124.961 99.184 125.609 98.844 126.481 98.844ZM130.795 97.908C130.595 97.908 130.427 97.84 130.291 97.704C130.155 97.568 130.087 97.404 130.087 97.212C130.087 97.02 130.155 96.856 130.291 96.72C130.427 96.576 130.595 96.504 130.795 96.504C130.987 96.504 131.151 96.576 131.287 96.72C131.423 96.856 131.491 97.02 131.491 97.212C131.491 97.404 131.423 97.568 131.287 97.704C131.151 97.84 130.987 97.908 130.795 97.908ZM130.267 105V99H131.311V105H130.267ZM137.967 104.244C137.351 104.852 136.603 105.156 135.723 105.156C134.843 105.156 134.095 104.852 133.479 104.244C132.871 103.636 132.567 102.888 132.567 102C132.567 101.112 132.871 100.364 133.479 99.756C134.095 99.148 134.843 98.844 135.723 98.844C136.603 98.844 137.351 99.148 137.967 99.756C138.583 100.364 138.891 101.112 138.891 102C138.891 102.888 138.583 103.636 137.967 104.244ZM135.723 104.136C136.323 104.136 136.827 103.932 137.235 103.524C137.643 103.116 137.847 102.608 137.847 102C137.847 101.392 137.643 100.884 137.235 100.476C136.827 100.068 136.323 99.864 135.723 99.864C135.131 99.864 134.631 100.068 134.223 100.476C133.815 100.884 133.611 101.392 133.611 102C133.611 102.608 133.815 103.116 134.223 103.524C134.631 103.932 135.131 104.136 135.723 104.136ZM143.11 98.844C143.814 98.844 144.378 99.068 144.802 99.516C145.226 99.956 145.438 100.556 145.438 101.316V105H144.394V101.376C144.394 100.888 144.262 100.512 143.998 100.248C143.734 99.976 143.37 99.84 142.906 99.84C142.386 99.84 141.966 100.004 141.646 100.332C141.326 100.652 141.166 101.148 141.166 101.82V105H140.122V99H141.166V99.864C141.59 99.184 142.238 98.844 143.11 98.844ZM155.536 105L154.852 103.116H151.072L150.388 105H149.2L152.332 96.6H153.592L156.724 105H155.536ZM151.456 102.072H154.468L152.956 97.932L151.456 102.072ZM164.44 99H165.532L163.672 105H162.604L161.2 100.56L159.796 105H158.728L156.868 99H157.96L159.28 103.56L160.696 99H161.704L163.12 103.572L164.44 99ZM171.34 99H172.384V105H171.34V103.968C170.82 104.76 170.064 105.156 169.072 105.156C168.232 105.156 167.516 104.852 166.924 104.244C166.332 103.628 166.036 102.88 166.036 102C166.036 101.12 166.332 100.376 166.924 99.768C167.516 99.152 168.232 98.844 169.072 98.844C170.064 98.844 170.82 99.24 171.34 100.032V99ZM169.204 104.148C169.812 104.148 170.32 103.944 170.728 103.536C171.136 103.12 171.34 102.608 171.34 102C171.34 101.392 171.136 100.884 170.728 100.476C170.32 100.06 169.812 99.852 169.204 99.852C168.604 99.852 168.1 100.06 167.692 100.476C167.284 100.884 167.08 101.392 167.08 102C167.08 102.608 167.284 103.12 167.692 103.536C168.1 103.944 168.604 104.148 169.204 104.148ZM175.01 100.008C175.354 99.264 175.978 98.892 176.882 98.892V99.984C176.37 99.96 175.93 100.096 175.562 100.392C175.194 100.688 175.01 101.164 175.01 101.82V105H173.966V99H175.01V100.008ZM182.543 96.6H183.587V105H182.543V103.968C182.023 104.76 181.267 105.156 180.275 105.156C179.435 105.156 178.719 104.852 178.127 104.244C177.535 103.628 177.239 102.88 177.239 102C177.239 101.12 177.535 100.376 178.127 99.768C178.719 99.152 179.435 98.844 180.275 98.844C181.267 98.844 182.023 99.24 182.543 100.032V96.6ZM180.407 104.148C181.015 104.148 181.523 103.944 181.931 103.536C182.339 103.12 182.543 102.608 182.543 102C182.543 101.392 182.339 100.884 181.931 100.476C181.523 100.06 181.015 99.852 180.407 99.852C179.807 99.852 179.303 100.06 178.895 100.476C178.487 100.884 178.283 101.392 178.283 102C178.283 102.608 178.487 103.12 178.895 103.536C179.303 103.944 179.807 104.148 180.407 104.148ZM186.057 100.62C186.057 100.852 186.173 101.04 186.405 101.184C186.637 101.32 186.917 101.432 187.245 101.52C187.573 101.6 187.901 101.696 188.229 101.808C188.557 101.912 188.837 102.096 189.069 102.36C189.301 102.616 189.417 102.948 189.417 103.356C189.417 103.9 189.205 104.336 188.781 104.664C188.365 104.992 187.829 105.156 187.173 105.156C186.589 105.156 186.089 105.028 185.673 104.772C185.257 104.516 184.961 104.176 184.785 103.752L185.685 103.236C185.781 103.524 185.961 103.752 186.225 103.92C186.489 104.088 186.805 104.172 187.173 104.172C187.517 104.172 187.801 104.108 188.025 103.98C188.249 103.844 188.361 103.636 188.361 103.356C188.361 103.124 188.245 102.94 188.013 102.804C187.781 102.66 187.501 102.548 187.173 102.468C186.845 102.38 186.517 102.28 186.189 102.168C185.861 102.056 185.581 101.872 185.349 101.616C185.117 101.36 185.001 101.032 185.001 100.632C185.001 100.112 185.201 99.684 185.601 99.348C186.009 99.012 186.517 98.844 187.125 98.844C187.613 98.844 188.045 98.956 188.421 99.18C188.805 99.396 189.093 99.7 189.285 100.092L188.409 100.584C188.193 100.072 187.765 99.816 187.125 99.816C186.829 99.816 186.577 99.888 186.369 100.032C186.161 100.168 186.057 100.364 186.057 100.62Z" fill="#BEBEBE"></path><path d="M212.523 29C212.19 26.8333 209.823 22 203.023 20C203.357 22.1667 205.723 27 212.523 29Z" fill="#F3F3F3"></path><path d="M212.445 22.551C216.799 25.0921 216.939 30.6712 217.001 33.1419C217.016 33.7417 217.026 34.1583 217.091 34.3038C213.467 31.1767 213.085 27.6792 212.775 24.8365C212.684 24.0111 212.6 23.2409 212.445 22.551Z" fill="#F3F3F3"></path><path d="M205.116 29.3028C207.316 32.035 211.112 32.7783 213.571 33.2599C214.64 33.4691 215.456 33.629 215.78 33.8811C213.417 28.9404 209.166 29.1026 205.116 29.3028Z" fill="#F3F3F3"></path><path d="M210.107 34.0132C212.107 37.1918 215.651 38.3355 217.976 39.0856C218.999 39.4157 219.786 39.6696 220.101 39.9873C218.802 36.407 215.994 33.9595 210.107 34.0132Z" fill="#F3F3F3"></path><path d="M214.388 39.3775C215.55 42.4871 220.476 45.0166 222.597 46.1057C223.15 46.3896 223.513 46.5756 223.568 46.6485C222.612 42.8834 220.108 40.0261 214.388 39.3775Z" fill="#F3F3F3"></path><path d="M217.927 45.3234C218.926 48.9989 222.098 50.9622 224.213 52.2715C225.159 52.8571 225.894 53.3119 226.129 53.7305C225.6 49.0301 222.102 46.0591 217.927 45.3234Z" fill="#F3F3F3"></path><path d="M220.625 51.7002C221.17 55.5354 223.932 57.7901 225.817 59.3294C226.719 60.0653 227.42 60.6376 227.583 61.141C227.573 56.7369 225.073 52.8999 220.625 51.7002Z" fill="#F3F3F3"></path><path d="M222.368 58.3353C222.102 61.8092 224.493 64.5368 226.185 66.4669C227.012 67.41 227.672 68.1627 227.774 68.719C228.508 63.8131 225.948 59.8315 222.368 58.3353Z" fill="#F3F3F3"></path><path d="M223.031 65.0894C222.095 68.3646 223.994 71.4467 225.361 73.6662C226.037 74.7631 226.583 75.6493 226.593 76.2439C228.557 71.0126 225.68 66.6464 223.031 65.0894Z" fill="#F3F3F3"></path><path d="M222.475 71.8007C221.008 74.7662 222.561 79.0466 223.466 81.5387C223.817 82.5065 224.07 83.2046 224.011 83.4513C226.13 79.7524 225.882 74.5499 222.475 71.8007Z" fill="#F3F3F3"></path><path d="M220.68 78.2969C218.533 81.1571 219.324 84.7027 219.896 87.2661C220.175 88.5187 220.403 89.5367 220.209 90.1256C223.601 85.1062 222.719 80.5596 220.68 78.2969Z" fill="#F3F3F3"></path><path d="M217.734 84.4317C215.005 87.059 215.312 90.6887 215.533 93.2973C215.64 94.5673 215.727 95.5953 215.434 96.1477C219.346 91.8275 219.464 87.0904 217.734 84.4317Z" fill="#F3F3F3"></path><path d="M213.755 90.1076C210.524 92.1689 210.429 95.9193 210.36 98.6423C210.327 99.944 210.3 101.011 209.939 101.546C214.848 96.9181 214.81 92.3853 213.755 90.1076Z" fill="#F3F3F3"></path><path d="M204.569 103.542C204.865 100.864 205.276 97.1564 208.943 95.2702C209.823 97.8587 208.975 102.198 203.902 106.337C204.316 105.829 204.43 104.799 204.569 103.542Z" fill="#F3F3F3"></path><path d="M207.592 105.97C210.866 105.436 214.931 104.774 218.453 99.7188C216.618 100.838 214.888 101.242 213.176 101.642C210.387 102.293 207.645 102.933 204.575 106.638C205.454 106.318 206.477 106.151 207.592 105.97Z" fill="#F3F3F3"></path><path d="M213.243 101.049C216.354 100.288 220.395 99.2998 223.495 93.6518C221.806 94.9468 220.151 95.5372 218.507 96.1235C215.852 97.0707 213.228 98.007 210.54 101.885C211.296 101.526 212.219 101.3 213.243 101.049Z" fill="#F3F3F3"></path><path d="M218.447 95.4714C221.49 94.364 225.586 92.8733 227.681 86.8465C226.197 88.4172 224.688 89.1517 223.162 89.8945C220.802 91.0437 218.4 92.2127 215.987 96.5299C216.64 96.1292 217.492 95.8192 218.447 95.4714Z" fill="#F3F3F3"></path><path d="M222.777 89.3086C225.526 87.8612 229.584 85.7248 230.751 79.3938C229.739 80.8967 228.405 81.8601 227 82.8748C224.756 84.4961 222.33 86.2485 220.743 90.5426C221.219 90.1289 221.937 89.7509 222.777 89.3086Z" fill="#F3F3F3"></path><path d="M226.084 82.5921C228.612 80.6414 232.6 77.5632 232.488 71.5063C231.619 73.3619 230.57 74.3405 229.474 75.3631C227.772 76.9516 225.956 78.646 224.524 83.8993C224.886 83.5167 225.437 83.0913 226.084 82.5921Z" fill="#F3F3F3"></path><path d="M228.522 75.1692C230.65 72.9903 233.91 69.6505 232.834 63.4807C232.27 65.3302 231.43 66.4216 230.56 67.5521C229.152 69.3822 227.664 71.315 227.142 76.7327C227.442 76.2758 227.94 75.766 228.522 75.1692Z" fill="#F3F3F3"></path><path d="M229.25 67.9128C230.828 65.7052 233.821 61.5197 231.874 55.586C231.598 57.1163 230.945 58.3667 230.266 59.667C229.031 62.0318 227.711 64.5613 228.415 69.2381C228.519 68.9354 228.836 68.4921 229.25 67.9128Z" fill="#F3F3F3"></path><path d="M229.034 60.0262C230.289 57.5673 232.488 53.26 229.771 48.0117C229.697 49.3985 229.25 50.6013 228.78 51.8659C227.872 54.3115 226.878 56.9885 228.323 61.6747C228.386 61.2946 228.67 60.7378 229.034 60.0262Z" fill="#F3F3F3"></path><path d="M227.409 52.8036C228.283 50.2531 230.007 45.2254 226.706 40.8478C226.763 41.7366 226.529 42.7702 226.262 43.948C225.653 46.6376 224.873 50.0792 227.002 54.2665C226.998 54.0007 227.172 53.4924 227.409 52.8036Z" fill="#F3F3F3"></path><path d="M224.831 45.5389C225.384 42.9523 226.393 38.2376 222.774 34.1431C222.885 35.3379 222.744 36.4324 222.6 37.5511C222.268 40.1239 221.919 42.8247 224.586 47.1672C224.552 46.8393 224.673 46.2754 224.831 45.5389Z" fill="#F3F3F3"></path><path d="M221.319 39.0877C221.583 36.5791 222.111 31.5664 217.994 27.9951C218.132 28.9089 218.132 29.8563 218.131 30.8468C218.129 33.6426 218.127 36.782 221.255 40.479C221.197 40.2387 221.249 39.7506 221.319 39.0877Z" fill="#F3F3F3"></path><path d="M47.5234 29C47.8568 26.8333 50.2234 22 57.0234 20C56.6901 22.1667 54.3234 27 47.5234 29Z" fill="#F3F3F3"></path><path d="M47.6022 22.551C43.2481 25.0921 43.1081 30.6712 43.0461 33.1419C43.0311 33.7417 43.0206 34.1583 42.9556 34.3038C46.5801 31.1767 46.9619 27.6792 47.2723 24.8365C47.3624 24.0111 47.4465 23.2409 47.6022 22.551Z" fill="#F3F3F3"></path><path d="M54.9312 29.3028C52.7305 32.035 48.935 32.7783 46.4755 33.2599C45.4071 33.4691 44.5907 33.629 44.2668 33.8811C46.6294 28.9404 50.8806 29.1026 54.9312 29.3028Z" fill="#F3F3F3"></path><path d="M49.9397 34.0132C47.9403 37.1918 44.3956 38.3355 42.0707 39.0856C41.0474 39.4157 40.2604 39.6696 39.9455 39.9873C41.2444 36.407 44.0533 33.9595 49.9397 34.0132Z" fill="#F3F3F3"></path><path d="M45.6593 39.3775C44.4972 42.4871 39.5706 45.0166 37.4494 46.1057C36.8966 46.3896 36.5343 46.5756 36.479 46.6485C37.4345 42.8834 39.9385 40.0261 45.6593 39.3775Z" fill="#F3F3F3"></path><path d="M42.1203 45.3234C41.1206 48.9989 37.9489 50.9622 35.8335 52.2715C34.8875 52.8571 34.1528 53.3119 33.9181 53.7305C34.4464 49.0301 37.9451 46.0591 42.1203 45.3234Z" fill="#F3F3F3"></path><path d="M39.422 51.7002C38.8767 55.5354 36.115 57.7901 34.2296 59.3294C33.3282 60.0653 32.6272 60.6376 32.4642 61.141C32.4741 56.7369 34.9743 52.8999 39.422 51.7002Z" fill="#F3F3F3"></path><path d="M37.6792 58.3353C37.9447 61.8092 35.5535 64.5368 33.8614 66.4669C33.0346 67.41 32.3747 68.1627 32.2733 68.719C31.5388 63.8131 34.0993 59.8315 37.6792 58.3353Z" fill="#F3F3F3"></path><path d="M37.0163 65.0894C37.9518 68.3646 36.053 71.4467 34.6858 73.6662C34.01 74.7631 33.4641 75.6493 33.4543 76.2439C31.4894 71.0126 34.3667 66.6464 37.0163 65.0894Z" fill="#F3F3F3"></path><path d="M37.5722 71.8007C39.0389 74.7662 37.4855 79.0466 36.5811 81.5387C36.2298 82.5065 35.9764 83.2046 36.0359 83.4513C33.9165 79.7524 34.1647 74.5499 37.5722 71.8007Z" fill="#F3F3F3"></path><path d="M39.3667 78.2969C41.5136 81.1571 40.7227 84.7027 40.1509 87.2661C39.8714 88.5187 39.6444 89.5367 39.838 90.1256C36.4458 85.1062 37.3279 80.5596 39.3667 78.2969Z" fill="#F3F3F3"></path><path d="M42.3129 84.4317C45.0421 87.059 44.7348 90.6887 44.514 93.2973C44.4065 94.5673 44.3195 95.5953 44.6134 96.1477C40.7011 91.8275 40.5829 87.0904 42.3129 84.4317Z" fill="#F3F3F3"></path><path d="M46.292 90.1076C49.5225 92.1689 49.6178 95.9193 49.687 98.6423C49.7201 99.944 49.7472 101.011 50.108 101.546C45.1991 96.9181 45.2365 92.3853 46.292 90.1076Z" fill="#F3F3F3"></path><path d="M55.478 103.542C55.1815 100.864 54.7711 97.1564 51.1037 95.2702C50.224 97.8587 51.0719 102.198 56.1446 106.337C55.731 105.829 55.6171 104.799 55.478 103.542Z" fill="#F3F3F3"></path><path d="M52.4549 105.97C49.181 105.436 45.1161 104.774 41.5938 99.7188C43.4284 100.838 45.1584 101.242 46.8706 101.642C49.66 102.293 52.4021 102.933 55.4717 106.638C54.5931 106.318 53.5697 106.151 52.4549 105.97Z" fill="#F3F3F3"></path><path d="M46.8034 101.049C43.6927 100.288 39.6515 99.2998 36.5521 93.6518C38.241 94.9468 39.8961 95.5372 41.5396 96.1235C44.1946 97.0707 46.8193 98.007 49.5071 101.885C48.7513 101.526 47.8278 101.3 46.8034 101.049Z" fill="#F3F3F3"></path><path d="M41.5996 95.4714C38.557 94.364 34.4612 92.8733 32.3659 86.8465C33.85 88.4172 35.3588 89.1517 36.8845 89.8945C39.2453 91.0437 41.6467 92.2127 44.0599 96.5299C43.4067 96.1292 42.555 95.8192 41.5996 95.4714Z" fill="#F3F3F3"></path><path d="M37.2695 89.3086C34.5205 87.8612 30.4629 85.7248 29.296 79.3938C30.308 80.8967 31.6417 81.8601 33.0465 82.8748C35.2911 84.4961 37.7172 86.2485 39.3034 90.5426C38.8276 90.1289 38.1096 89.7509 37.2695 89.3086Z" fill="#F3F3F3"></path><path d="M33.9626 82.5921C31.4353 80.6414 27.4473 77.5632 27.5588 71.5063C28.4278 73.3619 29.4766 74.3405 30.5726 75.3631C32.2751 76.9516 34.0912 78.646 35.5228 83.8993C35.1606 83.5167 34.6095 83.0913 33.9626 82.5921Z" fill="#F3F3F3"></path><path d="M31.5245 75.1692C29.3973 72.9903 26.1366 69.6505 27.2131 63.4807C27.7767 65.3302 28.6166 66.4216 29.4866 67.5521C30.895 69.3822 32.3824 71.315 32.905 76.7327C32.6048 76.2758 32.1071 75.766 31.5245 75.1692Z" fill="#F3F3F3"></path><path d="M30.7966 67.9128C29.2184 65.7052 26.2263 61.5197 28.1728 55.586C28.4489 57.1163 29.1018 58.3667 29.7807 59.667C31.0154 62.0318 32.3362 64.5613 31.6322 69.2381C31.5276 68.9354 31.2107 68.4921 30.7966 67.9128Z" fill="#F3F3F3"></path><path d="M31.0133 60.0262C29.7578 57.5673 27.5585 53.26 30.2757 48.0117C30.3502 49.3985 30.7969 50.6013 31.2666 51.8659C32.1748 54.3115 33.1691 56.9885 31.7242 61.6747C31.661 61.2946 31.3767 60.7378 31.0133 60.0262Z" fill="#F3F3F3"></path><path d="M32.6383 52.8036C31.7637 50.2531 30.0396 45.2254 33.341 40.8478C33.2839 41.7366 33.518 42.7702 33.7849 43.948C34.3941 46.6376 35.1738 50.0792 33.0454 54.2665C33.0489 54.0007 32.8746 53.4924 32.6383 52.8036Z" fill="#F3F3F3"></path><path d="M35.2162 45.5389C34.6627 42.9523 33.6538 38.2376 37.2728 34.1431C37.1616 35.3379 37.3028 36.4324 37.4471 37.5511C37.779 40.1239 38.1274 42.8247 35.4609 47.1672C35.4945 46.8393 35.3738 46.2754 35.2162 45.5389Z" fill="#F3F3F3"></path><path d="M38.7281 39.0877C38.4638 36.5791 37.9355 31.5664 42.0532 27.9951C41.9146 28.9089 41.9153 29.8563 41.9159 30.8468C41.9178 33.6426 41.9198 36.782 38.7918 40.479C38.8494 40.2387 38.798 39.7506 38.7281 39.0877Z" fill="#F3F3F3"></path></svg> 