<?xml version="1.0" encoding="UTF-8"?> <svg xmlns="http://www.w3.org/2000/svg" width="260" height="127" viewBox="0 0 260 127" fill="none"><path d="M118.85 29V28.088L121.814 25.064C122.606 24.272 123.002 23.592 123.002 23.024C123.002 22.552 122.858 22.184 122.57 21.92C122.282 21.656 121.93 21.524 121.514 21.524C120.722 21.524 120.146 21.9 119.786 22.652L118.85 22.1C119.114 21.556 119.478 21.144 119.942 20.864C120.414 20.584 120.934 20.444 121.502 20.444C122.206 20.444 122.818 20.676 123.338 21.14C123.858 21.604 124.118 22.228 124.118 23.012C124.118 23.86 123.618 24.784 122.618 25.784L120.47 27.92H124.274V29H118.85ZM130.797 27.968C130.229 28.76 129.433 29.156 128.409 29.156C127.385 29.156 126.589 28.76 126.021 27.968C125.453 27.176 125.169 26.12 125.169 24.8C125.169 23.48 125.453 22.424 126.021 21.632C126.589 20.84 127.385 20.444 128.409 20.444C129.433 20.444 130.229 20.84 130.797 21.632C131.365 22.424 131.649 23.48 131.649 24.8C131.649 26.12 131.365 27.176 130.797 27.968ZM126.837 27.212C127.205 27.78 127.729 28.064 128.409 28.064C129.089 28.064 129.613 27.78 129.981 27.212C130.357 26.644 130.545 25.84 130.545 24.8C130.545 23.76 130.357 22.956 129.981 22.388C129.613 21.812 129.089 21.524 128.409 21.524C127.729 21.524 127.205 21.808 126.837 22.376C126.469 22.944 126.285 23.752 126.285 24.8C126.285 25.84 126.469 26.644 126.837 27.212ZM132.467 29V28.088L135.431 25.064C136.223 24.272 136.619 23.592 136.619 23.024C136.619 22.552 136.475 22.184 136.187 21.92C135.899 21.656 135.547 21.524 135.131 21.524C134.339 21.524 133.763 21.9 133.403 22.652L132.467 22.1C132.731 21.556 133.095 21.144 133.559 20.864C134.031 20.584 134.551 20.444 135.119 20.444C135.823 20.444 136.435 20.676 136.955 21.14C137.475 21.604 137.735 22.228 137.735 23.012C137.735 23.86 137.235 24.784 136.235 25.784L134.087 27.92H137.891V29H132.467ZM140.681 20.6H141.641V29H140.537V21.8L138.749 22.328L138.473 21.368L140.681 20.6Z" fill="#BEBEBE"></path><path d="M76.7827 62.555C77.2627 62.785 77.6427 63.115 77.9227 63.545C78.2127 63.975 78.3577 64.47 78.3577 65.03C78.3577 65.87 78.0627 66.575 77.4727 67.145C76.8827 67.715 76.1627 68 75.3127 68H70.7827V57.5H74.9827C75.8027 57.5 76.4977 57.775 77.0677 58.325C77.6377 58.875 77.9227 59.555 77.9227 60.365C77.9227 61.295 77.5427 62.025 76.7827 62.555ZM74.9827 58.805H72.1777V62.015H74.9827C75.4227 62.015 75.7927 61.86 76.0927 61.55C76.3927 61.24 76.5427 60.86 76.5427 60.41C76.5427 59.97 76.3877 59.595 76.0777 59.285C75.7777 58.965 75.4127 58.805 74.9827 58.805ZM75.3127 66.695C75.7827 66.695 76.1777 66.53 76.4977 66.2C76.8177 65.87 76.9777 65.465 76.9777 64.985C76.9777 64.515 76.8127 64.115 76.4827 63.785C76.1627 63.455 75.7727 63.29 75.3127 63.29H72.1777V66.695H75.3127ZM81.1812 61.76C81.6112 60.83 82.3912 60.365 83.5212 60.365V61.73C82.8812 61.7 82.3312 61.87 81.8712 62.24C81.4112 62.61 81.1812 63.205 81.1812 64.025V68H79.8762V60.5H81.1812V61.76ZM90.7179 67.055C89.9479 67.815 89.0129 68.195 87.9129 68.195C86.8129 68.195 85.8779 67.815 85.1079 67.055C84.3479 66.295 83.9679 65.36 83.9679 64.25C83.9679 63.14 84.3479 62.205 85.1079 61.445C85.8779 60.685 86.8129 60.305 87.9129 60.305C89.0129 60.305 89.9479 60.685 90.7179 61.445C91.4879 62.205 91.8729 63.14 91.8729 64.25C91.8729 65.36 91.4879 66.295 90.7179 67.055ZM87.9129 66.92C88.6629 66.92 89.2929 66.665 89.8029 66.155C90.3129 65.645 90.5679 65.01 90.5679 64.25C90.5679 63.49 90.3129 62.855 89.8029 62.345C89.2929 61.835 88.6629 61.58 87.9129 61.58C87.1729 61.58 86.5479 61.835 86.0379 62.345C85.5279 62.855 85.2729 63.49 85.2729 64.25C85.2729 65.01 85.5279 65.645 86.0379 66.155C86.5479 66.665 87.1729 66.92 87.9129 66.92ZM99.7564 68H98.1364L94.7164 64.445V68H93.4114V57.5H94.7164V63.815L97.9564 60.5H99.6364L96.0514 64.13L99.7564 68ZM101.197 64.85C101.327 65.52 101.632 66.04 102.112 66.41C102.602 66.78 103.202 66.965 103.912 66.965C104.902 66.965 105.622 66.6 106.072 65.87L107.182 66.5C106.452 67.63 105.352 68.195 103.882 68.195C102.692 68.195 101.722 67.825 100.972 67.085C100.232 66.335 99.8615 65.39 99.8615 64.25C99.8615 63.12 100.227 62.18 100.957 61.43C101.687 60.68 102.632 60.305 103.792 60.305C104.892 60.305 105.787 60.695 106.477 61.475C107.177 62.245 107.527 63.175 107.527 64.265C107.527 64.455 107.512 64.65 107.482 64.85H101.197ZM103.792 61.535C103.092 61.535 102.512 61.735 102.052 62.135C101.592 62.525 101.307 63.05 101.197 63.71H106.207C106.097 63 105.817 62.46 105.367 62.09C104.917 61.72 104.392 61.535 103.792 61.535ZM110.332 61.76C110.762 60.83 111.542 60.365 112.672 60.365V61.73C112.032 61.7 111.482 61.87 111.022 62.24C110.562 62.61 110.332 63.205 110.332 64.025V68H109.027V60.5H110.332V61.76ZM124.028 67.055C123.258 67.815 122.323 68.195 121.223 68.195C120.123 68.195 119.188 67.815 118.418 67.055C117.658 66.295 117.278 65.36 117.278 64.25C117.278 63.14 117.658 62.205 118.418 61.445C119.188 60.685 120.123 60.305 121.223 60.305C122.323 60.305 123.258 60.685 124.028 61.445C124.798 62.205 125.183 63.14 125.183 64.25C125.183 65.36 124.798 66.295 124.028 67.055ZM121.223 66.92C121.973 66.92 122.603 66.665 123.113 66.155C123.623 65.645 123.878 65.01 123.878 64.25C123.878 63.49 123.623 62.855 123.113 62.345C122.603 61.835 121.973 61.58 121.223 61.58C120.483 61.58 119.858 61.835 119.348 62.345C118.838 62.855 118.583 63.49 118.583 64.25C118.583 65.01 118.838 65.645 119.348 66.155C119.858 66.665 120.483 66.92 121.223 66.92ZM130.299 58.565C128.979 58.455 128.319 59.025 128.319 60.275V60.5H130.299V61.76H128.319V68H127.014V61.76H125.814V60.5H127.014V60.275C127.014 59.265 127.294 58.5 127.854 57.98C128.424 57.46 129.239 57.235 130.299 57.305V58.565ZM139.122 61.76H137.127V65.825C137.127 66.195 137.197 66.46 137.337 66.62C137.487 66.77 137.712 66.85 138.012 66.86C138.312 66.86 138.682 66.85 139.122 66.83V68C137.982 68.15 137.147 68.06 136.617 67.73C136.087 67.39 135.822 66.755 135.822 65.825V61.76H134.337V60.5H135.822V58.79L137.127 58.4V60.5H139.122V61.76ZM144.402 60.305C145.282 60.305 145.987 60.585 146.517 61.145C147.047 61.695 147.312 62.445 147.312 63.395V68H146.007V63.47C146.007 62.86 145.842 62.39 145.512 62.06C145.182 61.72 144.727 61.55 144.147 61.55C143.497 61.55 142.972 61.755 142.572 62.165C142.172 62.565 141.972 63.185 141.972 64.025V68H140.667V57.5H141.972V61.58C142.502 60.73 143.312 60.305 144.402 60.305ZM150.049 64.85C150.179 65.52 150.484 66.04 150.964 66.41C151.454 66.78 152.054 66.965 152.764 66.965C153.754 66.965 154.474 66.6 154.924 65.87L156.034 66.5C155.304 67.63 154.204 68.195 152.734 68.195C151.544 68.195 150.574 67.825 149.824 67.085C149.084 66.335 148.714 65.39 148.714 64.25C148.714 63.12 149.079 62.18 149.809 61.43C150.539 60.68 151.484 60.305 152.644 60.305C153.744 60.305 154.639 60.695 155.329 61.475C156.029 62.245 156.379 63.175 156.379 64.265C156.379 64.455 156.364 64.65 156.334 64.85H150.049ZM152.644 61.535C151.944 61.535 151.364 61.735 150.904 62.135C150.444 62.525 150.159 63.05 150.049 63.71H155.059C154.949 63 154.669 62.46 154.219 62.09C153.769 61.72 153.244 61.535 152.644 61.535ZM169.579 57.5L165.859 63.755V68H164.464V63.74L160.759 57.5H162.319L165.169 62.42L168.019 57.5H169.579ZM170.103 64.85C170.233 65.52 170.538 66.04 171.018 66.41C171.508 66.78 172.108 66.965 172.818 66.965C173.808 66.965 174.528 66.6 174.978 65.87L176.088 66.5C175.358 67.63 174.258 68.195 172.788 68.195C171.598 68.195 170.628 67.825 169.878 67.085C169.138 66.335 168.768 65.39 168.768 64.25C168.768 63.12 169.133 62.18 169.863 61.43C170.593 60.68 171.538 60.305 172.698 60.305C173.798 60.305 174.693 60.695 175.383 61.475C176.083 62.245 176.433 63.175 176.433 64.265C176.433 64.455 176.418 64.65 176.388 64.85H170.103ZM172.698 61.535C171.998 61.535 171.418 61.735 170.958 62.135C170.498 62.525 170.213 63.05 170.103 63.71H175.113C175.003 63 174.723 62.46 174.273 62.09C173.823 61.72 173.298 61.535 172.698 61.535ZM184.128 60.5H185.433V68H184.128V66.71C183.478 67.7 182.533 68.195 181.293 68.195C180.243 68.195 179.348 67.815 178.608 67.055C177.868 66.285 177.498 65.35 177.498 64.25C177.498 63.15 177.868 62.22 178.608 61.46C179.348 60.69 180.243 60.305 181.293 60.305C182.533 60.305 183.478 60.8 184.128 61.79V60.5ZM181.458 66.935C182.218 66.935 182.853 66.68 183.363 66.17C183.873 65.65 184.128 65.01 184.128 64.25C184.128 63.49 183.873 62.855 183.363 62.345C182.853 61.825 182.218 61.565 181.458 61.565C180.708 61.565 180.078 61.825 179.568 62.345C179.058 62.855 178.803 63.49 178.803 64.25C178.803 65.01 179.058 65.65 179.568 66.17C180.078 66.68 180.708 66.935 181.458 66.935ZM188.715 61.76C189.145 60.83 189.925 60.365 191.055 60.365V61.73C190.415 61.7 189.865 61.87 189.405 62.24C188.945 62.61 188.715 63.205 188.715 64.025V68H187.41V60.5H188.715V61.76Z" fill="#B4E913"></path><path d="M118.456 105H117.184L115.12 101.688L113.056 105H111.796L114.496 100.68L111.952 96.6H113.212L115.12 99.66L117.028 96.6H118.288L115.756 100.668L118.456 105ZM123.59 99H124.634V105H123.59V104.136C123.166 104.816 122.518 105.156 121.646 105.156C120.942 105.156 120.378 104.936 119.954 104.496C119.53 104.048 119.318 103.444 119.318 102.684V99H120.362V102.624C120.362 103.112 120.494 103.492 120.758 103.764C121.022 104.028 121.386 104.16 121.85 104.16C122.37 104.16 122.79 104 123.11 103.68C123.43 103.352 123.59 102.852 123.59 102.18V99ZM126.956 102.48C127.06 103.016 127.304 103.432 127.688 103.728C128.08 104.024 128.56 104.172 129.128 104.172C129.92 104.172 130.496 103.88 130.856 103.296L131.744 103.8C131.16 104.704 130.28 105.156 129.104 105.156C128.152 105.156 127.376 104.86 126.776 104.268C126.184 103.668 125.888 102.912 125.888 102C125.888 101.096 126.18 100.344 126.764 99.744C127.348 99.144 128.104 98.844 129.032 98.844C129.912 98.844 130.628 99.156 131.18 99.78C131.74 100.396 132.02 101.14 132.02 102.012C132.02 102.164 132.008 102.32 131.984 102.48H126.956ZM129.032 99.828C128.472 99.828 128.008 99.988 127.64 100.308C127.272 100.62 127.044 101.04 126.956 101.568H130.964C130.876 101 130.652 100.568 130.292 100.272C129.932 99.976 129.512 99.828 129.032 99.828ZM138.176 99H139.22V107.4H138.176V103.968C137.656 104.76 136.9 105.156 135.908 105.156C135.068 105.156 134.352 104.852 133.76 104.244C133.168 103.628 132.872 102.88 132.872 102C132.872 101.12 133.168 100.376 133.76 99.768C134.352 99.152 135.068 98.844 135.908 98.844C136.9 98.844 137.656 99.24 138.176 100.032V99ZM136.04 104.148C136.648 104.148 137.156 103.944 137.564 103.536C137.972 103.12 138.176 102.608 138.176 102C138.176 101.392 137.972 100.884 137.564 100.476C137.156 100.06 136.648 99.852 136.04 99.852C135.44 99.852 134.936 100.06 134.528 100.476C134.12 100.884 133.916 101.392 133.916 102C133.916 102.608 134.12 103.12 134.528 103.536C134.936 103.944 135.44 104.148 136.04 104.148ZM141.33 97.908C141.13 97.908 140.962 97.84 140.826 97.704C140.69 97.568 140.622 97.404 140.622 97.212C140.622 97.02 140.69 96.856 140.826 96.72C140.962 96.576 141.13 96.504 141.33 96.504C141.522 96.504 141.686 96.576 141.822 96.72C141.958 96.856 142.026 97.02 142.026 97.212C142.026 97.404 141.958 97.568 141.822 97.704C141.686 97.84 141.522 97.908 141.33 97.908ZM140.802 105V99H141.846V105H140.802ZM147.578 99H148.622V105H147.578V104.136C147.154 104.816 146.506 105.156 145.634 105.156C144.93 105.156 144.366 104.936 143.942 104.496C143.518 104.048 143.306 103.444 143.306 102.684V99H144.35V102.624C144.35 103.112 144.482 103.492 144.746 103.764C145.01 104.028 145.374 104.16 145.838 104.16C146.358 104.16 146.778 104 147.098 103.68C147.418 103.352 147.578 102.852 147.578 102.18V99Z" fill="#BEBEBE"></path><path d="M212.523 29C212.19 26.8333 209.823 22 203.023 20C203.357 22.1667 205.723 27 212.523 29Z" fill="#F3F3F3"></path><path d="M212.445 22.551C216.799 25.0921 216.939 30.6712 217.001 33.1419C217.016 33.7417 217.026 34.1583 217.091 34.3038C213.467 31.1767 213.085 27.6792 212.775 24.8365C212.684 24.0111 212.6 23.2409 212.445 22.551Z" fill="#F3F3F3"></path><path d="M205.116 29.3028C207.316 32.035 211.112 32.7783 213.571 33.2599C214.64 33.4691 215.456 33.629 215.78 33.8811C213.417 28.9404 209.166 29.1026 205.116 29.3028Z" fill="#F3F3F3"></path><path d="M210.107 34.0132C212.107 37.1918 215.651 38.3355 217.976 39.0856C218.999 39.4157 219.786 39.6696 220.101 39.9873C218.802 36.407 215.994 33.9595 210.107 34.0132Z" fill="#F3F3F3"></path><path d="M214.388 39.3775C215.55 42.4871 220.476 45.0166 222.597 46.1057C223.15 46.3896 223.513 46.5756 223.568 46.6485C222.612 42.8834 220.108 40.0261 214.388 39.3775Z" fill="#F3F3F3"></path><path d="M217.927 45.3234C218.926 48.9989 222.098 50.9622 224.213 52.2715C225.159 52.8571 225.894 53.3119 226.129 53.7305C225.6 49.0301 222.102 46.0591 217.927 45.3234Z" fill="#F3F3F3"></path><path d="M220.625 51.7002C221.17 55.5354 223.932 57.7901 225.817 59.3294C226.719 60.0653 227.42 60.6376 227.583 61.141C227.573 56.7369 225.073 52.8999 220.625 51.7002Z" fill="#F3F3F3"></path><path d="M222.368 58.3353C222.102 61.8092 224.493 64.5368 226.185 66.4669C227.012 67.41 227.672 68.1627 227.774 68.719C228.508 63.8131 225.948 59.8315 222.368 58.3353Z" fill="#F3F3F3"></path><path d="M223.031 65.0894C222.095 68.3646 223.994 71.4467 225.361 73.6662C226.037 74.7631 226.583 75.6493 226.593 76.2439C228.557 71.0126 225.68 66.6464 223.031 65.0894Z" fill="#F3F3F3"></path><path d="M222.475 71.8007C221.008 74.7662 222.561 79.0466 223.466 81.5387C223.817 82.5065 224.07 83.2046 224.011 83.4513C226.13 79.7524 225.882 74.5499 222.475 71.8007Z" fill="#F3F3F3"></path><path d="M220.68 78.2969C218.533 81.1571 219.324 84.7027 219.896 87.2661C220.175 88.5187 220.403 89.5367 220.209 90.1256C223.601 85.1062 222.719 80.5596 220.68 78.2969Z" fill="#F3F3F3"></path><path d="M217.734 84.4317C215.005 87.059 215.312 90.6887 215.533 93.2973C215.64 94.5673 215.727 95.5953 215.434 96.1477C219.346 91.8275 219.464 87.0904 217.734 84.4317Z" fill="#F3F3F3"></path><path d="M213.755 90.1076C210.524 92.1689 210.429 95.9193 210.36 98.6423C210.327 99.944 210.3 101.011 209.939 101.546C214.848 96.9181 214.81 92.3853 213.755 90.1076Z" fill="#F3F3F3"></path><path d="M204.569 103.542C204.865 100.864 205.276 97.1564 208.943 95.2702C209.823 97.8587 208.975 102.198 203.902 106.337C204.316 105.829 204.43 104.799 204.569 103.542Z" fill="#F3F3F3"></path><path d="M207.592 105.97C210.866 105.436 214.931 104.774 218.453 99.7188C216.618 100.838 214.888 101.242 213.176 101.642C210.387 102.293 207.645 102.933 204.575 106.638C205.454 106.318 206.477 106.151 207.592 105.97Z" fill="#F3F3F3"></path><path d="M213.243 101.049C216.354 100.288 220.395 99.2998 223.495 93.6518C221.806 94.9468 220.151 95.5372 218.507 96.1235C215.852 97.0707 213.228 98.007 210.54 101.885C211.296 101.526 212.219 101.3 213.243 101.049Z" fill="#F3F3F3"></path><path d="M218.447 95.4714C221.49 94.364 225.586 92.8733 227.681 86.8465C226.197 88.4172 224.688 89.1517 223.162 89.8945C220.802 91.0437 218.4 92.2127 215.987 96.5299C216.64 96.1292 217.492 95.8192 218.447 95.4714Z" fill="#F3F3F3"></path><path d="M222.777 89.3086C225.526 87.8612 229.584 85.7248 230.751 79.3938C229.739 80.8967 228.405 81.8601 227 82.8748C224.756 84.4961 222.33 86.2485 220.743 90.5426C221.219 90.1289 221.937 89.7509 222.777 89.3086Z" fill="#F3F3F3"></path><path d="M226.084 82.5921C228.612 80.6414 232.6 77.5632 232.488 71.5063C231.619 73.3619 230.57 74.3405 229.474 75.3631C227.772 76.9516 225.956 78.646 224.524 83.8993C224.886 83.5167 225.437 83.0913 226.084 82.5921Z" fill="#F3F3F3"></path><path d="M228.522 75.1692C230.65 72.9903 233.91 69.6505 232.834 63.4807C232.27 65.3302 231.43 66.4216 230.56 67.5521C229.152 69.3822 227.664 71.315 227.142 76.7327C227.442 76.2758 227.94 75.766 228.522 75.1692Z" fill="#F3F3F3"></path><path d="M229.25 67.9128C230.828 65.7052 233.821 61.5197 231.874 55.586C231.598 57.1163 230.945 58.3667 230.266 59.667C229.031 62.0318 227.711 64.5613 228.415 69.2381C228.519 68.9354 228.836 68.4921 229.25 67.9128Z" fill="#F3F3F3"></path><path d="M229.034 60.0262C230.289 57.5673 232.488 53.26 229.771 48.0117C229.697 49.3985 229.25 50.6013 228.78 51.8659C227.872 54.3115 226.878 56.9885 228.323 61.6747C228.386 61.2946 228.67 60.7378 229.034 60.0262Z" fill="#F3F3F3"></path><path d="M227.409 52.8036C228.283 50.2531 230.007 45.2254 226.706 40.8478C226.763 41.7366 226.529 42.7702 226.262 43.948C225.653 46.6376 224.873 50.0792 227.002 54.2665C226.998 54.0007 227.172 53.4924 227.409 52.8036Z" fill="#F3F3F3"></path><path d="M224.831 45.5389C225.384 42.9523 226.393 38.2376 222.774 34.1431C222.885 35.3379 222.744 36.4324 222.6 37.5511C222.268 40.1239 221.919 42.8247 224.586 47.1672C224.552 46.8393 224.673 46.2754 224.831 45.5389Z" fill="#F3F3F3"></path><path d="M221.319 39.0877C221.583 36.5791 222.111 31.5664 217.994 27.9951C218.132 28.9089 218.132 29.8563 218.131 30.8468C218.129 33.6426 218.127 36.782 221.255 40.479C221.197 40.2387 221.249 39.7506 221.319 39.0877Z" fill="#F3F3F3"></path><path d="M47.5234 29C47.8568 26.8333 50.2234 22 57.0234 20C56.6901 22.1667 54.3234 27 47.5234 29Z" fill="#F3F3F3"></path><path d="M47.6022 22.551C43.2481 25.0921 43.1081 30.6712 43.0461 33.1419C43.0311 33.7417 43.0206 34.1583 42.9556 34.3038C46.5801 31.1767 46.9619 27.6792 47.2723 24.8365C47.3624 24.0111 47.4465 23.2409 47.6022 22.551Z" fill="#F3F3F3"></path><path d="M54.9312 29.3028C52.7305 32.035 48.935 32.7783 46.4755 33.2599C45.4071 33.4691 44.5907 33.629 44.2668 33.8811C46.6294 28.9404 50.8806 29.1026 54.9312 29.3028Z" fill="#F3F3F3"></path><path d="M49.9397 34.0132C47.9403 37.1918 44.3956 38.3355 42.0707 39.0856C41.0474 39.4157 40.2604 39.6696 39.9455 39.9873C41.2444 36.407 44.0533 33.9595 49.9397 34.0132Z" fill="#F3F3F3"></path><path d="M45.6593 39.3775C44.4972 42.4871 39.5706 45.0166 37.4494 46.1057C36.8966 46.3896 36.5343 46.5756 36.479 46.6485C37.4345 42.8834 39.9385 40.0261 45.6593 39.3775Z" fill="#F3F3F3"></path><path d="M42.1203 45.3234C41.1206 48.9989 37.9489 50.9622 35.8335 52.2715C34.8875 52.8571 34.1528 53.3119 33.9181 53.7305C34.4464 49.0301 37.9451 46.0591 42.1203 45.3234Z" fill="#F3F3F3"></path><path d="M39.422 51.7002C38.8767 55.5354 36.115 57.7901 34.2296 59.3294C33.3282 60.0653 32.6272 60.6376 32.4642 61.141C32.4741 56.7369 34.9743 52.8999 39.422 51.7002Z" fill="#F3F3F3"></path><path d="M37.6792 58.3353C37.9447 61.8092 35.5535 64.5368 33.8614 66.4669C33.0346 67.41 32.3747 68.1627 32.2733 68.719C31.5388 63.8131 34.0993 59.8315 37.6792 58.3353Z" fill="#F3F3F3"></path><path d="M37.0163 65.0894C37.9518 68.3646 36.053 71.4467 34.6858 73.6662C34.01 74.7631 33.4641 75.6493 33.4543 76.2439C31.4894 71.0126 34.3667 66.6464 37.0163 65.0894Z" fill="#F3F3F3"></path><path d="M37.5722 71.8007C39.0389 74.7662 37.4855 79.0466 36.5811 81.5387C36.2298 82.5065 35.9764 83.2046 36.0359 83.4513C33.9165 79.7524 34.1647 74.5499 37.5722 71.8007Z" fill="#F3F3F3"></path><path d="M39.3667 78.2969C41.5136 81.1571 40.7227 84.7027 40.1509 87.2661C39.8714 88.5187 39.6444 89.5367 39.838 90.1256C36.4458 85.1062 37.3279 80.5596 39.3667 78.2969Z" fill="#F3F3F3"></path><path d="M42.3129 84.4317C45.0421 87.059 44.7348 90.6887 44.514 93.2973C44.4065 94.5673 44.3195 95.5953 44.6134 96.1477C40.7011 91.8275 40.5829 87.0904 42.3129 84.4317Z" fill="#F3F3F3"></path><path d="M46.292 90.1076C49.5225 92.1689 49.6178 95.9193 49.687 98.6423C49.7201 99.944 49.7472 101.011 50.108 101.546C45.1991 96.9181 45.2365 92.3853 46.292 90.1076Z" fill="#F3F3F3"></path><path d="M55.478 103.542C55.1815 100.864 54.7711 97.1564 51.1037 95.2702C50.224 97.8587 51.0719 102.198 56.1446 106.337C55.731 105.829 55.6171 104.799 55.478 103.542Z" fill="#F3F3F3"></path><path d="M52.4549 105.97C49.181 105.436 45.1161 104.774 41.5938 99.7188C43.4284 100.838 45.1584 101.242 46.8706 101.642C49.66 102.293 52.4021 102.933 55.4717 106.638C54.5931 106.318 53.5697 106.151 52.4549 105.97Z" fill="#F3F3F3"></path><path d="M46.8034 101.049C43.6927 100.288 39.6515 99.2998 36.5521 93.6518C38.241 94.9468 39.8961 95.5372 41.5396 96.1235C44.1946 97.0707 46.8193 98.007 49.5071 101.885C48.7513 101.526 47.8278 101.3 46.8034 101.049Z" fill="#F3F3F3"></path><path d="M41.5996 95.4714C38.557 94.364 34.4612 92.8733 32.3659 86.8465C33.85 88.4172 35.3588 89.1517 36.8845 89.8945C39.2453 91.0437 41.6467 92.2127 44.0599 96.5299C43.4067 96.1292 42.555 95.8192 41.5996 95.4714Z" fill="#F3F3F3"></path><path d="M37.2695 89.3086C34.5205 87.8612 30.4629 85.7248 29.296 79.3938C30.308 80.8967 31.6417 81.8601 33.0465 82.8748C35.2911 84.4961 37.7172 86.2485 39.3034 90.5426C38.8276 90.1289 38.1096 89.7509 37.2695 89.3086Z" fill="#F3F3F3"></path><path d="M33.9626 82.5921C31.4353 80.6414 27.4473 77.5632 27.5588 71.5063C28.4278 73.3619 29.4766 74.3405 30.5726 75.3631C32.2751 76.9516 34.0912 78.646 35.5228 83.8993C35.1606 83.5167 34.6095 83.0913 33.9626 82.5921Z" fill="#F3F3F3"></path><path d="M31.5245 75.1692C29.3973 72.9903 26.1366 69.6505 27.2131 63.4807C27.7767 65.3302 28.6166 66.4216 29.4866 67.5521C30.895 69.3822 32.3824 71.315 32.905 76.7327C32.6048 76.2758 32.1071 75.766 31.5245 75.1692Z" fill="#F3F3F3"></path><path d="M30.7966 67.9128C29.2184 65.7052 26.2263 61.5197 28.1728 55.586C28.4489 57.1163 29.1018 58.3667 29.7807 59.667C31.0154 62.0318 32.3362 64.5613 31.6322 69.2381C31.5276 68.9354 31.2107 68.4921 30.7966 67.9128Z" fill="#F3F3F3"></path><path d="M31.0133 60.0262C29.7578 57.5673 27.5585 53.26 30.2757 48.0117C30.3502 49.3985 30.7969 50.6013 31.2666 51.8659C32.1748 54.3115 33.1691 56.9885 31.7242 61.6747C31.661 61.2946 31.3767 60.7378 31.0133 60.0262Z" fill="#F3F3F3"></path><path d="M32.6383 52.8036C31.7637 50.2531 30.0396 45.2254 33.341 40.8478C33.2839 41.7366 33.518 42.7702 33.7849 43.948C34.3941 46.6376 35.1738 50.0792 33.0454 54.2665C33.0489 54.0007 32.8746 53.4924 32.6383 52.8036Z" fill="#F3F3F3"></path><path d="M35.2162 45.5389C34.6627 42.9523 33.6538 38.2376 37.2728 34.1431C37.1616 35.3379 37.3028 36.4324 37.4471 37.5511C37.779 40.1239 38.1274 42.8247 35.4609 47.1672C35.4945 46.8393 35.3738 46.2754 35.2162 45.5389Z" fill="#F3F3F3"></path><path d="M38.7281 39.0877C38.4638 36.5791 37.9355 31.5664 42.0532 27.9951C41.9146 28.9089 41.9153 29.8563 41.9159 30.8468C41.9178 33.6426 41.9198 36.782 38.7918 40.479C38.8494 40.2387 38.798 39.7506 38.7281 39.0877Z" fill="#F3F3F3"></path></svg> 