<?xml version="1.0" encoding="UTF-8"?> <svg xmlns="http://www.w3.org/2000/svg" width="24" height="24" viewBox="0 0 24 24" fill="none"><path d="M10.0858 3.90246V3H13.4303V4.00421V4.41633L13.8349 4.49501C14.3309 4.59149 14.7153 4.72308 15.1791 4.90057C16.2322 5.30362 17.0479 5.85995 17.647 6.55887C17.9141 6.87052 18.1438 7.35434 18.3136 7.91367C18.4233 8.2752 18.5025 8.65024 18.5513 9H14.831C14.7809 8.81067 14.7138 8.60393 14.6293 8.40255C14.4837 8.05561 14.2467 7.6259 13.873 7.38725C13.2785 6.98805 12.467 6.84504 11.4477 6.84504C10.6107 6.84504 9.83509 6.94718 9.26153 7.23305C9.01246 7.35403 8.76321 7.50543 8.58047 7.733C8.38325 7.9786 8.29966 8.26597 8.29966 8.58633C8.29966 8.72925 8.31812 8.89301 8.353 9.04956C8.38681 9.20129 8.44368 9.38125 8.53933 9.53668L8.55137 9.55625L8.56516 9.57463C8.76759 9.84454 9.07093 10.0273 9.40781 10.1556L9.40779 10.1557L9.41494 10.1583C9.77427 10.289 10.2415 10.3771 10.7968 10.434L10.7968 10.4342L10.8088 10.4351L13.4569 10.642L13.4582 10.6421C14.8932 10.7504 16.0086 10.9786 16.8247 11.3102C17.642 11.6422 18.1795 12.0688 18.4943 12.5635L18.4943 12.5636L18.4987 12.5703C18.822 13.0609 19.0161 13.9561 19.0161 14.7928C19.0161 15.7463 18.753 16.3374 18.1677 17.1009L18.1676 17.1009L18.1645 17.1051C17.6077 17.8474 16.8119 18.438 15.7504 18.8652C15.1446 19.1091 14.5746 19.281 13.8576 19.3863L13.4303 19.4491V19.881V21H10.0858V19.8321V19.4099L9.66957 19.3391C9.04219 19.2325 8.54255 19.0759 7.98575 18.8623C6.86483 18.4322 6.01976 17.844 5.42352 17.1118C4.93042 16.4951 4.64737 15.9675 4.54379 15.2928H8.31002C8.38642 15.4902 8.49589 15.6625 8.63944 15.8178C8.85997 16.0562 9.14665 16.2365 9.43351 16.4072L9.43347 16.4073L9.44118 16.4117C10.0633 16.7672 10.9709 17.1547 12.0684 17.1547C13.0833 17.1547 13.8169 16.8137 14.3143 16.5722L14.3143 16.5723L14.3245 16.5671C14.622 16.4141 14.8753 16.2114 15.0537 15.9465C15.2346 15.6776 15.3199 15.3717 15.3199 15.0466C15.3199 14.7024 15.2228 14.3812 15.0146 14.1074C14.7929 13.8014 14.4528 13.6046 14.0708 13.4768C13.6954 13.3468 13.2135 13.2668 12.6445 13.224C12.6442 13.224 12.6439 13.224 12.6437 13.224L10.2687 13.0381C10.2682 13.0381 10.2678 13.0381 10.2674 13.038C8.15427 12.8618 6.72022 12.3856 5.87225 11.6839C5.02986 10.9729 4.5 9.78878 4.5 8.58633C4.5 7.6623 4.82716 7.10916 5.40134 6.40449C5.93839 5.74538 6.70906 5.22646 7.74423 4.86415L7.74423 4.86416L7.74759 4.86296C8.35784 4.64448 8.93097 4.49099 9.64972 4.39835L10.0858 4.34215V3.90246Z" stroke="#9FCE10"></path></svg> 