<?xml version="1.0" encoding="UTF-8"?> <svg xmlns="http://www.w3.org/2000/svg" width="22" height="22" viewBox="0 0 22 22" fill="none"><path fill-rule="evenodd" clip-rule="evenodd" d="M2.82358 0H19.1759C20.7292 0 22 1.27027 22 2.82358V19.1759C22 20.7292 20.7292 22 19.1759 22H2.82358C1.27027 22 0 20.7292 0 19.1759V2.82358C0 1.27027 1.27027 0 2.82358 0ZM16.0257 2.44385C15.4811 2.44385 15.0353 2.88966 15.0353 3.43428V5.80507C15.0353 6.34969 15.4811 6.7955 16.0257 6.7955H18.5125C19.0572 6.7955 19.503 6.34973 19.503 5.80507V3.43428C19.503 2.88966 19.0572 2.44385 18.5125 2.44385H16.0257ZM19.5132 9.30329H17.5769C17.76 9.90159 17.8589 10.5349 17.8589 11.1912C17.8589 14.8506 14.7973 17.817 11.0204 17.817C7.24398 17.817 4.18245 14.8506 4.18245 11.1912C4.18245 10.5349 4.28126 9.90164 4.46445 9.30329H2.44437V18.5964C2.44437 19.0776 2.83753 19.4713 3.31881 19.4713H18.6388C19.1195 19.4713 19.5132 19.0776 19.5132 18.5964V9.30329H19.5132ZM11.0205 6.67091C8.58034 6.67091 6.60215 8.58784 6.60215 10.9522C6.60215 13.3166 8.58034 15.2335 11.0205 15.2335C13.461 15.2335 15.4392 13.3166 15.4392 10.9522C15.4392 8.58784 13.461 6.67091 11.0205 6.67091Z" fill="#B4E913"></path></svg> 