<?xml version="1.0" encoding="UTF-8"?> <svg xmlns="http://www.w3.org/2000/svg" width="18" height="18" viewBox="0 0 18 18" fill="none"><g clip-path="url(#clip0_478_59818)"><path fill-rule="evenodd" clip-rule="evenodd" d="M17.7166 6.75H0.283691C1.28279 2.86824 4.80651 0 9.00015 0C13.1938 0 16.7175 2.86824 17.7166 6.75Z" fill="#FF9933"></path><path fill-rule="evenodd" clip-rule="evenodd" d="M17.7165 11.25C17.9016 10.5309 18 9.77692 18 9C18 8.22308 17.9016 7.46914 17.7165 6.75H0.283539C0.0984443 7.46914 0 8.22308 0 9C0 9.77692 0.0984443 10.5309 0.283539 11.25H17.7165Z" fill="white"></path><path fill-rule="evenodd" clip-rule="evenodd" d="M17.7166 11.25C16.7175 15.1318 13.1938 18 9.00015 18C4.80651 18 1.28279 15.1318 0.283691 11.25H17.7166Z" fill="#128807"></path><path d="M9.0002 10.8C9.99431 10.8 10.8002 9.99406 10.8002 8.99995C10.8002 8.00584 9.99431 7.19995 9.0002 7.19995C8.00608 7.19995 7.2002 8.00584 7.2002 8.99995C7.2002 9.99406 8.00608 10.8 9.0002 10.8Z" fill="#000088"></path><path d="M8.9998 10.575C9.86965 10.575 10.5748 9.8699 10.5748 9.00005C10.5748 8.1302 9.86965 7.42505 8.9998 7.42505C8.12996 7.42505 7.4248 8.1302 7.4248 9.00005C7.4248 9.8699 8.12996 10.575 8.9998 10.575Z" fill="white"></path><path d="M9.00006 9.31506C9.17403 9.31506 9.31506 9.17403 9.31506 9.00006C9.31506 8.82609 9.17403 8.68506 9.00006 8.68506C8.82609 8.68506 8.68506 8.82609 8.68506 9.00006C8.68506 9.17403 8.82609 9.31506 9.00006 9.31506Z" fill="#000088"></path><path fill-rule="evenodd" clip-rule="evenodd" d="M8.87521 7.42786C8.86937 7.38351 8.82869 7.35228 8.78433 7.35812C8.73998 7.36396 8.70876 7.40465 8.7146 7.449C8.72044 7.49336 8.76113 7.52458 8.80548 7.51874C8.84983 7.5129 8.88105 7.47221 8.87521 7.42786ZM8.94603 8.37007L9.00003 7.42507L9.05403 8.37007L9.00003 8.82007L8.94603 8.37007ZM8.7849 8.40552L8.59248 7.47875L8.88922 8.37757L8.95353 8.82622L8.7849 8.40552ZM8.63827 8.48147L8.21254 7.63608L8.7318 8.42747L8.91004 8.84418L8.63827 8.48147ZM8.51646 8.59279L7.88643 7.88639L8.59283 8.51643L8.87284 8.87281L8.51646 8.59279ZM8.4274 8.73186L7.636 8.21259L8.4814 8.63833L8.84411 8.91009L8.4274 8.73186ZM8.37754 8.88917L7.47872 8.59243L8.4055 8.78485L8.82619 8.95348L8.37754 8.88917ZM8.37002 9.05409L7.42502 9.00009L8.37002 8.94609L8.82002 9.00009L8.37002 9.05409ZM8.40543 9.21531L7.47866 9.40773L8.37748 9.11099L8.82612 9.04668L8.40543 9.21531ZM8.48138 9.36185L7.63599 9.78758L8.42738 9.26832L8.84409 9.09008L8.48138 9.36185ZM10.6418 9.21682C10.636 9.26117 10.5953 9.2924 10.5509 9.28656C10.5066 9.28072 10.4754 9.24003 10.4812 9.19568C10.487 9.15132 10.5277 9.1201 10.5721 9.12594C10.6164 9.13178 10.6477 9.17247 10.6418 9.21682ZM9.054 9.6301L9 10.5751L8.946 9.6301L9 9.1801L9.054 9.6301ZM10.486 9.52855C10.4447 9.51144 10.3973 9.53106 10.3802 9.57239C10.3631 9.61372 10.3827 9.6611 10.424 9.67822C10.4654 9.69534 10.5128 9.67572 10.5299 9.63439C10.547 9.59306 10.5274 9.54567 10.486 9.52855ZM8.88917 9.62258L8.59243 10.5214L8.78485 9.59462L8.95348 9.17393L8.88917 9.62258ZM10.2 10.0237C10.2355 10.0509 10.2863 10.0442 10.3135 10.0087C10.3408 9.97321 10.3341 9.92237 10.2986 9.89513C10.2631 9.8679 10.2123 9.87459 10.185 9.91009C10.1578 9.94558 10.1645 9.99642 10.2 10.0237ZM8.73176 9.57268L8.2125 10.3641L8.63823 9.51868L8.91 9.15597L8.73176 9.57268ZM9.89419 10.2993C9.92142 10.3348 9.97227 10.3415 10.0078 10.3143C10.0433 10.2871 10.0499 10.2362 10.0227 10.2007C9.99548 10.1652 9.94463 10.1585 9.90914 10.1858C9.87365 10.213 9.86696 10.2638 9.89419 10.2993ZM8.59266 9.48375L7.88626 10.1138L8.51629 9.40738L8.87267 9.12737L8.59266 9.48375ZM9.52734 10.4865C9.54446 10.5278 9.59184 10.5474 9.63317 10.5303C9.6745 10.5132 9.69413 10.4658 9.67701 10.4245C9.65989 10.3831 9.61251 10.3635 9.57118 10.3806C9.52985 10.3978 9.51022 10.4451 9.52734 10.4865ZM9.12463 10.5723C9.13047 10.6167 9.17116 10.6479 9.21551 10.642C9.25986 10.6362 9.29108 10.5955 9.28524 10.5512C9.27941 10.5068 9.23872 10.4756 9.19436 10.4814C9.15001 10.4873 9.11879 10.528 9.12463 10.5723ZM8.71347 10.551C8.70763 10.5954 8.73885 10.6361 8.78321 10.6419C8.82756 10.6477 8.86825 10.6165 8.87408 10.5722C8.87992 10.5278 8.8487 10.4871 8.80435 10.4813C8.76 10.4755 8.71931 10.5067 8.71347 10.551ZM8.32185 10.424C8.30473 10.4653 8.32436 10.5127 8.36569 10.5298C8.40702 10.547 8.4544 10.5273 8.47152 10.486C8.48864 10.4447 8.46901 10.3973 8.42768 10.3802C8.38635 10.363 8.33897 10.3827 8.32185 10.424ZM7.97642 10.2C7.94918 10.2355 7.95588 10.2863 7.99137 10.3135C8.02686 10.3408 8.07771 10.3341 8.10494 10.2986C8.13217 10.2631 8.12548 10.2123 8.08999 10.185C8.0545 10.1578 8.00365 10.1645 7.97642 10.2ZM7.70078 9.89419C7.66529 9.92142 7.6586 9.97227 7.68583 10.0078C7.71306 10.0433 7.76391 10.0499 7.7994 10.0227C7.83489 9.99548 7.84158 9.94463 7.81435 9.90914C7.78712 9.87365 7.73627 9.86696 7.70078 9.89419ZM7.5137 9.52748C7.47237 9.5446 7.45274 9.59198 7.46986 9.63331C7.48698 9.67464 7.53436 9.69426 7.57569 9.67714C7.61702 9.66003 7.63665 9.61264 7.61953 9.57131C7.60241 9.52998 7.55503 9.51036 7.5137 9.52748ZM7.42786 9.12477C7.38351 9.13061 7.35228 9.1713 7.35812 9.21565C7.36396 9.26 7.40465 9.29122 7.449 9.28538C7.49336 9.27954 7.52458 9.23885 7.51874 9.1945C7.5129 9.15015 7.47221 9.11893 7.42786 9.12477ZM7.44909 8.71361C7.40474 8.70777 7.36405 8.73899 7.35821 8.78334C7.35237 8.82769 7.38359 8.86838 7.42795 8.87422C7.4723 8.88006 7.51299 8.84884 7.51883 8.80449C7.52467 8.76014 7.49344 8.71945 7.44909 8.71361ZM7.57616 8.32194C7.53483 8.30482 7.48745 8.32445 7.47033 8.36578C7.45321 8.40711 7.47284 8.45449 7.51417 8.47161C7.5555 8.48873 7.60288 8.4691 7.62 8.42777C7.63712 8.38644 7.61749 8.33906 7.57616 8.32194ZM9.11086 8.37759L9.4076 7.47877L9.21518 8.40554L9.04655 8.82623L9.11086 8.37759ZM7.80006 7.97651C7.76457 7.94928 7.71372 7.95597 7.68649 7.99146C7.65925 8.02695 7.66595 8.0778 7.70144 8.10503C7.73693 8.13226 7.78778 8.12557 7.81501 8.09008C7.84224 8.05459 7.83555 8.00374 7.80006 7.97651ZM9.26826 8.42749L9.78753 7.63609L9.36179 8.48149L9.09003 8.8442L9.26826 8.42749ZM8.10602 7.70087C8.07879 7.66538 8.02794 7.65869 7.99245 7.68592C7.95696 7.71315 7.95027 7.764 7.9775 7.79949C8.00473 7.83498 8.05558 7.84168 8.09107 7.81444C8.12656 7.78721 8.13325 7.73636 8.10602 7.70087ZM9.40737 8.51641L10.1138 7.88638L9.48374 8.59278L9.12736 8.8728L9.40737 8.51641ZM8.47269 7.51374C8.45557 7.47241 8.40819 7.45279 8.36686 7.46991C8.32553 7.48703 8.3059 7.53441 8.32302 7.57574C8.34014 7.61707 8.38752 7.63669 8.42885 7.61957C8.47018 7.60246 8.48981 7.55507 8.47269 7.51374ZM9.51865 8.63832L10.364 8.21258L9.57265 8.73185L9.15594 8.91008L9.51865 8.63832ZM9.59459 8.7849L10.5214 8.59248L9.62255 8.88922L9.1739 8.95353L9.59459 8.7849ZM9.28637 7.44918C9.29221 7.40483 9.26099 7.36414 9.21664 7.3583C9.17229 7.35246 9.1316 7.38369 9.12576 7.42804C9.11992 7.47239 9.15114 7.51308 9.19549 7.51892C9.23985 7.52476 9.28053 7.49354 9.28637 7.44918ZM9.63001 8.94612L10.575 9.00012L9.63001 9.05412L9.18001 9.00012L9.63001 8.94612ZM9.67818 7.57616C9.6953 7.53483 9.67567 7.48745 9.63434 7.47033C9.59301 7.45321 9.54563 7.47284 9.52851 7.51417C9.51139 7.5555 9.53102 7.60288 9.57235 7.62C9.61368 7.63712 9.66106 7.61749 9.67818 7.57616ZM9.62248 9.11099L10.5213 9.40774L9.59453 9.21531L9.17384 9.04668L9.62248 9.11099ZM10.0236 7.80019C10.0508 7.7647 10.0441 7.71386 10.0087 7.68662C9.97317 7.65939 9.92232 7.66608 9.89509 7.70158C9.86785 7.73707 9.87455 7.78791 9.91004 7.81515C9.94553 7.84238 9.99638 7.83569 10.0236 7.80019ZM9.57263 9.26835L10.364 9.78762L9.51863 9.36189L9.15592 9.09012L9.57263 9.26835ZM10.2992 8.10602C10.3347 8.07879 10.3414 8.02794 10.3142 7.99245C10.287 7.95696 10.2361 7.95027 10.2006 7.9775C10.1651 8.00473 10.1584 8.05558 10.1857 8.09107C10.2129 8.12656 10.2638 8.13325 10.2992 8.10602ZM9.48357 9.40742L10.1136 10.1138L9.4072 9.48378L9.12719 9.1274L9.48357 9.40742ZM10.4863 8.47273C10.5277 8.45562 10.5473 8.40823 10.5302 8.3669C10.513 8.32557 10.4657 8.30595 10.4243 8.32307C10.383 8.34019 10.3634 8.38757 10.3805 8.4289C10.3976 8.47023 10.445 8.48985 10.4863 8.47273ZM9.36176 9.51869L9.78749 10.3641L9.26823 9.57269L9.08999 9.15598L9.36176 9.51869ZM10.5722 8.8754C10.6165 8.86956 10.6477 8.82887 10.6419 8.78452C10.6361 8.74017 10.5954 8.70894 10.551 8.71478C10.5067 8.72062 10.4755 8.76131 10.4813 8.80566C10.4871 8.85002 10.5278 8.88124 10.5722 8.8754ZM9.21513 9.59464L9.40755 10.5214L9.11081 9.62259L9.0465 9.17395L9.21513 9.59464Z" fill="#000088"></path><path fill-rule="evenodd" clip-rule="evenodd" d="M9 17.475C13.6806 17.475 17.475 13.6806 17.475 9C17.475 4.31939 13.6806 0.525 9 0.525C4.31939 0.525 0.525 4.31939 0.525 9C0.525 13.6806 4.31939 17.475 9 17.475ZM9 18C13.9706 18 18 13.9706 18 9C18 4.02944 13.9706 0 9 0C4.02944 0 0 4.02944 0 9C0 13.9706 4.02944 18 9 18Z" fill="#D9D9D9"></path></g><defs><clipPath id="clip0_478_59818"><rect width="18" height="18" fill="white"></rect></clipPath></defs></svg> 