<?xml version="1.0" encoding="UTF-8"?> <svg xmlns="http://www.w3.org/2000/svg" width="24" height="24" viewBox="0 0 24 24" fill="none"><g clip-path="url(#clip0_1_39534)"><path fill-rule="evenodd" clip-rule="evenodd" d="M19.9375 21C22.4287 18.8012 24 15.5841 24 12C24 5.37258 18.6274 0 12 0C5.37258 0 0 5.37258 0 12C0 15.5841 1.57126 18.8012 4.06253 21H19.9375Z" fill="white"></path><path fill-rule="evenodd" clip-rule="evenodd" d="M12 24C18.6274 24 24 18.6274 24 12H0C0 18.6274 5.37258 24 12 24Z" fill="#DC143C"></path><path fill-rule="evenodd" clip-rule="evenodd" d="M12 23.3C18.2408 23.3 23.3 18.2408 23.3 12C23.3 5.75918 18.2408 0.7 12 0.7C5.75918 0.7 0.7 5.75918 0.7 12C0.7 18.2408 5.75918 23.3 12 23.3ZM12 24C18.6274 24 24 18.6274 24 12C24 5.37258 18.6274 0 12 0C5.37258 0 0 5.37258 0 12C0 18.6274 5.37258 24 12 24Z" fill="#D9D9D9"></path></g><defs><clipPath id="clip0_1_39534"><rect width="24" height="24" fill="white"></rect></clipPath></defs></svg> 