<?xml version="1.0" encoding="UTF-8"?> <svg xmlns="http://www.w3.org/2000/svg" width="18" height="19" viewBox="0 0 18 19" fill="none"><g opacity="0.8" clip-path="url(#clip0_478_59784)"><path fill-rule="evenodd" clip-rule="evenodd" d="M9 18.082C13.9706 18.082 18 14.0526 18 9.08203C18 4.11147 13.9706 0.0820312 9 0.0820312C4.02944 0.0820312 0 4.11147 0 9.08203C0 14.0526 4.02944 18.082 9 18.082Z" fill="#E30A17"></path><path fill-rule="evenodd" clip-rule="evenodd" d="M10.9171 7.49197C10.4145 6.94179 9.68508 6.59589 8.87342 6.59589C7.35748 6.59589 6.12842 7.79964 6.12842 9.29027C6.12842 10.7809 7.35748 11.9903 8.87342 11.9903C9.68796 11.9903 10.4189 11.6419 10.9208 11.0883C10.3135 12.0357 9.23964 12.6653 8.01572 12.6653C6.1201 12.6653 4.58447 11.155 4.58447 9.29027C4.58447 7.42559 6.1201 5.9209 8.01572 5.9209C9.23712 5.9209 10.3091 6.54791 10.9171 7.49197Z" fill="white"></path><path fill-rule="evenodd" clip-rule="evenodd" d="M12.1135 7.7179L12.0854 8.96384L10.9238 9.27884L12.0713 9.68665L12.0432 10.8313L12.7885 9.93696L13.9191 10.3307L13.2666 9.37165L14.0626 8.41821L12.8391 8.75571L12.1135 7.71509V7.7179Z" fill="white"></path><path fill-rule="evenodd" clip-rule="evenodd" d="M9 17.557C13.6806 17.557 17.475 13.7626 17.475 9.08203C17.475 4.40142 13.6806 0.607031 9 0.607031C4.31939 0.607031 0.525 4.40142 0.525 9.08203C0.525 13.7626 4.31939 17.557 9 17.557ZM9 18.082C13.9706 18.082 18 14.0526 18 9.08203C18 4.11147 13.9706 0.0820312 9 0.0820312C4.02944 0.0820312 0 4.11147 0 9.08203C0 14.0526 4.02944 18.082 9 18.082Z" fill="#D9D9D9"></path></g><defs><clipPath id="clip0_478_59784"><rect width="18" height="18" fill="white" transform="translate(0 0.0820312)"></rect></clipPath></defs></svg> 