<?xml version="1.0" encoding="UTF-8"?> <svg xmlns="http://www.w3.org/2000/svg" width="156" height="44" viewBox="0 0 156 44" fill="none"><path d="M3.66666 11H36.6667C38.6917 11 40.3333 12.6416 40.3333 14.6666V18.3333M3.66666 11V36.6666C3.66666 38.6917 5.30828 40.3333 7.33333 40.3333H36.6667C38.6917 40.3333 40.3333 38.6917 40.3333 36.6666V33M3.66666 11V7.3333C3.66666 5.30825 5.30828 3.66663 7.33332 3.66663H33M40.3333 18.3333H29.3333C27.3083 18.3333 25.6667 19.9749 25.6667 22V29.3333C25.6667 31.3583 27.3083 33 29.3333 33H40.3333M40.3333 18.3333V33" stroke="#B4E913" stroke-width="3.3" stroke-linecap="round"></path><circle cx="33" cy="25.6667" r="1.83333" fill="#B4E913"></circle><path d="M77.049 5.92693C77.3484 5.00562 78.6518 5.00562 78.9511 5.92693L82.0413 15.4376C82.1752 15.8496 82.5592 16.1286 82.9924 16.1286H92.9925C93.9612 16.1286 94.364 17.3682 93.5803 17.9376L85.49 23.8155C85.1395 24.0701 84.9929 24.5215 85.1268 24.9335L88.217 34.4442C88.5163 35.3655 87.4618 36.1316 86.6781 35.5622L78.5879 29.6843C78.2374 29.4296 77.7628 29.4296 77.4123 29.6843L69.3221 35.5622C68.5384 36.1316 67.4839 35.3655 67.7832 34.4442L70.8734 24.9335C71.0073 24.5215 70.8606 24.0701 70.5102 23.8155L62.4199 17.9376C61.6362 17.3682 62.039 16.1286 63.0077 16.1286H73.0078C73.441 16.1286 73.825 15.8496 73.9588 15.4376L77.049 5.92693Z" stroke="#B4E913" stroke-width="3.3" stroke-linecap="round" stroke-linejoin="round"></path><path fill-rule="evenodd" clip-rule="evenodd" d="M145 5.5H152.333V38.5H145V5.5Z" stroke="#B4E913" stroke-width="3.3" stroke-linecap="round" stroke-linejoin="round"></path><path fill-rule="evenodd" clip-rule="evenodd" d="M130.333 14.6666H137.667V38.5H130.333V14.6666Z" stroke="#B4E913" stroke-width="3.3" stroke-linecap="round" stroke-linejoin="round"></path><path fill-rule="evenodd" clip-rule="evenodd" d="M115.667 23.8334H123V38.5H115.667V23.8334Z" stroke="#B4E913" stroke-width="3.3" stroke-linecap="round" stroke-linejoin="round"></path></svg> 