<?xml version="1.0" encoding="UTF-8"?> <svg xmlns="http://www.w3.org/2000/svg" width="44" height="44" viewBox="0 0 44 44" fill="none"><path d="M38.5 38.5H7.33335C6.36089 38.5 5.42826 38.1137 4.74063 37.4261C4.053 36.7384 3.66669 35.8058 3.66669 34.8333V5.5" stroke="#B4E913" stroke-width="3.3" stroke-linecap="round" stroke-linejoin="round"></path><path d="M22.9169 4.58337C25.3468 4.58355 27.3173 6.55382 27.3173 8.98376C27.3173 9.59447 27.1917 10.1758 26.9667 10.7045L32.7529 16.6556C33.1236 16.5542 33.5141 16.4994 33.9169 16.4994C34.8162 16.4995 35.6518 16.7706 36.3486 17.2338L40.0839 13.4994C40.7283 12.8557 41.7728 12.8554 42.4169 13.4994C43.0612 14.1437 43.061 15.189 42.4169 15.8334L38.2285 20.0209C38.2861 20.3049 38.3173 20.5988 38.3173 20.8998C38.3173 23.3297 36.3468 25.3 33.9169 25.3002C31.4869 25.3002 29.5165 23.3298 29.5165 20.8998C29.5166 20.0896 29.736 19.331 30.1181 18.6791L24.6308 13.0365C24.104 13.2596 23.525 13.3841 22.9169 13.3842C22.6056 13.3842 22.3018 13.35 22.0087 13.2885L16.4804 21.1869C16.956 21.8897 17.2333 22.7374 17.2333 23.6498C17.2333 25.9313 15.4968 27.8068 13.2734 28.0277L12.6181 31.307C12.4393 32.2002 11.57 32.7803 10.6767 32.6019C9.78337 32.4233 9.20353 31.5538 9.38177 30.6605L10.0947 27.0931C9.0824 26.2869 8.43256 25.0443 8.43256 23.6498C8.4327 21.22 10.4031 19.2496 12.8329 19.2494C13.1442 19.2494 13.4481 19.2826 13.7411 19.3441L19.2695 11.4467C18.7938 10.7439 18.5166 9.89614 18.5165 8.98376C18.5165 6.55371 20.4869 4.58337 22.9169 4.58337ZM12.8329 22.5502C12.2257 22.5503 11.7335 23.0425 11.7333 23.6498C11.7333 24.2572 12.2256 24.7492 12.8329 24.7494C13.4405 24.7494 13.9326 24.2573 13.9326 23.6498C13.9324 23.0424 13.4404 22.5502 12.8329 22.5502ZM33.9169 19.8002C33.3095 19.8002 32.8175 20.2924 32.8173 20.8998C32.8173 21.5073 33.3094 21.9994 33.9169 21.9994C34.5243 21.9992 35.0165 21.5072 35.0165 20.8998C35.0164 20.2925 34.5242 19.8003 33.9169 19.8002ZM22.9169 7.88416C22.3094 7.88416 21.8173 8.37625 21.8173 8.98376C21.8175 9.5911 22.3095 10.0834 22.9169 10.0834C23.5242 10.0832 24.0163 9.59099 24.0165 8.98376C24.0165 8.37636 23.5243 7.88433 22.9169 7.88416Z" fill="#B4E913"></path></svg> 