<?xml version="1.0" encoding="UTF-8"?> <svg xmlns="http://www.w3.org/2000/svg" width="25" height="25" viewBox="0 0 25 25" fill="none"><path fill-rule="evenodd" clip-rule="evenodd" d="M12.7142 0C19.3641 0 24.755 5.39086 24.755 12.0408C24.755 18.6908 19.3641 24.0816 12.7142 24.0816C6.0642 24.0816 0.67334 18.6908 0.67334 12.0408C0.67334 5.39086 6.0642 0 12.7142 0Z" fill="#B4E913"></path><path d="M6.86572 12.2372L9.58512 13.1505C9.58512 13.1505 9.68749 13.1658 9.71886 13.142C10.338 12.7389 15.9436 9.09234 16.2672 8.96988C16.3184 8.95457 16.3564 8.97328 16.3465 9.009C16.2177 9.47673 11.3485 13.9346 11.3485 13.9346C11.3485 13.9346 11.3298 13.9574 11.3183 13.9854L11.3159 13.9839L11.315 13.9941C11.3105 14.0076 11.3081 14.0218 11.3105 14.035L11.3111 14.0373L11.0617 16.7631C11.0617 16.7631 10.956 17.6152 11.7815 16.7631C12.3642 16.1629 12.9288 15.6598 13.2117 15.4147C14.1462 16.0795 15.1515 16.8146 15.5853 17.1985C15.8033 17.3924 15.9865 17.423 16.1368 17.4179C16.5479 17.4009 16.6635 16.9349 16.6635 16.9349C16.6635 16.9349 18.5871 8.96308 18.6514 7.89496C18.6541 7.85196 18.6571 7.81547 18.6598 7.78248C18.6637 7.73457 18.667 7.69405 18.668 7.65174C18.6696 7.55309 18.6614 7.45274 18.6448 7.40512C18.6019 7.27415 18.5507 7.23844 18.4698 7.20782C18.2932 7.13809 17.996 7.24184 17.996 7.24184C17.996 7.24184 7.44361 11.1503 6.84095 11.5824C6.71051 11.6759 6.66758 11.7303 6.64612 11.7933C6.54045 12.1011 6.86572 12.2372 6.86572 12.2372Z" fill="white"></path></svg> 