<?xml version="1.0" encoding="UTF-8"?> <svg xmlns="http://www.w3.org/2000/svg" width="117" height="28" viewBox="0 0 117 28" fill="none"><g clip-path="url(#clip0_209_30515)"><path d="M42.3394 1.54248H16.8512C5.94009 1.54248 0 6.55464 0 14.7711C0 22.9876 5.94009 27.9997 16.8512 27.9997H42.3394C53.2505 27.9997 59.1906 22.9853 59.1906 14.7711C59.1906 6.55693 53.2505 1.54248 42.3394 1.54248Z" fill="#B4E913"></path><path d="M83.4993 8.95224H71.8843C71.626 8.95224 71.4523 8.77854 71.4523 8.52028C71.4523 6.70786 72.0557 6.10219 74.2155 6.10219C77.7558 6.10219 80.2173 6.31703 82.2034 6.53415C82.4617 6.57758 82.592 6.36045 82.6354 6.10219L83.0673 3.51269C83.1108 3.25442 82.8936 3.16757 82.6354 3.08072C79.2688 2.0888 76.2016 0.920898 71.8843 0.920898C68.0423 0.920898 65.6242 3.59725 65.6242 7.26781V8.52028C65.6242 8.77854 65.4505 8.95224 65.1922 8.95224H61.1331C60.8749 8.95224 60.7012 9.12594 60.7012 9.38421V13.0982C60.7012 13.3565 60.8749 13.5302 61.1331 13.5302H65.1922C65.4505 13.5302 65.6242 13.7039 65.6242 13.9621V21.3878C65.6242 21.6461 65.7979 21.8198 66.0562 21.8198H71.0203C71.2786 21.8198 71.4523 21.6461 71.4523 21.3878V13.9621C71.4523 13.7039 71.626 13.5302 71.8843 13.5302H83.4993C83.7576 13.5302 83.9313 13.3565 83.9313 13.0982V9.38421C83.9313 9.12594 83.7576 8.95224 83.4993 8.95224Z" fill="black"></path><path d="M91.8737 8.95215H86.9095C86.6709 8.95215 86.4775 9.14555 86.4775 9.38412V21.3877C86.4775 21.6263 86.6709 21.8197 86.9095 21.8197H91.8737C92.1122 21.8197 92.3056 21.6263 92.3056 21.3877V9.38412C92.3056 9.14555 92.1122 8.95215 91.8737 8.95215Z" fill="black"></path><path d="M89.4143 0C87.3848 0 85.9175 1.46731 85.9175 3.41C85.9175 5.3527 87.3848 6.90687 89.4143 6.90687C91.4439 6.90687 92.9112 5.43955 92.9112 3.41C92.9112 1.38046 91.4439 0 89.4143 0Z" fill="black"></path><path d="M111.088 6.31934C108.151 6.31934 104.179 7.65865 101.201 9.08254C100.943 9.21281 100.726 9.16939 100.639 8.8677L100.207 7.13984C100.163 6.925 99.9918 6.79472 99.7313 6.79472H95.6722C95.4139 6.79472 95.2402 6.96843 95.2402 7.22669V21.3878C95.2402 21.6461 95.4139 21.8198 95.6722 21.8198H100.636C100.895 21.8198 101.068 21.6461 101.068 21.3878V12.5794C101.068 12.3646 101.155 12.1474 101.37 12.104C103.571 11.5006 106.334 11.1532 107.847 11.1532C110.567 11.1532 110.741 12.4057 110.741 15.2558V21.3878C110.741 21.6461 110.914 21.8198 111.173 21.8198H116.18C116.439 21.8198 116.612 21.6461 116.612 21.3878V13.2696C116.612 8.47688 115.577 6.31934 111.086 6.31934H111.088Z" fill="black"></path><path d="M46.4167 6.56625C43.6032 6.56625 39.7978 7.84843 36.9432 9.21289C36.694 9.33631 36.4883 9.29517 36.4061 9.00491L35.9924 7.35019C35.9512 7.14449 35.7844 7.01878 35.5376 7.01878H31.8556C31.6065 7.01878 31.4419 7.18334 31.4419 7.43246V21.0016C31.4419 21.2508 31.6065 21.4153 31.8556 21.4153H36.4061C36.6552 21.4153 36.8197 21.2508 36.8197 21.0016V12.5635C36.8197 12.3555 36.902 12.1498 37.11 12.1087C39.2195 11.5304 41.8662 11.199 43.3152 11.199C45.9207 11.199 46.0876 12.3989 46.0876 15.1278V21.0016C46.0876 21.2508 46.2521 21.4153 46.5012 21.4153H51.0517C51.3009 21.4153 51.4654 21.2508 51.4654 21.0016V13.224C51.4654 8.63236 50.4735 6.56396 46.419 6.56396L46.4167 6.56625Z" fill="black"></path><path d="M17.4659 6.36084C10.8882 6.36084 6.46338 8.9252 6.46338 13.8482C6.46338 18.7713 10.4356 21.6259 17.4659 21.6259C24.4962 21.6259 28.4684 18.9792 28.4684 13.8482C28.4684 8.71722 24.0414 6.36084 17.4659 6.36084ZM17.4659 17.1165C13.5782 17.1165 11.7567 15.8755 11.7567 13.8894C11.7567 11.9032 13.5759 10.7445 17.4659 10.7445C21.3559 10.7445 23.1752 11.9444 23.1752 13.8894C23.1752 15.8344 21.3559 17.1165 17.4659 17.1165Z" fill="black"></path></g><defs><clipPath id="clip0_209_30515"><rect width="116.612" height="28" fill="white"></rect></clipPath></defs></svg> 