<?xml version="1.0" encoding="UTF-8"?> <svg xmlns="http://www.w3.org/2000/svg" width="40" height="40" viewBox="0 0 40 40" fill="none"><g clip-path="url(#clip0_379_74655)"><circle cx="20" cy="20" r="13.5" stroke="#9FCE10"></circle><path d="M37 20C37 16.6377 36.003 13.3509 34.135 10.5553C32.267 7.75967 29.612 5.58074 26.5056 4.29405C23.3993 3.00736 19.9811 2.6707 16.6835 3.32665C13.3858 3.9826 10.3567 5.60169 7.97918 7.97918C5.60169 10.3567 3.9826 13.3858 3.32665 16.6835C2.6707 19.9811 3.00736 23.3993 4.29405 26.5056C5.58074 29.612 7.75967 32.267 10.5553 34.135C13.3509 36.003 16.6377 37 20 37" stroke="#9FCE10"></path><path d="M24.3999 36.4208C27.6476 35.5506 30.5643 33.7369 32.7812 31.209C34.3686 29.3989 35.5462 27.2808 36.248 25" stroke="#9FCE10"></path><path d="M20.5 10V20L15 23" stroke="#9FCE10" stroke-linecap="round"></path></g><defs><clipPath id="clip0_379_74655"><rect width="40" height="40" fill="white"></rect></clipPath></defs></svg> 