<?xml version="1.0" encoding="UTF-8"?> <svg xmlns="http://www.w3.org/2000/svg" width="22" height="16" viewBox="0 0 22 16" fill="none"><path d="M21.0128 3.04841C20.7777 2.16478 20.0824 1.46769 19.1978 1.22878C17.5982 0.800049 11.1804 0.800049 11.1804 0.800049C11.1804 0.800049 4.76587 0.800049 3.16305 1.22878C2.28166 1.46441 1.58635 2.1615 1.34805 3.04841C0.92041 4.65205 0.92041 8.00005 0.92041 8.00005C0.92041 8.00005 0.92041 11.348 1.34805 12.9517C1.58308 13.8353 2.2784 14.5324 3.16305 14.7713C4.76587 15.2 11.1804 15.2 11.1804 15.2C11.1804 15.2 17.5982 15.2 19.1978 14.7713C20.0792 14.5357 20.7745 13.8386 21.0128 12.9517C21.4404 11.348 21.4404 8.00005 21.4404 8.00005C21.4404 8.00005 21.4404 4.65205 21.0128 3.04841Z" fill="#FF3000"></path><path d="M9.13037 11.0862L14.4611 8.00005L9.13037 4.91387V11.0862Z" fill="white"></path></svg> 