<?xml version="1.0" encoding="UTF-8"?> <svg xmlns="http://www.w3.org/2000/svg" width="34" height="34" viewBox="0 0 34 34" fill="none"><g clip-path="url(#clip0_2286_9221)"><path d="M15.8338 15.8113C15.8155 15.8113 15.7969 15.81 15.7715 15.8072L15.7757 12.0517C15.8027 12.0517 15.8255 12.0488 15.848 12.0488C16.5732 12.0498 17.2996 12.0462 18.0245 12.0527C18.5685 12.0575 19.0781 12.187 19.5208 12.5176C20.0741 12.9305 20.2917 13.4957 20.2101 14.171C20.1172 14.9329 19.6452 15.3882 18.9566 15.651C18.6504 15.7667 18.3304 15.8145 18.0017 15.8142L15.8338 15.8117V15.8113ZM20.0529 17.8764C19.6028 17.6762 19.1256 17.6033 18.6369 17.6013C17.7051 17.5962 16.772 17.5978 15.8386 17.5968C15.8158 17.5968 15.7933 17.5997 15.7692 17.601L15.7644 21.7501C15.7943 21.7514 15.8197 21.753 15.8451 21.753C16.7415 21.7556 17.6364 21.7552 18.5328 21.7575C18.9068 21.7578 19.275 21.7257 19.6378 21.627C20.0655 21.5114 20.451 21.3221 20.7502 20.9854C21.0747 20.622 21.2029 20.1872 21.2103 19.7072C21.2225 18.8602 20.8183 18.2141 20.0526 17.8761L20.0529 17.8764ZM22.9415 32.923C14.1473 36.2045 4.35858 31.7354 1.07704 22.9412C-2.20449 14.1469 2.2646 4.35858 11.0588 1.07705C19.8531 -2.20449 29.6418 2.26461 32.923 11.0585C36.2045 19.8528 31.7354 29.6415 22.9415 32.923ZM24.6808 19.4013C24.6612 19.2429 24.6457 19.0842 24.6216 18.9271C24.5021 18.1026 24.0867 17.4577 23.426 16.9629C23.0694 16.6949 22.6845 16.4736 22.2925 16.2621C22.2671 16.248 22.243 16.2339 22.2173 16.2194C22.3619 16.0963 22.5065 15.9819 22.6427 15.856C22.9759 15.5517 23.2622 15.2108 23.4723 14.8076C23.6908 14.3873 23.7367 13.9426 23.6622 13.4809C23.5173 12.5645 23.1247 11.7795 22.43 11.1572C21.8995 10.6807 21.2723 10.3941 20.5831 10.2318C20.1284 10.1235 19.6658 10.0779 19.1983 10.0718H19.116C19.116 10.0718 19.1208 7.13469 19.1195 7.10063L17.4314 7.09871C17.4327 7.12698 17.4307 10.0654 17.4307 10.0654L15.7766 10.0637C15.7753 10.0438 15.7798 7.11252 15.7798 7.09678L14.0978 7.09485C14.0965 7.12891 14.0946 10.0644 14.0946 10.0644L10.3263 10.0599L10.324 12.0382L11.7362 12.0398C12.2631 12.0404 12.6901 12.4681 12.6895 12.9954L12.6808 20.7968C12.6802 21.324 12.2525 21.7507 11.7252 21.7501L10.8047 21.7491C10.8047 21.7491 10.4718 23.2072 10.3124 23.9038C10.3112 23.908 10.3124 23.9138 10.3124 23.9279L14.0708 23.9321L14.0676 26.8988L15.7516 26.9007L15.7548 23.9411L17.4131 23.943L17.4098 26.9013L19.0964 26.9033L19.0996 23.9225C19.2738 23.9225 19.4379 23.9311 19.6021 23.9231C20.4803 23.8762 21.3285 23.6956 22.1263 23.3129C23.053 22.8666 23.7959 22.2202 24.2756 21.2961C24.4928 20.8784 24.6277 20.4353 24.6679 19.9652C24.6692 19.944 24.6763 19.9241 24.6808 19.9045L24.6814 19.4016L24.6808 19.4013Z" fill="black"></path></g><defs><clipPath id="clip0_2286_9221"><rect width="34" height="34" fill="white"></rect></clipPath></defs></svg> 