<?xml version="1.0" encoding="UTF-8"?> <svg xmlns="http://www.w3.org/2000/svg" width="24" height="24" viewBox="0 0 24 24" fill="none"><path d="M19 5.00684H21C21.5523 5.00684 22 5.45455 22 6.00684V19.0068C22 19.5591 21.5523 20.0068 21 20.0068H3C2.44772 20.0068 2 19.5591 2 19.0068V10.0068" stroke="#9FCE10"></path><path d="M5 15.0068L8.62963 13.0068L10.1852 13.5068L11.7407 12.0068L13.2963 15.0068L17.4444 10.0068L19 11.5068" stroke="#9FCE10"></path><path d="M4.72857 3.97813V7.57812H4.04457L2.24971 5.39241V7.57812H1.42686V3.97813H2.116L3.90571 6.16384V3.97813H4.72857ZM7.89974 6.8067H6.22832L5.90946 7.57812H5.05575L6.66032 3.97813H7.48317L9.09289 7.57812H8.2186L7.89974 6.8067ZM7.63746 6.17413L7.0666 4.79584L6.49575 6.17413H7.63746ZM12.691 7.57812L12.6858 5.41813L11.6264 7.19755H11.251L10.1967 5.46441V7.57812H9.41496V3.97813H10.1041L11.4515 6.21527L12.7784 3.97813H13.4624L13.4727 7.57812H12.691ZM17.0628 6.90955V7.57812H14.2754V3.97813H16.9959V4.6467H15.1034V5.42841H16.7748V6.07641H15.1034V6.90955H17.0628Z" fill="#9FCE10"></path></svg> 