<?xml version="1.0" encoding="UTF-8"?> <svg xmlns="http://www.w3.org/2000/svg" width="436" height="80" viewBox="0 0 436 80" fill="none"><g clip-path="url(#clip0_119_7462)"><path d="M122.157 23.9618V26.8286H112.818V54.3672H109.778V26.8286H100.439V23.9618H122.157ZM132.199 32.1278C135.414 32.1278 138.005 33.2717 139.974 35.5593C141.973 37.818 142.972 40.4966 142.972 43.595C142.972 43.9135 142.943 44.3624 142.885 44.9415H123.816C124.106 47.1423 125.032 48.8942 126.596 50.1973C128.189 51.4714 130.143 52.1085 132.46 52.1085C134.111 52.1085 135.53 51.7755 136.717 51.1095C137.933 50.4145 138.845 49.5168 139.453 48.4164L141.973 49.8933C141.017 51.428 139.714 52.6442 138.063 53.5419C136.413 54.4396 134.53 54.8884 132.417 54.8884C129 54.8884 126.22 53.817 124.077 51.6741C121.934 49.5313 120.863 46.8093 120.863 43.5081C120.863 40.2649 121.919 37.5574 124.033 35.3856C126.147 33.2137 128.869 32.1278 132.199 32.1278ZM132.199 34.9078C129.941 34.9078 128.044 35.5883 126.509 36.9493C125.003 38.2813 124.106 40.0188 123.816 42.1616H140.018C139.728 39.874 138.845 38.0931 137.368 36.819C135.891 35.5448 134.169 34.9078 132.199 34.9078ZM158.406 35.429H152.151V48.5902C152.151 49.7774 152.383 50.6317 152.846 51.1529C153.31 51.6452 154.004 51.9058 154.931 51.9348C155.858 51.9348 157.016 51.9058 158.406 51.8479V54.3672C155.365 54.8305 153.078 54.6133 151.543 53.7156C150.037 52.818 149.284 51.1095 149.284 48.5902V35.429H144.724V32.6491H149.284V27.4367L152.151 26.568V32.6491H158.406V35.429ZM173.348 32.1278C175.983 32.1278 178.054 32.9387 179.559 34.5603C181.094 36.1529 181.862 38.3103 181.862 41.0323V54.3672H178.995V41.0323C178.995 39.0921 178.474 37.5863 177.431 36.5149C176.418 35.4435 174.97 34.9078 173.087 34.9078C171.003 34.9078 169.309 35.5738 168.005 36.9058C166.702 38.2089 166.051 40.2359 166.051 42.9869V54.3672H163.184V23.9618H166.051V36.0371C167.672 33.4309 170.105 32.1278 173.348 32.1278ZM197.439 32.1278C200.653 32.1278 203.245 33.2717 205.214 35.5593C207.212 37.818 208.211 40.4966 208.211 43.595C208.211 43.9135 208.182 44.3624 208.124 44.9415H189.055C189.345 47.1423 190.272 48.8942 191.835 50.1973C193.428 51.4714 195.383 52.1085 197.699 52.1085C199.35 52.1085 200.769 51.7755 201.956 51.1095C203.172 50.4145 204.084 49.5168 204.692 48.4164L207.212 49.8933C206.256 51.428 204.953 52.6442 203.302 53.5419C201.652 54.4396 199.77 54.8884 197.656 54.8884C194.239 54.8884 191.459 53.817 189.316 51.6741C187.173 49.5313 186.102 46.8093 186.102 43.5081C186.102 40.2649 187.159 37.5574 189.273 35.3856C191.386 33.2137 194.108 32.1278 197.439 32.1278ZM197.439 34.9078C195.18 34.9078 193.283 35.5883 191.748 36.9493C190.243 38.2813 189.345 40.0188 189.055 42.1616H205.257C204.968 39.874 204.084 38.0931 202.607 36.819C201.131 35.5448 199.408 34.9078 197.439 34.9078ZM215.638 36.2543C216.97 33.6192 219.257 32.3016 222.501 32.3016V35.0815C220.531 35.0815 218.895 35.6607 217.592 36.819C216.289 37.9773 215.638 39.8016 215.638 42.2919V54.3672H212.771V32.6491H215.638V36.2543ZM241.632 58.7108C238.447 52.3402 236.854 45.8247 236.854 39.1645C236.854 32.5043 238.447 25.9889 241.632 19.6182H244.499C241.314 25.9889 239.721 32.5043 239.721 39.1645C239.721 45.8247 241.314 52.3402 244.499 58.7108H241.632ZM268.373 23.9618V26.8286H259.034V54.3672H255.993V26.8286H246.655V23.9618H268.373ZM291.396 54.3672L284.272 42.205H275.758V54.3672H272.718V23.9618H284.88C287.399 23.9618 289.542 24.8595 291.309 26.6549C293.104 28.4213 294.002 30.5641 294.002 33.0834C294.002 35.1394 293.379 36.9782 292.134 38.5998C290.918 40.1925 289.354 41.2639 287.443 41.8141L294.87 54.3672H291.396ZM275.758 26.8286V39.3383H284.88C286.56 39.3383 287.993 38.7301 289.18 37.5139C290.368 36.2688 290.961 34.7919 290.961 33.0834C290.961 31.346 290.368 29.8692 289.18 28.6529C287.993 27.4367 286.56 26.8286 284.88 26.8286H275.758ZM313.433 54.8884C308.829 54.8884 305.021 53.3682 302.009 50.3276C298.998 47.2871 297.492 43.566 297.492 39.1645C297.492 34.763 298.998 31.0419 302.009 28.0014C305.021 24.9609 308.829 23.4406 313.433 23.4406C316.242 23.4406 318.819 24.1211 321.165 25.4821C323.51 26.8141 325.32 28.624 326.594 30.9116L323.901 32.4753C322.945 30.6221 321.527 29.1452 319.644 28.0448C317.762 26.9445 315.692 26.3943 313.433 26.3943C309.64 26.3943 306.541 27.625 304.138 30.0863C301.734 32.5477 300.532 35.5738 300.532 39.1645C300.532 42.7552 301.734 45.7813 304.138 48.2427C306.541 50.7041 309.64 51.9348 313.433 51.9348C315.692 51.9348 317.762 51.3846 319.644 50.2842C321.527 49.1838 322.945 47.707 323.901 45.8537L326.594 47.374C325.349 49.6616 323.539 51.4859 321.165 52.8469C318.819 54.2079 316.242 54.8884 313.433 54.8884ZM329.433 54.3672V51.6307L340.379 40.5979C343.506 37.4705 345.07 34.7919 345.07 32.5622C345.07 30.6221 344.462 29.1163 343.245 28.0448C342.058 26.9445 340.625 26.3943 338.945 26.3943C335.818 26.3943 333.545 27.8277 332.126 30.6944L329.563 29.1742C330.519 27.2919 331.822 25.873 333.472 24.9174C335.123 23.9329 336.947 23.4406 338.945 23.4406C341.378 23.4406 343.506 24.2659 345.33 25.9165C347.184 27.5381 348.11 29.7533 348.11 32.5622C348.11 34.3286 347.618 36.0226 346.633 37.6442C345.649 39.2659 344.259 40.9744 342.464 42.7697L333.776 51.4135H348.762V54.3672H329.433ZM372.245 50.6317C370.247 53.4695 367.423 54.8884 363.775 54.8884C360.126 54.8884 357.288 53.4695 355.261 50.6317C353.263 47.7649 352.264 43.9425 352.264 39.1645C352.264 34.3865 353.263 30.5786 355.261 27.7408C357.288 24.874 360.126 23.4406 363.775 23.4406C367.423 23.4406 370.247 24.874 372.245 27.7408C374.272 30.5786 375.285 34.3865 375.285 39.1645C375.285 43.9425 374.272 47.7649 372.245 50.6317ZM357.52 48.5902C359.025 50.8199 361.11 51.9348 363.775 51.9348C366.439 51.9348 368.509 50.8199 369.986 48.5902C371.492 46.3604 372.245 43.2186 372.245 39.1645C372.245 35.1105 371.492 31.9686 369.986 29.7389C368.509 27.5091 366.439 26.3943 363.775 26.3943C361.11 26.3943 359.025 27.5091 357.52 29.7389C356.043 31.9686 355.304 35.1105 355.304 39.1645C355.304 43.2186 356.043 46.3604 357.52 48.5902ZM381.622 58.7108H378.755C381.94 52.3402 383.533 45.8247 383.533 39.1645C383.533 32.5043 381.94 25.9889 378.755 19.6182H381.622C384.807 25.9889 386.4 32.5043 386.4 39.1645C386.4 45.8247 384.807 52.3402 381.622 58.7108Z" fill="black"></path><g clip-path="url(#clip1_119_7462)"><g clip-path="url(#clip2_119_7462)"><path d="M40.8625 1.51953C62.6698 1.51953 80.3499 19.1997 80.3499 41.007C80.3499 62.8144 62.669 80.4945 40.8625 80.4945C19.0559 80.4945 1.375 62.8191 1.375 41.007C1.375 19.1949 19.0528 1.51953 40.8625 1.51953Z" fill="#00AC41"></path><path d="M45.7506 35.7463V29.8721H59.1834V20.9219H22.6054V29.8721H36.0398V35.7415C25.1216 36.243 16.9121 38.4053 16.9121 40.9957C16.9121 43.5861 25.1255 45.7484 36.0398 46.2531V65.0689H45.7538V46.2515C56.6523 45.7484 64.8452 43.5877 64.8452 40.9997C64.8452 38.4117 56.6523 36.2509 45.7538 35.7478M45.7538 44.6578V44.6531C45.4797 44.6704 44.0716 44.7549 40.9363 44.7549C38.4296 44.7549 36.6661 44.6839 36.0446 44.6515V44.6594C26.3986 44.2321 19.1984 42.5523 19.1984 40.5424C19.1984 38.5325 26.3994 36.8551 36.0446 36.427V42.9859C36.6764 43.0293 38.4833 43.1359 40.9774 43.1359C43.9729 43.1359 45.4789 43.0112 45.7553 42.9859V36.427C55.3824 36.8559 62.5659 38.5372 62.5659 40.54C62.5659 42.5428 55.3792 44.225 45.7553 44.6538" fill="white"></path></g></g></g><defs><clipPath id="clip0_119_7462"><rect width="434.362" height="78.9749" fill="white" transform="translate(0.849609 0.738281)"></rect></clipPath><clipPath id="clip1_119_7462"><rect width="78.9749" height="78.9749" fill="white" transform="translate(1.375 1.51953)"></rect></clipPath><clipPath id="clip2_119_7462"><rect width="78.9749" height="78.9749" fill="white" transform="translate(1.375 1.51953)"></rect></clipPath></defs></svg> 