<?xml version="1.0" encoding="UTF-8"?> <svg xmlns="http://www.w3.org/2000/svg" width="24" height="24" viewBox="0 0 24 24" fill="none"><path d="M10.8542 1.7605H14.2349C14.3041 1.76059 14.3723 1.77665 14.4342 1.80745C14.4961 1.83825 14.5501 1.88294 14.5919 1.93804C14.6337 1.99313 14.6622 2.05714 14.6752 2.12507C14.6882 2.193 14.6853 2.26301 14.6667 2.32963L12.0107 11.3808L14.5032 10.6194L13.9693 12.4314L11.4521 13.1641L9.81924 18.6775H18.5538C18.6231 18.6779 18.6913 18.6943 18.7531 18.7254C18.8149 18.7565 18.8687 18.8015 18.9103 18.8569C18.9519 18.9123 18.98 18.9765 18.9926 19.0446C19.0053 19.1126 19.0019 19.1827 18.983 19.2493L18.2215 21.866C18.185 21.9905 18.1093 22.0998 18.0055 22.1776C17.9017 22.2555 17.7755 22.2976 17.6458 22.2978H4.30583L6.56013 14.6805L4.06641 15.4394L4.61591 13.6587L7.11487 12.8998L10.2837 2.19749C10.3185 2.07234 10.3931 1.96195 10.4963 1.88309C10.5995 1.80422 10.7256 1.76118 10.8555 1.7605" fill="#0165E0"></path></svg> 