<?xml version="1.0" encoding="UTF-8"?> <svg xmlns="http://www.w3.org/2000/svg" width="18" height="18" viewBox="0 0 18 18" fill="none"><g clip-path="url(#clip0_478_59851)"><path fill-rule="evenodd" clip-rule="evenodd" d="M9 18C13.9706 18 18 13.9706 18 9C18 4.02944 13.9706 0 9 0C4.02944 0 0 4.02944 0 9C0 13.9706 4.02944 18 9 18Z" fill="#CE1126"></path><path fill-rule="evenodd" clip-rule="evenodd" d="M17.3378 12.3946C17.7647 11.347 18 10.2009 18 8.99991C18 7.79888 17.7647 6.65279 17.3378 5.60522H0.662202C0.235257 6.65279 0 7.79888 0 8.99991C0 10.2009 0.235258 11.347 0.662205 12.3946H17.3378Z" fill="#002868"></path><path fill-rule="evenodd" clip-rule="evenodd" d="M11.908 8.99992C11.908 9.7712 11.6017 10.5109 11.0563 11.0563C10.5109 11.6017 9.7712 11.908 8.99992 11.908C8.22864 11.908 7.48895 11.6017 6.94357 11.0563C6.39819 10.5109 6.0918 9.7712 6.0918 8.99992C6.0918 8.22864 6.39819 7.48895 6.94357 6.94357C7.48895 6.39819 8.22864 6.0918 8.99992 6.0918C9.7712 6.0918 10.5109 6.39819 11.0563 6.94357C11.6017 7.48895 11.908 8.22864 11.908 8.99992Z" fill="white"></path><path fill-rule="evenodd" clip-rule="evenodd" d="M9 17.475C13.6806 17.475 17.475 13.6806 17.475 9C17.475 4.31939 13.6806 0.525 9 0.525C4.31939 0.525 0.525 4.31939 0.525 9C0.525 13.6806 4.31939 17.475 9 17.475ZM9 18C13.9706 18 18 13.9706 18 9C18 4.02944 13.9706 0 9 0C4.02944 0 0 4.02944 0 9C0 13.9706 4.02944 18 9 18Z" fill="#D9D9D9"></path></g><defs><clipPath id="clip0_478_59851"><rect width="18" height="18" fill="white"></rect></clipPath></defs></svg> 