<?xml version="1.0" encoding="UTF-8"?> <svg xmlns="http://www.w3.org/2000/svg" width="25" height="24" viewBox="0 0 25 24" fill="none"><path d="M7.87087 10.8645H8.5697C8.88254 10.8645 9.1371 11.119 9.1371 11.4319C9.1371 11.7896 9.42717 12.0797 9.78493 12.0797C10.1427 12.0797 10.4328 11.7896 10.4328 11.4319C10.4328 10.5062 9.75401 9.73639 8.86815 9.5931V9.45447C8.86815 9.09671 8.57808 8.80664 8.22032 8.80664C7.86256 8.80664 7.5725 9.09671 7.5725 9.45447V9.5931C6.6866 9.73635 6.00781 10.5062 6.00781 11.4319V11.7915C6.00781 12.8187 6.84361 13.6545 7.87087 13.6545H8.5697C8.88254 13.6545 9.1371 13.9091 9.1371 14.2219V14.5814C9.1371 14.8942 8.88254 15.1488 8.5697 15.1488H7.87087C7.55803 15.1488 7.30347 14.8942 7.30347 14.5814V14.5479C7.30347 14.1901 7.0134 13.9001 6.65564 13.9001C6.29788 13.9001 6.00781 14.1901 6.00781 14.5479V14.5814C6.00781 15.5071 6.6866 16.277 7.5725 16.4203V16.5588C7.5725 16.9166 7.86256 17.2066 8.22032 17.2066C8.57808 17.2066 8.86815 16.9166 8.86815 16.5588V16.4202C9.75401 16.277 10.4328 15.5071 10.4328 14.5814V14.2219C10.4328 13.1947 9.59696 12.3589 8.5697 12.3589H7.87087C7.55803 12.3589 7.30347 12.1043 7.30347 11.7915V11.4319C7.30347 11.119 7.55803 10.8645 7.87087 10.8645Z" fill="#9FCE10" stroke="#9FCE10" stroke-width="0.187723"></path><mask id="path-2-inside-1_494_29837" fill="white"><path d="M22.8005 6.01144C23.9023 7.92623 23.2432 10.3716 21.3284 11.4734C20.2675 12.0839 19.0437 12.1537 17.9758 11.769C17.4313 11.5728 16.8228 11.5122 16.3052 11.7711C15.6984 12.0745 15.3621 12.7246 15.3234 13.4019C15.1732 16.0314 13.5381 18.465 10.9311 19.5071C7.34121 20.942 3.26785 19.1951 1.83294 15.6053C0.398031 12.0155 2.14495 7.94209 5.73478 6.50718C8.57313 5.37265 11.7138 6.22723 13.6135 8.40913C13.8854 8.72138 14.319 8.85867 14.7054 8.71004C15.0898 8.5622 15.3149 8.17175 15.3406 7.7607C15.4215 6.46581 16.1298 5.23487 17.3385 4.53936C19.2533 3.43759 21.6987 4.09666 22.8005 6.01144Z"></path></mask><path d="M21.3284 11.4734L21.8272 12.3402V12.3402L21.3284 11.4734ZM22.8005 6.01144L21.9337 6.51018V6.51018L22.8005 6.01144ZM10.9311 19.5071L11.3022 20.4357H11.3022L10.9311 19.5071ZM5.73478 6.50718L5.36362 5.57861L5.73478 6.50718ZM17.3385 4.53936L17.8373 5.40612V5.40611L17.3385 4.53936ZM15.3406 7.7607L14.3425 7.69836L15.3406 7.7607ZM15.3234 13.4019L14.3251 13.3449L15.3234 13.4019ZM13.6135 8.40913L12.8593 9.06579L13.6135 8.40913ZM17.9758 11.769L18.3147 10.8282L17.9758 11.769ZM21.8272 12.3402C24.2206 10.9629 25.0445 7.90619 23.6673 5.51271L21.9337 6.51018C22.7601 7.94626 22.2658 9.78032 20.8297 10.6066L21.8272 12.3402ZM17.6368 12.7098C18.9695 13.1899 20.5008 13.1034 21.8272 12.3402L20.8297 10.6066C20.0342 11.0644 19.1179 11.1176 18.3147 10.8282L17.6368 12.7098ZM14.3251 13.3449C14.1962 15.6012 12.7931 17.6859 10.5599 18.5786L11.3022 20.4357C14.2831 19.2442 16.1503 16.4615 16.3218 13.459L14.3251 13.3449ZM10.5599 18.5786C7.48289 19.8085 3.99143 18.3111 2.76151 15.2341L0.904372 15.9765C2.54427 20.0791 7.19954 22.0756 11.3022 20.4357L10.5599 18.5786ZM2.76151 15.2341C1.53159 12.1571 3.02894 8.66567 6.10595 7.43575L5.36362 5.57861C1.26095 7.21851 -0.735525 11.8738 0.904372 15.9765L2.76151 15.2341ZM6.10595 7.43575C8.53737 6.46387 11.2301 7.19455 12.8593 9.06579L14.3677 7.75247C12.1975 5.25991 8.6089 4.28143 5.36362 5.57861L6.10595 7.43575ZM16.8398 3.6726C15.328 4.54248 14.4434 6.08278 14.3425 7.69836L16.3386 7.82304C16.3995 6.84883 16.9316 5.92726 17.8373 5.40612L16.8398 3.6726ZM23.6673 5.51271C22.29 3.11923 19.2333 2.29539 16.8398 3.67261L17.8373 5.40611C19.2734 4.57979 21.1074 5.07409 21.9337 6.51018L23.6673 5.51271ZM15.0644 9.64339C15.9012 9.32152 16.295 8.52137 16.3386 7.82304L14.3425 7.69836C14.3411 7.72071 14.3371 7.74139 14.3315 7.75892C14.3259 7.77649 14.3198 7.78792 14.3161 7.79376C14.3124 7.7994 14.3122 7.79802 14.318 7.79316C14.3243 7.78784 14.3342 7.7814 14.3464 7.7767L15.0644 9.64339ZM15.858 10.8766C14.8547 11.3783 14.3788 12.4038 14.3251 13.3449L16.3218 13.459C16.3454 13.0455 16.5422 12.7706 16.7524 12.6655L15.858 10.8766ZM12.8593 9.06579C13.3677 9.64961 14.2322 9.96346 15.0644 9.64339L14.3464 7.7767C14.3573 7.7725 14.3687 7.77045 14.3783 7.77014C14.3874 7.76985 14.3922 7.77118 14.3926 7.77129C14.3928 7.77135 14.3896 7.77042 14.3843 7.76701C14.3791 7.76364 14.3732 7.75878 14.3677 7.75247L12.8593 9.06579ZM18.3147 10.8282C17.6396 10.585 16.7191 10.4461 15.858 10.8766L16.7524 12.6655C16.9266 12.5784 17.223 12.5607 17.6368 12.7098L18.3147 10.8282Z" fill="#9FCE10" mask="url(#path-2-inside-1_494_29837)"></path><circle cx="19.333" cy="8.00684" r="1" fill="#9FCE10"></circle></svg> 