<?xml version="1.0" encoding="UTF-8"?> <svg xmlns="http://www.w3.org/2000/svg" width="52" height="14" viewBox="0 0 52 14" fill="none"><g clip-path="url(#clip0_2286_9240)"><path d="M11.382 4.46557H7.87641C7.87641 3.89106 7.80882 3.50355 7.67364 3.30754C7.46411 3.01691 6.8896 2.87046 5.94786 2.87046C5.00612 2.87046 4.4271 2.95382 4.12971 3.1228C3.83457 3.29177 3.68587 3.65675 3.68587 4.22C3.68587 4.72917 3.81654 5.06486 4.08014 5.22708C4.26939 5.34198 4.51722 5.40732 4.82813 5.42759L5.53556 5.47716C7.04957 5.57854 7.99582 5.64838 8.37432 5.68894C9.5729 5.8106 10.4403 6.12827 10.981 6.6442C11.4046 7.04748 11.6569 7.57468 11.738 8.22354C11.7853 8.6133 11.8079 9.05263 11.8079 9.54153C11.8079 10.668 11.6997 11.4949 11.4857 12.0176C11.0959 12.9773 10.2195 13.5834 8.8542 13.838C8.28194 13.9461 7.40779 14.0002 6.23173 14.0002C4.26939 14.0002 2.89958 13.883 2.12906 13.6487C1.18056 13.3603 0.556485 12.7791 0.252333 11.9004C0.0833602 11.4115 0 10.5982 0 9.45817H3.50563C3.50563 9.58434 3.50563 9.68121 3.50563 9.7488C3.50563 10.3571 3.68136 10.7469 4.02832 10.9226C4.26939 11.042 4.56228 11.1051 4.90473 11.1141H6.19343C6.8513 11.1141 7.27036 11.0803 7.4506 11.0127C7.77277 10.8866 7.98455 10.6815 8.08593 10.3999C8.14001 10.2264 8.16704 10.0011 8.16704 9.72627C8.16704 9.10896 7.94174 8.73496 7.4934 8.59978C7.32443 8.54571 6.5449 8.47362 5.14805 8.37899C4.02832 8.30014 3.24879 8.22128 2.81397 8.14694C1.6672 7.9329 0.901191 7.49132 0.520438 6.81993C0.184744 6.24993 0.0180238 5.38929 0.0180238 4.23577C0.0180238 3.35711 0.108143 2.65418 0.290634 2.12473C0.473125 1.59528 0.763759 1.192 1.16704 0.917132C1.75732 0.495825 2.51432 0.247998 3.43354 0.17365C4.19955 0.10606 5.04892 0.0722656 5.98391 0.0722656C7.4551 0.0722656 8.50274 0.157879 9.12906 0.324599C10.6543 0.734641 11.4181 1.88141 11.4181 3.7694C11.4181 3.92486 11.4068 4.15466 11.3843 4.46557H11.382Z" fill="black"></path><path d="M26.7969 14V0H33.8172C34.7792 0 35.5136 0.0788542 36.0206 0.236563C37.1741 0.599292 37.9491 1.33827 38.3456 2.458C38.5507 3.04603 38.652 3.92919 38.652 5.11201C38.652 6.53138 38.5394 7.55198 38.3141 8.1738C37.8635 9.40167 36.9375 10.1091 35.5384 10.2939C35.374 10.3209 34.6733 10.3457 33.4387 10.3659L32.8123 10.3862H30.5661V14H26.7991H26.7969ZM30.5661 7.13743H32.916C33.6617 7.1104 34.1145 7.05407 34.2768 6.96395C34.4998 6.84229 34.6485 6.59672 34.7228 6.22948C34.7702 5.98391 34.7949 5.62118 34.7949 5.13679C34.7949 4.54425 34.7476 4.10492 34.653 3.8188C34.5178 3.41777 34.1934 3.17219 33.6797 3.08433C33.5783 3.07081 33.335 3.06405 32.9498 3.06405H30.5684V7.13743H30.5661Z" fill="black"></path><path d="M46.6952 11.5803H41.6575L40.9816 14H37.084L41.2903 0H46.9746L51.2327 14H47.4161L46.6974 11.5803H46.6952ZM45.9472 8.8542L44.1809 2.78468L42.4686 8.8542H45.9472Z" fill="black"></path><path d="M21.597 1.96921C23.1515 1.96921 24.5371 2.68566 25.4495 3.80539L26.2629 2.06384C24.9922 0.863 23.2642 0.124023 21.3559 0.124023C18.3865 0.124023 15.8474 1.91739 14.8042 4.45425H13.2204L12.2854 6.4594H14.3221C14.3063 6.64639 14.2973 6.83114 14.2973 7.02039C14.2973 7.25019 14.3086 7.47774 14.3311 7.70079H13.3083L12.3733 9.70594H14.8538C15.9262 12.1797 18.4338 13.9167 21.3559 13.9167C22.8293 13.9167 24.1946 13.4752 25.3279 12.7227V10.2647C24.4177 11.3033 23.0839 11.9567 21.597 11.9567C19.8599 11.9567 18.3324 11.0622 17.4425 9.70594H22.6356L23.5706 7.70079H16.6787C16.6427 7.45972 16.6246 7.21189 16.6246 6.96181C16.6246 6.79284 16.6336 6.62386 16.6494 6.45714H24.1496L25.0846 4.45199H17.2983C18.1589 2.96503 19.763 1.96471 21.597 1.96471V1.96921Z" fill="black"></path></g><defs><clipPath id="clip0_2286_9240"><rect width="51.2327" height="14" fill="white"></rect></clipPath></defs></svg> 