<?xml version="1.0" encoding="UTF-8"?> <svg xmlns="http://www.w3.org/2000/svg" width="24" height="25" viewBox="0 0 24 25" fill="none"><path d="M6.5 2.55225H17.5V9.05225C17.5 12.0898 15.0376 14.5522 12 14.5522C8.96243 14.5522 6.5 12.0898 6.5 9.05225V2.55225Z" stroke="#9FCE10"></path><path d="M17.5 4.55225H20.5V8.55225C20.5 10.2091 19.1569 11.5522 17.5 11.5522H17" stroke="#9FCE10" stroke-linecap="round" stroke-linejoin="round"></path><path d="M6.5 4.55225H3.5V8.55225C3.5 10.2091 4.84315 11.5522 6.5 11.5522H7" stroke="#9FCE10" stroke-linecap="round" stroke-linejoin="round"></path><path d="M10.5 14.0522V19.0522M13.5 14.0522V19.0522" stroke="#9FCE10"></path><path d="M7.5 20.0522C7.5 19.7761 7.72386 19.5522 8 19.5522H16C16.2761 19.5522 16.5 19.7761 16.5 20.0522V21.5522H7.5V20.0522Z" stroke="#9FCE10"></path><rect x="3" y="21.0522" width="18" height="1" fill="#9FCE10"></rect></svg> 