<?xml version="1.0" encoding="UTF-8"?> <svg xmlns="http://www.w3.org/2000/svg" width="24" height="24" viewBox="0 0 24 24" fill="none"><g clip-path="url(#clip0_2082_40)"><mask id="mask0_2082_40" style="mask-type:luminance" maskUnits="userSpaceOnUse" x="0" y="0" width="24" height="24"><path d="M24 0H0V24H24V0Z" fill="white"></path></mask><g mask="url(#mask0_2082_40)"><path fill-rule="evenodd" clip-rule="evenodd" d="M12 24C18.6274 24 24 18.6274 24 12C24 5.37258 18.6274 0 12 0C5.37258 0 0 5.37258 0 12C0 18.6274 5.37258 24 12 24Z" fill="white"></path><path fill-rule="evenodd" clip-rule="evenodd" d="M7.99875 23.3167C3.33863 21.669 0 17.2244 0 12C0 6.77555 3.33863 2.33093 7.99875 0.683228V23.3167Z" fill="#009246"></path><path fill-rule="evenodd" clip-rule="evenodd" d="M23.9997 11.9726V12.0273C23.9881 17.2399 20.653 21.6719 16.001 23.3167V0.683228C20.653 2.32804 23.9881 6.76004 23.9997 11.9726Z" fill="#CE2B37"></path><g clip-path="url(#clip1_2082_40)"><path d="M24 12C24 10.5321 23.736 9.12602 23.2536 7.82609L12 7.30432L0.746391 7.82604C0.264047 9.12602 0 10.5321 0 12C0 13.4678 0.264047 14.8739 0.746391 16.1739L12 16.6956L23.2536 16.1739C23.736 14.8739 24 13.4678 24 12Z" fill="#F0F0F0"></path><path d="M12.0002 24.0001C17.1598 24.0001 21.5583 20.7436 23.2538 16.174H0.746582C2.4421 20.7436 6.84061 24.0001 12.0002 24.0001Z" fill="#0052B4"></path><path d="M0.746582 7.82611H23.2538C21.5583 3.2565 17.1598 0 12.0002 0C6.84061 0 2.4421 3.2565 0.746582 7.82611V7.82611Z" fill="#D80027"></path><path d="M15.1304 8.3479H13.0435L13.3913 5.73916L14.7826 4.69568L16.1739 5.73916V7.82613L15.1304 8.3479Z" fill="#338AF3"></path><path d="M8.86961 8.3479H10.9566L10.6087 5.73916L9.21742 4.69568L7.82617 5.73916V7.82613L8.86961 8.3479Z" fill="#338AF3"></path><path d="M13.3916 8.3479H10.6089V5.73916L12.0002 4.69568L13.3916 5.73916V8.3479Z" fill="#0052B4"></path><path d="M7.82617 7.82617V13.5653C7.82617 14.9318 8.48627 16.1471 9.50439 16.909L10.2348 16.7262L11.1566 17.6535C11.4292 17.7096 11.7112 17.7392 12.0001 17.7392C12.2875 17.7392 12.5681 17.71 12.8392 17.6544L13.8914 16.7783L14.4957 16.9073C15.5134 16.1455 16.174 14.9314 16.174 13.5653V7.82617H7.82617Z" fill="#F0F0F0"></path><path d="M7.82617 7.82605H9.49572V9.4956H7.82617V7.82605Z" fill="#D80027"></path><path d="M11.165 7.82605H12.8346V9.4956H11.165V7.82605Z" fill="#D80027"></path><path d="M14.5044 7.82605H16.1739V9.4956H14.5044V7.82605Z" fill="#D80027"></path><path d="M9.49561 9.49561H11.1652V11.1652H9.49561V9.49561Z" fill="#D80027"></path><path d="M12.835 9.49561H14.5045V11.1652H12.835V9.49561Z" fill="#D80027"></path><path d="M7.82617 11.1647H9.49572V12.8342H7.82617V11.1647Z" fill="#D80027"></path><path d="M9.49561 12.8342H11.1652V14.5038H9.49561V12.8342Z" fill="#D80027"></path><path d="M11.165 11.1647H12.8346V12.8342H11.165V11.1647Z" fill="#D80027"></path><path d="M14.5044 11.1647H16.1739V12.8342H14.5044V11.1647Z" fill="#D80027"></path><path d="M12.835 12.8342H14.5045V14.5038H12.835V12.8342Z" fill="#D80027"></path><path d="M11.165 14.5038H12.8346V16.1733H11.165V14.5038Z" fill="#D80027"></path><path d="M9.49591 14.5039H7.93408C8.07733 15.1245 8.35896 15.6924 8.74511 16.1735H9.49591V14.5039Z" fill="#D80027"></path><path d="M14.5044 16.1735H15.2551C15.6414 15.6924 15.9229 15.1245 16.0662 14.5039H14.5044V16.1735Z" fill="#D80027"></path><path d="M9.49561 16.1735V16.9019C9.98118 17.2673 10.5487 17.5293 11.1652 17.655V16.1735H9.49561Z" fill="#D80027"></path><path d="M12.835 16.1735V17.655C13.4515 17.5294 14.0189 17.2673 14.5045 16.9019V16.1735H12.835Z" fill="#D80027"></path></g><path fill-rule="evenodd" clip-rule="evenodd" d="M12 23.3C18.2408 23.3 23.3 18.2408 23.3 12C23.3 5.75918 18.2408 0.7 12 0.7C5.75918 0.7 0.7 5.75918 0.7 12C0.7 18.2408 5.75918 23.3 12 23.3ZM12 24C18.6274 24 24 18.6274 24 12C24 5.37258 18.6274 0 12 0C5.37258 0 0 5.37258 0 12C0 18.6274 5.37258 24 12 24Z" fill="#D9D9D9"></path></g></g><defs><clipPath id="clip0_2082_40"><rect width="24" height="24" fill="white"></rect></clipPath><clipPath id="clip1_2082_40"><rect width="24" height="24" fill="white"></rect></clipPath></defs></svg> 