<?xml version="1.0" encoding="UTF-8"?> <svg xmlns="http://www.w3.org/2000/svg" width="24" height="25" viewBox="0 0 24 25" fill="none"><path d="M10.1403 23.4177C10.079 23.4932 10.0119 23.5546 9.94122 23.603C9.8116 23.6991 9.65117 23.7559 9.47746 23.7559C9.18823 23.7559 8.93578 23.5984 8.80114 23.3645C8.7425 23.2649 8.7057 23.149 8.69888 23.0208L10.1403 23.4177ZM10.1403 23.4177L18.3892 13.6851L10.1403 23.4177ZM15.0842 2.44766L15.0989 2.43121L15.1123 2.41369C15.1501 2.36425 15.2078 2.33414 15.2728 2.33414C15.3818 2.33414 15.4708 2.4208 15.4743 2.52867L15.4747 2.54254L15.4752 2.54787L14.2462 11.8709L14.1739 12.4195L14.7188 12.5159L17.9381 13.0853C17.9434 13.0865 17.9483 13.0878 17.9527 13.0891L17.9656 13.0928L17.9787 13.096C18.0102 13.1036 18.0331 13.1328 18.0331 13.1659C18.0331 13.1823 18.0283 13.1959 18.0198 13.2076L18.004 13.2295L17.9902 13.2529C17.9801 13.27 17.9665 13.2895 17.9485 13.3108L17.9481 13.3112L9.69918 23.0438L9.69909 23.0438L9.69169 23.0529C9.66391 23.087 9.63732 23.1103 9.61407 23.1262L9.60541 23.1321L9.59698 23.1384C9.56357 23.1631 9.52305 23.1776 9.47746 23.1776C9.40342 23.1776 9.33797 23.138 9.30231 23.076L9.30233 23.076L9.29947 23.0712C9.28742 23.0507 9.27819 23.0248 9.27635 22.9901L9.27624 22.9881C9.27602 22.9842 9.2759 22.9802 9.2759 22.976C9.2759 22.9695 9.27619 22.9632 9.27674 22.9572L9.27701 22.954L9.27828 22.9417L9.27828 22.9417L10.3948 13.8728L10.4619 13.3283L9.92163 13.2327L6.67575 12.6586L6.6585 12.6555L6.64111 12.6535C6.60594 12.6495 6.57828 12.6187 6.57828 12.5822C6.57828 12.5684 6.58165 12.5571 6.5872 12.5473L6.59573 12.5322L6.60335 12.5166C6.61327 12.4964 6.62861 12.4721 6.65216 12.4453L6.65225 12.4454L6.66008 12.4361L15.0783 2.4545L15.079 2.45375L15.0842 2.44766Z" stroke="#9FCE10" stroke-width="1.15655"></path></svg> 