<?xml version="1.0" encoding="UTF-8"?> <svg xmlns="http://www.w3.org/2000/svg" width="87" height="35" viewBox="0 0 87 35" fill="none"><path d="M1 28.8068L3.19557 33L7.74354 29.5507L10.8801 31.1063C12.5006 28.3784 15.8358 22.9497 16.2122 23.058C16.5886 23.1662 17.9373 26.7552 18.5646 28.5362L21.5443 19.2609L26.4059 16.6232L28.7583 17.6377L31.8948 28.8647C32.679 26.0241 34.2786 20.3836 34.4041 20.5459C34.5295 20.7082 35.8155 22.5974 36.4428 23.5217L40.5203 24.401L47.8958 20.5459C50.5619 19.7118 54.8542 28.8647 55.1052 28.8647C55.3561 28.8647 57.8235 28.2335 59.0258 27.9179L64.9852 20.0048L68.4354 17.6377L70.1605 20.0048H73.297L76.1199 17.029L77.845 8.57487L86 1" stroke="#B4E913" stroke-width="2"></path></svg> 