<?xml version="1.0" encoding="UTF-8"?> <svg xmlns="http://www.w3.org/2000/svg" width="11" height="12" viewBox="0 0 11 12" fill="none"><path d="M1.76 8.752C1.76 9.15733 1.84 9.44533 2 9.616C2.17067 9.776 2.39467 9.856 2.672 9.856C2.94933 9.856 3.168 9.776 3.328 9.616C3.49867 9.44533 3.584 9.15733 3.584 8.752V2.704C3.584 2.29867 3.49867 2.016 3.328 1.856C3.168 1.68533 2.94933 1.6 2.672 1.6C2.39467 1.6 2.17067 1.68533 2 1.856C1.84 2.016 1.76 2.29867 1.76 2.704V8.752ZM0 2.816C0 1.90933 0.229333 1.216 0.688 0.735999C1.14667 0.245333 1.808 0 2.672 0C3.536 0 4.19733 0.245333 4.656 0.735999C5.11467 1.216 5.344 1.90933 5.344 2.816V8.64C5.344 9.54667 5.11467 10.2453 4.656 10.736C4.19733 11.216 3.536 11.456 2.672 11.456C1.808 11.456 1.14667 11.216 0.688 10.736C0.229333 10.2453 0 9.54667 0 8.64V2.816Z" fill="white"></path><path d="M7.57575 1.536C7.91708 1.536 8.19442 1.49867 8.40775 1.424C8.63175 1.34933 8.81308 1.248 8.95175 1.12C9.09042 0.992 9.20242 0.842666 9.28775 0.672C9.37308 0.501333 9.44775 0.319999 9.51175 0.127999H10.6958V11.328H8.93575V2.784H7.57575V1.536Z" fill="white"></path></svg> 