<?xml version="1.0" encoding="UTF-8"?> <svg xmlns="http://www.w3.org/2000/svg" width="116" height="20" viewBox="0 0 116 20" fill="none"><path d="M9.60404 1.91249C9.64056 1.83871 9.69697 1.7766 9.76692 1.73318C9.83686 1.68976 9.91755 1.66675 9.99987 1.66675C10.0822 1.66675 10.1629 1.68976 10.2328 1.73318C10.3028 1.7766 10.3592 1.83871 10.3957 1.91249L12.3207 5.81166C12.4475 6.0683 12.6347 6.29033 12.8662 6.4587C13.0977 6.62707 13.3666 6.73675 13.6499 6.77833L17.9549 7.40833C18.0364 7.42015 18.1131 7.45455 18.1761 7.50766C18.2391 7.56076 18.2861 7.63045 18.3116 7.70883C18.337 7.78721 18.3401 7.87116 18.3204 7.95119C18.3006 8.03121 18.2589 8.10412 18.1999 8.16166L15.0865 11.1933C14.8812 11.3934 14.7276 11.6404 14.6389 11.913C14.5502 12.1856 14.5291 12.4757 14.5774 12.7583L15.3124 17.0417C15.3268 17.1232 15.318 17.2071 15.287 17.2839C15.2559 17.3607 15.204 17.4272 15.137 17.4758C15.07 17.5245 14.9907 17.5533 14.9081 17.5591C14.8255 17.5648 14.743 17.5472 14.6699 17.5083L10.8215 15.485C10.568 15.3518 10.2859 15.2823 9.99946 15.2823C9.71306 15.2823 9.43094 15.3518 9.17737 15.485L5.32987 17.5083C5.25681 17.547 5.17437 17.5644 5.09191 17.5585C5.00946 17.5527 4.9303 17.5238 4.86345 17.4752C4.7966 17.4266 4.74473 17.3601 4.71375 17.2835C4.68277 17.2069 4.67392 17.1231 4.68821 17.0417L5.42237 12.7592C5.47087 12.4764 5.44986 12.1862 5.36115 11.9134C5.27245 11.6406 5.11871 11.3935 4.91321 11.1933L1.79987 8.16249C1.74037 8.10502 1.6982 8.03199 1.67817 7.95172C1.65815 7.87145 1.66107 7.78717 1.6866 7.70849C1.71214 7.6298 1.75926 7.55986 1.8226 7.50665C1.88594 7.45343 1.96296 7.41907 2.04487 7.40749L6.34904 6.77833C6.63259 6.73708 6.90186 6.62754 7.13369 6.45915C7.36552 6.29076 7.55296 6.06855 7.67987 5.81166L9.60404 1.91249Z" fill="#B4E913" stroke="#B4E913" stroke-width="1.66667" stroke-linecap="round" stroke-linejoin="round"></path><path d="M33.604 1.91249C33.6406 1.83871 33.697 1.7766 33.7669 1.73318C33.8369 1.68976 33.9175 1.66675 33.9999 1.66675C34.0822 1.66675 34.1629 1.68976 34.2328 1.73318C34.3028 1.7766 34.3592 1.83871 34.3957 1.91249L36.3207 5.81166C36.4475 6.0683 36.6347 6.29033 36.8662 6.4587C37.0977 6.62707 37.3666 6.73675 37.6499 6.77833L41.9549 7.40833C42.0364 7.42015 42.1131 7.45455 42.1761 7.50766C42.2391 7.56076 42.2861 7.63045 42.3116 7.70883C42.337 7.78721 42.3401 7.87116 42.3204 7.95119C42.3006 8.03121 42.2589 8.10412 42.1999 8.16166L39.0865 11.1933C38.8812 11.3934 38.7276 11.6404 38.6389 11.913C38.5502 12.1856 38.5291 12.4757 38.5774 12.7583L39.3124 17.0417C39.3268 17.1232 39.318 17.2071 39.287 17.2839C39.2559 17.3607 39.204 17.4272 39.137 17.4758C39.07 17.5245 38.9907 17.5533 38.9081 17.5591C38.8255 17.5648 38.743 17.5472 38.6699 17.5083L34.8215 15.485C34.568 15.3518 34.2859 15.2823 33.9995 15.2823C33.7131 15.2823 33.4309 15.3518 33.1774 15.485L29.3299 17.5083C29.2568 17.547 29.1744 17.5644 29.0919 17.5585C29.0095 17.5527 28.9303 17.5238 28.8635 17.4752C28.7966 17.4266 28.7447 17.3601 28.7138 17.2835C28.6828 17.2069 28.6739 17.1231 28.6882 17.0417L29.4224 12.7592C29.4709 12.4764 29.4499 12.1862 29.3612 11.9134C29.2724 11.6406 29.1187 11.3935 28.9132 11.1933L25.7999 8.16249C25.7404 8.10502 25.6982 8.03199 25.6782 7.95172C25.6581 7.87145 25.6611 7.78717 25.6866 7.70849C25.7121 7.6298 25.7593 7.55986 25.8226 7.50665C25.8859 7.45343 25.963 7.41907 26.0449 7.40749L30.349 6.77833C30.6326 6.73708 30.9019 6.62754 31.1337 6.45915C31.3655 6.29076 31.553 6.06855 31.6799 5.81166L33.604 1.91249Z" fill="#B4E913" stroke="#B4E913" stroke-width="1.66667" stroke-linecap="round" stroke-linejoin="round"></path><path d="M57.604 1.91249C57.6406 1.83871 57.697 1.7766 57.7669 1.73318C57.8369 1.68976 57.9175 1.66675 57.9999 1.66675C58.0822 1.66675 58.1629 1.68976 58.2328 1.73318C58.3028 1.7766 58.3592 1.83871 58.3957 1.91249L60.3207 5.81166C60.4475 6.0683 60.6347 6.29033 60.8662 6.4587C61.0977 6.62707 61.3666 6.73675 61.6499 6.77833L65.9549 7.40833C66.0364 7.42015 66.1131 7.45455 66.1761 7.50766C66.2391 7.56076 66.2861 7.63045 66.3116 7.70883C66.337 7.78721 66.3401 7.87116 66.3204 7.95119C66.3006 8.03121 66.2589 8.10412 66.1999 8.16166L63.0865 11.1933C62.8812 11.3934 62.7276 11.6404 62.6389 11.913C62.5502 12.1856 62.5291 12.4757 62.5774 12.7583L63.3124 17.0417C63.3268 17.1232 63.318 17.2071 63.287 17.2839C63.2559 17.3607 63.204 17.4272 63.137 17.4758C63.07 17.5245 62.9907 17.5533 62.9081 17.5591C62.8255 17.5648 62.743 17.5472 62.6699 17.5083L58.8215 15.485C58.568 15.3518 58.2859 15.2823 57.9995 15.2823C57.7131 15.2823 57.4309 15.3518 57.1774 15.485L53.3299 17.5083C53.2568 17.547 53.1744 17.5644 53.0919 17.5585C53.0095 17.5527 52.9303 17.5238 52.8635 17.4752C52.7966 17.4266 52.7447 17.3601 52.7138 17.2835C52.6828 17.2069 52.6739 17.1231 52.6882 17.0417L53.4224 12.7592C53.4709 12.4764 53.4499 12.1862 53.3612 11.9134C53.2724 11.6406 53.1187 11.3935 52.9132 11.1933L49.7999 8.16249C49.7404 8.10502 49.6982 8.03199 49.6782 7.95172C49.6581 7.87145 49.6611 7.78717 49.6866 7.70849C49.7121 7.6298 49.7593 7.55986 49.8226 7.50665C49.8859 7.45343 49.963 7.41907 50.0449 7.40749L54.349 6.77833C54.6326 6.73708 54.9019 6.62754 55.1337 6.45915C55.3655 6.29076 55.553 6.06855 55.6799 5.81166L57.604 1.91249Z" fill="#B4E913" stroke="#B4E913" stroke-width="1.66667" stroke-linecap="round" stroke-linejoin="round"></path><path d="M81.604 1.91249C81.6406 1.83871 81.697 1.7766 81.7669 1.73318C81.8369 1.68976 81.9175 1.66675 81.9999 1.66675C82.0822 1.66675 82.1629 1.68976 82.2328 1.73318C82.3028 1.7766 82.3592 1.83871 82.3957 1.91249L84.3207 5.81166C84.4475 6.0683 84.6347 6.29033 84.8662 6.4587C85.0977 6.62707 85.3666 6.73675 85.6499 6.77833L89.9549 7.40833C90.0364 7.42015 90.1131 7.45455 90.1761 7.50766C90.2391 7.56076 90.2861 7.63045 90.3116 7.70883C90.337 7.78721 90.3401 7.87116 90.3204 7.95119C90.3006 8.03121 90.2589 8.10412 90.1999 8.16166L87.0865 11.1933C86.8812 11.3934 86.7276 11.6404 86.6389 11.913C86.5502 12.1856 86.5291 12.4757 86.5774 12.7583L87.3124 17.0417C87.3268 17.1232 87.318 17.2071 87.287 17.2839C87.2559 17.3607 87.204 17.4272 87.137 17.4758C87.07 17.5245 86.9907 17.5533 86.9081 17.5591C86.8255 17.5648 86.743 17.5472 86.6699 17.5083L82.8215 15.485C82.568 15.3518 82.2859 15.2823 81.9995 15.2823C81.7131 15.2823 81.4309 15.3518 81.1774 15.485L77.3299 17.5083C77.2568 17.547 77.1744 17.5644 77.0919 17.5585C77.0095 17.5527 76.9303 17.5238 76.8635 17.4752C76.7966 17.4266 76.7447 17.3601 76.7138 17.2835C76.6828 17.2069 76.6739 17.1231 76.6882 17.0417L77.4224 12.7592C77.4709 12.4764 77.4499 12.1862 77.3612 11.9134C77.2724 11.6406 77.1187 11.3935 76.9132 11.1933L73.7999 8.16249C73.7404 8.10502 73.6982 8.03199 73.6782 7.95172C73.6581 7.87145 73.6611 7.78717 73.6866 7.70849C73.7121 7.6298 73.7593 7.55986 73.8226 7.50665C73.8859 7.45343 73.963 7.41907 74.0449 7.40749L78.349 6.77833C78.6326 6.73708 78.9019 6.62754 79.1337 6.45915C79.3655 6.29076 79.553 6.06855 79.6799 5.81166L81.604 1.91249Z" fill="#B4E913" stroke="#B4E913" stroke-width="1.66667" stroke-linecap="round" stroke-linejoin="round"></path><path d="M105.604 1.91249C105.641 1.83871 105.697 1.7766 105.767 1.73318C105.837 1.68976 105.918 1.66675 106 1.66675C106.082 1.66675 106.163 1.68976 106.233 1.73318C106.303 1.7766 106.359 1.83871 106.396 1.91249L108.321 5.81166C108.448 6.0683 108.635 6.29033 108.866 6.4587C109.098 6.62707 109.367 6.73675 109.65 6.77833L113.955 7.40833C114.036 7.42015 114.113 7.45455 114.176 7.50766C114.239 7.56076 114.286 7.63045 114.312 7.70883C114.337 7.78721 114.34 7.87116 114.32 7.95119C114.301 8.03121 114.259 8.10412 114.2 8.16166L111.087 11.1933C110.881 11.3934 110.728 11.6404 110.639 11.913C110.55 12.1856 110.529 12.4757 110.577 12.7583L111.312 17.0417C111.327 17.1232 111.318 17.2071 111.287 17.2839C111.256 17.3607 111.204 17.4272 111.137 17.4758C111.07 17.5245 110.991 17.5533 110.908 17.5591C110.826 17.5648 110.743 17.5472 110.67 17.5083L106.822 15.485C106.568 15.3518 106.286 15.2823 105.999 15.2823C105.713 15.2823 105.431 15.3518 105.177 15.485L101.33 17.5083C101.257 17.547 101.174 17.5644 101.092 17.5585C101.009 17.5527 100.93 17.5238 100.863 17.4752C100.797 17.4266 100.745 17.3601 100.714 17.2835C100.683 17.2069 100.674 17.1231 100.688 17.0417L101.422 12.7592C101.471 12.4764 101.45 12.1862 101.361 11.9134C101.272 11.6406 101.119 11.3935 100.913 11.1933L97.7999 8.16249C97.7404 8.10502 97.6982 8.03199 97.6782 7.95172C97.6581 7.87145 97.6611 7.78717 97.6866 7.70849C97.7121 7.6298 97.7593 7.55986 97.8226 7.50665C97.8859 7.45343 97.963 7.41907 98.0449 7.40749L102.349 6.77833C102.633 6.73708 102.902 6.62754 103.134 6.45915C103.366 6.29076 103.553 6.06855 103.68 5.81166L105.604 1.91249Z" fill="#B4E913" stroke="#B4E913" stroke-width="1.66667" stroke-linecap="round" stroke-linejoin="round"></path></svg> 