<?xml version="1.0" encoding="UTF-8"?> <svg xmlns="http://www.w3.org/2000/svg" width="48" height="24" viewBox="0 0 48 24" fill="none"><g clip-path="url(#clip0_78_27027)"><path d="M10.1951 15.848C10.1951 17.1702 10.4831 18.1852 10.8599 18.7993C11.3537 19.6037 12.0902 19.9452 12.8412 19.9452C13.8095 19.9452 14.6955 19.7031 16.4029 17.3248C17.771 15.4187 19.3825 12.7431 20.4669 11.0657L22.3034 8.22383C23.5792 6.25023 25.0558 4.05632 26.7489 2.5692C28.1314 1.35533 29.622 0.68103 31.1226 0.68103C33.6419 0.68103 36.0415 2.15133 37.878 4.90888C39.8879 7.92881 40.8635 11.7328 40.8635 15.6583C40.8635 17.992 40.4068 19.7067 39.6296 21.0614C38.8788 22.3714 37.4153 23.6804 34.9534 23.6804V19.9446C37.0614 19.9446 37.5874 17.9938 37.5874 15.7613C37.5874 12.5799 36.8509 9.04941 35.2284 6.52669C34.0771 4.73729 32.5849 3.64396 30.9433 3.64396C29.1676 3.64396 27.7388 4.99286 26.133 7.39723C25.2793 8.67491 24.4029 10.2318 23.4189 11.9887L22.3356 13.9214C20.1597 17.8078 19.6084 18.6926 18.5204 20.1529C16.6134 22.7103 14.9849 23.6799 12.8412 23.6799C10.2979 23.6799 8.68982 22.5707 7.69379 20.8994C6.88081 19.5376 6.48145 17.7505 6.48145 15.7144L10.1951 15.848Z" fill="#0081FB"></path><path d="M9.41016 5.17196C11.1127 2.52884 13.5698 0.68042 16.388 0.68042C18.02 0.68042 19.6428 1.16689 21.3368 2.56017C23.19 4.08312 25.1652 6.59236 27.6295 10.7261L28.513 12.2091C30.6461 15.7879 31.8596 17.6291 32.5699 18.4973C33.4833 19.6123 34.123 19.9447 34.954 19.9447C37.062 19.9447 37.5879 17.9939 37.5879 15.7614L40.8641 15.6578C40.8641 17.9916 40.4074 19.7063 39.6301 21.0609C38.8793 22.371 37.4158 23.68 34.954 23.68C33.4235 23.68 32.0677 23.3452 30.5683 21.9206C29.4162 20.8273 28.0682 18.885 27.0315 17.139L23.9479 11.9515C22.4009 9.34817 20.9812 7.40706 20.1603 6.52796C19.2766 5.58257 18.1407 4.44109 16.3281 4.44109C14.8611 4.44109 13.6152 5.47785 12.5727 7.06375L9.41016 5.17196Z" fill="url(#paint0_linear_78_27027)"></path><path d="M16.3275 4.44109C14.8606 4.44109 13.6147 5.47785 12.5721 7.06375C11.0978 9.30466 10.1958 12.6425 10.1958 15.848C10.1958 17.1702 10.4839 18.1852 10.8606 18.7993L7.69379 20.8994C6.88081 19.5376 6.48145 17.7505 6.48145 15.7144C6.48145 12.0116 7.49058 8.15229 9.40963 5.17196C11.1122 2.52884 13.5693 0.68042 16.3875 0.68042L16.3275 4.44109Z" fill="url(#paint1_linear_78_27027)"></path></g><defs><linearGradient id="paint0_linear_78_27027" x1="13.9352" y1="11.5841" x2="37.6098" y2="12.7714" gradientUnits="userSpaceOnUse"><stop stop-color="#0064E1"></stop><stop offset="0.4" stop-color="#0064E1"></stop><stop offset="0.83" stop-color="#0073EE"></stop><stop offset="1" stop-color="#0082FB"></stop></linearGradient><linearGradient id="paint1_linear_78_27027" x1="11.4344" y1="17.4182" x2="11.4344" y2="8.62789" gradientUnits="userSpaceOnUse"><stop stop-color="#0082FB"></stop><stop offset="1" stop-color="#0064E0"></stop></linearGradient><clipPath id="clip0_78_27027"><rect width="47.1851" height="23" fill="white" transform="translate(0.0800781 0.68042)"></rect></clipPath></defs></svg> 