<?xml version="1.0" encoding="UTF-8"?> <svg xmlns="http://www.w3.org/2000/svg" width="24" height="24" viewBox="0 0 24 24" fill="none"><path d="M6 6V2" stroke="#9FCE10" stroke-linecap="round" stroke-linejoin="round"></path><path d="M15 6V2" stroke="#9FCE10" stroke-linecap="round" stroke-linejoin="round"></path><circle cx="6" cy="10" r="1" fill="#9FCE10"></circle><circle cx="9" cy="10" r="1" fill="#9FCE10"></circle><circle cx="12" cy="10" r="1" fill="#9FCE10"></circle><circle cx="15" cy="10" r="1" fill="#9FCE10"></circle><circle cx="6" cy="13" r="1" fill="#9FCE10"></circle><circle cx="9" cy="13" r="1" fill="#9FCE10"></circle><circle cx="12" cy="13" r="1" fill="#9FCE10"></circle><circle cx="15" cy="13" r="1" fill="#9FCE10"></circle><circle cx="6" cy="16" r="1" fill="#9FCE10"></circle><circle cx="9" cy="16" r="1" fill="#9FCE10"></circle><circle cx="12" cy="16" r="1" fill="#9FCE10"></circle><path d="M12 10H15" stroke="#9FCE10" stroke-linecap="round" stroke-linejoin="round"></path><path d="M6 13H12" stroke="#9FCE10" stroke-linecap="round" stroke-linejoin="round"></path><circle cx="17" cy="18" r="4.5" stroke="#9FCE10"></circle><path fill-rule="evenodd" clip-rule="evenodd" d="M5 5H16C17.1046 5 18 5.89543 18 7V13.1C18.3478 13.1706 18.6825 13.2773 19 13.416V7C19 5.34315 17.6569 4 16 4H5C3.34315 4 2 5.34315 2 7V17C2 18.6569 3.34315 20 5 20H12.416C12.2773 19.6825 12.1706 19.3478 12.1 19H5C3.89543 19 3 18.1046 3 17V7C3 5.89543 3.89543 5 5 5Z" fill="#9FCE10"></path><path d="M16.6706 16.4699H17.1698C17.3932 16.4699 17.5751 16.6517 17.5751 16.8752C17.5751 17.1307 17.7822 17.3379 18.0378 17.3379C18.2933 17.3379 18.5005 17.1307 18.5005 16.8752C18.5005 16.214 18.0157 15.6641 17.3829 15.5618V15.4627C17.3829 15.2072 17.1758 15 16.9202 15C16.6647 15 16.4575 15.2072 16.4575 15.4627V15.5618C15.8247 15.6641 15.3398 16.214 15.3398 16.8752V17.132C15.3398 17.8658 15.9368 18.4628 16.6706 18.4628H17.1698C17.3932 18.4628 17.5751 18.6446 17.5751 18.868V19.1248C17.5751 19.3483 17.3932 19.5301 17.1698 19.5301H16.6706C16.4471 19.5301 16.2653 19.3483 16.2653 19.1248V19.1009C16.2653 18.8453 16.0581 18.6382 15.8026 18.6382C15.547 18.6382 15.3398 18.8453 15.3398 19.1009V19.1248C15.3398 19.786 15.8247 20.336 16.4575 20.4383V20.5373C16.4575 20.7928 16.6647 21 16.9202 21C17.1758 21 17.3829 20.7928 17.3829 20.5373V20.4383C18.0157 20.3359 18.5005 19.786 18.5005 19.1248V18.868C18.5005 18.1343 17.9035 17.5373 17.1698 17.5373H16.6706C16.4471 17.5373 16.2653 17.3555 16.2653 17.132V16.8752C16.2653 16.6517 16.4471 16.4699 16.6706 16.4699Z" fill="#9FCE10" stroke="#9FCE10" stroke-width="0.134088"></path></svg> 