<?xml version="1.0" encoding="UTF-8"?> <svg xmlns="http://www.w3.org/2000/svg" width="26" height="26" viewBox="0 0 26 26" fill="none"><path d="M1.12883 6.79249C0.333244 10.6012 3.33221 15.135 7.09861 18.9013C10.8651 22.6678 15.3988 25.6668 19.2075 24.8712C22.3398 24.2168 23.9389 22.5483 24.8389 21.1266C25.1494 20.636 24.9926 19.9993 24.5272 19.6521L20.1199 16.3646C19.6447 16.0101 18.9812 16.0581 18.562 16.4774L16.2226 18.8167C16.2226 18.8167 13.9487 18.0775 10.9355 15.0644C7.92244 12.0514 7.18328 9.7774 7.18328 9.7774L9.52266 7.43803C9.9419 7.01879 9.98992 6.3554 9.63542 5.88015L6.34789 1.47276C6.00074 1.00736 5.36396 0.850622 4.87338 1.16115C3.45163 2.06109 1.78313 3.66019 1.12883 6.79249Z" stroke="#9FCE10" stroke-linecap="round" stroke-linejoin="round"></path></svg> 