<?xml version="1.0" encoding="UTF-8"?> <svg xmlns="http://www.w3.org/2000/svg" width="20" height="17" viewBox="0 0 20 17" fill="none"><path fill-rule="evenodd" clip-rule="evenodd" d="M17.4709 0.113906C17.7106 0.0130483 17.9728 -0.0217367 18.2305 0.0131707C18.4881 0.0480781 18.7317 0.151402 18.9358 0.312388C19.14 0.473374 19.2973 0.686137 19.3913 0.928531C19.4853 1.17093 19.5126 1.43409 19.4704 1.69063L17.2712 15.0308C17.0578 16.3175 15.646 17.0555 14.4658 16.4145C13.4787 15.8783 12.0125 15.0521 10.6937 14.19C10.0343 13.7585 8.01444 12.3767 8.26268 11.3934C8.47601 10.5527 11.87 7.39342 13.8093 5.51512C14.5706 4.77718 14.2234 4.35148 13.3245 5.03027C11.0913 6.7156 7.50825 9.27851 6.32328 9.99997C5.27795 10.6361 4.73298 10.7447 4.08135 10.6361C2.8925 10.4383 1.78995 10.1318 0.890073 9.75851C-0.325927 9.25427 -0.266775 7.58251 0.889103 7.09572L17.4709 0.113906Z" fill="#636571"></path></svg> 