<?xml version="1.0" encoding="UTF-8"?> <svg xmlns="http://www.w3.org/2000/svg" width="24" height="24" viewBox="0 0 24 24" fill="none"><path d="M7.58087 11.9564C7.06985 11.9564 6.62213 11.8814 6.23769 11.7314C5.85795 11.5767 5.5579 11.361 5.33755 11.0844C5.12189 10.8078 5.00938 10.489 5 10.128H6.16737C6.20019 10.414 6.34083 10.6414 6.58931 10.8101C6.84248 10.9742 7.18003 11.0563 7.60197 11.0563C8.00047 11.0563 8.30286 10.993 8.50914 10.8664C8.72011 10.7398 8.8256 10.5734 8.8256 10.3671C8.8256 10.2452 8.79278 10.1421 8.72714 10.0577C8.6662 9.97328 8.55837 9.90295 8.40366 9.84669C8.25363 9.78575 8.04266 9.74355 7.77075 9.72011L7.03235 9.64979C6.36193 9.58884 5.86732 9.42475 5.54852 9.15752C5.22972 8.8903 5.07032 8.53633 5.07032 8.09564C5.07032 7.75809 5.16643 7.46976 5.35865 7.23066C5.55556 6.98687 5.82982 6.79934 6.18143 6.66807C6.53305 6.5368 6.94796 6.47117 7.42616 6.47117C7.90436 6.47117 8.32161 6.54383 8.67792 6.68917C9.03891 6.82982 9.32255 7.02907 9.52883 7.28692C9.73511 7.54008 9.84763 7.83779 9.86639 8.18003H8.70605C8.67792 7.94562 8.55837 7.7534 8.3474 7.60338C8.13643 7.44866 7.82466 7.37131 7.4121 7.37131C7.03235 7.37131 6.74168 7.43226 6.54008 7.55415C6.34318 7.67604 6.24473 7.84248 6.24473 8.05345C6.24473 8.1519 6.27286 8.24332 6.32911 8.32771C6.38537 8.40741 6.48383 8.47304 6.62447 8.52461C6.76512 8.57618 6.95734 8.61369 7.20113 8.63713L8.00281 8.70745C8.4857 8.74965 8.87248 8.83638 9.16315 8.96765C9.45851 9.09423 9.67182 9.26301 9.80309 9.47398C9.93436 9.68495 10 9.94046 10 10.2405C10 10.5734 9.90155 10.8711 9.70464 11.1336C9.50774 11.3915 9.22879 11.5931 8.86779 11.7384C8.5068 11.8837 8.07782 11.9564 7.58087 11.9564ZM7.93249 6V12.4276H7.05345V6H7.93249Z" fill="#9FCE10"></path><circle cx="7.5" cy="9.5" r="6.03571" stroke="#9FCE10" stroke-width="0.928571"></circle><path d="M15 8.5H20.5C21.0523 8.5 21.5 8.94772 21.5 9.5V20.5C21.5 21.0523 21.0523 21.5 20.5 21.5H4.5C3.94772 21.5 3.5 21.0523 3.5 20.5V16" stroke="#9FCE10"></path><rect x="14" y="16" width="5" height="1" fill="#9FCE10"></rect><rect x="14" y="18" width="5" height="1" fill="#9FCE10"></rect></svg> 