<?xml version="1.0" encoding="UTF-8"?> <svg xmlns="http://www.w3.org/2000/svg" width="18" height="18" viewBox="0 0 18 18" fill="none"><g clip-path="url(#clip0_478_60058)"><path fill-rule="evenodd" clip-rule="evenodd" d="M18 9C18 4.02944 13.9706 0 9 0C4.02944 0 0 4.02944 0 9H18Z" fill="#0038A8"></path><path fill-rule="evenodd" clip-rule="evenodd" d="M9 18C13.9706 18 18 13.9706 18 9H0C0 13.9706 4.02944 18 9 18Z" fill="#CE1126"></path><path fill-rule="evenodd" clip-rule="evenodd" d="M1.96594 14.615C0.735612 13.0757 0 11.1238 0 8.99999C0 6.87622 0.735612 4.92426 1.96594 3.38501L11.6916 8.99999L1.96594 14.615Z" fill="white"></path><path fill-rule="evenodd" clip-rule="evenodd" d="M1.90293 4.54676L1.50074 4.19238L1.60199 4.71551L1.14355 4.99676L1.6723 5.06426L1.79324 5.58457L2.02105 5.10082L2.55543 5.14582L2.16168 4.7802L2.3698 4.28801L1.90293 4.54676ZM9.86887 8.82269L9.85762 8.28832L9.53418 8.71582L9.0223 8.56113L9.32606 8.99988L9.0223 9.43863L9.53418 9.28395L9.85762 9.70863L9.86887 9.17426L10.3751 8.99988L9.86887 8.82269ZM2.02105 12.8989L1.79605 12.4152L1.67512 12.9355L1.14355 13.003L1.60199 13.2786L1.50074 13.8046L1.90574 13.4558L2.37262 13.7118L2.16449 13.2196L2.55543 12.8539L2.02105 12.8989ZM4.08355 6.33645L4.25793 6.16207L4.4323 6.33645L4.34793 7.65832L4.43512 7.66676L4.59543 6.46301L4.73605 6.60363L4.5223 7.68082C4.69668 7.71457 4.86262 7.78488 5.00605 7.88051L5.61637 6.96926H5.81887L5.07637 7.93395C5.10042 7.95191 5.12387 7.97067 5.14668 7.9902L6.01856 6.99176H6.26606V7.24207L5.27043 8.11395C5.28991 8.13583 5.30867 8.15834 5.32668 8.18145L6.29137 7.44176V7.64144L5.3773 8.25176C5.47511 8.39827 5.54297 8.56267 5.57699 8.73551L6.65699 8.52457L6.79762 8.6652L5.59105 8.82551L5.59949 8.90988L6.92137 8.82551L7.09574 8.99988L6.92137 9.17145L5.59949 9.08707C5.59949 9.11801 5.59668 9.14613 5.59105 9.17426L6.79762 9.33457L6.65418 9.4752L5.57699 9.26145C5.54324 9.43582 5.47293 9.60176 5.3773 9.7452L6.29137 10.3555V10.558L5.32668 9.81832L5.27043 9.88582L6.26606 10.7577V11.0052H6.01856L5.14387 10.0096C5.12198 10.029 5.09947 10.0478 5.07637 10.0658L5.81887 11.0305H5.61637L5.00605 10.1164C4.85955 10.2143 4.69514 10.2821 4.5223 10.3161L4.73605 11.3961L4.59262 11.5396L4.4323 10.3302L4.34793 10.3386L4.43512 11.6605L4.25793 11.8349L4.08637 11.6605L4.17074 10.3386C4.1398 10.3386 4.11168 10.3358 4.08355 10.3302L3.92324 11.5368L3.78262 11.3961L3.99637 10.3161C3.82199 10.2824 3.65605 10.2121 3.51262 10.1164L2.9023 11.0305H2.6998L3.44512 10.0658L3.3748 10.0096L2.50293 11.0052H2.25262V10.7577L3.24824 9.88582C3.22876 9.86394 3.21 9.84142 3.19199 9.81832L2.2273 10.558V10.3555L3.14137 9.7452C3.04356 9.59869 2.9757 9.43428 2.94168 9.26145L1.86168 9.4752L1.72105 9.33457L2.92762 9.17426L2.91918 9.08707L1.5973 9.17426L1.42293 8.99988L1.5973 8.82551L2.91918 8.90988C2.91918 8.88176 2.92199 8.85082 2.92762 8.82269L1.72105 8.66238L1.86449 8.52176L2.94168 8.73551C2.97543 8.56113 3.04574 8.39801 3.14137 8.25176L2.2273 7.64144V7.44176L3.19199 8.18145L3.24824 8.11113L2.25262 7.23926V6.99176H2.50012L3.3748 7.9902C3.39669 7.97072 3.4192 7.95196 3.4423 7.93395L2.6998 6.96926H2.9023L3.51262 7.88051C3.65912 7.7827 3.82353 7.71484 3.99637 7.68082L3.78262 6.60082L3.92605 6.4602L4.08637 7.66676L4.17074 7.65832L4.08355 6.33645Z" fill="#FCD116"></path><path fill-rule="evenodd" clip-rule="evenodd" d="M9 17.475C13.6806 17.475 17.475 13.6806 17.475 9C17.475 4.31939 13.6806 0.525 9 0.525C4.31939 0.525 0.525 4.31939 0.525 9C0.525 13.6806 4.31939 17.475 9 17.475ZM9 18C13.9706 18 18 13.9706 18 9C18 4.02944 13.9706 0 9 0C4.02944 0 0 4.02944 0 9C0 13.9706 4.02944 18 9 18Z" fill="#D9D9D9"></path></g><defs><clipPath id="clip0_478_60058"><rect width="18" height="18" fill="white"></rect></clipPath></defs></svg> 