<?xml version="1.0" encoding="UTF-8"?> <svg xmlns="http://www.w3.org/2000/svg" width="34" height="34" viewBox="0 0 34 34" fill="none"><g clip-path="url(#clip0_2286_9267)"><path d="M17 0C26.3889 0 34.0008 7.61113 34.001 17C34.001 26.389 26.389 34.001 17 34.001C7.61113 34.0008 0 26.3889 0 17C0.000163895 7.61123 7.61123 0.000163905 17 0ZM20.8955 5.02832C20.6126 4.88763 20.3288 5.02957 20.2578 5.3125C20.187 5.38351 20.1875 5.45433 20.1875 5.5957V6.58789C20.1877 6.87089 20.4004 7.15325 20.6123 7.29492C26.1374 9.27815 28.97 15.4415 26.916 20.8955C25.8532 23.87 23.5163 26.1365 20.6123 27.1992C20.3291 27.3409 20.1875 27.5539 20.1875 27.9082V28.8994C20.1876 29.1826 20.3292 29.3962 20.6123 29.4668C20.6834 29.4668 20.825 29.4665 20.8955 29.3965C27.6245 27.2715 31.3081 20.1158 29.1826 13.3867C27.9076 9.34944 24.7906 6.30326 20.8955 5.02832ZM13.3867 4.95898C13.3153 4.95899 13.1737 4.95908 13.1035 5.0293C6.37499 7.15446 2.6918 14.3093 4.81641 21.0381C6.09137 25.0041 9.13746 28.0502 13.1035 29.3252C13.3866 29.4665 13.6699 29.3249 13.7412 29.042C13.812 28.9716 13.8125 28.8999 13.8125 28.7588V27.7676C13.8125 27.5548 13.5989 27.2712 13.3867 27.1289C7.86202 25.1453 5.02974 18.9832 7.08398 13.5293C8.14669 10.5548 10.4828 8.28743 13.3867 7.22461C13.6699 7.08304 13.8123 6.87164 13.8125 6.51758V5.52539C13.8125 5.24213 13.67 5.0295 13.3867 4.95898ZM16.4336 8.6416C16.1504 8.6417 15.9377 8.8543 15.8672 9.20801V10.8369C13.7423 11.1202 12.3965 12.5376 12.3965 14.3086C12.3967 16.6457 13.8129 17.5654 16.7871 17.9199C18.7703 18.2738 19.4082 18.7001 19.4082 19.834C19.4079 20.9675 18.4161 21.7461 17.0703 21.7461C15.2292 21.7459 14.5911 20.9663 14.3789 19.9043C14.3083 19.6213 14.0958 19.4796 13.8838 19.4795H12.6797C12.3965 19.4795 12.1837 19.6924 12.1836 19.9756V20.0469C12.467 21.817 13.6011 23.0924 15.9385 23.4463V25.1465C15.9386 25.4296 16.1513 25.6417 16.5049 25.7129H17.5674C17.8506 25.7129 18.0632 25.5001 18.1338 25.1465V23.4463C20.2586 23.0919 21.6757 21.605 21.6758 19.6924V19.6914C21.6757 17.2122 20.1875 16.3617 17.2129 16.0078C15.088 15.7245 14.6621 15.1576 14.6621 14.166C14.6623 13.1748 15.3711 12.5373 16.7871 12.5371C18.062 12.5371 18.7705 12.9626 19.125 14.0254C19.1963 14.2378 19.4086 14.3788 19.6211 14.3789H20.7549C21.038 14.3787 21.251 14.1654 21.251 13.8828V13.8115C20.9675 12.2536 19.6925 11.049 18.0635 10.9072V9.20801C18.0634 8.92477 17.8498 8.71214 17.4961 8.6416H16.4336Z" fill="black"></path></g><defs><clipPath id="clip0_2286_9267"><rect width="34" height="34" fill="white"></rect></clipPath></defs></svg> 