<?xml version="1.0" encoding="UTF-8"?> <svg xmlns="http://www.w3.org/2000/svg" width="59" height="72" viewBox="0 0 59 72" fill="none"><path d="M30.2044 69.6275C29.917 69.8233 29.6747 69.9851 29.483 70.1116C29.2933 69.994 29.055 69.8442 28.7732 69.663C27.9799 69.1531 26.8426 68.395 25.4761 67.4081C22.7413 65.433 19.0974 62.5478 15.4571 58.9075C8.14702 51.5974 1 41.3926 1 29.5C1 13.7598 13.7598 1 29.5 1C45.2402 1 58 13.7598 58 29.5C58 40.7718 50.8616 50.9753 43.5356 58.4539C39.8914 62.174 36.2437 65.1762 33.5058 67.2486C32.1377 68.2841 30.999 69.0859 30.2044 69.6275ZM29.5 41.5625C36.1618 41.5625 41.5625 36.1618 41.5625 29.5C41.5625 22.8382 36.1618 17.4375 29.5 17.4375C22.8382 17.4375 17.4375 22.8382 17.4375 29.5C17.4375 36.1618 22.8382 41.5625 29.5 41.5625Z" stroke="#D1FF1B" stroke-width="2"></path></svg> 