<?xml version="1.0" encoding="UTF-8"?> <svg xmlns="http://www.w3.org/2000/svg" width="18" height="18" viewBox="0 0 18 18" fill="none"><g clip-path="url(#clip0_125_8483)"><path fill-rule="evenodd" clip-rule="evenodd" d="M9 18C13.9706 18 18 13.9706 18 9C18 4.02944 13.9706 0 9 0C4.02944 0 0 4.02944 0 9C0 13.9706 4.02944 18 9 18Z" fill="#012169"></path><path fill-rule="evenodd" clip-rule="evenodd" d="M16.9498 4.77713L11.25 9.02821L16.9373 13.2463C16.5053 14.0522 15.9542 14.7846 15.3075 15.42L8.99999 10.7157L2.70389 15.4312C2.05701 14.7978 1.5053 14.0676 1.07219 13.264L6.72187 9.05634L1.0293 4.81668C1.45311 4.01086 1.99553 3.27715 2.63337 2.63879L8.97187 7.34071L15.3314 2.60376C15.974 3.23986 16.5212 3.9721 16.9498 4.77713Z" fill="white"></path><path fill-rule="evenodd" clip-rule="evenodd" d="M15.6602 2.94678C15.8669 3.17407 16.0621 3.41199 16.245 3.65962L10.9969 7.62202L11.0532 6.38452L15.6602 2.94678ZM1.27246 4.38394C1.43805 4.10735 1.61806 3.84038 1.81146 3.58409L6.72191 7.20015H5.03441L1.27246 4.38394ZM16.1868 14.4186C16.3692 14.1771 16.5397 13.926 16.6975 13.6663L11.925 10.1533H10.3782L16.1868 14.4186ZM2.38375 15.1014L6.91878 11.7001L6.75003 10.7158L1.80322 14.4053C1.98512 14.6471 2.17892 14.8794 2.38375 15.1014Z" fill="#C8102E"></path><path fill-rule="evenodd" clip-rule="evenodd" d="M17.7165 11.25C17.9016 10.5309 18 9.77692 18 9C18 8.22308 17.9016 7.46914 17.7165 6.75H11.2781V0.290827C10.5505 0.101029 9.78706 0 9 0C8.2332 0 7.48879 0.0958959 6.77813 0.276349V6.75H0.283539C0.0984443 7.46914 0 8.22308 0 9C0 9.77692 0.0984443 10.5309 0.283539 11.25H6.77813V17.7237C7.48879 17.9041 8.2332 18 9 18C9.78706 18 10.5505 17.899 11.2781 17.7092V11.25H17.7165Z" fill="white"></path><path fill-rule="evenodd" clip-rule="evenodd" d="M17.8951 10.3781C17.9642 9.92884 18 9.4686 18 9C18 8.55093 17.9671 8.10955 17.9036 7.67813H10.448L10.4992 0.124297C10.0116 0.0425492 9.51077 0 9 0C8.59294 0 8.1922 0.0270235 7.79946 0.0793745L7.74801 7.67813H0.0963902C0.0328892 8.10955 0 8.55093 0 9C0 9.4686 0.0358131 9.92884 0.104852 10.3781H7.72973L7.67878 17.9037C8.10999 17.9671 8.55116 18 9 18C9.46885 18 9.92933 17.9641 10.3788 17.895L10.4297 10.3781H17.8951Z" fill="#C8102E"></path><path fill-rule="evenodd" clip-rule="evenodd" d="M9 17.475C13.6806 17.475 17.475 13.6806 17.475 9C17.475 4.31939 13.6806 0.525 9 0.525C4.31939 0.525 0.525 4.31939 0.525 9C0.525 13.6806 4.31939 17.475 9 17.475ZM9 18C13.9706 18 18 13.9706 18 9C18 4.02944 13.9706 0 9 0C4.02944 0 0 4.02944 0 9C0 13.9706 4.02944 18 9 18Z" fill="#D9D9D9"></path></g><defs><clipPath id="clip0_125_8483"><rect width="18" height="18" fill="white"></rect></clipPath></defs></svg> 