<?xml version="1.0" encoding="UTF-8"?> <svg xmlns="http://www.w3.org/2000/svg" width="44" height="44" viewBox="0 0 44 44" fill="none"><path d="M3.66663 3.66663V38.0416C3.66663 39.3073 4.69264 40.3333 5.95829 40.3333H40.3333" stroke="#B4E913" stroke-width="3.4375" stroke-linecap="round"></path><path d="M40.3333 11.433L29.0952 22.671C28.9413 22.8262 28.7583 22.9493 28.5566 23.0333C28.3549 23.1174 28.1386 23.1606 27.9201 23.1606C27.7016 23.1606 27.4852 23.1174 27.2835 23.0333C27.0819 22.9493 26.8988 22.8262 26.7449 22.671L22.4748 18.4009C22.3209 18.2458 22.1379 18.1226 21.9362 18.0386C21.7345 17.9546 21.5182 17.9113 21.2997 17.9113C21.0812 17.9113 20.8649 17.9546 20.6632 18.0386C20.4615 18.1226 20.2784 18.2458 20.1246 18.4009L10.5416 27.9839" stroke="#B4E913" stroke-width="3.4375" stroke-linecap="round" stroke-linejoin="round"></path><path d="M40.3333 18.0531L40.3333 11.4327L33.7129 11.4327" stroke="#B4E913" stroke-width="3.4375" stroke-linecap="round" stroke-linejoin="round"></path></svg> 