<?xml version="1.0" encoding="UTF-8"?> <svg xmlns="http://www.w3.org/2000/svg" width="24" height="24" viewBox="0 0 24 24" fill="none"><g clip-path="url(#clip0_203_4674)"><path fill-rule="evenodd" clip-rule="evenodd" d="M12 24C18.6274 24 24 18.6274 24 12C24 5.37258 18.6274 0 12 0C5.37258 0 0 5.37258 0 12C0 18.6274 5.37258 24 12 24Z" fill="#005293"></path><path fill-rule="evenodd" clip-rule="evenodd" d="M23.8659 13.8001C23.9542 13.2129 24 12.6118 24 12.0001C24 11.3883 23.9542 10.7872 23.8659 10.2001H10.2V0.134155C8.92299 0.326247 7.71189 0.71957 6.6 1.2808V10.2001H0.134101C0.0457798 10.7872 0 11.3883 0 12.0001C0 12.6118 0.0457798 13.2129 0.134101 13.8001H6.6V22.7193C7.71189 23.2805 8.92299 23.6739 10.2 23.866V13.8001H23.8659Z" fill="#FECB00"></path><path fill-rule="evenodd" clip-rule="evenodd" d="M12 23.3C18.2408 23.3 23.3 18.2408 23.3 12C23.3 5.75918 18.2408 0.7 12 0.7C5.75918 0.7 0.7 5.75918 0.7 12C0.7 18.2408 5.75918 23.3 12 23.3ZM12 24C18.6274 24 24 18.6274 24 12C24 5.37258 18.6274 0 12 0C5.37258 0 0 5.37258 0 12C0 18.6274 5.37258 24 12 24Z" fill="#D9D9D9"></path></g><defs><clipPath id="clip0_203_4674"><rect width="24" height="24" fill="white"></rect></clipPath></defs></svg> 