<?xml version="1.0" encoding="UTF-8"?> <svg xmlns="http://www.w3.org/2000/svg" width="260" height="127" viewBox="0 0 260 127" fill="none"><path d="M117.807 29V28.088L120.771 25.064C121.563 24.272 121.959 23.592 121.959 23.024C121.959 22.552 121.815 22.184 121.527 21.92C121.239 21.656 120.887 21.524 120.471 21.524C119.679 21.524 119.103 21.9 118.743 22.652L117.807 22.1C118.071 21.556 118.435 21.144 118.899 20.864C119.371 20.584 119.891 20.444 120.459 20.444C121.163 20.444 121.775 20.676 122.295 21.14C122.815 21.604 123.075 22.228 123.075 23.012C123.075 23.86 122.575 24.784 121.575 25.784L119.427 27.92H123.231V29H117.807ZM129.754 27.968C129.186 28.76 128.39 29.156 127.366 29.156C126.342 29.156 125.546 28.76 124.978 27.968C124.41 27.176 124.126 26.12 124.126 24.8C124.126 23.48 124.41 22.424 124.978 21.632C125.546 20.84 126.342 20.444 127.366 20.444C128.39 20.444 129.186 20.84 129.754 21.632C130.322 22.424 130.606 23.48 130.606 24.8C130.606 26.12 130.322 27.176 129.754 27.968ZM125.794 27.212C126.162 27.78 126.686 28.064 127.366 28.064C128.046 28.064 128.57 27.78 128.938 27.212C129.314 26.644 129.502 25.84 129.502 24.8C129.502 23.76 129.314 22.956 128.938 22.388C128.57 21.812 128.046 21.524 127.366 21.524C126.686 21.524 126.162 21.808 125.794 22.376C125.426 22.944 125.242 23.752 125.242 24.8C125.242 25.84 125.426 26.644 125.794 27.212ZM131.424 29V28.088L134.388 25.064C135.18 24.272 135.576 23.592 135.576 23.024C135.576 22.552 135.432 22.184 135.144 21.92C134.856 21.656 134.504 21.524 134.088 21.524C133.296 21.524 132.72 21.9 132.36 22.652L131.424 22.1C131.688 21.556 132.052 21.144 132.516 20.864C132.988 20.584 133.508 20.444 134.076 20.444C134.78 20.444 135.392 20.676 135.912 21.14C136.432 21.604 136.692 22.228 136.692 23.012C136.692 23.86 136.192 24.784 135.192 25.784L133.044 27.92H136.848V29H131.424ZM140.995 24.044C141.635 24.164 142.159 24.44 142.567 24.872C142.975 25.304 143.179 25.852 143.179 26.516C143.179 27.332 142.899 27.976 142.339 28.448C141.779 28.92 141.099 29.156 140.299 29.156C139.659 29.156 139.091 29.012 138.595 28.724C138.099 28.428 137.747 28.004 137.539 27.452L138.475 26.9C138.723 27.676 139.331 28.064 140.299 28.064C140.819 28.064 141.243 27.928 141.571 27.656C141.899 27.384 142.063 27.004 142.063 26.516C142.063 26.028 141.899 25.648 141.571 25.376C141.243 25.096 140.819 24.956 140.299 24.956H140.011L139.567 24.272L141.511 21.644H137.779V20.6H142.819V21.584L140.995 24.044Z" fill="#BEBEBE"></path><path d="M53.7206 60.62L52.0706 63.365L53.7206 66.095H52.3106L50.6606 63.365L52.3106 60.62H53.7206ZM56.2706 60.62L54.6206 63.365L56.2706 66.095H54.8606L53.2106 63.365L54.8606 60.62H56.2706ZM64.4121 62.555C64.8921 62.785 65.2721 63.115 65.5521 63.545C65.8421 63.975 65.9871 64.47 65.9871 65.03C65.9871 65.87 65.6921 66.575 65.1021 67.145C64.5121 67.715 63.7921 68 62.9421 68H58.4121V57.5H62.6121C63.4321 57.5 64.1271 57.775 64.6971 58.325C65.2671 58.875 65.5521 59.555 65.5521 60.365C65.5521 61.295 65.1721 62.025 64.4121 62.555ZM62.6121 58.805H59.8071V62.015H62.6121C63.0521 62.015 63.4221 61.86 63.7221 61.55C64.0221 61.24 64.1721 60.86 64.1721 60.41C64.1721 59.97 64.0171 59.595 63.7071 59.285C63.4071 58.965 63.0421 58.805 62.6121 58.805ZM62.9421 66.695C63.4121 66.695 63.8071 66.53 64.1271 66.2C64.4471 65.87 64.6071 65.465 64.6071 64.985C64.6071 64.515 64.4421 64.115 64.1121 63.785C63.7921 63.455 63.4021 63.29 62.9421 63.29H59.8071V66.695H62.9421ZM68.4646 64.85C68.5946 65.52 68.8996 66.04 69.3796 66.41C69.8696 66.78 70.4696 66.965 71.1796 66.965C72.1696 66.965 72.8896 66.6 73.3396 65.87L74.4496 66.5C73.7196 67.63 72.6196 68.195 71.1496 68.195C69.9596 68.195 68.9896 67.825 68.2396 67.085C67.4996 66.335 67.1296 65.39 67.1296 64.25C67.1296 63.12 67.4946 62.18 68.2246 61.43C68.9546 60.68 69.8996 60.305 71.0596 60.305C72.1596 60.305 73.0546 60.695 73.7446 61.475C74.4446 62.245 74.7946 63.175 74.7946 64.265C74.7946 64.455 74.7796 64.65 74.7496 64.85H68.4646ZM71.0596 61.535C70.3596 61.535 69.7796 61.735 69.3196 62.135C68.8596 62.525 68.5746 63.05 68.4646 63.71H73.4746C73.3646 63 73.0846 62.46 72.6346 62.09C72.1846 61.72 71.6596 61.535 71.0596 61.535ZM77.1267 62.525C77.1267 62.815 77.2717 63.05 77.5617 63.23C77.8517 63.4 78.2017 63.54 78.6117 63.65C79.0217 63.75 79.4317 63.87 79.8417 64.01C80.2517 64.14 80.6017 64.37 80.8917 64.7C81.1817 65.02 81.3267 65.435 81.3267 65.945C81.3267 66.625 81.0617 67.17 80.5317 67.58C80.0117 67.99 79.3417 68.195 78.5217 68.195C77.7917 68.195 77.1667 68.035 76.6467 67.715C76.1267 67.395 75.7567 66.97 75.5367 66.44L76.6617 65.795C76.7817 66.155 77.0067 66.44 77.3367 66.65C77.6667 66.86 78.0617 66.965 78.5217 66.965C78.9517 66.965 79.3067 66.885 79.5867 66.725C79.8667 66.555 80.0067 66.295 80.0067 65.945C80.0067 65.655 79.8617 65.425 79.5717 65.255C79.2817 65.075 78.9317 64.935 78.5217 64.835C78.1117 64.725 77.7017 64.6 77.2917 64.46C76.8817 64.32 76.5317 64.09 76.2417 63.77C75.9517 63.45 75.8067 63.04 75.8067 62.54C75.8067 61.89 76.0567 61.355 76.5567 60.935C77.0667 60.515 77.7017 60.305 78.4617 60.305C79.0717 60.305 79.6117 60.445 80.0817 60.725C80.5617 60.995 80.9217 61.375 81.1617 61.865L80.0667 62.48C79.7967 61.84 79.2617 61.52 78.4617 61.52C78.0917 61.52 77.7767 61.61 77.5167 61.79C77.2567 61.96 77.1267 62.205 77.1267 62.525ZM86.6589 61.76H84.6639V65.825C84.6639 66.195 84.7339 66.46 84.8739 66.62C85.0239 66.77 85.2489 66.85 85.5489 66.86C85.8489 66.86 86.2189 66.85 86.6589 66.83V68C85.5189 68.15 84.6839 68.06 84.1539 67.73C83.6239 67.39 83.3589 66.755 83.3589 65.825V61.76H81.8739V60.5H83.3589V58.79L84.6639 58.4V60.5H86.6589V61.76ZM93.5278 66.68H98.4028V68H92.1328V57.5H98.3278V58.82H93.5278V62.045H97.9528V63.35H93.5278V66.68ZM104.949 68.195C103.359 68.195 102.044 67.67 101.004 66.62C99.9737 65.57 99.4587 64.28 99.4587 62.75C99.4587 61.22 99.9737 59.93 101.004 58.88C102.044 57.83 103.359 57.305 104.949 57.305C105.909 57.305 106.789 57.535 107.589 57.995C108.399 58.455 109.029 59.075 109.479 59.855L108.264 60.56C107.964 59.98 107.514 59.52 106.914 59.18C106.324 58.83 105.669 58.655 104.949 58.655C103.739 58.655 102.749 59.045 101.979 59.825C101.219 60.605 100.839 61.58 100.839 62.75C100.839 63.91 101.219 64.88 101.979 65.66C102.749 66.44 103.739 66.83 104.949 66.83C105.669 66.83 106.324 66.66 106.914 66.32C107.514 65.97 107.964 65.51 108.264 64.94L109.479 65.63C109.039 66.41 108.414 67.035 107.604 67.505C106.794 67.965 105.909 68.195 104.949 68.195ZM117.584 57.5H118.979V68H117.854L112.454 60.155V68H111.059V57.5H112.184L117.584 65.33V57.5ZM130.975 62.555C131.455 62.785 131.835 63.115 132.115 63.545C132.405 63.975 132.55 64.47 132.55 65.03C132.55 65.87 132.255 66.575 131.665 67.145C131.075 67.715 130.355 68 129.505 68H124.975V57.5H129.175C129.995 57.5 130.69 57.775 131.26 58.325C131.83 58.875 132.115 59.555 132.115 60.365C132.115 61.295 131.735 62.025 130.975 62.555ZM129.175 58.805H126.37V62.015H129.175C129.615 62.015 129.985 61.86 130.285 61.55C130.585 61.24 130.735 60.86 130.735 60.41C130.735 59.97 130.58 59.595 130.27 59.285C129.97 58.965 129.605 58.805 129.175 58.805ZM129.505 66.695C129.975 66.695 130.37 66.53 130.69 66.2C131.01 65.87 131.17 65.465 131.17 64.985C131.17 64.515 131.005 64.115 130.675 63.785C130.355 63.455 129.965 63.29 129.505 63.29H126.37V66.695H129.505ZM135.373 61.76C135.803 60.83 136.583 60.365 137.713 60.365V61.73C137.073 61.7 136.523 61.87 136.063 62.24C135.603 62.61 135.373 63.205 135.373 64.025V68H134.068V60.5H135.373V61.76ZM144.91 67.055C144.14 67.815 143.205 68.195 142.105 68.195C141.005 68.195 140.07 67.815 139.3 67.055C138.54 66.295 138.16 65.36 138.16 64.25C138.16 63.14 138.54 62.205 139.3 61.445C140.07 60.685 141.005 60.305 142.105 60.305C143.205 60.305 144.14 60.685 144.91 61.445C145.68 62.205 146.065 63.14 146.065 64.25C146.065 65.36 145.68 66.295 144.91 67.055ZM142.105 66.92C142.855 66.92 143.485 66.665 143.995 66.155C144.505 65.645 144.76 65.01 144.76 64.25C144.76 63.49 144.505 62.855 143.995 62.345C143.485 61.835 142.855 61.58 142.105 61.58C141.365 61.58 140.74 61.835 140.23 62.345C139.72 62.855 139.465 63.49 139.465 64.25C139.465 65.01 139.72 65.645 140.23 66.155C140.74 66.665 141.365 66.92 142.105 66.92ZM153.948 68H152.328L148.908 64.445V68H147.603V57.5H148.908V63.815L152.148 60.5H153.828L150.243 64.13L153.948 68ZM155.388 64.85C155.518 65.52 155.823 66.04 156.303 66.41C156.793 66.78 157.393 66.965 158.103 66.965C159.093 66.965 159.813 66.6 160.263 65.87L161.373 66.5C160.643 67.63 159.543 68.195 158.073 68.195C156.883 68.195 155.913 67.825 155.163 67.085C154.423 66.335 154.053 65.39 154.053 64.25C154.053 63.12 154.418 62.18 155.148 61.43C155.878 60.68 156.823 60.305 157.983 60.305C159.083 60.305 159.978 60.695 160.668 61.475C161.368 62.245 161.718 63.175 161.718 64.265C161.718 64.455 161.703 64.65 161.673 64.85H155.388ZM157.983 61.535C157.283 61.535 156.703 61.735 156.243 62.135C155.783 62.525 155.498 63.05 155.388 63.71H160.398C160.288 63 160.008 62.46 159.558 62.09C159.108 61.72 158.583 61.535 157.983 61.535ZM164.524 61.76C164.954 60.83 165.734 60.365 166.864 60.365V61.73C166.224 61.7 165.674 61.87 165.214 62.24C164.754 62.61 164.524 63.205 164.524 64.025V68H163.219V60.5H164.524V61.76ZM171.44 68V66.86L175.145 63.08C176.135 62.09 176.63 61.24 176.63 60.53C176.63 59.94 176.45 59.48 176.09 59.15C175.73 58.82 175.29 58.655 174.77 58.655C173.78 58.655 173.06 59.125 172.61 60.065L171.44 59.375C171.77 58.695 172.225 58.18 172.805 57.83C173.395 57.48 174.045 57.305 174.755 57.305C175.635 57.305 176.4 57.595 177.05 58.175C177.7 58.755 178.025 59.535 178.025 60.515C178.025 61.575 177.4 62.73 176.15 63.98L173.465 66.65H178.22V68H171.44ZM186.374 66.71C185.664 67.7 184.669 68.195 183.389 68.195C182.109 68.195 181.114 67.7 180.404 66.71C179.694 65.72 179.339 64.4 179.339 62.75C179.339 61.1 179.694 59.78 180.404 58.79C181.114 57.8 182.109 57.305 183.389 57.305C184.669 57.305 185.664 57.8 186.374 58.79C187.084 59.78 187.439 61.1 187.439 62.75C187.439 64.4 187.084 65.72 186.374 66.71ZM181.424 65.765C181.884 66.475 182.539 66.83 183.389 66.83C184.239 66.83 184.894 66.475 185.354 65.765C185.824 65.055 186.059 64.05 186.059 62.75C186.059 61.45 185.824 60.445 185.354 59.735C184.894 59.015 184.239 58.655 183.389 58.655C182.539 58.655 181.884 59.01 181.424 59.72C180.964 60.43 180.734 61.44 180.734 62.75C180.734 64.05 180.964 65.055 181.424 65.765ZM188.462 68V66.86L192.167 63.08C193.157 62.09 193.652 61.24 193.652 60.53C193.652 59.94 193.472 59.48 193.112 59.15C192.752 58.82 192.312 58.655 191.792 58.655C190.802 58.655 190.082 59.125 189.632 60.065L188.462 59.375C188.792 58.695 189.247 58.18 189.827 57.83C190.417 57.48 191.067 57.305 191.777 57.305C192.657 57.305 193.422 57.595 194.072 58.175C194.722 58.755 195.047 59.535 195.047 60.515C195.047 61.575 194.422 62.73 193.172 63.98L190.487 66.65H195.242V68H188.462ZM200.426 61.805C201.226 61.955 201.881 62.3 202.391 62.84C202.901 63.38 203.156 64.065 203.156 64.895C203.156 65.915 202.806 66.72 202.106 67.31C201.406 67.9 200.556 68.195 199.556 68.195C198.756 68.195 198.046 68.015 197.426 67.655C196.806 67.285 196.366 66.755 196.106 66.065L197.276 65.375C197.586 66.345 198.346 66.83 199.556 66.83C200.206 66.83 200.736 66.66 201.146 66.32C201.556 65.98 201.761 65.505 201.761 64.895C201.761 64.285 201.556 63.81 201.146 63.47C200.736 63.12 200.206 62.945 199.556 62.945H199.196L198.641 62.09L201.071 58.805H196.406V57.5H202.706V58.73L200.426 61.805ZM206.143 60.62L207.793 63.365L206.143 66.095H204.733L206.383 63.365L204.733 60.62H206.143ZM208.693 60.62L210.343 63.365L208.693 66.095H207.283L208.933 63.365L207.283 60.62H208.693Z" fill="#B4E913"></path><path d="M77.4147 96.6V97.656H74.9307V105H73.8267V97.656H71.3547V96.6H77.4147ZM78.6348 100.008C78.9788 99.264 79.6028 98.892 80.5068 98.892V99.984C79.9948 99.96 79.5548 100.096 79.1868 100.392C78.8188 100.688 78.6348 101.164 78.6348 101.82V105H77.5908V99H78.6348V100.008ZM86.1682 99H87.2122V105H86.1682V103.968C85.6482 104.76 84.8922 105.156 83.9002 105.156C83.0602 105.156 82.3442 104.852 81.7522 104.244C81.1602 103.628 80.8642 102.88 80.8642 102C80.8642 101.12 81.1602 100.376 81.7522 99.768C82.3442 99.152 83.0602 98.844 83.9002 98.844C84.8922 98.844 85.6482 99.24 86.1682 100.032V99ZM84.0322 104.148C84.6402 104.148 85.1482 103.944 85.5562 103.536C85.9642 103.12 86.1682 102.608 86.1682 102C86.1682 101.392 85.9642 100.884 85.5562 100.476C85.1482 100.06 84.6402 99.852 84.0322 99.852C83.4322 99.852 82.9282 100.06 82.5202 100.476C82.1122 100.884 81.9082 101.392 81.9082 102C81.9082 102.608 82.1122 103.12 82.5202 103.536C82.9282 103.944 83.4322 104.148 84.0322 104.148ZM93.762 96.6H94.806V105H93.762V103.968C93.242 104.76 92.486 105.156 91.494 105.156C90.654 105.156 89.938 104.852 89.346 104.244C88.754 103.628 88.458 102.88 88.458 102C88.458 101.12 88.754 100.376 89.346 99.768C89.938 99.152 90.654 98.844 91.494 98.844C92.486 98.844 93.242 99.24 93.762 100.032V96.6ZM91.626 104.148C92.234 104.148 92.742 103.944 93.15 103.536C93.558 103.12 93.762 102.608 93.762 102C93.762 101.392 93.558 100.884 93.15 100.476C92.742 100.06 92.234 99.852 91.626 99.852C91.026 99.852 90.522 100.06 90.114 100.476C89.706 100.884 89.502 101.392 89.502 102C89.502 102.608 89.706 103.12 90.114 103.536C90.522 103.944 91.026 104.148 91.626 104.148ZM97.1197 102.48C97.2237 103.016 97.4677 103.432 97.8517 103.728C98.2437 104.024 98.7237 104.172 99.2917 104.172C100.084 104.172 100.66 103.88 101.02 103.296L101.908 103.8C101.324 104.704 100.444 105.156 99.2677 105.156C98.3157 105.156 97.5397 104.86 96.9397 104.268C96.3477 103.668 96.0517 102.912 96.0517 102C96.0517 101.096 96.3437 100.344 96.9277 99.744C97.5117 99.144 98.2677 98.844 99.1957 98.844C100.076 98.844 100.792 99.156 101.344 99.78C101.904 100.396 102.184 101.14 102.184 102.012C102.184 102.164 102.172 102.32 102.148 102.48H97.1197ZM99.1957 99.828C98.6357 99.828 98.1717 99.988 97.8037 100.308C97.4357 100.62 97.2077 101.04 97.1197 101.568H101.128C101.04 101 100.816 100.568 100.456 100.272C100.096 99.976 99.6757 99.828 99.1957 99.828ZM104.428 100.008C104.772 99.264 105.396 98.892 106.3 98.892V99.984C105.788 99.96 105.348 100.096 104.98 100.392C104.612 100.688 104.428 101.164 104.428 101.82V105H103.384V99H104.428V100.008ZM107.999 100.62C107.999 100.852 108.115 101.04 108.347 101.184C108.579 101.32 108.859 101.432 109.187 101.52C109.515 101.6 109.843 101.696 110.171 101.808C110.499 101.912 110.779 102.096 111.011 102.36C111.243 102.616 111.359 102.948 111.359 103.356C111.359 103.9 111.147 104.336 110.723 104.664C110.307 104.992 109.771 105.156 109.115 105.156C108.531 105.156 108.031 105.028 107.615 104.772C107.199 104.516 106.903 104.176 106.727 103.752L107.627 103.236C107.723 103.524 107.903 103.752 108.167 103.92C108.431 104.088 108.747 104.172 109.115 104.172C109.459 104.172 109.743 104.108 109.967 103.98C110.191 103.844 110.303 103.636 110.303 103.356C110.303 103.124 110.187 102.94 109.955 102.804C109.723 102.66 109.443 102.548 109.115 102.468C108.787 102.38 108.459 102.28 108.131 102.168C107.803 102.056 107.523 101.872 107.291 101.616C107.059 101.36 106.943 101.032 106.943 100.632C106.943 100.112 107.143 99.684 107.543 99.348C107.951 99.012 108.459 98.844 109.067 98.844C109.555 98.844 109.987 98.956 110.363 99.18C110.747 99.396 111.035 99.7 111.227 100.092L110.351 100.584C110.135 100.072 109.707 99.816 109.067 99.816C108.771 99.816 108.519 99.888 108.311 100.032C108.103 100.168 107.999 100.364 107.999 100.62ZM121.019 104.352C120.435 104.888 119.679 105.156 118.751 105.156C117.823 105.156 117.063 104.888 116.471 104.352C115.887 103.808 115.595 103.084 115.595 102.18V96.6H116.711V102.132C116.711 102.724 116.887 103.196 117.239 103.548C117.591 103.892 118.095 104.064 118.751 104.064C119.407 104.064 119.911 103.892 120.263 103.548C120.615 103.196 120.791 102.724 120.791 102.132V96.6H121.895V102.18C121.895 103.084 121.603 103.808 121.019 104.352ZM126.481 98.844C127.185 98.844 127.749 99.068 128.173 99.516C128.597 99.956 128.809 100.556 128.809 101.316V105H127.765V101.376C127.765 100.888 127.633 100.512 127.369 100.248C127.105 99.976 126.741 99.84 126.277 99.84C125.757 99.84 125.337 100.004 125.017 100.332C124.697 100.652 124.537 101.148 124.537 101.82V105H123.493V99H124.537V99.864C124.961 99.184 125.609 98.844 126.481 98.844ZM130.795 97.908C130.595 97.908 130.427 97.84 130.291 97.704C130.155 97.568 130.087 97.404 130.087 97.212C130.087 97.02 130.155 96.856 130.291 96.72C130.427 96.576 130.595 96.504 130.795 96.504C130.987 96.504 131.151 96.576 131.287 96.72C131.423 96.856 131.491 97.02 131.491 97.212C131.491 97.404 131.423 97.568 131.287 97.704C131.151 97.84 130.987 97.908 130.795 97.908ZM130.267 105V99H131.311V105H130.267ZM137.967 104.244C137.351 104.852 136.603 105.156 135.723 105.156C134.843 105.156 134.095 104.852 133.479 104.244C132.871 103.636 132.567 102.888 132.567 102C132.567 101.112 132.871 100.364 133.479 99.756C134.095 99.148 134.843 98.844 135.723 98.844C136.603 98.844 137.351 99.148 137.967 99.756C138.583 100.364 138.891 101.112 138.891 102C138.891 102.888 138.583 103.636 137.967 104.244ZM135.723 104.136C136.323 104.136 136.827 103.932 137.235 103.524C137.643 103.116 137.847 102.608 137.847 102C137.847 101.392 137.643 100.884 137.235 100.476C136.827 100.068 136.323 99.864 135.723 99.864C135.131 99.864 134.631 100.068 134.223 100.476C133.815 100.884 133.611 101.392 133.611 102C133.611 102.608 133.815 103.116 134.223 103.524C134.631 103.932 135.131 104.136 135.723 104.136ZM143.11 98.844C143.814 98.844 144.378 99.068 144.802 99.516C145.226 99.956 145.438 100.556 145.438 101.316V105H144.394V101.376C144.394 100.888 144.262 100.512 143.998 100.248C143.734 99.976 143.37 99.84 142.906 99.84C142.386 99.84 141.966 100.004 141.646 100.332C141.326 100.652 141.166 101.148 141.166 101.82V105H140.122V99H141.166V99.864C141.59 99.184 142.238 98.844 143.11 98.844ZM155.536 105L154.852 103.116H151.072L150.388 105H149.2L152.332 96.6H153.592L156.724 105H155.536ZM151.456 102.072H154.468L152.956 97.932L151.456 102.072ZM164.44 99H165.532L163.672 105H162.604L161.2 100.56L159.796 105H158.728L156.868 99H157.96L159.28 103.56L160.696 99H161.704L163.12 103.572L164.44 99ZM171.34 99H172.384V105H171.34V103.968C170.82 104.76 170.064 105.156 169.072 105.156C168.232 105.156 167.516 104.852 166.924 104.244C166.332 103.628 166.036 102.88 166.036 102C166.036 101.12 166.332 100.376 166.924 99.768C167.516 99.152 168.232 98.844 169.072 98.844C170.064 98.844 170.82 99.24 171.34 100.032V99ZM169.204 104.148C169.812 104.148 170.32 103.944 170.728 103.536C171.136 103.12 171.34 102.608 171.34 102C171.34 101.392 171.136 100.884 170.728 100.476C170.32 100.06 169.812 99.852 169.204 99.852C168.604 99.852 168.1 100.06 167.692 100.476C167.284 100.884 167.08 101.392 167.08 102C167.08 102.608 167.284 103.12 167.692 103.536C168.1 103.944 168.604 104.148 169.204 104.148ZM175.01 100.008C175.354 99.264 175.978 98.892 176.882 98.892V99.984C176.37 99.96 175.93 100.096 175.562 100.392C175.194 100.688 175.01 101.164 175.01 101.82V105H173.966V99H175.01V100.008ZM182.543 96.6H183.587V105H182.543V103.968C182.023 104.76 181.267 105.156 180.275 105.156C179.435 105.156 178.719 104.852 178.127 104.244C177.535 103.628 177.239 102.88 177.239 102C177.239 101.12 177.535 100.376 178.127 99.768C178.719 99.152 179.435 98.844 180.275 98.844C181.267 98.844 182.023 99.24 182.543 100.032V96.6ZM180.407 104.148C181.015 104.148 181.523 103.944 181.931 103.536C182.339 103.12 182.543 102.608 182.543 102C182.543 101.392 182.339 100.884 181.931 100.476C181.523 100.06 181.015 99.852 180.407 99.852C179.807 99.852 179.303 100.06 178.895 100.476C178.487 100.884 178.283 101.392 178.283 102C178.283 102.608 178.487 103.12 178.895 103.536C179.303 103.944 179.807 104.148 180.407 104.148ZM186.057 100.62C186.057 100.852 186.173 101.04 186.405 101.184C186.637 101.32 186.917 101.432 187.245 101.52C187.573 101.6 187.901 101.696 188.229 101.808C188.557 101.912 188.837 102.096 189.069 102.36C189.301 102.616 189.417 102.948 189.417 103.356C189.417 103.9 189.205 104.336 188.781 104.664C188.365 104.992 187.829 105.156 187.173 105.156C186.589 105.156 186.089 105.028 185.673 104.772C185.257 104.516 184.961 104.176 184.785 103.752L185.685 103.236C185.781 103.524 185.961 103.752 186.225 103.92C186.489 104.088 186.805 104.172 187.173 104.172C187.517 104.172 187.801 104.108 188.025 103.98C188.249 103.844 188.361 103.636 188.361 103.356C188.361 103.124 188.245 102.94 188.013 102.804C187.781 102.66 187.501 102.548 187.173 102.468C186.845 102.38 186.517 102.28 186.189 102.168C185.861 102.056 185.581 101.872 185.349 101.616C185.117 101.36 185.001 101.032 185.001 100.632C185.001 100.112 185.201 99.684 185.601 99.348C186.009 99.012 186.517 98.844 187.125 98.844C187.613 98.844 188.045 98.956 188.421 99.18C188.805 99.396 189.093 99.7 189.285 100.092L188.409 100.584C188.193 100.072 187.765 99.816 187.125 99.816C186.829 99.816 186.577 99.888 186.369 100.032C186.161 100.168 186.057 100.364 186.057 100.62Z" fill="#BEBEBE"></path><path d="M212.523 29C212.19 26.8333 209.823 22 203.023 20C203.357 22.1667 205.723 27 212.523 29Z" fill="#F3F3F3"></path><path d="M212.445 22.551C216.799 25.0921 216.939 30.6712 217.001 33.1419C217.016 33.7417 217.026 34.1583 217.091 34.3038C213.467 31.1767 213.085 27.6792 212.775 24.8365C212.684 24.0111 212.6 23.2409 212.445 22.551Z" fill="#F3F3F3"></path><path d="M205.116 29.3028C207.316 32.035 211.112 32.7783 213.571 33.2599C214.64 33.4691 215.456 33.629 215.78 33.8811C213.417 28.9404 209.166 29.1026 205.116 29.3028Z" fill="#F3F3F3"></path><path d="M210.107 34.0132C212.107 37.1918 215.651 38.3355 217.976 39.0856C218.999 39.4157 219.786 39.6696 220.101 39.9873C218.802 36.407 215.994 33.9595 210.107 34.0132Z" fill="#F3F3F3"></path><path d="M214.388 39.3775C215.55 42.4871 220.476 45.0166 222.597 46.1057C223.15 46.3896 223.513 46.5756 223.568 46.6485C222.612 42.8834 220.108 40.0261 214.388 39.3775Z" fill="#F3F3F3"></path><path d="M217.927 45.3234C218.926 48.9989 222.098 50.9622 224.213 52.2715C225.159 52.8571 225.894 53.3119 226.129 53.7305C225.6 49.0301 222.102 46.0591 217.927 45.3234Z" fill="#F3F3F3"></path><path d="M220.625 51.7002C221.17 55.5354 223.932 57.7901 225.817 59.3294C226.719 60.0653 227.42 60.6376 227.583 61.141C227.573 56.7369 225.073 52.8999 220.625 51.7002Z" fill="#F3F3F3"></path><path d="M222.368 58.3353C222.102 61.8092 224.493 64.5368 226.185 66.4669C227.012 67.41 227.672 68.1627 227.774 68.719C228.508 63.8131 225.948 59.8315 222.368 58.3353Z" fill="#F3F3F3"></path><path d="M223.031 65.0894C222.095 68.3646 223.994 71.4467 225.361 73.6662C226.037 74.7631 226.583 75.6493 226.593 76.2439C228.557 71.0126 225.68 66.6464 223.031 65.0894Z" fill="#F3F3F3"></path><path d="M222.475 71.8007C221.008 74.7662 222.561 79.0466 223.466 81.5387C223.817 82.5065 224.07 83.2046 224.011 83.4513C226.13 79.7524 225.882 74.5499 222.475 71.8007Z" fill="#F3F3F3"></path><path d="M220.68 78.2969C218.533 81.1571 219.324 84.7027 219.896 87.2661C220.175 88.5187 220.403 89.5367 220.209 90.1256C223.601 85.1062 222.719 80.5596 220.68 78.2969Z" fill="#F3F3F3"></path><path d="M217.734 84.4317C215.005 87.059 215.312 90.6887 215.533 93.2973C215.64 94.5673 215.727 95.5953 215.434 96.1477C219.346 91.8275 219.464 87.0904 217.734 84.4317Z" fill="#F3F3F3"></path><path d="M213.755 90.1076C210.524 92.1689 210.429 95.9193 210.36 98.6423C210.327 99.944 210.3 101.011 209.939 101.546C214.848 96.9181 214.81 92.3853 213.755 90.1076Z" fill="#F3F3F3"></path><path d="M204.569 103.542C204.865 100.864 205.276 97.1564 208.943 95.2702C209.823 97.8587 208.975 102.198 203.902 106.337C204.316 105.829 204.43 104.799 204.569 103.542Z" fill="#F3F3F3"></path><path d="M207.592 105.97C210.866 105.436 214.931 104.774 218.453 99.7188C216.618 100.838 214.888 101.242 213.176 101.642C210.387 102.293 207.645 102.933 204.575 106.638C205.454 106.318 206.477 106.151 207.592 105.97Z" fill="#F3F3F3"></path><path d="M213.243 101.049C216.354 100.288 220.395 99.2998 223.495 93.6518C221.806 94.9468 220.151 95.5372 218.507 96.1235C215.852 97.0707 213.228 98.007 210.54 101.885C211.296 101.526 212.219 101.3 213.243 101.049Z" fill="#F3F3F3"></path><path d="M218.447 95.4714C221.49 94.364 225.586 92.8733 227.681 86.8465C226.197 88.4172 224.688 89.1517 223.162 89.8945C220.802 91.0437 218.4 92.2127 215.987 96.5299C216.64 96.1292 217.492 95.8192 218.447 95.4714Z" fill="#F3F3F3"></path><path d="M222.777 89.3086C225.526 87.8612 229.584 85.7248 230.751 79.3938C229.739 80.8967 228.405 81.8601 227 82.8748C224.756 84.4961 222.33 86.2485 220.743 90.5426C221.219 90.1289 221.937 89.7509 222.777 89.3086Z" fill="#F3F3F3"></path><path d="M226.084 82.5921C228.612 80.6414 232.6 77.5632 232.488 71.5063C231.619 73.3619 230.57 74.3405 229.474 75.3631C227.772 76.9516 225.956 78.646 224.524 83.8993C224.886 83.5167 225.437 83.0913 226.084 82.5921Z" fill="#F3F3F3"></path><path d="M228.522 75.1692C230.65 72.9903 233.91 69.6505 232.834 63.4807C232.27 65.3302 231.43 66.4216 230.56 67.5521C229.152 69.3822 227.664 71.315 227.142 76.7327C227.442 76.2758 227.94 75.766 228.522 75.1692Z" fill="#F3F3F3"></path><path d="M229.25 67.9128C230.828 65.7052 233.821 61.5197 231.874 55.586C231.598 57.1163 230.945 58.3667 230.266 59.667C229.031 62.0318 227.711 64.5613 228.415 69.2381C228.519 68.9354 228.836 68.4921 229.25 67.9128Z" fill="#F3F3F3"></path><path d="M229.034 60.0262C230.289 57.5673 232.488 53.26 229.771 48.0117C229.697 49.3985 229.25 50.6013 228.78 51.8659C227.872 54.3115 226.878 56.9885 228.323 61.6747C228.386 61.2946 228.67 60.7378 229.034 60.0262Z" fill="#F3F3F3"></path><path d="M227.409 52.8036C228.283 50.2531 230.007 45.2254 226.706 40.8478C226.763 41.7366 226.529 42.7702 226.262 43.948C225.653 46.6376 224.873 50.0792 227.002 54.2665C226.998 54.0007 227.172 53.4924 227.409 52.8036Z" fill="#F3F3F3"></path><path d="M224.831 45.5389C225.384 42.9523 226.393 38.2376 222.774 34.1431C222.885 35.3379 222.744 36.4324 222.6 37.5511C222.268 40.1239 221.919 42.8247 224.586 47.1672C224.552 46.8393 224.673 46.2754 224.831 45.5389Z" fill="#F3F3F3"></path><path d="M221.319 39.0877C221.583 36.5791 222.111 31.5664 217.994 27.9951C218.132 28.9089 218.132 29.8563 218.131 30.8468C218.129 33.6426 218.127 36.782 221.255 40.479C221.197 40.2387 221.249 39.7506 221.319 39.0877Z" fill="#F3F3F3"></path><path d="M47.5234 29C47.8568 26.8333 50.2234 22 57.0234 20C56.6901 22.1667 54.3234 27 47.5234 29Z" fill="#F3F3F3"></path><path d="M47.6022 22.551C43.2481 25.0921 43.1081 30.6712 43.0461 33.1419C43.0311 33.7417 43.0206 34.1583 42.9556 34.3038C46.5801 31.1767 46.9619 27.6792 47.2723 24.8365C47.3624 24.0111 47.4465 23.2409 47.6022 22.551Z" fill="#F3F3F3"></path><path d="M54.9312 29.3028C52.7305 32.035 48.935 32.7783 46.4755 33.2599C45.4071 33.4691 44.5907 33.629 44.2668 33.8811C46.6294 28.9404 50.8806 29.1026 54.9312 29.3028Z" fill="#F3F3F3"></path><path d="M49.9397 34.0132C47.9403 37.1918 44.3956 38.3355 42.0707 39.0856C41.0474 39.4157 40.2604 39.6696 39.9455 39.9873C41.2444 36.407 44.0533 33.9595 49.9397 34.0132Z" fill="#F3F3F3"></path><path d="M45.6593 39.3775C44.4972 42.4871 39.5706 45.0166 37.4494 46.1057C36.8966 46.3896 36.5343 46.5756 36.479 46.6485C37.4345 42.8834 39.9385 40.0261 45.6593 39.3775Z" fill="#F3F3F3"></path><path d="M42.1203 45.3234C41.1206 48.9989 37.9489 50.9622 35.8335 52.2715C34.8875 52.8571 34.1528 53.3119 33.9181 53.7305C34.4464 49.0301 37.9451 46.0591 42.1203 45.3234Z" fill="#F3F3F3"></path><path d="M39.422 51.7002C38.8767 55.5354 36.115 57.7901 34.2296 59.3294C33.3282 60.0653 32.6272 60.6376 32.4642 61.141C32.4741 56.7369 34.9743 52.8999 39.422 51.7002Z" fill="#F3F3F3"></path><path d="M37.6792 58.3353C37.9447 61.8092 35.5535 64.5368 33.8614 66.4669C33.0346 67.41 32.3747 68.1627 32.2733 68.719C31.5388 63.8131 34.0993 59.8315 37.6792 58.3353Z" fill="#F3F3F3"></path><path d="M37.0163 65.0894C37.9518 68.3646 36.053 71.4467 34.6858 73.6662C34.01 74.7631 33.4641 75.6493 33.4543 76.2439C31.4894 71.0126 34.3667 66.6464 37.0163 65.0894Z" fill="#F3F3F3"></path><path d="M37.5722 71.8007C39.0389 74.7662 37.4855 79.0466 36.5811 81.5387C36.2298 82.5065 35.9764 83.2046 36.0359 83.4513C33.9165 79.7524 34.1647 74.5499 37.5722 71.8007Z" fill="#F3F3F3"></path><path d="M39.3667 78.2969C41.5136 81.1571 40.7227 84.7027 40.1509 87.2661C39.8714 88.5187 39.6444 89.5367 39.838 90.1256C36.4458 85.1062 37.3279 80.5596 39.3667 78.2969Z" fill="#F3F3F3"></path><path d="M42.3129 84.4317C45.0421 87.059 44.7348 90.6887 44.514 93.2973C44.4065 94.5673 44.3195 95.5953 44.6134 96.1477C40.7011 91.8275 40.5829 87.0904 42.3129 84.4317Z" fill="#F3F3F3"></path><path d="M46.292 90.1076C49.5225 92.1689 49.6178 95.9193 49.687 98.6423C49.7201 99.944 49.7472 101.011 50.108 101.546C45.1991 96.9181 45.2365 92.3853 46.292 90.1076Z" fill="#F3F3F3"></path><path d="M55.478 103.542C55.1815 100.864 54.7711 97.1564 51.1037 95.2702C50.224 97.8587 51.0719 102.198 56.1446 106.337C55.731 105.829 55.6171 104.799 55.478 103.542Z" fill="#F3F3F3"></path><path d="M52.4549 105.97C49.181 105.436 45.1161 104.774 41.5938 99.7188C43.4284 100.838 45.1584 101.242 46.8706 101.642C49.66 102.293 52.4021 102.933 55.4717 106.638C54.5931 106.318 53.5697 106.151 52.4549 105.97Z" fill="#F3F3F3"></path><path d="M46.8034 101.049C43.6927 100.288 39.6515 99.2998 36.5521 93.6518C38.241 94.9468 39.8961 95.5372 41.5396 96.1235C44.1946 97.0707 46.8193 98.007 49.5071 101.885C48.7513 101.526 47.8278 101.3 46.8034 101.049Z" fill="#F3F3F3"></path><path d="M41.5996 95.4714C38.557 94.364 34.4612 92.8733 32.3659 86.8465C33.85 88.4172 35.3588 89.1517 36.8845 89.8945C39.2453 91.0437 41.6467 92.2127 44.0599 96.5299C43.4067 96.1292 42.555 95.8192 41.5996 95.4714Z" fill="#F3F3F3"></path><path d="M37.2695 89.3086C34.5205 87.8612 30.4629 85.7248 29.296 79.3938C30.308 80.8967 31.6417 81.8601 33.0465 82.8748C35.2911 84.4961 37.7172 86.2485 39.3034 90.5426C38.8276 90.1289 38.1096 89.7509 37.2695 89.3086Z" fill="#F3F3F3"></path><path d="M33.9626 82.5921C31.4353 80.6414 27.4473 77.5632 27.5588 71.5063C28.4278 73.3619 29.4766 74.3405 30.5726 75.3631C32.2751 76.9516 34.0912 78.646 35.5228 83.8993C35.1606 83.5167 34.6095 83.0913 33.9626 82.5921Z" fill="#F3F3F3"></path><path d="M31.5245 75.1692C29.3973 72.9903 26.1366 69.6505 27.2131 63.4807C27.7767 65.3302 28.6166 66.4216 29.4866 67.5521C30.895 69.3822 32.3824 71.315 32.905 76.7327C32.6048 76.2758 32.1071 75.766 31.5245 75.1692Z" fill="#F3F3F3"></path><path d="M30.7966 67.9128C29.2184 65.7052 26.2263 61.5197 28.1728 55.586C28.4489 57.1163 29.1018 58.3667 29.7807 59.667C31.0154 62.0318 32.3362 64.5613 31.6322 69.2381C31.5276 68.9354 31.2107 68.4921 30.7966 67.9128Z" fill="#F3F3F3"></path><path d="M31.0133 60.0262C29.7578 57.5673 27.5585 53.26 30.2757 48.0117C30.3502 49.3985 30.7969 50.6013 31.2666 51.8659C32.1748 54.3115 33.1691 56.9885 31.7242 61.6747C31.661 61.2946 31.3767 60.7378 31.0133 60.0262Z" fill="#F3F3F3"></path><path d="M32.6383 52.8036C31.7637 50.2531 30.0396 45.2254 33.341 40.8478C33.2839 41.7366 33.518 42.7702 33.7849 43.948C34.3941 46.6376 35.1738 50.0792 33.0454 54.2665C33.0489 54.0007 32.8746 53.4924 32.6383 52.8036Z" fill="#F3F3F3"></path><path d="M35.2162 45.5389C34.6627 42.9523 33.6538 38.2376 37.2728 34.1431C37.1616 35.3379 37.3028 36.4324 37.4471 37.5511C37.779 40.1239 38.1274 42.8247 35.4609 47.1672C35.4945 46.8393 35.3738 46.2754 35.2162 45.5389Z" fill="#F3F3F3"></path><path d="M38.7281 39.0877C38.4638 36.5791 37.9355 31.5664 42.0532 27.9951C41.9146 28.9089 41.9153 29.8563 41.9159 30.8468C41.9178 33.6426 41.9198 36.782 38.7918 40.479C38.8494 40.2387 38.798 39.7506 38.7281 39.0877Z" fill="#F3F3F3"></path></svg> 