<?xml version="1.0" encoding="UTF-8"?> <svg xmlns="http://www.w3.org/2000/svg" width="24" height="24" viewBox="0 0 24 24" fill="none"><path d="M22.0198 8.43156H21.297V4.98694C21.297 4.44651 20.8573 4.00684 20.3168 4.00684H1.98015C1.43971 4.00684 1 4.44651 1 4.98694V15.4899C1 16.0303 1.43971 16.47 1.98015 16.47H2.70304V19.9146C2.70304 20.4551 3.14275 20.8947 3.68319 20.8947H22.0198C22.5603 20.8947 23 20.4551 23 19.9146V9.41172C23 8.87128 22.5603 8.43156 22.0198 8.43156ZM1.98015 15.7798C1.82028 15.7798 1.6902 15.6497 1.6902 15.4899V4.98694C1.6902 4.82708 1.82028 4.69703 1.98015 4.69703H20.3168C20.4767 4.69703 20.6068 4.82708 20.6068 4.98694V8.43156H19.5903V7.49982C19.5903 7.30924 19.4358 7.15472 19.2452 7.15472C18.5601 7.15472 18.0027 6.59735 18.0027 5.91221C18.0027 5.72163 17.8482 5.56711 17.6576 5.56711H4.63937C4.44879 5.56711 4.29427 5.72163 4.29427 5.91221C4.29427 6.59735 3.7369 7.15472 3.05176 7.15472C2.86118 7.15472 2.70666 7.30924 2.70666 7.49982L2.70304 15.7798H1.98015ZM14.0282 8.43156C13.4257 7.47469 12.3604 6.83721 11.1485 6.83721C9.93658 6.83721 8.87127 7.47469 8.2688 8.43156H3.68319C3.5836 8.43156 3.48748 8.4466 3.39686 8.47434V7.81408C4.18655 7.67119 4.81074 7.047 4.95359 6.2573H17.3433C17.4862 7.047 18.1104 7.67119 18.9001 7.81408V8.43156H14.0282ZM13.1667 8.43156H9.13027C9.62685 7.87716 10.3473 7.52741 11.1485 7.52741C11.9496 7.52741 12.6701 7.87716 13.1667 8.43156ZM22.3098 19.9146C22.3098 20.0745 22.1797 20.2045 22.0198 20.2045H3.68319C3.52332 20.2045 3.39323 20.0745 3.39323 19.9146V9.41172C3.39323 9.25185 3.52332 9.12176 3.68319 9.12176H22.0198C22.1797 9.12176 22.3098 9.25185 22.3098 9.41172V19.9146Z" fill="#9FCE10" stroke="#9FCE10" stroke-width="0.3"></path><path d="M20.9487 11.5798C20.2636 11.5798 19.7062 11.0224 19.7062 10.3373C19.7062 10.1467 19.5517 9.99219 19.3611 9.99219H6.34287C6.15229 9.99219 5.99777 10.1467 5.99777 10.3373C5.99777 11.0224 5.4404 11.5798 4.75525 11.5798C4.56468 11.5798 4.41016 11.7343 4.41016 11.9249V17.4021C4.41016 17.5926 4.56468 17.7472 4.75525 17.7472C5.4404 17.7472 5.99777 18.3045 5.99777 18.9897C5.99777 19.1803 6.15229 19.3348 6.34287 19.3348H19.3611C19.5517 19.3348 19.7062 19.1803 19.7062 18.9897C19.7062 18.3045 20.2636 17.7472 20.9487 17.7472C21.1393 17.7472 21.2938 17.5926 21.2938 17.4021V11.9249C21.2938 11.7343 21.1393 11.5798 20.9487 11.5798ZM20.6036 17.0878C19.8139 17.2307 19.1897 17.8549 19.0469 18.6446H6.65713C6.51423 17.8549 5.89005 17.2307 5.10035 17.0878V12.2391C5.89005 12.0962 6.51423 11.472 6.65708 10.6824H19.0469C19.1897 11.472 19.8139 12.0962 20.6036 12.2391V17.0878Z" fill="#9FCE10" stroke="#9FCE10" stroke-width="0.3"></path><path d="M12.8514 11.2617C10.976 11.2617 9.4502 12.7875 9.4502 14.6629C9.4502 16.5384 10.976 18.0641 12.8514 18.0641C14.7268 18.0641 16.2526 16.5384 16.2526 14.6629C16.2526 12.7875 14.7268 11.2617 12.8514 11.2617ZM12.8514 17.3739C11.3566 17.3739 10.1404 16.1578 10.1404 14.6629C10.1404 13.1681 11.3566 11.9519 12.8514 11.9519C14.3463 11.9519 15.5624 13.1681 15.5624 14.6629C15.5624 16.1578 14.3463 17.3739 12.8514 17.3739Z" fill="#9FCE10" stroke="#9FCE10" stroke-width="0.3"></path><path d="M12.6653 13.523H13.0376C13.2042 13.523 13.3398 13.6586 13.3398 13.8252C13.3398 14.0158 13.4943 14.1703 13.6849 14.1703C13.8755 14.1703 14.03 14.0158 14.03 13.8252C14.03 13.3321 13.6685 12.922 13.1966 12.8457V12.7719C13.1966 12.5813 13.042 12.4268 12.8515 12.4268C12.6609 12.4268 12.5064 12.5813 12.5064 12.7719V12.8457C12.0344 12.922 11.6729 13.3321 11.6729 13.8252V14.0168C11.6729 14.564 12.1181 15.0092 12.6653 15.0092H13.0376C13.2042 15.0092 13.3398 15.1448 13.3398 15.3115V15.503C13.3398 15.6696 13.2042 15.8052 13.0376 15.8052H12.6653C12.4987 15.8052 12.363 15.6696 12.363 15.503V15.4851C12.363 15.2945 12.2085 15.14 12.0179 15.14C11.8274 15.14 11.6729 15.2945 11.6729 15.4851V15.503C11.6729 15.9961 12.0344 16.4062 12.5064 16.4825V16.5563C12.5064 16.7469 12.6609 16.9014 12.8515 16.9014C13.042 16.9014 13.1966 16.7469 13.1966 16.5563V16.4825C13.6685 16.4062 14.03 15.9961 14.03 15.503V15.3115C14.03 14.7643 13.5848 14.319 13.0376 14.319H12.6653C12.4987 14.319 12.363 14.1834 12.363 14.0168V13.8252C12.363 13.6586 12.4987 13.523 12.6653 13.523Z" fill="#9FCE10" stroke="#9FCE10" stroke-width="0.3"></path><path d="M19.2311 14.3184H17.724C17.5334 14.3184 17.3789 14.4729 17.3789 14.6635C17.3789 14.854 17.5334 15.0086 17.724 15.0086H19.2311C19.4217 15.0086 19.5762 14.854 19.5762 14.6635C19.5762 14.4729 19.4217 14.3184 19.2311 14.3184Z" fill="#9FCE10" stroke="#9FCE10" stroke-width="0.3"></path><path d="M7.97916 14.3184H6.47205C6.28147 14.3184 6.12695 14.4729 6.12695 14.6635C6.12695 14.854 6.28147 15.0086 6.47205 15.0086H7.97916C8.16974 15.0086 8.32426 14.854 8.32426 14.6635C8.32426 14.4729 8.16974 14.3184 7.97916 14.3184Z" fill="#9FCE10" stroke="#9FCE10" stroke-width="0.3"></path></svg> 