<?xml version="1.0" encoding="UTF-8"?> <svg xmlns="http://www.w3.org/2000/svg" width="24" height="25" viewBox="0 0 24 25" fill="none"><path fill-rule="evenodd" clip-rule="evenodd" d="M23.6219 15.0819C22.2898 20.2576 17.5915 24.0819 12 24.0819C6.40848 24.0819 1.71018 20.2576 0.378052 15.0819H23.6219Z" fill="#FFCE00"></path><path fill-rule="evenodd" clip-rule="evenodd" d="M23.6219 9.08191H0.378052C1.71018 3.90623 6.40848 0.0819092 12 0.0819092C17.5915 0.0819092 22.2898 3.90623 23.6219 9.08191Z" fill="black"></path><path fill-rule="evenodd" clip-rule="evenodd" d="M23.6219 15.0819C23.8687 14.123 24 13.1178 24 12.0819C24 11.046 23.8687 10.0408 23.6219 9.08191H0.378052C0.131259 10.0408 0 11.046 0 12.0819C0 13.1178 0.131259 14.123 0.378052 15.0819H23.6219Z" fill="#DD0000"></path><path fill-rule="evenodd" clip-rule="evenodd" d="M12 23.3819C18.2408 23.3819 23.3 18.3227 23.3 12.0819C23.3 5.84109 18.2408 0.781909 12 0.781909C5.75918 0.781909 0.7 5.84109 0.7 12.0819C0.7 18.3227 5.75918 23.3819 12 23.3819ZM12 24.0819C18.6274 24.0819 24 18.7093 24 12.0819C24 5.45449 18.6274 0.0819092 12 0.0819092C5.37258 0.0819092 0 5.45449 0 12.0819C0 18.7093 5.37258 24.0819 12 24.0819Z" fill="#D9D9D9"></path></svg> 