<?xml version="1.0" encoding="UTF-8"?> <svg xmlns="http://www.w3.org/2000/svg" width="22" height="22" viewBox="0 0 22 22" fill="none"><path d="M2.64421 0C1.18298 0 0.000236407 1.18487 0 2.64279C0 4.10213 1.18274 5.28676 2.64445 5.28676C4.10213 5.28676 5.28653 4.10213 5.28653 2.64279C5.28653 1.18463 4.10189 0 2.64421 0Z" fill="#B4E913"></path><path d="M4.92286 7.29248H0.363281V21.9625H4.92286V7.29248Z" fill="#B4E913"></path><path d="M16.5314 6.92773C14.3135 6.92773 12.8262 8.14381 12.2175 9.297H12.1565V7.29251H7.78344H7.7832V21.9623H12.3388V14.705C12.3388 12.7918 12.7031 10.9386 15.0752 10.9386C17.4132 10.9386 17.4444 13.1268 17.4444 14.8277V21.962H22.0007V13.9157C22.0007 9.96603 21.1485 6.92773 16.5314 6.92773Z" fill="#B4E913"></path></svg> 