<?xml version="1.0" encoding="UTF-8"?> <svg xmlns="http://www.w3.org/2000/svg" width="18" height="18" viewBox="0 0 18 18" fill="none"><g clip-path="url(#clip0_478_59991)"><path fill-rule="evenodd" clip-rule="evenodd" d="M14.9531 15.75C16.8216 14.1009 18 11.6881 18 9C18 6.31194 16.8216 3.89913 14.9531 2.25H3.0469C1.17845 3.89913 0 6.31194 0 9C0 11.6881 1.17845 14.1009 3.0469 15.75H14.9531Z" fill="#CC0000"></path><path fill-rule="evenodd" clip-rule="evenodd" d="M15.8944 3.21469H2.10547C3.75642 1.24928 6.23229 0 8.99995 0C11.7676 0 14.2435 1.24928 15.8944 3.21469Z" fill="#CC0000"></path><path fill-rule="evenodd" clip-rule="evenodd" d="M16.6014 13.8206C15.0048 16.3329 12.197 17.9999 8.9999 17.9999C5.80277 17.9999 2.995 16.3329 1.39844 13.8206H16.6014Z" fill="#CC0000"></path><path fill-rule="evenodd" clip-rule="evenodd" d="M17.9489 9.9646C17.9827 9.64766 18 9.32581 18 8.99991H0C0 9.32581 0.017322 9.64766 0.0510954 9.9646H17.9489ZM17.7927 10.9293H0.207293C0.279074 11.2579 0.36881 11.5798 0.475422 11.894H17.5246C17.6312 11.5798 17.7209 11.2579 17.7927 10.9293ZM17.1345 12.8558H0.86552C1.02381 13.1892 1.202 13.5113 1.39853 13.8205H16.6015C16.798 13.5113 16.9762 13.1892 17.1345 12.8558ZM15.8945 14.7852H2.10551C2.39491 15.1297 2.70966 15.4523 3.04689 15.7499H14.9531C15.2903 15.4523 15.6051 15.1297 15.8945 14.7852ZM0.0510963 8.03521H17.9489C17.914 7.7081 17.8617 7.38621 17.7927 7.07053H0.207292C0.13834 7.38621 0.0859551 7.7081 0.0510963 8.03521ZM0.476371 6.10304H17.5236C17.412 5.77441 17.2818 5.45431 17.1345 5.14398H0.865519C0.718156 5.45431 0.588028 5.77441 0.476371 6.10304ZM1.39854 4.17929H16.6015C16.387 3.84181 16.1507 3.51958 15.8945 3.2146H2.10551C1.84933 3.51958 1.61301 3.84181 1.39854 4.17929Z" fill="white"></path><path fill-rule="evenodd" clip-rule="evenodd" d="M0.0526041 9.97874C0.0178379 9.65727 0 9.33072 0 9C0 4.02944 4.02944 0 9 0V9.97874H0.0526041Z" fill="#000066"></path><path d="M5.83606 4.32571L6.00481 5.4704L6.65168 4.51415L6.30293 5.61665L7.30137 5.03165L6.51106 5.8754L7.66418 5.7854L6.58699 6.20165L7.66418 6.6179L6.51106 6.5279L7.30137 7.37165L6.30293 6.78665L6.64887 7.89196L6.00199 6.9329L5.83324 8.07759L5.66731 6.9329L5.02043 7.88915L5.36918 6.78665L4.37074 7.37165L5.15824 6.5279L4.00512 6.6179L5.08512 6.20165L4.00793 5.7854L5.16106 5.8754L4.37074 5.03165L5.36918 5.61665L5.02043 4.51134L5.66731 5.4704L5.83606 4.32571ZM4.89949 4.37352C4.59495 4.23804 4.26137 4.18083 3.92908 4.2071C3.59679 4.23337 3.27635 4.34229 2.99687 4.52394C2.7174 4.7056 2.48777 4.95423 2.32886 5.24724C2.16996 5.54025 2.08681 5.86833 2.08699 6.20165C2.08681 6.53497 2.16996 6.86305 2.32886 7.15606C2.48777 7.44906 2.7174 7.6977 2.99687 7.87936C3.27635 8.06101 3.59679 8.16993 3.92908 8.1962C4.26137 8.22247 4.59495 8.16526 4.89949 8.02977C4.56325 8.27131 4.16688 8.41539 3.75402 8.44615C3.34117 8.47692 2.92782 8.39318 2.55949 8.20415C2.19159 8.01486 1.883 7.72779 1.66765 7.37451C1.4523 7.02122 1.33854 6.61539 1.33887 6.20165C1.339 5.78801 1.45317 5.38241 1.66881 5.02942C1.88445 4.67644 2.19322 4.38973 2.56119 4.2008C2.92917 4.01187 3.3421 3.92804 3.75462 3.95851C4.16714 3.98898 4.56327 4.13258 4.89949 4.37352Z" fill="#FFCC00"></path><path fill-rule="evenodd" clip-rule="evenodd" d="M9 17.475C13.6806 17.475 17.475 13.6806 17.475 9C17.475 4.31939 13.6806 0.525 9 0.525C4.31939 0.525 0.525 4.31939 0.525 9C0.525 13.6806 4.31939 17.475 9 17.475ZM9 18C13.9706 18 18 13.9706 18 9C18 4.02944 13.9706 0 9 0C4.02944 0 0 4.02944 0 9C0 13.9706 4.02944 18 9 18Z" fill="#D9D9D9"></path></g><defs><clipPath id="clip0_478_59991"><rect width="18" height="18" fill="white"></rect></clipPath></defs></svg> 