<?xml version="1.0" encoding="UTF-8"?> <svg xmlns="http://www.w3.org/2000/svg" width="124" height="30" viewBox="0 0 124 30" fill="none"><g clip-path="url(#clip0_176_21761)"><rect x="6.48828" y="5.9126" width="50.1635" height="19.8971" fill="#B4E913"></rect><path d="M18.5718 11.5117C14.4379 11.5117 12.501 12.7975 12.501 14.8818C12.501 16.9661 14.4355 18.34 18.5718 18.34C22.7081 18.34 24.6425 17.0101 24.6425 14.8818C24.6425 12.7535 22.7081 11.5117 18.5718 11.5117Z" fill="white"></path><path d="M45.0205 0.824118H17.9183C6.31623 0.824118 0 6.19518 0 15C0 23.8048 6.31623 29.1759 17.9183 29.1759H45.0205C56.6225 29.1759 62.9388 23.8024 62.9388 15C62.9388 6.19763 56.6225 0.824118 45.0205 0.824118ZM18.5719 23.1692C11.094 23.1692 6.87262 20.333 6.87262 14.8346C6.87262 9.3362 11.58 6.81109 18.5719 6.81109C25.5637 6.81109 30.2711 9.55908 30.2711 14.8346C30.2711 20.1102 26.0473 23.1692 18.5719 23.1692ZM54.7219 22.5055C54.7219 22.7724 54.5469 22.9488 54.282 22.9488H49.4434C49.1785 22.9488 49.0035 22.7724 49.0035 22.5055V16.2111C49.0035 13.2843 48.8285 12.0009 46.0556 12.0009C44.5173 12.0009 41.7006 12.356 39.4575 12.9757C39.2388 13.0198 39.1488 13.2426 39.1488 13.4631V22.5055C39.1488 22.7724 38.9739 22.9488 38.709 22.9488H33.8703C33.6054 22.9488 33.4305 22.7724 33.4305 22.5055V7.96466C33.4305 7.69769 33.6054 7.52135 33.8703 7.52135H37.7855C38.0504 7.52135 38.2254 7.65361 38.2691 7.87648L38.709 9.64969C38.7965 9.96074 39.0176 10.0048 39.2801 9.87257C42.3155 8.41041 46.3618 7.03642 49.3535 7.03642C53.6648 7.03642 54.7195 9.25293 54.7195 14.1733V22.5079L54.7219 22.5055Z" fill="white"></path><path d="M65.0082 14.4943H69.3243C69.5989 14.4943 69.7836 14.6805 69.7836 14.9572V22.9146C69.7836 23.1914 69.9683 23.3775 70.2429 23.3775H75.5214C75.7961 23.3775 75.9808 23.1914 75.9808 22.9146V14.9572C75.9808 14.6805 76.1655 14.4943 76.4401 14.4943H88.7906C89.0652 14.4943 89.25 14.3082 89.25 14.0314V10.0515C89.25 9.77475 89.0652 9.58861 88.7906 9.58861H76.4401C76.1655 9.58861 75.9808 9.40247 75.9808 9.12571C75.9808 7.18351 76.6223 6.53448 78.9189 6.53448C82.6834 6.53448 85.3008 6.7647 87.4127 6.99737C87.6873 7.04391 87.8258 6.81124 87.872 6.53448L88.3313 3.75955C88.3775 3.48279 88.1466 3.38973 87.872 3.29666C84.2922 2.23371 81.0308 0.982178 76.4401 0.982178C72.3548 0.982178 69.7836 3.85017 69.7836 7.78356V9.12571C69.7836 9.40247 69.5989 9.58861 69.3243 9.58861H65.0082C64.7335 9.58861 64.5488 9.77475 64.5488 10.0515V14.0314C64.5488 14.3082 64.7335 14.4943 65.0082 14.4943Z" fill="white"></path><path d="M97.6929 9.59155H92.4144C92.1607 9.59155 91.9551 9.7988 91.9551 10.0544V22.9176C91.9551 23.1732 92.1607 23.3805 92.4144 23.3805H97.6929C97.9466 23.3805 98.1522 23.1732 98.1522 22.9176V10.0544C98.1522 9.7988 97.9466 9.59155 97.6929 9.59155Z" fill="white"></path><path d="M95.0777 7.40144C97.2357 7.40144 98.796 5.82906 98.796 3.65418C98.796 1.47931 97.2357 0 95.0777 0C92.9196 0 91.3594 1.57238 91.3594 3.65418C91.3594 5.73599 92.9196 7.40144 95.0777 7.40144Z" fill="white"></path><path d="M101.733 23.3772H107.012C107.286 23.3772 107.471 23.1911 107.471 22.9143V13.4776C107.471 13.2474 107.563 13.0147 107.792 12.9682C110.132 12.3216 113.07 11.9493 114.679 11.9493C117.571 11.9493 117.756 13.2915 117.756 16.3456V22.9168C117.756 23.1935 117.941 23.3797 118.215 23.3797H123.54C123.815 23.3797 123.999 23.1935 123.999 22.9168V14.2173C123.999 9.08132 122.898 6.76929 118.123 6.76929C115 6.76929 110.776 8.20451 107.61 9.73035C107.335 9.86996 107.104 9.82342 107.012 9.50013L106.552 7.64854C106.506 7.41832 106.324 7.27872 106.047 7.27872H101.731C101.456 7.27872 101.271 7.46486 101.271 7.74161V22.9168C101.271 23.1935 101.456 23.3797 101.731 23.3797L101.733 23.3772Z" fill="white"></path></g><defs><clipPath id="clip0_176_21761"><rect width="123.999" height="30" fill="white"></rect></clipPath></defs></svg> 