<?xml version="1.0" encoding="UTF-8"?> <svg xmlns="http://www.w3.org/2000/svg" width="36" height="36" viewBox="0 0 36 36" fill="none"><path d="M15.5 5.45321V3.5H21.5V5.61715V6.02928L21.9045 6.10796C22.729 6.2683 23.3672 6.48738 24.1213 6.77597C25.8573 7.44036 27.2167 8.36339 28.2204 9.5344C29.0887 10.5474 29.6231 12.0569 29.7895 13.5H23.2043C23.1202 13.1874 22.9932 12.8566 22.8233 12.542C22.5758 12.0836 22.2203 11.6278 21.74 11.3236C20.8588 10.7306 19.6257 10.5 18 10.5C16.6656 10.5 15.4727 10.6645 14.6125 11.0938C14.2245 11.2821 13.8708 11.5022 13.6185 11.8164C13.3517 12.1486 13.2333 12.5405 13.2333 13C13.2333 13.2061 13.2602 13.4477 13.312 13.6799C13.3626 13.9073 13.4448 14.1608 13.5742 14.3711L13.5862 14.3906L13.6 14.409C13.8783 14.7801 14.3081 15.0471 14.822 15.2429L14.822 15.243L14.8291 15.2456C15.3739 15.4437 16.0982 15.5824 16.9823 15.6731L16.9823 15.6732L16.9944 15.6742L21.2611 16.0075L21.2624 16.0076C23.5909 16.1833 25.4229 16.5549 26.7785 17.1056C28.1354 17.6568 29.0606 18.3784 29.6115 19.2441L29.6115 19.2441L29.6159 19.2508C30.1837 20.1124 30.5 21.6238 30.5 23C30.5 24.6195 30.043 25.6355 29.0699 26.9048L29.0698 26.9048L29.0667 26.909C28.1306 28.1571 26.7994 29.1398 25.0467 29.8452C24.0521 30.2454 23.1103 30.5298 21.9273 30.7036L21.5 30.7664V31.1983V33.5H15.5V31.1194V30.6972L15.0838 30.6265C14.0474 30.4504 13.2223 30.1913 12.3125 29.8422C10.4665 29.1339 9.05666 28.1579 8.05578 26.9283C7.1526 25.799 6.65779 24.8252 6.53042 23.5H13.1631C13.2719 23.8689 13.4502 24.1743 13.6996 24.444C14.0213 24.7918 14.447 25.0625 14.9109 25.3386L14.9109 25.3387L14.9186 25.3431C15.8948 25.9009 17.304 26.5 19 26.5C20.5629 26.5 21.6927 25.977 22.4851 25.5921L22.4852 25.5922L22.4953 25.587C22.9404 25.3581 23.3044 25.0627 23.5565 24.6882C23.8112 24.3098 23.9333 23.8774 23.9333 23.409C23.9333 22.9131 23.7941 22.4612 23.5016 22.0778C23.1954 21.6535 22.7117 21.3641 22.1278 21.169C21.5585 20.9715 20.8109 20.8451 19.9048 20.7771C19.9046 20.7771 19.9043 20.7771 19.9041 20.7771L16.0749 20.4774C16.0744 20.4774 16.0739 20.4773 16.0734 20.4773C12.6452 20.1914 10.2586 19.4159 8.82063 18.2253C7.38815 17.017 6.5 15.0202 6.5 13C6.5 11.41 7.07585 10.4514 8.02095 9.29151C8.92892 8.17717 10.2223 7.31262 11.9318 6.71426L11.9318 6.71428L11.9352 6.71307C12.9357 6.35489 13.8806 6.10161 15.0639 5.94911L15.5 5.8929V5.45321Z" stroke="#9FCE10"></path></svg> 