<?xml version="1.0" encoding="UTF-8"?> <svg xmlns="http://www.w3.org/2000/svg" width="379" height="79" viewBox="0 0 379 79" fill="none"><path fill-rule="evenodd" clip-rule="evenodd" d="M365.429 0.894531C382.532 0.894531 382.532 26.4867 365.429 26.4867C348.388 26.5496 348.388 0.894531 365.429 0.894531ZM98.251 4.35294C99.9487 4.35294 101.458 4.66734 102.653 5.35903C103.784 6.05071 104.413 6.99391 104.476 8.12575C104.413 8.75455 104.099 9.32047 103.722 9.76064C103.281 10.1379 102.653 10.3894 102.024 10.3266C101.772 10.3266 101.521 10.2637 101.269 10.1379C100.955 10.0121 100.703 9.88639 100.515 9.63487C99.8858 8.88031 99.257 8.31438 98.3767 7.68558C97.4964 7.11966 96.4903 6.80527 95.4842 6.86815C94.541 6.86815 93.7236 7.18255 92.9061 7.81135C92.1516 8.37727 91.4599 9.25759 91.0197 10.3266C90.3281 12.5902 89.8879 14.9797 89.7621 17.3691C89.6364 18.6267 89.6364 19.8843 89.6364 20.8904V22.7768C89.6364 23.5314 89.6364 24.0344 89.7621 24.2859C89.8879 24.5375 90.2023 24.6632 90.7682 24.5375H97.9366C98.1881 24.789 98.251 25.0405 98.251 25.4807L98.1252 26.361L98.0623 26.6125C97.8737 26.864 97.685 27.0527 97.3706 27.1784H90.7053C90.1394 27.1155 89.825 27.3042 89.6993 27.5557C89.5735 27.7443 89.5735 28.2474 89.5735 29.0019V42.3954C89.5735 43.8417 89.5735 44.9735 89.6993 45.7281C89.825 46.4826 90.0137 47.0486 90.3281 47.363C90.6425 47.6145 91.2713 47.8031 92.0258 47.866L94.2266 48.0546C94.4781 48.2433 94.6039 48.4319 94.4781 48.8721C94.4153 49.1865 94.2895 49.5009 94.1637 49.6266L90.5167 49.3751H84.04L81.2104 49.6266C80.9589 49.438 80.896 49.1865 80.7703 48.8721C80.7703 48.4319 80.896 48.1804 81.1476 48.0546L82.5938 47.866C83.3484 47.8031 83.8514 47.6145 84.2287 47.2372C84.606 46.9857 84.7317 46.4826 84.8575 45.6652C85.0461 44.9106 85.0461 43.7788 84.9204 42.3325V28.9391C84.9832 28.1845 84.9832 27.6815 84.8575 27.5557C84.7317 27.3042 84.2916 27.1155 83.7256 27.1784H81.462C81.2733 26.9898 81.2104 26.864 81.2104 26.6754C81.1476 26.4239 81.2104 26.1723 81.2733 25.9837L83.9772 24.6632C84.2287 24.6003 84.4173 24.4117 84.606 24.2231C84.7946 23.9715 84.8575 23.72 84.8575 23.4056C84.8575 19.5699 85.5492 15.7971 86.8697 12.2758C87.4356 11.0811 88.1901 9.88638 89.0705 8.62878C90.0765 7.37118 91.397 6.3651 92.7804 5.61054C94.541 4.85598 96.3645 4.35294 98.251 4.35294ZM145.977 26.6125C146.04 26.864 146.166 27.0527 146.291 27.2413H147.989C148.618 27.1784 148.995 27.3671 149.184 27.6186C149.31 27.8072 149.373 28.3103 149.373 29.0648V43.4644C149.31 44.722 149.435 45.9167 149.813 46.8599C150.253 47.866 150.819 48.7463 151.762 49.3122C154.34 50.6327 157.421 50.5698 159.999 49.2494C161.131 48.6206 161.949 48.0546 162.452 47.3001C162.514 47.1114 162.514 46.9857 162.326 46.6713C162.263 46.4197 162.074 46.294 161.823 46.294C161.76 46.294 161.508 46.4826 161.131 46.6713C160.817 46.8599 160.502 47.0486 160.188 47.1114C160.062 47.1743 159.936 47.2372 159.874 47.3001C159.748 47.363 159.622 47.4258 159.559 47.4887C159.182 47.5516 158.867 47.5516 158.679 47.5516C157.358 47.4887 156.289 47.1743 155.661 46.4826C154.906 45.791 154.466 44.9106 154.34 43.9045C154.089 42.8985 154.026 41.7666 154.026 40.509V28.8133C154.026 28.2474 154.151 27.8072 154.277 27.5557C154.34 27.3042 154.654 27.2413 155.283 27.3042H162.2C162.514 27.0527 162.703 26.6125 162.703 26.0466C162.829 25.4807 162.64 24.9776 162.2 24.7261H155.283C154.78 24.7261 154.466 24.6632 154.34 24.5375C154.277 24.4746 154.151 24.1602 154.151 23.5314V20.6389C154.026 20.3874 153.774 20.2616 153.46 20.3245C153.145 20.1987 152.894 20.1987 152.768 20.3245C152.391 21.0162 151.951 21.645 151.51 22.3367C151.133 22.9655 150.693 23.4685 150.127 23.9715C149.813 24.2859 149.31 24.6632 148.492 24.9776C147.801 25.4178 147.046 25.6693 146.103 25.9208C146.04 26.1095 145.977 26.361 145.977 26.6125ZM119.379 31.077C119.379 31.58 119.379 31.9573 119.316 32.2088L119.19 32.4604L119.127 32.7748C119.064 32.9005 118.813 33.0263 118.184 33.0892C117.555 33.152 116.612 33.152 115.354 33.152H103.722C102.967 33.0263 102.527 33.1521 102.338 33.3407C102.087 33.5922 102.024 34.0952 102.087 34.8498C102.087 36.9877 102.527 38.8741 103.281 40.6977C104.853 44.4076 108.563 46.7342 112.525 46.5455C113.531 46.6713 114.474 46.3569 115.291 45.9796C116.298 45.5394 117.241 44.7849 118.184 43.5273C118.624 43.4015 118.876 43.5273 119.064 43.5901C119.253 43.7788 119.316 44.0303 119.442 44.2818C118.624 45.6023 117.807 46.7342 116.675 47.6774C113.028 50.3812 108.186 50.8842 104.099 48.9978C102.653 48.3062 101.332 47.3001 100.389 46.0425C98.6282 43.7159 97.7479 40.8234 97.8108 37.868C97.8108 35.2271 98.3138 32.9005 99.3199 30.7626C101.332 26.4868 105.608 23.7829 110.324 23.6571C112.21 23.72 113.845 24.0344 115.166 24.7261C116.423 25.4807 117.492 26.4239 118.247 27.5557C119.064 28.6876 119.379 29.8823 119.379 31.077ZM114.6 29.505C114.6 28.9391 114.411 28.3103 114.16 27.6815C113.845 27.0527 113.279 26.5496 112.588 26.2981C111.707 25.7951 110.701 25.6064 109.758 25.6064C108.5 25.6064 107.243 25.9208 106.3 26.5496C105.231 27.1784 104.35 27.8701 103.659 28.7504C103.093 29.505 102.715 30.2596 102.653 31.0141C102.653 31.1399 102.653 31.1399 102.715 31.2028C102.841 31.3285 102.904 31.3285 103.156 31.3285H107.557C109.884 31.3285 111.519 31.2028 112.525 31.1399C113.468 31.0141 113.971 30.9512 114.16 30.8255C114.285 30.6997 114.411 30.574 114.411 30.3853C114.537 30.0709 114.6 29.8194 114.6 29.505ZM139.375 23.9087C135.476 23.217 131.515 23.8458 127.993 25.7951C125.918 27.0527 124.158 28.8762 122.963 31.0141C121.139 34.724 120.888 39.0628 122.334 42.9613C123.026 44.5962 123.906 45.9167 124.975 46.9228C126.107 48.0546 127.427 48.8092 128.874 49.2494C131.64 50.3183 134.659 50.4441 137.488 49.5009C138.746 49.1236 140.066 48.3062 141.324 47.363C142.519 46.4198 143.462 45.1622 144.153 43.653C144.091 43.4015 143.965 43.15 143.776 43.0242C143.588 42.7727 143.336 42.647 143.022 42.7727C142.33 43.8417 141.45 44.722 140.381 45.4766C139.312 46.1682 137.928 46.4826 136.105 46.4826C132.206 46.6084 128.622 44.3447 127.05 40.7605C126.295 39.1885 125.855 37.5537 125.855 35.793C125.981 33.5293 126.358 31.6429 127.113 30.1338C127.93 28.6876 129.062 27.5557 130.383 26.8011C131.64 26.0466 133.087 25.6693 134.533 25.6693C135.79 25.6693 137.111 25.9837 138.243 26.6754C139.312 27.3042 140.129 27.9959 140.884 28.8762C141.072 29.0648 141.198 29.1906 141.387 29.2535H141.827C142.204 29.2535 142.519 29.002 142.77 28.5618C143.022 28.1216 143.21 27.5557 143.21 26.9269C143.21 26.4239 143.147 25.9208 142.959 25.4807C142.77 25.1034 142.581 24.7261 142.204 24.4746C141.324 24.4117 140.381 24.2231 139.375 23.9087ZM336.378 24.2859C336.127 24.3488 336.001 24.6632 335.938 24.9776C335.938 25.4178 336.001 25.6693 336.189 25.7951L338.139 26.1095C338.705 26.2352 339.082 26.361 339.333 26.5496C339.585 26.7383 339.711 26.864 339.711 27.1784C339.711 27.5557 339.522 28.3103 339.082 29.3792L339.019 29.5679L337.447 33.5293L335.309 38.5597L335.183 38.8741L333.8 41.8295C333.36 42.7727 333.108 43.15 332.983 43.15C332.417 41.9553 331.851 40.7605 331.411 39.5029L331.159 38.7484L329.21 32.9634L329.147 32.7748C328.895 32.2088 328.707 31.6429 328.581 31.077L328.204 29.9451L327.826 28.7504C327.638 28.1845 327.512 27.6186 327.512 27.0527C327.512 26.864 327.575 26.6754 327.764 26.5496H327.826L327.952 26.4867C328.141 26.4239 328.455 26.2981 328.832 26.2352L330.404 25.9208C330.656 25.7322 330.719 25.5435 330.656 25.1034C330.656 24.789 330.467 24.4746 330.279 24.4117C329.839 24.4746 329.336 24.4746 328.895 24.4746L327.449 24.6003H321.79C321.287 24.5375 320.784 24.5375 320.281 24.4746L318.835 24.4117C318.583 24.4746 318.394 24.789 318.394 25.1034C318.331 25.5435 318.394 25.7951 318.583 25.9208L320.218 26.2352C321.35 26.4867 322.104 26.9898 322.544 27.8072C322.985 28.5618 323.488 29.6936 323.865 31.1399L328.895 44.6591C329.273 45.791 329.587 46.6084 329.713 47.2372V47.3001C329.776 47.866 329.901 48.4319 329.901 48.9978C329.901 49.438 329.776 49.941 329.65 50.4441C329.587 50.8214 329.461 51.1987 329.336 51.5759V51.6388L329.273 51.7017C329.021 52.4562 328.518 53.4623 327.952 54.5942C327.323 55.8518 326.569 57.2351 325.626 58.6814C325.374 58.9958 325.123 59.2473 324.808 59.4988C324.431 59.6875 323.991 59.7504 323.551 59.7504H322.356C321.664 59.7504 321.098 60.0019 320.595 60.442C320.155 60.9451 319.903 61.6367 319.841 62.3284C319.841 63.083 320.092 63.7747 320.595 64.2777C321.098 64.7179 321.79 64.9694 322.607 64.9694C323.425 65.0952 324.116 64.9065 324.745 64.4664C325.5 64.0891 326.066 63.2087 326.695 62.014L327.701 59.8132L329.336 56.2919L330.467 53.7767L332.228 50.0668C333.108 47.9917 333.989 46.1054 334.869 44.3447L334.932 44.1561C335.812 42.4583 336.504 41.0121 336.944 39.8802L340.465 32.7119C341.597 30.5111 342.415 28.8762 343.169 27.8701C343.987 26.864 344.867 26.2352 345.81 25.9837L346.942 25.7951C347.193 25.5436 347.256 25.292 347.256 24.9776C347.131 24.6632 347.005 24.3488 346.753 24.2859L345.559 24.3488L344.364 24.4746H339.271L337.761 24.3488L336.378 24.2859ZM68.6973 22.9026C68.823 23.0283 68.823 23.1541 68.8859 23.2799V26.864C68.8859 27.1155 69.0117 27.3671 69.0746 27.4928C70.2064 26.5496 71.4011 25.6064 72.5959 24.8519C73.6648 24.0973 74.8595 23.72 76.0543 23.6571C76.8088 23.7829 77.5005 23.9715 78.0035 24.4117C78.6323 24.8519 78.821 25.4178 78.821 26.2981C78.7581 27.1784 78.3808 27.9959 77.8778 28.4989C77.3747 28.8762 76.7459 29.0648 76.1171 29.1277C75.7399 29.1277 75.4883 29.1277 75.2997 29.0019C75.2368 29.0019 75.1739 28.9391 75.1111 28.8762C74.9853 28.8133 74.8595 28.6876 74.7338 28.6247C74.2936 28.3103 73.7906 28.0588 73.2875 27.8701C72.8474 27.6815 72.4072 27.6186 71.967 27.6186C71.5269 27.5557 71.0867 27.6815 70.7094 27.9959C70.3322 28.1845 70.0178 28.5618 69.7662 28.9391C69.5147 29.3792 69.2003 29.9451 69.0746 30.8883C69.0117 31.7058 68.8859 32.649 68.8859 33.7808V42.3325C68.8859 43.7788 68.8859 44.9106 69.0117 45.6652C69.0746 46.4197 69.3261 46.9857 69.7662 47.3001C70.0178 47.5516 70.5837 47.7402 71.3382 47.8031L73.6648 47.9918C73.9163 48.1804 73.9792 48.369 73.9163 48.8092C73.9163 49.1236 73.7906 49.438 73.6019 49.5638L69.892 49.3122H63.4782L60.7744 49.5638C60.5858 49.3751 60.5229 49.1236 60.46 48.8092C60.3342 48.369 60.46 48.1175 60.7115 47.9918L61.9691 47.8031C62.6608 47.7402 63.1638 47.4887 63.4782 47.1743C63.7926 46.9228 64.107 46.4198 64.1699 45.6023C64.2957 44.8478 64.2957 43.7159 64.1699 42.2697V31.3285C64.2957 30.5111 64.2957 30.008 64.1699 29.5679C64.1699 29.1277 64.0442 28.6875 63.7926 28.3731C63.4782 27.9959 63.0381 27.7443 62.5979 27.5557L61.9691 27.0527C61.9062 26.9269 61.7805 26.8011 61.7805 26.5496C61.7805 26.2981 61.8433 25.9837 62.0949 25.9208L62.2835 25.8579C63.0381 25.6064 63.7926 25.2292 64.4843 24.8519L66.3078 23.9715L66.3707 23.9087C67.1882 23.5314 67.8798 23.217 68.32 22.8397C68.5086 22.8397 68.6344 22.8397 68.6973 22.9026ZM58.7622 32.2088C58.8251 31.9573 58.8251 31.5172 58.8251 31.077C58.8251 29.8194 58.4478 28.6247 57.6933 27.4928C56.8758 26.361 55.8697 25.4178 54.675 24.6632C53.3545 23.9715 51.7196 23.6571 49.8961 23.5943C47.5696 23.6571 45.243 24.3488 43.2308 25.6064C41.3444 26.864 39.8982 28.5618 38.8292 30.6368C37.1315 34.221 36.8171 38.2453 37.886 42.0181C38.7035 45.0364 40.7156 47.5516 43.5452 48.8721C45.1801 49.6266 47.0036 49.941 49.0787 50.0668C51.6568 50.0039 54.172 49.1236 56.247 47.6145C57.3789 46.6713 58.1963 45.6023 58.9509 44.2189C58.888 43.9674 58.8251 43.653 58.6365 43.5273C58.3849 43.4015 58.0705 43.4015 57.819 43.4644C56.4985 45.3508 54.3606 46.4826 52.034 46.4826C48.0726 46.6713 44.3627 44.3447 42.8535 40.6348C42.0361 38.8112 41.6588 36.7991 41.6588 34.7869C41.5959 34.0324 41.6588 33.5293 41.9103 33.2778C42.099 33.0892 42.5391 33.0263 43.2308 33.0892H54.8637C56.1213 33.0892 57.0645 33.0892 57.6933 32.9634C58.3221 32.9005 58.5107 32.7748 58.6365 32.649L58.6993 32.3346C58.6993 32.4604 58.6993 32.3346 58.7622 32.2088ZM53.606 27.7443C53.9204 28.3731 54.0462 28.9391 53.9204 29.5679C53.9204 30.008 53.9205 30.2596 53.8576 30.3853C53.7947 30.6368 53.6689 30.6997 53.606 30.8255C53.4174 31.0141 52.8515 31.077 51.9083 31.1399C50.9651 31.2028 49.3302 31.3285 47.0665 31.3285H42.602C42.3505 31.3285 42.2876 31.3285 42.2247 31.2028C42.099 31.1399 42.099 31.1399 42.099 31.0141C42.2247 30.2596 42.5391 29.505 43.1051 28.7504C43.7967 27.8701 44.6142 27.1155 45.746 26.5496C46.7521 25.9208 47.9468 25.6064 49.1416 25.6064C50.462 25.6064 51.3424 25.8579 52.0969 26.2981C52.8515 26.6754 53.4174 27.1784 53.606 27.7443ZM273.121 22.9026C272.932 22.7768 272.743 22.7768 272.68 22.7768C272.115 23.217 271.486 23.5943 270.92 23.9087L269.914 24.4117C268.782 24.9776 267.587 25.5435 266.455 25.9208C266.267 25.9837 266.204 26.2352 266.204 26.5496C266.204 26.8011 266.267 26.9269 266.392 27.0527L266.958 27.3671L267.336 27.6186C267.65 27.933 268.027 28.1845 268.153 28.3731C268.405 28.6875 268.468 28.8762 268.468 29.1906L268.53 29.2535C268.593 29.5679 268.593 30.2596 268.593 30.9512V42.3954C268.656 43.8417 268.593 44.9735 268.468 45.7281C268.405 46.4826 268.216 46.9857 267.902 47.3001C267.587 47.6145 267.084 47.8031 266.267 47.9289L264.946 48.1175C264.758 48.3062 264.695 48.4948 264.758 48.935C264.758 49.2494 264.82 49.5638 265.072 49.6895L267.839 49.438H274.064L276.579 49.6895C276.831 49.5009 276.956 49.2494 276.956 48.935C276.956 48.4948 276.893 48.2433 276.705 48.1175L275.573 47.9289C274.818 47.866 274.252 47.6145 273.875 47.3001C273.498 46.8599 273.309 46.294 273.246 45.7281C273.184 44.9735 273.184 43.8417 273.184 42.3954V32.7748C273.184 31.3285 273.184 30.1338 274.001 28.9391C274.378 28.3103 275.196 27.7444 276.202 27.3042C277.145 26.864 278.151 26.7383 279.409 26.7383C281.484 26.8012 282.93 27.4299 283.873 28.4989C284.816 29.7565 285.319 31.3914 285.194 32.9634V42.3954C285.194 43.8417 285.194 44.9735 285.068 45.7281C285.068 46.294 284.816 46.8599 284.502 47.3001C283.999 47.6145 283.433 47.8031 282.804 47.9289L281.609 48.1175C281.421 48.3062 281.358 48.4948 281.358 48.935C281.421 49.2494 281.547 49.5638 281.735 49.6895L284.439 49.438H290.601L292.362 49.6266L293.494 49.7524C293.682 49.5638 293.808 49.3122 293.934 48.9978C293.934 48.5577 293.808 48.3062 293.62 48.1804L292.299 47.9918C291.67 47.9918 291.104 47.7402 290.601 47.363C290.224 46.9228 290.035 46.3569 289.973 45.791C289.91 45.0364 289.91 43.9046 289.91 42.4583V31.58C289.91 30.1338 289.658 28.8762 289.155 27.7443C288.652 26.5496 287.835 25.5436 286.829 24.8519C285.697 24.1602 284.376 23.8458 282.616 23.72C280.981 23.8458 279.472 24.1602 278.025 24.7261C276.579 25.3549 275.133 26.1095 273.749 26.9269C273.561 26.9269 273.435 26.864 273.372 26.7383C273.246 26.6125 273.246 26.4868 273.184 26.361V25.1034C273.184 24.6632 273.184 24.0973 273.246 23.4056C273.309 23.217 273.246 23.0283 273.121 22.9026ZM263.814 36.6104C263.814 39.0628 263.248 41.5151 262.117 43.653C261.048 45.6652 259.35 47.3001 257.401 48.4319C255.263 49.5638 252.873 50.1297 250.421 50.1297C248.157 50.1297 245.894 49.5638 243.881 48.5577C241.995 47.5516 240.486 46.0425 239.354 44.1561C238.096 42.081 237.468 39.6916 237.593 37.2392C237.593 34.5354 238.159 32.2088 239.354 30.1967C240.486 28.1845 242.184 26.5496 244.196 25.4807C246.145 24.3488 248.472 23.7829 250.987 23.72C253.188 23.7829 255.388 24.2859 257.401 25.292C259.35 26.4239 260.859 27.933 261.991 29.8823C263.123 31.8316 263.752 34.0952 263.814 36.6104ZM257.652 32.146C257.086 30.2595 256.206 28.7504 255.011 27.5557C253.879 26.2981 252.307 25.6064 250.358 25.6064C248.22 25.6064 246.459 26.5496 245.139 28.4989C243.818 30.2596 243.127 32.9634 243.001 36.4218C243.001 38.3711 243.315 40.2575 243.944 42.1439C244.51 43.9674 245.391 45.3508 246.648 46.5455C247.78 47.6774 249.289 48.2433 251.175 48.2433C252.999 48.2433 254.382 47.7402 255.514 46.6084C257.526 44.0303 258.532 40.8863 258.407 37.6165C258.47 35.793 258.218 33.9066 257.652 32.146ZM299.53 33.4036C299.782 33.2149 300.222 33.152 301.039 33.2149H312.861C314.119 33.2149 315.062 33.2149 315.628 33.0892C316.822 32.9005 316.822 32.2088 316.822 31.077C316.822 29.8194 316.382 28.6247 315.628 27.4928C314.936 26.4239 313.93 25.4807 312.609 24.6632C311.226 23.9715 309.591 23.6571 307.705 23.5943C302.989 23.6571 298.65 26.4239 296.575 30.6368C294.123 35.5415 294.5 41.3893 297.644 45.9167C298.587 47.1114 299.782 48.1175 301.354 48.8721C302.989 49.6266 304.812 49.941 306.824 50.0668C309.403 50.0039 311.918 49.1865 314.056 47.6145C315.187 46.6713 316.131 45.6023 316.948 44.2189C316.822 43.9674 316.759 43.653 316.508 43.5273C316.319 43.4644 316.068 43.3386 315.628 43.4644C314.684 44.722 313.741 45.4766 312.798 45.9167C311.981 46.294 311.037 46.6084 309.843 46.4826C307.516 46.4826 305.63 45.9796 304.121 44.8477C302.549 43.8417 301.354 42.3954 300.536 40.6348C299.593 38.5597 299.153 36.3589 299.279 34.0952C299.216 33.8437 299.342 33.5922 299.53 33.4036ZM300.348 31.3285C300.159 31.3285 300.096 31.3285 300.033 31.2028L299.908 31.1399V31.0141C300.033 30.2596 300.348 29.505 300.914 28.7504C301.605 27.8701 302.486 27.1155 303.492 26.5496C304.498 25.9208 305.755 25.6064 307.013 25.6064C308.208 25.6064 309.151 25.8579 309.843 26.2981C310.534 26.5496 311.1 27.0527 311.478 27.6815C311.729 28.3103 311.918 28.8762 311.855 29.505C311.855 29.9452 311.855 30.1967 311.792 30.3224C311.729 30.574 311.603 30.6368 311.54 30.7626C311.352 30.9512 310.786 31.0141 309.78 31.077C308.837 31.1399 307.139 31.2656 304.812 31.2656H300.348V31.3285ZM188.924 7.74846H191.188C192.948 7.74846 194.709 7.68559 196.47 7.55983C196.407 8.81743 196.658 10.3265 197.224 12.1501C197.916 13.9107 198.733 15.86 199.677 17.9351L206.908 32.3975L207.537 33.718C208.669 36.2332 209.863 38.6855 211.184 41.1378H211.372C212.316 39.6287 213.133 38.1196 213.888 36.4218L214.831 34.4725L216.151 31.58L222.125 19.5699L224.451 14.6653L225.458 12.4645C226.275 10.5781 226.778 8.94319 226.841 7.55983C228.413 7.68559 229.922 7.74846 231.557 7.74846H234.198L235.707 7.6227L237.216 7.55983C237.405 7.74847 237.468 7.9371 237.468 8.2515C237.593 8.62878 237.468 8.94319 237.279 9.06895L236.021 9.13183C234.701 9.32047 233.632 9.5091 233.066 9.88638C232.437 10.3265 231.997 11.0182 231.871 11.7728C231.683 12.9046 231.557 14.0365 231.62 15.1683V23.2799L231.808 27.8072L231.997 33.0263V33.0892C232.123 37.1764 232.249 41.2636 232.5 45.3508C232.689 46.9228 234.009 47.6145 235.393 47.7402L237.405 47.9289C237.593 48.1804 237.656 48.4319 237.593 48.7463C237.593 49.1236 237.468 49.3751 237.279 49.5638L233.443 49.3122H226.086L223.508 49.5009L222.125 49.6266C221.873 49.438 221.748 49.1236 221.81 48.8092C221.748 48.369 221.81 48.1175 221.999 47.9918L223.885 47.8031C225.395 47.6774 226.652 47.2372 226.904 45.6023C226.967 44.8478 227.092 43.8417 226.967 42.4583L226.778 16.1744H226.715C225.269 18.3752 223.885 21.3935 222.628 24.2231C221.936 25.6693 221.245 27.1784 220.616 28.436L217.157 35.3528L215.208 39.0628L214.265 40.8863C213.447 42.5841 212.693 44.219 211.938 45.9167C211.247 47.2372 210.806 48.369 210.366 49.3751L210.178 49.7524L210.052 49.8153C209.989 49.8153 209.989 49.8782 209.989 49.941C209.863 50.0039 209.737 50.0039 209.549 50.0039L209.297 49.941C209.297 49.8782 209.234 49.8782 209.234 49.8153C209.172 49.8153 209.109 49.7524 209.109 49.7524C208.794 48.5577 208.291 47.1743 207.537 45.6652C206.845 44.0932 206.09 42.5212 205.336 41.0121C204.644 39.4401 204.078 38.1824 203.575 37.1764L197.853 25.0405L195.904 20.7647L195.778 20.5131C195.212 18.8782 194.52 17.432 193.829 15.9858H193.64L193.452 19.5071L193.389 21.5821L193.011 27.1155L192.76 33.9695V34.0324C192.697 36.6733 192.571 39.2514 192.571 41.8295C192.445 43.4015 192.571 44.5333 192.823 45.4137C192.948 46.1682 193.2 46.7342 193.577 47.1114C194.017 47.4887 194.583 47.6774 195.338 47.7402L197.727 47.9289C197.979 48.1804 198.042 48.4319 198.042 48.7463C198.042 49.1236 197.916 49.3751 197.664 49.5638L194.269 49.3122H187.541L186.283 49.438L184.334 49.6266C184.145 49.438 184.019 49.1236 184.019 48.8092C183.957 48.369 184.019 48.1175 184.271 47.9918L185.591 47.8031C186.409 47.6774 187.101 47.4887 187.729 47.1743C188.232 46.9228 188.673 46.4826 188.924 45.8538C189.176 45.1622 189.364 44.0303 189.49 42.5841L189.679 40.5719L189.867 38.5597L189.993 36.862C190.056 36.0445 190.182 35.1642 190.182 34.1581L190.308 32.4604C190.37 31.3285 190.496 30.1338 190.496 28.8133L190.559 28.436C190.873 23.9087 191.125 19.3184 191.251 14.791C191.314 13.5334 191.251 12.5273 191.062 11.7099C190.936 11.0182 190.496 10.3894 189.867 10.0122C188.987 9.69775 188.044 9.38334 187.101 9.25758L186.095 9.1947C185.906 8.94318 185.843 8.62879 185.906 8.37726C185.969 7.99998 186.095 7.74846 186.283 7.68558C187.226 7.6227 188.044 7.68558 188.924 7.74846ZM8.58387 8.75455C8.45811 9.13183 8.64675 9.38334 8.89827 9.57198L11.0991 9.8235C12.0423 9.88638 12.734 10.1379 13.1112 10.5781C13.5514 10.8925 13.8029 11.5213 13.8658 12.4645C13.9916 13.4077 14.0544 14.7282 14.0544 16.6146V29.2535C15.7522 29.3164 17.45 29.3164 19.1477 29.2535V11.7728C19.022 11.0811 19.1477 10.5781 19.3364 10.1379C19.3993 9.88638 19.7137 9.63486 20.1538 9.5091C20.6569 9.44622 21.4743 9.44624 22.669 9.44624C25.9388 9.50912 28.3911 10.3894 30.1518 12.1501C31.8495 13.9107 32.7298 16.4259 32.7298 19.5071C32.7927 22.2738 32.1639 24.5375 30.6548 26.4239C29.3972 28.0588 27.5108 29.2535 24.9327 29.8194C22.4804 30.4482 18.9591 30.6997 14.2431 30.5739C10.1559 30.5111 5.69138 30.2596 0.849609 29.7565C6.2573 30.8884 10.2816 31.6429 12.7968 31.8944C16.9469 32.4604 21.097 32.3346 24.9327 31.7058C26.7562 31.4543 28.5798 31.0141 30.3404 30.3853C31.9753 29.5679 33.5473 28.6876 35.0564 27.6186C35.9996 26.9269 36.8799 25.8579 37.5716 24.4117C39.7724 19.2555 38.0747 13.219 33.5473 9.94927C31.9124 9.00607 30.1518 8.37726 28.3282 7.99998C26.3789 7.68558 24.0524 7.43406 21.4114 7.43406C18.8333 7.43406 16.5068 7.43407 14.4946 7.55983C12.4824 7.68559 10.596 7.74847 8.96115 7.87423C8.70963 8.12575 8.58387 8.44015 8.58387 8.75455ZM19.1477 34.0324V40.006C19.0849 42.1439 19.1477 43.7159 19.3364 44.8477C19.525 45.9796 19.9023 46.6084 20.5311 47.0486C21.0341 47.4258 21.9145 47.7402 23.2978 47.8031L24.9956 47.9918C25.1842 48.1804 25.2471 48.369 25.2471 48.8092C25.1842 49.1236 25.0585 49.438 24.9327 49.5638C23.4236 49.5009 21.9145 49.3751 20.4053 49.3122H12.9226L9.14979 49.5638C8.89827 49.3751 8.77251 49.1236 8.77251 48.8092C8.70963 48.4948 8.77251 48.1804 9.02403 47.9918L10.2816 47.8031C11.5392 47.7402 12.3567 47.3629 12.7968 46.9228C13.3628 46.5455 13.74 45.9167 13.8029 44.7849C13.9916 43.653 14.0544 42.0182 14.0544 39.9431V33.718C15.5636 34.0324 17.2613 34.0952 19.1477 34.0324Z" fill="#F01010"></path><path fill-rule="evenodd" clip-rule="evenodd" d="M273.055 73.8326V65.4696H271.609V63.5203H273.055V63.0801C273.055 61.7596 273.37 60.3763 274.313 59.5588C275.068 58.8043 276.136 58.5527 277.08 58.5527C277.771 58.5527 278.337 58.6785 278.777 58.8043L278.589 60.8164C278.212 60.6907 277.834 60.6278 277.457 60.6278C276.136 60.6278 275.696 61.6967 275.696 62.9543V63.4574H278.023V65.4067H275.696V73.7697H273.055V73.8326ZM189.739 59.7475H192.317V68.928C192.317 72.8265 190.431 74.147 187.601 74.147C186.847 74.147 185.966 74.0213 185.4 73.8326L185.715 71.7576C186.092 71.8833 186.721 72.0091 187.287 72.0091C188.796 72.0091 189.676 71.3174 189.676 68.8651V59.7475H189.739ZM206.088 70.8772C206.088 72.1348 206.151 73.078 206.214 73.9584H203.887L203.761 72.3864C203.321 73.1409 202.252 74.147 200.366 74.147C198.417 74.147 196.719 73.0152 196.719 69.7454V63.7718H199.36V69.3052C199.36 71.003 199.926 72.072 201.309 72.072C202.378 72.072 203.07 71.3174 203.321 70.7515C203.384 70.5 203.51 70.2484 203.51 69.934V63.8347H206.151V70.8772H206.088ZM213.005 72.2606C212.124 72.2606 210.993 71.8833 210.427 71.506L209.924 73.3925C210.678 73.8326 211.747 74.147 213.005 74.147C215.709 74.147 217.155 72.8265 217.155 70.9401C217.155 69.431 216.275 68.4878 214.451 67.7961C213.131 67.356 212.69 67.0416 212.69 66.3499C212.69 65.7211 213.193 65.2809 214.137 65.2809C215.08 65.2809 215.834 65.5953 216.275 65.8468L216.778 64.0233C216.149 63.7089 215.206 63.3945 214.074 63.3945C211.747 63.3945 210.238 64.8408 210.238 66.6643C210.238 67.859 211.056 68.928 213.005 69.6196C214.262 70.0598 214.703 70.3742 214.703 71.0659C214.64 71.8205 214.2 72.2606 213.005 72.2606ZM224.135 60.8793V63.5831H226.65V65.5324H224.135V70.1227C224.135 71.3803 224.449 72.0091 225.455 72.0091C225.832 72.0091 226.147 71.9462 226.524 71.8833L226.587 73.8955C226.21 74.0213 225.518 74.147 224.7 74.147C223.82 74.2099 223.003 73.8955 222.374 73.2667C221.808 72.6379 221.556 71.7576 221.556 70.3742V65.4696H220.047V63.5203H221.556V61.6339L224.135 60.8793ZM238.974 70.4371C238.911 70.1856 238.849 69.9969 238.849 69.7454V68.1734C238.849 67.9219 238.911 67.7332 238.974 67.4817C239.226 66.3499 240.169 65.5953 241.301 65.5324C242.999 65.5324 243.879 67.0416 243.879 68.8651C243.879 70.8773 242.873 72.2606 241.238 72.2606C240.169 72.1977 239.226 71.4432 238.974 70.4371ZM236.145 63.7089L236.208 67.1673V78.2342H238.849V72.8894H238.911C239.477 73.7069 240.546 74.2728 241.867 74.2728C244.193 74.2728 246.583 72.4493 246.583 68.8022C246.583 65.5953 244.571 63.5203 242.181 63.5203C240.609 63.5203 239.414 64.212 238.66 65.3438H238.597L238.471 63.7718H236.145V63.7089ZM256.769 67.7332C256.769 66.79 256.392 65.218 254.631 65.218C252.997 65.218 252.305 66.6643 252.179 67.7332H256.769ZM252.179 69.5568C252.242 71.4432 253.751 72.1977 255.386 72.1977C256.581 72.1977 257.461 72.0091 258.279 71.6947L258.656 73.4553C257.775 73.8326 256.518 74.0841 255.072 74.0841C251.676 74.0841 249.727 72.0091 249.727 68.8651C249.727 66.0355 251.487 63.3945 254.757 63.3945C258.153 63.3945 259.222 66.1612 259.222 68.362L259.159 69.431H252.179V69.5568ZM262.995 63.7089L263.057 66.9787V73.8326H265.635V68.6136L265.698 67.7961C265.95 66.6643 266.767 65.9097 268.025 65.9097C268.339 65.9097 268.591 65.9097 268.779 65.9726V63.5203C268.591 63.4574 268.402 63.4574 268.151 63.4574C267.082 63.4574 265.887 64.212 265.384 65.6582H265.258L265.195 63.7089H262.995ZM285.128 65.2809C286.889 65.2809 287.329 66.79 287.266 67.7961H282.739C282.865 66.7272 283.556 65.2809 285.128 65.2809ZM285.946 72.1977C284.248 72.1977 282.802 71.3803 282.739 69.5568H289.656L289.719 68.4878C289.719 66.2241 288.65 63.5203 285.254 63.5203C281.921 63.5203 280.224 66.2241 280.224 68.9908C280.224 72.1348 282.236 74.2099 285.568 74.2099C287.078 74.2099 288.272 73.8955 289.216 73.5182L288.838 71.7576C288.021 72.0091 287.14 72.1977 285.946 72.1977ZM301.289 73.5811C300.723 73.8326 299.591 74.147 298.333 74.147C295.063 74.147 292.925 72.072 292.925 68.928C292.925 65.9097 295.063 63.4574 298.773 63.4574C299.654 63.4574 300.534 63.646 301.351 63.9604L300.911 65.9097C300.282 65.5953 299.591 65.4696 298.899 65.5324C296.887 65.5324 295.692 66.9787 295.692 68.8651C295.692 71.003 297.138 72.1348 298.899 72.1348C299.842 72.1348 300.471 71.9462 300.974 71.7576L301.289 73.5811ZM308.142 63.5203V60.8793L305.627 61.6339V63.5203H304.181V65.4696H305.627V70.3742C305.627 71.6947 305.879 72.6379 306.382 73.2667C306.885 73.8326 307.639 74.147 308.583 74.147C309.4 74.147 310.029 74.0213 310.406 73.8955L310.343 71.8833C310.029 72.0091 309.652 72.072 309.337 72.0091C308.331 72.0091 308.08 71.3174 308.08 70.1227V65.5324H310.469V63.5831L308.142 63.5203Z" fill="black"></path><path fill-rule="evenodd" clip-rule="evenodd" d="M364.863 9.69608H363.165C363.102 9.69608 363.102 9.75895 363.039 9.82183C363.039 9.88471 363.04 9.9476 363.102 10.0105L363.291 10.0734L363.983 10.262C364.108 10.3878 364.234 10.5135 364.234 10.6393C364.234 10.8279 364.297 11.0166 364.234 11.331L364.171 12.8401L364.046 14.6007C364.046 15.5439 363.983 17.8076 363.731 18.4993C363.668 18.6251 363.543 18.7508 363.417 18.8766C363.228 18.9395 363.102 18.9395 362.914 18.9395L362.599 19.0023C362.536 19.0652 362.536 19.1281 362.536 19.191C362.536 19.2539 362.536 19.3167 362.662 19.3796L363.417 19.3167H364.989L365.743 19.3796C365.806 19.3167 365.806 19.3167 365.806 19.191C365.806 19.1281 365.806 19.0652 365.743 19.0023H365.24C365.052 19.0023 364.926 18.9395 364.8 18.8137C364.737 18.7508 364.737 18.6879 364.674 18.625C364.612 18.3106 364.549 17.9334 364.549 17.619V15.7954L364.611 14.2234L364.737 12.9658C364.737 12.5257 364.737 12.1484 364.8 11.7082L365.303 12.7143L365.743 13.7833L367.127 16.55L367.504 17.4303L368.07 18.4993L368.259 19.0652L368.384 19.4425C368.447 19.5054 368.573 19.5054 368.636 19.4425L369.013 18.5622C369.39 17.7447 369.768 16.9273 370.208 16.1098L371.465 13.5946C371.591 13.406 371.654 13.1545 371.78 12.903C371.968 12.4628 372.157 12.0855 372.409 11.7082V17.7447V18.4364C372.409 18.6251 372.346 18.7508 372.22 18.7508C372.157 18.8137 371.968 18.9395 371.717 18.9395L371.34 19.0023C371.277 19.0652 371.277 19.1281 371.277 19.191C371.277 19.2539 371.34 19.3167 371.403 19.3796L372.346 19.3167H374.044L374.924 19.3796C374.987 19.3796 375.05 19.3167 375.05 19.191C375.05 19.1281 375.05 19.0652 374.987 19.0023H374.547C374.358 18.9395 374.232 18.8766 374.044 18.8137C373.918 18.6879 373.855 18.5622 373.855 18.4364L373.792 17.8076C373.792 17.1159 373.729 16.3614 373.729 15.6068C373.729 14.8522 373.666 14.0977 373.603 13.406V11.5196L373.666 10.765C373.729 10.5764 373.792 10.4506 373.918 10.3249C374.106 10.1991 374.358 10.1362 374.609 10.1362H374.987V9.9476L374.924 9.75896L374.232 9.82183H372.597C372.597 10.1362 372.472 10.5135 372.283 10.9537L371.528 12.5886L370.145 15.3553C369.831 16.1099 369.453 16.8015 369.013 17.5561L368.007 15.5439L366.309 12.2113C366.121 11.7711 365.932 11.331 365.806 10.8908C365.68 10.5764 365.618 10.1991 365.618 9.88471H364.863V9.69608ZM356.814 17.053V18.1849C356.752 18.6879 356.437 18.8766 355.934 18.8766L355.62 18.9395C355.494 19.0652 355.494 19.2539 355.62 19.3167L357.443 19.2539L359.392 19.3167L359.518 19.1281L359.455 18.9395L359.078 18.8766C358.701 18.8766 358.512 18.8137 358.386 18.6879C358.261 18.5622 358.135 18.4364 358.135 18.1849C358.072 17.8076 358.072 17.4303 358.135 17.053V15.6697C357.632 15.6697 357.255 15.6697 356.877 15.6068L356.814 17.053ZM355.557 9.82183C355.557 9.88471 355.557 9.9476 355.62 10.0105L356.123 10.0734C356.311 10.0734 356.5 10.1991 356.626 10.262C356.751 10.3249 356.814 10.4506 356.814 10.7022L356.877 11.6454V14.6007H358.072V10.5764L358.135 10.1991C358.135 10.1362 358.261 10.0734 358.323 10.0734L358.952 10.0105C359.707 10.0105 360.273 10.1991 360.713 10.6393C361.09 11.0166 361.342 11.6454 361.342 12.337C361.342 13.0287 361.216 13.5318 360.902 13.9719C360.524 14.3492 360.084 14.6636 359.581 14.7265C358.952 14.8523 358.135 14.9151 357.066 14.9151C356.123 14.9151 355.054 14.8523 353.922 14.7265C355.179 14.978 356.123 15.1666 356.751 15.2295C358.135 15.4182 359.518 15.2924 360.839 14.9151C361.153 14.7265 361.593 14.5378 361.971 14.2234C362.222 14.0348 362.411 13.7833 362.599 13.4689C362.725 13.1545 362.788 12.7772 362.851 12.337C362.851 11.8969 362.725 11.3938 362.536 11.0166C362.348 10.6393 362.033 10.3249 361.719 10.1362C361.405 9.94759 360.964 9.75896 360.461 9.69608C359.958 9.6332 359.455 9.57031 358.827 9.57031L357.192 9.6332L355.934 9.69608C355.62 9.69608 355.557 9.75895 355.557 9.82183Z" fill="white"></path></svg> 