<?xml version="1.0" encoding="UTF-8"?> <svg xmlns="http://www.w3.org/2000/svg" width="24" height="24" viewBox="0 0 24 24" fill="none"><g clip-path="url(#clip0_72_1528)"><path fill-rule="evenodd" clip-rule="evenodd" d="M12.0001 24C18.6275 24 24.0001 18.6274 24.0001 12C24.0001 5.37258 18.6275 0 12.0001 0C5.3727 0 0.00012207 5.37258 0.00012207 12C0.00012207 18.6274 5.3727 24 12.0001 24Z" fill="#C8102E"></path><path fill-rule="evenodd" clip-rule="evenodd" d="M10.3722 0.109489C9.46975 0.231885 8.59919 0.454602 7.77209 0.76604V10.6996H0.0697673C0.0237372 11.1267 0.00012207 11.5606 0.00012207 12C0.00012207 12.4391 0.0237102 12.8728 0.0696885 13.2997H7.77209V23.234C8.59919 23.5454 9.46975 23.7681 10.3722 23.8905V13.2997H23.9306C23.9765 12.8728 24.0001 12.4391 24.0001 12C24.0001 11.5606 23.9765 11.1267 23.9305 10.6996H10.3722V0.109489Z" fill="white"></path><path fill-rule="evenodd" clip-rule="evenodd" d="M12.0001 23.3C18.2409 23.3 23.3001 18.2408 23.3001 12C23.3001 5.75918 18.2409 0.7 12.0001 0.7C5.7593 0.7 0.700122 5.75918 0.700122 12C0.700122 18.2408 5.7593 23.3 12.0001 23.3ZM12.0001 24C18.6275 24 24.0001 18.6274 24.0001 12C24.0001 5.37258 18.6275 0 12.0001 0C5.3727 0 0.00012207 5.37258 0.00012207 12C0.00012207 18.6274 5.3727 24 12.0001 24Z" fill="#D9D9D9"></path></g><defs><clipPath id="clip0_72_1528"><rect width="24" height="24" fill="white"></rect></clipPath></defs></svg> 