<?xml version="1.0" encoding="UTF-8"?> <svg xmlns="http://www.w3.org/2000/svg" width="24" height="25" viewBox="0 0 24 25" fill="none"><rect x="2.5" y="9.4707" width="15" height="12" rx="1.5" stroke="#9FCE10"></rect><path fill-rule="evenodd" clip-rule="evenodd" d="M8 5.9751H20C20.5523 5.9751 21 6.42281 21 6.9751V15.9751C21 16.5274 20.5523 16.9751 20 16.9751H19.0605V17.9751H20C21.1046 17.9751 22 17.0797 22 15.9751V6.9751C22 5.87053 21.1046 4.9751 20 4.9751H8C6.89543 4.9751 6 5.87053 6 6.9751V7.9707H7V6.9751C7 6.42281 7.44772 5.9751 8 5.9751Z" fill="#9FCE10"></path><rect x="5" y="17.9751" width="10" height="1" fill="#9FCE10"></rect><rect x="5" y="15.9751" width="10" height="1" fill="#9FCE10"></rect><path d="M5.5 11.4741H8.5V14.4741H5.5V11.4741Z" stroke="#9FCE10"></path></svg> 