<?xml version="1.0" encoding="UTF-8"?> <svg xmlns="http://www.w3.org/2000/svg" width="131" height="31" viewBox="0 0 131 31" fill="none"><g clip-path="url(#clip0_176_9082)"><rect x="6" y="7" width="55" height="19" fill="#313131"></rect><path d="M68.4753 15.1498H73.0217C73.311 15.1498 73.5056 15.3444 73.5056 15.6336V23.9509C73.5056 24.2401 73.7001 24.4347 73.9894 24.4347H79.5496C79.8389 24.4347 80.0334 24.2401 80.0334 23.9509V15.6336C80.0334 15.3444 80.228 15.1498 80.5172 15.1498H93.5268C93.8161 15.1498 94.0107 14.9552 94.0107 14.666V10.5061C94.0107 10.2168 93.8161 10.0222 93.5268 10.0222H80.5172C80.228 10.0222 80.0334 9.82768 80.0334 9.53841C80.0334 7.50838 80.7092 6.82999 83.1284 6.82999C87.0937 6.82999 89.8508 7.07063 92.0754 7.31382C92.3646 7.36246 92.5106 7.11927 92.5592 6.82999L93.043 3.92958C93.0917 3.64031 92.8485 3.54303 92.5592 3.44575C88.7884 2.33474 85.353 1.02661 80.5172 1.02661C76.214 1.02661 73.5056 4.0243 73.5056 8.13556V9.53841C73.5056 9.82768 73.311 10.0222 73.0217 10.0222H68.4753C68.186 10.0222 67.9915 10.2168 67.9915 10.5061V14.666C67.9915 14.9552 68.186 15.1498 68.4753 15.1498Z" fill="white"></path><path d="M102.907 10.0249H97.3464C97.0792 10.0249 96.8625 10.2415 96.8625 10.5087V23.9535C96.8625 24.2207 97.0792 24.4374 97.3464 24.4374H102.907C103.174 24.4374 103.39 24.2207 103.39 23.9535V10.5087C103.39 10.2415 103.174 10.0249 102.907 10.0249Z" fill="white"></path><path d="M100.15 7.73614C102.423 7.73614 104.066 6.09266 104.066 3.81943C104.066 1.5462 102.423 0 100.15 0C97.8764 0 96.2329 1.64348 96.2329 3.81943C96.2329 5.99538 97.8764 7.73614 100.15 7.73614Z" fill="white"></path><path d="M19.5625 12.032C15.208 12.032 13.1677 13.376 13.1677 15.5545C13.1677 17.733 15.2054 19.1691 19.5625 19.1691C23.9195 19.1691 25.9572 17.779 25.9572 15.5545C25.9572 13.3299 23.9195 12.032 19.5625 12.032Z" fill="#B4E913"></path><path d="M47.4229 1.7229H18.8744C6.65328 1.7229 0 7.33685 0 16.5398C0 25.7428 6.65328 31.3568 18.8744 31.3568H47.4229C59.644 31.3568 66.2973 25.7403 66.2973 16.5398C66.2973 7.33941 59.644 1.7229 47.4229 1.7229ZM19.5631 24.2171C11.6861 24.2171 7.23951 21.2527 7.23951 15.5056C7.23951 9.75855 12.1981 7.11925 19.5631 7.11925C26.928 7.11925 31.8866 9.99151 31.8866 15.5056C31.8866 21.0197 27.4374 24.2171 19.5631 24.2171ZM57.6422 23.5233C57.6422 23.8024 57.4578 23.9867 57.1788 23.9867H52.082C51.8029 23.9867 51.6186 23.8024 51.6186 23.5233V16.9443C51.6186 13.8852 51.4343 12.5438 48.5134 12.5438C46.893 12.5438 43.926 12.915 41.5632 13.5626C41.3328 13.6087 41.2381 13.8417 41.2381 14.0721V23.5233C41.2381 23.8024 41.0538 23.9867 40.7747 23.9867H35.6779C35.3988 23.9867 35.2145 23.8024 35.2145 23.5233V8.32499C35.2145 8.04595 35.3988 7.86164 35.6779 7.86164H39.8019C40.081 7.86164 40.2653 7.99987 40.3114 8.23283L40.7747 10.0862C40.8669 10.4113 41.0998 10.4574 41.3763 10.3192C44.5737 8.79089 48.836 7.35477 51.9873 7.35477C56.5286 7.35477 57.6396 9.67151 57.6396 14.8144V23.5259L57.6422 23.5233Z" fill="#B4E913"></path><path d="M107.165 24.4349H112.725C113.014 24.4349 113.209 24.2403 113.209 23.951V14.0876C113.209 13.847 113.306 13.6038 113.547 13.5551C116.012 12.8793 119.107 12.4902 120.801 12.4902C123.848 12.4902 124.042 13.893 124.042 17.0853V23.9536C124.042 24.2429 124.237 24.4374 124.526 24.4374H130.135C130.424 24.4374 130.619 24.2429 130.619 23.9536V14.8607C130.619 9.49251 129.459 7.07593 124.429 7.07593C121.139 7.07593 116.69 8.57605 113.355 10.1709C113.065 10.3168 112.822 10.2682 112.725 9.93026L112.241 7.99495C112.192 7.75431 112 7.6084 111.708 7.6084H107.162C106.873 7.6084 106.678 7.80295 106.678 8.09222V23.9536C106.678 24.2429 106.873 24.4374 107.162 24.4374L107.165 24.4349Z" fill="white"></path></g><defs><clipPath id="clip0_176_9082"><rect width="131" height="31" fill="white"></rect></clipPath></defs></svg> 