<?xml version="1.0" encoding="UTF-8"?> <svg xmlns="http://www.w3.org/2000/svg" width="24" height="25" viewBox="0 0 24 25" fill="none"><g clip-path="url(#clip0_24_71993)"><path fill-rule="evenodd" clip-rule="evenodd" d="M12 24.082C18.6274 24.082 24 18.7094 24 12.082C24 5.45461 18.6274 0.0820312 12 0.0820312C5.37258 0.0820312 0 5.45461 0 12.082C0 18.7094 5.37258 24.082 12 24.082Z" fill="#012169"></path><path fill-rule="evenodd" clip-rule="evenodd" d="M22.5997 6.45142L15 12.1195L22.5831 17.7437C22.0071 18.8181 21.2723 19.7947 20.41 20.642L12 14.3695L3.6052 20.6568C2.74269 19.8123 2.00707 18.8387 1.42959 17.7673L8.9625 12.157L1.37241 6.50415C1.93748 5.42972 2.66072 4.45145 3.51116 3.6003L11.9625 9.86953L20.4419 3.55359C21.2987 4.40172 22.0283 5.37805 22.5997 6.45142Z" fill="white"></path><path fill-rule="evenodd" clip-rule="evenodd" d="M20.8802 4.01086C21.1558 4.31393 21.4161 4.63115 21.6599 4.96132L14.6625 10.2445L14.7375 8.59452L20.8802 4.01086ZM1.69656 5.92708C1.91734 5.55829 2.15736 5.20234 2.41523 4.86061L8.96249 9.68202H6.71249L1.69656 5.92708ZM21.5823 19.3067C21.8255 18.9846 22.0529 18.6498 22.2632 18.3036L15.9 13.6195H13.8375L21.5823 19.3067ZM3.17828 20.2171L9.22499 15.682L8.99999 14.3695L2.40425 19.2888C2.64677 19.6113 2.90517 19.921 3.17828 20.2171Z" fill="#C8102E"></path><path fill-rule="evenodd" clip-rule="evenodd" d="M23.6219 15.082C23.8687 14.1232 24 13.1179 24 12.082C24 11.0461 23.8687 10.0409 23.6219 9.08203H15.0375V0.469801C14.0674 0.216737 13.0494 0.0820312 12 0.0820312C10.9776 0.0820312 9.98506 0.209892 9.0375 0.450497V9.08203H0.378052C0.131259 10.0409 0 11.0461 0 12.082C0 13.1179 0.131259 14.1232 0.378052 15.082H9.0375V23.7136C9.98506 23.9542 10.9776 24.082 12 24.082C13.0494 24.082 14.0674 23.9473 15.0375 23.6943V15.082H23.6219Z" fill="white"></path><path fill-rule="evenodd" clip-rule="evenodd" d="M23.8602 13.9195C23.9522 13.3205 24 12.7068 24 12.082C24 11.4833 23.9561 10.8948 23.8715 10.3195H13.9307L13.9989 0.24776C13.3488 0.138764 12.681 0.0820312 12 0.0820312C11.4573 0.0820312 10.9229 0.118063 10.3993 0.187864L10.3307 10.3195H0.12852C0.0438522 10.8948 0 11.4833 0 12.082C0 12.7068 0.0477508 13.3205 0.139802 13.9195H10.3063L10.2384 23.9536C10.8133 24.0382 11.4015 24.082 12 24.082C12.6251 24.082 13.2391 24.0342 13.8384 23.9421L13.9063 13.9195H23.8602Z" fill="#C8102E"></path><path fill-rule="evenodd" clip-rule="evenodd" d="M12 23.382C18.2408 23.382 23.3 18.3228 23.3 12.082C23.3 5.84121 18.2408 0.782031 12 0.782031C5.75918 0.782031 0.7 5.84121 0.7 12.082C0.7 18.3228 5.75918 23.382 12 23.382ZM12 24.082C18.6274 24.082 24 18.7094 24 12.082C24 5.45461 18.6274 0.0820312 12 0.0820312C5.37258 0.0820312 0 5.45461 0 12.082C0 18.7094 5.37258 24.082 12 24.082Z" fill="#D9D9D9"></path></g><defs><clipPath id="clip0_24_71993"><rect y="0.0820312" width="24" height="24" fill="white"></rect></clipPath></defs></svg> 