<?xml version="1.0" encoding="UTF-8"?> <svg xmlns="http://www.w3.org/2000/svg" width="180" height="22" viewBox="0 0 180 22" fill="none"><path d="M22.8656 7.89014H31.667V9.52863H28.2015V18.7651H26.302V9.52863H22.8511L22.8656 7.89014ZM31.29 10.8916H32.914V12.4141H32.943C33.001 12.1966 33.1025 11.9936 33.2475 11.7906C33.3925 11.5876 33.5665 11.3991 33.784 11.2396C33.987 11.0656 34.219 10.9351 34.48 10.8336C34.7265 10.7321 34.9875 10.6741 35.2485 10.6741C35.4515 10.6741 35.5965 10.6886 35.669 10.6886C35.7415 10.7031 35.8285 10.7176 35.901 10.7176V12.3851C35.785 12.3561 35.6545 12.3416 35.524 12.3271C35.3935 12.3126 35.2775 12.2981 35.147 12.2981C34.857 12.2981 34.5815 12.3561 34.3205 12.4721C34.0595 12.5881 33.842 12.7621 33.639 12.9796C33.4505 13.2116 33.291 13.4871 33.175 13.8206C33.059 14.1541 33.001 14.5456 33.001 14.9806V18.7216H31.261L31.29 10.8916ZM43.8759 18.7651H42.1649V17.6631H42.1359C41.9184 18.0691 41.5994 18.3736 41.179 18.6201C40.7585 18.8666 40.3235 18.9826 39.8885 18.9826C38.859 18.9826 38.105 18.7361 37.641 18.2141C37.177 17.7066 36.945 16.9236 36.945 15.8941V10.8916H38.685V15.7201C38.685 16.4161 38.8155 16.9091 39.091 17.1846C39.352 17.4746 39.729 17.6196 40.2075 17.6196C40.57 17.6196 40.8745 17.5616 41.121 17.4456C41.3675 17.3296 41.5705 17.1846 41.7155 16.9961C41.8749 16.8076 41.9764 16.5756 42.0489 16.3146C42.1214 16.0536 42.1504 15.7636 42.1504 15.4591V10.8916H43.8904V18.7651H43.8759ZM46.8339 16.2421C46.8919 16.7496 47.0804 17.0976 47.4139 17.3151C47.7474 17.5181 48.1534 17.6196 48.6174 17.6196C48.7769 17.6196 48.9654 17.6051 49.1684 17.5761C49.3714 17.5471 49.5744 17.5036 49.7484 17.4311C49.9369 17.3586 50.0819 17.2571 50.1979 17.1121C50.3139 16.9671 50.3719 16.7931 50.3574 16.5756C50.3429 16.3581 50.2704 16.1696 50.1109 16.0246C49.9514 15.8796 49.7629 15.7781 49.5309 15.6766C49.2989 15.5896 49.0234 15.5171 48.7189 15.4591C48.4144 15.4011 48.1099 15.3286 47.7909 15.2561C47.4719 15.1836 47.1529 15.0966 46.8484 14.9951C46.5439 14.8936 46.2829 14.7631 46.0364 14.5746C45.8044 14.4006 45.6014 14.1831 45.4709 13.9076C45.3259 13.6321 45.2534 13.3131 45.2534 12.9071C45.2534 12.4721 45.3549 12.1241 45.5724 11.8341C45.7754 11.5441 46.0509 11.3121 46.3699 11.1381C46.6889 10.9641 47.0514 10.8336 47.4429 10.7611C47.8344 10.6886 48.2114 10.6596 48.5594 10.6596C48.9654 10.6596 49.3569 10.7031 49.7194 10.7901C50.0819 10.8771 50.4299 11.0076 50.7199 11.2106C51.0244 11.3991 51.2709 11.6601 51.4594 11.9646C51.6624 12.2691 51.7784 12.6461 51.8364 13.0811H50.0239C49.9369 12.6606 49.7484 12.3851 49.4584 12.2401C49.1539 12.0951 48.8204 12.0226 48.4289 12.0226C48.3129 12.0226 48.1534 12.0371 47.9939 12.0516C47.8199 12.0806 47.6749 12.1096 47.5154 12.1676C47.3704 12.2256 47.2399 12.3126 47.1384 12.4141C47.0369 12.5156 46.9789 12.6606 46.9789 12.8346C46.9789 13.0521 47.0514 13.2116 47.1964 13.3421C47.3414 13.4726 47.5299 13.5741 47.7764 13.6756C48.0084 13.7626 48.2839 13.8351 48.5884 13.8931C48.8929 13.9511 49.2119 14.0236 49.5309 14.0961C49.8499 14.1686 50.1544 14.2556 50.4589 14.3571C50.7634 14.4586 51.0389 14.5891 51.2709 14.7776C51.5029 14.9516 51.7059 15.1691 51.8509 15.4301C51.9959 15.6911 52.0684 16.0246 52.0684 16.4016C52.0684 16.8656 51.9669 17.2571 51.7494 17.5906C51.5319 17.9096 51.2564 18.1851 50.9229 18.3881C50.5894 18.5911 50.1979 18.7361 49.7919 18.8376C49.3714 18.9246 48.9654 18.9826 48.5594 18.9826C48.0664 18.9826 47.6024 18.9246 47.1819 18.8086C46.7614 18.6926 46.3844 18.5186 46.0799 18.3011C45.7754 18.0691 45.5289 17.7936 45.3549 17.4456C45.1809 17.1121 45.0794 16.7061 45.0649 16.2276H46.8194V16.2421H46.8339ZM52.5614 10.8916H53.8809V8.51363H55.6209V10.8771H57.1868V12.1676H55.6209V16.3726C55.6209 16.5611 55.6354 16.7061 55.6499 16.8511C55.6644 16.9816 55.7079 17.0976 55.7514 17.1846C55.8094 17.2716 55.8964 17.3441 55.9979 17.3876C56.1139 17.4311 56.2589 17.4601 56.4618 17.4601C56.5779 17.4601 56.7083 17.4601 56.8243 17.4456C56.9403 17.4311 57.0708 17.4166 57.1868 17.3876V18.7361C56.9983 18.7651 56.8098 18.7796 56.6213 18.7941C56.4328 18.8231 56.2589 18.8231 56.0559 18.8231C55.5919 18.8231 55.2294 18.7796 54.9539 18.6926C54.6784 18.6056 54.4609 18.4751 54.3014 18.3156C54.1419 18.1416 54.0404 17.9386 53.9824 17.6921C53.9244 17.4456 53.8954 17.1411 53.8809 16.8221V12.1821H52.5614V10.8626V10.8916ZM58.4048 10.8916H60.0433V11.9646H60.0723C60.3188 11.5006 60.6523 11.1816 61.0873 10.9786C61.5223 10.7756 61.9863 10.6741 62.5083 10.6741C63.1318 10.6741 63.6683 10.7756 64.1323 11.0076C64.5963 11.2251 64.9733 11.5151 65.2778 11.9066C65.5823 12.2836 65.8143 12.7331 65.9593 13.2406C66.1043 13.7481 66.1913 14.2991 66.1913 14.8646C66.1913 15.4011 66.1188 15.9086 65.9883 16.4016C65.8433 16.8946 65.6403 17.3441 65.3648 17.7211C65.0893 18.0981 64.7413 18.4026 64.3063 18.6346C63.8713 18.8666 63.3783 18.9826 62.7983 18.9826C62.5518 18.9826 62.2908 18.9536 62.0443 18.9101C61.7978 18.8666 61.5513 18.7941 61.3193 18.6926C61.0873 18.5911 60.8698 18.4606 60.6813 18.3011C60.4783 18.1416 60.3188 17.9531 60.1883 17.7501H60.1593V21.6795H58.4193V10.8916H58.4048ZM64.4803 14.8356C64.4803 14.4876 64.4368 14.1396 64.3353 13.8061C64.2483 13.4726 64.1033 13.1826 63.9148 12.9216C63.7263 12.6606 63.4943 12.4576 63.2333 12.2981C62.9578 12.1386 62.6388 12.0661 62.2908 12.0661C61.5658 12.0661 61.0148 12.3126 60.6378 12.8201C60.2753 13.3276 60.0868 14.0091 60.0868 14.8501C60.0868 15.2561 60.1303 15.6186 60.2318 15.9521C60.3333 16.2856 60.4638 16.5756 60.6668 16.8221C60.8553 17.0686 61.0873 17.2571 61.3628 17.4021C61.6383 17.5471 61.9428 17.6196 62.3053 17.6196C62.7113 17.6196 63.0303 17.5326 63.3058 17.3731C63.5813 17.2136 63.7988 16.9961 63.9873 16.7496C64.1613 16.4886 64.2918 16.1986 64.3643 15.8651C64.4368 15.5171 64.4803 15.1836 64.4803 14.8356ZM67.5398 7.89014H69.2798V9.52863H67.5398V7.89014ZM67.5398 10.8916H69.2798V18.7651H67.5398V10.8916ZM70.8313 7.89014H72.5712V18.7651H70.8313V7.89014ZM77.8782 18.9826C77.2547 18.9826 76.6892 18.8811 76.1962 18.6636C75.7032 18.4461 75.2972 18.1706 74.9492 17.8081C74.6157 17.4456 74.3547 16.9961 74.1807 16.4886C74.0067 15.9811 73.9052 15.4156 73.9052 14.8211C73.9052 14.2266 73.9922 13.6756 74.1807 13.1681C74.3547 12.6606 74.6157 12.2256 74.9492 11.8486C75.2827 11.4861 75.7032 11.1961 76.1962 10.9931C76.6892 10.7901 77.2547 10.6741 77.8782 10.6741C78.5017 10.6741 79.0672 10.7756 79.5602 10.9931C80.0532 11.1961 80.4592 11.4861 80.8072 11.8486C81.1407 12.2111 81.4017 12.6606 81.5757 13.1681C81.7497 13.6756 81.8512 14.2266 81.8512 14.8211C81.8512 15.4301 81.7642 15.9811 81.5757 16.4886C81.3872 16.9961 81.1407 17.4311 80.8072 17.8081C80.4737 18.1706 80.0532 18.4606 79.5602 18.6636C79.0672 18.8666 78.5162 18.9826 77.8782 18.9826ZM77.8782 17.6051C78.2552 17.6051 78.6032 17.5181 78.8787 17.3586C79.1687 17.1991 79.3862 16.9816 79.5747 16.7206C79.7632 16.4596 79.8937 16.1551 79.9807 15.8361C80.0677 15.5026 80.1112 15.1691 80.1112 14.8211C80.1112 14.4876 80.0677 14.1541 79.9807 13.8206C79.8937 13.4871 79.7632 13.1971 79.5747 12.9361C79.3862 12.6751 79.1542 12.4721 78.8787 12.3126C78.5887 12.1531 78.2552 12.0661 77.8782 12.0661C77.5012 12.0661 77.1532 12.1531 76.8777 12.3126C76.5877 12.4721 76.3702 12.6896 76.1817 12.9361C75.9932 13.1971 75.8627 13.4871 75.7757 13.8206C75.6887 14.1541 75.6452 14.4876 75.6452 14.8211C75.6452 15.1691 75.6887 15.5026 75.7757 15.8361C75.8627 16.1696 75.9932 16.4596 76.1817 16.7206C76.3702 16.9816 76.6022 17.1991 76.8777 17.3586C77.1677 17.5326 77.5012 17.6051 77.8782 17.6051ZM82.3732 10.8916H83.6927V8.51363H85.4327V10.8771H86.9986V12.1676H85.4327V16.3726C85.4327 16.5611 85.4472 16.7061 85.4617 16.8511C85.4762 16.9816 85.5197 17.0976 85.5632 17.1846C85.6212 17.2716 85.7082 17.3441 85.8097 17.3876C85.9257 17.4311 86.0707 17.4601 86.2737 17.4601C86.3897 17.4601 86.5202 17.4601 86.6362 17.4456C86.7522 17.4311 86.8827 17.4166 86.9986 17.3876V18.7361C86.8102 18.7651 86.6216 18.7796 86.4332 18.7941C86.2447 18.8231 86.0707 18.8231 85.8677 18.8231C85.4037 18.8231 85.0412 18.7796 84.7657 18.6926C84.4902 18.6056 84.2727 18.4751 84.1132 18.3156C83.9537 18.1416 83.8522 17.9386 83.7942 17.6921C83.7362 17.4456 83.7072 17.1411 83.6927 16.8221V12.1821H82.3732V10.8626V10.8916Z" fill="black"></path><path d="M94.8018 4.87939H110.778V20.8561H94.8018V4.87939ZM112.108 4.87939H128.084V20.8561H112.108V4.87939ZM129.413 4.87939H145.39V20.8561H129.413V4.87939ZM146.719 4.87939H162.696V20.8561H146.719V4.87939ZM164.028 4.87939H180.002V20.8561H164.025V4.87939H164.028Z" fill="#00B67A"></path><path d="M164.028 4.87939H180.001V20.8561H171.698V4.87939H164.028Z" fill="#E0E0E0"></path><path d="M102.788 15.6448L105.218 15.028L106.234 18.1565L102.788 15.6448ZM108.377 11.603H104.1L102.788 7.57471L101.473 11.603H97.1958L100.658 14.0976L99.3428 18.1259L102.805 15.6312L104.935 14.101L108.377 11.603ZM120.094 15.6448L122.524 15.028L123.54 18.1565L120.094 15.6448ZM125.687 11.603H121.41L120.094 7.57471L118.779 11.603H114.502L117.964 14.0976L116.649 18.1259L120.111 15.6312L122.241 14.101L125.687 11.603ZM137.4 15.6448L139.83 15.028L140.845 18.1565L137.4 15.6448ZM142.992 11.603H138.715L137.4 7.57471L136.084 11.603H131.807L135.27 14.0976L133.954 18.1259L137.417 15.6312L139.547 14.101L142.992 11.603ZM154.706 15.6448L157.136 15.028L158.151 18.1565L154.706 15.6448ZM160.298 11.603H156.021L154.706 7.57471L153.39 11.603H149.113L152.576 14.0976L151.26 18.1259L154.723 15.6312L156.853 14.101L160.298 11.603ZM172.012 15.6448L174.441 15.028L175.457 18.1565L172.012 15.6448ZM177.604 11.603H173.327L172.012 7.57471L170.696 11.603H166.419L169.882 14.0976L168.566 18.1259L172.029 15.6312L174.159 14.101L177.604 11.603Z" fill="white"></path><path d="M20.8364 7.88926H12.8759L10.4254 0.320312L7.96045 7.88926L0 7.87476L6.43796 12.5582L3.97297 20.1272L10.4109 15.4437L16.8489 20.1272L14.3984 12.5582L20.8364 7.88926Z" fill="#00B67A"></path><path d="M14.9878 14.5875L14.4368 12.8765L10.4639 15.7619L14.9878 14.5875Z" fill="#005128"></path></svg> 