<?xml version="1.0" encoding="UTF-8"?> <svg xmlns="http://www.w3.org/2000/svg" width="197" height="16" viewBox="0 0 197 16" fill="none"><path d="M2.58146 7.956H7.08946C7.78013 7.956 8.33079 7.78333 8.74146 7.438C9.16146 7.09267 9.37146 6.63067 9.37146 6.052C9.37146 5.464 9.16146 5.002 8.74146 4.666C8.33079 4.32067 7.78013 4.148 7.08946 4.148H2.39946L2.98746 3.448V13.5H1.67146V3H7.13146C7.84079 3 8.46146 3.13067 8.99346 3.392C9.52546 3.644 9.94079 3.99867 10.2395 4.456C10.5475 4.91333 10.7015 5.44533 10.7015 6.052C10.7015 6.64933 10.5475 7.17667 10.2395 7.634C9.94079 8.09133 9.52546 8.45067 8.99346 8.712C8.46146 8.964 7.84079 9.09 7.13146 9.09H2.58146V7.956ZM4.90546 8.586H6.52946L10.9115 13.5H9.27346L4.90546 8.586ZM16.3242 13.682C15.4189 13.682 14.6162 13.5093 13.9162 13.164C13.2255 12.8093 12.6795 12.324 12.2782 11.708C11.8862 11.0827 11.6902 10.364 11.6902 9.552C11.6902 8.73067 11.8769 8.012 12.2502 7.396C12.6235 6.78 13.1415 6.29933 13.8042 5.954C14.4669 5.60867 15.2275 5.436 16.0862 5.436C16.9355 5.436 17.6775 5.62267 18.3122 5.996C18.9469 6.36933 19.4369 6.89667 19.7822 7.578C20.1369 8.25 20.3142 9.034 20.3142 9.93H12.6702V8.908H19.7682L19.0122 9.37C18.9842 8.782 18.8442 8.27333 18.5922 7.844C18.3402 7.41467 17.9995 7.08333 17.5702 6.85C17.1409 6.61667 16.6415 6.5 16.0722 6.5C15.4562 6.5 14.9195 6.626 14.4622 6.878C14.0049 7.12067 13.6455 7.466 13.3842 7.914C13.1322 8.362 13.0062 8.88933 13.0062 9.496C13.0062 10.1307 13.1509 10.6813 13.4402 11.148C13.7295 11.6147 14.1355 11.974 14.6582 12.226C15.1809 12.478 15.7969 12.604 16.5062 12.604C17.1502 12.604 17.7802 12.4967 18.3962 12.282C19.0215 12.0673 19.5815 11.7733 20.0762 11.4V12.408C19.5909 12.8 19.0122 13.1127 18.3402 13.346C17.6682 13.57 16.9962 13.682 16.3242 13.682ZM25.5501 12.898H25.0461L28.5321 5.618H29.9041L25.9841 13.5H24.5561L20.6221 5.618H22.0501L25.5501 12.898ZM31.1154 5.59L31.7594 5.702L32.4034 5.59V13.5H31.1154V5.59ZM31.7454 4.428C31.4841 4.428 31.2601 4.34867 31.0734 4.19C30.8961 4.022 30.8074 3.81667 30.8074 3.574C30.8074 3.322 30.8961 3.11667 31.0734 2.958C31.2601 2.79 31.4841 2.706 31.7454 2.706C32.0254 2.706 32.2541 2.79 32.4314 2.958C32.6088 3.11667 32.6974 3.322 32.6974 3.574C32.6974 3.81667 32.6088 4.022 32.4314 4.19C32.2541 4.34867 32.0254 4.428 31.7454 4.428ZM38.6504 13.682C37.745 13.682 36.9424 13.5093 36.2424 13.164C35.5517 12.8093 35.0057 12.324 34.6044 11.708C34.2124 11.0827 34.0164 10.364 34.0164 9.552C34.0164 8.73067 34.203 8.012 34.5764 7.396C34.9497 6.78 35.4677 6.29933 36.1304 5.954C36.793 5.60867 37.5537 5.436 38.4124 5.436C39.2617 5.436 40.0037 5.62267 40.6384 5.996C41.273 6.36933 41.763 6.89667 42.1084 7.578C42.463 8.25 42.6404 9.034 42.6404 9.93H34.9964V8.908H42.0944L41.3384 9.37C41.3104 8.782 41.1704 8.27333 40.9184 7.844C40.6664 7.41467 40.3257 7.08333 39.8964 6.85C39.467 6.61667 38.9677 6.5 38.3984 6.5C37.7824 6.5 37.2457 6.626 36.7884 6.878C36.331 7.12067 35.9717 7.466 35.7104 7.914C35.4584 8.362 35.3324 8.88933 35.3324 9.496C35.3324 10.1307 35.477 10.6813 35.7664 11.148C36.0557 11.6147 36.4617 11.974 36.9844 12.226C37.507 12.478 38.123 12.604 38.8324 12.604C39.4764 12.604 40.1064 12.4967 40.7224 12.282C41.3477 12.0673 41.9077 11.7733 42.4024 11.4V12.408C41.917 12.8 41.3384 13.1127 40.6664 13.346C39.9944 13.57 39.3224 13.682 38.6504 13.682ZM53.9643 12.898H53.4183L56.3863 5.618H57.7023L54.4123 13.5H53.0963L50.1143 6.164H50.7163L47.6923 13.5H46.3763L43.0863 5.618H44.4163L47.3983 12.898H46.8243L49.7503 5.618H51.0803L53.9643 12.898ZM66.3092 11.19C66.3092 11.694 66.1552 12.1327 65.8472 12.506C65.5486 12.8793 65.1052 13.1687 64.5172 13.374C63.9386 13.5793 63.2339 13.682 62.4032 13.682C61.5539 13.682 60.8026 13.5653 60.1492 13.332C59.5052 13.0893 59.0012 12.7533 58.6372 12.324C58.2732 11.8947 58.0772 11.3953 58.0492 10.826H59.3652C59.4212 11.19 59.5846 11.512 59.8552 11.792C60.1259 12.0627 60.4806 12.2727 60.9192 12.422C61.3579 12.5713 61.8572 12.646 62.4172 12.646C63.2292 12.646 63.8639 12.5247 64.3212 12.282C64.7879 12.03 65.0212 11.6893 65.0212 11.26C65.0212 10.924 64.8719 10.6767 64.5732 10.518C64.2746 10.35 63.7192 10.224 62.9072 10.14L61.3812 9.986C60.6252 9.91133 60.0186 9.776 59.5612 9.58C59.1132 9.37467 58.7912 9.12267 58.5952 8.824C58.3992 8.516 58.3012 8.17533 58.3012 7.802C58.3012 7.28867 58.4552 6.85933 58.7632 6.514C59.0806 6.15933 59.5192 5.89333 60.0792 5.716C60.6392 5.52933 61.2879 5.436 62.0252 5.436C62.8092 5.436 63.5046 5.548 64.1112 5.772C64.7272 5.996 65.2172 6.30867 65.5812 6.71C65.9452 7.11133 66.1459 7.57333 66.1832 8.096H64.8812C64.8346 7.79733 64.6946 7.52667 64.4612 7.284C64.2279 7.032 63.9012 6.83133 63.4812 6.682C63.0706 6.53267 62.5619 6.458 61.9552 6.458C61.2086 6.458 60.6252 6.56533 60.2052 6.78C59.7946 6.99467 59.5892 7.30733 59.5892 7.718C59.5892 8.01667 59.7246 8.25467 59.9952 8.432C60.2659 8.60933 60.7466 8.73533 61.4372 8.81L63.1732 8.992C63.9666 9.06667 64.5919 9.19733 65.0492 9.384C65.5066 9.57067 65.8286 9.81333 66.0152 10.112C66.2112 10.4107 66.3092 10.77 66.3092 11.19ZM68.7321 13.598C68.4895 13.598 68.2795 13.5093 68.1021 13.332C67.9248 13.1547 67.8361 12.94 67.8361 12.688C67.8361 12.4267 67.9201 12.212 68.0881 12.044C68.2655 11.8667 68.4801 11.778 68.7321 11.778C68.9935 11.778 69.2128 11.8667 69.3901 12.044C69.5675 12.212 69.6561 12.4267 69.6561 12.688C69.6561 12.94 69.5675 13.1547 69.3901 13.332C69.2128 13.5093 68.9935 13.598 68.7321 13.598ZM68.7321 8.18C68.4895 8.18 68.2795 8.09133 68.1021 7.914C67.9248 7.73667 67.8361 7.522 67.8361 7.27C67.8361 7.00867 67.9201 6.794 68.0881 6.626C68.2655 6.44867 68.4801 6.36 68.7321 6.36C68.9935 6.36 69.2128 6.44867 69.3901 6.626C69.5675 6.794 69.6561 7.00867 69.6561 7.27C69.6561 7.522 69.5675 7.73667 69.3901 7.914C69.2128 8.09133 68.9935 8.18 68.7321 8.18Z" fill="black"></path><path d="M86.1336 3V13.5H84.8176V3.518H85.4476L79.1616 10.546L79.1476 10.056H88.1776V11.148H78.0276V10.182L84.4676 3H86.1336ZM89.8992 13.598C89.7312 13.598 89.5772 13.5607 89.4372 13.486C89.2972 13.402 89.1852 13.29 89.1012 13.15C89.0266 13.01 88.9892 12.856 88.9892 12.688C88.9892 12.5107 89.0266 12.3567 89.1012 12.226C89.1852 12.086 89.2926 11.9787 89.4232 11.904C89.5632 11.82 89.7219 11.778 89.8992 11.778C90.0672 11.778 90.2166 11.82 90.3472 11.904C90.4872 11.9787 90.5992 12.086 90.6832 12.226C90.7672 12.366 90.8092 12.52 90.8092 12.688C90.8092 12.856 90.7672 13.01 90.6832 13.15C90.5992 13.2807 90.4872 13.388 90.3472 13.472C90.2166 13.556 90.0672 13.598 89.8992 13.598ZM97.2701 2.818C98.7448 2.818 99.8881 3.06533 100.7 3.56C101.521 4.04533 101.932 4.73133 101.932 5.618C101.932 6.43933 101.549 7.08333 100.784 7.55C100.019 8.00733 98.9455 8.22667 97.5641 8.208V7.914C99.0948 7.83933 100.275 8.04 101.106 8.516C101.946 8.992 102.366 9.69667 102.366 10.63C102.366 11.5913 101.923 12.3427 101.036 12.884C100.149 13.416 98.8941 13.682 97.2701 13.682C95.6461 13.682 94.3861 13.416 93.4901 12.884C92.6035 12.3427 92.1601 11.5913 92.1601 10.63C92.1601 9.69667 92.5801 8.992 93.4201 8.516C94.2601 8.03067 95.4408 7.83 96.9621 7.914V8.208C95.5995 8.22667 94.5308 8.00733 93.7561 7.55C92.9908 7.08333 92.6081 6.43933 92.6081 5.618C92.6081 4.73133 93.0141 4.04533 93.8261 3.56C94.6475 3.06533 95.7955 2.818 97.2701 2.818ZM97.2701 12.59C98.4741 12.59 99.4028 12.4173 100.056 12.072C100.719 11.7173 101.05 11.218 101.05 10.574C101.05 9.91133 100.723 9.42133 100.07 9.104C99.4261 8.77733 98.4928 8.614 97.2701 8.614C96.0381 8.614 95.1001 8.77733 94.4561 9.104C93.8121 9.43067 93.4901 9.92067 93.4901 10.574C93.4901 11.218 93.8168 11.7173 94.4701 12.072C95.1328 12.4173 96.0661 12.59 97.2701 12.59ZM97.2701 7.536C97.9515 7.536 98.5441 7.466 99.0481 7.326C99.5521 7.186 99.9395 6.98067 100.21 6.71C100.481 6.43 100.616 6.08933 100.616 5.688C100.616 5.128 100.322 4.68933 99.7341 4.372C99.1461 4.05467 98.3248 3.896 97.2701 3.896C96.2155 3.896 95.3941 4.05467 94.8061 4.372C94.2181 4.68933 93.9241 5.128 93.9241 5.688C93.9241 6.08933 94.0595 6.43 94.3301 6.71C94.6008 6.98067 94.9835 7.186 95.4781 7.326C95.9821 7.466 96.5795 7.536 97.2701 7.536Z" fill="black"></path><path d="M123.651 1.71783C123.863 1.2438 124.536 1.2438 124.747 1.71783L126.309 5.2226C126.396 5.41811 126.581 5.55234 126.794 5.57481L130.61 5.97757C131.126 6.03204 131.334 6.67195 130.948 7.01939L128.098 9.58821C127.939 9.73151 127.868 9.94871 127.913 10.1581L128.709 13.9118C128.817 14.4195 128.272 14.815 127.823 14.5557L124.499 12.6385C124.313 12.5316 124.085 12.5316 123.9 12.6385L120.576 14.5557C120.126 14.815 119.582 14.4195 119.689 13.9118L120.486 10.1581C120.53 9.94871 120.459 9.73151 120.3 9.58821L117.45 7.01939C117.064 6.67195 117.272 6.03204 117.788 5.97757L121.604 5.57481C121.817 5.55234 122.002 5.41811 122.089 5.2226L123.651 1.71783Z" fill="white"></path><path d="M139.651 1.71783C139.863 1.2438 140.536 1.2438 140.747 1.71783L142.309 5.2226C142.396 5.41811 142.581 5.55234 142.794 5.57481L146.61 5.97757C147.126 6.03204 147.334 6.67195 146.948 7.01939L144.098 9.58821C143.939 9.73151 143.868 9.94871 143.913 10.1581L144.709 13.9118C144.817 14.4195 144.272 14.815 143.823 14.5557L140.499 12.6385C140.313 12.5316 140.085 12.5316 139.9 12.6385L136.576 14.5557C136.126 14.815 135.582 14.4195 135.689 13.9118L136.486 10.1581C136.53 9.94871 136.459 9.73151 136.3 9.58821L133.45 7.01939C133.064 6.67195 133.272 6.03204 133.788 5.97757L137.604 5.57481C137.817 5.55234 138.002 5.41811 138.089 5.2226L139.651 1.71783Z" fill="white"></path><path d="M155.651 1.71783C155.863 1.2438 156.536 1.2438 156.747 1.71783L158.309 5.2226C158.396 5.41811 158.581 5.55234 158.794 5.57481L162.61 5.97757C163.126 6.03204 163.334 6.67195 162.948 7.01939L160.098 9.58821C159.939 9.73151 159.868 9.94871 159.913 10.1581L160.709 13.9118C160.817 14.4195 160.272 14.815 159.823 14.5557L156.499 12.6385C156.313 12.5316 156.085 12.5316 155.9 12.6385L152.576 14.5557C152.126 14.815 151.582 14.4195 151.689 13.9118L152.486 10.1581C152.53 9.94871 152.459 9.73151 152.3 9.58821L149.45 7.01939C149.064 6.67195 149.272 6.03204 149.788 5.97757L153.604 5.57481C153.817 5.55234 154.002 5.41811 154.089 5.2226L155.651 1.71783Z" fill="white"></path><path d="M171.651 1.71783C171.863 1.2438 172.536 1.2438 172.747 1.71783L174.309 5.2226C174.396 5.41811 174.581 5.55234 174.794 5.57481L178.61 5.97757C179.126 6.03204 179.334 6.67195 178.948 7.01939L176.098 9.58821C175.939 9.73151 175.868 9.94871 175.913 10.1581L176.709 13.9118C176.817 14.4195 176.272 14.815 175.823 14.5557L172.499 12.6385C172.313 12.5316 172.085 12.5316 171.9 12.6385L168.576 14.5557C168.126 14.815 167.582 14.4195 167.689 13.9118L168.486 10.1581C168.53 9.94871 168.459 9.73151 168.3 9.58821L165.45 7.01939C165.064 6.67195 165.272 6.03204 165.788 5.97757L169.604 5.57481C169.817 5.55234 170.002 5.41811 170.089 5.2226L171.651 1.71783Z" fill="white"></path><path d="M187.651 1.71783C187.863 1.2438 188.536 1.2438 188.747 1.71783L190.309 5.2226C190.396 5.41811 190.581 5.55234 190.794 5.57481L194.61 5.97757C195.126 6.03204 195.334 6.67195 194.948 7.01939L192.098 9.58821C191.939 9.73151 191.868 9.94871 191.913 10.1581L192.709 13.9118C192.817 14.4195 192.272 14.815 191.823 14.5557L188.499 12.6385C188.313 12.5316 188.085 12.5316 187.9 12.6385L184.576 14.5557C184.126 14.815 183.582 14.4195 183.689 13.9118L184.486 10.1581C184.53 9.94871 184.459 9.73151 184.3 9.58821L181.45 7.01939C181.064 6.67195 181.272 6.03204 181.788 5.97757L185.604 5.57481C185.817 5.55234 186.002 5.41811 186.089 5.2226L187.651 1.71783Z" fill="white"></path></svg> 