<?xml version="1.0" encoding="UTF-8"?> <svg xmlns="http://www.w3.org/2000/svg" width="22" height="15" viewBox="0 0 22 15" fill="none"><path d="M1.11443 6.68118L1.11433 6.68125L1.12066 6.69048C1.54186 7.30422 2.11672 7.77326 2.82905 8.10022C3.544 8.4284 4.35958 8.58468 5.26335 8.58468C6.17658 8.58468 6.99763 8.42874 7.71333 8.10022C8.27288 7.84338 8.74523 7.49844 9.12151 7.06373L6.06263 12.6729L5.65942 13.4123H6.5016H9.08782H9.38433L9.52655 13.1521L12.227 8.21231C12.0567 8.65672 11.9734 9.13836 11.9734 9.65209C11.9734 10.4414 12.1752 11.1598 12.5879 11.7909L12.5878 11.7909L12.5903 11.7947C13.0018 12.4119 13.5734 12.8825 14.2868 13.21L14.2896 13.2112C15.0133 13.5381 15.8327 13.6944 16.7368 13.6944C17.65 13.6944 18.4711 13.5385 19.1867 13.21C19.9001 12.8825 20.4717 12.4119 20.8832 11.7947L20.8857 11.7909C21.2984 11.1598 21.5001 10.4414 21.5001 9.65209C21.5001 8.85404 21.2992 8.13344 20.8832 7.50953C20.4717 6.89226 19.9001 6.42165 19.1867 6.09421C18.4711 5.76569 17.65 5.60975 16.7368 5.60975C15.8422 5.60975 15.0282 5.76646 14.3053 6.09294C13.6359 6.39523 13.0907 6.82053 12.6859 7.37281L15.9529 1.39658L16.3574 0.656741H15.5142H12.9123H12.6155L12.4733 0.917356L9.86426 5.70172C9.97308 5.33143 10.0267 4.93895 10.0267 4.52667C10.0267 3.73743 9.82493 3.02246 9.40981 2.39978C8.99829 1.78251 8.42668 1.3119 7.71333 0.98446C6.99763 0.655944 6.17658 0.5 5.26335 0.5C4.36879 0.5 3.55476 0.656709 2.83184 0.983189L2.83183 0.983181L2.82905 0.98446C2.11672 1.31143 1.54186 1.78047 1.12066 2.3942L1.12062 2.39418L1.11689 2.39978C0.701772 3.02246 0.5 3.73743 0.5 4.52667C0.5 5.32486 0.700965 6.04882 1.11443 6.68118ZM5.99313 3.76862L5.99991 3.77597L6.00698 3.78304C6.14864 3.92469 6.25239 4.15267 6.25239 4.54234C6.25239 4.91412 6.15246 5.14824 6.00354 5.30507C5.85975 5.44691 5.63596 5.54705 5.26335 5.54705C4.89386 5.54705 4.6707 5.44858 4.52678 5.30861C4.38626 5.15232 4.28999 4.91632 4.28999 4.54234C4.28999 4.14748 4.39151 3.91685 4.52667 3.77594C4.66937 3.62759 4.89491 3.52196 5.27902 3.52196C5.65004 3.52196 5.86128 3.62578 5.99313 3.76862ZM17.4666 8.87837L17.4665 8.87844L17.4735 8.88579C17.6244 9.04263 17.7258 9.27747 17.7258 9.65209C17.7258 10.0418 17.6221 10.2697 17.4804 10.4114C17.3368 10.555 17.1124 10.6568 16.7368 10.6568C16.3643 10.6568 16.1406 10.5568 15.9968 10.415C15.8633 10.2738 15.7634 10.0437 15.7634 9.65209C15.7634 9.27516 15.8612 9.0384 16.0035 8.88214C16.1483 8.73359 16.3697 8.63171 16.7368 8.63171C17.1221 8.63171 17.3367 8.73773 17.4666 8.87837Z" stroke="#9FCE10"></path></svg> 