<?xml version="1.0" encoding="UTF-8"?> <svg xmlns="http://www.w3.org/2000/svg" width="36" height="36" viewBox="0 0 36 36" fill="none"><path d="M8 15.5H8.5V15V10.5H10.5V15V15.5H11H12.5V28.5H11H10.5V29V33.5H8.5V29V28.5H8H6.5V15.5H8Z" stroke="#9FCE10"></path><path d="M16 11.5H16.5V11V6.5H18.5V11V11.5H19H20.5V24.5H19H18.5V25V29.5H16.5V25V24.5H16H14.5V11.5H16Z" stroke="#9FCE10"></path><path d="M24 7.5H24.5V7V2.5H26.5V7V7.5H27H28.5V20.5H27H26.5V21V25.5H24.5V21V20.5H24H22.5V7.5H24Z" stroke="#9FCE10"></path></svg> 