<?xml version="1.0" encoding="UTF-8"?> <svg xmlns="http://www.w3.org/2000/svg" width="122" height="30" viewBox="0 0 122 30" fill="none"><path d="M44.2956 1.65325H17.6298C6.21453 1.65325 0 7.02343 0 15.8268C0 24.6302 6.21453 30.0003 17.6298 30.0003H44.2956C55.7108 30.0003 61.9254 24.6277 61.9254 15.8268C61.9254 7.02588 55.7108 1.65325 44.2956 1.65325Z" fill="#B4EA10"></path><path d="M87.3572 9.5919H75.2055C74.9353 9.5919 74.7535 9.4058 74.7535 9.12909C74.7535 7.1872 75.3848 6.53827 77.6444 6.53827C81.3483 6.53827 83.9235 6.76846 86.0014 7.0011C86.2716 7.04762 86.4079 6.81498 86.4533 6.53827L86.9052 3.76381C86.9507 3.4871 86.7235 3.39404 86.4533 3.30099C82.9312 2.23821 79.7223 0.986893 75.2055 0.986893C71.186 0.986893 68.6562 3.85441 68.6562 7.78715V9.12909C68.6562 9.4058 68.4744 9.5919 68.2043 9.5919H63.9576C63.6874 9.5919 63.5057 9.77801 63.5057 10.0547V14.034C63.5057 14.3107 63.6874 14.4968 63.9576 14.4968H68.2043C68.4744 14.4968 68.6562 14.6829 68.6562 14.9596V22.9157C68.6562 23.1924 68.8379 23.3785 69.1081 23.3785H74.3016C74.5718 23.3785 74.7535 23.1924 74.7535 22.9157V14.9596C74.7535 14.6829 74.9353 14.4968 75.2055 14.4968H87.3572C87.6274 14.4968 87.8091 14.3107 87.8091 14.034V10.0547C87.8091 9.77801 87.6274 9.5919 87.3572 9.5919Z" fill="white"></path><path d="M96.1183 9.59172H90.9247C90.6751 9.59172 90.4728 9.79894 90.4728 10.0545V22.9155C90.4728 23.1711 90.6751 23.3784 90.9247 23.3784H96.1183C96.3678 23.3784 96.5702 23.1711 96.5702 22.9155V10.0545C96.5702 9.79894 96.3678 9.59172 96.1183 9.59172Z" fill="white"></path><path d="M93.5454 0C91.4221 0 89.887 1.57211 89.887 3.65358C89.887 5.73504 91.4221 7.40021 93.5454 7.40021C95.6687 7.40021 97.2038 5.82809 97.2038 3.65358C97.2038 1.47906 95.6687 0 93.5454 0Z" fill="white"></path><path d="M116.22 6.7706C113.148 6.7706 108.992 8.20559 105.877 9.73118C105.606 9.87076 105.379 9.82423 105.288 9.50099L104.836 7.64971C104.791 7.41953 104.612 7.27995 104.339 7.27995H100.092C99.8222 7.27995 99.6404 7.46606 99.6404 7.74277V22.9154C99.6404 23.1921 99.8222 23.3782 100.092 23.3782H105.286C105.556 23.3782 105.738 23.1921 105.738 22.9154V13.4778C105.738 13.2476 105.829 13.015 106.053 12.9685C108.356 12.322 111.247 11.9498 112.83 11.9498C115.675 11.9498 115.857 13.2917 115.857 16.3453V22.9154C115.857 23.1921 116.039 23.3782 116.309 23.3782H121.548C121.818 23.3782 122 23.1921 122 22.9154V14.2173C122 9.08225 120.917 6.7706 116.218 6.7706H116.22Z" fill="white"></path><path d="M48.5612 7.03535C45.6177 7.03535 41.6365 8.40912 38.65 9.87104C38.3893 10.0033 38.1741 9.9592 38.0881 9.6482L37.6553 7.87529C37.6122 7.6549 37.4377 7.52021 37.1794 7.52021H33.3273C33.0667 7.52021 32.8945 7.69653 32.8945 7.96344V22.5018C32.8945 22.7688 33.0667 22.9451 33.3273 22.9451H38.0881C38.3487 22.9451 38.5208 22.7688 38.5208 22.5018V13.461C38.5208 13.2381 38.6069 13.0177 38.8245 12.9736C41.0315 12.3541 43.8005 11.999 45.3164 11.999C48.0423 11.999 48.2169 13.2846 48.2169 16.2085V22.5018C48.2169 22.7688 48.389 22.9451 48.6497 22.9451H53.4104C53.671 22.9451 53.8432 22.7688 53.8432 22.5018V14.1686C53.8432 9.24905 52.8054 7.03291 48.5636 7.03291L48.5612 7.03535Z" fill="black"></path><path d="M18.2728 6.81496C11.3911 6.81496 6.76188 9.56249 6.76188 14.8372C6.76188 20.1118 10.9177 23.1704 18.2728 23.1704C25.6279 23.1704 29.7836 20.3347 29.7836 14.8372C29.7836 9.33965 25.152 6.81496 18.2728 6.81496ZM18.2728 18.3389C14.2055 18.3389 12.2997 17.0092 12.2997 14.8812C12.2997 12.7532 14.2031 11.5117 18.2728 11.5117C22.3425 11.5117 24.2458 12.7973 24.2458 14.8812C24.2458 16.9651 22.3425 18.3389 18.2728 18.3389Z" fill="black"></path></svg> 