<?xml version="1.0" encoding="UTF-8"?> <svg xmlns="http://www.w3.org/2000/svg" width="14" height="18" viewBox="0 0 14 18" fill="none"><path d="M13.5 7C13.5 7.83779 13.1129 8.91751 12.4665 10.1117C11.8281 11.2913 10.9708 12.5218 10.1042 13.6442C9.23911 14.7648 8.37277 15.7674 7.72209 16.4904C7.43138 16.8135 7.18419 17.0802 7 17.276C6.81581 17.0802 6.56862 16.8135 6.27791 16.4904C5.62723 15.7674 4.76089 14.7648 3.89578 13.6442C3.02923 12.5218 2.17191 11.2913 1.53347 10.1117C0.887108 8.91751 0.5 7.83779 0.5 7C0.5 3.41015 3.41015 0.5 7 0.5C10.5899 0.5 13.5 3.41015 13.5 7Z" stroke="#9FCE10"></path><circle cx="7" cy="7" r="2.5" stroke="#9FCE10"></circle></svg> 