<?xml version="1.0" encoding="UTF-8"?> <svg xmlns="http://www.w3.org/2000/svg" width="25" height="25" viewBox="0 0 25 25" fill="none"><path d="M13.3247 2.76731L13.3247 2.76731L12.9336 4.16095H12.4336V4.16238V10.0525V10.0551V12.4466V13.1089L13.0706 12.9274C13.0939 12.9208 13.1172 12.9134 13.1327 12.9086C13.1349 12.9078 13.137 12.9072 13.1389 12.9066C13.1556 12.9013 13.1651 12.8985 13.1726 12.8964C13.7335 12.7531 14.3326 12.8324 14.8579 13.1234L14.8642 13.1268L14.8706 13.1301C14.9143 13.1527 14.9604 13.1822 15.0304 13.2278C15.1721 13.3243 15.209 13.5166 15.1135 13.6584C15.0174 13.8011 14.8212 13.8404 14.6761 13.7433L14.6762 13.7432L14.6659 13.7367L14.6636 13.7352C14.6361 13.7178 14.6004 13.6951 14.5606 13.672L14.5606 13.6719L14.554 13.6682C14.1781 13.4572 13.7416 13.3942 13.328 13.4997C13.0194 13.577 12.7512 13.7446 12.5526 13.9781L12.4336 14.1182V14.302V19.9385C12.4336 20.5553 12.7663 21.0747 13.3247 21.336L13.3254 21.3363C13.6328 21.4796 13.9661 21.5522 14.3066 21.5522C15.5858 21.5522 16.6312 20.5158 16.6312 19.2332C16.6312 18.8885 16.5584 18.5514 16.4072 18.2364C16.3343 18.0838 16.3988 17.8984 16.5549 17.8241C16.7106 17.75 16.8977 17.8164 16.9719 17.9702C17.1021 18.2456 17.1883 18.5314 17.228 18.8264L17.2921 19.3023L17.7703 19.2574C19.0117 19.1409 19.9098 17.9971 19.9098 16.7038C19.9098 16.12 19.7295 15.5684 19.4154 15.1262L19.4142 15.1245L19.3751 15.0698L19.3752 15.0697L19.3673 15.0593C19.0961 14.7009 18.7278 14.4171 18.2892 14.2624L18.2884 14.2621C18.1273 14.2056 18.0426 14.0273 18.1001 13.8672L18.101 13.8646C18.157 13.706 18.3363 13.6187 18.5004 13.6773L18.502 13.6779C18.926 13.8275 19.3006 14.0752 19.6142 14.3946L19.8257 14.61L20.1148 14.5232C21.1413 14.2148 21.8336 13.1924 21.8336 12.051C21.8336 10.9096 21.1412 9.88708 20.1148 9.57875L19.8257 9.49191L19.6142 9.70729C19.3014 10.0259 18.9243 10.274 18.502 10.424C18.4659 10.4367 18.4308 10.4424 18.397 10.4424C18.2635 10.4424 18.1443 10.3599 18.1011 10.2374L18.1011 10.2374L18.1001 10.2347C18.0434 10.0766 18.1253 9.89803 18.291 9.8389L18.2916 9.8387C18.721 9.68485 19.0853 9.4088 19.3568 9.05653L19.3807 9.02556L19.3948 8.99977L19.3954 8.99903L19.4056 8.98614L19.415 8.9744L19.4237 8.96211C19.7361 8.52084 19.9098 7.97421 19.9098 7.39806C19.9098 6.10484 19.0118 4.96104 17.7703 4.84448L17.2926 4.79964L17.2281 5.27503C17.188 5.57079 17.1035 5.85826 16.9731 6.12942C16.9175 6.24386 16.8054 6.30996 16.6872 6.30996C16.6359 6.30996 16.5921 6.29978 16.5563 6.28234L16.5563 6.28232L16.5524 6.28043C16.3961 6.20606 16.3317 6.02041 16.4047 5.86791L16.4063 5.86444C16.5518 5.55455 16.6286 5.21928 16.6286 4.87125C16.6286 3.59225 15.5867 2.55225 14.304 2.55225C13.9624 2.55225 13.6326 2.62537 13.3247 2.76731Z" stroke="#9FCE10"></path><path d="M11.3413 21.3372L11.3413 21.3372L11.7324 19.9435H12.2324V19.9421V14.052V14.0494V11.6579V10.9956L11.5954 11.1771C11.5722 11.1837 11.5488 11.1911 11.5334 11.1959C11.5311 11.1967 11.529 11.1973 11.5271 11.1979C11.5104 11.2032 11.5009 11.206 11.4934 11.2081C10.9326 11.3514 10.3335 11.2721 9.80808 10.9811L9.80182 10.9777L9.79546 10.9744C9.75177 10.9518 9.70565 10.9223 9.63559 10.8766C9.49393 10.7802 9.45698 10.5879 9.55247 10.4461C9.64859 10.3034 9.84485 10.2641 9.98991 10.3612L9.98982 10.3613L10.0001 10.3678L10.0024 10.3693C10.0299 10.3867 10.0656 10.4094 10.1054 10.4325L10.1054 10.4326L10.112 10.4363C10.4879 10.6473 10.9244 10.7103 11.3381 10.6048C11.6467 10.5275 11.9149 10.3599 12.1134 10.1264L12.2324 9.98632V9.80252V4.16604C12.2324 3.54915 11.8997 3.02981 11.3414 2.76852L11.3406 2.76819C11.0332 2.62493 10.7 2.55225 10.3594 2.55225C9.08024 2.55225 8.0348 3.58872 8.0348 4.87125C8.0348 5.21603 8.10762 5.55313 8.25884 5.86814C8.33171 6.02064 8.2672 6.20612 8.1111 6.28042C7.95538 6.35452 7.7683 6.28806 7.69407 6.13428C7.56396 5.85885 7.47776 5.57306 7.43802 5.27812L7.37389 4.80219L6.89576 4.84708C5.65433 4.96363 4.75626 6.10742 4.75626 7.40065C4.75626 7.98449 4.93654 8.5361 5.2506 8.9783L5.25181 8.98L5.29096 9.03465L5.29082 9.03474L5.29871 9.04516C5.56995 9.40356 5.93819 9.68738 6.37679 9.8421L6.3776 9.84238C6.53877 9.89893 6.6234 10.0772 6.5659 10.2373L6.56499 10.2398C6.509 10.3985 6.32972 10.4858 6.16564 10.4272L6.16402 10.4266C5.74005 10.277 5.3654 10.0293 5.0518 9.70988L4.84029 9.49448L4.55118 9.58133C3.52477 9.88968 2.83242 10.9121 2.83242 12.0535C2.83242 13.1949 3.52478 14.2174 4.55118 14.5257L4.84029 14.6126L5.05179 14.3972C5.36466 14.0786 5.74171 13.8305 6.16398 13.6805C6.20008 13.6678 6.23521 13.6621 6.26904 13.6621C6.40256 13.6621 6.5217 13.7446 6.5649 13.8671L6.5649 13.8671L6.56587 13.8698C6.62265 14.0279 6.54067 14.2065 6.37502 14.2656L6.37445 14.2658C5.94505 14.4196 5.58076 14.6957 5.3092 15.048L5.28532 15.0789L5.27121 15.1047L5.27064 15.1055L5.26041 15.1184L5.25099 15.1301L5.2423 15.1424C4.92987 15.5837 4.75622 16.1303 4.75622 16.7064C4.75622 17.9997 5.65421 19.1434 6.89572 19.26L7.37338 19.3049L7.43791 18.8295C7.47806 18.5337 7.56253 18.2462 7.69294 17.9751C7.74848 17.8606 7.86059 17.7945 7.97878 17.7945C8.03013 17.7945 8.07387 17.8047 8.10969 17.8222L8.10968 17.8222L8.11366 17.8241C8.26989 17.8984 8.33435 18.0841 8.26132 18.2366L8.25968 18.24C8.11418 18.5499 8.03738 18.8852 8.03738 19.2332C8.03738 20.5122 9.07929 21.5522 10.362 21.5522C10.7036 21.5522 11.0334 21.4791 11.3413 21.3372Z" stroke="#9FCE10"></path></svg> 