<?xml version="1.0" encoding="UTF-8"?> <svg xmlns="http://www.w3.org/2000/svg" width="24" height="24" viewBox="0 0 24 24" fill="none"><path d="M6 6.00708V2.00708" stroke="#9FCE10" stroke-linecap="round" stroke-linejoin="round"></path><path d="M15 6.00708V2.00708" stroke="#9FCE10" stroke-linecap="round" stroke-linejoin="round"></path><circle cx="6" cy="10.0071" r="1" fill="#9FCE10"></circle><circle cx="9" cy="10.0071" r="1" fill="#9FCE10"></circle><circle cx="12" cy="10.0071" r="1" fill="#9FCE10"></circle><circle cx="15" cy="10.0071" r="1" fill="#9FCE10"></circle><circle cx="6" cy="13.0071" r="1" fill="#9FCE10"></circle><circle cx="9" cy="13.0071" r="1" fill="#9FCE10"></circle><circle cx="12" cy="13.0071" r="1" fill="#9FCE10"></circle><circle cx="15" cy="13.0071" r="1" fill="#9FCE10"></circle><circle cx="6" cy="16.0071" r="1" fill="#9FCE10"></circle><circle cx="9" cy="16.0071" r="1" fill="#9FCE10"></circle><circle cx="12" cy="16.0071" r="1" fill="#9FCE10"></circle><path d="M12 10.0071H15" stroke="#9FCE10" stroke-linecap="round" stroke-linejoin="round"></path><path d="M6 13.0071H12" stroke="#9FCE10" stroke-linecap="round" stroke-linejoin="round"></path><circle cx="17" cy="18.0071" r="4.5" stroke="#9FCE10"></circle><path fill-rule="evenodd" clip-rule="evenodd" d="M5 5.00708H16C17.1046 5.00708 18 5.90251 18 7.00708V13.1071C18.3478 13.1777 18.6825 13.2844 19 13.4231V7.00708C19 5.35023 17.6569 4.00708 16 4.00708H5C3.34315 4.00708 2 5.35023 2 7.00708V17.0071C2 18.6639 3.34315 20.0071 5 20.0071H12.416C12.2773 19.6896 12.1706 19.3549 12.1 19.0071H5C3.89543 19.0071 3 18.1116 3 17.0071V7.00708C3 5.90251 3.89543 5.00708 5 5.00708Z" fill="#9FCE10"></path><path d="M16.6696 16.477H17.1688C17.3922 16.477 17.5741 16.6588 17.5741 16.8822C17.5741 17.1378 17.7813 17.345 18.0368 17.345C18.2924 17.345 18.4995 17.1378 18.4995 16.8822C18.4995 16.2211 18.0147 15.6712 17.382 15.5688V15.4698C17.382 15.2143 17.1748 15.0071 16.9192 15.0071C16.6637 15.0071 16.4565 15.2143 16.4565 15.4698V15.5688C15.8237 15.6712 15.3389 16.221 15.3389 16.8822V17.1391C15.3389 17.8728 15.9359 18.4698 16.6696 18.4698H17.1688C17.3922 18.4698 17.5741 18.6517 17.5741 18.8751V19.1319C17.5741 19.3554 17.3922 19.5372 17.1688 19.5372H16.6696C16.4462 19.5372 16.2643 19.3554 16.2643 19.1319V19.108C16.2643 18.8524 16.0571 18.6452 15.8016 18.6452C15.5461 18.6452 15.3389 18.8524 15.3389 19.108V19.1319C15.3389 19.7931 15.8237 20.3431 16.4565 20.4454V20.5443C16.4565 20.7999 16.6637 21.0071 16.9192 21.0071C17.1748 21.0071 17.382 20.7999 17.382 20.5443V20.4454C18.0147 20.343 18.4995 19.7931 18.4995 19.1319V18.8751C18.4995 18.1414 17.9025 17.5444 17.1688 17.5444H16.6696C16.4462 17.5444 16.2643 17.3625 16.2643 17.1391V16.8822C16.2643 16.6588 16.4462 16.477 16.6696 16.477Z" fill="#9FCE10" stroke="#9FCE10" stroke-width="0.134088"></path></svg> 