<?xml version="1.0" encoding="UTF-8"?> <svg xmlns="http://www.w3.org/2000/svg" width="24" height="24" viewBox="0 0 24 24" fill="none"><g clip-path="url(#clip0_1_29722)"><path fill-rule="evenodd" clip-rule="evenodd" d="M20.0247 20.9223C22.4653 18.7257 24 15.5421 24 12C24 8.41592 22.4287 5.19883 19.9375 3H4.06253C1.57126 5.19883 0 8.41592 0 12C0 15.5421 1.53466 18.7257 3.97533 20.9223H20.0247Z" fill="#006A44"></path><path fill-rule="evenodd" clip-rule="evenodd" d="M23.6219 15C22.2898 20.1757 17.5915 24 12 24C6.40848 24 1.71018 20.1757 0.378052 15H23.6219Z" fill="#C1272D"></path><path fill-rule="evenodd" clip-rule="evenodd" d="M23.6219 9H0.378052C1.71018 3.82432 6.40848 0 12 0C17.5915 0 22.2898 3.82432 23.6219 9Z" fill="#FDB913"></path><path fill-rule="evenodd" clip-rule="evenodd" d="M12 23.3C18.2408 23.3 23.3 18.2408 23.3 12C23.3 5.75918 18.2408 0.7 12 0.7C5.75918 0.7 0.7 5.75918 0.7 12C0.7 18.2408 5.75918 23.3 12 23.3ZM12 24C18.6274 24 24 18.6274 24 12C24 5.37258 18.6274 0 12 0C5.37258 0 0 5.37258 0 12C0 18.6274 5.37258 24 12 24Z" fill="#D9D9D9"></path></g><defs><clipPath id="clip0_1_29722"><rect width="24" height="24" fill="white"></rect></clipPath></defs></svg> 