<?xml version="1.0" encoding="UTF-8"?> <svg xmlns="http://www.w3.org/2000/svg" width="348" height="167" viewBox="0 0 348 167" fill="none"><g clip-path="url(#clip0_671_89225)"><rect width="742" height="167" rx="15.7519" fill="#F9F9F9"></rect><g clip-path="url(#clip1_671_89225)"><path d="M19.6791 29.126V28.4344L21.7728 25.6174H22.8514L20.8021 28.4344L20.3009 28.2885H23.7967V29.126H19.6791ZM22.071 30.0586V29.126L22.1027 28.2885V27.4573H23.0734V30.0586H22.071ZM26.0899 30.1347C25.6839 30.1347 25.3307 30.0501 25.0304 29.8809C24.7343 29.7118 24.5059 29.4643 24.3452 29.1386C24.1845 28.813 24.1041 28.4111 24.1041 27.9332C24.1041 27.4214 24.1993 26.9879 24.3896 26.6326C24.5842 26.2773 24.8506 26.0066 25.189 25.8205C25.5316 25.6344 25.925 25.5413 26.3691 25.5413C26.6059 25.5413 26.8322 25.5667 27.0479 25.6174C27.2637 25.6682 27.4498 25.7443 27.6063 25.8458L27.2256 26.6008C27.1029 26.5162 26.9718 26.4591 26.8322 26.4295C26.6927 26.3957 26.5467 26.3788 26.3945 26.3788C26.0096 26.3788 25.705 26.4951 25.4809 26.7277C25.2567 26.9604 25.1446 27.3051 25.1446 27.7619C25.1446 27.838 25.1446 27.9226 25.1446 28.0157C25.1488 28.1087 25.1615 28.2018 25.1827 28.2948L24.8972 28.0284C24.9775 27.8634 25.0812 27.7259 25.208 27.616C25.3349 27.5018 25.4851 27.4172 25.6585 27.3622C25.8361 27.303 26.0307 27.2734 26.2422 27.2734C26.5298 27.2734 26.7878 27.3305 27.0162 27.4447C27.2446 27.5589 27.4265 27.7196 27.5619 27.9268C27.7014 28.1341 27.7712 28.3773 27.7712 28.6565C27.7712 28.9568 27.6951 29.219 27.5428 29.4432C27.3948 29.6631 27.1939 29.8344 26.9401 29.9571C26.6905 30.0755 26.4072 30.1347 26.0899 30.1347ZM26.0328 29.367C26.1766 29.367 26.3035 29.3417 26.4135 29.2909C26.5277 29.2359 26.6165 29.1577 26.68 29.0562C26.7434 28.9546 26.7751 28.8383 26.7751 28.7072C26.7751 28.5042 26.7053 28.3435 26.5658 28.225C26.4304 28.1024 26.2485 28.041 26.0201 28.041C25.8679 28.041 25.7346 28.0706 25.6204 28.1299C25.5062 28.1848 25.4153 28.2631 25.3476 28.3646C25.2842 28.4619 25.2525 28.5761 25.2525 28.7072C25.2525 28.8341 25.2842 28.9483 25.3476 29.0498C25.4111 29.1471 25.4999 29.2253 25.6141 29.2846C25.7283 29.3395 25.8679 29.367 26.0328 29.367ZM28.1057 30.0586V29.3924L29.8187 27.7746C29.9541 27.6519 30.0535 27.5419 30.1169 27.4447C30.1804 27.3474 30.2226 27.2586 30.2438 27.1782C30.2692 27.0978 30.2819 27.0238 30.2819 26.9561C30.2819 26.7785 30.2205 26.6431 30.0979 26.5501C29.9794 26.4528 29.8039 26.4042 29.5713 26.4042C29.3852 26.4042 29.2118 26.4401 29.051 26.512C28.8945 26.5839 28.7613 26.696 28.6513 26.8483L27.9027 26.3661C28.0719 26.1123 28.3087 25.9114 28.6133 25.7634C28.9178 25.6153 29.2689 25.5413 29.6664 25.5413C29.9964 25.5413 30.284 25.5963 30.5293 25.7063C30.7788 25.812 30.9713 25.9622 31.1066 26.1567C31.2462 26.3513 31.316 26.5839 31.316 26.8546C31.316 26.9984 31.297 27.1422 31.2589 27.286C31.2251 27.4256 31.1532 27.5737 31.0432 27.7302C30.9375 27.8867 30.781 28.0622 30.5737 28.2568L29.1525 29.5954L28.9559 29.2211H31.4619V30.0586H28.1057ZM33.8719 30.1347C33.4658 30.1347 33.1126 30.0501 32.8123 29.8809C32.5163 29.7118 32.2878 29.4643 32.1271 29.1386C31.9664 28.813 31.886 28.4111 31.886 27.9332C31.886 27.4214 31.9812 26.9879 32.1715 26.6326C32.3661 26.2773 32.6326 26.0066 32.9709 25.8205C33.3135 25.6344 33.7069 25.5413 34.151 25.5413C34.3879 25.5413 34.6142 25.5667 34.8299 25.6174C35.0456 25.6682 35.2317 25.7443 35.3882 25.8458L35.0075 26.6008C34.8849 26.5162 34.7537 26.4591 34.6142 26.4295C34.4746 26.3957 34.3287 26.3788 34.1764 26.3788C33.7915 26.3788 33.487 26.4951 33.2628 26.7277C33.0386 26.9604 32.9265 27.3051 32.9265 27.7619C32.9265 27.838 32.9265 27.9226 32.9265 28.0157C32.9308 28.1087 32.9434 28.2018 32.9646 28.2948L32.6791 28.0284C32.7595 27.8634 32.8631 27.7259 32.99 27.616C33.1169 27.5018 33.267 27.4172 33.4404 27.3622C33.6181 27.303 33.8126 27.2734 34.0241 27.2734C34.3117 27.2734 34.5698 27.3305 34.7982 27.4447C35.0266 27.5589 35.2084 27.7196 35.3438 27.9268C35.4834 28.1341 35.5532 28.3773 35.5532 28.6565C35.5532 28.9568 35.477 29.219 35.3248 29.4432C35.1767 29.6631 34.9758 29.8344 34.722 29.9571C34.4725 30.0755 34.1891 30.1347 33.8719 30.1347ZM33.8148 29.367C33.9586 29.367 34.0855 29.3417 34.1954 29.2909C34.3096 29.2359 34.3985 29.1577 34.4619 29.0562C34.5253 28.9546 34.5571 28.8383 34.5571 28.7072C34.5571 28.5042 34.4873 28.3435 34.3477 28.225C34.2123 28.1024 34.0305 28.041 33.8021 28.041C33.6498 28.041 33.5166 28.0706 33.4024 28.1299C33.2882 28.1848 33.1972 28.2631 33.1296 28.3646C33.0661 28.4619 33.0344 28.5761 33.0344 28.7072C33.0344 28.8341 33.0661 28.9483 33.1296 29.0498C33.193 29.1471 33.2818 29.2253 33.396 29.2846C33.5102 29.3395 33.6498 29.367 33.8148 29.367ZM37.829 30.1347C37.4653 30.1347 37.1396 30.0459 36.852 29.8683C36.5644 29.6864 36.3381 29.4241 36.1731 29.0815C36.0082 28.7389 35.9257 28.3244 35.9257 27.838C35.9257 27.3516 36.0082 26.9371 36.1731 26.5945C36.3381 26.2519 36.5644 25.9918 36.852 25.8141C37.1396 25.6322 37.4653 25.5413 37.829 25.5413C38.197 25.5413 38.5227 25.6322 38.8061 25.8141C39.0937 25.9918 39.32 26.2519 39.485 26.5945C39.6499 26.9371 39.7324 27.3516 39.7324 27.838C39.7324 28.3244 39.6499 28.7389 39.485 29.0815C39.32 29.4241 39.0937 29.6864 38.8061 29.8683C38.5227 30.0459 38.197 30.1347 37.829 30.1347ZM37.829 29.2655C38.0025 29.2655 38.1526 29.2169 38.2795 29.1196C38.4106 29.0223 38.5121 28.8679 38.584 28.6565C38.6602 28.445 38.6982 28.1722 38.6982 27.838C38.6982 27.5039 38.6602 27.2311 38.584 27.0196C38.5121 26.8081 38.4106 26.6537 38.2795 26.5564C38.1526 26.4591 38.0025 26.4105 37.829 26.4105C37.6599 26.4105 37.5097 26.4591 37.3786 26.5564C37.2517 26.6537 37.1502 26.8081 37.0741 27.0196C37.0021 27.2311 36.9662 27.5039 36.9662 27.838C36.9662 28.1722 37.0021 28.445 37.0741 28.6565C37.1502 28.8679 37.2517 29.0223 37.3786 29.1196C37.5097 29.2169 37.6599 29.2655 37.829 29.2655ZM42.1351 30.1347C41.7714 30.1347 41.4457 30.0459 41.1581 29.8683C40.8705 29.6864 40.6442 29.4241 40.4792 29.0815C40.3143 28.7389 40.2318 28.3244 40.2318 27.838C40.2318 27.3516 40.3143 26.9371 40.4792 26.5945C40.6442 26.2519 40.8705 25.9918 41.1581 25.8141C41.4457 25.6322 41.7714 25.5413 42.1351 25.5413C42.5031 25.5413 42.8288 25.6322 43.1122 25.8141C43.3998 25.9918 43.6261 26.2519 43.7911 26.5945C43.956 26.9371 44.0385 27.3516 44.0385 27.838C44.0385 28.3244 43.956 28.7389 43.7911 29.0815C43.6261 29.4241 43.3998 29.6864 43.1122 29.8683C42.8288 30.0459 42.5031 30.1347 42.1351 30.1347ZM42.1351 29.2655C42.3086 29.2655 42.4587 29.2169 42.5856 29.1196C42.7167 29.0223 42.8182 28.8679 42.8901 28.6565C42.9663 28.445 43.0043 28.1722 43.0043 27.838C43.0043 27.5039 42.9663 27.2311 42.8901 27.0196C42.8182 26.8081 42.7167 26.6537 42.5856 26.5564C42.4587 26.4591 42.3086 26.4105 42.1351 26.4105C41.9659 26.4105 41.8158 26.4591 41.6847 26.5564C41.5578 26.6537 41.4563 26.8081 41.3801 27.0196C41.3082 27.2311 41.2723 27.5039 41.2723 27.838C41.2723 28.1722 41.3082 28.445 41.3801 28.6565C41.4563 28.8679 41.5578 29.0223 41.6847 29.1196C41.8158 29.2169 41.9659 29.2655 42.1351 29.2655ZM46.5237 30.1347C46.1176 30.1347 45.7645 30.0501 45.4642 29.8809C45.1681 29.7118 44.9397 29.4643 44.779 29.1386C44.6182 28.813 44.5379 28.4111 44.5379 27.9332C44.5379 27.4214 44.633 26.9879 44.8234 26.6326C45.0179 26.2773 45.2844 26.0066 45.6228 25.8205C45.9654 25.6344 46.3587 25.5413 46.8029 25.5413C47.0397 25.5413 47.266 25.5667 47.4817 25.6174C47.6974 25.6682 47.8835 25.7443 48.04 25.8458L47.6594 26.6008C47.5367 26.5162 47.4056 26.4591 47.266 26.4295C47.1264 26.3957 46.9805 26.3788 46.8282 26.3788C46.4433 26.3788 46.1388 26.4951 45.9146 26.7277C45.6905 26.9604 45.5784 27.3051 45.5784 27.7619C45.5784 27.838 45.5784 27.9226 45.5784 28.0157C45.5826 28.1087 45.5953 28.2018 45.6164 28.2948L45.3309 28.0284C45.4113 27.8634 45.5149 27.7259 45.6418 27.616C45.7687 27.5018 45.9189 27.4172 46.0923 27.3622C46.2699 27.303 46.4645 27.2734 46.676 27.2734C46.9636 27.2734 47.2216 27.3305 47.45 27.4447C47.6784 27.5589 47.8603 27.7196 47.9956 27.9268C48.1352 28.1341 48.205 28.3773 48.205 28.6565C48.205 28.9568 48.1289 29.219 47.9766 29.4432C47.8286 29.6631 47.6276 29.8344 47.3739 29.9571C47.1243 30.0755 46.8409 30.1347 46.5237 30.1347ZM46.4666 29.367C46.6104 29.367 46.7373 29.3417 46.8473 29.2909C46.9615 29.2359 47.0503 29.1577 47.1137 29.0562C47.1772 28.9546 47.2089 28.8383 47.2089 28.7072C47.2089 28.5042 47.1391 28.3435 46.9995 28.225C46.8642 28.1024 46.6823 28.041 46.4539 28.041C46.3016 28.041 46.1684 28.0706 46.0542 28.1299C45.94 28.1848 45.8491 28.2631 45.7814 28.3646C45.7179 28.4619 45.6862 28.5761 45.6862 28.7072C45.6862 28.8341 45.7179 28.9483 45.7814 29.0498C45.8448 29.1471 45.9337 29.2253 46.0479 29.2846C46.1621 29.3395 46.3016 29.367 46.4666 29.367ZM50.0875 30.1347C49.7788 30.1347 49.4721 30.0945 49.1676 30.0142C48.8673 29.9296 48.6093 29.8112 48.3935 29.6589L48.7996 28.8722C48.9688 28.9948 49.1633 29.0921 49.3833 29.164C49.6075 29.2359 49.8337 29.2719 50.0621 29.2719C50.3202 29.2719 50.5232 29.2211 50.6712 29.1196C50.8193 29.0181 50.8933 28.8764 50.8933 28.6945C50.8933 28.5803 50.8637 28.4788 50.8045 28.39C50.7452 28.3012 50.6395 28.2335 50.4872 28.187C50.3392 28.1404 50.1298 28.1172 49.8591 28.1172H48.7235L48.9519 25.6174H51.661V26.4422H49.3198L49.8528 25.9727L49.6942 27.7555L49.1612 27.286H50.1002C50.5401 27.286 50.8933 27.3474 51.1597 27.47C51.4304 27.5885 51.6271 27.7513 51.7498 27.9586C51.8724 28.1658 51.9338 28.4006 51.9338 28.6628C51.9338 28.925 51.8682 29.1682 51.7371 29.3924C51.606 29.6124 51.403 29.7921 51.128 29.9317C50.8573 30.0671 50.5105 30.1347 50.0875 30.1347Z" fill="#1B1B1B"></path><path d="M20.3469 34.7235H20.5927V37.1027H21.0963V37.4199H19.6926V37.1027H20.2596V35.0764L19.6926 35.2905V34.9733L20.3469 34.7235ZM21.337 35.5602C21.337 34.9852 21.7771 34.6759 22.3045 34.6759C23.0857 34.6759 23.4425 35.1954 23.4425 36.0281C23.4425 37.0194 22.9112 37.4675 22.2173 37.4675C21.9873 37.4675 21.7573 37.412 21.563 37.3129V36.9956C21.7652 37.1027 21.9952 37.1503 22.2093 37.1503C22.6614 37.1503 23.0658 36.8925 23.1055 36.1471C22.8319 36.3295 22.5702 36.4048 22.2609 36.4048C21.8128 36.4048 21.337 36.1233 21.337 35.5602ZM22.3283 34.9852C21.9674 34.9852 21.674 35.1359 21.674 35.5443C21.674 35.9686 21.9952 36.0955 22.3441 36.0955C22.6098 36.0955 22.8834 36.0083 23.1015 35.814C23.05 35.2469 22.7684 34.9852 22.3283 34.9852ZM23.9149 34.9376C24.1845 34.7513 24.4819 34.6759 24.7793 34.6759C25.3305 34.6759 25.6993 34.9376 25.6993 35.3976C25.6993 35.8576 25.3146 36.1233 24.9379 36.3453C24.5612 36.5674 24.1924 36.7498 24.1845 37.1067L25.7191 37.1027V37.4199H23.8197V37.2613C23.8197 36.6031 24.3035 36.3533 24.7238 36.1074C25.0608 35.9091 25.3662 35.7426 25.3662 35.3936C25.3662 35.128 25.1402 34.9852 24.7516 34.9852C24.4779 34.9852 24.1924 35.0764 23.9149 35.2707V34.9376ZM26.0729 35.5602C26.0729 34.9852 26.513 34.6759 27.0404 34.6759C27.8216 34.6759 28.1785 35.1954 28.1785 36.0281C28.1785 37.0194 27.6471 37.4675 26.9532 37.4675C26.7232 37.4675 26.4932 37.412 26.2989 37.3129V36.9956C26.5011 37.1027 26.7311 37.1503 26.9452 37.1503C27.3973 37.1503 27.8017 36.8925 27.8414 36.1471C27.5678 36.3295 27.3061 36.4048 26.9968 36.4048C26.5487 36.4048 26.0729 36.1233 26.0729 35.5602ZM27.0642 34.9852C26.7034 34.9852 26.4099 35.1359 26.4099 35.5443C26.4099 35.9686 26.7311 36.0955 27.0801 36.0955C27.3457 36.0955 27.6193 36.0083 27.8374 35.814C27.7859 35.2469 27.5043 34.9852 27.0642 34.9852ZM28.6508 34.9376C28.9204 34.7513 29.2178 34.6759 29.5152 34.6759C30.0664 34.6759 30.4352 34.9376 30.4352 35.3976C30.4352 35.8576 30.0505 36.1233 29.6738 36.3453C29.2971 36.5674 28.9284 36.7498 28.9204 37.1067L30.455 37.1027V37.4199H28.5556V37.2613C28.5556 36.6031 29.0394 36.3533 29.4597 36.1074C29.7968 35.9091 30.1021 35.7426 30.1021 35.3936C30.1021 35.128 29.8761 34.9852 29.4875 34.9852C29.2139 34.9852 28.9284 35.0764 28.6508 35.2707V34.9376ZM31.5225 34.7235H31.7684V37.1027H32.272V37.4199H30.8683V37.1027H31.4353V35.0764L30.8683 35.2905V34.9733L31.5225 34.7235ZM32.9964 37.2534C32.9964 37.3882 32.9012 37.4556 32.7902 37.4556C32.6792 37.4556 32.58 37.3882 32.58 37.2534C32.58 37.1225 32.6792 37.0551 32.7902 37.0551C32.9012 37.0551 32.9964 37.1225 32.9964 37.2534ZM35.2362 35.4095C35.2362 35.6871 35.0736 35.925 34.8436 36.0043C35.0736 36.0757 35.3472 36.2739 35.3472 36.6863C35.3472 37.2098 34.8991 37.4675 34.3599 37.4675C33.9752 37.4675 33.6858 37.408 33.4201 37.2891V36.9599C33.6937 37.1027 33.9752 37.1582 34.3321 37.1542C34.7286 37.1542 35.026 37.0234 35.026 36.6705C35.026 36.3017 34.7326 36.1867 34.3678 36.1867H33.9554V35.8695L34.3321 35.8734C34.7247 35.8734 34.915 35.6871 34.915 35.4373C34.915 35.1597 34.689 34.9852 34.2766 34.9852C33.9911 34.9852 33.7294 35.0526 33.4677 35.1914V34.8663C33.7095 34.7433 33.9832 34.6759 34.3202 34.6759C34.8714 34.6759 35.2362 34.9733 35.2362 35.4095ZM35.6919 35.5602C35.6919 34.9852 36.132 34.6759 36.6594 34.6759C37.4406 34.6759 37.7974 35.1954 37.7974 36.0281C37.7974 37.0194 37.2661 37.4675 36.5722 37.4675C36.3422 37.4675 36.1122 37.412 35.9179 37.3129V36.9956C36.1201 37.1027 36.3501 37.1503 36.5642 37.1503C37.0163 37.1503 37.4207 36.8925 37.4604 36.1471C37.1868 36.3295 36.9251 36.4048 36.6158 36.4048C36.1677 36.4048 35.6919 36.1233 35.6919 35.5602ZM36.6832 34.9852C36.3223 34.9852 36.0289 35.1359 36.0289 35.5443C36.0289 35.9686 36.3501 36.0955 36.6991 36.0955C36.9647 36.0955 37.2383 36.0083 37.4564 35.814C37.4049 35.2469 37.1233 34.9852 36.6832 34.9852ZM41.3073 34.6442H41.6404V36.4048C41.6404 37.1979 41.0971 37.4675 40.4825 37.4675C39.8639 37.4675 39.3207 37.1979 39.3207 36.4048V34.6442H39.6538V36.3889C39.6538 36.952 40.0027 37.1503 40.4825 37.1503C40.9584 37.1503 41.3073 36.952 41.3073 36.3889V34.6442ZM42.1715 35.3302C42.1715 34.8345 42.6195 34.5966 43.1231 34.5966C43.4285 34.5966 43.7417 34.672 43.9638 34.7988V35.1319C43.7417 34.9892 43.4324 34.9099 43.1469 34.9138C42.7821 34.9138 42.5085 35.0209 42.5085 35.3183C42.5085 36.0202 44.1621 35.7188 44.1621 36.7141C44.1621 37.2653 43.6664 37.4715 43.135 37.4675C42.7742 37.4675 42.453 37.3803 42.1834 37.2296V36.8965C42.4768 37.0749 42.794 37.1503 43.1112 37.1503C43.4959 37.1503 43.825 37.0511 43.825 36.7379C43.825 35.9924 42.1715 36.3057 42.1715 35.3302ZM44.6576 34.6442H45.5696C46.549 34.6442 47.0368 35.2311 47.0368 36.0321C47.0368 36.8331 46.549 37.4199 45.5696 37.4199H44.6576V34.6442ZM46.6997 36.0321C46.6997 35.3659 46.319 34.9614 45.5696 34.9614H44.9907V37.1027H45.5696C46.319 37.1027 46.6997 36.6982 46.6997 36.0321Z" fill="#1B1B1B"></path><rect x="65.2578" y="10.1914" width="665.777" height="43.6185" rx="7.93063" fill="white"></rect><rect x="85.3066" y="21.6973" width="59.8763" height="20.2231" rx="10.1116" fill="#B4E913"></rect><path d="M107.317 33.8086H106.48L106.702 32.8506H106.27V32.2034H106.854L107.121 31.0931H106.588V30.446H107.273L107.501 29.488H108.339L108.11 30.446H108.929L109.157 29.488H109.995L109.766 30.446H110.191V31.0931H109.614L109.347 32.2034H109.874V32.8506H109.195L108.973 33.8086H108.136L108.358 32.8506H107.539L107.317 33.8086ZM107.958 31.0931L107.692 32.2034H108.51L108.776 31.0931H107.958Z" fill="#1B1B1B"></path><path d="M114.804 29.4943H115.496V32.9902H116.219V33.8086H113.757V32.9902H114.569V30.446L113.757 30.7505V29.894L114.804 29.4943ZM119.702 30.5983C119.702 31.0424 119.454 31.385 119.048 31.5246C119.486 31.6578 119.879 31.9941 119.879 32.6285C119.879 33.5358 119.042 33.8974 118.154 33.8974C117.595 33.8974 117.145 33.8086 116.656 33.6056V32.7237C117.145 32.9965 117.583 33.0663 118.077 33.0599C118.566 33.0599 118.972 32.9013 118.972 32.4953C118.972 32.1273 118.655 31.9941 118.223 31.9941H117.513L117.519 31.182L118.115 31.1883C118.541 31.1883 118.801 31.0297 118.801 30.7315C118.801 30.4206 118.528 30.2366 118.008 30.2366C117.621 30.2366 117.157 30.3635 116.732 30.6237V29.7418C117.119 29.5324 117.608 29.4055 118.141 29.4055C119.035 29.4055 119.702 29.8116 119.702 30.5983ZM122.504 29.4943H123.449V32.2288H124.103V33.0219H123.449V33.8086H122.542V33.0219H120.277V32.2352L122.504 29.4943ZM122.542 32.2288V30.6554L121.267 32.2288H122.542Z" fill="#1B1B1B"></path><rect x="162.58" y="22.0938" width="81.2069" height="19.43" rx="9.71502" stroke="#B4E913" stroke-width="0.793063"></rect><path d="M172.407 33.8086V29.3674H174.323C174.818 29.3674 175.201 29.4668 175.471 29.6656C175.746 29.8644 175.884 30.1457 175.884 30.5095C175.884 30.7505 175.827 30.9536 175.712 31.1185C175.602 31.2835 175.45 31.4083 175.256 31.4928C175.065 31.5774 174.856 31.6197 174.627 31.6197L174.735 31.4675C175.019 31.4675 175.262 31.5119 175.465 31.6007C175.672 31.6853 175.833 31.8143 175.947 31.9877C176.061 32.1569 176.118 32.3684 176.118 32.6222C176.118 32.9986 175.979 33.2905 175.7 33.4977C175.425 33.705 175.008 33.8086 174.45 33.8086H172.407ZM172.876 33.4216H174.443C174.833 33.4216 175.131 33.356 175.338 33.2249C175.545 33.0895 175.649 32.876 175.649 32.5841C175.649 32.2965 175.545 32.0871 175.338 31.956C175.131 31.8206 174.833 31.753 174.443 31.753H172.826V31.366H174.291C174.646 31.366 174.921 31.2983 175.116 31.1629C175.315 31.0276 175.414 30.8267 175.414 30.5602C175.414 30.2895 175.315 30.0886 175.116 29.9575C174.921 29.8221 174.646 29.7545 174.291 29.7545H172.876V33.4216ZM178.51 33.8403C178.163 33.8403 177.858 33.7684 177.596 33.6246C177.334 33.4766 177.129 33.2757 176.981 33.0219C176.833 32.7639 176.759 32.4699 176.759 32.14C176.759 31.8101 176.828 31.5182 176.968 31.2644C177.112 31.0107 177.306 30.8119 177.552 30.6681C177.801 30.52 178.08 30.446 178.389 30.446C178.702 30.446 178.979 30.5179 179.22 30.6617C179.466 30.8013 179.658 31.0001 179.798 31.2581C179.937 31.5119 180.007 31.8058 180.007 32.14C180.007 32.1611 180.005 32.1844 180.001 32.2098C180.001 32.2309 180.001 32.2542 180.001 32.2796H177.101V31.9433H179.76L179.582 32.0765C179.582 31.8355 179.529 31.6219 179.423 31.4357C179.322 31.2454 179.182 31.0974 179.005 30.9916C178.827 30.8859 178.622 30.833 178.389 30.833C178.161 30.833 177.956 30.8859 177.774 30.9916C177.592 31.0974 177.45 31.2454 177.349 31.4357C177.247 31.6261 177.196 31.8439 177.196 32.0892V32.159C177.196 32.4128 177.251 32.637 177.361 32.8315C177.476 33.0219 177.632 33.172 177.831 33.282C178.034 33.3877 178.264 33.4406 178.522 33.4406C178.725 33.4406 178.914 33.4047 179.087 33.3328C179.265 33.2609 179.417 33.1509 179.544 33.0028L179.798 33.2947C179.65 33.4723 179.463 33.6077 179.239 33.7007C179.019 33.7938 178.776 33.8403 178.51 33.8403ZM181.818 33.8403C181.544 33.8403 181.283 33.8022 181.038 33.7261C180.793 33.6458 180.6 33.5464 180.461 33.4279L180.664 33.0726C180.799 33.1741 180.973 33.263 181.184 33.3391C181.395 33.411 181.618 33.447 181.85 33.447C182.167 33.447 182.396 33.3983 182.535 33.301C182.675 33.1995 182.745 33.0663 182.745 32.9013C182.745 32.7787 182.705 32.6835 182.624 32.6158C182.548 32.5439 182.447 32.4911 182.32 32.4572C182.193 32.4191 182.051 32.3874 181.895 32.362C181.738 32.3367 181.582 32.3071 181.425 32.2732C181.273 32.2394 181.133 32.1907 181.006 32.1273C180.879 32.0596 180.776 31.9687 180.695 31.8545C180.619 31.7403 180.581 31.588 180.581 31.3977C180.581 31.2158 180.632 31.053 180.734 30.9092C180.835 30.7653 180.983 30.6533 181.178 30.5729C181.376 30.4883 181.618 30.446 181.901 30.446C182.117 30.446 182.332 30.4756 182.548 30.5348C182.764 30.5898 182.941 30.6638 183.081 30.7569L182.884 31.1185C182.736 31.017 182.578 30.9451 182.408 30.9028C182.239 30.8563 182.07 30.833 181.901 30.833C181.601 30.833 181.379 30.8859 181.235 30.9916C181.095 31.0931 181.025 31.2243 181.025 31.385C181.025 31.5119 181.063 31.6113 181.14 31.6832C181.22 31.7551 181.324 31.8122 181.45 31.8545C181.582 31.8926 181.723 31.9243 181.876 31.9497C182.032 31.975 182.186 32.0068 182.339 32.0448C182.495 32.0787 182.637 32.1273 182.764 32.1907C182.895 32.25 182.999 32.3367 183.075 32.4509C183.155 32.5608 183.195 32.7068 183.195 32.8886C183.195 33.0832 183.14 33.2524 183.03 33.3962C182.925 33.5358 182.768 33.6458 182.561 33.7261C182.358 33.8022 182.11 33.8403 181.818 33.8403ZM185.075 33.8403C184.762 33.8403 184.521 33.7557 184.352 33.5865C184.183 33.4173 184.098 33.1784 184.098 32.8696V29.7418H184.548V32.8442C184.548 33.0388 184.597 33.1889 184.694 33.2947C184.796 33.4004 184.94 33.4533 185.126 33.4533C185.325 33.4533 185.489 33.3962 185.621 33.282L185.779 33.6056C185.69 33.6859 185.583 33.7451 185.456 33.7832C185.333 33.8213 185.206 33.8403 185.075 33.8403ZM183.502 30.8521V30.4777H185.563V30.8521H183.502ZM188.355 33.8086V29.3674H190.017C190.394 29.3674 190.717 29.4288 190.988 29.5514C191.259 29.6699 191.466 29.8433 191.61 30.0717C191.758 30.2959 191.832 30.5687 191.832 30.8901C191.832 31.2031 191.758 31.4738 191.61 31.7022C191.466 31.9264 191.259 32.0998 190.988 32.2225C190.717 32.3451 190.394 32.4065 190.017 32.4065H188.615L188.824 32.1844V33.8086H188.355ZM188.824 32.2225L188.615 31.9941H190.004C190.449 31.9941 190.785 31.8989 191.013 31.7086C191.246 31.514 191.362 31.2412 191.362 30.8901C191.362 30.5348 191.246 30.2599 191.013 30.0653C190.785 29.8708 190.449 29.7735 190.004 29.7735H188.615L188.824 29.5514V32.2225ZM192.671 33.8086V30.4777H193.103V31.385L193.058 31.2264C193.151 30.9726 193.308 30.7801 193.528 30.649C193.748 30.5137 194.02 30.446 194.346 30.446V30.8838C194.329 30.8838 194.312 30.8838 194.295 30.8838C194.278 30.8795 194.261 30.8774 194.245 30.8774C193.893 30.8774 193.619 30.9853 193.42 31.201C193.221 31.4125 193.122 31.7149 193.122 32.1083V33.8086H192.671ZM196.495 33.8403C196.173 33.8403 195.884 33.7684 195.626 33.6246C195.372 33.4766 195.171 33.2757 195.023 33.0219C194.875 32.7639 194.801 32.4699 194.801 32.14C194.801 31.8058 194.875 31.5119 195.023 31.2581C195.171 31.0043 195.372 30.8055 195.626 30.6617C195.879 30.5179 196.169 30.446 196.495 30.446C196.825 30.446 197.117 30.5179 197.37 30.6617C197.628 30.8055 197.829 31.0043 197.973 31.2581C198.121 31.5119 198.195 31.8058 198.195 32.14C198.195 32.4699 198.121 32.7639 197.973 33.0219C197.829 33.2757 197.628 33.4766 197.37 33.6246C197.112 33.7684 196.82 33.8403 196.495 33.8403ZM196.495 33.4406C196.736 33.4406 196.949 33.3877 197.136 33.282C197.322 33.172 197.468 33.0198 197.573 32.8252C197.683 32.6264 197.738 32.398 197.738 32.14C197.738 31.8777 197.683 31.6493 197.573 31.4548C197.468 31.2602 197.322 31.1101 197.136 31.0043C196.949 30.8944 196.738 30.8394 196.501 30.8394C196.264 30.8394 196.053 30.8944 195.867 31.0043C195.681 31.1101 195.533 31.2602 195.423 31.4548C195.313 31.6493 195.258 31.8777 195.258 32.14C195.258 32.398 195.313 32.6264 195.423 32.8252C195.533 33.0198 195.681 33.172 195.867 33.282C196.053 33.3877 196.262 33.4406 196.495 33.4406ZM199.191 33.8086V30.059C199.191 29.7629 199.278 29.5239 199.451 29.3421C199.624 29.1602 199.874 29.0692 200.2 29.0692C200.327 29.0692 200.449 29.0862 200.568 29.12C200.686 29.1538 200.785 29.2067 200.866 29.2786L200.714 29.6149C200.65 29.5599 200.576 29.5197 200.492 29.4943C200.407 29.4647 200.316 29.4499 200.219 29.4499C200.028 29.4499 199.882 29.5028 199.781 29.6085C199.679 29.7143 199.629 29.8708 199.629 30.078V30.5856L199.641 30.795V33.8086H199.191ZM198.595 30.8521V30.4777H200.656V30.8521H198.595ZM201.266 33.8086V30.4777H201.716V33.8086H201.266ZM201.494 29.7418C201.401 29.7418 201.323 29.71 201.259 29.6466C201.196 29.5832 201.164 29.507 201.164 29.4182C201.164 29.3294 201.196 29.2554 201.259 29.1961C201.323 29.1327 201.401 29.101 201.494 29.101C201.587 29.101 201.665 29.1306 201.729 29.1898C201.792 29.249 201.824 29.323 201.824 29.4119C201.824 29.5049 201.792 29.5832 201.729 29.6466C201.669 29.71 201.591 29.7418 201.494 29.7418ZM204.034 33.8403C203.721 33.8403 203.48 33.7557 203.311 33.5865C203.142 33.4173 203.057 33.1784 203.057 32.8696V29.7418H203.508V32.8442C203.508 33.0388 203.556 33.1889 203.653 33.2947C203.755 33.4004 203.899 33.4533 204.085 33.4533C204.284 33.4533 204.449 33.3962 204.58 33.282L204.738 33.6056C204.65 33.6859 204.542 33.7451 204.415 33.7832C204.292 33.8213 204.165 33.8403 204.034 33.8403ZM202.461 30.8521V30.4777H204.523V30.8521H202.461ZM206.699 33.8086L208.52 31.3469V31.7086L206.806 29.3674H207.346L208.786 31.3215L208.577 31.3279L210.017 29.3674H210.524L208.83 31.6768V31.3469L210.645 33.8086H210.099L208.564 31.7213H208.761L207.238 33.8086H206.699ZM210.563 33.8086L212.593 29.3674H213.056L215.086 33.8086H214.591L212.726 29.6403H212.916L211.051 33.8086H210.563ZM211.362 32.6222L211.502 32.2415H214.084L214.223 32.6222H211.362ZM217.517 33.8467C216.95 33.8467 216.504 33.6838 216.178 33.3581C215.853 33.0324 215.69 32.5503 215.69 31.9116V29.3674H216.159V31.8926C216.159 32.417 216.278 32.804 216.515 33.0536C216.752 33.3031 217.086 33.4279 217.517 33.4279C217.953 33.4279 218.289 33.3031 218.526 33.0536C218.763 32.804 218.881 32.417 218.881 31.8926V29.3674H219.338V31.9116C219.338 32.5503 219.175 33.0324 218.849 33.3581C218.528 33.6838 218.084 33.8467 217.517 33.8467ZM222.542 33.8467C221.975 33.8467 221.529 33.6838 221.203 33.3581C220.878 33.0324 220.715 32.5503 220.715 31.9116V29.3674H221.184V31.8926C221.184 32.417 221.303 32.804 221.539 33.0536C221.776 33.3031 222.11 33.4279 222.542 33.4279C222.978 33.4279 223.314 33.3031 223.551 33.0536C223.788 32.804 223.906 32.417 223.906 31.8926V29.3674H224.363V31.9116C224.363 32.5503 224.2 33.0324 223.874 33.3581C223.553 33.6838 223.109 33.8467 222.542 33.8467ZM227.002 33.8467C226.672 33.8467 226.355 33.7938 226.05 33.688C225.75 33.5781 225.517 33.4385 225.352 33.2693L225.536 32.9077C225.693 33.0599 225.902 33.1889 226.165 33.2947C226.431 33.3962 226.71 33.447 227.002 33.447C227.281 33.447 227.507 33.4131 227.681 33.3454C227.859 33.2735 227.988 33.1784 228.068 33.0599C228.153 32.9415 228.195 32.8104 228.195 32.6666C228.195 32.4932 228.144 32.3536 228.043 32.2478C227.945 32.1421 227.816 32.0596 227.656 32.0004C227.495 31.937 227.317 31.882 227.123 31.8355C226.928 31.7889 226.733 31.7403 226.539 31.6895C226.344 31.6345 226.165 31.5626 226 31.4738C225.839 31.385 225.708 31.2687 225.606 31.1249C225.509 30.9768 225.46 30.7844 225.46 30.5475C225.46 30.3276 225.517 30.1267 225.632 29.9448C225.75 29.7587 225.93 29.6106 226.171 29.5007C226.412 29.3865 226.721 29.3294 227.097 29.3294C227.347 29.3294 227.594 29.3653 227.84 29.4372C228.085 29.5049 228.296 29.6001 228.474 29.7227L228.315 30.0971C228.125 29.9702 227.922 29.8771 227.706 29.8179C227.495 29.7587 227.29 29.7291 227.091 29.7291C226.824 29.7291 226.604 29.765 226.431 29.8369C226.258 29.9088 226.129 30.0061 226.044 30.1288C225.964 30.2472 225.923 30.3826 225.923 30.5348C225.923 30.7082 225.972 30.8478 226.069 30.9536C226.171 31.0593 226.302 31.1418 226.463 31.201C226.628 31.2602 226.807 31.3131 227.002 31.3596C227.197 31.4061 227.389 31.4569 227.579 31.5119C227.774 31.5669 227.952 31.6388 228.112 31.7276C228.277 31.8122 228.408 31.9264 228.506 32.0702C228.607 32.214 228.658 32.4022 228.658 32.6349C228.658 32.8506 228.599 33.0515 228.48 33.2376C228.362 33.4195 228.18 33.5675 227.935 33.6817C227.694 33.7917 227.383 33.8467 227.002 33.8467ZM229.681 33.8086V29.3674H231.489C231.963 29.3674 232.377 29.4626 232.733 29.6529C233.092 29.839 233.371 30.0992 233.57 30.4333C233.769 30.7675 233.868 31.1524 233.868 31.588C233.868 32.0237 233.769 32.4086 233.57 32.7427C233.371 33.0769 233.092 33.3391 232.733 33.5294C232.377 33.7155 231.963 33.8086 231.489 33.8086H229.681ZM230.15 33.4025H231.464C231.857 33.4025 232.198 33.3264 232.485 33.1741C232.777 33.0176 233.003 32.804 233.164 32.5333C233.325 32.2584 233.405 31.9433 233.405 31.588C233.405 31.2285 233.325 30.9134 233.164 30.6427C233.003 30.372 232.777 30.1605 232.485 30.0082C232.198 29.8517 231.857 29.7735 231.464 29.7735H230.15V33.4025Z" fill="#1B1B1B"></path><g clip-path="url(#clip2_671_89225)"><mask id="mask0_671_89225" style="mask-type:alpha" maskUnits="userSpaceOnUse" x="273" y="15" width="60" height="17"><rect x="273.184" y="15.3086" width="59" height="16.5" fill="#D9D9D9"></rect></mask><g mask="url(#mask0_671_89225)"><path d="M272.184 32.9697C273.552 32.0679 276.904 31.3464 279.367 35.6752C282.446 41.0862 282.959 41.628 283.985 41.628C285.012 41.628 287.577 37.2992 289.63 37.8403C291.682 38.3814 293.222 45.4157 295.787 45.4157C298.353 45.4157 300.405 33.5115 300.918 32.4293C301.431 30.8067 301.637 29.5074 304.51 28.6416C308.102 27.5594 309.128 27.0183 311.181 24.3128C313.233 21.6073 316.312 17.8196 321.956 18.3607C327.601 18.9018 327.087 20.5265 332.219 19.4436V45.4157H295.787H272.184V32.9697Z" fill="url(#paint0_linear_671_89225)"></path><path d="M272.148 33.5068C273.517 32.605 276.869 31.8835 279.332 36.2123C282.411 41.6233 282.924 42.1651 283.95 42.1651C284.976 42.1651 287.542 37.8363 289.595 38.3774C291.647 38.9185 293.186 45.9528 295.752 45.9528C298.318 45.9528 300.37 34.0486 300.883 32.9664C301.396 31.3438 301.602 30.0445 304.475 29.1787C308.067 28.0965 309.093 27.5554 311.146 24.8499C313.198 22.1444 316.277 18.3567 321.921 18.8978C327.565 19.4389 327.052 21.0637 332.184 19.9807" stroke="#9FCE10"></path></g><mask id="mask1_671_89225" style="mask-type:alpha" maskUnits="userSpaceOnUse" x="273" y="31" width="60" height="18"><rect width="59" height="16.5" transform="matrix(1 0 0 -1 273.184 48.3086)" fill="#D9D9D9"></rect></mask><g mask="url(#mask1_671_89225)"><path d="M272.148 33.5049C273.517 32.603 276.869 31.8816 279.332 36.2104C282.411 41.6214 282.924 42.1632 283.95 42.1632C284.976 42.1632 287.542 37.8344 289.595 38.3755C291.647 38.9166 293.186 45.9509 295.752 45.9509C298.318 45.9509 300.37 34.0467 300.883 32.9645C301.396 31.3419 301.602 30.0425 304.475 29.1768C308.067 28.0946 309.093 27.5535 311.146 24.848C313.198 22.1425 316.277 18.3548 321.921 18.8959C327.565 19.437 327.052 21.0617 332.184 19.9788" stroke="#E85D37"></path><path d="M279.332 36.2098C276.869 31.881 273.517 32.6025 272.148 33.5043V18.2539H332.184V19.9782C327.052 21.0611 327.565 19.4364 321.921 18.8953C316.277 18.3542 313.198 22.1419 311.146 24.8474C309.093 27.5529 308.067 28.094 304.475 29.1762C301.602 30.042 301.396 31.3413 300.883 32.9639C300.37 34.0461 298.318 45.9503 295.752 45.9503C293.186 45.9503 291.647 38.916 289.595 38.3749C287.542 37.8338 284.976 42.1626 283.95 42.1626C282.924 42.1626 282.411 41.6208 279.332 36.2098Z" fill="url(#paint1_linear_671_89225)" stroke="#E85D37"></path></g></g><rect x="65.2578" y="57.8105" width="665.777" height="43.6185" rx="7.93063" fill="white"></rect><rect x="85.3066" y="69.3164" width="59.8763" height="20.2231" rx="10.1116" fill="#B4E913"></rect><path d="M109.317 81.4277H108.48L108.702 80.4697H108.27V79.8226H108.854L109.121 78.7123H108.588V78.0651H109.273L109.501 77.1071H110.339L110.11 78.0651H110.929L111.157 77.1071H111.995L111.766 78.0651H112.191V78.7123H111.614L111.347 79.8226H111.874V80.4697H111.195L110.973 81.4277H110.136L110.358 80.4697H109.539L109.317 81.4277ZM109.958 78.7123L109.692 79.8226H110.51L110.776 78.7123H109.958Z" fill="#1B1B1B"></path><path d="M116.804 77.1135H117.496V80.6093H118.219V81.4277H115.757V80.6093H116.569V78.0651L115.757 78.3697V77.5132L116.804 77.1135ZM118.758 77.4815C119.202 77.1642 119.716 77.0246 120.242 77.0246C121.112 77.0246 121.816 77.418 121.816 78.2999C121.816 79.0295 121.213 79.4609 120.648 79.7972C120.134 80.1017 119.697 80.3365 119.69 80.6156L121.847 80.6093V81.4277H118.612V81.0027C118.612 79.9622 119.399 79.5561 120.033 79.1818C120.483 78.9217 120.87 78.7504 120.87 78.338C120.87 78.0207 120.591 77.8558 120.154 77.8558C119.722 77.8558 119.215 78.0207 118.758 78.3697V77.4815Z" fill="#1B1B1B"></path><rect x="162.58" y="69.7129" width="81.2069" height="19.43" rx="9.71502" stroke="#B4E913" stroke-width="0.793063"></rect><path d="M184.355 81.4658C184.016 81.4658 183.703 81.4108 183.416 81.3008C183.132 81.1866 182.885 81.028 182.673 80.825C182.466 80.622 182.303 80.383 182.185 80.1081C182.071 79.8331 182.014 79.5328 182.014 79.2072C182.014 78.8815 182.071 78.5812 182.185 78.3062C182.303 78.0313 182.468 77.7923 182.68 77.5893C182.891 77.3863 183.139 77.2298 183.422 77.1198C183.71 77.0056 184.023 76.9485 184.361 76.9485C184.699 76.9485 185.008 77.0014 185.287 77.1071C185.571 77.2129 185.812 77.3736 186.011 77.5893L185.719 77.8875C185.533 77.7014 185.327 77.5682 185.103 77.4878C184.879 77.4074 184.638 77.3673 184.38 77.3673C184.105 77.3673 183.851 77.4138 183.619 77.5068C183.39 77.5957 183.189 77.7247 183.016 77.8938C182.847 78.0588 182.714 78.2534 182.616 78.4775C182.523 78.6975 182.477 78.9407 182.477 79.2072C182.477 79.4694 182.523 79.7126 182.616 79.9368C182.714 80.1609 182.847 80.3576 183.016 80.5268C183.189 80.6918 183.39 80.8208 183.619 80.9138C183.851 81.0027 184.103 81.0471 184.374 81.0471C184.627 81.0471 184.866 81.009 185.091 80.9329C185.319 80.8567 185.528 80.7277 185.719 80.5458L185.985 80.9011C185.774 81.0872 185.526 81.2289 185.243 81.3262C184.959 81.4193 184.663 81.4658 184.355 81.4658ZM185.535 80.844V79.2072H185.985V80.9011L185.535 80.844ZM188.577 81.4595C188.255 81.4595 187.965 81.3876 187.707 81.2437C187.454 81.0957 187.253 80.8948 187.105 80.641C186.957 80.383 186.883 80.089 186.883 79.7591C186.883 79.425 186.957 79.131 187.105 78.8772C187.253 78.6235 187.454 78.4247 187.707 78.2809C187.961 78.1371 188.251 78.0651 188.577 78.0651C188.906 78.0651 189.198 78.1371 189.452 78.2809C189.71 78.4247 189.911 78.6235 190.055 78.8772C190.203 79.131 190.277 79.425 190.277 79.7591C190.277 80.089 190.203 80.383 190.055 80.641C189.911 80.8948 189.71 81.0957 189.452 81.2437C189.194 81.3876 188.902 81.4595 188.577 81.4595ZM188.577 81.0598C188.818 81.0598 189.031 81.0069 189.217 80.9011C189.403 80.7912 189.549 80.6389 189.655 80.4443C189.765 80.2455 189.82 80.0171 189.82 79.7591C189.82 79.4969 189.765 79.2685 189.655 79.0739C189.549 78.8794 189.403 78.7292 189.217 78.6235C189.031 78.5135 188.82 78.4585 188.583 78.4585C188.346 78.4585 188.135 78.5135 187.948 78.6235C187.762 78.7292 187.614 78.8794 187.504 79.0739C187.394 79.2685 187.339 79.4969 187.339 79.7591C187.339 80.0171 187.394 80.2455 187.504 80.4443C187.614 80.6389 187.762 80.7912 187.948 80.9011C188.135 81.0069 188.344 81.0598 188.577 81.0598ZM191.196 81.4277V76.7201H191.647V81.4277H191.196ZM194.226 81.4595C193.909 81.4595 193.624 81.3876 193.37 81.2437C193.12 81.0999 192.924 80.9011 192.78 80.6474C192.636 80.3894 192.564 80.0933 192.564 79.7591C192.564 79.4208 192.636 79.1247 192.78 78.8709C192.924 78.6171 193.12 78.4204 193.37 78.2809C193.624 78.1371 193.909 78.0651 194.226 78.0651C194.518 78.0651 194.778 78.1307 195.007 78.2618C195.239 78.3929 195.423 78.5854 195.559 78.8392C195.698 79.0887 195.768 79.3954 195.768 79.7591C195.768 80.1187 195.7 80.4253 195.565 80.6791C195.43 80.9329 195.246 81.1274 195.013 81.2628C194.785 81.3939 194.522 81.4595 194.226 81.4595ZM194.258 81.0598C194.495 81.0598 194.706 81.0069 194.893 80.9011C195.083 80.7912 195.231 80.6389 195.337 80.4443C195.447 80.2455 195.502 80.0171 195.502 79.7591C195.502 79.4969 195.447 79.2685 195.337 79.0739C195.231 78.8794 195.083 78.7292 194.893 78.6235C194.706 78.5135 194.495 78.4585 194.258 78.4585C194.025 78.4585 193.816 78.5135 193.63 78.6235C193.444 78.7292 193.296 78.8794 193.186 79.0739C193.076 79.2685 193.021 79.4969 193.021 79.7591C193.021 80.0171 193.076 80.2455 193.186 80.4443C193.296 80.6389 193.444 80.7912 193.63 80.9011C193.816 81.0069 194.025 81.0598 194.258 81.0598ZM195.514 81.4277V80.4253L195.559 79.7528L195.495 79.0803V76.7201H195.946V81.4277H195.514ZM199.755 81.4595C199.48 81.4595 199.22 81.4214 198.975 81.3453C198.73 81.2649 198.537 81.1655 198.398 81.0471L198.601 80.6918C198.736 80.7933 198.909 80.8821 199.121 80.9582C199.332 81.0301 199.554 81.0661 199.787 81.0661C200.104 81.0661 200.333 81.0175 200.472 80.9202C200.612 80.8187 200.682 80.6854 200.682 80.5205C200.682 80.3978 200.641 80.3026 200.561 80.235C200.485 80.1631 200.383 80.1102 200.256 80.0764C200.13 80.0383 199.988 80.0066 199.831 79.9812C199.675 79.9558 199.518 79.9262 199.362 79.8924C199.21 79.8585 199.07 79.8099 198.943 79.7464C198.816 79.6788 198.713 79.5878 198.632 79.4736C198.556 79.3594 198.518 79.2072 198.518 79.0168C198.518 78.8349 198.569 78.6721 198.67 78.5283C198.772 78.3845 198.92 78.2724 199.114 78.192C199.313 78.1074 199.554 78.0651 199.838 78.0651C200.053 78.0651 200.269 78.0948 200.485 78.154C200.701 78.209 200.878 78.283 201.018 78.376L200.821 78.7377C200.673 78.6362 200.515 78.5642 200.345 78.522C200.176 78.4754 200.007 78.4522 199.838 78.4522C199.537 78.4522 199.315 78.505 199.172 78.6108C199.032 78.7123 198.962 78.8434 198.962 79.0041C198.962 79.131 199 79.2304 199.076 79.3023C199.157 79.3742 199.26 79.4313 199.387 79.4736C199.518 79.5117 199.66 79.5434 199.812 79.5688C199.969 79.5942 200.123 79.6259 200.276 79.664C200.432 79.6978 200.574 79.7464 200.701 79.8099C200.832 79.8691 200.935 79.9558 201.011 80.07C201.092 80.18 201.132 80.3259 201.132 80.5078C201.132 80.7023 201.077 80.8715 200.967 81.0153C200.861 81.1549 200.705 81.2649 200.498 81.3453C200.295 81.4214 200.047 81.4595 199.755 81.4595ZM203.012 81.4595C202.699 81.4595 202.458 81.3749 202.289 81.2057C202.119 81.0365 202.035 80.7975 202.035 80.4887V77.3609H202.485V80.4634C202.485 80.6579 202.534 80.8081 202.631 80.9138C202.733 81.0196 202.876 81.0724 203.063 81.0724C203.261 81.0724 203.426 81.0153 203.557 80.9011L203.716 81.2247C203.627 81.3051 203.519 81.3643 203.392 81.4024C203.27 81.4404 203.143 81.4595 203.012 81.4595ZM201.438 78.4712V78.0969H203.5V78.4712H201.438ZM204.536 81.4277V78.0969H204.967V79.0041L204.923 78.8455C205.016 78.5917 205.173 78.3993 205.393 78.2682C205.613 78.1328 205.885 78.0651 206.211 78.0651V78.5029C206.194 78.5029 206.177 78.5029 206.16 78.5029C206.143 78.4987 206.126 78.4966 206.109 78.4966C205.758 78.4966 205.484 78.6044 205.285 78.8201C205.086 79.0316 204.987 79.334 204.987 79.7274V81.4277H204.536ZM208.872 81.4277V80.6918L208.853 80.5712V79.3404C208.853 79.057 208.773 78.8392 208.612 78.6869C208.456 78.5346 208.221 78.4585 207.908 78.4585C207.692 78.4585 207.487 78.4945 207.293 78.5664C207.098 78.6383 206.933 78.7334 206.798 78.8519L206.595 78.5156C206.764 78.3718 206.967 78.2618 207.204 78.1857C207.441 78.1053 207.69 78.0651 207.953 78.0651C208.384 78.0651 208.716 78.173 208.949 78.3887C209.185 78.6002 209.304 78.9238 209.304 79.3594V81.4277H208.872ZM207.724 81.4595C207.475 81.4595 207.257 81.4193 207.071 81.3389C206.889 81.2543 206.749 81.1401 206.652 80.9963C206.555 80.8483 206.506 80.6791 206.506 80.4887C206.506 80.3153 206.546 80.1588 206.627 80.0193C206.711 79.8754 206.846 79.7612 207.033 79.6767C207.223 79.5878 207.477 79.5434 207.794 79.5434H208.942V79.8797H207.807C207.485 79.8797 207.261 79.9368 207.134 80.051C207.011 80.1652 206.95 80.3069 206.95 80.4761C206.95 80.6664 207.024 80.8187 207.172 80.9329C207.32 81.0471 207.527 81.1042 207.794 81.1042C208.048 81.1042 208.266 81.0471 208.447 80.9329C208.634 80.8144 208.769 80.6452 208.853 80.4253L208.955 80.7362C208.87 80.9561 208.722 81.1317 208.511 81.2628C208.304 81.3939 208.041 81.4595 207.724 81.4595ZM211.581 81.4595C211.268 81.4595 211.027 81.3749 210.857 81.2057C210.688 81.0365 210.604 80.7975 210.604 80.4887V77.3609H211.054V80.4634C211.054 80.6579 211.103 80.8081 211.2 80.9138C211.301 81.0196 211.445 81.0724 211.631 81.0724C211.83 81.0724 211.995 81.0153 212.126 80.9011L212.285 81.2247C212.196 81.3051 212.088 81.3643 211.961 81.4024C211.839 81.4404 211.712 81.4595 211.581 81.4595ZM210.007 78.4712V78.0969H212.069V78.4712H210.007ZM214.402 81.4595C214.055 81.4595 213.751 81.3876 213.488 81.2437C213.226 81.0957 213.021 80.8948 212.873 80.641C212.725 80.383 212.651 80.089 212.651 79.7591C212.651 79.4292 212.721 79.1374 212.86 78.8836C213.004 78.6298 213.199 78.431 213.444 78.2872C213.693 78.1392 213.973 78.0651 214.281 78.0651C214.594 78.0651 214.871 78.1371 215.113 78.2809C215.358 78.4204 215.55 78.6192 215.69 78.8772C215.829 79.131 215.899 79.425 215.899 79.7591C215.899 79.7803 215.897 79.8035 215.893 79.8289C215.893 79.8501 215.893 79.8733 215.893 79.8987H212.993V79.5624H215.652L215.474 79.6957C215.474 79.4546 215.421 79.241 215.316 79.0549C215.214 78.8646 215.074 78.7165 214.897 78.6108C214.719 78.505 214.514 78.4522 214.281 78.4522C214.053 78.4522 213.848 78.505 213.666 78.6108C213.484 78.7165 213.342 78.8646 213.241 79.0549C213.139 79.2452 213.089 79.4631 213.089 79.7084V79.7782C213.089 80.0319 213.144 80.2561 213.254 80.4507C213.368 80.641 213.524 80.7912 213.723 80.9011C213.926 81.0069 214.157 81.0598 214.415 81.0598C214.618 81.0598 214.806 81.0238 214.979 80.9519C215.157 80.88 215.309 80.77 215.436 80.622L215.69 80.9138C215.542 81.0915 215.356 81.2268 215.132 81.3199C214.912 81.4129 214.668 81.4595 214.402 81.4595ZM218.237 82.6903C217.933 82.6903 217.641 82.6459 217.362 82.5571C217.083 82.4682 216.856 82.3413 216.683 82.1764L216.911 81.8338C217.068 81.9734 217.26 82.0833 217.489 82.1637C217.721 82.2483 217.967 82.2906 218.225 82.2906C218.648 82.2906 218.958 82.1912 219.157 81.9924C219.356 81.7978 219.455 81.4933 219.455 81.0788V80.2477L219.519 79.6767L219.474 79.1056V78.0969H219.906V81.0217C219.906 81.5969 219.764 82.0178 219.481 82.2842C219.202 82.5549 218.787 82.6903 218.237 82.6903ZM218.155 81.3008C217.838 81.3008 217.552 81.2332 217.298 81.0978C217.045 80.9582 216.844 80.7658 216.696 80.5205C216.552 80.2751 216.48 79.9939 216.48 79.6767C216.48 79.3594 216.552 79.0803 216.696 78.8392C216.844 78.5939 217.045 78.4035 217.298 78.2682C217.552 78.1328 217.838 78.0651 218.155 78.0651C218.451 78.0651 218.717 78.1265 218.954 78.2491C219.191 78.3718 219.379 78.5537 219.519 78.7948C219.658 79.0359 219.728 79.3298 219.728 79.6767C219.728 80.0235 219.658 80.3174 219.519 80.5585C219.379 80.7996 219.191 80.9836 218.954 81.1105C218.717 81.2374 218.451 81.3008 218.155 81.3008ZM218.199 80.9011C218.445 80.9011 218.662 80.8504 218.853 80.7489C219.043 80.6431 219.193 80.4993 219.303 80.3174C219.413 80.1313 219.468 79.9177 219.468 79.6767C219.468 79.4356 219.413 79.2241 219.303 79.0422C219.193 78.8603 219.043 78.7186 218.853 78.6171C218.662 78.5114 218.445 78.4585 218.199 78.4585C217.958 78.4585 217.74 78.5114 217.546 78.6171C217.355 78.7186 217.205 78.8603 217.095 79.0422C216.99 79.2241 216.937 79.4356 216.937 79.6767C216.937 79.9177 216.99 80.1313 217.095 80.3174C217.205 80.4993 217.355 80.6431 217.546 80.7489C217.74 80.8504 217.958 80.9011 218.199 80.9011ZM221.185 82.6903C221.028 82.6903 220.878 82.6649 220.734 82.6142C220.595 82.5634 220.474 82.4873 220.373 82.3858L220.582 82.0495C220.667 82.1299 220.758 82.1912 220.855 82.2335C220.956 82.28 221.068 82.3033 221.191 82.3033C221.339 82.3033 221.466 82.261 221.572 82.1764C221.682 82.096 221.785 81.9522 221.883 81.745L222.098 81.2564L222.149 81.1866L223.52 78.0969H223.964L222.295 81.8274C222.202 82.0432 222.098 82.2145 221.984 82.3413C221.874 82.4682 221.754 82.5571 221.623 82.6078C221.491 82.6628 221.346 82.6903 221.185 82.6903ZM222.073 81.5229L220.538 78.0969H221.007L222.365 81.1549L222.073 81.5229Z" fill="#1B1B1B"></path><g clip-path="url(#clip3_671_89225)"><mask id="mask2_671_89225" style="mask-type:alpha" maskUnits="userSpaceOnUse" x="273" y="62" width="60" height="27"><rect x="273.184" y="62.9277" width="59" height="26" fill="#D9D9D9"></rect></mask><g mask="url(#mask2_671_89225)"><path d="M277.684 91.8198C276.184 92.4924 273.684 89.8019 273.184 89.8019V101.428H332.184V70.2966C329.684 70.2966 329.184 73.6598 326.684 74.3324C324.184 75.005 324.184 69.6236 320.684 68.951C317.184 68.2784 315.684 82.4036 314.684 83.7482C313.684 85.0929 308.684 83.7482 305.184 82.4036C301.684 81.0589 301.184 79.7131 296.184 79.7131C291.184 79.7131 291.184 77.6946 287.184 75.6767C283.184 73.6588 284.184 77.6946 282.184 83.7482C280.184 89.8019 279.184 91.1472 277.684 91.8198Z" fill="url(#paint2_linear_671_89225)"></path><path d="M273.184 89.8019C273.684 89.8019 276.184 92.4924 277.684 91.8198C279.184 91.1472 280.184 89.8019 282.184 83.7482C284.184 77.6946 283.184 73.6588 287.184 75.6767C291.184 77.6946 291.184 79.7131 296.184 79.7131C301.184 79.7131 301.684 81.0589 305.184 82.4036C308.684 83.7482 313.684 85.0929 314.684 83.7482C315.684 82.4036 317.184 68.2784 320.684 68.951C324.184 69.6236 324.184 75.005 326.684 74.3324C329.184 73.6598 329.684 70.2966 332.184 70.2966" stroke="#9FCE10"></path></g><mask id="mask3_671_89225" style="mask-type:alpha" maskUnits="userSpaceOnUse" x="273" y="79" width="60" height="17"><rect width="59" height="16.5" transform="matrix(1 0 0 -1 273.184 95.9277)" fill="#D9D9D9"></rect></mask><g mask="url(#mask3_671_89225)"><path d="M277.684 91.8198C276.184 92.4924 273.684 89.8019 273.184 89.8019V61.4277H332.184V70.2966C329.684 70.2966 329.184 73.6598 326.684 74.3324C324.184 75.005 324.184 69.6236 320.684 68.951C317.184 68.2784 315.684 82.4036 314.684 83.7482C313.684 85.0929 308.684 83.7482 305.184 82.4036C301.684 81.0589 301.184 79.7131 296.184 79.7131C291.184 79.7131 291.184 77.6946 287.184 75.6767C283.184 73.6588 284.184 77.6946 282.184 83.7482C280.184 89.8019 279.184 91.1472 277.684 91.8198Z" fill="url(#paint3_linear_671_89225)"></path><path d="M273.184 89.8019C273.684 89.8019 276.184 92.4924 277.684 91.8198C279.184 91.1472 280.184 89.8019 282.184 83.7482C284.184 77.6946 283.184 73.6588 287.184 75.6767C291.184 77.6946 291.184 79.7131 296.184 79.7131C301.184 79.7131 301.684 81.0589 305.184 82.4036C308.684 83.7482 313.684 85.0929 314.684 83.7482C315.684 82.4036 317.184 68.2784 320.684 68.951C324.184 69.6236 324.184 75.005 326.684 74.3324C329.184 73.6598 329.684 70.2966 332.184 70.2966" stroke="#E85D37"></path></g></g><g clip-path="url(#clip4_671_89225)"><rect width="86.3837" height="31.741" transform="translate(342.41 63.8809)" fill="white"></rect></g><path d="M6 109.236L732.045 109.236" stroke="#BEBEBE" stroke-width="0.396746"></path><path d="M19.6791 136.364V135.673L21.7728 132.856H22.8514L20.8021 135.673L20.3009 135.527H23.7967V136.364H19.6791ZM22.071 137.297V136.364L22.1027 135.527V134.696H23.0734V137.297H22.071ZM26.0899 137.373C25.6839 137.373 25.3307 137.288 25.0304 137.119C24.7343 136.95 24.5059 136.703 24.3452 136.377C24.1845 136.051 24.1041 135.649 24.1041 135.171C24.1041 134.66 24.1993 134.226 24.3896 133.871C24.5842 133.516 24.8506 133.245 25.189 133.059C25.5316 132.873 25.925 132.78 26.3691 132.78C26.6059 132.78 26.8322 132.805 27.0479 132.856C27.2637 132.906 27.4498 132.983 27.6063 133.084L27.2256 133.839C27.1029 133.755 26.9718 133.697 26.8322 133.668C26.6927 133.634 26.5467 133.617 26.3945 133.617C26.0096 133.617 25.705 133.733 25.4809 133.966C25.2567 134.199 25.1446 134.543 25.1446 135C25.1446 135.076 25.1446 135.161 25.1446 135.254C25.1488 135.347 25.1615 135.44 25.1827 135.533L24.8972 135.267C24.9775 135.102 25.0812 134.964 25.208 134.854C25.3349 134.74 25.4851 134.655 25.6585 134.6C25.8361 134.541 26.0307 134.512 26.2422 134.512C26.5298 134.512 26.7878 134.569 27.0162 134.683C27.2446 134.797 27.4265 134.958 27.5619 135.165C27.7014 135.372 27.7712 135.616 27.7712 135.895C27.7712 136.195 27.6951 136.457 27.5428 136.681C27.3948 136.901 27.1939 137.073 26.9401 137.195C26.6905 137.314 26.4072 137.373 26.0899 137.373ZM26.0328 136.605C26.1766 136.605 26.3035 136.58 26.4135 136.529C26.5277 136.474 26.6165 136.396 26.68 136.294C26.7434 136.193 26.7751 136.077 26.7751 135.945C26.7751 135.742 26.7053 135.582 26.5658 135.463C26.4304 135.341 26.2485 135.279 26.0201 135.279C25.8679 135.279 25.7346 135.309 25.6204 135.368C25.5062 135.423 25.4153 135.501 25.3476 135.603C25.2842 135.7 25.2525 135.814 25.2525 135.945C25.2525 136.072 25.2842 136.187 25.3476 136.288C25.4111 136.385 25.4999 136.464 25.6141 136.523C25.7283 136.578 25.8679 136.605 26.0328 136.605ZM28.1057 137.297V136.631L29.8187 135.013C29.9541 134.89 30.0535 134.78 30.1169 134.683C30.1804 134.586 30.2226 134.497 30.2438 134.416C30.2692 134.336 30.2819 134.262 30.2819 134.194C30.2819 134.017 30.2205 133.881 30.0979 133.788C29.9794 133.691 29.8039 133.642 29.5713 133.642C29.3852 133.642 29.2118 133.678 29.051 133.75C28.8945 133.822 28.7613 133.934 28.6513 134.087L27.9027 133.604C28.0719 133.351 28.3087 133.15 28.6133 133.002C28.9178 132.854 29.2689 132.78 29.6664 132.78C29.9964 132.78 30.284 132.835 30.5293 132.945C30.7788 133.05 30.9713 133.2 31.1066 133.395C31.2462 133.59 31.316 133.822 31.316 134.093C31.316 134.237 31.297 134.381 31.2589 134.524C31.2251 134.664 31.1532 134.812 31.0432 134.968C30.9375 135.125 30.781 135.3 30.5737 135.495L29.1525 136.834L28.9559 136.459H31.4619V137.297H28.1057ZM33.4468 132.78C33.8571 132.78 34.2102 132.864 34.5063 133.033C34.8024 133.203 35.0308 133.45 35.1915 133.776C35.3522 134.097 35.4326 134.499 35.4326 134.981C35.4326 135.493 35.3353 135.926 35.1408 136.282C34.9504 136.637 34.6861 136.908 34.3477 137.094C34.0093 137.28 33.616 137.373 33.1676 137.373C32.935 137.373 32.7108 137.348 32.4951 137.297C32.2794 137.246 32.0933 137.17 31.9368 137.068L32.3175 136.313C32.4401 136.398 32.5712 136.457 32.7108 136.491C32.8504 136.521 32.9963 136.536 33.1486 136.536C33.5293 136.536 33.8317 136.419 34.0559 136.187C34.2843 135.954 34.3985 135.609 34.3985 135.152C34.3985 135.076 34.3963 134.992 34.3921 134.899C34.3879 134.806 34.3773 134.713 34.3604 134.619L34.6395 134.886C34.5676 135.051 34.4661 135.19 34.335 135.305C34.2039 135.415 34.0516 135.499 33.8782 135.558C33.7048 135.613 33.5102 135.641 33.2945 135.641C33.0111 135.641 32.7531 135.584 32.5205 135.47C32.2921 135.355 32.1081 135.195 31.9685 134.987C31.8332 134.78 31.7655 134.537 31.7655 134.258C31.7655 133.953 31.8395 133.691 31.9875 133.471C32.1398 133.251 32.3428 133.082 32.5966 132.964C32.8546 132.841 33.138 132.78 33.4468 132.78ZM33.5102 133.547C33.3622 133.547 33.2332 133.575 33.1232 133.63C33.0132 133.681 32.9265 133.757 32.8631 133.858C32.7996 133.955 32.7679 134.072 32.7679 134.207C32.7679 134.41 32.8356 134.573 32.9709 134.696C33.1105 134.814 33.2945 134.873 33.5229 134.873C33.671 134.873 33.8021 134.846 33.9163 134.791C34.0347 134.732 34.1256 134.651 34.1891 134.55C34.2525 134.448 34.2843 134.334 34.2843 134.207C34.2843 134.08 34.2525 133.968 34.1891 133.871C34.1299 133.769 34.0432 133.691 33.929 133.636C33.8148 133.577 33.6752 133.547 33.5102 133.547ZM35.8749 136.364V135.673L37.9686 132.856H39.0472L36.9979 135.673L36.4967 135.527H39.9925V136.364H35.8749ZM38.2668 137.297V136.364L38.2985 135.527V134.696H39.2693V137.297H38.2668ZM42.2033 137.373C41.8395 137.373 41.5139 137.284 41.2262 137.107C40.9386 136.925 40.7123 136.662 40.5474 136.32C40.3824 135.977 40.2999 135.563 40.2999 135.076C40.2999 134.59 40.3824 134.175 40.5474 133.833C40.7123 133.49 40.9386 133.23 41.2262 133.052C41.5139 132.871 41.8395 132.78 42.2033 132.78C42.5713 132.78 42.897 132.871 43.1803 133.052C43.468 133.23 43.6942 133.49 43.8592 133.833C44.0242 134.175 44.1066 134.59 44.1066 135.076C44.1066 135.563 44.0242 135.977 43.8592 136.32C43.6942 136.662 43.468 136.925 43.1803 137.107C42.897 137.284 42.5713 137.373 42.2033 137.373ZM42.2033 136.504C42.3767 136.504 42.5269 136.455 42.6537 136.358C42.7849 136.261 42.8864 136.106 42.9583 135.895C43.0344 135.683 43.0725 135.41 43.0725 135.076C43.0725 134.742 43.0344 134.469 42.9583 134.258C42.8864 134.046 42.7849 133.892 42.6537 133.795C42.5269 133.697 42.3767 133.649 42.2033 133.649C42.0341 133.649 41.8839 133.697 41.7528 133.795C41.6259 133.892 41.5244 134.046 41.4483 134.258C41.3764 134.469 41.3404 134.742 41.3404 135.076C41.3404 135.41 41.3764 135.683 41.4483 135.895C41.5244 136.106 41.6259 136.261 41.7528 136.358C41.8839 136.455 42.0341 136.504 42.2033 136.504ZM45.9843 137.373C45.6755 137.373 45.3689 137.333 45.0643 137.252C44.7598 137.168 44.5018 137.049 44.2903 136.897L44.69 136.11C44.8592 136.233 45.0559 136.33 45.28 136.402C45.5042 136.474 45.7305 136.51 45.9589 136.51C46.2169 136.51 46.4199 136.459 46.568 136.358C46.716 136.256 46.79 136.117 46.79 135.939C46.79 135.77 46.7245 135.637 46.5933 135.539C46.4622 135.442 46.2507 135.394 45.9589 135.394H45.4894V134.715L46.7266 133.313L46.8408 133.681H44.5123V132.856H47.6212V133.522L46.3903 134.924L45.8701 134.626H46.1683C46.7139 134.626 47.1263 134.748 47.4054 134.994C47.6846 135.239 47.8242 135.554 47.8242 135.939C47.8242 136.189 47.7586 136.423 47.6275 136.643C47.4964 136.859 47.2955 137.035 47.0248 137.17C46.7541 137.305 46.4072 137.373 45.9843 137.373ZM48.2297 137.297V136.631L49.9427 135.013C50.078 134.89 50.1774 134.78 50.2409 134.683C50.3043 134.586 50.3466 134.497 50.3678 134.416C50.3932 134.336 50.4058 134.262 50.4058 134.194C50.4058 134.017 50.3445 133.881 50.2219 133.788C50.1034 133.691 49.9279 133.642 49.6953 133.642C49.5092 133.642 49.3357 133.678 49.175 133.75C49.0185 133.822 48.8853 133.934 48.7753 134.087L48.0267 133.604C48.1958 133.351 48.4327 133.15 48.7372 133.002C49.0418 132.854 49.3928 132.78 49.7904 132.78C50.1203 132.78 50.408 132.835 50.6533 132.945C50.9028 133.05 51.0953 133.2 51.2306 133.395C51.3702 133.59 51.44 133.822 51.44 134.093C51.44 134.237 51.421 134.381 51.3829 134.524C51.3491 134.664 51.2772 134.812 51.1672 134.968C51.0614 135.125 50.9049 135.3 50.6977 135.495L49.2765 136.834L49.0798 136.459H51.5859V137.297H48.2297Z" fill="#1B1B1B"></path><path d="M20.3469 141.962H20.5927V144.341H21.0963V144.658H19.6926V144.341H20.2596V142.315L19.6926 142.529V142.212L20.3469 141.962ZM21.559 141.962H23.1769V142.279H21.8723L21.8247 143.04C21.9674 143.001 22.126 142.981 22.2847 142.981C22.7922 142.981 23.3077 143.199 23.3077 143.845C23.3077 144.393 22.8477 144.706 22.2609 144.706C21.9476 144.706 21.6304 144.638 21.3964 144.523V144.206C21.6264 144.329 21.9317 144.396 22.2212 144.396C22.6614 144.396 22.9707 144.21 22.9707 143.845C22.9707 143.405 22.59 143.282 22.1697 143.282C21.9317 143.282 21.678 143.334 21.4718 143.409L21.559 141.962ZM25.0529 141.962H25.4137V143.75H25.9213V144.059H25.4137V144.658H25.0846V144.059H23.5817V143.762L25.0529 141.962ZM25.0846 143.75V142.41L23.9902 143.75H25.0846ZM26.0564 141.962H27.9994V142.263L26.8732 144.658H26.5163L27.6346 142.279H26.0564V141.962ZM30.1053 142.648C30.1053 142.925 29.9427 143.163 29.7127 143.243C29.9427 143.314 30.2163 143.512 30.2163 143.925C30.2163 144.448 29.7682 144.706 29.229 144.706C28.8443 144.706 28.5548 144.646 28.2892 144.527V144.198C28.5628 144.341 28.8443 144.396 29.2012 144.393C29.5977 144.393 29.8951 144.262 29.8951 143.909C29.8951 143.54 29.6017 143.425 29.2369 143.425H28.8245V143.108L29.2012 143.112C29.5938 143.112 29.7841 142.925 29.7841 142.676C29.7841 142.398 29.5581 142.223 29.1457 142.223C28.8602 142.223 28.5985 142.291 28.3368 142.43V142.105C28.5786 141.982 28.8522 141.914 29.1893 141.914C29.7405 141.914 30.1053 142.212 30.1053 142.648ZM31.2747 141.962H31.5206V144.341H32.0242V144.658H30.6204V144.341H31.1875V142.315L30.6204 142.529V142.212L31.2747 141.962ZM32.7486 144.492C32.7486 144.626 32.6534 144.694 32.5424 144.694C32.4313 144.694 32.3322 144.626 32.3322 144.492C32.3322 144.361 32.4313 144.293 32.5424 144.293C32.6534 144.293 32.7486 144.361 32.7486 144.492ZM34.9884 142.648C34.9884 142.925 34.8258 143.163 34.5958 143.243C34.8258 143.314 35.0994 143.512 35.0994 143.925C35.0994 144.448 34.6513 144.706 34.112 144.706C33.7274 144.706 33.4379 144.646 33.1722 144.527V144.198C33.4458 144.341 33.7274 144.396 34.0843 144.393C34.4808 144.393 34.7782 144.262 34.7782 143.909C34.7782 143.54 34.4848 143.425 34.12 143.425H33.7076V143.108L34.0843 143.112C34.4768 143.112 34.6672 142.925 34.6672 142.676C34.6672 142.398 34.4411 142.223 34.0288 142.223C33.7432 142.223 33.4815 142.291 33.2198 142.43V142.105C33.4617 141.982 33.7353 141.914 34.0724 141.914C34.6235 141.914 34.9884 142.212 34.9884 142.648ZM35.6661 141.962H37.2839V142.279H35.9793L35.9318 143.04C36.0745 143.001 36.2331 142.981 36.3917 142.981C36.8993 142.981 37.4148 143.199 37.4148 143.845C37.4148 144.393 36.9548 144.706 36.3679 144.706C36.0547 144.706 35.7375 144.638 35.5035 144.523V144.206C35.7335 144.329 36.0388 144.396 36.3283 144.396C36.7684 144.396 37.0777 144.21 37.0777 143.845C37.0777 143.405 36.6971 143.282 36.2767 143.282C36.0388 143.282 35.785 143.334 35.5788 143.409L35.6661 141.962ZM40.8968 141.882H41.2299V143.643C41.2299 144.436 40.6867 144.706 40.072 144.706C39.4535 144.706 38.9102 144.436 38.9102 143.643V141.882H39.2433V143.627C39.2433 144.19 39.5922 144.389 40.072 144.389C40.5479 144.389 40.8968 144.19 40.8968 143.627V141.882ZM41.761 142.568C41.761 142.073 42.2091 141.835 42.7127 141.835C43.018 141.835 43.3313 141.91 43.5533 142.037V142.37C43.3313 142.227 43.022 142.148 42.7365 142.152C42.3717 142.152 42.098 142.259 42.098 142.557C42.098 143.258 43.7516 142.957 43.7516 143.952C43.7516 144.504 43.2559 144.71 42.7246 144.706C42.3637 144.706 42.0425 144.619 41.7729 144.468V144.135C42.0663 144.313 42.3835 144.389 42.7008 144.389C43.0854 144.389 43.4145 144.289 43.4145 143.976C43.4145 143.231 41.761 143.544 41.761 142.568ZM44.2471 141.882H45.1591C46.1385 141.882 46.6263 142.469 46.6263 143.27C46.6263 144.071 46.1385 144.658 45.1591 144.658H44.2471V141.882ZM46.2892 143.27C46.2892 142.604 45.9086 142.2 45.1591 142.2H44.5802V144.341H45.1591C45.9086 144.341 46.2892 143.937 46.2892 143.27Z" fill="#1B1B1B"></path><rect x="65.2578" y="117.428" width="665.777" height="43.6185" rx="7.93063" fill="white"></rect><rect x="85.3066" y="128.934" width="59.8763" height="20.2231" rx="10.1116" fill="#B4E913"></rect><path d="M106.817 141.045H105.98L106.202 140.087H105.77V139.44H106.354L106.621 138.329H106.088V137.682H106.773L107.001 136.724H107.839L107.61 137.682H108.429L108.657 136.724H109.495L109.266 137.682H109.691V138.329H109.114L108.847 139.44H109.374V140.087H108.695L108.473 141.045H107.636L107.858 140.087H107.039L106.817 141.045ZM107.458 138.329L107.192 139.44H108.01L108.276 138.329H107.458Z" fill="#1B1B1B"></path><path d="M113.333 137.099C113.777 136.781 114.291 136.642 114.818 136.642C115.687 136.642 116.391 137.035 116.391 137.917C116.391 138.647 115.789 139.078 115.224 139.414C114.71 139.719 114.272 139.954 114.266 140.233L116.423 140.226V141.045H113.187V140.62C113.187 139.579 113.974 139.173 114.609 138.799C115.059 138.539 115.446 138.368 115.446 137.955C115.446 137.638 115.167 137.473 114.729 137.473C114.298 137.473 113.79 137.638 113.333 137.987V137.099ZM116.91 138.126C116.91 137.143 117.677 136.642 118.559 136.642C119.949 136.642 120.513 137.492 120.513 138.888C120.513 140.468 119.562 141.134 118.464 141.134C118.064 141.134 117.646 141.039 117.278 140.867V140.03C117.576 140.226 117.969 140.334 118.337 140.334C118.921 140.334 119.454 140.087 119.568 139.23C119.187 139.433 118.838 139.522 118.42 139.522C117.639 139.522 116.91 139.053 116.91 138.126ZM118.635 137.416C118.217 137.416 117.861 137.606 117.861 138.082C117.861 138.577 118.261 138.729 118.705 138.729C118.991 138.729 119.289 138.64 119.568 138.469C119.479 137.657 119.13 137.416 118.635 137.416ZM124.127 137.835C124.127 138.279 123.88 138.621 123.474 138.761C123.912 138.894 124.305 139.23 124.305 139.865C124.305 140.772 123.467 141.134 122.579 141.134C122.021 141.134 121.57 141.045 121.082 140.842V139.96C121.57 140.233 122.008 140.303 122.503 140.296C122.992 140.296 123.398 140.138 123.398 139.732C123.398 139.364 123.08 139.23 122.649 139.23H121.938L121.945 138.418L122.541 138.425C122.966 138.425 123.226 138.266 123.226 137.968C123.226 137.657 122.954 137.473 122.433 137.473C122.046 137.473 121.583 137.6 121.158 137.86V136.978C121.545 136.769 122.034 136.642 122.566 136.642C123.461 136.642 124.127 137.048 124.127 137.835Z" fill="#1B1B1B"></path><rect x="162.58" y="129.33" width="81.2069" height="19.43" rx="9.71502" stroke="#B4E913" stroke-width="0.793063"></rect><path d="M174.907 141.045V136.604H175.294L177.324 140.068H177.121L179.132 136.604H179.519V141.045H179.069V137.308H179.177L177.324 140.48H177.102L175.237 137.308H175.357V141.045H174.907ZM182.286 141.077C181.939 141.077 181.635 141.005 181.372 140.861C181.11 140.713 180.905 140.512 180.757 140.258C180.609 140 180.535 139.706 180.535 139.376C180.535 139.046 180.605 138.755 180.744 138.501C180.888 138.247 181.083 138.048 181.328 137.904C181.578 137.756 181.857 137.682 182.165 137.682C182.478 137.682 182.756 137.754 182.997 137.898C183.242 138.038 183.434 138.236 183.574 138.494C183.714 138.748 183.783 139.042 183.783 139.376C183.783 139.397 183.781 139.421 183.777 139.446C183.777 139.467 183.777 139.491 183.777 139.516H180.878V139.18H183.536L183.358 139.313C183.358 139.072 183.305 138.858 183.2 138.672C183.098 138.482 182.959 138.334 182.781 138.228C182.603 138.122 182.398 138.069 182.165 138.069C181.937 138.069 181.732 138.122 181.55 138.228C181.368 138.334 181.226 138.482 181.125 138.672C181.023 138.862 180.973 139.08 180.973 139.326V139.395C180.973 139.649 181.028 139.873 181.138 140.068C181.252 140.258 181.408 140.408 181.607 140.518C181.81 140.624 182.041 140.677 182.299 140.677C182.502 140.677 182.69 140.641 182.863 140.569C183.041 140.497 183.193 140.387 183.32 140.239L183.574 140.531C183.426 140.709 183.24 140.844 183.016 140.937C182.796 141.03 182.552 141.077 182.286 141.077ZM186.121 142.307C185.817 142.307 185.525 142.263 185.246 142.174C184.967 142.085 184.74 141.959 184.567 141.794L184.795 141.451C184.952 141.591 185.144 141.701 185.373 141.781C185.605 141.865 185.851 141.908 186.109 141.908C186.532 141.908 186.843 141.808 187.041 141.61C187.24 141.415 187.34 141.11 187.34 140.696V139.865L187.403 139.294L187.359 138.723V137.714H187.79V140.639C187.79 141.214 187.648 141.635 187.365 141.901C187.086 142.172 186.671 142.307 186.121 142.307ZM186.039 140.918C185.722 140.918 185.436 140.85 185.182 140.715C184.929 140.575 184.728 140.383 184.58 140.138C184.436 139.892 184.364 139.611 184.364 139.294C184.364 138.977 184.436 138.697 184.58 138.456C184.728 138.211 184.929 138.021 185.182 137.885C185.436 137.75 185.722 137.682 186.039 137.682C186.335 137.682 186.601 137.744 186.838 137.866C187.075 137.989 187.263 138.171 187.403 138.412C187.543 138.653 187.612 138.947 187.612 139.294C187.612 139.641 187.543 139.935 187.403 140.176C187.263 140.417 187.075 140.601 186.838 140.728C186.601 140.855 186.335 140.918 186.039 140.918ZM186.083 140.518C186.329 140.518 186.546 140.468 186.737 140.366C186.927 140.26 187.077 140.117 187.187 139.935C187.297 139.749 187.352 139.535 187.352 139.294C187.352 139.053 187.297 138.841 187.187 138.659C187.077 138.478 186.927 138.336 186.737 138.234C186.546 138.129 186.329 138.076 186.083 138.076C185.842 138.076 185.624 138.129 185.43 138.234C185.239 138.336 185.089 138.478 184.979 138.659C184.874 138.841 184.821 139.053 184.821 139.294C184.821 139.535 184.874 139.749 184.979 139.935C185.089 140.117 185.239 140.26 185.43 140.366C185.624 140.468 185.842 140.518 186.083 140.518ZM191.131 141.045V140.309L191.112 140.188V138.958C191.112 138.674 191.031 138.456 190.871 138.304C190.714 138.152 190.479 138.076 190.166 138.076C189.951 138.076 189.746 138.112 189.551 138.184C189.356 138.255 189.192 138.351 189.056 138.469L188.853 138.133C189.022 137.989 189.225 137.879 189.462 137.803C189.699 137.723 189.949 137.682 190.211 137.682C190.642 137.682 190.974 137.79 191.207 138.006C191.444 138.217 191.562 138.541 191.562 138.977V141.045H191.131ZM189.982 141.077C189.733 141.077 189.515 141.036 189.329 140.956C189.147 140.872 189.008 140.757 188.91 140.613C188.813 140.465 188.764 140.296 188.764 140.106C188.764 139.933 188.804 139.776 188.885 139.636C188.969 139.493 189.105 139.378 189.291 139.294C189.481 139.205 189.735 139.161 190.052 139.161H191.201V139.497H190.065C189.743 139.497 189.519 139.554 189.392 139.668C189.27 139.782 189.208 139.924 189.208 140.093C189.208 140.284 189.282 140.436 189.43 140.55C189.579 140.664 189.786 140.721 190.052 140.721C190.306 140.721 190.524 140.664 190.706 140.55C190.892 140.432 191.027 140.262 191.112 140.042L191.213 140.353C191.129 140.573 190.981 140.749 190.769 140.88C190.562 141.011 190.3 141.077 189.982 141.077ZM194.541 141.045V136.604H196.204C196.58 136.604 196.904 136.665 197.174 136.788C197.445 136.906 197.652 137.08 197.796 137.308C197.944 137.532 198.018 137.805 198.018 138.126C198.018 138.439 197.944 138.71 197.796 138.939C197.652 139.163 197.445 139.336 197.174 139.459C196.904 139.581 196.58 139.643 196.204 139.643H194.802L195.011 139.421V141.045H194.541ZM195.011 139.459L194.802 139.23H196.191C196.635 139.23 196.971 139.135 197.2 138.945C197.432 138.75 197.549 138.478 197.549 138.126C197.549 137.771 197.432 137.496 197.2 137.302C196.971 137.107 196.635 137.01 196.191 137.01H194.802L195.011 136.788V139.459ZM198.858 141.045V137.714H199.289V138.621L199.245 138.463C199.338 138.209 199.494 138.016 199.714 137.885C199.934 137.75 200.207 137.682 200.533 137.682V138.12C200.516 138.12 200.499 138.12 200.482 138.12C200.465 138.116 200.448 138.114 200.431 138.114C200.08 138.114 199.805 138.222 199.606 138.437C199.407 138.649 199.308 138.951 199.308 139.345V141.045H198.858ZM202.681 141.077C202.36 141.077 202.07 141.005 201.812 140.861C201.558 140.713 201.357 140.512 201.209 140.258C201.061 140 200.987 139.706 200.987 139.376C200.987 139.042 201.061 138.748 201.209 138.494C201.357 138.241 201.558 138.042 201.812 137.898C202.066 137.754 202.356 137.682 202.681 137.682C203.011 137.682 203.303 137.754 203.557 137.898C203.815 138.042 204.016 138.241 204.16 138.494C204.308 138.748 204.382 139.042 204.382 139.376C204.382 139.706 204.308 140 204.16 140.258C204.016 140.512 203.815 140.713 203.557 140.861C203.299 141.005 203.007 141.077 202.681 141.077ZM202.681 140.677C202.922 140.677 203.136 140.624 203.322 140.518C203.508 140.408 203.654 140.256 203.76 140.062C203.87 139.863 203.925 139.634 203.925 139.376C203.925 139.114 203.87 138.886 203.76 138.691C203.654 138.497 203.508 138.346 203.322 138.241C203.136 138.131 202.924 138.076 202.688 138.076C202.451 138.076 202.239 138.131 202.053 138.241C201.867 138.346 201.719 138.497 201.609 138.691C201.499 138.886 201.444 139.114 201.444 139.376C201.444 139.634 201.499 139.863 201.609 140.062C201.719 140.256 201.867 140.408 202.053 140.518C202.239 140.624 202.449 140.677 202.681 140.677ZM205.377 141.045V137.295C205.377 136.999 205.464 136.76 205.638 136.578C205.811 136.397 206.06 136.306 206.386 136.306C206.513 136.306 206.636 136.322 206.754 136.356C206.873 136.39 206.972 136.443 207.052 136.515L206.9 136.851C206.837 136.796 206.763 136.756 206.678 136.731C206.593 136.701 206.502 136.686 206.405 136.686C206.215 136.686 206.069 136.739 205.967 136.845C205.866 136.951 205.815 137.107 205.815 137.314V137.822L205.828 138.031V141.045H205.377ZM204.781 138.088V137.714H206.843V138.088H204.781ZM207.452 141.045V137.714H207.903V141.045H207.452ZM207.68 136.978C207.587 136.978 207.509 136.946 207.446 136.883C207.382 136.819 207.351 136.743 207.351 136.655C207.351 136.566 207.382 136.492 207.446 136.432C207.509 136.369 207.587 136.337 207.68 136.337C207.774 136.337 207.852 136.367 207.915 136.426C207.979 136.485 208.01 136.559 208.01 136.648C208.01 136.741 207.979 136.819 207.915 136.883C207.856 136.946 207.778 136.978 207.68 136.978ZM210.221 141.077C209.908 141.077 209.667 140.992 209.497 140.823C209.328 140.654 209.244 140.415 209.244 140.106V136.978H209.694V140.081C209.694 140.275 209.743 140.425 209.84 140.531C209.941 140.637 210.085 140.69 210.271 140.69C210.47 140.69 210.635 140.633 210.766 140.518L210.925 140.842C210.836 140.922 210.728 140.981 210.601 141.02C210.479 141.058 210.352 141.077 210.221 141.077ZM208.647 138.088V137.714H210.709V138.088H208.647ZM215.429 141.083C215.095 141.083 214.786 141.028 214.503 140.918C214.22 140.804 213.974 140.645 213.767 140.442C213.56 140.239 213.397 140 213.278 139.725C213.164 139.45 213.107 139.15 213.107 138.824C213.107 138.499 213.164 138.198 213.278 137.923C213.397 137.648 213.56 137.41 213.767 137.206C213.979 137.003 214.226 136.847 214.509 136.737C214.793 136.623 215.101 136.566 215.436 136.566C215.757 136.566 216.059 136.621 216.343 136.731C216.626 136.836 216.865 136.997 217.06 137.213L216.762 137.511C216.58 137.325 216.379 137.192 216.159 137.111C215.939 137.027 215.702 136.984 215.448 136.984C215.182 136.984 214.934 137.031 214.706 137.124C214.478 137.213 214.279 137.342 214.11 137.511C213.94 137.676 213.807 137.871 213.71 138.095C213.617 138.315 213.57 138.558 213.57 138.824C213.57 139.091 213.617 139.336 213.71 139.56C213.807 139.78 213.94 139.975 214.11 140.144C214.279 140.309 214.478 140.438 214.706 140.531C214.934 140.62 215.182 140.664 215.448 140.664C215.702 140.664 215.939 140.622 216.159 140.537C216.379 140.453 216.58 140.317 216.762 140.131L217.06 140.43C216.865 140.645 216.626 140.808 216.343 140.918C216.059 141.028 215.755 141.083 215.429 141.083ZM219.175 141.077C218.853 141.077 218.563 141.005 218.305 140.861C218.052 140.713 217.851 140.512 217.703 140.258C217.555 140 217.481 139.706 217.481 139.376C217.481 139.042 217.555 138.748 217.703 138.494C217.851 138.241 218.052 138.042 218.305 137.898C218.559 137.754 218.849 137.682 219.175 137.682C219.504 137.682 219.796 137.754 220.05 137.898C220.308 138.042 220.509 138.241 220.653 138.494C220.801 138.748 220.875 139.042 220.875 139.376C220.875 139.706 220.801 140 220.653 140.258C220.509 140.512 220.308 140.713 220.05 140.861C219.792 141.005 219.5 141.077 219.175 141.077ZM219.175 140.677C219.416 140.677 219.629 140.624 219.815 140.518C220.001 140.408 220.147 140.256 220.253 140.062C220.363 139.863 220.418 139.634 220.418 139.376C220.418 139.114 220.363 138.886 220.253 138.691C220.147 138.497 220.001 138.346 219.815 138.241C219.629 138.131 219.418 138.076 219.181 138.076C218.944 138.076 218.733 138.131 218.546 138.241C218.36 138.346 218.212 138.497 218.102 138.691C217.992 138.886 217.937 139.114 217.937 139.376C217.937 139.634 217.992 139.863 218.102 140.062C218.212 140.256 218.36 140.408 218.546 140.518C218.733 140.624 218.942 140.677 219.175 140.677ZM225.956 137.682C226.227 137.682 226.462 137.735 226.661 137.841C226.864 137.942 227.02 138.099 227.13 138.31C227.244 138.522 227.302 138.788 227.302 139.11V141.045H226.851V139.154C226.851 138.803 226.766 138.539 226.597 138.361C226.432 138.179 226.198 138.088 225.893 138.088C225.665 138.088 225.466 138.137 225.297 138.234C225.132 138.327 225.003 138.465 224.91 138.647C224.821 138.824 224.776 139.04 224.776 139.294V141.045H224.326V139.154C224.326 138.803 224.241 138.539 224.072 138.361C223.903 138.179 223.666 138.088 223.362 138.088C223.137 138.088 222.941 138.137 222.772 138.234C222.602 138.327 222.471 138.465 222.378 138.647C222.289 138.824 222.245 139.04 222.245 139.294V141.045H221.795V137.714H222.226V138.615L222.156 138.456C222.258 138.215 222.42 138.027 222.645 137.892C222.873 137.752 223.142 137.682 223.45 137.682C223.776 137.682 224.053 137.765 224.282 137.93C224.51 138.09 224.658 138.334 224.726 138.659L224.548 138.59C224.645 138.319 224.817 138.101 225.062 137.936C225.311 137.767 225.61 137.682 225.956 137.682ZM228.568 141.077C228.475 141.077 228.394 141.043 228.326 140.975C228.263 140.907 228.231 140.825 228.231 140.728C228.231 140.626 228.263 140.544 228.326 140.48C228.394 140.417 228.475 140.385 228.568 140.385C228.661 140.385 228.739 140.417 228.802 140.48C228.87 140.544 228.904 140.626 228.904 140.728C228.904 140.825 228.87 140.907 228.802 140.975C228.739 141.043 228.661 141.077 228.568 141.077ZM229.912 141.077C229.819 141.077 229.739 141.043 229.671 140.975C229.608 140.907 229.576 140.825 229.576 140.728C229.576 140.626 229.608 140.544 229.671 140.48C229.739 140.417 229.819 140.385 229.912 140.385C230.005 140.385 230.083 140.417 230.147 140.48C230.214 140.544 230.248 140.626 230.248 140.728C230.248 140.825 230.214 140.907 230.147 140.975C230.083 141.043 230.005 141.077 229.912 141.077ZM231.257 141.077C231.163 141.077 231.083 141.043 231.015 140.975C230.952 140.907 230.92 140.825 230.92 140.728C230.92 140.626 230.952 140.544 231.015 140.48C231.083 140.417 231.163 140.385 231.257 140.385C231.35 140.385 231.428 140.417 231.491 140.48C231.559 140.544 231.593 140.626 231.593 140.728C231.593 140.825 231.559 140.907 231.491 140.975C231.428 141.043 231.35 141.077 231.257 141.077Z" fill="#1B1B1B"></path><g clip-path="url(#clip5_671_89225)"><mask id="mask4_671_89225" style="mask-type:alpha" maskUnits="userSpaceOnUse" x="273" y="139" width="60" height="17"><rect width="59" height="16.5" transform="matrix(1 0 0 -1 273.184 155.545)" fill="#D9D9D9"></rect></mask><g mask="url(#mask4_671_89225)"><path d="M278.684 150.075C275.884 149.675 273.85 151.908 273.184 153.075V148.545H288.182C288.523 147.928 288.853 147.404 289.184 147.074C290.684 145.574 292.184 147.074 296.684 146.074C301.184 145.074 302.184 144.074 303.684 140.574C305.184 137.074 306.184 131.074 308.684 131.574C311.184 132.074 311.184 137.074 315.684 136.574C320.184 136.074 320.184 135.574 322.684 133.074C325.184 130.574 327.184 135.574 331.684 135.574V148.545H288.182C286.975 150.729 285.633 154.074 283.684 154.074C281.184 154.074 282.184 150.575 278.684 150.075Z" fill="url(#paint4_linear_671_89225)"></path><path d="M273.184 153.075C273.85 151.908 275.884 149.675 278.684 150.075C282.184 150.575 281.184 154.074 283.684 154.074C286.184 154.074 287.684 148.574 289.184 147.074C290.684 145.574 292.184 147.074 296.684 146.074C301.184 145.074 302.184 144.074 303.684 140.574C305.184 137.074 306.184 131.074 308.684 131.574C311.184 132.074 311.184 137.074 315.684 136.574C320.184 136.074 320.184 135.574 322.684 133.074C325.184 130.574 327.184 135.574 331.684 135.574" stroke="#E14F09"></path></g><mask id="mask5_671_89225" style="mask-type:alpha" maskUnits="userSpaceOnUse" x="273" y="122" width="60" height="27"><rect x="273.184" y="122.545" width="59" height="26" fill="#D9D9D9"></rect></mask><g mask="url(#mask5_671_89225)"><path d="M278.684 150.075C275.884 149.675 273.85 151.908 273.184 153.075V161.045H331.684V135.574C327.184 135.574 325.184 130.574 322.684 133.074C320.184 135.574 320.184 136.074 315.684 136.574C311.184 137.074 311.184 132.074 308.684 131.574C306.184 131.074 305.184 137.074 303.684 140.574C302.184 144.074 301.184 145.074 296.684 146.074C292.184 147.074 290.684 145.574 289.184 147.074C287.684 148.574 286.184 154.074 283.684 154.074C281.184 154.074 282.184 150.575 278.684 150.075Z" fill="url(#paint5_linear_671_89225)"></path><path d="M273.184 153.075C273.85 151.908 275.884 149.675 278.684 150.075C282.184 150.575 281.184 154.074 283.684 154.074C286.184 154.074 287.684 148.574 289.184 147.074C290.684 145.574 292.184 147.074 296.684 146.074C301.184 145.074 302.184 144.074 303.684 140.574C305.184 137.074 306.184 131.074 308.684 131.574C311.184 132.074 311.184 137.074 315.684 136.574C320.184 136.074 320.184 135.574 322.684 133.074C325.184 130.574 327.184 135.574 331.684 135.574" stroke="#9FCE10"></path></g></g><g clip-path="url(#clip6_671_89225)"><rect width="86.3837" height="31.741" transform="translate(342.41 122.881)" fill="white"></rect></g></g></g><defs><linearGradient id="paint0_linear_671_89225" x1="302.201" y1="18.3086" x2="302.201" y2="32.3086" gradientUnits="userSpaceOnUse"><stop stop-color="#9FCE10"></stop><stop offset="1" stop-color="white" stop-opacity="0"></stop></linearGradient><linearGradient id="paint1_linear_671_89225" x1="302.166" y1="31.8075" x2="302.166" y2="48.3075" gradientUnits="userSpaceOnUse"><stop stop-color="white" stop-opacity="0"></stop><stop offset="1" stop-color="#E14F09"></stop></linearGradient><linearGradient id="paint2_linear_671_89225" x1="302.684" y1="68.9277" x2="303.184" y2="89.4277" gradientUnits="userSpaceOnUse"><stop stop-color="#9FCE10"></stop><stop offset="1" stop-color="white" stop-opacity="0"></stop></linearGradient><linearGradient id="paint3_linear_671_89225" x1="302.684" y1="79.9277" x2="302.684" y2="91.9277" gradientUnits="userSpaceOnUse"><stop stop-color="white" stop-opacity="0"></stop><stop offset="1" stop-color="#E14F09"></stop></linearGradient><linearGradient id="paint4_linear_671_89225" x1="302.434" y1="149.045" x2="302.434" y2="153.545" gradientUnits="userSpaceOnUse"><stop stop-color="white"></stop><stop offset="1" stop-color="#E14F09"></stop></linearGradient><linearGradient id="paint5_linear_671_89225" x1="302.434" y1="131.545" x2="302.434" y2="147.545" gradientUnits="userSpaceOnUse"><stop stop-color="#C3F110"></stop><stop offset="1" stop-color="white"></stop></linearGradient><clipPath id="clip0_671_89225"><rect width="348" height="167" fill="white"></rect></clipPath><clipPath id="clip1_671_89225"><rect width="734" height="157" fill="white" transform="translate(6 10)"></rect></clipPath><clipPath id="clip2_671_89225"><rect width="59" height="33" fill="white" transform="translate(273.184 15.3086)"></rect></clipPath><clipPath id="clip3_671_89225"><rect width="59" height="33" fill="white" transform="translate(273.184 62.9277)"></rect></clipPath><clipPath id="clip4_671_89225"><rect width="86.3837" height="31.741" fill="white" transform="translate(342.41 63.8809)"></rect></clipPath><clipPath id="clip5_671_89225"><rect width="59" height="33" fill="white" transform="translate(273.184 122.545)"></rect></clipPath><clipPath id="clip6_671_89225"><rect width="86.3837" height="31.741" fill="white" transform="translate(342.41 122.881)"></rect></clipPath></defs></svg> 