<?xml version="1.0" encoding="UTF-8"?> <svg xmlns="http://www.w3.org/2000/svg" width="24" height="24" viewBox="0 0 24 24" fill="none"><path d="M1.47539 10.0177V15H0.502513V8.12107H1.85864L2.9691 12.2386V8.12107H3.93215V15H2.82169L1.47539 10.0177ZM8.20453 15H7.11373L6.92702 13.752H5.60037L5.41365 15H4.42112L5.52175 8.12107H7.10391L8.20453 15ZM5.73795 12.8184H6.77961L6.25878 9.33962L5.73795 12.8184ZM8.57036 9.77201C8.57036 9.21515 8.70139 8.78931 8.96344 8.4945C9.23205 8.19313 9.63168 8.04245 10.1623 8.04245C10.693 8.04245 11.0894 8.19313 11.3514 8.4945C11.62 8.78931 11.7543 9.21515 11.7543 9.77201V9.98821H10.7323V9.70322C10.7323 9.45427 10.6832 9.28066 10.5849 9.18239C10.4932 9.07757 10.3622 9.02516 10.1918 9.02516C10.0215 9.02516 9.88719 9.07757 9.78892 9.18239C9.6972 9.28066 9.65134 9.45427 9.65134 9.70322C9.65134 9.93907 9.70375 10.1487 9.80857 10.3322C9.91339 10.509 10.0444 10.6794 10.2017 10.8432C10.3589 11.0004 10.5259 11.1609 10.7028 11.3247C10.8863 11.4819 11.0566 11.6555 11.2138 11.8455C11.3711 12.0355 11.5021 12.2517 11.6069 12.4941C11.7117 12.7365 11.7642 13.0215 11.7642 13.3491C11.7642 13.9059 11.6266 14.335 11.3514 14.6364C11.0828 14.9312 10.6832 15.0786 10.1525 15.0786C9.62186 15.0786 9.21895 14.9312 8.94379 14.6364C8.67518 14.335 8.54088 13.9059 8.54088 13.3491V12.9265H9.56289V13.4178C9.56289 13.6668 9.61203 13.8404 9.7103 13.9387C9.81512 14.0369 9.9527 14.0861 10.123 14.0861C10.2934 14.0861 10.4277 14.0369 10.5259 13.9387C10.6308 13.8404 10.6832 13.6668 10.6832 13.4178C10.6832 13.182 10.6308 12.9756 10.5259 12.7987C10.4211 12.6153 10.2901 12.445 10.1329 12.2877C9.97563 12.124 9.80529 11.9634 9.62186 11.8062C9.44497 11.6424 9.27791 11.4655 9.12068 11.2756C8.96344 11.0856 8.83242 10.8694 8.72759 10.627C8.62277 10.3846 8.57036 10.0996 8.57036 9.77201ZM12.3835 8.12107H14.0934C14.6372 8.12107 15.0401 8.2652 15.3021 8.55346C15.5707 8.84172 15.705 9.26428 15.705 9.82115V13.2999C15.705 13.8568 15.5707 14.2794 15.3021 14.5676C15.0401 14.8559 14.6372 15 14.0934 15H12.3835V8.12107ZM13.4645 9.10377V14.0173H14.0737C14.2441 14.0173 14.3784 13.9682 14.4766 13.8699C14.5749 13.7716 14.6241 13.598 14.6241 13.3491V9.77201C14.6241 9.52306 14.5749 9.34945 14.4766 9.25118C14.3784 9.15291 14.2441 9.10377 14.0737 9.10377H13.4645ZM19.8837 15H18.7929L18.6062 13.752H17.2796L17.0929 15H16.1003L17.201 8.12107H18.7831L19.8837 15ZM17.4172 12.8184H18.4588L17.938 9.33962L17.4172 12.8184ZM20.2891 9.77201C20.2891 9.21515 20.43 8.78931 20.7117 8.4945C20.9934 8.19313 21.3996 8.04245 21.9302 8.04245C22.4609 8.04245 22.8671 8.19313 23.1488 8.4945C23.4305 8.78931 23.5713 9.21515 23.5713 9.77201V13.3491C23.5713 13.7356 23.5026 14.0566 23.365 14.3121C23.3912 14.3776 23.4239 14.4202 23.4632 14.4399C23.5091 14.453 23.5779 14.4595 23.6696 14.4595H23.7679V15.4226H23.6205C23.3781 15.4226 23.1783 15.38 23.021 15.2948C22.8703 15.2162 22.759 15.1015 22.6869 14.9509C22.5755 14.9902 22.4576 15.0197 22.3331 15.0393C22.2087 15.0655 22.0744 15.0786 21.9302 15.0786C21.3996 15.0786 20.9934 14.9312 20.7117 14.6364C20.43 14.335 20.2891 13.9059 20.2891 13.3491V9.77201ZM21.3701 13.4178C21.3701 13.6668 21.4192 13.8437 21.5175 13.9485C21.6223 14.0468 21.7599 14.0959 21.9302 14.0959C22.1006 14.0959 22.2349 14.0468 22.3331 13.9485C22.438 13.8437 22.4904 13.6668 22.4904 13.4178V9.70322C22.4904 9.45427 22.438 9.28066 22.3331 9.18239C22.2349 9.07757 22.1006 9.02516 21.9302 9.02516C21.7599 9.02516 21.6223 9.07757 21.5175 9.18239C21.4192 9.28066 21.3701 9.45427 21.3701 9.70322V13.4178Z" fill="black"></path></svg> 