<?xml version="1.0" encoding="UTF-8"?> <svg xmlns="http://www.w3.org/2000/svg" width="24" height="24" viewBox="0 0 24 24" fill="none"><path d="M4.35195 3.68796H6.41808C7.07513 3.68796 7.56198 3.86212 7.87863 4.21043C8.20319 4.55874 8.36548 5.06934 8.36548 5.74222V9.94574C8.36548 10.6186 8.20319 11.1292 7.87863 11.4775C7.56198 11.8258 7.07513 12 6.41808 12H4.35195V3.68796ZM5.65813 4.87539V10.8126H6.39434C6.60016 10.8126 6.76244 10.7532 6.88118 10.6345C6.99993 10.5157 7.0593 10.3059 7.0593 10.0051V5.68285C7.0593 5.38203 6.99993 5.17225 6.88118 5.05351C6.76244 4.93477 6.60016 4.87539 6.39434 4.87539H5.65813ZM10.3984 10.0882C10.3984 10.389 10.4578 10.6028 10.5765 10.7294C10.7032 10.8482 10.8694 10.9076 11.0752 10.9076C11.2811 10.9076 11.4433 10.8482 11.5621 10.7294C11.6887 10.6028 11.7521 10.389 11.7521 10.0882V5.59973C11.7521 5.29891 11.6887 5.08913 11.5621 4.97039C11.4433 4.84373 11.2811 4.7804 11.0752 4.7804C10.8694 4.7804 10.7032 4.84373 10.5765 4.97039C10.4578 5.08913 10.3984 5.29891 10.3984 5.59973V10.0882ZM9.09222 5.68285C9.09222 5.00997 9.26242 4.49541 9.60282 4.13918C9.94322 3.77504 10.434 3.59296 11.0752 3.59296C11.7165 3.59296 12.2073 3.77504 12.5477 4.13918C12.8881 4.49541 13.0583 5.00997 13.0583 5.68285V10.0051C13.0583 10.678 12.8881 11.1965 12.5477 11.5606C12.2073 11.9169 11.7165 12.095 11.0752 12.095C10.434 12.095 9.94322 11.9169 9.60282 11.5606C9.26242 11.1965 9.09222 10.678 9.09222 10.0051V5.68285ZM16.8044 7.57087L16.3295 12H14.5364L13.6102 3.68796H14.8808L15.5814 10.2426L16.2107 3.68796H17.4694L18.1225 10.2901L18.7993 3.68796H19.9393L19.0131 12H17.2794L16.8044 7.57087ZM1.30544 19.8126C1.37668 19.8205 1.45189 19.8244 1.53105 19.8244C1.61021 19.8244 1.68542 19.8244 1.75666 19.8244C1.96248 19.8244 2.13664 19.773 2.27913 19.6701C2.42954 19.5672 2.50475 19.3534 2.50475 19.0289V12.688H3.81092V18.9339C3.81092 19.3534 3.75947 19.6978 3.65656 19.9669C3.55365 20.2361 3.41511 20.4498 3.24096 20.6081C3.0668 20.7586 2.86493 20.8654 2.63536 20.9288C2.41371 20.9921 2.18018 21.0237 1.93478 21.0237C1.81603 21.0237 1.70917 21.0237 1.61417 21.0237C1.51918 21.0237 1.41626 21.0158 1.30544 21V19.8126ZM5.89914 19.0882C5.89914 19.389 5.95851 19.6028 6.07725 19.7294C6.20391 19.8482 6.37015 19.9076 6.57598 19.9076C6.7818 19.9076 6.94408 19.8482 7.06282 19.7294C7.18948 19.6028 7.25281 19.389 7.25281 19.0882V14.5997C7.25281 14.2989 7.18948 14.0891 7.06282 13.9704C6.94408 13.8437 6.7818 13.7804 6.57598 13.7804C6.37015 13.7804 6.20391 13.8437 6.07725 13.9704C5.95851 14.0891 5.89914 14.2989 5.89914 14.5997V19.0882ZM4.59296 14.6828C4.59296 14.01 4.76316 13.4954 5.10356 13.1392C5.44396 12.775 5.93476 12.593 6.57598 12.593C7.21719 12.593 7.708 12.775 8.0484 13.1392C8.38879 13.4954 8.55899 14.01 8.55899 14.6828V19.0051C8.55899 19.678 8.38879 20.1965 8.0484 20.5606C7.708 20.9169 7.21719 21.095 6.57598 21.095C5.93476 21.095 5.44396 20.9169 5.10356 20.5606C4.76316 20.1965 4.59296 19.678 4.59296 19.0051V14.6828ZM10.5715 14.9797V21H9.39595V12.688H11.0346L12.3764 17.6633V12.688H13.5401V21H12.1983L10.5715 14.9797ZM15.7815 16.1909H17.5745V17.3783H15.7815V19.8126H18.0376V21H14.4753V12.688H18.0376V13.8754H15.7815V16.1909ZM18.6808 14.6828C18.6808 14.01 18.8391 13.4954 19.1557 13.1392C19.4803 12.775 19.9632 12.593 20.6044 12.593C21.2456 12.593 21.7245 12.775 22.0412 13.1392C22.3658 13.4954 22.528 14.01 22.528 14.6828V14.9441H21.2931V14.5997C21.2931 14.2989 21.2337 14.0891 21.115 13.9704C21.0042 13.8437 20.8458 13.7804 20.64 13.7804C20.4342 13.7804 20.2719 13.8437 20.1532 13.9704C20.0423 14.0891 19.9869 14.2989 19.9869 14.5997C19.9869 14.8847 20.0503 15.138 20.1769 15.3597C20.3036 15.5734 20.4619 15.7792 20.6519 15.9772C20.8419 16.1671 21.0438 16.3611 21.2575 16.559C21.4791 16.749 21.685 16.9588 21.875 17.1883C22.0649 17.4179 22.2233 17.6791 22.3499 17.972C22.4766 18.2649 22.5399 18.6093 22.5399 19.0051C22.5399 19.678 22.3737 20.1965 22.0412 20.5606C21.7166 20.9169 21.2337 21.095 20.5925 21.095C19.9513 21.095 19.4645 20.9169 19.132 20.5606C18.8074 20.1965 18.6451 19.678 18.6451 19.0051V18.4945H19.8801V19.0882C19.8801 19.389 19.9394 19.5988 20.0582 19.7176C20.1848 19.8363 20.3511 19.8957 20.5569 19.8957C20.7627 19.8957 20.925 19.8363 21.0438 19.7176C21.1704 19.5988 21.2337 19.389 21.2337 19.0882C21.2337 18.8032 21.1704 18.5539 21.0438 18.3401C20.9171 18.1185 20.7588 17.9127 20.5688 17.7227C20.3788 17.5248 20.173 17.3308 19.9513 17.1408C19.7376 16.9429 19.5357 16.7292 19.3457 16.4996C19.1557 16.2701 18.9974 16.0088 18.8707 15.7159C18.7441 15.423 18.6808 15.0787 18.6808 14.6828Z" fill="black"></path></svg> 