<?xml version="1.0" encoding="UTF-8"?> <svg xmlns="http://www.w3.org/2000/svg" width="20" height="20" viewBox="0 0 20 20" fill="none"><path d="M6.72269 9.99984C6.72269 8.19036 8.19004 6.7231 10.0006 6.7231C11.8112 6.7231 13.2793 8.19036 13.2793 9.99984C13.2793 11.8093 11.8112 13.2766 10.0006 13.2766C8.19004 13.2766 6.72269 11.8093 6.72269 9.99984ZM4.95029 9.99984C4.95029 12.7875 7.21131 15.0471 10.0006 15.0471C12.7899 15.0471 15.0509 12.7875 15.0509 9.99984C15.0509 7.21221 12.7899 4.95254 10.0006 4.95254C7.21131 4.95254 4.95029 7.21221 4.95029 9.99984ZM14.0706 4.75242C14.0705 4.98571 14.1397 5.21378 14.2693 5.40781C14.3989 5.60183 14.5831 5.75309 14.7988 5.84245C15.0144 5.93181 15.2517 5.95527 15.4806 5.90985C15.7096 5.86443 15.92 5.75217 16.0851 5.58728C16.2502 5.42238 16.3627 5.21225 16.4083 4.98347C16.454 4.75468 16.4307 4.5175 16.3414 4.30194C16.2522 4.08637 16.101 3.90209 15.907 3.77241C15.7129 3.64272 15.4848 3.57345 15.2513 3.57336H15.2509C14.938 3.5735 14.6379 3.69776 14.4166 3.91883C14.1953 4.1399 14.0709 4.43971 14.0706 4.75242ZM6.02714 18.0008C5.06823 17.9571 4.54704 17.7975 4.20068 17.6626C3.74149 17.484 3.41385 17.2712 3.06938 16.9274C2.72491 16.5836 2.51168 16.2565 2.3337 15.7975C2.19868 15.4515 2.03895 14.9305 1.99536 13.9722C1.94768 12.9361 1.93816 12.6248 1.93816 9.99991C1.93816 7.37499 1.94847 7.06461 1.99536 6.02765C2.03903 5.06932 2.19994 4.5493 2.3337 4.20228C2.51246 3.74337 2.72538 3.41593 3.06938 3.07166C3.41338 2.7274 3.7407 2.5143 4.20068 2.33642C4.54688 2.20148 5.06823 2.04185 6.02714 1.99829C7.06386 1.95064 7.37528 1.94112 10.0006 1.94112C12.6259 1.94112 12.9377 1.95142 13.9753 1.99829C14.9342 2.04193 15.4545 2.20274 15.8017 2.33642C16.2609 2.5143 16.5885 2.72787 16.933 3.07166C17.2775 3.41546 17.4899 3.74337 17.6687 4.20228C17.8037 4.54828 17.9634 5.06932 18.007 6.02765C18.0547 7.06461 18.0642 7.37499 18.0642 9.99991C18.0642 12.6248 18.0547 12.9352 18.007 13.9722C17.9634 14.9305 17.8029 15.4514 17.6687 15.7975C17.4899 16.2565 17.277 16.5839 16.933 16.9274C16.589 17.2709 16.2609 17.484 15.8017 17.6626C15.4555 17.7976 14.9342 17.9572 13.9753 18.0008C12.9385 18.0484 12.6271 18.0579 10.0006 18.0579C7.3741 18.0579 7.06354 18.0484 6.02714 18.0008ZM5.9457 0.229937C4.89867 0.27759 4.18321 0.443511 3.55839 0.686494C2.91131 0.93742 2.36352 1.27406 1.81612 1.82026C1.26873 2.36646 0.932753 2.91479 0.681677 3.56148C0.438548 4.18632 0.272528 4.90096 0.224846 5.94736C0.176377 6.99541 0.165283 7.33048 0.165283 9.99984C0.165283 12.6692 0.176377 13.0043 0.224846 14.0523C0.272528 15.0988 0.438548 15.8134 0.681677 16.4382C0.932753 17.0845 1.26881 17.6334 1.81612 18.1794C2.36344 18.7254 2.91131 19.0615 3.55839 19.3132C4.18439 19.5562 4.89867 19.7221 5.9457 19.7697C6.99493 19.8174 7.32965 19.8293 10.0006 19.8293C12.6716 19.8293 13.0068 19.8182 14.0555 19.7697C15.1026 19.7221 15.8176 19.5562 16.4428 19.3132C17.0895 19.0615 17.6377 18.7256 18.1851 18.1794C18.7325 17.6332 19.0678 17.0845 19.3195 16.4382C19.5627 15.8134 19.7295 15.0987 19.7764 14.0523C19.824 13.0035 19.8351 12.6692 19.8351 9.99984C19.8351 7.33048 19.824 6.99541 19.7764 5.94736C19.7287 4.90088 19.5627 4.18593 19.3195 3.56148C19.0678 2.91518 18.7316 2.36733 18.1851 1.82026C17.6386 1.27319 17.0895 0.93742 16.4436 0.686494C15.8176 0.443511 15.1025 0.276804 14.0563 0.229937C13.0076 0.182284 12.6724 0.17041 10.0014 0.17041C7.33043 0.17041 6.99493 0.181498 5.9457 0.229937Z" fill="url(#paint0_radial_380_6004)"></path><path d="M6.72269 9.99984C6.72269 8.19036 8.19004 6.7231 10.0006 6.7231C11.8112 6.7231 13.2793 8.19036 13.2793 9.99984C13.2793 11.8093 11.8112 13.2766 10.0006 13.2766C8.19004 13.2766 6.72269 11.8093 6.72269 9.99984ZM4.95029 9.99984C4.95029 12.7875 7.21131 15.0471 10.0006 15.0471C12.7899 15.0471 15.0509 12.7875 15.0509 9.99984C15.0509 7.21221 12.7899 4.95254 10.0006 4.95254C7.21131 4.95254 4.95029 7.21221 4.95029 9.99984ZM14.0706 4.75242C14.0705 4.98571 14.1397 5.21378 14.2693 5.40781C14.3989 5.60183 14.5831 5.75309 14.7988 5.84245C15.0144 5.93181 15.2517 5.95527 15.4806 5.90985C15.7096 5.86443 15.92 5.75217 16.0851 5.58728C16.2502 5.42238 16.3627 5.21225 16.4083 4.98347C16.454 4.75468 16.4307 4.5175 16.3414 4.30194C16.2522 4.08637 16.101 3.90209 15.907 3.77241C15.7129 3.64272 15.4848 3.57345 15.2513 3.57336H15.2509C14.938 3.5735 14.6379 3.69776 14.4166 3.91883C14.1953 4.1399 14.0709 4.43971 14.0706 4.75242ZM6.02714 18.0008C5.06823 17.9571 4.54704 17.7975 4.20068 17.6626C3.74149 17.484 3.41385 17.2712 3.06938 16.9274C2.72491 16.5836 2.51168 16.2565 2.3337 15.7975C2.19868 15.4515 2.03895 14.9305 1.99536 13.9722C1.94768 12.9361 1.93816 12.6248 1.93816 9.99991C1.93816 7.37499 1.94847 7.06461 1.99536 6.02765C2.03903 5.06932 2.19994 4.5493 2.3337 4.20228C2.51246 3.74337 2.72538 3.41593 3.06938 3.07166C3.41338 2.7274 3.7407 2.5143 4.20068 2.33642C4.54688 2.20148 5.06823 2.04185 6.02714 1.99829C7.06386 1.95064 7.37528 1.94112 10.0006 1.94112C12.6259 1.94112 12.9377 1.95142 13.9753 1.99829C14.9342 2.04193 15.4545 2.20274 15.8017 2.33642C16.2609 2.5143 16.5885 2.72787 16.933 3.07166C17.2775 3.41546 17.4899 3.74337 17.6687 4.20228C17.8037 4.54828 17.9634 5.06932 18.007 6.02765C18.0547 7.06461 18.0642 7.37499 18.0642 9.99991C18.0642 12.6248 18.0547 12.9352 18.007 13.9722C17.9634 14.9305 17.8029 15.4514 17.6687 15.7975C17.4899 16.2565 17.277 16.5839 16.933 16.9274C16.589 17.2709 16.2609 17.484 15.8017 17.6626C15.4555 17.7976 14.9342 17.9572 13.9753 18.0008C12.9385 18.0484 12.6271 18.0579 10.0006 18.0579C7.3741 18.0579 7.06354 18.0484 6.02714 18.0008ZM5.9457 0.229937C4.89867 0.27759 4.18321 0.443511 3.55839 0.686494C2.91131 0.93742 2.36352 1.27406 1.81612 1.82026C1.26873 2.36646 0.932753 2.91479 0.681677 3.56148C0.438548 4.18632 0.272528 4.90096 0.224846 5.94736C0.176377 6.99541 0.165283 7.33048 0.165283 9.99984C0.165283 12.6692 0.176377 13.0043 0.224846 14.0523C0.272528 15.0988 0.438548 15.8134 0.681677 16.4382C0.932753 17.0845 1.26881 17.6334 1.81612 18.1794C2.36344 18.7254 2.91131 19.0615 3.55839 19.3132C4.18439 19.5562 4.89867 19.7221 5.9457 19.7697C6.99493 19.8174 7.32965 19.8293 10.0006 19.8293C12.6716 19.8293 13.0068 19.8182 14.0555 19.7697C15.1026 19.7221 15.8176 19.5562 16.4428 19.3132C17.0895 19.0615 17.6377 18.7256 18.1851 18.1794C18.7325 17.6332 19.0678 17.0845 19.3195 16.4382C19.5627 15.8134 19.7295 15.0987 19.7764 14.0523C19.824 13.0035 19.8351 12.6692 19.8351 9.99984C19.8351 7.33048 19.824 6.99541 19.7764 5.94736C19.7287 4.90088 19.5627 4.18593 19.3195 3.56148C19.0678 2.91518 18.7316 2.36733 18.1851 1.82026C17.6386 1.27319 17.0895 0.93742 16.4436 0.686494C15.8176 0.443511 15.1025 0.276804 14.0563 0.229937C13.0076 0.182284 12.6724 0.17041 10.0014 0.17041C7.33043 0.17041 6.99493 0.181498 5.9457 0.229937Z" fill="url(#paint1_radial_380_6004)"></path><defs><radialGradient id="paint0_radial_380_6004" cx="0" cy="0" r="1" gradientUnits="userSpaceOnUse" gradientTransform="translate(2.77865 19.9221) scale(25.6784 25.663)"><stop offset="0.09" stop-color="#FA8F21"></stop><stop offset="0.78" stop-color="#D82D7E"></stop></radialGradient><radialGradient id="paint1_radial_380_6004" cx="0" cy="0" r="1" gradientUnits="userSpaceOnUse" gradientTransform="translate(12.0947 20.8028) scale(20.2381 20.226)"><stop offset="0.64" stop-color="#8C3AAA" stop-opacity="0"></stop><stop offset="1" stop-color="#8C3AAA"></stop></radialGradient></defs></svg> 