<?xml version="1.0" encoding="UTF-8"?> <svg xmlns="http://www.w3.org/2000/svg" width="22" height="23" viewBox="0 0 22 23" fill="none"><path d="M2.64421 0.331055C1.18298 0.331055 0.000236407 1.51593 0 2.97385C0 4.43318 1.18274 5.61782 2.64445 5.61782C4.10213 5.61782 5.28653 4.43318 5.28653 2.97385C5.28653 1.51569 4.10189 0.331055 2.64421 0.331055Z" fill="#636571"></path><path d="M4.92286 7.62354H0.363281V22.2935H4.92286V7.62354Z" fill="#636571"></path><path d="M16.5314 7.25879C14.3135 7.25879 12.8262 8.47486 12.2175 9.62806H12.1565V7.62356H7.78344H7.7832V22.2933H12.3388V15.0361C12.3388 13.1229 12.7031 11.2697 15.0752 11.2697C17.4132 11.2697 17.4444 13.4578 17.4444 15.1588V22.2931H22.0007V14.2467C22.0007 10.2971 21.1485 7.25879 16.5314 7.25879Z" fill="#636571"></path></svg> 