<?xml version="1.0" encoding="UTF-8"?> <svg xmlns="http://www.w3.org/2000/svg" width="24" height="25" viewBox="0 0 24 25" fill="none"><path d="M13.8438 6.42117V5.06796L14.0188 5.53165L12.5615 3.10913H13.3753L14.492 4.9686H14.0236L15.1449 3.10913H15.8972L14.4399 5.53165L14.6103 5.06796V6.42117H13.8438Z" fill="#9FCE10"></path><path d="M9.60156 6.42117V3.10913H11.0352C11.3317 3.10913 11.5872 3.15802 11.8017 3.25581C12.0162 3.35044 12.1818 3.48765 12.2985 3.66745C12.4152 3.84724 12.4736 4.06174 12.4736 4.31093C12.4736 4.55696 12.4152 4.76988 12.2985 4.94968C12.1818 5.12947 12.0162 5.26826 11.8017 5.36605C11.5872 5.46068 11.3317 5.50799 11.0352 5.50799H10.0274L10.3681 5.16259V6.42117H9.60156ZM10.3681 5.24776L10.0274 4.88344H10.9926C11.2292 4.88344 11.4058 4.83297 11.5225 4.73203C11.6393 4.63109 11.6976 4.49072 11.6976 4.31093C11.6976 4.12798 11.6393 3.98603 11.5225 3.88509C11.4058 3.78416 11.2292 3.73369 10.9926 3.73369H10.0274L10.3681 3.36936V5.24776Z" fill="#9FCE10"></path><path d="M7.21728 6.47784C6.95547 6.47784 6.71259 6.43526 6.48863 6.35009C6.26783 6.26492 6.07542 6.14506 5.91139 5.9905C5.75052 5.83593 5.62435 5.65456 5.53287 5.44638C5.44455 5.23819 5.40039 5.01108 5.40039 4.76504C5.40039 4.51901 5.44455 4.29189 5.53287 4.08371C5.62435 3.87552 5.7521 3.69415 5.91612 3.53959C6.08015 3.38503 6.27256 3.26516 6.49336 3.18C6.71417 3.09483 6.95389 3.05225 7.21255 3.05225C7.47436 3.05225 7.71409 3.09483 7.93173 3.18C8.15254 3.26516 8.34337 3.38503 8.50424 3.53959C8.66827 3.69415 8.79602 3.87552 8.88749 4.08371C8.97897 4.28874 9.02471 4.51585 9.02471 4.76504C9.02471 5.01108 8.97897 5.23977 8.88749 5.45111C8.79602 5.65929 8.66827 5.84067 8.50424 5.99523C8.34337 6.14664 8.15254 6.26492 7.93173 6.35009C7.71409 6.43526 7.47593 6.47784 7.21728 6.47784ZM7.21255 5.82489C7.3608 5.82489 7.49644 5.79966 7.61946 5.74919C7.74563 5.69872 7.85603 5.62617 7.95066 5.53154C8.04529 5.43691 8.11784 5.32493 8.16831 5.19561C8.22193 5.06628 8.24874 4.92276 8.24874 4.76504C8.24874 4.60733 8.22193 4.4638 8.16831 4.33448C8.11784 4.20515 8.04529 4.09317 7.95066 3.99854C7.85918 3.90391 7.75036 3.83136 7.62419 3.78089C7.49801 3.73043 7.3608 3.70519 7.21255 3.70519C7.06429 3.70519 6.92708 3.73043 6.80091 3.78089C6.67789 3.83136 6.56907 3.90391 6.47444 3.99854C6.37981 4.09317 6.30568 4.20515 6.25206 4.33448C6.20159 4.4638 6.17635 4.60733 6.17635 4.76504C6.17635 4.9196 6.20159 5.06313 6.25206 5.19561C6.30568 5.32493 6.37823 5.43691 6.46971 5.53154C6.56433 5.62617 6.67474 5.69872 6.80091 5.74919C6.92708 5.79966 7.06429 5.82489 7.21255 5.82489Z" fill="#9FCE10"></path><path d="M3.79323 6.47784C3.53773 6.47784 3.29958 6.43683 3.07878 6.35482C2.86113 6.26965 2.67187 6.14979 2.511 5.99523C2.35013 5.84067 2.22396 5.65929 2.13248 5.45111C2.04416 5.24292 2 5.01423 2 4.76504C2 4.51585 2.04416 4.28716 2.13248 4.07898C2.22396 3.87079 2.35013 3.68942 2.511 3.53486C2.67502 3.3803 2.86586 3.26201 3.08351 3.18C3.30116 3.09483 3.53931 3.05225 3.79796 3.05225C4.08501 3.05225 4.34366 3.10272 4.57393 3.20365C4.80735 3.30144 5.00291 3.44654 5.16063 3.63895L4.66856 4.09317C4.555 3.96384 4.42883 3.86764 4.29004 3.80455C4.15125 3.73831 3.99984 3.70519 3.83581 3.70519C3.68125 3.70519 3.53931 3.73043 3.40998 3.78089C3.28065 3.83136 3.16868 3.90391 3.07405 3.99854C2.97942 4.09317 2.90529 4.20515 2.85167 4.33448C2.8012 4.4638 2.77596 4.60733 2.77596 4.76504C2.77596 4.92276 2.8012 5.06628 2.85167 5.19561C2.90529 5.32493 2.97942 5.43691 3.07405 5.53154C3.16868 5.62617 3.28065 5.69872 3.40998 5.74919C3.53931 5.79966 3.68125 5.82489 3.83581 5.82489C3.99984 5.82489 4.15125 5.79335 4.29004 5.73026C4.42883 5.66402 4.555 5.56466 4.66856 5.43218L5.16063 5.8864C5.00291 6.07882 4.80735 6.22549 4.57393 6.32643C4.34366 6.42737 4.08343 6.47784 3.79323 6.47784Z" fill="#9FCE10"></path><path d="M16 4.55225H18.5C19.0523 4.55225 19.5 4.99996 19.5 5.55225V14.5522C19.5 15.1045 19.0523 15.5522 18.5 15.5522H3.5C2.94772 15.5522 2.5 15.1045 2.5 14.5522V8.05225" stroke="#9FCE10"></path><path d="M19.5 9.05225H21C21.5523 9.05225 22 9.49996 22 10.0522V19.0522C22 19.6045 21.5523 20.0522 21 20.0522H6C5.44772 20.0522 5 19.6045 5 19.0522L5 15.5522" stroke="#9FCE10"></path><rect x="7" y="10.0522" width="8" height="1" fill="#9FCE10"></rect><rect x="7" y="12.0522" width="8" height="1" fill="#9FCE10"></rect></svg> 