<?xml version="1.0" encoding="UTF-8"?> <svg xmlns="http://www.w3.org/2000/svg" width="159" height="19" viewBox="0 0 159 19" fill="none"> <path d="M20.1979 6.68652H27.9725V8.13386H24.9113V16.2927H23.2334V8.13386H20.1851L20.1979 6.68652ZM27.6395 9.33783H29.074V10.6827H29.0996C29.1508 10.4906 29.2405 10.3113 29.3686 10.1319C29.4967 9.95263 29.6504 9.78612 29.8425 9.64523C30.0218 9.49153 30.2267 9.37626 30.4573 9.2866C30.675 9.19694 30.9056 9.14571 31.1361 9.14571C31.3154 9.14571 31.4435 9.15852 31.5076 9.15852C31.5716 9.17133 31.6485 9.18413 31.7125 9.18413V10.6571C31.61 10.6315 31.4948 10.6187 31.3795 10.6059C31.2642 10.593 31.1617 10.5802 31.0465 10.5802C30.7903 10.5802 30.5469 10.6315 30.3164 10.7339C30.0858 10.8364 29.8937 10.9901 29.7144 11.1822C29.5479 11.3872 29.407 11.6305 29.3045 11.9251C29.2021 12.2197 29.1508 12.5655 29.1508 12.9498V16.2543H27.6139L27.6395 9.33783ZM38.757 16.2927H37.2457V15.3193H37.2201C37.0279 15.6779 36.7461 15.9469 36.3747 16.1646C36.0033 16.3824 35.619 16.4848 35.2348 16.4848C34.3254 16.4848 33.6594 16.2671 33.2495 15.806C32.8396 15.3577 32.6347 14.6661 32.6347 13.7567V9.33783H34.1717V13.603C34.1717 14.2178 34.287 14.6533 34.5303 14.8966C34.7609 15.1528 35.0939 15.2809 35.5166 15.2809C35.8368 15.2809 36.1057 15.2296 36.3235 15.1272C36.5412 15.0247 36.7205 14.8966 36.8486 14.7301C36.9895 14.5636 37.0792 14.3587 37.1432 14.1281C37.2072 13.8976 37.2329 13.6414 37.2329 13.3724V9.33783H38.7699V16.2927H38.757ZM41.3699 14.0641C41.4212 14.5124 41.5877 14.8198 41.8823 15.0119C42.1769 15.1912 42.5355 15.2809 42.9453 15.2809C43.0862 15.2809 43.2527 15.2681 43.4321 15.2424C43.6114 15.2168 43.7907 15.1784 43.9444 15.1144C44.1109 15.0503 44.239 14.9607 44.3414 14.8326C44.4439 14.7045 44.4951 14.5508 44.4823 14.3587C44.4695 14.1665 44.4055 14 44.2646 13.872C44.1237 13.7439 43.9572 13.6542 43.7523 13.5646C43.5473 13.4877 43.304 13.4237 43.035 13.3724C42.766 13.3212 42.4971 13.2572 42.2153 13.1931C41.9335 13.1291 41.6517 13.0522 41.3827 12.9626C41.1138 12.8729 40.8832 12.7576 40.6655 12.5911C40.4605 12.4374 40.2812 12.2453 40.166 12.002C40.0379 11.7586 39.9738 11.4768 39.9738 11.1182C39.9738 10.7339 40.0635 10.4265 40.2556 10.1704C40.4349 9.91421 40.6783 9.70927 40.9601 9.55557C41.2418 9.40188 41.5621 9.2866 41.9079 9.22256C42.2537 9.15852 42.5867 9.1329 42.8941 9.1329C43.2527 9.1329 43.5986 9.17133 43.9188 9.24818C44.239 9.32503 44.5464 9.4403 44.8025 9.61962C45.0715 9.78612 45.2893 10.0167 45.4558 10.2856C45.6351 10.5546 45.7375 10.8876 45.7888 11.2719H44.1877C44.1109 10.9004 43.9444 10.6571 43.6882 10.529C43.4193 10.4009 43.1247 10.3369 42.7788 10.3369C42.6764 10.3369 42.5355 10.3497 42.3946 10.3625C42.2409 10.3881 42.1128 10.4137 41.9719 10.465C41.8438 10.5162 41.7286 10.593 41.6389 10.6827C41.5492 10.7724 41.498 10.9004 41.498 11.0541C41.498 11.2463 41.5621 11.3872 41.6901 11.5024C41.8182 11.6177 41.9847 11.7074 42.2025 11.797C42.4074 11.8739 42.6508 11.9379 42.9197 11.9891C43.1887 12.0404 43.4705 12.1044 43.7523 12.1685C44.034 12.2325 44.303 12.3094 44.572 12.399C44.841 12.4887 45.0843 12.6039 45.2893 12.7704C45.4942 12.9241 45.6735 13.1163 45.8016 13.3468C45.9297 13.5774 45.9937 13.872 45.9937 14.205C45.9937 14.6148 45.9041 14.9607 45.7119 15.2553C45.5198 15.537 45.2765 15.7804 44.9819 15.9597C44.6873 16.139 44.3414 16.2671 43.9828 16.3568C43.6114 16.4336 43.2527 16.4848 42.8941 16.4848C42.4586 16.4848 42.0488 16.4336 41.6773 16.3311C41.3059 16.2287 40.9729 16.075 40.7039 15.8829C40.4349 15.6779 40.2172 15.4346 40.0635 15.1272C39.9098 14.8326 39.8201 14.4739 39.8073 14.0513H41.3571V14.0641H41.3699ZM46.4292 9.33783H47.5947V7.23728H49.1317V9.32503H50.515V10.465H49.1317V14.1794C49.1317 14.3459 49.1445 14.4739 49.1574 14.602C49.1702 14.7173 49.2086 14.8198 49.247 14.8966C49.2982 14.9735 49.3751 15.0375 49.4648 15.0759C49.5672 15.1144 49.6953 15.14 49.8746 15.14C49.9771 15.14 50.0924 15.14 50.1948 15.1272C50.2973 15.1144 50.4126 15.1016 50.515 15.0759V16.2671C50.3485 16.2927 50.182 16.3055 50.0155 16.3183C49.849 16.344 49.6953 16.344 49.516 16.344C49.1061 16.344 48.7859 16.3055 48.5426 16.2287C48.2992 16.1518 48.1071 16.0366 47.9662 15.8957C47.8253 15.742 47.7356 15.5627 47.6844 15.3449C47.6332 15.1272 47.6076 14.8582 47.5947 14.5764V10.4778H46.4292V9.31222V9.33783ZM51.5909 9.33783H53.0383V10.2856H53.0639C53.2816 9.87578 53.5762 9.594 53.9605 9.41468C54.3447 9.23537 54.7546 9.14571 55.2157 9.14571C55.7664 9.14571 56.2403 9.23537 56.6502 9.4403C57.0601 9.63242 57.3931 9.88859 57.662 10.2344C57.931 10.5674 58.1359 10.9645 58.264 11.4128C58.3921 11.8611 58.469 12.3478 58.469 12.8473C58.469 13.3212 58.4049 13.7695 58.2896 14.205C58.1616 14.6405 57.9823 15.0375 57.7389 15.3705C57.4955 15.7035 57.1881 15.9725 56.8039 16.1774C56.4196 16.3824 55.9842 16.4848 55.4718 16.4848C55.2541 16.4848 55.0235 16.4592 54.8058 16.4208C54.5881 16.3824 54.3703 16.3183 54.1654 16.2287C53.9605 16.139 53.7683 16.0237 53.6018 15.8829C53.4225 15.742 53.2816 15.5755 53.1663 15.3961H53.1407V18.8672H51.6037V9.33783H51.5909ZM56.9576 12.8217C56.9576 12.5143 56.9192 12.2069 56.8295 11.9123C56.7527 11.6177 56.6246 11.3615 56.4581 11.131C56.2916 10.9004 56.0866 10.7211 55.8561 10.5802C55.6127 10.4393 55.3309 10.3753 55.0235 10.3753C54.3831 10.3753 53.8964 10.593 53.5634 11.0413C53.2432 11.4896 53.0767 12.0916 53.0767 12.8345C53.0767 13.1931 53.1151 13.5133 53.2048 13.8079C53.2944 14.1025 53.4097 14.3587 53.589 14.5764C53.7555 14.7942 53.9605 14.9607 54.2038 15.0887C54.4472 15.2168 54.7161 15.2809 55.0364 15.2809C55.395 15.2809 55.6768 15.204 55.9201 15.0631C56.1635 14.9222 56.3556 14.7301 56.5221 14.5124C56.6758 14.2818 56.7911 14.0257 56.8551 13.7311C56.9192 13.4237 56.9576 13.1291 56.9576 12.8217ZM59.6601 6.68652H61.1971V8.13386H59.6601V6.68652ZM59.6601 9.33783H61.1971V16.2927H59.6601V9.33783ZM62.5676 6.68652H64.1046V16.2927H62.5676V6.68652ZM68.7924 16.4848C68.2417 16.4848 67.7421 16.3952 67.3067 16.2031C66.8712 16.0109 66.5126 15.7676 66.2052 15.4474C65.9106 15.1272 65.68 14.7301 65.5263 14.2818C65.3726 13.8335 65.283 13.334 65.283 12.8089C65.283 12.2837 65.3598 11.797 65.5263 11.3487C65.68 10.9004 65.9106 10.5162 66.2052 10.1832C66.4998 9.86297 66.8712 9.60681 67.3067 9.42749C67.7421 9.24818 68.2417 9.14571 68.7924 9.14571C69.3432 9.14571 69.8427 9.23537 70.2782 9.42749C70.7137 9.60681 71.0723 9.86297 71.3797 10.1832C71.6743 10.5034 71.9048 10.9004 72.0585 11.3487C72.2122 11.797 72.3019 12.2837 72.3019 12.8089C72.3019 13.3468 72.225 13.8335 72.0585 14.2818C71.892 14.7301 71.6743 15.1144 71.3797 15.4474C71.0851 15.7676 70.7137 16.0237 70.2782 16.2031C69.8427 16.3824 69.356 16.4848 68.7924 16.4848ZM68.7924 15.2681C69.1254 15.2681 69.4328 15.1912 69.6762 15.0503C69.9324 14.9094 70.1245 14.7173 70.291 14.4868C70.4575 14.2562 70.5728 13.9872 70.6496 13.7055C70.7265 13.4109 70.7649 13.1163 70.7649 12.8089C70.7649 12.5143 70.7265 12.2197 70.6496 11.9251C70.5728 11.6305 70.4575 11.3743 70.291 11.1438C70.1245 10.9133 69.9196 10.7339 69.6762 10.593C69.42 10.4522 69.1254 10.3753 68.7924 10.3753C68.4594 10.3753 68.152 10.4522 67.9087 10.593C67.6525 10.7339 67.4604 10.9261 67.2939 11.1438C67.1274 11.3743 67.0121 11.6305 66.9352 11.9251C66.8584 12.2197 66.82 12.5143 66.82 12.8089C66.82 13.1163 66.8584 13.4109 66.9352 13.7055C67.0121 14 67.1274 14.2562 67.2939 14.4868C67.4604 14.7173 67.6653 14.9094 67.9087 15.0503C68.1648 15.204 68.4594 15.2681 68.7924 15.2681ZM72.763 9.33783H73.9285V7.23728H75.4655V9.32503H76.8488V10.465H75.4655V14.1794C75.4655 14.3459 75.4783 14.4739 75.4912 14.602C75.504 14.7173 75.5424 14.8198 75.5808 14.8966C75.632 14.9735 75.7089 15.0375 75.7985 15.0759C75.901 15.1144 76.0291 15.14 76.2084 15.14C76.3109 15.14 76.4262 15.14 76.5286 15.1272C76.6311 15.1144 76.7464 15.1016 76.8488 15.0759V16.2671C76.6823 16.2927 76.5158 16.3055 76.3493 16.3183C76.1828 16.344 76.0291 16.344 75.8498 16.344C75.4399 16.344 75.1197 16.3055 74.8764 16.2287C74.633 16.1518 74.4409 16.0366 74.3 15.8957C74.1591 15.742 74.0694 15.5627 74.0182 15.3449C73.967 15.1272 73.9414 14.8582 73.9285 14.5764V10.4778H72.763V9.31222V9.33783Z" fill="black"></path> <path d="M83.7417 4.02686H97.8545V18.1396H83.7417V4.02686ZM99.0285 4.02686H113.141V18.1396H99.0285V4.02686ZM114.315 4.02686H128.428V18.1396H114.315V4.02686ZM129.602 4.02686H143.715V18.1396H129.602V4.02686ZM144.892 4.02686H159.002V18.1396H144.889V4.02686H144.892Z" fill="#00B67A"></path> <path d="M144.892 4.02686H159.001V18.1396H151.667V4.02686H144.892Z" fill="#E0E0E0"></path> <path d="M90.7963 13.5361L92.9427 12.9912L93.8398 15.7548L90.7963 13.5361ZM95.7333 9.96576H91.9553L90.7963 6.40747L89.6343 9.96576H85.8562L88.9148 12.1694L87.7528 15.7277L90.8113 13.5241L92.6928 12.1724L95.7333 9.96576ZM106.083 13.5361L108.229 12.9912L109.127 15.7548L106.083 13.5361ZM111.023 9.96576H107.245L106.083 6.40747L104.921 9.96576H101.143L104.202 12.1694L103.04 15.7277L106.098 13.5241L107.98 12.1724L111.023 9.96576ZM121.37 13.5361L123.516 12.9912L124.413 15.7548L121.37 13.5361ZM126.31 9.96576H122.532L121.37 6.40747L120.208 9.96576H116.43L119.488 12.1694L118.326 15.7277L121.385 13.5241L123.266 12.1724L126.31 9.96576ZM136.657 13.5361L138.803 12.9912L139.7 15.7548L136.657 13.5361ZM141.597 9.96576H137.819L136.657 6.40747L135.495 9.96576H131.717L134.775 12.1694L133.613 15.7277L136.672 13.5241L138.553 12.1724L141.597 9.96576ZM151.944 13.5361L154.09 12.9912L154.987 15.7548L151.944 13.5361ZM156.884 9.96576H153.106L151.944 6.40747L150.782 9.96576H147.003L150.062 12.1694L148.9 15.7277L151.959 13.5241L153.84 12.1724L156.884 9.96576Z" fill="white"></path> <path d="M18.4055 6.68591H11.3737L9.20914 0L7.03174 6.68591L0 6.67311L5.68687 10.8102L3.50946 17.4961L9.19633 13.359L14.8832 17.4961L12.7186 10.8102L18.4055 6.68591Z" fill="#00B67A"></path> <path d="M13.2391 12.6028L12.7524 11.0914L9.24292 13.6403L13.2391 12.6028Z" fill="#005128"></path> </svg> 