<?xml version="1.0" encoding="UTF-8"?> <svg xmlns="http://www.w3.org/2000/svg" width="24" height="24" viewBox="0 0 24 24" fill="none"><path fill-rule="evenodd" clip-rule="evenodd" d="M9.98828 20H4V13.9541H8.00781V12.9541H4H3V13.9541V20V21H4H9.98828H10.9883V20V16.002H9.98828V20Z" fill="#9FCE10"></path><path fill-rule="evenodd" clip-rule="evenodd" d="M13.0371 16.9771H20.0332H21.0332V15.9771V3.97705V2.97705H20.0332H8.03222H7.03222V3.97705V10.9771H8.03222V3.97705H20.0332V15.9771H13.0371V16.9771Z" fill="#9FCE10"></path><path d="M9.93327 13.2317C9.73498 13.4239 9.73003 13.7404 9.92221 13.9387C10.1144 14.137 10.4309 14.142 10.6292 13.9498L9.93327 13.2317ZM15.9527 8.58644C15.957 8.31033 15.7367 8.08299 15.4606 8.07867L10.9611 8.00827C10.685 8.00395 10.4577 8.22428 10.4533 8.50039C10.449 8.7765 10.6694 9.00383 10.9455 9.00815L14.945 9.07073L14.8824 13.0702C14.8781 13.3463 15.0984 13.5737 15.3745 13.578C15.6506 13.5823 15.878 13.362 15.8823 13.0859L15.9527 8.58644ZM10.6292 13.9498L15.8007 8.93765L15.1048 8.21957L9.93327 13.2317L10.6292 13.9498Z" fill="#9FCE10"></path></svg> 