<?xml version="1.0" encoding="UTF-8"?> <svg xmlns="http://www.w3.org/2000/svg" width="38" height="38" viewBox="0 0 38 38" fill="none"><circle cx="19" cy="19" r="18" stroke="white" stroke-width="2"></circle><path d="M16.3986 21.423L14 21.5943C14.3427 24.1642 15.7133 25.3635 17.9405 25.7061V26.9054H19.9964V25.7061C22.0524 25.3635 23.7656 24.3355 23.7656 21.937C23.7656 19.1957 21.7097 18.5104 19.3111 17.9964C18.6258 17.8251 16.7412 17.4825 16.7412 16.4545C16.7412 15.4265 18.1118 15.2552 18.7971 15.2552C20.1678 15.2552 20.8531 15.5979 21.0244 16.9685H23.423C23.423 14.5699 21.881 13.5419 19.9964 13.1993V12H17.9405V13.1993C16.0559 13.5419 14.514 14.5699 14.514 16.6258C14.514 18.8531 16.3986 19.7097 18.2832 20.2237C19.3111 20.395 21.367 20.7377 21.367 21.937C21.367 23.3076 19.9964 23.6502 18.9685 23.6502C17.4265 23.6502 16.5699 22.7936 16.3986 21.423Z" fill="white"></path></svg> 