<?xml version="1.0" encoding="UTF-8"?> <svg xmlns="http://www.w3.org/2000/svg" width="36" height="36" viewBox="0 0 36 36" fill="none"><path d="M25.1419 30.1201C23.7434 31.4992 22.2165 31.2814 20.7467 30.6282C19.1912 29.9604 17.7642 29.9314 16.1231 30.6282C14.0682 31.5282 12.9836 31.2669 11.7564 30.1201C4.79243 22.8181 5.8199 11.6982 13.7257 11.2918C15.6522 11.3934 16.9936 12.366 18.1209 12.4531C19.8048 12.1047 21.4174 11.1031 23.2154 11.2337C25.3703 11.4079 26.9971 12.2789 28.0674 13.8467C23.615 16.5614 24.671 22.5278 28.7523 24.1972C27.9389 26.3747 26.8829 28.5377 25.1277 30.1346L25.1419 30.1201ZM17.9782 11.2047C17.7642 7.96743 20.3471 5.29634 23.3153 5.03503C23.7292 8.78037 19.9761 11.5676 17.9782 11.2047Z" fill="black"></path></svg> 