<?xml version="1.0" encoding="UTF-8"?> <svg xmlns="http://www.w3.org/2000/svg" width="24" height="25" viewBox="0 0 24 25" fill="none"><g clip-path="url(#clip0_24_43899)"><path fill-rule="evenodd" clip-rule="evenodd" d="M12 24.0819C18.6274 24.0819 24 18.7093 24 12.0819C24 5.45449 18.6274 0.0819092 12 0.0819092C5.37258 0.0819092 0 5.45449 0 12.0819C0 18.7093 5.37258 24.0819 12 24.0819Z" fill="white"></path><path fill-rule="evenodd" clip-rule="evenodd" d="M7.99875 23.3986C3.33863 21.7509 0 17.3063 0 12.0819C0 6.85749 3.33863 2.41287 7.99875 0.765167V23.3986Z" fill="#009A49"></path><path fill-rule="evenodd" clip-rule="evenodd" d="M24 12.0546V12.1093C23.9883 17.3218 20.6532 21.7538 16.0012 23.3987V0.765167C20.6532 2.40998 23.9883 6.84198 24 12.0546Z" fill="#FF7900"></path><path fill-rule="evenodd" clip-rule="evenodd" d="M12 23.3819C18.2408 23.3819 23.3 18.3227 23.3 12.0819C23.3 5.84109 18.2408 0.781909 12 0.781909C5.75918 0.781909 0.7 5.84109 0.7 12.0819C0.7 18.3227 5.75918 23.3819 12 23.3819ZM12 24.0819C18.6274 24.0819 24 18.7093 24 12.0819C24 5.45449 18.6274 0.0819092 12 0.0819092C5.37258 0.0819092 0 5.45449 0 12.0819C0 18.7093 5.37258 24.0819 12 24.0819Z" fill="#D9D9D9"></path></g><defs><clipPath id="clip0_24_43899"><rect y="0.0819092" width="24" height="24" fill="white"></rect></clipPath></defs></svg> 