<?xml version="1.0" encoding="UTF-8"?> <svg xmlns="http://www.w3.org/2000/svg" width="24" height="25" viewBox="0 0 24 25" fill="none"><path d="M10.0858 3.9547V3.05225H13.4303V4.05645V4.46858L13.8349 4.54726C14.3309 4.64373 14.7153 4.77533 15.1791 4.95281C16.2322 5.35587 17.0479 5.91219 17.647 6.61111C17.9141 6.92276 18.1438 7.40658 18.3136 7.96592C18.4233 8.32745 18.5025 8.70249 18.5513 9.05225H14.831C14.7809 8.86292 14.7138 8.65617 14.6293 8.4548C14.4837 8.10786 14.2467 7.67815 13.873 7.4395C13.2785 7.0403 12.467 6.89729 11.4477 6.89729C10.6107 6.89729 9.83509 6.99943 9.26153 7.28529C9.01246 7.40627 8.76321 7.55768 8.58047 7.78524C8.38325 8.03085 8.29966 8.31822 8.29966 8.63858C8.29966 8.78149 8.31812 8.94525 8.353 9.10181C8.38681 9.25354 8.44368 9.4335 8.53933 9.58893L8.55137 9.6085L8.56516 9.62688C8.76759 9.89679 9.07093 10.0796 9.40781 10.2079L9.40779 10.2079L9.41494 10.2105C9.77427 10.3412 10.2415 10.4293 10.7968 10.4863L10.7968 10.4864L10.8088 10.4874L13.4569 10.6943L13.4582 10.6944C14.8932 10.8027 16.0086 11.0309 16.8247 11.3624C17.642 11.6945 18.1795 12.121 18.4943 12.6158L18.4943 12.6158L18.4987 12.6225C18.822 13.1131 19.0161 14.0083 19.0161 14.845C19.0161 15.7986 18.753 16.3897 18.1677 17.1531L18.1676 17.1531L18.1645 17.1573C17.6077 17.8996 16.8119 18.4903 15.7504 18.9175C15.1446 19.1613 14.5746 19.3332 13.8576 19.4386L13.4303 19.5014V19.9333V21.0522H10.0858V19.8843V19.4621L9.66957 19.3914C9.04219 19.2848 8.54255 19.1282 7.98575 18.9145C6.86483 18.4844 6.01976 17.8963 5.42352 17.164C4.93042 16.5473 4.64737 16.0197 4.54379 15.345H8.31002C8.38642 15.5424 8.49589 15.7148 8.63944 15.87C8.85997 16.1085 9.14665 16.2887 9.43351 16.4595L9.43347 16.4596L9.44118 16.464C10.0633 16.8195 10.9709 17.207 12.0684 17.207C13.0833 17.207 13.8169 16.866 14.3143 16.6244L14.3143 16.6245L14.3245 16.6193C14.622 16.4663 14.8753 16.2637 15.0537 15.9987C15.2346 15.7299 15.3199 15.424 15.3199 15.0989C15.3199 14.7546 15.2228 14.4334 15.0146 14.1596C14.7929 13.8536 14.4528 13.6569 14.0708 13.5291C13.6954 13.399 13.2135 13.319 12.6445 13.2763C12.6442 13.2763 12.6439 13.2763 12.6437 13.2762L10.2687 13.0904C10.2682 13.0903 10.2678 13.0903 10.2674 13.0903C8.15427 12.914 6.72022 12.4378 5.87225 11.7361C5.02986 11.0252 4.5 9.84102 4.5 8.63858C4.5 7.71454 4.82716 7.16141 5.40134 6.45674C5.93839 5.79763 6.70906 5.27871 7.74423 4.9164L7.74423 4.91641L7.74759 4.91521C8.35784 4.69672 8.93097 4.54324 9.64972 4.4506L10.0858 4.39439V3.9547Z" stroke="#9FCE10"></path></svg> 