<?xml version="1.0" encoding="UTF-8"?> <svg xmlns="http://www.w3.org/2000/svg" width="24" height="24" viewBox="0 0 24 24" fill="none"><path d="M11.5 16.5C11.5 16.7761 11.7239 17 12 17C12.2761 17 12.5 16.7761 12.5 16.5H11.5ZM12.3536 7.14645C12.1583 6.95118 11.8417 6.95118 11.6464 7.14645L8.46447 10.3284C8.2692 10.5237 8.2692 10.8403 8.46447 11.0355C8.65973 11.2308 8.97631 11.2308 9.17157 11.0355L12 8.20711L14.8284 11.0355C15.0237 11.2308 15.3403 11.2308 15.5355 11.0355C15.7308 10.8403 15.7308 10.5237 15.5355 10.3284L12.3536 7.14645ZM12.5 16.5V7.5H11.5V16.5H12.5Z" fill="#9FCE10"></path><circle cx="12" cy="12" r="10.5" stroke="#9FCE10"></circle></svg> 