<?xml version="1.0" encoding="UTF-8"?> <svg xmlns="http://www.w3.org/2000/svg" width="127" height="163" viewBox="0 0 127 163" fill="none"><rect width="126.289" height="162.371" rx="7.2165" fill="white"></rect><path d="M8.55474 14.8589C8.32381 14.8589 8.10298 14.8242 7.89226 14.7549C7.68154 14.6828 7.51556 14.5904 7.39432 14.4778L7.55453 14.1401C7.66999 14.2411 7.81721 14.3248 7.99618 14.3912C8.17515 14.4576 8.36133 14.4908 8.55474 14.4908C8.73082 14.4908 8.87371 14.4706 8.9834 14.4302C9.09309 14.3898 9.17391 14.3349 9.22587 14.2657C9.27783 14.1935 9.30381 14.1127 9.30381 14.0232C9.30381 13.9193 9.26917 13.8356 9.19989 13.7721C9.1335 13.7085 9.04546 13.658 8.93577 13.6205C8.82896 13.5801 8.71061 13.5455 8.58072 13.5166C8.45082 13.4877 8.31948 13.4545 8.18669 13.417C8.0568 13.3766 7.937 13.3261 7.82731 13.2655C7.72051 13.2048 7.63391 13.124 7.56752 13.023C7.50113 12.9191 7.46793 12.7863 7.46793 12.6246C7.46793 12.4688 7.50834 12.3259 7.58917 12.196C7.67288 12.0632 7.79989 11.9578 7.9702 11.8799C8.1434 11.7991 8.36278 11.7586 8.62834 11.7586C8.80443 11.7586 8.97907 11.7817 9.15226 11.8279C9.32546 11.8741 9.47556 11.9405 9.60257 12.0271L9.45969 12.3735C9.32979 12.2869 9.19267 12.2248 9.04834 12.1873C8.90401 12.1469 8.76401 12.1267 8.62834 12.1267C8.45804 12.1267 8.31803 12.1483 8.20834 12.1916C8.09865 12.2349 8.01783 12.2927 7.96587 12.3648C7.9168 12.437 7.89226 12.5178 7.89226 12.6073C7.89226 12.7141 7.92546 12.7993 7.99185 12.8628C8.06113 12.9263 8.14917 12.9768 8.25597 13.0143C8.36566 13.0518 8.48546 13.0865 8.61535 13.1182C8.74525 13.1471 8.87515 13.1803 9.00505 13.2178C9.13783 13.2554 9.25762 13.3044 9.36443 13.365C9.47412 13.4257 9.56216 13.5065 9.62855 13.6075C9.69494 13.7085 9.72814 13.8384 9.72814 13.9972C9.72814 14.1502 9.68628 14.2931 9.60257 14.4259C9.51886 14.5558 9.38896 14.6611 9.21288 14.742C9.03968 14.8199 8.8203 14.8589 8.55474 14.8589ZM11.2657 14.8502C11.0694 14.8502 10.8962 14.8141 10.7461 14.742C10.5989 14.6698 10.4834 14.5601 10.3997 14.4129C10.3189 14.2628 10.2784 14.0751 10.2784 13.85V12.5294H10.6941V13.8024C10.6941 14.0275 10.7475 14.1964 10.8543 14.309C10.964 14.4215 11.117 14.4778 11.3133 14.4778C11.4576 14.4778 11.5832 14.449 11.69 14.3912C11.7968 14.3306 11.8791 14.244 11.9368 14.1314C11.9945 14.016 12.0234 13.8774 12.0234 13.7158V12.5294H12.4391V14.8242H12.045V14.205L12.11 14.3696C12.0349 14.5226 11.9224 14.6409 11.7723 14.7246C11.6222 14.8083 11.4533 14.8502 11.2657 14.8502ZM14.4471 14.8502C14.2508 14.8502 14.0733 14.8069 13.9145 14.7203C13.7586 14.6308 13.6345 14.4995 13.5421 14.3263C13.4527 14.1531 13.4079 13.9366 13.4079 13.6768C13.4079 13.417 13.4541 13.2005 13.5465 13.0273C13.6417 12.8541 13.7673 12.7242 13.9232 12.6376C14.0819 12.551 14.2566 12.5077 14.4471 12.5077C14.6722 12.5077 14.8714 12.5568 15.0446 12.6549C15.2178 12.7531 15.3549 12.8902 15.456 13.0663C15.557 13.2395 15.6075 13.443 15.6075 13.6768C15.6075 13.9106 15.557 14.1156 15.456 14.2916C15.3549 14.4677 15.2178 14.6048 15.0446 14.703C14.8714 14.8011 14.6722 14.8502 14.4471 14.8502ZM13.2304 14.8242V11.6114H13.6461V13.1399L13.6028 13.6725L13.6287 14.205V14.8242H13.2304ZM14.4124 14.4865C14.5597 14.4865 14.691 14.4533 14.8065 14.3869C14.9248 14.3205 15.0172 14.2267 15.0836 14.1055C15.1529 13.9813 15.1875 13.8384 15.1875 13.6768C15.1875 13.5123 15.1529 13.3708 15.0836 13.2525C15.0172 13.1312 14.9248 13.0374 14.8065 12.971C14.691 12.9046 14.5597 12.8714 14.4124 12.8714C14.2681 12.8714 14.1368 12.9046 14.0184 12.971C13.903 13.0374 13.8106 13.1312 13.7413 13.2525C13.6749 13.3708 13.6417 13.5123 13.6417 13.6768C13.6417 13.8384 13.6749 13.9813 13.7413 14.1055C13.8106 14.2267 13.903 14.3205 14.0184 14.3869C14.1368 14.4533 14.2681 14.4865 14.4124 14.4865ZM16.84 14.8502C16.6495 14.8502 16.4676 14.8242 16.2944 14.7723C16.1241 14.7203 15.9899 14.6568 15.8917 14.5817L16.0649 14.2527C16.1631 14.3191 16.2843 14.3754 16.4286 14.4215C16.573 14.4677 16.7202 14.4908 16.8703 14.4908C17.0637 14.4908 17.2022 14.4634 17.2859 14.4085C17.3725 14.3537 17.4158 14.2772 17.4158 14.1791C17.4158 14.1069 17.3899 14.0506 17.3379 14.0102C17.2859 13.9698 17.2167 13.9395 17.1301 13.9193C17.0464 13.8991 16.9525 13.8817 16.8486 13.8673C16.7447 13.85 16.6408 13.8298 16.5369 13.8067C16.433 13.7807 16.3377 13.7461 16.2511 13.7028C16.1645 13.6566 16.0952 13.5945 16.0433 13.5166C15.9913 13.4358 15.9653 13.329 15.9653 13.1962C15.9653 13.0576 16.0043 12.9364 16.0822 12.8325C16.1602 12.7285 16.2699 12.6492 16.4113 12.5943C16.5556 12.5366 16.7259 12.5077 16.9222 12.5077C17.0723 12.5077 17.2239 12.5265 17.3769 12.564C17.5328 12.5986 17.6598 12.6492 17.7579 12.7156L17.5804 13.0446C17.4765 12.9754 17.3682 12.9277 17.2556 12.9017C17.1431 12.8758 17.0305 12.8628 16.9179 12.8628C16.736 12.8628 16.6004 12.8931 16.5109 12.9537C16.4214 13.0114 16.3767 13.0865 16.3767 13.1789C16.3767 13.2568 16.4026 13.3174 16.4546 13.3607C16.5095 13.4011 16.5787 13.4329 16.6624 13.456C16.749 13.4791 16.8443 13.4993 16.9482 13.5166C17.0521 13.531 17.156 13.5512 17.26 13.5772C17.3639 13.6003 17.4577 13.6335 17.5414 13.6768C17.628 13.7201 17.6973 13.7807 17.7492 13.8587C17.8041 13.9366 17.8315 14.0405 17.8315 14.1704C17.8315 14.309 17.7911 14.4288 17.7103 14.5298C17.6295 14.6308 17.5154 14.7102 17.3682 14.7679C17.221 14.8228 17.0449 14.8502 16.84 14.8502ZM19.3512 14.8502C19.1174 14.8502 18.9081 14.7997 18.7234 14.6987C18.5415 14.5976 18.3986 14.4591 18.2947 14.283C18.1908 14.1069 18.1388 13.9048 18.1388 13.6768C18.1388 13.4488 18.1908 13.2467 18.2947 13.0706C18.3986 12.8945 18.5415 12.7574 18.7234 12.6593C18.9081 12.5582 19.1174 12.5077 19.3512 12.5077C19.559 12.5077 19.7438 12.5496 19.9054 12.6333C20.07 12.7141 20.197 12.8354 20.2865 12.997L19.9704 13.2005C19.8953 13.0879 19.803 13.0057 19.6933 12.9537C19.5865 12.8989 19.471 12.8714 19.3469 12.8714C19.1968 12.8714 19.0625 12.9046 18.9442 12.971C18.8258 13.0374 18.732 13.1312 18.6628 13.2525C18.5935 13.3708 18.5588 13.5123 18.5588 13.6768C18.5588 13.8413 18.5935 13.9842 18.6628 14.1055C18.732 14.2267 18.8258 14.3205 18.9442 14.3869C19.0625 14.4533 19.1968 14.4865 19.3469 14.4865C19.471 14.4865 19.5865 14.4605 19.6933 14.4085C19.803 14.3537 19.8953 14.27 19.9704 14.1574L20.2865 14.3566C20.197 14.5154 20.07 14.638 19.9054 14.7246C19.7438 14.8083 19.559 14.8502 19.3512 14.8502ZM20.8246 14.8242V12.5294H21.223V13.1529L21.184 12.997C21.2475 12.8382 21.3543 12.717 21.5044 12.6333C21.6545 12.5496 21.8393 12.5077 22.0586 12.5077V12.9104C22.0413 12.9075 22.024 12.9061 22.0067 12.9061C21.9923 12.9061 21.9778 12.9061 21.9634 12.9061C21.7411 12.9061 21.565 12.9725 21.4351 13.1052C21.3052 13.238 21.2403 13.43 21.2403 13.6811V14.8242H20.8246ZM22.571 14.8242V12.5294H22.9866V14.8242H22.571ZM22.7788 12.0877C22.698 12.0877 22.6301 12.0617 22.5753 12.0098C22.5233 11.9578 22.4974 11.8943 22.4974 11.8193C22.4974 11.7413 22.5233 11.6764 22.5753 11.6244C22.6301 11.5725 22.698 11.5465 22.7788 11.5465C22.8596 11.5465 22.926 11.5725 22.978 11.6244C23.0328 11.6735 23.0602 11.7356 23.0602 11.8106C23.0602 11.8885 23.0343 11.9549 22.9823 12.0098C22.9303 12.0617 22.8625 12.0877 22.7788 12.0877ZM24.997 14.8502C24.8007 14.8502 24.6232 14.8069 24.4644 14.7203C24.3085 14.6308 24.1844 14.4995 24.092 14.3263C24.0026 14.1531 23.9578 13.9366 23.9578 13.6768C23.9578 13.417 24.004 13.2005 24.0964 13.0273C24.1916 12.8541 24.3172 12.7242 24.4731 12.6376C24.6318 12.551 24.8065 12.5077 24.997 12.5077C25.2221 12.5077 25.4213 12.5568 25.5945 12.6549C25.7677 12.7531 25.9048 12.8902 26.0059 13.0663C26.1069 13.2395 26.1574 13.443 26.1574 13.6768C26.1574 13.9106 26.1069 14.1156 26.0059 14.2916C25.9048 14.4677 25.7677 14.6048 25.5945 14.703C25.4213 14.8011 25.2221 14.8502 24.997 14.8502ZM23.7803 14.8242V11.6114H24.196V13.1399L24.1527 13.6725L24.1786 14.205V14.8242H23.7803ZM24.9624 14.4865C25.1096 14.4865 25.2409 14.4533 25.3564 14.3869C25.4747 14.3205 25.5671 14.2267 25.6335 14.1055C25.7028 13.9813 25.7374 13.8384 25.7374 13.6768C25.7374 13.5123 25.7028 13.3708 25.6335 13.2525C25.5671 13.1312 25.4747 13.0374 25.3564 12.971C25.2409 12.9046 25.1096 12.8714 24.9624 12.8714C24.818 12.8714 24.6867 12.9046 24.5683 12.971C24.4529 13.0374 24.3605 13.1312 24.2912 13.2525C24.2248 13.3708 24.1916 13.5123 24.1916 13.6768C24.1916 13.8384 24.2248 13.9813 24.2912 14.1055C24.3605 14.2267 24.4529 14.3205 24.5683 14.3869C24.6867 14.4533 24.818 14.4865 24.9624 14.4865ZM27.7536 14.8502C27.5082 14.8502 27.2917 14.7997 27.1041 14.6987C26.9194 14.5976 26.775 14.4591 26.6711 14.283C26.5701 14.1069 26.5196 13.9048 26.5196 13.6768C26.5196 13.4488 26.5686 13.2467 26.6668 13.0706C26.7678 12.8945 26.9049 12.7574 27.0781 12.6593C27.2542 12.5582 27.4519 12.5077 27.6713 12.5077C27.8936 12.5077 28.0899 12.5568 28.2602 12.6549C28.4305 12.7531 28.5633 12.8916 28.6585 13.0706C28.7567 13.2467 28.8057 13.4531 28.8057 13.6898C28.8057 13.7071 28.8043 13.7273 28.8014 13.7504C28.8014 13.7735 28.8 13.7951 28.7971 13.8154H26.8443V13.5166H28.5806L28.4117 13.6205C28.4146 13.4733 28.3843 13.3419 28.3208 13.2265C28.2573 13.111 28.1693 13.0215 28.0567 12.958C27.947 12.8916 27.8185 12.8584 27.6713 12.8584C27.527 12.8584 27.3985 12.8916 27.286 12.958C27.1734 13.0215 27.0853 13.1125 27.0218 13.2308C26.9583 13.3463 26.9266 13.4791 26.9266 13.6292V13.6984C26.9266 13.8514 26.9612 13.9885 27.0305 14.1098C27.1027 14.2281 27.2022 14.3205 27.3293 14.3869C27.4563 14.4533 27.602 14.4865 27.7666 14.4865C27.9022 14.4865 28.0249 14.4634 28.1346 14.4172C28.2472 14.371 28.3453 14.3017 28.429 14.2094L28.6585 14.4778C28.5546 14.5991 28.4247 14.6914 28.2688 14.7549C28.1158 14.8184 27.9441 14.8502 27.7536 14.8502ZM29.3829 14.8242V12.5294H29.7813V13.1529L29.7423 12.997C29.8058 12.8382 29.9126 12.717 30.0627 12.6333C30.2128 12.5496 30.3976 12.5077 30.617 12.5077V12.9104C30.5996 12.9075 30.5823 12.9061 30.565 12.9061C30.5506 12.9061 30.5361 12.9061 30.5217 12.9061C30.2994 12.9061 30.1234 12.9725 29.9935 13.1052C29.8636 13.238 29.7986 13.43 29.7986 13.6811V14.8242H29.3829ZM31.8128 14.8502C31.6223 14.8502 31.4404 14.8242 31.2672 14.7723C31.0969 14.7203 30.9627 14.6568 30.8645 14.5817L31.0377 14.2527C31.1359 14.3191 31.2571 14.3754 31.4015 14.4215C31.5458 14.4677 31.693 14.4908 31.8431 14.4908C32.0365 14.4908 32.1751 14.4634 32.2588 14.4085C32.3454 14.3537 32.3887 14.2772 32.3887 14.1791C32.3887 14.1069 32.3627 14.0506 32.3107 14.0102C32.2588 13.9698 32.1895 13.9395 32.1029 13.9193C32.0192 13.8991 31.9254 13.8817 31.8215 13.8673C31.7175 13.85 31.6136 13.8298 31.5097 13.8067C31.4058 13.7807 31.3105 13.7461 31.2239 13.7028C31.1373 13.6566 31.0681 13.5945 31.0161 13.5166C30.9641 13.4358 30.9382 13.329 30.9382 13.1962C30.9382 13.0576 30.9771 12.9364 31.0551 12.8325C31.133 12.7285 31.2427 12.6492 31.3841 12.5943C31.5285 12.5366 31.6988 12.5077 31.8951 12.5077C32.0452 12.5077 32.1967 12.5265 32.3497 12.564C32.5056 12.5986 32.6326 12.6492 32.7307 12.7156L32.5532 13.0446C32.4493 12.9754 32.341 12.9277 32.2285 12.9017C32.1159 12.8758 32.0033 12.8628 31.8907 12.8628C31.7089 12.8628 31.5732 12.8931 31.4837 12.9537C31.3942 13.0114 31.3495 13.0865 31.3495 13.1789C31.3495 13.2568 31.3755 13.3174 31.4274 13.3607C31.4823 13.4011 31.5516 13.4329 31.6353 13.456C31.7219 13.4791 31.8171 13.4993 31.921 13.5166C32.025 13.531 32.1289 13.5512 32.2328 13.5772C32.3367 13.6003 32.4305 13.6335 32.5142 13.6768C32.6008 13.7201 32.6701 13.7807 32.7221 13.8587C32.7769 13.9366 32.8043 14.0405 32.8043 14.1704C32.8043 14.309 32.7639 14.4288 32.6831 14.5298C32.6023 14.6308 32.4883 14.7102 32.341 14.7679C32.1938 14.8228 32.0177 14.8502 31.8128 14.8502ZM33.4234 13.1009C33.3426 13.1009 33.2733 13.0735 33.2156 13.0187C33.1578 12.9609 33.129 12.8888 33.129 12.8022C33.129 12.7156 33.1578 12.6448 33.2156 12.59C33.2733 12.5351 33.3426 12.5077 33.4234 12.5077C33.5014 12.5077 33.5677 12.5351 33.6226 12.59C33.6803 12.6448 33.7092 12.7156 33.7092 12.8022C33.7092 12.8888 33.6803 12.9609 33.6226 13.0187C33.5677 13.0735 33.5014 13.1009 33.4234 13.1009ZM33.4234 14.8502C33.3426 14.8502 33.2733 14.8228 33.2156 14.7679C33.1578 14.7102 33.129 14.638 33.129 14.5514C33.129 14.4648 33.1578 14.3941 33.2156 14.3393C33.2733 14.2844 33.3426 14.257 33.4234 14.257C33.5014 14.257 33.5677 14.2844 33.6226 14.3393C33.6803 14.3941 33.7092 14.4648 33.7092 14.5514C33.7092 14.638 33.6803 14.7102 33.6226 14.7679C33.5677 14.8228 33.5014 14.8502 33.4234 14.8502ZM36.5544 14.8589C36.286 14.8589 36.0565 14.7997 35.866 14.6813C35.6755 14.563 35.5297 14.3927 35.4287 14.1704C35.3305 13.9452 35.2815 13.671 35.2815 13.3477C35.2815 13.0042 35.3421 12.7141 35.4633 12.4774C35.5845 12.2407 35.7534 12.0617 35.9699 11.9405C36.1864 11.8193 36.4346 11.7586 36.7146 11.7586C36.859 11.7586 36.9961 11.7731 37.126 11.8019C37.2588 11.8308 37.3728 11.8756 37.4681 11.9362L37.3035 12.2739C37.2256 12.2191 37.1361 12.1815 37.0351 12.1613C36.9369 12.1411 36.833 12.131 36.7233 12.131C36.4144 12.131 36.1691 12.2277 35.9872 12.4211C35.8054 12.6116 35.7144 12.896 35.7144 13.2741C35.7144 13.3347 35.7173 13.4069 35.7231 13.4906C35.7289 13.5743 35.7433 13.6566 35.7664 13.7374L35.6192 13.5902C35.6625 13.4574 35.7303 13.3463 35.8227 13.2568C35.9179 13.1644 36.0305 13.0966 36.1604 13.0533C36.2932 13.0071 36.4361 12.984 36.5891 12.984C36.7911 12.984 36.9701 13.0215 37.126 13.0966C37.2819 13.1716 37.4045 13.2784 37.494 13.417C37.5835 13.5527 37.6283 13.7143 37.6283 13.9019C37.6283 14.0954 37.5806 14.2642 37.4854 14.4085C37.3901 14.5529 37.2617 14.664 37.1 14.742C36.9384 14.8199 36.7565 14.8589 36.5544 14.8589ZM36.5371 14.5081C36.6699 14.5081 36.7854 14.4836 36.8835 14.4345C36.9845 14.3855 37.0639 14.3176 37.1217 14.231C37.1794 14.1415 37.2083 14.0376 37.2083 13.9193C37.2083 13.7403 37.1462 13.5989 37.0221 13.4949C36.8979 13.3881 36.7291 13.3347 36.5155 13.3347C36.3769 13.3347 36.2557 13.3607 36.1518 13.4127C36.0478 13.4646 35.9656 13.5354 35.905 13.6248C35.8472 13.7114 35.8184 13.811 35.8184 13.9236C35.8184 14.0275 35.8458 14.1242 35.9006 14.2137C35.9555 14.3003 36.0363 14.371 36.1431 14.4259C36.2499 14.4807 36.3812 14.5081 36.5371 14.5081ZM38.4481 14.8242L39.7341 11.9751L39.8467 12.17H38.0454L38.2619 11.9578V12.7112H37.8463V11.7933H40.1325V12.0877L38.9071 14.8242H38.4481Z" fill="#BEBEBE"></path><path d="M45.5469 10.8242V14.4325" stroke="#BEBEBE" stroke-width="0.360825"></path><path d="M50.3316 14.8242V11.7933H50.7646V14.8242H50.3316ZM51.672 14.8242V11.7933H52.9493C53.2726 11.7933 53.557 11.8568 53.8023 11.9838C54.0506 12.1108 54.2425 12.2883 54.3782 12.5164C54.5167 12.7444 54.586 13.0085 54.586 13.3088C54.586 13.609 54.5167 13.8731 54.3782 14.1011C54.2425 14.3292 54.0506 14.5067 53.8023 14.6337C53.557 14.7607 53.2726 14.8242 52.9493 14.8242H51.672ZM52.105 14.4475H52.9233C53.1745 14.4475 53.391 14.3999 53.5728 14.3046C53.7576 14.2094 53.9005 14.0766 54.0015 13.9063C54.1025 13.7331 54.153 13.5339 54.153 13.3088C54.153 13.0807 54.1025 12.8815 54.0015 12.7112C53.9005 12.5409 53.7576 12.4081 53.5728 12.3129C53.391 12.2176 53.1745 12.17 52.9233 12.17H52.105V14.4475ZM55.2882 13.1009C55.2074 13.1009 55.1381 13.0735 55.0804 13.0187C55.0226 12.9609 54.9938 12.8888 54.9938 12.8022C54.9938 12.7156 55.0226 12.6448 55.0804 12.59C55.1381 12.5351 55.2074 12.5077 55.2882 12.5077C55.3662 12.5077 55.4325 12.5351 55.4874 12.59C55.5451 12.6448 55.574 12.7156 55.574 12.8022C55.574 12.8888 55.5451 12.9609 55.4874 13.0187C55.4325 13.0735 55.3662 13.1009 55.2882 13.1009ZM55.2882 14.8502C55.2074 14.8502 55.1381 14.8228 55.0804 14.7679C55.0226 14.7102 54.9938 14.638 54.9938 14.5514C54.9938 14.4648 55.0226 14.3941 55.0804 14.3393C55.1381 14.2844 55.2074 14.257 55.2882 14.257C55.3662 14.257 55.4325 14.2844 55.4874 14.3393C55.5451 14.3941 55.574 14.4648 55.574 14.5514C55.574 14.638 55.5451 14.7102 55.4874 14.7679C55.4325 14.8228 55.3662 14.8502 55.2882 14.8502ZM58.3283 14.8589C58.0829 14.8589 57.8708 14.8228 57.6918 14.7506C57.5128 14.6784 57.3743 14.576 57.2761 14.4432C57.178 14.3075 57.1289 14.1488 57.1289 13.9669C57.1289 13.7879 57.1751 13.6364 57.2675 13.5123C57.3627 13.3852 57.4999 13.29 57.6788 13.2265C57.8578 13.1601 58.0743 13.1269 58.3283 13.1269C58.5823 13.1269 58.7988 13.1601 58.9778 13.2265C59.1597 13.29 59.2982 13.3852 59.3935 13.5123C59.4887 13.6393 59.5364 13.7908 59.5364 13.9669C59.5364 14.1488 59.4873 14.3075 59.3891 14.4432C59.291 14.576 59.151 14.6784 58.9691 14.7506C58.7873 14.8228 58.5737 14.8589 58.3283 14.8589ZM58.3283 14.5081C58.5708 14.5081 58.7599 14.4591 58.8955 14.3609C59.0341 14.2599 59.1034 14.1242 59.1034 13.9539C59.1034 13.7865 59.0341 13.6551 58.8955 13.5599C58.7599 13.4617 58.5708 13.4127 58.3283 13.4127C58.0887 13.4127 57.9011 13.4617 57.7654 13.5599C57.6298 13.6551 57.5619 13.7865 57.5619 13.9539C57.5619 14.1242 57.6298 14.2599 57.7654 14.3609C57.9011 14.4591 58.0887 14.5081 58.3283 14.5081ZM58.3283 13.3607C58.0974 13.3607 57.9011 13.3304 57.7394 13.2698C57.5778 13.2063 57.4537 13.1168 57.3671 13.0013C57.2805 12.883 57.2372 12.743 57.2372 12.5813C57.2372 12.411 57.2819 12.2652 57.3714 12.144C57.4638 12.0199 57.5922 11.9246 57.7568 11.8582C57.9213 11.7918 58.1118 11.7586 58.3283 11.7586C58.5477 11.7586 58.7397 11.7918 58.9042 11.8582C59.0687 11.9246 59.1972 12.0199 59.2895 12.144C59.3819 12.2652 59.4281 12.411 59.4281 12.5813C59.4281 12.743 59.3848 12.883 59.2982 13.0013C59.2116 13.1168 59.086 13.2063 58.9215 13.2698C58.757 13.3304 58.5592 13.3607 58.3283 13.3607ZM58.3283 13.0836C58.539 13.0836 58.7036 13.0403 58.8219 12.9537C58.9432 12.8671 59.0038 12.7488 59.0038 12.5987C59.0038 12.4457 58.9417 12.3259 58.8176 12.2393C58.6935 12.1527 58.5304 12.1094 58.3283 12.1094C58.1262 12.1094 57.9646 12.1527 57.8434 12.2393C57.725 12.3259 57.6658 12.4457 57.6658 12.5987C57.6658 12.7488 57.7236 12.8671 57.839 12.9537C57.9574 13.0403 58.1205 13.0836 58.3283 13.0836ZM61.2058 14.8589C60.9373 14.8589 60.7078 14.7997 60.5173 14.6813C60.3268 14.563 60.181 14.3927 60.08 14.1704C59.9818 13.9452 59.9328 13.671 59.9328 13.3477C59.9328 13.0042 59.9934 12.7141 60.1146 12.4774C60.2359 12.2407 60.4047 12.0617 60.6212 11.9405C60.8377 11.8193 61.086 11.7586 61.366 11.7586C61.5103 11.7586 61.6474 11.7731 61.7773 11.8019C61.9101 11.8308 62.0241 11.8756 62.1194 11.9362L61.9548 12.2739C61.8769 12.2191 61.7874 12.1815 61.6864 12.1613C61.5882 12.1411 61.4843 12.131 61.3746 12.131C61.0658 12.131 60.8204 12.2277 60.6385 12.4211C60.4567 12.6116 60.3658 12.896 60.3658 13.2741C60.3658 13.3347 60.3687 13.4069 60.3744 13.4906C60.3802 13.5743 60.3946 13.6566 60.4177 13.7374L60.2705 13.5902C60.3138 13.4574 60.3816 13.3463 60.474 13.2568C60.5693 13.1644 60.6818 13.0966 60.8117 13.0533C60.9445 13.0071 61.0874 12.984 61.2404 12.984C61.4425 12.984 61.6214 13.0215 61.7773 13.0966C61.9332 13.1716 62.0559 13.2784 62.1454 13.417C62.2348 13.5527 62.2796 13.7143 62.2796 13.9019C62.2796 14.0954 62.232 14.2642 62.1367 14.4085C62.0414 14.5529 61.913 14.664 61.7513 14.742C61.5897 14.8199 61.4078 14.8589 61.2058 14.8589ZM61.1884 14.5081C61.3212 14.5081 61.4367 14.4836 61.5348 14.4345C61.6359 14.3855 61.7153 14.3176 61.773 14.231C61.8307 14.1415 61.8596 14.0376 61.8596 13.9193C61.8596 13.7403 61.7975 13.5989 61.6734 13.4949C61.5493 13.3881 61.3804 13.3347 61.1668 13.3347C61.0282 13.3347 60.907 13.3607 60.8031 13.4127C60.6992 13.4646 60.6169 13.5354 60.5563 13.6248C60.4985 13.7114 60.4697 13.811 60.4697 13.9236C60.4697 14.0275 60.4971 14.1242 60.552 14.2137C60.6068 14.3003 60.6876 14.371 60.7944 14.4259C60.9012 14.4807 61.0326 14.5081 61.1884 14.5081ZM63.7872 14.8589C63.5418 14.8589 63.3297 14.8228 63.1507 14.7506C62.9717 14.6784 62.8332 14.576 62.735 14.4432C62.6369 14.3075 62.5878 14.1488 62.5878 13.9669C62.5878 13.7879 62.634 13.6364 62.7264 13.5123C62.8216 13.3852 62.9587 13.29 63.1377 13.2265C63.3167 13.1601 63.5332 13.1269 63.7872 13.1269C64.0412 13.1269 64.2577 13.1601 64.4367 13.2265C64.6185 13.29 64.7571 13.3852 64.8524 13.5123C64.9476 13.6393 64.9952 13.7908 64.9952 13.9669C64.9952 14.1488 64.9462 14.3075 64.848 14.4432C64.7499 14.576 64.6099 14.6784 64.428 14.7506C64.2462 14.8228 64.0326 14.8589 63.7872 14.8589ZM63.7872 14.5081C64.0297 14.5081 64.2187 14.4591 64.3544 14.3609C64.493 14.2599 64.5622 14.1242 64.5622 13.9539C64.5622 13.7865 64.493 13.6551 64.3544 13.5599C64.2187 13.4617 64.0297 13.4127 63.7872 13.4127C63.5476 13.4127 63.36 13.4617 63.2243 13.5599C63.0886 13.6551 63.0208 13.7865 63.0208 13.9539C63.0208 14.1242 63.0886 14.2599 63.2243 14.3609C63.36 14.4591 63.5476 14.5081 63.7872 14.5081ZM63.7872 13.3607C63.5563 13.3607 63.36 13.3304 63.1983 13.2698C63.0367 13.2063 62.9126 13.1168 62.826 13.0013C62.7394 12.883 62.6961 12.743 62.6961 12.5813C62.6961 12.411 62.7408 12.2652 62.8303 12.144C62.9227 12.0199 63.0511 11.9246 63.2157 11.8582C63.3802 11.7918 63.5707 11.7586 63.7872 11.7586C64.0066 11.7586 64.1985 11.7918 64.3631 11.8582C64.5276 11.9246 64.6561 12.0199 64.7484 12.144C64.8408 12.2652 64.887 12.411 64.887 12.5813C64.887 12.743 64.8437 12.883 64.7571 13.0013C64.6705 13.1168 64.5449 13.2063 64.3804 13.2698C64.2159 13.3304 64.0181 13.3607 63.7872 13.3607ZM63.7872 13.0836C63.9979 13.0836 64.1625 13.0403 64.2808 12.9537C64.402 12.8671 64.4627 12.7488 64.4627 12.5987C64.4627 12.4457 64.4006 12.3259 64.2765 12.2393C64.1524 12.1527 63.9893 12.1094 63.7872 12.1094C63.5851 12.1094 63.4235 12.1527 63.3022 12.2393C63.1839 12.3259 63.1247 12.4457 63.1247 12.5987C63.1247 12.7488 63.1825 12.8671 63.2979 12.9537C63.4163 13.0403 63.5794 13.0836 63.7872 13.0836ZM66.3702 14.8589C66.1566 14.8589 65.9488 14.8257 65.7467 14.7593C65.5475 14.6929 65.3844 14.6034 65.2574 14.4908L65.4566 14.1488C65.5576 14.244 65.689 14.322 65.8506 14.3826C66.0123 14.4432 66.184 14.4735 66.3659 14.4735C66.5968 14.4735 66.7743 14.4244 66.8985 14.3263C67.0226 14.2281 67.0847 14.0968 67.0847 13.9323C67.0847 13.8197 67.0572 13.7215 67.0024 13.6378C66.9475 13.5541 66.8523 13.4906 66.7166 13.4473C66.5838 13.4011 66.4005 13.378 66.1667 13.378H65.4783L65.6385 11.7933H67.3488V12.17H65.7987L66.0238 11.9578L65.8983 13.2092L65.6731 13.0013H66.2576C66.5607 13.0013 66.8047 13.0403 66.9894 13.1182C67.1741 13.1962 67.3084 13.3044 67.3921 13.443C67.4758 13.5787 67.5176 13.736 67.5176 13.9149C67.5176 14.0881 67.4758 14.2469 67.3921 14.3912C67.3084 14.5327 67.1814 14.6467 67.011 14.7333C66.8436 14.817 66.63 14.8589 66.3702 14.8589ZM68.8609 11.7586C69.1351 11.7586 69.366 11.8178 69.5536 11.9362C69.7442 12.0545 69.8885 12.2263 69.9866 12.4514C70.0848 12.6737 70.1339 12.9465 70.1339 13.2698C70.1339 13.6133 70.0732 13.9034 69.952 14.1401C69.8308 14.3768 69.6633 14.5558 69.4497 14.677C69.2361 14.7982 68.9864 14.8589 68.7007 14.8589C68.5592 14.8589 68.4221 14.8444 68.2893 14.8156C68.1594 14.7867 68.0454 14.742 67.9473 14.6813L68.1118 14.3436C68.1926 14.3956 68.2821 14.4331 68.3802 14.4562C68.4813 14.4764 68.5866 14.4865 68.6963 14.4865C69.0023 14.4865 69.2462 14.3912 69.4281 14.2007C69.6099 14.0073 69.7009 13.7215 69.7009 13.3434C69.7009 13.2828 69.698 13.2106 69.6922 13.1269C69.6864 13.0432 69.6734 12.9609 69.6532 12.8801L69.7961 13.0273C69.7557 13.1601 69.6879 13.2727 69.5926 13.365C69.5002 13.4545 69.3877 13.5224 69.2549 13.5685C69.125 13.6118 68.9821 13.6335 68.8262 13.6335C68.627 13.6335 68.4495 13.596 68.2936 13.5209C68.1378 13.4459 68.0151 13.3405 67.9256 13.2048C67.8361 13.0663 67.7914 12.9032 67.7914 12.7156C67.7914 12.5193 67.8376 12.3504 67.9299 12.209C68.0252 12.0646 68.1536 11.9535 68.3153 11.8756C68.4798 11.7976 68.6617 11.7586 68.8609 11.7586ZM68.8782 12.1094C68.7483 12.1094 68.6328 12.1339 68.5318 12.183C68.4308 12.2321 68.3514 12.2999 68.2936 12.3865C68.2388 12.4731 68.2114 12.577 68.2114 12.6982C68.2114 12.8772 68.2734 13.0201 68.3976 13.1269C68.5217 13.2308 68.6891 13.2828 68.8998 13.2828C69.0384 13.2828 69.1596 13.2568 69.2635 13.2048C69.3703 13.1529 69.4526 13.0822 69.5103 12.9927C69.571 12.9032 69.6013 12.8036 69.6013 12.6939C69.6013 12.5871 69.5739 12.4904 69.519 12.4038C69.4642 12.3172 69.3833 12.2465 69.2765 12.1916C69.1697 12.1368 69.0369 12.1094 68.8782 12.1094ZM71.4346 14.8589C71.221 14.8589 71.0132 14.8257 70.8111 14.7593C70.612 14.6929 70.4489 14.6034 70.3219 14.4908L70.521 14.1488C70.6221 14.244 70.7534 14.322 70.9151 14.3826C71.0767 14.4432 71.2499 14.4735 71.4346 14.4735C71.6598 14.4735 71.8344 14.4259 71.9586 14.3306C72.0856 14.2325 72.1491 14.1011 72.1491 13.9366C72.1491 13.7778 72.0885 13.6508 71.9672 13.5556C71.8489 13.4574 71.6598 13.4083 71.4 13.4083H71.1575V13.1052L72.0582 11.9968L72.1188 12.17H70.4604V11.7933H72.4608V12.0877L71.5645 13.1918L71.3394 13.0576H71.4823C71.8489 13.0576 72.1231 13.1399 72.305 13.3044C72.4897 13.469 72.5821 13.6782 72.5821 13.9323C72.5821 14.1026 72.5402 14.2584 72.4565 14.3999C72.3728 14.5413 72.2458 14.6539 72.0755 14.7376C71.908 14.8184 71.6944 14.8589 71.4346 14.8589ZM74.2243 14.8589C73.9876 14.8589 73.7754 14.7982 73.5878 14.677C73.403 14.5558 73.2558 14.3797 73.1461 14.1488C73.0393 13.9178 72.9859 13.6378 72.9859 13.3088C72.9859 12.9797 73.0393 12.6997 73.1461 12.4688C73.2558 12.2378 73.403 12.0617 73.5878 11.9405C73.7754 11.8193 73.9876 11.7586 74.2243 11.7586C74.4581 11.7586 74.6688 11.8193 74.8564 11.9405C75.044 12.0617 75.1913 12.2378 75.2981 12.4688C75.4049 12.6997 75.4583 12.9797 75.4583 13.3088C75.4583 13.6378 75.4049 13.9178 75.2981 14.1488C75.1913 14.3797 75.044 14.5558 74.8564 14.677C74.6688 14.7982 74.4581 14.8589 74.2243 14.8589ZM74.2243 14.4735C74.383 14.4735 74.5216 14.4302 74.6399 14.3436C74.7612 14.257 74.855 14.1271 74.9214 13.9539C74.9906 13.7807 75.0253 13.5657 75.0253 13.3088C75.0253 13.0518 74.9906 12.8368 74.9214 12.6636C74.855 12.4904 74.7612 12.3605 74.6399 12.2739C74.5216 12.1873 74.383 12.144 74.2243 12.144C74.0655 12.144 73.9255 12.1873 73.8043 12.2739C73.683 12.3605 73.5878 12.4904 73.5185 12.6636C73.4521 12.8368 73.4189 13.0518 73.4189 13.3088C73.4189 13.5657 73.4521 13.7807 73.5185 13.9539C73.5878 14.1271 73.683 14.257 73.8043 14.3436C73.9255 14.4302 74.0655 14.4735 74.2243 14.4735ZM76.7582 14.8589C76.5446 14.8589 76.3368 14.8257 76.1347 14.7593C75.9355 14.6929 75.7725 14.6034 75.6454 14.4908L75.8446 14.1488C75.9456 14.244 76.077 14.322 76.2386 14.3826C76.4003 14.4432 76.5735 14.4735 76.7582 14.4735C76.9834 14.4735 77.158 14.4259 77.2821 14.3306C77.4092 14.2325 77.4727 14.1011 77.4727 13.9366C77.4727 13.7778 77.412 13.6508 77.2908 13.5556C77.1725 13.4574 76.9834 13.4083 76.7236 13.4083H76.4811V13.1052L77.3817 11.9968L77.4424 12.17H75.784V11.7933H77.7844V12.0877L76.8881 13.1918L76.663 13.0576H76.8059C77.1725 13.0576 77.4467 13.1399 77.6285 13.3044C77.8133 13.469 77.9057 13.6782 77.9057 13.9323C77.9057 14.1026 77.8638 14.2584 77.7801 14.3999C77.6964 14.5413 77.5694 14.6539 77.3991 14.7376C77.2316 14.8184 77.018 14.8589 76.7582 14.8589ZM79.5478 14.8589C79.3111 14.8589 79.099 14.7982 78.9113 14.677C78.7266 14.5558 78.5794 14.3797 78.4697 14.1488C78.3629 13.9178 78.3095 13.6378 78.3095 13.3088C78.3095 12.9797 78.3629 12.6997 78.4697 12.4688C78.5794 12.2378 78.7266 12.0617 78.9113 11.9405C79.099 11.8193 79.3111 11.7586 79.5478 11.7586C79.7816 11.7586 79.9924 11.8193 80.18 11.9405C80.3676 12.0617 80.5148 12.2378 80.6216 12.4688C80.7285 12.6997 80.7819 12.9797 80.7819 13.3088C80.7819 13.6378 80.7285 13.9178 80.6216 14.1488C80.5148 14.3797 80.3676 14.5558 80.18 14.677C79.9924 14.7982 79.7816 14.8589 79.5478 14.8589ZM79.5478 14.4735C79.7066 14.4735 79.8452 14.4302 79.9635 14.3436C80.0847 14.257 80.1786 14.1271 80.2449 13.9539C80.3142 13.7807 80.3489 13.5657 80.3489 13.3088C80.3489 13.0518 80.3142 12.8368 80.2449 12.6636C80.1786 12.4904 80.0847 12.3605 79.9635 12.2739C79.8452 12.1873 79.7066 12.144 79.5478 12.144C79.3891 12.144 79.2491 12.1873 79.1278 12.2739C79.0066 12.3605 78.9113 12.4904 78.8421 12.6636C78.7757 12.8368 78.7425 13.0518 78.7425 13.3088C78.7425 13.5657 78.7757 13.7807 78.8421 13.9539C78.9113 14.1271 79.0066 14.257 79.1278 14.3436C79.2491 14.4302 79.3891 14.4735 79.5478 14.4735Z" fill="#BEBEBE"></path><path d="M7.13886 25.9883L9.84072 19.9264H11.2263L13.9368 25.9883H12.4646L10.2477 20.6365H10.802L8.57639 25.9883H7.13886ZM8.48979 24.6893L8.86216 23.6242H11.9797L12.3607 24.6893H8.48979ZM14.4705 25.9883V19.5627H15.8214V25.9883H14.4705ZM17.0752 25.9883V19.5627H18.4261V25.9883H17.0752ZM21.0308 25.9883V21.0695H19.091V19.9264H24.3735V21.0695H22.4337V25.9883H21.0308ZM24.9316 25.9883V21.3293H26.2219V22.6456L26.04 22.2646C26.1786 21.9355 26.4008 21.6872 26.7068 21.5198C27.0128 21.3466 27.3852 21.26 27.8239 21.26V22.507C27.7662 22.5013 27.7143 22.4984 27.6681 22.4984C27.6219 22.4926 27.5728 22.4897 27.5208 22.4897C27.1514 22.4897 26.8512 22.5965 26.6202 22.8101C26.3951 23.018 26.2825 23.3442 26.2825 23.7887V25.9883H24.9316ZM31.1805 25.9883V25.079L31.0939 24.8798V23.2518C31.0939 22.9631 31.0044 22.738 30.8254 22.5763C30.6522 22.4147 30.3838 22.3338 30.0201 22.3338C29.7718 22.3338 29.5265 22.3743 29.284 22.4551C29.0473 22.5301 28.8452 22.6341 28.6778 22.7668L28.1929 21.8229C28.4469 21.6439 28.7529 21.5054 29.1108 21.4072C29.4687 21.3091 29.8325 21.26 30.2019 21.26C30.912 21.26 31.4634 21.4275 31.856 21.7623C32.2485 22.0971 32.4448 22.6196 32.4448 23.3297V25.9883H31.1805ZM29.7603 26.0576C29.3966 26.0576 29.0848 25.9969 28.825 25.8757C28.5652 25.7487 28.3661 25.5784 28.2275 25.3648C28.0889 25.1512 28.0197 24.9116 28.0197 24.646C28.0197 24.3689 28.0861 24.1264 28.2188 23.9186C28.3574 23.7108 28.5739 23.5491 28.8683 23.4336C29.1628 23.3124 29.5467 23.2518 30.0201 23.2518H31.2584V24.0398H30.1673C29.8498 24.0398 29.6304 24.0918 29.5092 24.1957C29.3937 24.2996 29.336 24.4295 29.336 24.5854C29.336 24.7586 29.4023 24.8971 29.5351 25.0011C29.6737 25.0992 29.8613 25.1483 30.098 25.1483C30.3232 25.1483 30.5252 25.0963 30.7042 24.9924C30.8832 24.8827 31.0131 24.724 31.0939 24.5161L31.3017 25.1396C31.2036 25.4398 31.0246 25.6679 30.7648 25.8237C30.505 25.9796 30.1702 26.0576 29.7603 26.0576ZM35.7017 26.0576C35.263 26.0576 34.8675 25.9594 34.5153 25.7631C34.1632 25.5611 33.8832 25.2811 33.6753 24.9231C33.4733 24.5652 33.3722 24.1437 33.3722 23.6588C33.3722 23.1681 33.4733 22.7437 33.6753 22.3858C33.8832 22.0279 34.1632 21.7508 34.5153 21.5545C34.8675 21.3582 35.263 21.26 35.7017 21.26C36.0943 21.26 36.4378 21.3466 36.7322 21.5198C37.0267 21.693 37.2547 21.9557 37.4164 22.3079C37.578 22.66 37.6588 23.1103 37.6588 23.6588C37.6588 24.2015 37.5809 24.6518 37.425 25.0097C37.2691 25.3619 37.044 25.6246 36.7496 25.7978C36.4609 25.971 36.1116 26.0576 35.7017 26.0576ZM35.9355 24.9491C36.1549 24.9491 36.3541 24.8971 36.5331 24.7932C36.712 24.6893 36.8535 24.5421 36.9574 24.3516C37.0671 24.1553 37.1219 23.9244 37.1219 23.6588C37.1219 23.3875 37.0671 23.1565 36.9574 22.966C36.8535 22.7755 36.712 22.6283 36.5331 22.5244C36.3541 22.4204 36.1549 22.3685 35.9355 22.3685C35.7104 22.3685 35.5083 22.4204 35.3294 22.5244C35.1504 22.6283 35.0061 22.7755 34.8964 22.966C34.7924 23.1565 34.7405 23.3875 34.7405 23.6588C34.7405 23.9244 34.7924 24.1553 34.8964 24.3516C35.0061 24.5421 35.1504 24.6893 35.3294 24.7932C35.5083 24.8971 35.7104 24.9491 35.9355 24.9491ZM37.1566 25.9883V25.0357L37.1825 23.6501L37.096 22.2732V19.5627H38.4469V25.9883H37.1566ZM42.0094 26.0576C41.4782 26.0576 41.0106 25.9536 40.6065 25.7458C40.2081 25.538 39.8993 25.2551 39.6799 24.8971C39.4605 24.5334 39.3508 24.1207 39.3508 23.6588C39.3508 23.1912 39.4576 22.7784 39.6712 22.4204C39.8906 22.0567 40.1879 21.7738 40.5632 21.5718C40.9384 21.3639 41.3628 21.26 41.8362 21.26C42.2923 21.26 42.7022 21.3582 43.0659 21.5545C43.4354 21.745 43.7269 22.0221 43.9405 22.3858C44.1541 22.7437 44.2609 23.1738 44.2609 23.6761C44.2609 23.7281 44.258 23.7887 44.2523 23.858C44.2465 23.9215 44.2407 23.9821 44.2349 24.0398H40.4506V23.2518H43.5248L43.0052 23.4856C43.0052 23.2431 42.9562 23.0324 42.858 22.8534C42.7599 22.6745 42.6242 22.5359 42.451 22.4378C42.2778 22.3338 42.0758 22.2819 41.8448 22.2819C41.6139 22.2819 41.409 22.3338 41.23 22.4378C41.0568 22.5359 40.9211 22.6774 40.823 22.8621C40.7248 23.0411 40.6758 23.2547 40.6758 23.5029V23.7108C40.6758 23.9648 40.7306 24.1899 40.8403 24.3862C40.9558 24.5767 41.1145 24.724 41.3166 24.8279C41.5244 24.926 41.7669 24.9751 42.044 24.9751C42.2923 24.9751 42.5088 24.9376 42.6935 24.8625C42.884 24.7875 43.0572 24.6749 43.2131 24.5248L43.9318 25.3042C43.7182 25.5466 43.4498 25.7343 43.1265 25.867C42.8032 25.9941 42.4308 26.0576 42.0094 26.0576ZM47.7081 25.9883V19.9264H48.8685L52.445 24.291H51.8821V19.9264H53.2677V25.9883H52.1159L48.5307 21.6237H49.0936V25.9883H47.7081ZM56.8235 26.0576C56.327 26.0576 55.8854 25.9536 55.4986 25.7458C55.1175 25.538 54.8144 25.2551 54.5893 24.8971C54.3699 24.5334 54.2602 24.1207 54.2602 23.6588C54.2602 23.1912 54.3699 22.7784 54.5893 22.4204C54.8144 22.0567 55.1175 21.7738 55.4986 21.5718C55.8854 21.3639 56.327 21.26 56.8235 21.26C57.3142 21.26 57.753 21.3639 58.1398 21.5718C58.5266 21.7738 58.8297 22.0538 59.0491 22.4118C59.2685 22.7697 59.3782 23.1854 59.3782 23.6588C59.3782 24.1207 59.2685 24.5334 59.0491 24.8971C58.8297 25.2551 58.5266 25.538 58.1398 25.7458C57.753 25.9536 57.3142 26.0576 56.8235 26.0576ZM56.8235 24.9491C57.0487 24.9491 57.2507 24.8971 57.4297 24.7932C57.6087 24.6893 57.7501 24.5421 57.854 24.3516C57.9579 24.1553 58.0099 23.9244 58.0099 23.6588C58.0099 23.3875 57.9579 23.1565 57.854 22.966C57.7501 22.7755 57.6087 22.6283 57.4297 22.5244C57.2507 22.4204 57.0487 22.3685 56.8235 22.3685C56.5984 22.3685 56.3963 22.4204 56.2173 22.5244C56.0384 22.6283 55.894 22.7755 55.7843 22.966C55.6804 23.1565 55.6285 23.3875 55.6285 23.6588C55.6285 23.9244 55.6804 24.1553 55.7843 24.3516C55.894 24.5421 56.0384 24.6893 56.2173 24.7932C56.3963 24.8971 56.5984 24.9491 56.8235 24.9491ZM60.2811 25.9883V21.3293H61.5715V22.6456L61.3896 22.2646C61.5282 21.9355 61.7504 21.6872 62.0564 21.5198C62.3624 21.3466 62.7348 21.26 63.1735 21.26V22.507C63.1158 22.5013 63.0638 22.4984 63.0176 22.4984C62.9715 22.4926 62.9224 22.4897 62.8704 22.4897C62.5009 22.4897 62.2007 22.5965 61.9698 22.8101C61.7447 23.018 61.6321 23.3442 61.6321 23.7887V25.9883H60.2811ZM69.9518 21.26C70.3213 21.26 70.6475 21.3351 70.9304 21.4852C71.2191 21.6295 71.4442 21.8547 71.6059 22.1606C71.7733 22.4609 71.857 22.8477 71.857 23.3211V25.9883H70.5061V23.5289C70.5061 23.1536 70.4281 22.8765 70.2723 22.6976C70.1164 22.5186 69.897 22.4291 69.6141 22.4291C69.4178 22.4291 69.2417 22.4753 69.0859 22.5677C68.93 22.6543 68.8087 22.787 68.7221 22.966C68.6356 23.145 68.5923 23.373 68.5923 23.6501V25.9883H67.2413V23.5289C67.2413 23.1536 67.1634 22.8765 67.0075 22.6976C66.8574 22.5186 66.6409 22.4291 66.358 22.4291C66.1617 22.4291 65.9857 22.4753 65.8298 22.5677C65.6739 22.6543 65.5527 22.787 65.4661 22.966C65.3795 23.145 65.3362 23.373 65.3362 23.6501V25.9883H63.9852V21.3293H65.2755V22.6023L65.0331 22.2299C65.1947 21.9124 65.4228 21.6728 65.7172 21.5112C66.0174 21.3437 66.358 21.26 66.7391 21.26C67.1663 21.26 67.5386 21.3697 67.8562 21.5891C68.1795 21.8027 68.3931 22.1318 68.497 22.5763L68.0207 22.4464C68.1766 22.0827 68.4248 21.7941 68.7654 21.5804C69.1118 21.3668 69.5073 21.26 69.9518 21.26ZM75.9256 25.9883V25.079L75.839 24.8798V23.2518C75.839 22.9631 75.7495 22.738 75.5706 22.5763C75.3974 22.4147 75.1289 22.3338 74.7652 22.3338C74.517 22.3338 74.2716 22.3743 74.0291 22.4551C73.7924 22.5301 73.5904 22.6341 73.4229 22.7668L72.938 21.8229C73.192 21.6439 73.498 21.5054 73.8559 21.4072C74.2139 21.3091 74.5776 21.26 74.9471 21.26C75.6572 21.26 76.2085 21.4275 76.6011 21.7623C76.9937 22.0971 77.1899 22.6196 77.1899 23.3297V25.9883H75.9256ZM74.5054 26.0576C74.1417 26.0576 73.8299 25.9969 73.5701 25.8757C73.3104 25.7487 73.1112 25.5784 72.9726 25.3648C72.8341 25.1512 72.7648 24.9116 72.7648 24.646C72.7648 24.3689 72.8312 24.1264 72.964 23.9186C73.1025 23.7108 73.319 23.5491 73.6134 23.4336C73.9079 23.3124 74.2918 23.2518 74.7652 23.2518H76.0036V24.0398H74.9124C74.5949 24.0398 74.3755 24.0918 74.2543 24.1957C74.1388 24.2996 74.0811 24.4295 74.0811 24.5854C74.0811 24.7586 74.1475 24.8971 74.2803 25.0011C74.4188 25.0992 74.6064 25.1483 74.8431 25.1483C75.0683 25.1483 75.2704 25.0963 75.4493 24.9924C75.6283 24.8827 75.7582 24.724 75.839 24.5161L76.0469 25.1396C75.9487 25.4398 75.7697 25.6679 75.5099 25.8237C75.2501 25.9796 74.9153 26.0576 74.5054 26.0576ZM78.4126 25.9883V19.5627H79.7635V25.9883H78.4126Z" fill="#9FCE10"></path><path d="M7.78907 42.5352V39.2516H8.96644C9.24163 39.2516 9.47773 39.2954 9.67474 39.383C9.87175 39.4705 10.0234 39.5972 10.1297 39.7629C10.2361 39.9255 10.2892 40.1241 10.2892 40.3587C10.2892 40.5869 10.2361 40.784 10.1297 40.9497C10.0234 41.1154 9.87175 41.2421 9.67474 41.3296C9.47773 41.4172 9.24163 41.461 8.96644 41.461H7.92041L8.02829 41.3484V42.5352H7.78907ZM8.02829 41.3625L7.92041 41.2452H8.96644C9.31981 41.2452 9.58718 41.1686 9.76855 41.0154C9.95305 40.859 10.0453 40.6401 10.0453 40.3587C10.0453 40.0741 9.95305 39.8552 9.76855 39.702C9.58718 39.5456 9.31981 39.4674 8.96644 39.4674H7.92041L8.02829 39.3502V41.3625ZM10.9435 42.5352V40.0866H11.1686V40.7574L11.1452 40.6823C11.214 40.4853 11.3297 40.3336 11.4923 40.2273C11.6549 40.121 11.8582 40.0678 12.1021 40.0678V40.2977C12.0927 40.2977 12.0833 40.2977 12.0739 40.2977C12.0646 40.2946 12.0552 40.293 12.0458 40.293C11.7737 40.293 11.5611 40.379 11.4079 40.551C11.2546 40.7198 11.178 40.9559 11.178 41.2593V42.5352H10.9435ZM13.6823 42.5539C13.4478 42.5539 13.2382 42.5008 13.0537 42.3944C12.8724 42.2881 12.727 42.1411 12.6175 41.9535C12.5112 41.7659 12.458 41.5517 12.458 41.3109C12.458 41.067 12.5112 40.8527 12.6175 40.6682C12.727 40.4806 12.8724 40.3336 13.0537 40.2273C13.2382 40.121 13.4478 40.0678 13.6823 40.0678C13.9168 40.0678 14.1264 40.121 14.3109 40.2273C14.4954 40.3336 14.6408 40.4806 14.7471 40.6682C14.8534 40.8527 14.9066 41.067 14.9066 41.3109C14.9066 41.5517 14.8534 41.7659 14.7471 41.9535C14.6408 42.1411 14.4954 42.2881 14.3109 42.3944C14.1264 42.5008 13.9168 42.5539 13.6823 42.5539ZM13.6823 42.3428C13.8699 42.3428 14.0388 42.3006 14.1889 42.2162C14.339 42.1286 14.4563 42.0067 14.5407 41.8503C14.6251 41.694 14.6674 41.5141 14.6674 41.3109C14.6674 41.1045 14.6251 40.9247 14.5407 40.7714C14.4563 40.6151 14.339 40.4947 14.1889 40.4103C14.0388 40.3227 13.8699 40.2789 13.6823 40.2789C13.4947 40.2789 13.3258 40.3227 13.1757 40.4103C13.0287 40.4947 12.9115 40.6151 12.8239 40.7714C12.7395 40.9247 12.6972 41.1045 12.6972 41.3109C12.6972 41.5141 12.7395 41.694 12.8239 41.8503C12.9115 42.0067 13.0287 42.1286 13.1757 42.2162C13.3258 42.3006 13.4947 42.3428 13.6823 42.3428ZM15.6811 42.5352V39.7113C15.6811 39.5081 15.739 39.3455 15.8547 39.2235C15.9735 39.0984 16.1424 39.0359 16.3613 39.0359C16.4519 39.0359 16.5411 39.0499 16.6286 39.0781C16.7162 39.1031 16.7881 39.1422 16.8444 39.1954L16.7506 39.3736C16.7037 39.3267 16.6474 39.2923 16.5817 39.2704C16.5161 39.2485 16.4457 39.2376 16.3706 39.2376C16.2205 39.2376 16.1064 39.2798 16.0282 39.3642C15.95 39.4455 15.9109 39.5675 15.9109 39.7301V40.1429L15.9156 40.2555V42.5352H15.6811ZM15.2308 40.2883V40.0866H16.6943V40.2883H15.2308ZM17.1728 42.5352V40.0866H17.4073V42.5352H17.1728ZM17.29 39.4909C17.2369 39.4909 17.1915 39.4721 17.154 39.4346C17.1165 39.3971 17.0977 39.3533 17.0977 39.3032C17.0977 39.2501 17.1165 39.2047 17.154 39.1672C17.1915 39.1297 17.2369 39.1109 17.29 39.1109C17.3463 39.1109 17.3917 39.1297 17.4261 39.1672C17.4636 39.2016 17.4823 39.2454 17.4823 39.2986C17.4823 39.3517 17.4636 39.3971 17.4261 39.4346C17.3917 39.4721 17.3463 39.4909 17.29 39.4909ZM19.1094 42.5539C18.8936 42.5539 18.7279 42.4945 18.6122 42.3757C18.4996 42.2568 18.4433 42.0942 18.4433 41.8878V39.5519H18.6779V41.8644C18.6779 42.0207 18.7169 42.1411 18.7951 42.2256C18.8733 42.31 18.9859 42.3522 19.1329 42.3522C19.2861 42.3522 19.4127 42.3069 19.5128 42.2162L19.6113 42.3804C19.5488 42.4398 19.4721 42.4836 19.3815 42.5117C19.2939 42.5398 19.2032 42.5539 19.1094 42.5539ZM17.993 40.2883V40.0866H19.4565V40.2883H17.993ZM21.8086 42.5352V41.977L21.7992 41.8925V40.9731C21.7992 40.7449 21.7367 40.5713 21.6116 40.4525C21.4896 40.3336 21.3098 40.2742 21.0722 40.2742C20.9033 40.2742 20.7454 40.3039 20.5984 40.3634C20.4546 40.4196 20.331 40.4931 20.2278 40.5838L20.1106 40.4149C20.2325 40.3055 20.3795 40.2211 20.5515 40.1616C20.7235 40.0991 20.9033 40.0678 21.0909 40.0678C21.3943 40.0678 21.6272 40.1444 21.7899 40.2977C21.9525 40.4509 22.0338 40.6792 22.0338 40.9825V42.5352H21.8086ZM20.9268 42.5539C20.7454 42.5539 20.5875 42.5258 20.453 42.4695C20.3217 42.4101 20.22 42.3272 20.1481 42.2209C20.0793 42.1146 20.0449 41.9926 20.0449 41.855C20.0449 41.7299 20.073 41.6173 20.1293 41.5173C20.1888 41.4141 20.2857 41.3312 20.4202 41.2687C20.5546 41.203 20.7344 41.1702 20.9596 41.1702H21.8602V41.3531H20.9643C20.711 41.3531 20.5327 41.4 20.4295 41.4938C20.3295 41.5876 20.2794 41.7049 20.2794 41.8456C20.2794 42.002 20.3389 42.1271 20.4577 42.2209C20.5765 42.3147 20.7438 42.3616 20.9596 42.3616C21.166 42.3616 21.3395 42.3147 21.4803 42.2209C21.6241 42.1271 21.7304 41.991 21.7992 41.8128L21.8649 41.9723C21.7992 42.1505 21.6867 42.2928 21.5272 42.3991C21.3708 42.5023 21.1707 42.5539 20.9268 42.5539ZM24.2291 42.5539C24.0133 42.5539 23.8178 42.5039 23.6427 42.4038C23.4707 42.3037 23.3331 42.1599 23.2299 41.9723C23.1299 41.7846 23.0798 41.5642 23.0798 41.3109C23.0798 41.0513 23.1299 40.8293 23.2299 40.6448C23.3331 40.4603 23.4707 40.318 23.6427 40.2179C23.8178 40.1179 24.0133 40.0678 24.2291 40.0678C24.4605 40.0678 24.6669 40.121 24.8482 40.2273C25.0327 40.3305 25.1766 40.4759 25.2798 40.6636C25.3861 40.8481 25.4393 41.0638 25.4393 41.3109C25.4393 41.5548 25.3861 41.7706 25.2798 41.9582C25.1766 42.1458 25.0327 42.2928 24.8482 42.3991C24.6669 42.5023 24.4605 42.5539 24.2291 42.5539ZM23.0001 42.5352V39.0546H23.2346V40.8793L23.1877 41.3062L23.2253 41.733V42.5352H23.0001ZM24.215 42.3428C24.4026 42.3428 24.5715 42.3006 24.7216 42.2162C24.8717 42.1286 24.989 42.0067 25.0734 41.8503C25.161 41.694 25.2047 41.5141 25.2047 41.3109C25.2047 41.1045 25.161 40.9247 25.0734 40.7714C24.989 40.6151 24.8717 40.4947 24.7216 40.4103C24.5715 40.3227 24.4026 40.2789 24.215 40.2789C24.0274 40.2789 23.8585 40.3227 23.7084 40.4103C23.5614 40.4947 23.4442 40.6151 23.3566 40.7714C23.2722 40.9247 23.2299 41.1045 23.2299 41.3109C23.2299 41.5141 23.2722 41.694 23.3566 41.8503C23.4442 42.0067 23.5614 42.1286 23.7084 42.2162C23.8585 42.3006 24.0274 42.3428 24.215 42.3428ZM26.1654 42.5352V40.0866H26.4V42.5352H26.1654ZM26.2827 39.4909C26.2295 39.4909 26.1842 39.4721 26.1467 39.4346C26.1091 39.3971 26.0904 39.3533 26.0904 39.3032C26.0904 39.2501 26.1091 39.2047 26.1467 39.1672C26.1842 39.1297 26.2295 39.1109 26.2827 39.1109C26.339 39.1109 26.3843 39.1297 26.4187 39.1672C26.4562 39.2016 26.475 39.2454 26.475 39.2986C26.475 39.3517 26.4562 39.3971 26.4187 39.4346C26.3843 39.4721 26.339 39.4909 26.2827 39.4909ZM27.3885 42.5352V39.0546H27.623V42.5352H27.3885ZM28.6116 42.5352V40.0866H28.8461V42.5352H28.6116ZM28.7288 39.4909C28.6757 39.4909 28.6303 39.4721 28.5928 39.4346C28.5553 39.3971 28.5365 39.3533 28.5365 39.3032C28.5365 39.2501 28.5553 39.2047 28.5928 39.1672C28.6303 39.1297 28.6757 39.1109 28.7288 39.1109C28.7851 39.1109 28.8305 39.1297 28.8649 39.1672C28.9024 39.2016 28.9212 39.2454 28.9212 39.2986C28.9212 39.3517 28.9024 39.3971 28.8649 39.4346C28.8305 39.4721 28.7851 39.4909 28.7288 39.4909ZM30.5476 42.5539C30.3318 42.5539 30.1661 42.4945 30.0504 42.3757C29.9378 42.2568 29.8815 42.0942 29.8815 41.8878V39.5519H30.1161V41.8644C30.1161 42.0207 30.1552 42.1411 30.2333 42.2256C30.3115 42.31 30.4241 42.3522 30.5711 42.3522C30.7243 42.3522 30.851 42.3069 30.951 42.2162L31.0495 42.3804C30.987 42.4398 30.9104 42.4836 30.8197 42.5117C30.7321 42.5398 30.6414 42.5539 30.5476 42.5539ZM29.4312 40.2883V40.0866H30.8947V40.2883H29.4312ZM31.6015 43.4639C31.4889 43.4639 31.3826 43.4452 31.2825 43.4076C31.1856 43.3701 31.1027 43.3154 31.0339 43.2435L31.1512 43.0652C31.2137 43.1309 31.281 43.1793 31.3529 43.2106C31.4279 43.2419 31.5124 43.2575 31.6062 43.2575C31.7188 43.2575 31.8173 43.2263 31.9017 43.1637C31.9893 43.1012 32.0706 42.987 32.1456 42.8213L32.3145 42.446L32.3473 42.4038L33.384 40.0866H33.6232L32.3661 42.8682C32.3004 43.0183 32.2285 43.1356 32.1503 43.22C32.0753 43.3076 31.9924 43.3701 31.9017 43.4076C31.811 43.4452 31.7109 43.4639 31.6015 43.4639ZM32.3098 42.5961L31.1746 40.0866H31.4232L32.4552 42.3897L32.3098 42.5961Z" fill="#5A5A5A"></path><path d="M8.5735 50.1782V47.511H9.31824V50.1782H8.5735ZM7.57474 49.1968V48.4924H10.3228V49.1968H7.57474ZM11.3975 50.8652V47.1704L11.8016 47.5745H10.5892V46.824H12.3327V50.8652H11.3975ZM13.6582 50.8652V47.1704L14.0624 47.5745H12.85V46.824H14.5935V50.8652H13.6582ZM15.2609 50.8652V50.259L16.8197 48.7869C16.9428 48.6753 17.0333 48.5752 17.091 48.4867C17.1487 48.3982 17.1872 48.3173 17.2065 48.2442C17.2296 48.1711 17.2411 48.1037 17.2411 48.0421C17.2411 47.8805 17.1853 47.7573 17.0737 47.6727C16.9659 47.5841 16.8062 47.5399 16.5945 47.5399C16.4252 47.5399 16.2674 47.5726 16.1211 47.638C15.9787 47.7034 15.8575 47.8054 15.7574 47.944L15.0762 47.5052C15.2301 47.2743 15.4456 47.0915 15.7227 46.9568C15.9999 46.8221 16.3193 46.7547 16.6811 46.7547C16.9813 46.7547 17.243 46.8048 17.4663 46.9048C17.6933 47.001 17.8685 47.1377 17.9916 47.3147C18.1186 47.4918 18.1821 47.7034 18.1821 47.9498C18.1821 48.0806 18.1648 48.2115 18.1302 48.3423C18.0994 48.4694 18.034 48.6041 17.9339 48.7465C17.8377 48.8889 17.6953 49.0486 17.5067 49.2256L16.2135 50.4438L16.0345 50.1032H18.3149V50.8652H15.2609ZM20.0113 50.9345C19.7304 50.9345 19.4513 50.8979 19.1742 50.8248C18.8971 50.7478 18.6623 50.6401 18.4699 50.5015L18.8336 49.7856C18.9876 49.8973 19.1665 49.9858 19.3705 50.0512C19.5745 50.1166 19.7804 50.1494 19.9882 50.1494C20.223 50.1494 20.4078 50.1032 20.5425 50.0108C20.6772 49.9184 20.7445 49.7914 20.7445 49.6298C20.7445 49.4758 20.6849 49.3546 20.5656 49.2661C20.4462 49.1775 20.2538 49.1333 19.9882 49.1333H19.561V48.5155L20.6868 47.2397L20.7907 47.5745H18.672V46.824H21.5008V47.4302L20.3808 48.7061L19.9074 48.4347H20.1788C20.6753 48.4347 21.0505 48.5463 21.3045 48.7696C21.5586 48.9928 21.6856 49.2795 21.6856 49.6298C21.6856 49.8568 21.6259 50.0705 21.5066 50.2706C21.3873 50.4669 21.2045 50.6266 20.9581 50.7498C20.7118 50.8729 20.3962 50.9345 20.0113 50.9345ZM22.6485 50.9114C22.4946 50.9114 22.3618 50.8595 22.2502 50.7555C22.1424 50.6478 22.0885 50.5111 22.0885 50.3456C22.0885 50.1801 22.1424 50.0474 22.2502 49.9473C22.3618 49.8434 22.4946 49.7914 22.6485 49.7914C22.8063 49.7914 22.9391 49.8434 23.0469 49.9473C23.1546 50.0474 23.2085 50.1801 23.2085 50.3456C23.2085 50.5111 23.1546 50.6478 23.0469 50.7555C22.9391 50.8595 22.8063 50.9114 22.6485 50.9114ZM25.0024 50.9345C24.7214 50.9345 24.4424 50.8979 24.1652 50.8248C23.892 50.7478 23.6572 50.6401 23.4609 50.5015L23.8304 49.7856C23.9843 49.8973 24.1614 49.9858 24.3615 50.0512C24.5655 50.1166 24.7714 50.1494 24.9793 50.1494C25.214 50.1494 25.3988 50.1032 25.5335 50.0108C25.6682 49.9184 25.7356 49.7895 25.7356 49.624C25.7356 49.5201 25.7086 49.4277 25.6547 49.3469C25.6008 49.2661 25.5046 49.2045 25.3661 49.1621C25.2314 49.1198 25.0408 49.0986 24.7945 49.0986H23.7611L23.969 46.824H26.4341V47.5745H24.3038L24.7887 47.1473L24.6444 48.7696L24.1595 48.3423H25.0139C25.4142 48.3423 25.7356 48.3982 25.978 48.5098C26.2244 48.6175 26.4033 48.7657 26.5149 48.9543C26.6266 49.1429 26.6824 49.3565 26.6824 49.5951C26.6824 49.8338 26.6227 50.0551 26.5034 50.259C26.3841 50.4592 26.1993 50.6228 25.9492 50.7498C25.7028 50.8729 25.3872 50.9345 25.0024 50.9345ZM28.3441 50.9345C28.0632 50.9345 27.7841 50.8979 27.507 50.8248C27.2299 50.7478 26.9951 50.6401 26.8027 50.5015L27.1664 49.7856C27.3204 49.8973 27.4993 49.9858 27.7033 50.0512C27.9073 50.1166 28.1132 50.1494 28.321 50.1494C28.5558 50.1494 28.7406 50.1032 28.8753 50.0108C29.01 49.9184 29.0773 49.7914 29.0773 49.6298C29.0773 49.4758 29.0177 49.3546 28.8984 49.2661C28.7791 49.1775 28.5866 49.1333 28.321 49.1333H27.8938V48.5155L29.0196 47.2397L29.1235 47.5745H27.0048V46.824H29.8336V47.4302L28.7136 48.7061L28.2402 48.4347H28.5116C29.0081 48.4347 29.3833 48.5463 29.6373 48.7696C29.8914 48.9928 30.0184 49.2795 30.0184 49.6298C30.0184 49.8568 29.9587 50.0705 29.8394 50.2706C29.7201 50.4669 29.5373 50.6266 29.2909 50.7498C29.0446 50.8729 28.729 50.9345 28.3441 50.9345ZM30.9769 50.8652L33.7365 46.824H34.4235L31.6639 50.8652H30.9769ZM31.3291 49.0063C31.1328 49.0063 30.9596 48.962 30.8095 48.8735C30.6594 48.7811 30.5401 48.6522 30.4515 48.4867C30.3669 48.3173 30.3245 48.1191 30.3245 47.892C30.3245 47.665 30.3669 47.4687 30.4515 47.3032C30.5401 47.1377 30.6594 47.0087 30.8095 46.9164C30.9596 46.824 31.1328 46.7778 31.3291 46.7778C31.5254 46.7778 31.6985 46.824 31.8487 46.9164C31.9988 47.0087 32.1161 47.1377 32.2008 47.3032C32.2855 47.4687 32.3278 47.665 32.3278 47.892C32.3278 48.1191 32.2855 48.3173 32.2008 48.4867C32.1161 48.6522 31.9988 48.7811 31.8487 48.8735C31.6985 48.962 31.5254 49.0063 31.3291 49.0063ZM31.3291 48.5329C31.4561 48.5329 31.5581 48.4809 31.635 48.377C31.712 48.2692 31.7505 48.1076 31.7505 47.892C31.7505 47.6765 31.712 47.5168 31.635 47.4129C31.5581 47.3051 31.4561 47.2512 31.3291 47.2512C31.2059 47.2512 31.1039 47.3051 31.0231 47.4129C30.9461 47.5168 30.9076 47.6765 30.9076 47.892C30.9076 48.1037 30.9461 48.2634 31.0231 48.3712C31.1039 48.479 31.2059 48.5329 31.3291 48.5329ZM34.0713 50.9114C33.8789 50.9114 33.7057 50.8672 33.5517 50.7786C33.4016 50.6863 33.2843 50.5573 33.1996 50.3918C33.1149 50.2225 33.0726 50.0243 33.0726 49.7972C33.0726 49.5701 33.1149 49.3738 33.1996 49.2083C33.2843 49.0428 33.4016 48.9139 33.5517 48.8215C33.7057 48.7292 33.8789 48.683 34.0713 48.683C34.2715 48.683 34.4466 48.7292 34.5967 48.8215C34.7468 48.9139 34.8642 49.0428 34.9489 49.2083C35.0335 49.3738 35.0759 49.5701 35.0759 49.7972C35.0759 50.0243 35.0335 50.2225 34.9489 50.3918C34.8642 50.5573 34.7468 50.6863 34.5967 50.7786C34.4466 50.8672 34.2715 50.9114 34.0713 50.9114ZM34.0713 50.438C34.1983 50.438 34.3003 50.3861 34.3773 50.2821C34.4543 50.1744 34.4928 50.0127 34.4928 49.7972C34.4928 49.5855 34.4543 49.4258 34.3773 49.318C34.3003 49.2103 34.1983 49.1564 34.0713 49.1564C33.9482 49.1564 33.8462 49.2103 33.7654 49.318C33.6884 49.4219 33.6499 49.5817 33.6499 49.7972C33.6499 50.0127 33.6884 50.1744 33.7654 50.2821C33.8462 50.3861 33.9482 50.438 34.0713 50.438Z" fill="#9FCE10"></path><path d="M64.25 42.5352L65.7604 39.2516H65.9997L67.5101 42.5352H67.2521L65.8261 39.4018H65.9293L64.508 42.5352H64.25ZM64.8035 41.6111L64.8833 41.4094H66.8487L66.9284 41.6111H64.8035ZM69.0261 43.4639C68.8041 43.4639 68.593 43.4295 68.3928 43.3607C68.1927 43.2919 68.0301 43.1965 67.905 43.0746L68.0317 42.8963C68.1536 43.0089 68.299 43.0965 68.4679 43.159C68.6399 43.2216 68.8244 43.2528 69.0214 43.2528C69.3498 43.2528 69.5905 43.1762 69.7438 43.023C69.9001 42.8698 69.9783 42.629 69.9783 42.3006V41.6205L70.0252 41.2546L69.9877 40.8887V40.0866H70.2128V42.2725C70.2128 42.6821 70.1128 42.9823 69.9126 43.1731C69.7156 43.367 69.4201 43.4639 69.0261 43.4639ZM68.9604 42.446C68.729 42.446 68.5211 42.396 68.3366 42.2959C68.1552 42.1927 68.0098 42.052 67.9003 41.8738C67.794 41.6924 67.7408 41.486 67.7408 41.2546C67.7408 41.0201 67.794 40.8137 67.9003 40.6354C68.0098 40.4572 68.1552 40.318 68.3366 40.2179C68.5211 40.1179 68.729 40.0678 68.9604 40.0678C69.1824 40.0678 69.381 40.1163 69.5561 40.2132C69.7344 40.3071 69.8751 40.4431 69.9783 40.6213C70.0815 40.7965 70.1331 41.0075 70.1331 41.2546C70.1331 41.4985 70.0815 41.7096 69.9783 41.8878C69.8751 42.0661 69.7344 42.2037 69.5561 42.3006C69.381 42.3976 69.1824 42.446 68.9604 42.446ZM68.9792 42.2349C69.1762 42.2349 69.3498 42.1943 69.4999 42.113C69.65 42.0286 69.7672 41.9129 69.8517 41.7659C69.9392 41.6158 69.983 41.4453 69.983 41.2546C69.983 41.0607 69.9392 40.8903 69.8517 40.7433C69.7672 40.5963 69.65 40.4822 69.4999 40.4009C69.3498 40.3196 69.1762 40.2789 68.9792 40.2789C68.7884 40.2789 68.6164 40.3196 68.4632 40.4009C68.3131 40.4822 68.1943 40.5963 68.1067 40.7433C68.0223 40.8903 67.9801 41.0607 67.9801 41.2546C67.9801 41.4453 68.0223 41.6158 68.1067 41.7659C68.1943 41.9129 68.3131 42.0286 68.4632 42.113C68.6164 42.1943 68.7884 42.2349 68.9792 42.2349ZM72.2 42.5539C71.953 42.5539 71.7341 42.5008 71.5433 42.3944C71.3557 42.2881 71.2072 42.1411 71.0977 41.9535C70.9914 41.7659 70.9382 41.5517 70.9382 41.3109C70.9382 41.067 70.9883 40.8527 71.0883 40.6682C71.1915 40.4806 71.3322 40.3336 71.5105 40.2273C71.6887 40.121 71.8889 40.0678 72.1109 40.0678C72.3329 40.0678 72.5315 40.1194 72.7066 40.2226C72.8849 40.3258 73.024 40.4712 73.1241 40.6589C73.2273 40.8434 73.2789 41.0576 73.2789 41.3015C73.2789 41.3109 73.2773 41.3218 73.2742 41.3343C73.2742 41.3437 73.2742 41.3547 73.2742 41.3672H71.1118V41.1842H73.1476L73.0537 41.2734C73.0569 41.0826 73.0162 40.9122 72.9318 40.7621C72.8505 40.6088 72.7395 40.49 72.5987 40.4056C72.458 40.318 72.2954 40.2742 72.1109 40.2742C71.9295 40.2742 71.7669 40.318 71.6231 40.4056C71.4823 40.49 71.3713 40.6088 71.29 40.7621C71.2087 40.9122 71.1681 41.0842 71.1681 41.278V41.3203C71.1681 41.5204 71.2118 41.6986 71.2994 41.855C71.3901 42.0082 71.5136 42.1286 71.67 42.2162C71.8263 42.3006 72.0046 42.3428 72.2047 42.3428C72.3611 42.3428 72.5065 42.3147 72.641 42.2584C72.7785 42.2021 72.8943 42.1161 72.9881 42.0004L73.1241 42.1552C73.0178 42.2865 72.8833 42.3866 72.7207 42.4554C72.5612 42.5211 72.3877 42.5539 72.2 42.5539Z" fill="#5A5A5A"></path><path d="M65.0983 50.8652L66.7264 47.1819L66.9688 47.5861H64.7923L65.208 47.1473V48.2442H64.3767V46.824H67.6154V47.4302L66.1144 50.8652H65.0983ZM69.31 50.9345C69.029 50.9345 68.75 50.8979 68.4728 50.8248C68.1996 50.7478 67.9648 50.6401 67.7685 50.5015L68.138 49.7856C68.2919 49.8973 68.469 49.9858 68.6691 50.0512C68.8731 50.1166 69.079 50.1494 69.2869 50.1494C69.5216 50.1494 69.7064 50.1032 69.8411 50.0108C69.9758 49.9184 70.0432 49.7895 70.0432 49.624C70.0432 49.5201 70.0162 49.4277 69.9623 49.3469C69.9084 49.2661 69.8122 49.2045 69.6737 49.1621C69.539 49.1198 69.3484 49.0986 69.1021 49.0986H68.0687L68.2766 46.824H70.7417V47.5745H68.6114L69.0963 47.1473L68.952 48.7696L68.4671 48.3423H69.3215C69.7218 48.3423 70.0432 48.3982 70.2856 48.5098C70.5319 48.6175 70.7109 48.7657 70.8225 48.9543C70.9341 49.1429 70.99 49.3565 70.99 49.5951C70.99 49.8338 70.9303 50.0551 70.811 50.259C70.6917 50.4592 70.5069 50.6228 70.2568 50.7498C70.0104 50.8729 69.6948 50.9345 69.31 50.9345ZM74.5285 50.9114C74.236 50.9114 73.9724 50.846 73.7376 50.7151C73.5028 50.5804 73.3162 50.3938 73.1776 50.1551C73.0429 49.9165 72.9755 49.6355 72.9755 49.3122C72.9755 48.9851 73.0429 48.7022 73.1776 48.4636C73.3162 48.225 73.5028 48.0402 73.7376 47.9094C73.9724 47.7785 74.236 47.7131 74.5285 47.7131C74.7902 47.7131 75.0192 47.7708 75.2155 47.8863C75.4118 48.0017 75.5638 48.1768 75.6716 48.4116C75.7794 48.6464 75.8333 48.9466 75.8333 49.3122C75.8333 49.674 75.7813 49.9742 75.6774 50.2129C75.5735 50.4476 75.4234 50.6228 75.2271 50.7382C75.0346 50.8537 74.8018 50.9114 74.5285 50.9114ZM74.6844 50.1725C74.8307 50.1725 74.9634 50.1378 75.0827 50.0685C75.2021 49.9993 75.2964 49.9011 75.3656 49.7741C75.4388 49.6432 75.4753 49.4893 75.4753 49.3122C75.4753 49.1313 75.4388 48.9774 75.3656 48.8504C75.2964 48.7234 75.2021 48.6252 75.0827 48.556C74.9634 48.4867 74.8307 48.452 74.6844 48.452C74.5343 48.452 74.3996 48.4867 74.2803 48.556C74.161 48.6252 74.0647 48.7234 73.9916 48.8504C73.9223 48.9774 73.8877 49.1313 73.8877 49.3122C73.8877 49.4893 73.9223 49.6432 73.9916 49.7741C74.0647 49.9011 74.161 49.9993 74.2803 50.0685C74.3996 50.1378 74.5343 50.1725 74.6844 50.1725ZM75.4984 50.8652V50.2302L75.5157 49.3065L75.458 48.3885V46.5815H76.3586V50.8652H75.4984Z" fill="#1B1B1B"></path><path d="M7.78907 62.5254V59.2419H7.99077L9.51525 61.8734H9.40737L10.9272 59.2419H11.1242L11.1289 62.5254H10.8943L10.8896 59.6031H10.9553L9.51525 62.0892H9.39798L7.95324 59.6031H8.0236V62.5254H7.78907ZM13.7419 62.5254V61.9672L13.7325 61.8828V60.9634C13.7325 60.7351 13.6699 60.5615 13.5448 60.4427C13.4229 60.3239 13.2431 60.2645 13.0054 60.2645C12.8365 60.2645 12.6786 60.2942 12.5316 60.3536C12.3878 60.4099 12.2643 60.4834 12.1611 60.574L12.0438 60.4052C12.1658 60.2957 12.3127 60.2113 12.4847 60.1519C12.6567 60.0893 12.8365 60.0581 13.0242 60.0581C13.3275 60.0581 13.5605 60.1347 13.7231 60.2879C13.8857 60.4411 13.967 60.6694 13.967 60.9728V62.5254H13.7419ZM12.86 62.5442C12.6786 62.5442 12.5207 62.516 12.3862 62.4597C12.2549 62.4003 12.1533 62.3174 12.0813 62.2111C12.0125 62.1048 11.9781 61.9828 11.9781 61.8452C11.9781 61.7201 12.0063 61.6076 12.0626 61.5075C12.122 61.4043 12.2189 61.3214 12.3534 61.2589C12.4879 61.1932 12.6677 61.1604 12.8928 61.1604H13.7935V61.3433H12.8975C12.6442 61.3433 12.466 61.3902 12.3628 61.484C12.2627 61.5779 12.2127 61.6951 12.2127 61.8359C12.2127 61.9922 12.2721 62.1173 12.3909 62.2111C12.5098 62.3049 12.6771 62.3518 12.8928 62.3518C13.0992 62.3518 13.2728 62.3049 13.4135 62.2111C13.5574 62.1173 13.6637 61.9813 13.7325 61.803L13.7981 61.9625C13.7325 62.1408 13.6199 62.283 13.4604 62.3894C13.3041 62.4926 13.1039 62.5442 12.86 62.5442ZM14.544 62.5254L15.5619 61.2026L15.5572 61.3152L14.5956 60.0768H14.863L15.7026 61.1604H15.6041L16.4391 60.0768H16.7017L15.7308 61.3293L15.7354 61.2026L16.7674 62.5254H16.4907L15.6041 61.3715L15.6932 61.3809L14.8114 62.5254H14.544ZM17.3657 62.5254V60.0768H17.6003V62.5254H17.3657ZM17.483 59.4811C17.4298 59.4811 17.3845 59.4623 17.347 59.4248C17.3094 59.3873 17.2907 59.3435 17.2907 59.2935C17.2907 59.2403 17.3094 59.195 17.347 59.1574C17.3845 59.1199 17.4298 59.1012 17.483 59.1012C17.5393 59.1012 17.5846 59.1199 17.619 59.1574C17.6566 59.1918 17.6753 59.2356 17.6753 59.2888C17.6753 59.342 17.6566 59.3873 17.619 59.4248C17.5846 59.4623 17.5393 59.4811 17.483 59.4811ZM21.6378 60.0581C21.8348 60.0581 22.0052 60.0972 22.1491 60.1753C22.296 60.2504 22.4102 60.3661 22.4915 60.5225C22.5728 60.6757 22.6134 60.8664 22.6134 61.0947V62.5254H22.3789V61.1135C22.3789 60.8383 22.3117 60.6288 22.1772 60.4849C22.0427 60.3411 21.8551 60.2692 21.6143 60.2692C21.4298 60.2692 21.2703 60.3082 21.1359 60.3864C21.0014 60.4646 20.8982 60.574 20.8263 60.7148C20.7544 60.8555 20.7184 61.0244 20.7184 61.2214V62.5254H20.4839V61.1135C20.4839 60.8383 20.4166 60.6288 20.2822 60.4849C20.1477 60.3411 19.9601 60.2692 19.7193 60.2692C19.5348 60.2692 19.3753 60.3082 19.2408 60.3864C19.1063 60.4646 19.0031 60.574 18.9312 60.7148C18.8593 60.8555 18.8233 61.0244 18.8233 61.2214V62.5254H18.5888V60.0768H18.814V60.7523L18.7811 60.6772C18.853 60.4865 18.9734 60.3364 19.1423 60.2269C19.3112 60.1144 19.5144 60.0581 19.7521 60.0581C19.996 60.0581 20.2008 60.1206 20.3666 60.2457C20.5355 60.3677 20.6418 60.5506 20.6856 60.7945L20.6058 60.7617C20.6715 60.5522 20.795 60.3833 20.9764 60.2551C21.1578 60.1237 21.3782 60.0581 21.6378 60.0581ZM24.5763 62.5442C24.3668 62.5442 24.1854 62.5066 24.0322 62.4316C23.8789 62.3534 23.7601 62.2377 23.6757 62.0845C23.5944 61.9281 23.5537 61.7358 23.5537 61.5075V60.0768H23.7883V61.4887C23.7883 61.7639 23.8586 61.9734 23.9993 62.1173C24.1401 62.2611 24.3386 62.3331 24.5951 62.3331C24.7796 62.3331 24.939 62.294 25.0735 62.2158C25.208 62.1376 25.3112 62.0282 25.3831 61.8875C25.455 61.7436 25.491 61.5747 25.491 61.3809V60.0768H25.7255V62.5254H25.5004V61.8452L25.5332 61.925C25.4613 62.1157 25.3409 62.2674 25.172 62.38C25.0063 62.4894 24.8077 62.5442 24.5763 62.5442ZM29.7687 60.0581C29.9657 60.0581 30.1361 60.0972 30.28 60.1753C30.4269 60.2504 30.5411 60.3661 30.6224 60.5225C30.7037 60.6757 30.7443 60.8664 30.7443 61.0947V62.5254H30.5098V61.1135C30.5098 60.8383 30.4426 60.6288 30.3081 60.4849C30.1736 60.3411 29.986 60.2692 29.7452 60.2692C29.5607 60.2692 29.4012 60.3082 29.2668 60.3864C29.1323 60.4646 29.0291 60.574 28.9572 60.7148C28.8852 60.8555 28.8493 61.0244 28.8493 61.2214V62.5254H28.6148V61.1135C28.6148 60.8383 28.5475 60.6288 28.413 60.4849C28.2786 60.3411 28.091 60.2692 27.8502 60.2692C27.6657 60.2692 27.5062 60.3082 27.3717 60.3864C27.2372 60.4646 27.134 60.574 27.0621 60.7148C26.9902 60.8555 26.9542 61.0244 26.9542 61.2214V62.5254H26.7197V60.0768H26.9449V60.7523L26.912 60.6772C26.9839 60.4865 27.1043 60.3364 27.2732 60.2269C27.4421 60.1144 27.6453 60.0581 27.883 60.0581C28.1269 60.0581 28.3317 60.1206 28.4975 60.2457C28.6663 60.3677 28.7727 60.5506 28.8165 60.7945L28.7367 60.7617C28.8024 60.5522 28.9259 60.3833 29.1073 60.2551C29.2887 60.1237 29.5091 60.0581 29.7687 60.0581ZM32.9926 62.5254V59.2419H34.2919C34.639 59.2419 34.9439 59.3122 35.2066 59.453C35.4693 59.5937 35.6725 59.7876 35.8164 60.0346C35.9633 60.2817 36.0368 60.5647 36.0368 60.8836C36.0368 61.2026 35.9633 61.4856 35.8164 61.7327C35.6725 61.9797 35.4693 62.1736 35.2066 62.3143C34.9439 62.455 34.639 62.5254 34.2919 62.5254H32.9926ZM33.2318 62.3096H34.2731C34.5827 62.3096 34.8516 62.2486 35.0799 62.1267C35.3082 62.0047 35.4849 61.8374 35.61 61.6248C35.7351 61.409 35.7976 61.162 35.7976 60.8836C35.7976 60.6053 35.7351 60.3598 35.61 60.1472C35.4849 59.9314 35.3082 59.7626 35.0799 59.6406C34.8516 59.5186 34.5827 59.4577 34.2731 59.4577H33.2318V62.3096ZM36.7928 62.5254V60.0768H37.018V60.7476L36.9945 60.6726C37.0633 60.4755 37.179 60.3239 37.3417 60.2176C37.5043 60.1112 37.7075 60.0581 37.9515 60.0581V60.2879C37.9421 60.2879 37.9327 60.2879 37.9233 60.2879C37.9139 60.2848 37.9045 60.2832 37.8952 60.2832C37.6231 60.2832 37.4105 60.3692 37.2572 60.5412C37.104 60.7101 37.0274 60.9462 37.0274 61.2495V62.5254H36.7928ZM39.9577 62.5254V61.9672L39.9483 61.8828V60.9634C39.9483 60.7351 39.8858 60.5615 39.7607 60.4427C39.6387 60.3239 39.4589 60.2645 39.2212 60.2645C39.0524 60.2645 38.8945 60.2942 38.7475 60.3536C38.6036 60.4099 38.4801 60.4834 38.3769 60.574L38.2596 60.4052C38.3816 60.2957 38.5286 60.2113 38.7006 60.1519C38.8726 60.0893 39.0524 60.0581 39.24 60.0581C39.5433 60.0581 39.7763 60.1347 39.9389 60.2879C40.1015 60.4411 40.1828 60.6694 40.1828 60.9728V62.5254H39.9577ZM39.0758 62.5442C38.8945 62.5442 38.7365 62.516 38.6021 62.4597C38.4707 62.4003 38.3691 62.3174 38.2972 62.2111C38.2284 62.1048 38.194 61.9828 38.194 61.8452C38.194 61.7201 38.2221 61.6076 38.2784 61.5075C38.3378 61.4043 38.4348 61.3214 38.5692 61.2589C38.7037 61.1932 38.8835 61.1604 39.1087 61.1604H40.0093V61.3433H39.1134C38.8601 61.3433 38.6818 61.3902 38.5786 61.484C38.4786 61.5779 38.4285 61.6951 38.4285 61.8359C38.4285 61.9922 38.4879 62.1173 38.6068 62.2111C38.7256 62.3049 38.8929 62.3518 39.1087 62.3518C39.3151 62.3518 39.4886 62.3049 39.6293 62.2111C39.7732 62.1173 39.8795 61.9813 39.9483 61.803L40.014 61.9625C39.9483 62.1408 39.8357 62.283 39.6762 62.3894C39.5199 62.4926 39.3198 62.5442 39.0758 62.5442ZM41.5818 62.5254L40.6531 60.0768H40.8782L41.7413 62.3941H41.6428L42.5293 60.0768H42.731L43.6129 62.3941H43.5097L44.3869 60.0768H44.6026L43.6739 62.5254H43.4534L42.5903 60.302H42.6654L41.7976 62.5254H41.5818ZM46.0223 62.5442C45.794 62.5442 45.5877 62.4926 45.4031 62.3894C45.2218 62.283 45.0779 62.1361 44.9716 61.9484C44.8653 61.7608 44.8121 61.545 44.8121 61.3011C44.8121 61.0541 44.8653 60.8383 44.9716 60.6538C45.0779 60.4662 45.2218 60.3207 45.4031 60.2176C45.5877 60.1112 45.794 60.0581 46.0223 60.0581C46.2381 60.0581 46.432 60.1081 46.604 60.2082C46.7791 60.3082 46.9167 60.4505 47.0168 60.635C47.12 60.8195 47.1716 61.0416 47.1716 61.3011C47.1716 61.5544 47.1215 61.7749 47.0214 61.9625C46.9214 62.1501 46.7838 62.294 46.6087 62.3941C46.4367 62.4941 46.2412 62.5442 46.0223 62.5442ZM46.0364 62.3331C46.224 62.3331 46.3913 62.2909 46.5383 62.2064C46.6884 62.1189 46.8057 61.9969 46.8901 61.8405C46.9777 61.6842 47.0214 61.5044 47.0214 61.3011C47.0214 61.0947 46.9777 60.9149 46.8901 60.7617C46.8057 60.6053 46.6884 60.4849 46.5383 60.4005C46.3913 60.3129 46.224 60.2692 46.0364 60.2692C45.8488 60.2692 45.6799 60.3129 45.5298 60.4005C45.3828 60.4849 45.2656 60.6053 45.178 60.7617C45.0936 60.9149 45.0513 61.0947 45.0513 61.3011C45.0513 61.5044 45.0936 61.6842 45.178 61.8405C45.2656 61.9969 45.3828 62.1189 45.5298 62.2064C45.6799 62.2909 45.8488 62.3331 46.0364 62.3331ZM47.0261 62.5254V61.7233L47.0684 61.2964L47.0214 60.8696V59.0449H47.256V62.5254H47.0261ZM49.2017 62.5442C48.9672 62.5442 48.7577 62.491 48.5732 62.3847C48.3918 62.2783 48.2464 62.1314 48.1369 61.9437C48.0306 61.7561 47.9774 61.5419 47.9774 61.3011C47.9774 61.0572 48.0306 60.843 48.1369 60.6585C48.2464 60.4709 48.3918 60.3239 48.5732 60.2176C48.7577 60.1112 48.9672 60.0581 49.2017 60.0581C49.4363 60.0581 49.6458 60.1112 49.8303 60.2176C50.0148 60.3239 50.1602 60.4709 50.2665 60.6585C50.3728 60.843 50.426 61.0572 50.426 61.3011C50.426 61.5419 50.3728 61.7561 50.2665 61.9437C50.1602 62.1314 50.0148 62.2783 49.8303 62.3847C49.6458 62.491 49.4363 62.5442 49.2017 62.5442ZM49.2017 62.3331C49.3894 62.3331 49.5582 62.2909 49.7083 62.2064C49.8584 62.1189 49.9757 61.9969 50.0601 61.8405C50.1446 61.6842 50.1868 61.5044 50.1868 61.3011C50.1868 61.0947 50.1446 60.9149 50.0601 60.7617C49.9757 60.6053 49.8584 60.4849 49.7083 60.4005C49.5582 60.3129 49.3894 60.2692 49.2017 60.2692C49.0141 60.2692 48.8452 60.3129 48.6951 60.4005C48.5481 60.4849 48.4309 60.6053 48.3433 60.7617C48.2589 60.9149 48.2167 61.0947 48.2167 61.3011C48.2167 61.5044 48.2589 61.6842 48.3433 61.8405C48.4309 61.9969 48.5481 62.1189 48.6951 62.2064C48.8452 62.2909 49.0141 62.3331 49.2017 62.3331ZM51.5634 62.5254L50.6346 60.0768H50.8597L51.7228 62.3941H51.6243L52.5109 60.0768H52.7126L53.5944 62.3941H53.4912L54.3684 60.0768H54.5842L53.6554 62.5254H53.435L52.5719 60.302H52.6469L51.7791 62.5254H51.5634ZM56.3259 60.0581C56.526 60.0581 56.6996 60.0972 56.8465 60.1753C56.9966 60.2504 57.1123 60.3661 57.1937 60.5225C57.2781 60.6757 57.3203 60.8664 57.3203 61.0947V62.5254H57.0858V61.1135C57.0858 60.8383 57.0154 60.6288 56.8747 60.4849C56.7371 60.3411 56.5432 60.2692 56.293 60.2692C56.1023 60.2692 55.9365 60.3082 55.7958 60.3864C55.6551 60.4646 55.5472 60.574 55.4722 60.7148C55.4002 60.8555 55.3643 61.0244 55.3643 61.2214V62.5254H55.1297V60.0768H55.3549V60.757L55.3221 60.6819C55.3971 60.4881 55.5206 60.3364 55.6926 60.2269C55.8646 60.1144 56.0757 60.0581 56.3259 60.0581Z" fill="#5A5A5A"></path><path d="M7.517 69.5911V68.8695H9.15082V69.5911H7.517ZM10.1684 70.8555V67.1606L10.5725 67.5647H9.36014V66.8142H11.1036V70.8555H10.1684ZM13.1797 70.9247C12.8987 70.9247 12.6197 70.8882 12.3426 70.8151C12.0693 70.7381 11.8345 70.6303 11.6383 70.4918L12.0077 69.7759C12.1617 69.8875 12.3387 69.976 12.5389 70.0414C12.7429 70.1069 12.9488 70.1396 13.1566 70.1396C13.3914 70.1396 13.5761 70.0934 13.7108 70.001C13.8455 69.9087 13.9129 69.7797 13.9129 69.6142C13.9129 69.5103 13.886 69.4179 13.8321 69.3371C13.7782 69.2563 13.682 69.1947 13.5434 69.1524C13.4087 69.11 13.2182 69.0889 12.9719 69.0889H11.9385L12.1463 66.8142H14.6115V67.5647H12.4811L12.9661 67.1375L12.8218 68.7598L12.3368 68.3326H13.1912C13.5915 68.3326 13.9129 68.3884 14.1554 68.5C14.4017 68.6078 14.5807 68.7559 14.6923 68.9445C14.8039 69.1331 14.8597 69.3467 14.8597 69.5854C14.8597 69.824 14.8 70.0453 14.6807 70.2493C14.5614 70.4494 14.3767 70.613 14.1265 70.74C13.8802 70.8632 13.5646 70.9247 13.1797 70.9247ZM15.7703 70.9017C15.6163 70.9017 15.4836 70.8497 15.3719 70.7458C15.2642 70.638 15.2103 70.5014 15.2103 70.3359C15.2103 70.1704 15.2642 70.0376 15.3719 69.9375C15.4836 69.8336 15.6163 69.7817 15.7703 69.7817C15.9281 69.7817 16.0609 69.8336 16.1686 69.9375C16.2764 70.0376 16.3303 70.1704 16.3303 70.3359C16.3303 70.5014 16.2764 70.638 16.1686 70.7458C16.0609 70.8497 15.9281 70.9017 15.7703 70.9017ZM16.7718 70.8555V70.2493L18.3306 68.7771C18.4538 68.6655 18.5442 68.5654 18.602 68.4769C18.6597 68.3884 18.6982 68.3076 18.7174 68.2344C18.7405 68.1613 18.7521 68.094 18.7521 68.0324C18.7521 67.8707 18.6962 67.7476 18.5846 67.6629C18.4769 67.5744 18.3171 67.5301 18.1055 67.5301C17.9361 67.5301 17.7783 67.5628 17.6321 67.6282C17.4897 67.6937 17.3684 67.7957 17.2683 67.9342L16.5871 67.4955C16.7411 67.2645 16.9566 67.0817 17.2337 66.947C17.5108 66.8123 17.8303 66.745 18.1921 66.745C18.4923 66.745 18.754 66.795 18.9772 66.8951C19.2043 66.9913 19.3794 67.1279 19.5026 67.305C19.6296 67.482 19.6931 67.6937 19.6931 67.94C19.6931 68.0709 19.6758 68.2017 19.6411 68.3326C19.6103 68.4596 19.5449 68.5943 19.4448 68.7367C19.3486 68.8791 19.2062 69.0388 19.0176 69.2159L17.7244 70.434L17.5455 70.0934H19.8259V70.8555H16.7718ZM20.8512 70.8555L23.6108 66.8142H24.2978L21.5383 70.8555H20.8512ZM21.2034 68.9965C21.0071 68.9965 20.8339 68.9522 20.6838 68.8637C20.5337 68.7713 20.4144 68.6424 20.3259 68.4769C20.2412 68.3076 20.1989 68.1093 20.1989 67.8823C20.1989 67.6552 20.2412 67.4589 20.3259 67.2934C20.4144 67.1279 20.5337 66.999 20.6838 66.9066C20.8339 66.8142 21.0071 66.768 21.2034 66.768C21.3997 66.768 21.5729 66.8142 21.723 66.9066C21.8731 66.999 21.9905 67.1279 22.0752 67.2934C22.1598 67.4589 22.2022 67.6552 22.2022 67.8823C22.2022 68.1093 22.1598 68.3076 22.0752 68.4769C21.9905 68.6424 21.8731 68.7713 21.723 68.8637C21.5729 68.9522 21.3997 68.9965 21.2034 68.9965ZM21.2034 68.5231C21.3304 68.5231 21.4324 68.4711 21.5094 68.3672C21.5864 68.2595 21.6249 68.0978 21.6249 67.8823C21.6249 67.6667 21.5864 67.507 21.5094 67.4031C21.4324 67.2953 21.3304 67.2414 21.2034 67.2414C21.0802 67.2414 20.9783 67.2953 20.8974 67.4031C20.8205 67.507 20.782 67.6667 20.782 67.8823C20.782 68.094 20.8205 68.2537 20.8974 68.3614C20.9783 68.4692 21.0802 68.5231 21.2034 68.5231ZM23.9457 70.9017C23.7532 70.9017 23.58 70.8574 23.4261 70.7689C23.276 70.6765 23.1586 70.5476 23.0739 70.3821C22.9893 70.2127 22.9469 70.0145 22.9469 69.7874C22.9469 69.5603 22.9893 69.3641 23.0739 69.1986C23.1586 69.0331 23.276 68.9041 23.4261 68.8118C23.58 68.7194 23.7532 68.6732 23.9457 68.6732C24.1458 68.6732 24.3209 68.7194 24.471 68.8118C24.6211 68.9041 24.7385 69.0331 24.8232 69.1986C24.9079 69.3641 24.9502 69.5603 24.9502 69.7874C24.9502 70.0145 24.9079 70.2127 24.8232 70.3821C24.7385 70.5476 24.6211 70.6765 24.471 70.7689C24.3209 70.8574 24.1458 70.9017 23.9457 70.9017ZM23.9457 70.4283C24.0727 70.4283 24.1747 70.3763 24.2517 70.2724C24.3286 70.1646 24.3671 70.003 24.3671 69.7874C24.3671 69.5757 24.3286 69.416 24.2517 69.3083C24.1747 69.2005 24.0727 69.1466 23.9457 69.1466C23.8225 69.1466 23.7205 69.2005 23.6397 69.3083C23.5627 69.4122 23.5242 69.5719 23.5242 69.7874C23.5242 70.003 23.5627 70.1646 23.6397 70.2724C23.7205 70.3763 23.8225 70.4283 23.9457 70.4283Z" fill="#1B1B1B"></path><path d="M64.8047 62.5254V59.2419H65.9821C66.2573 59.2419 66.4934 59.2857 66.6904 59.3732C66.8874 59.4608 67.039 59.5874 67.1454 59.7532C67.2517 59.9158 67.3048 60.1144 67.3048 60.3489C67.3048 60.5772 67.2517 60.7742 67.1454 60.9399C67.039 61.1025 66.8874 61.2292 66.6904 61.3199C66.4934 61.4074 66.2573 61.4512 65.9821 61.4512H64.936L65.0439 61.3386V62.5254H64.8047ZM67.0844 62.5254L66.2307 61.3339H66.5027L67.3564 62.5254H67.0844ZM65.0439 61.3527L64.936 61.2401H65.9821C66.3354 61.2401 66.6028 61.162 66.7842 61.0056C66.9687 60.8492 67.0609 60.6303 67.0609 60.3489C67.0609 60.0643 66.9687 59.8454 66.7842 59.6922C66.6028 59.5358 66.3354 59.4577 65.9821 59.4577H64.936L65.0439 59.3404V61.3527ZM69.1001 62.5442C68.8531 62.5442 68.6342 62.491 68.4434 62.3847C68.2558 62.2783 68.1072 62.1314 67.9978 61.9437C67.8915 61.7561 67.8383 61.5419 67.8383 61.3011C67.8383 61.0572 67.8883 60.843 67.9884 60.6585C68.0916 60.4709 68.2323 60.3239 68.4106 60.2176C68.5888 60.1112 68.789 60.0581 69.011 60.0581C69.233 60.0581 69.4316 60.1097 69.6067 60.2129C69.785 60.3161 69.9241 60.4615 70.0242 60.6491C70.1274 60.8336 70.179 61.0478 70.179 61.2917C70.179 61.3011 70.1774 61.3121 70.1743 61.3246C70.1743 61.3339 70.1743 61.3449 70.1743 61.3574H68.0119V61.1745H70.0476L69.9538 61.2636C69.957 61.0728 69.9163 60.9024 69.8319 60.7523C69.7506 60.5991 69.6395 60.4802 69.4988 60.3958C69.3581 60.3082 69.1955 60.2645 69.011 60.2645C68.8296 60.2645 68.667 60.3082 68.5232 60.3958C68.3824 60.4802 68.2714 60.5991 68.1901 60.7523C68.1088 60.9024 68.0682 61.0744 68.0682 61.2683V61.3105C68.0682 61.5106 68.1119 61.6889 68.1995 61.8452C68.2902 61.9985 68.4137 62.1189 68.5701 62.2064C68.7264 62.2909 68.9047 62.3331 69.1048 62.3331C69.2612 62.3331 69.4066 62.3049 69.541 62.2486C69.6786 62.1923 69.7943 62.1064 69.8882 61.9906L70.0242 62.1454C69.9179 62.2768 69.7834 62.3769 69.6208 62.4456C69.4613 62.5113 69.2877 62.5442 69.1001 62.5442ZM71.3372 62.5254L70.4084 60.0768H70.6336L71.4967 62.3941H71.3982L72.2847 60.0768H72.4864L73.3683 62.3941H73.2651L74.1422 60.0768H74.358L73.4292 62.5254H73.2088L72.3457 60.302H72.4207L71.553 62.5254H71.3372ZM76.3735 62.5254V61.9672L76.3641 61.8828V60.9634C76.3641 60.7351 76.3016 60.5615 76.1765 60.4427C76.0546 60.3239 75.8747 60.2645 75.6371 60.2645C75.4682 60.2645 75.3103 60.2942 75.1633 60.3536C75.0195 60.4099 74.8959 60.4834 74.7927 60.574L74.6755 60.4052C74.7974 60.2957 74.9444 60.2113 75.1164 60.1519C75.2884 60.0893 75.4682 60.0581 75.6558 60.0581C75.9592 60.0581 76.1921 60.1347 76.3548 60.2879C76.5174 60.4411 76.5987 60.6694 76.5987 60.9728V62.5254H76.3735ZM75.4917 62.5442C75.3103 62.5442 75.1524 62.516 75.0179 62.4597C74.8866 62.4003 74.7849 62.3174 74.713 62.2111C74.6442 62.1048 74.6098 61.9828 74.6098 61.8452C74.6098 61.7201 74.638 61.6076 74.6942 61.5075C74.7537 61.4043 74.8506 61.3214 74.9851 61.2589C75.1195 61.1932 75.2993 61.1604 75.5245 61.1604H76.4251V61.3433H75.5292C75.2759 61.3433 75.0976 61.3902 74.9944 61.484C74.8944 61.5779 74.8443 61.6951 74.8443 61.8359C74.8443 61.9922 74.9038 62.1173 75.0226 62.2111C75.1414 62.3049 75.3087 62.3518 75.5245 62.3518C75.7309 62.3518 75.9044 62.3049 76.0452 62.2111C76.189 62.1173 76.2953 61.9813 76.3641 61.803L76.4298 61.9625C76.3641 62.1408 76.2516 62.283 76.0921 62.3894C75.9357 62.4926 75.7356 62.5442 75.4917 62.5442ZM77.565 62.5254V60.0768H77.7902V60.7476L77.7667 60.6726C77.8355 60.4755 77.9512 60.3239 78.1138 60.2176C78.2764 60.1112 78.4797 60.0581 78.7236 60.0581V60.2879C78.7142 60.2879 78.7048 60.2879 78.6955 60.2879C78.6861 60.2848 78.6767 60.2832 78.6673 60.2832C78.3953 60.2832 78.1826 60.3692 78.0294 60.5412C77.8762 60.7101 77.7995 60.9462 77.7995 61.2495V62.5254H77.565ZM80.2898 62.5442C80.0615 62.5442 79.8551 62.4926 79.6706 62.3894C79.4892 62.283 79.3454 62.1361 79.239 61.9484C79.1327 61.7608 79.0796 61.545 79.0796 61.3011C79.0796 61.0541 79.1327 60.8383 79.239 60.6538C79.3454 60.4662 79.4892 60.3207 79.6706 60.2176C79.8551 60.1112 80.0615 60.0581 80.2898 60.0581C80.5055 60.0581 80.6994 60.1081 80.8714 60.2082C81.0465 60.3082 81.1841 60.4505 81.2842 60.635C81.3874 60.8195 81.439 61.0416 81.439 61.3011C81.439 61.5544 81.389 61.7749 81.2889 61.9625C81.1888 62.1501 81.0512 62.294 80.8761 62.3941C80.7041 62.4941 80.5087 62.5442 80.2898 62.5442ZM80.3038 62.3331C80.4915 62.3331 80.6588 62.2909 80.8057 62.2064C80.9558 62.1189 81.0731 61.9969 81.1575 61.8405C81.2451 61.6842 81.2889 61.5044 81.2889 61.3011C81.2889 61.0947 81.2451 60.9149 81.1575 60.7617C81.0731 60.6053 80.9558 60.4849 80.8057 60.4005C80.6588 60.3129 80.4915 60.2692 80.3038 60.2692C80.1162 60.2692 79.9473 60.3129 79.7972 60.4005C79.6503 60.4849 79.533 60.6053 79.4454 60.7617C79.361 60.9149 79.3188 61.0947 79.3188 61.3011C79.3188 61.5044 79.361 61.6842 79.4454 61.8405C79.533 61.9969 79.6503 62.1189 79.7972 62.2064C79.9473 62.2909 80.1162 62.3331 80.3038 62.3331ZM81.2936 62.5254V61.7233L81.3358 61.2964L81.2889 60.8696V59.0449H81.5234V62.5254H81.2936Z" fill="#5A5A5A"></path><path d="M65.1042 70.8555L66.7322 67.1722L66.9747 67.5763H64.7982L65.2139 67.1375V68.2344H64.3825V66.8142H67.6213V67.4204L66.1203 70.8555H65.1042ZM68.6433 70.8555L71.4029 66.8142H72.0899L69.3303 70.8555H68.6433ZM68.9954 68.9965C68.7992 68.9965 68.626 68.9522 68.4759 68.8637C68.3258 68.7713 68.2064 68.6424 68.1179 68.4769C68.0332 68.3076 67.9909 68.1093 67.9909 67.8823C67.9909 67.6552 68.0332 67.4589 68.1179 67.2934C68.2064 67.1279 68.3258 66.999 68.4759 66.9066C68.626 66.8142 68.7992 66.768 68.9954 66.768C69.1917 66.768 69.3649 66.8142 69.515 66.9066C69.6651 66.999 69.7825 67.1279 69.8672 67.2934C69.9519 67.4589 69.9942 67.6552 69.9942 67.8823C69.9942 68.1093 69.9519 68.3076 69.8672 68.4769C69.7825 68.6424 69.6651 68.7713 69.515 68.8637C69.3649 68.9522 69.1917 68.9965 68.9954 68.9965ZM68.9954 68.5231C69.1225 68.5231 69.2245 68.4711 69.3014 68.3672C69.3784 68.2595 69.4169 68.0978 69.4169 67.8823C69.4169 67.6667 69.3784 67.507 69.3014 67.4031C69.2245 67.2953 69.1225 67.2414 68.9954 67.2414C68.8723 67.2414 68.7703 67.2953 68.6895 67.4031C68.6125 67.507 68.574 67.6667 68.574 67.8823C68.574 68.094 68.6125 68.2537 68.6895 68.3614C68.7703 68.4692 68.8723 68.5231 68.9954 68.5231ZM71.7377 70.9017C71.5453 70.9017 71.3721 70.8574 71.2181 70.7689C71.068 70.6765 70.9506 70.5476 70.866 70.3821C70.7813 70.2127 70.739 70.0145 70.739 69.7874C70.739 69.5603 70.7813 69.3641 70.866 69.1986C70.9506 69.0331 71.068 68.9041 71.2181 68.8118C71.3721 68.7194 71.5453 68.6732 71.7377 68.6732C71.9379 68.6732 72.113 68.7194 72.2631 68.8118C72.4132 68.9041 72.5306 69.0331 72.6152 69.1986C72.6999 69.3641 72.7423 69.5603 72.7423 69.7874C72.7423 70.0145 72.6999 70.2127 72.6152 70.3821C72.5306 70.5476 72.4132 70.6765 72.2631 70.7689C72.113 70.8574 71.9379 70.9017 71.7377 70.9017ZM71.7377 70.4283C71.8647 70.4283 71.9667 70.3763 72.0437 70.2724C72.1207 70.1646 72.1592 70.003 72.1592 69.7874C72.1592 69.5757 72.1207 69.416 72.0437 69.3083C71.9667 69.2005 71.8647 69.1466 71.7377 69.1466C71.6146 69.1466 71.5126 69.2005 71.4317 69.3083C71.3548 69.4122 71.3163 69.5719 71.3163 69.7874C71.3163 70.003 71.3548 70.1646 71.4317 70.2724C71.5126 70.3763 71.6146 70.4283 71.7377 70.4283Z" fill="#1B1B1B"></path><path d="M76.5117 70.8901C76.2038 70.8901 75.9305 70.8228 75.6919 70.688C75.4532 70.5533 75.2646 70.3686 75.1261 70.1338C74.9875 69.8952 74.9183 69.6258 74.9183 69.3256C74.9183 69.0215 74.9875 68.7521 75.1261 68.5173C75.2646 68.2825 75.4532 68.0997 75.6919 67.9689C75.9305 67.8342 76.2038 67.7668 76.5117 67.7668C76.8157 67.7668 77.0871 67.8342 77.3257 67.9689C77.5682 68.0997 77.7567 68.2825 77.8915 68.5173C78.03 68.7483 78.0993 69.0177 78.0993 69.3256C78.0993 69.6296 78.03 69.899 77.8915 70.1338C77.7567 70.3686 77.5682 70.5533 77.3257 70.688C77.0871 70.8228 76.8157 70.8901 76.5117 70.8901ZM76.5117 70.4052C76.7079 70.4052 76.8831 70.3609 77.037 70.2724C77.1948 70.1839 77.318 70.0588 77.4065 69.8971C77.495 69.7316 77.5393 69.5411 77.5393 69.3256C77.5393 69.1062 77.495 68.9176 77.4065 68.7598C77.318 68.5981 77.1948 68.4731 77.037 68.3845C76.8831 68.296 76.7079 68.2518 76.5117 68.2518C76.3154 68.2518 76.1402 68.296 75.9863 68.3845C75.8323 68.4731 75.7092 68.5981 75.6168 68.7598C75.5244 68.9176 75.4783 69.1062 75.4783 69.3256C75.4783 69.5411 75.5244 69.7316 75.6168 69.8971C75.7092 70.0588 75.8323 70.1839 75.9863 70.2724C76.1402 70.3609 76.3154 70.4052 76.5117 70.4052ZM78.9466 70.8555V67.5243C78.9466 67.2241 79.0332 66.9855 79.2064 66.8085C79.3834 66.6276 79.6336 66.5371 79.9569 66.5371C80.0762 66.5371 80.1898 66.5525 80.2975 66.5833C80.4091 66.6102 80.5034 66.6545 80.5804 66.7161L80.413 67.1375C80.3553 67.0913 80.2898 67.0567 80.2167 67.0336C80.1436 67.0067 80.0666 66.9932 79.9858 66.9932C79.8241 66.9932 79.701 67.0394 79.6163 67.1318C79.5316 67.2203 79.4893 67.3531 79.4893 67.5301V67.94L79.5008 68.194V70.8555H78.9466ZM78.427 68.2518V67.7957H80.3783V68.2518H78.427ZM82.5323 70.8555V66.8142H84.1084C84.4625 66.8142 84.7646 66.87 85.0148 66.9817C85.2649 67.0933 85.4574 67.2549 85.5921 67.4666C85.7268 67.6783 85.7942 67.9304 85.7942 68.2229C85.7942 68.5154 85.7268 68.7675 85.5921 68.9792C85.4574 69.187 85.2649 69.3487 85.0148 69.4641C84.7646 69.5757 84.4625 69.6316 84.1084 69.6316H82.8498L83.1096 69.3602V70.8555H82.5323ZM83.1096 69.4179L82.8498 69.1293H84.0911C84.4605 69.1293 84.7396 69.0504 84.9282 68.8926C85.1206 68.7348 85.2168 68.5115 85.2168 68.2229C85.2168 67.9342 85.1206 67.711 84.9282 67.5532C84.7396 67.3954 84.4605 67.3165 84.0911 67.3165H82.8498L83.1096 67.0278V69.4179ZM86.5051 70.8555V67.7957H87.0362V68.627L86.9843 68.4192C87.069 68.2075 87.2114 68.0458 87.4115 67.9342C87.6116 67.8226 87.858 67.7668 88.1505 67.7668V68.3037C88.1274 68.2999 88.1043 68.2979 88.0812 68.2979C88.062 68.2979 88.0427 68.2979 88.0235 68.2979C87.7271 68.2979 87.4923 68.3865 87.3191 68.5635C87.1459 68.7406 87.0593 68.9965 87.0593 69.3313V70.8555H86.5051ZM90.1159 70.8901C89.808 70.8901 89.5347 70.8228 89.2961 70.688C89.0575 70.5533 88.8689 70.3686 88.7303 70.1338C88.5918 69.8952 88.5225 69.6258 88.5225 69.3256C88.5225 69.0215 88.5918 68.7521 88.7303 68.5173C88.8689 68.2825 89.0575 68.0997 89.2961 67.9689C89.5347 67.8342 89.808 67.7668 90.1159 67.7668C90.4199 67.7668 90.6913 67.8342 90.9299 67.9689C91.1724 68.0997 91.361 68.2825 91.4957 68.5173C91.6342 68.7483 91.7035 69.0177 91.7035 69.3256C91.7035 69.6296 91.6342 69.899 91.4957 70.1338C91.361 70.3686 91.1724 70.5533 90.9299 70.688C90.6913 70.8228 90.4199 70.8901 90.1159 70.8901ZM90.1159 70.4052C90.3122 70.4052 90.4873 70.3609 90.6413 70.2724C90.7991 70.1839 90.9222 70.0588 91.0107 69.8971C91.0993 69.7316 91.1435 69.5411 91.1435 69.3256C91.1435 69.1062 91.0993 68.9176 91.0107 68.7598C90.9222 68.5981 90.7991 68.4731 90.6413 68.3845C90.4873 68.296 90.3122 68.2518 90.1159 68.2518C89.9196 68.2518 89.7445 68.296 89.5905 68.3845C89.4366 68.4731 89.3134 68.5981 89.221 68.7598C89.1287 68.9176 89.0825 69.1062 89.0825 69.3256C89.0825 69.5411 89.1287 69.7316 89.221 69.8971C89.3134 70.0588 89.4366 70.1839 89.5905 70.2724C89.7445 70.3609 89.9196 70.4052 90.1159 70.4052ZM92.5508 70.8555V67.5243C92.5508 67.2241 92.6374 66.9855 92.8106 66.8085C92.9877 66.6276 93.2378 66.5371 93.5611 66.5371C93.6805 66.5371 93.794 66.5525 93.9018 66.5833C94.0134 66.6102 94.1077 66.6545 94.1846 66.7161L94.0172 67.1375C93.9595 67.0913 93.8941 67.0567 93.8209 67.0336C93.7478 67.0067 93.6708 66.9932 93.59 66.9932C93.4284 66.9932 93.3052 67.0394 93.2205 67.1318C93.1358 67.2203 93.0935 67.3531 93.0935 67.5301V67.94L93.1051 68.194V70.8555H92.5508ZM92.0312 68.2518V67.7957H93.9826V68.2518H92.0312ZM94.5079 70.8555V67.7957H95.0622V70.8555H94.5079ZM94.7851 67.2068C94.6773 67.2068 94.5868 67.1722 94.5137 67.1029C94.4444 67.0336 94.4098 66.9489 94.4098 66.8489C94.4098 66.745 94.4444 66.6584 94.5137 66.5891C94.5868 66.5198 94.6773 66.4852 94.7851 66.4852C94.8928 66.4852 94.9813 66.5198 95.0506 66.5891C95.1238 66.6545 95.1603 66.7373 95.1603 66.8373C95.1603 66.9412 95.1257 67.0298 95.0564 67.1029C94.9871 67.1722 94.8967 67.2068 94.7851 67.2068ZM97.1684 70.8901C96.8605 70.8901 96.6219 70.8074 96.4526 70.6419C96.2832 70.4764 96.1985 70.2397 96.1985 69.9318V67.126H96.7528V69.9087C96.7528 70.0742 96.7932 70.2012 96.874 70.2897C96.9587 70.3782 97.078 70.4225 97.2319 70.4225C97.4051 70.4225 97.5495 70.3744 97.6649 70.2781L97.8381 70.6765C97.7535 70.7496 97.6515 70.8035 97.5322 70.8381C97.4167 70.8728 97.2954 70.8901 97.1684 70.8901ZM95.679 68.2518V67.7957H97.6303V68.2518H95.679Z" fill="#1B1B1B"></path><path d="M37.9121 116.156C27.5069 94.2507 13.1131 107.029 7.2168 116.156V121.732H119.073V93.006C113.09 86.7829 116.471 89.2722 111.269 84.0448C106.066 78.8174 103.465 87.2808 99.3027 92.5082C95.973 96.6901 93.4064 94.2507 92.5393 92.5082C92.0191 90.3509 89.834 85.8868 85.2557 85.2894C76.7234 84.0946 68.5207 104.374 65.4858 114.662C64.3586 116.405 61.6359 119.641 59.763 118.645C55.1847 115.658 50.3983 116.737 48.5774 117.649C46.0628 119.06 40.4093 120.736 37.9121 116.156Z" fill="url(#paint0_linear_671_89015)"></path><path d="M37.9121 116.208L37.4617 116.422L37.4677 116.434L37.4743 116.446L37.9121 116.208ZM48.5774 117.704L48.3538 117.258L48.3434 117.264L48.3333 117.269L48.5774 117.704ZM59.763 118.701L59.4903 119.118L59.509 119.131L59.5287 119.141L59.763 118.701ZM65.4858 114.712L65.9045 114.983L65.9436 114.922L65.964 114.853L65.4858 114.712ZM85.2557 85.2939L85.1865 85.7875L85.1911 85.7881L85.2557 85.2939ZM92.5393 92.5238L92.0547 92.6405L92.0679 92.6952L92.0929 92.7456L92.5393 92.5238ZM99.3027 92.5238L99.6929 92.834L99.3027 92.5238ZM118.713 93.3676C118.904 93.5662 119.219 93.5726 119.418 93.382C119.616 93.1913 119.623 92.8758 119.432 92.6772L118.713 93.3676ZM7.63566 116.478C9.09031 114.223 11.0688 111.743 13.3737 109.634C15.6818 107.522 18.2923 105.804 21.0097 105.032C23.711 104.266 26.5255 104.431 29.299 106.094C32.089 107.768 34.8842 110.987 37.4617 116.422L38.3625 115.994C35.7374 110.46 32.8314 107.051 29.8118 105.24C26.7758 103.418 23.6723 103.24 20.7375 104.073C17.8187 104.902 15.0749 106.726 12.7007 108.899C10.3233 111.074 8.29142 113.622 6.79793 115.938L7.63566 116.478ZM37.4743 116.446C38.833 118.942 41.0702 119.729 43.2438 119.704C45.3911 119.68 47.5154 118.872 48.8216 118.138L48.3333 117.269C47.1249 117.948 45.1651 118.686 43.2327 118.708C41.3266 118.729 39.4884 118.061 38.3499 115.97L37.4743 116.446ZM48.801 118.149C50.508 117.292 55.0983 116.248 59.4903 119.118L60.0356 118.284C55.2712 115.17 50.2886 116.287 48.3538 117.258L48.801 118.149ZM59.5287 119.141C60.1567 119.475 60.8318 119.436 61.456 119.214C62.0727 118.994 62.6771 118.585 63.2282 118.114C64.3322 117.169 65.3248 115.88 65.9045 114.983L65.0671 114.442C64.5196 115.289 63.5872 116.494 62.5799 117.356C62.0753 117.788 61.5775 118.112 61.1217 118.274C60.6733 118.434 60.3058 118.425 59.9972 118.261L59.5287 119.141ZM65.964 114.853C67.4749 109.723 70.2715 102.107 73.7437 95.9344C75.481 92.8458 77.372 90.1466 79.3354 88.2996C81.3054 86.4463 83.2723 85.519 85.1865 85.7875L85.3249 84.8003C82.973 84.4704 80.7149 85.6331 78.6524 87.5735C76.5832 89.5201 74.634 92.3182 72.8748 95.4456C69.3538 101.705 66.5316 109.397 65.0077 114.571L65.964 114.853ZM85.1911 85.7881C87.3204 86.0664 88.9049 87.244 90.0318 88.6365C91.1634 90.0348 91.8098 91.6233 92.0547 92.6405L93.0239 92.4071C92.7486 91.2636 92.0423 89.5363 90.8067 88.0094C89.5664 86.4767 87.7693 85.1197 85.3203 84.7996L85.1911 85.7881ZM92.0929 92.7456C92.5562 93.678 93.5053 94.8734 94.8713 95.2311C96.3057 95.6067 97.964 95.0088 99.6929 92.834L98.9125 92.2136C97.3118 94.2272 96.0219 94.5019 95.1238 94.2667C94.1573 94.0136 93.3895 93.1147 92.9857 92.302L92.0929 92.7456ZM99.6929 92.834C100.754 91.4992 101.712 89.9625 102.619 88.5196C103.534 87.0626 104.392 85.7098 105.274 84.6838C106.162 83.6494 107.002 83.0358 107.856 82.9208C108.679 82.8099 109.67 83.146 110.915 84.3987L111.622 83.696C110.266 82.3309 108.981 81.7633 107.723 81.9329C106.495 82.0983 105.45 82.9494 104.517 84.0341C103.578 85.1273 102.68 86.548 101.775 87.9892C100.86 89.4445 99.9325 90.9306 98.9125 92.2136L99.6929 92.834ZM110.915 84.3987C113.501 87.0009 113.935 87.6631 114.466 88.4418C115.04 89.2821 115.71 90.2388 118.713 93.3676L119.432 92.6772C116.453 89.5733 115.822 88.6602 115.29 87.88C114.715 87.0382 114.239 86.3292 111.622 83.696L110.915 84.3987Z" fill="url(#paint1_linear_671_89015)"></path><rect x="7.2168" y="133.277" width="111.856" height="18.0413" rx="9.02063" fill="#B4E913"></rect><path d="M59.2002 144.342C58.9116 144.342 58.6446 144.295 58.3992 144.201C58.1575 144.104 57.9464 143.969 57.766 143.795C57.5892 143.619 57.4502 143.413 57.3492 143.178C57.2482 142.944 57.1977 142.686 57.1977 142.404C57.1977 142.123 57.2482 141.865 57.3492 141.631C57.4502 141.396 57.591 141.192 57.7714 141.019C57.9518 140.842 58.1629 140.707 58.4046 140.613C58.65 140.516 58.917 140.467 59.2057 140.467C59.4979 140.467 59.7667 140.517 60.0121 140.618C60.2611 140.716 60.4721 140.862 60.6453 141.057L60.2935 141.398C60.1492 141.246 59.9868 141.134 59.8064 141.062C59.626 140.986 59.433 140.949 59.2273 140.949C59.0144 140.949 58.816 140.985 58.6319 141.057C58.4515 141.129 58.2946 141.23 58.1611 141.36C58.0276 141.49 57.9229 141.645 57.8471 141.825C57.775 142.002 57.7389 142.195 57.7389 142.404C57.7389 142.614 57.775 142.809 57.8471 142.989C57.9229 143.166 58.0276 143.319 58.1611 143.449C58.2946 143.579 58.4515 143.68 58.6319 143.752C58.816 143.824 59.0144 143.86 59.2273 143.86C59.433 143.86 59.626 143.824 59.8064 143.752C59.9868 143.676 60.1492 143.561 60.2935 143.406L60.6453 143.747C60.4721 143.942 60.2611 144.09 60.0121 144.191C59.7667 144.292 59.4961 144.342 59.2002 144.342ZM62.4487 144.331C62.1601 144.331 61.9039 144.268 61.6802 144.142C61.4565 144.016 61.2796 143.842 61.1498 143.622C61.0199 143.399 60.9549 143.146 60.9549 142.865C60.9549 142.579 61.0199 142.327 61.1498 142.107C61.2796 141.887 61.4565 141.715 61.6802 141.593C61.9039 141.466 62.1601 141.403 62.4487 141.403C62.7338 141.403 62.9882 141.466 63.2119 141.593C63.4392 141.715 63.616 141.887 63.7423 142.107C63.8722 142.323 63.9371 142.576 63.9371 142.865C63.9371 143.15 63.8722 143.402 63.7423 143.622C63.616 143.842 63.4392 144.016 63.2119 144.142C62.9882 144.268 62.7338 144.331 62.4487 144.331ZM62.4487 143.877C62.6327 143.877 62.7969 143.835 62.9412 143.752C63.0892 143.669 63.2047 143.552 63.2876 143.4C63.3706 143.245 63.4121 143.067 63.4121 142.865C63.4121 142.659 63.3706 142.482 63.2876 142.334C63.2047 142.183 63.0892 142.065 62.9412 141.982C62.7969 141.899 62.6327 141.858 62.4487 141.858C62.2647 141.858 62.1005 141.899 61.9562 141.982C61.8119 142.065 61.6964 142.183 61.6098 142.334C61.5232 142.482 61.4799 142.659 61.4799 142.865C61.4799 143.067 61.5232 143.245 61.6098 143.4C61.6964 143.552 61.8119 143.669 61.9562 143.752C62.1005 143.835 62.2647 143.877 62.4487 143.877ZM66.1766 144.331C65.9384 144.331 65.7201 144.277 65.5217 144.169C65.3268 144.057 65.1699 143.893 65.0508 143.676C64.9353 143.46 64.8776 143.189 64.8776 142.865C64.8776 142.54 64.9335 142.269 65.0454 142.053C65.1609 141.836 65.316 141.674 65.5109 141.566C65.7093 141.457 65.9312 141.403 66.1766 141.403C66.458 141.403 66.707 141.465 66.9235 141.587C67.14 141.71 67.3114 141.881 67.4377 142.101C67.564 142.318 67.6271 142.572 67.6271 142.865C67.6271 143.157 67.564 143.413 67.4377 143.633C67.3114 143.853 67.14 144.025 66.9235 144.147C66.707 144.27 66.458 144.331 66.1766 144.331ZM64.6557 145.349V141.43H65.1536V142.204L65.1212 142.87L65.1753 143.536V145.349H64.6557ZM66.1333 143.877C66.3173 143.877 66.4815 143.835 66.6258 143.752C66.7737 143.669 66.8892 143.552 66.9722 143.4C67.0588 143.245 67.1021 143.067 67.1021 142.865C67.1021 142.659 67.0588 142.482 66.9722 142.334C66.8892 142.183 66.7737 142.065 66.6258 141.982C66.4815 141.899 66.3173 141.858 66.1333 141.858C65.9529 141.858 65.7887 141.899 65.6408 141.982C65.4964 142.065 65.381 142.183 65.2944 142.334C65.2114 142.482 65.1699 142.659 65.1699 142.865C65.1699 143.067 65.2114 143.245 65.2944 143.4C65.381 143.552 65.4964 143.669 65.6408 143.752C65.7887 143.835 65.9529 143.877 66.1333 143.877ZM68.3902 145.381C68.2531 145.381 68.1196 145.358 67.9897 145.311C67.8598 145.268 67.7479 145.203 67.6541 145.116L67.876 144.726C67.9482 144.795 68.0276 144.847 68.1142 144.883C68.2008 144.919 68.2928 144.937 68.3902 144.937C68.5165 144.937 68.6211 144.905 68.7041 144.84C68.7871 144.775 68.8647 144.66 68.9369 144.494L69.1155 144.099L69.1696 144.034L70.2954 141.43H70.8041L69.4131 144.586C69.3301 144.788 69.2363 144.947 69.1317 145.062C69.0307 145.177 68.9188 145.259 68.7961 145.306C68.6734 145.356 68.5381 145.381 68.3902 145.381ZM69.0722 144.391L67.7624 141.43H68.3036L69.4186 143.985L69.0722 144.391Z" fill="#1B1B1B"></path><rect x="0.720703" y="0.361328" width="125.567" height="162.01" rx="8.29898" fill="black" fill-opacity="0.31"></rect><defs><linearGradient id="paint0_linear_671_89015" x1="63.1447" y1="82.4023" x2="63.3829" y2="116.256" gradientUnits="userSpaceOnUse"><stop stop-color="#B4E913"></stop><stop offset="1" stop-color="#B4E913" stop-opacity="0"></stop></linearGradient><linearGradient id="paint1_linear_671_89015" x1="63.1447" y1="114.563" x2="63.1447" y2="119.206" gradientUnits="userSpaceOnUse"><stop stop-color="#9FCE10"></stop><stop offset="1" stop-color="#DB3500"></stop></linearGradient></defs></svg> 