<?xml version="1.0" encoding="UTF-8"?> <svg xmlns="http://www.w3.org/2000/svg" width="25" height="38" viewBox="0 0 25 38" fill="none"><rect y="32.2671" width="1.79223" height="4.89896" fill="#678F73"></rect><rect x="3.49951" y="32.2671" width="1.79223" height="4.89896" fill="#678F73"></rect><rect x="22.3743" y="32.2671" width="1.83899" height="5.02537" fill="#678F73"></rect><path d="M15.8669 35.4284L16.2483 32.3567L17.9642 37.2926H16.1252L15.8669 35.4284Z" fill="#678F73"></path><path d="M14.8816 35.4284L14.5003 32.3567L12.7843 37.2926H14.6233L14.8816 35.4284Z" fill="#678F73"></path><rect x="18.2224" y="32.2671" width="1.83899" height="5.02537" fill="#678F73"></rect><rect x="18.2224" y="35.7249" width="3.89385" height="1.56762" fill="#678F73"></rect><rect x="5.91504" y="32.2671" width="1.79223" height="2.25768" fill="#678F73"></rect><rect x="10.6331" y="32.2671" width="1.80668" height="2.27404" fill="#678F73"></rect><rect x="8.23193" y="32.2671" width="1.83901" height="2.38686" fill="#678F73"></rect><rect x="14.262" y="35.4124" width="2.25273" height="1.56515" fill="#678F73"></rect><rect x="14.4971" y="32.3567" width="1.78228" height="2.2867" fill="#678F73"></rect><path d="M14.6329 37.2579L15.0853 34.5619L14.271 34.5076L14.0811 36.7693L14.6329 37.2579Z" fill="#678F73"></path><path d="M16.1346 37.2579L15.6823 34.5619L16.4965 34.5076L16.6865 36.7693L16.1346 37.2579Z" fill="#678F73"></path><path d="M2.97223 36.993C2.82369 36.9962 2.51713 37.0006 2.4792 36.993L1.77759 35.6941V32.2903L2.4792 34.3667H2.82053L3.55059 32.2903V35.751L2.97223 36.993Z" fill="#678F73"></path><path d="M7.22936 37.249L5.93042 34.5373L6.00627 34.4709H7.69394V34.9166H8.23437V34.5373H10.0737V34.9166H10.6331V34.5373H12.4441L11.0977 37.249H9.59968L9.30576 36.3672H9.02132L8.7274 37.249H7.22936Z" fill="#678F73"></path><path d="M12.1756 17.2369C17.3742 17.2369 21.5885 13.0226 21.5885 7.82399C21.5885 5.92519 21.0263 4.1577 20.0592 2.67892C22.3477 4.82799 23.7771 7.88124 23.7771 11.2683C23.7771 17.7748 18.5026 23.0492 11.9962 23.0492C5.48981 23.0492 0.215332 17.7748 0.215332 11.2683C0.215332 7.43849 2.04285 4.03548 4.87342 1.88379C3.55386 3.50393 2.76273 5.57157 2.76273 7.82399C2.76273 13.0226 6.97702 17.2369 12.1756 17.2369Z" fill="#E0BC6C"></path><path d="M12.1756 13.7209C15.2936 13.7209 17.8212 11.1933 17.8212 8.07528C17.8212 6.6688 17.3069 5.38245 16.4561 4.39404C18.1891 5.69567 19.3102 7.76813 19.3102 10.1024C19.3102 14.0427 16.1159 17.237 12.1756 17.237C8.23528 17.237 5.04102 14.0427 5.04102 10.1024C5.04102 7.76813 6.16204 5.69567 7.89511 4.39404C7.0443 5.38245 6.52999 6.6688 6.52999 8.07528C6.52999 11.1933 9.05761 13.7209 12.1756 13.7209Z" fill="#E0BC6C"></path><path d="M0.215332 17.4976V30.8467H3.25443V21.3236C2.0211 20.2505 0.987103 18.9542 0.215332 17.4976Z" fill="#0C704E"></path><path d="M5.4357 22.8677V30.8467H8.47479V24.1218C7.40169 23.8285 6.38259 23.4044 5.4357 22.8677Z" fill="#0C704E"></path><path d="M10.6561 24.5255V30.8467H13.6952V24.4848C13.1388 24.5556 12.5718 24.5921 11.9962 24.5921C11.5439 24.5921 11.0968 24.5696 10.6561 24.5255Z" fill="#0C704E"></path><path d="M15.8764 24.0183V30.8467H18.9155V22.6568C17.973 23.2307 16.9536 23.6909 15.8764 24.0183Z" fill="#0C704E"></path><path d="M21.0968 20.9999V30.8467H24.1359V16.7671C23.4071 18.3737 22.3686 19.81 21.0968 20.9999Z" fill="#0C704E"></path><path fill-rule="evenodd" clip-rule="evenodd" d="M10.3149 13.4435C10.6656 13.4435 11.3669 13.2499 11.3669 12.4753V3.72415L10.6966 2.88627H10.4918V2.6256H11.3669V2.35562C11.2366 2.3463 10.9759 2.23272 10.9759 1.85289C10.9759 1.47305 11.7704 0.459526 12.1676 0.000244141H12.2979C12.6951 0.459526 13.4896 1.47305 13.4896 1.85289C13.4896 2.23272 13.2289 2.3463 13.0986 2.35562V2.6256H13.9737V2.88627H13.7689L13.0986 3.72415V12.4753C13.0986 13.2499 13.7999 13.4435 14.1506 13.4435V14.5421H12.3304V15.533H12.1351V14.5421H10.3149V13.4435ZM12.7616 3.39076H11.7039V5.52225H12.7616V3.39076Z" fill="#E0BC6C"></path></svg> 