<?xml version="1.0" encoding="UTF-8"?> <svg xmlns="http://www.w3.org/2000/svg" width="24" height="24" viewBox="0 0 24 24" fill="none"><path d="M4.40058 7.60711V7.60708C4.40058 5.06657 6.46008 3.00708 9.00058 3.00708C11.5411 3.00708 13.6006 5.06657 13.6006 7.60708V10.0071H11.6006V7.60708C11.6006 6.17114 10.4365 5.00708 9.00058 5.00708C7.56465 5.00708 6.4006 6.17112 6.40058 7.60704C6.40058 7.60705 6.40058 7.60707 6.40058 7.60708L6.40042 10.0071H4.40042L4.40058 7.60711Z" stroke="#9FCE10"></path><circle cx="8.99883" cy="13.8067" r="1.2" fill="#9FCE10"></circle><path d="M8.39883 13.8059H9.59883L10.1988 17.4059H7.79883L8.39883 13.8059Z" fill="#9FCE10"></path><circle cx="17" cy="18.0071" r="4.5" stroke="#9FCE10"></circle><path fill-rule="evenodd" clip-rule="evenodd" d="M4.2 9.50708C3.26112 9.50708 2.5 10.2682 2.5 11.2071V16.2071C2.5 19.1342 4.87289 21.5071 7.8 21.5071H10.2C11.1656 21.5071 12.0709 21.2489 12.8506 20.7977C12.6648 20.522 12.5058 20.2269 12.3773 19.9159C11.7387 20.2916 10.9945 20.5071 10.2 20.5071H7.8C5.42518 20.5071 3.5 18.5819 3.5 16.2071V11.2071C3.5 10.8205 3.8134 10.5071 4.2 10.5071H13.8C14.1866 10.5071 14.5 10.8205 14.5 11.2071V13.676C14.8134 13.4947 15.1483 13.3464 15.5 13.236V11.2071C15.5 10.2682 14.7389 9.50708 13.8 9.50708H4.2Z" fill="#9FCE10"></path><path d="M16.6696 16.477H17.1688C17.3922 16.477 17.5741 16.6588 17.5741 16.8822C17.5741 17.1378 17.7813 17.345 18.0368 17.345C18.2924 17.345 18.4995 17.1378 18.4995 16.8822C18.4995 16.2211 18.0147 15.6712 17.382 15.5688V15.4698C17.382 15.2143 17.1748 15.0071 16.9192 15.0071C16.6637 15.0071 16.4565 15.2143 16.4565 15.4698V15.5688C15.8237 15.6712 15.3389 16.221 15.3389 16.8822V17.1391C15.3389 17.8728 15.9359 18.4698 16.6696 18.4698H17.1688C17.3922 18.4698 17.5741 18.6517 17.5741 18.8751V19.1319C17.5741 19.3554 17.3922 19.5372 17.1688 19.5372H16.6696C16.4462 19.5372 16.2643 19.3554 16.2643 19.1319V19.108C16.2643 18.8524 16.0571 18.6452 15.8016 18.6452C15.5461 18.6452 15.3389 18.8524 15.3389 19.108V19.1319C15.3389 19.7931 15.8237 20.3431 16.4565 20.4454V20.5443C16.4565 20.7999 16.6637 21.0071 16.9192 21.0071C17.1748 21.0071 17.382 20.7999 17.382 20.5443V20.4454C18.0147 20.343 18.4995 19.7931 18.4995 19.1319V18.8751C18.4995 18.1414 17.9025 17.5444 17.1688 17.5444H16.6696C16.4462 17.5444 16.2643 17.3625 16.2643 17.1391V16.8822C16.2643 16.6588 16.4462 16.477 16.6696 16.477Z" fill="#9FCE10" stroke="#9FCE10" stroke-width="0.134088"></path></svg> 