<?xml version="1.0" encoding="UTF-8"?> <svg xmlns="http://www.w3.org/2000/svg" width="64" height="12" viewBox="0 0 64 12" fill="none"><g clip-path="url(#clip0_529_253)"><path d="M5.63862 0.939697L7.09058 4.03278L10.3375 4.53183L7.98808 6.93811L8.54255 10.3375L5.63862 8.7317L2.73468 10.3375L3.28916 6.93811L0.939697 4.53183L4.18665 4.03278L5.63862 0.939697Z" fill="white" stroke="white" stroke-width="0.939784" stroke-linejoin="round"></path><path d="M18.7956 0.939697L20.2476 4.03278L23.4945 4.53183L21.1451 6.93811L21.6995 10.3375L18.7956 8.7317L15.8917 10.3375L16.4461 6.93811L14.0967 4.53183L17.3436 4.03278L18.7956 0.939697Z" fill="white" stroke="white" stroke-width="0.939784" stroke-linejoin="round"></path><path d="M31.9526 0.939697L33.4045 4.03278L36.6515 4.53183L34.302 6.93811L34.8565 10.3375L31.9526 8.7317L29.0486 10.3375L29.6031 6.93811L27.2537 4.53183L30.5006 4.03278L31.9526 0.939697Z" fill="white" stroke="white" stroke-width="0.939784" stroke-linejoin="round"></path><path d="M45.1096 0.939697L46.5615 4.03278L49.8085 4.53183L47.459 6.93811L48.0135 10.3375L45.1096 8.7317L42.2056 10.3375L42.7601 6.93811L40.4106 4.53183L43.6576 4.03278L45.1096 0.939697Z" fill="white" stroke="white" stroke-width="0.939784" stroke-linejoin="round"></path><path d="M58.2665 0.939697L59.7185 4.03278L62.9655 4.53183L60.616 6.93811L61.1705 10.3375L58.2665 8.7317L55.3626 10.3375L55.9171 6.93811L53.5676 4.53183L56.8146 4.03278L58.2665 0.939697Z" fill="white" stroke="white" stroke-width="0.939784" stroke-linejoin="round"></path></g><defs><clipPath id="clip0_529_253"><rect width="63.9053" height="11.2774" fill="white"></rect></clipPath></defs></svg> 