<?xml version="1.0" encoding="UTF-8"?> <svg xmlns="http://www.w3.org/2000/svg" width="58" height="12" viewBox="0 0 58 12" fill="none"><path d="M0.0078125 0.682373H10.8825V11.679H0.0078125V0.682373ZM11.7872 0.682373H22.6619V11.679H11.7872V0.682373ZM23.5666 0.682373H34.4413V11.679H23.5666V0.682373ZM35.3459 0.682373H46.2206V11.679H35.3459V0.682373ZM47.1276 0.682373H58V11.679H47.1253V0.682373H47.1276Z" fill="#00B67A"></path><path d="M47.127 0.682373H57.9993V11.679H52.3476V0.682373H47.127Z" fill="#00B67A"></path><path d="M5.44479 8.09194L7.09873 7.66737L7.79 9.82071L5.44479 8.09194ZM9.24908 5.30996H6.33787L5.44479 2.53735L4.54939 5.30996H1.63818L3.99499 7.027L3.09959 9.7996L5.45639 8.08256L6.90619 7.02935L9.24908 5.30996ZM17.2242 8.09194L18.8781 7.66737L19.5694 9.82071L17.2242 8.09194ZM21.0308 5.30996H18.1196L17.2242 2.53735L16.3288 5.30996H13.4176L15.7744 7.027L14.879 9.7996L17.2358 8.08256L18.6856 7.02935L21.0308 5.30996ZM29.0035 8.09194L30.6575 7.66737L31.3487 9.82071L29.0035 8.09194ZM32.8101 5.30996H29.8989L29.0035 2.53735L28.1081 5.30996H25.1969L27.5537 7.027L26.6583 9.7996L29.0151 8.08256L30.4649 7.02935L32.8101 5.30996ZM40.7829 8.09194L42.4368 7.66737L43.1281 9.82071L40.7829 8.09194ZM44.5895 5.30996H41.6783L40.7829 2.53735L39.8875 5.30996H36.9763L39.3331 7.027L38.4377 9.7996L40.7945 8.08256L42.2443 7.02935L44.5895 5.30996ZM52.5623 8.09194L54.2162 7.66737L54.9075 9.82071L52.5623 8.09194ZM56.3689 5.30996H53.4577L52.5623 2.53735L51.6669 5.30996H48.7557L51.1125 7.027L50.2171 9.7996L52.5739 8.08256L54.0237 7.02935L56.3689 5.30996Z" fill="white"></path></svg> 