<?xml version="1.0" encoding="UTF-8"?> <svg xmlns="http://www.w3.org/2000/svg" width="124" height="30" viewBox="0 0 124 30" fill="none"><g clip-path="url(#clip0_17_493)"><rect x="6.48828" y="5.91264" width="50.1635" height="19.8971" fill="black"></rect><path d="M18.5717 11.5117C14.4379 11.5117 12.5009 12.7976 12.5009 14.8818C12.5009 16.9661 14.4354 18.3401 18.5717 18.3401C22.708 18.3401 24.6425 17.0102 24.6425 14.8818C24.6425 12.7535 22.708 11.5117 18.5717 11.5117Z" fill="#B4E913"></path><path d="M45.0206 0.824144H17.9184C6.31637 0.824144 0.000137329 6.19521 0.000137329 15C0.000137329 23.8048 6.31637 29.1759 17.9184 29.1759H45.0206C56.6227 29.1759 62.9389 23.8024 62.9389 15C62.9389 6.19766 56.6227 0.824144 45.0206 0.824144ZM18.572 23.1692C11.0941 23.1692 6.87276 20.3331 6.87276 14.8346C6.87276 9.33623 11.5802 6.81112 18.572 6.81112C25.5639 6.81112 30.2713 9.5591 30.2713 14.8346C30.2713 20.1102 26.0475 23.1692 18.572 23.1692ZM54.7221 22.5055C54.7221 22.7725 54.5471 22.9488 54.2822 22.9488H49.4435C49.1786 22.9488 49.0037 22.7725 49.0037 22.5055V16.2111C49.0037 13.2843 48.8287 12.0009 46.0558 12.0009C44.5174 12.0009 41.7007 12.3561 39.4576 12.9757C39.2389 13.0198 39.149 13.2427 39.149 13.4631V22.5055C39.149 22.7725 38.974 22.9488 38.7091 22.9488H33.8705C33.6056 22.9488 33.4306 22.7725 33.4306 22.5055V7.96468C33.4306 7.69772 33.6056 7.52138 33.8705 7.52138H37.7856C38.0505 7.52138 38.2255 7.65364 38.2692 7.87651L38.7091 9.64972C38.7966 9.96077 39.0178 10.0049 39.2802 9.8726C42.3156 8.41043 46.362 7.03644 49.3536 7.03644C53.6649 7.03644 54.7196 9.25295 54.7196 14.1734V22.5079L54.7221 22.5055Z" fill="#B4E913"></path><path d="M65.0082 14.4943H69.3243C69.5989 14.4943 69.7836 14.6805 69.7836 14.9572V22.9146C69.7836 23.1914 69.9683 23.3775 70.2429 23.3775H75.5214C75.7961 23.3775 75.9808 23.1914 75.9808 22.9146V14.9572C75.9808 14.6805 76.1655 14.4943 76.4401 14.4943H88.7906C89.0652 14.4943 89.25 14.3082 89.25 14.0314V10.0515C89.25 9.77475 89.0652 9.58861 88.7906 9.58861H76.4401C76.1655 9.58861 75.9808 9.40247 75.9808 9.12571C75.9808 7.18351 76.6223 6.53448 78.9189 6.53448C82.6834 6.53448 85.3008 6.7647 87.4127 6.99737C87.6873 7.04391 87.8258 6.81124 87.872 6.53448L88.3313 3.75955C88.3775 3.48279 88.1466 3.38973 87.872 3.29666C84.2922 2.23371 81.0308 0.982178 76.4401 0.982178C72.3548 0.982178 69.7836 3.85017 69.7836 7.78356V9.12571C69.7836 9.40247 69.5989 9.58861 69.3243 9.58861H65.0082C64.7335 9.58861 64.5488 9.77475 64.5488 10.0515V14.0314C64.5488 14.3082 64.7335 14.4943 65.0082 14.4943Z" fill="black"></path><path d="M97.6929 9.59155H92.4144C92.1607 9.59155 91.9551 9.7988 91.9551 10.0544V22.9176C91.9551 23.1732 92.1607 23.3805 92.4144 23.3805H97.6929C97.9466 23.3805 98.1522 23.1732 98.1522 22.9176V10.0544C98.1522 9.7988 97.9466 9.59155 97.6929 9.59155Z" fill="black"></path><path d="M95.0777 7.40144C97.2357 7.40144 98.796 5.82906 98.796 3.65418C98.796 1.47931 97.2357 0 95.0777 0C92.9196 0 91.3594 1.57238 91.3594 3.65418C91.3594 5.73599 92.9196 7.40144 95.0777 7.40144Z" fill="black"></path><path d="M101.733 23.3772H107.012C107.286 23.3772 107.471 23.1911 107.471 22.9143V13.4776C107.471 13.2474 107.563 13.0147 107.792 12.9682C110.132 12.3216 113.07 11.9493 114.679 11.9493C117.571 11.9493 117.756 13.2915 117.756 16.3456V22.9168C117.756 23.1935 117.941 23.3797 118.215 23.3797H123.54C123.815 23.3797 123.999 23.1935 123.999 22.9168V14.2173C123.999 9.08132 122.898 6.76929 118.123 6.76929C115 6.76929 110.776 8.20451 107.61 9.73035C107.335 9.86996 107.104 9.82342 107.012 9.50013L106.552 7.64854C106.506 7.41832 106.324 7.27872 106.047 7.27872H101.731C101.456 7.27872 101.271 7.46486 101.271 7.74161V22.9168C101.271 23.1935 101.456 23.3797 101.731 23.3797L101.733 23.3772Z" fill="black"></path></g><defs><clipPath id="clip0_17_493"><rect width="123.999" height="30" fill="white"></rect></clipPath></defs></svg> 