<?xml version="1.0" encoding="UTF-8"?> <svg xmlns="http://www.w3.org/2000/svg" width="44" height="44" viewBox="0 0 44 44" fill="none"><path d="M29.3333 38.5V34.8333C29.3333 32.8884 28.5607 31.0232 27.1854 29.6479C25.8102 28.2726 23.9449 27.5 22 27.5H9.16665C7.22173 27.5 5.35646 28.2726 3.9812 29.6479C2.60593 31.0232 1.83331 32.8884 1.83331 34.8333V38.5M22.9166 12.8333C22.9166 16.8834 19.6334 20.1667 15.5833 20.1667C11.5332 20.1667 8.24998 16.8834 8.24998 12.8333C8.24998 8.78325 11.5332 5.5 15.5833 5.5C19.6334 5.5 22.9166 8.78325 22.9166 12.8333Z" stroke="#B4E913" stroke-width="3.3" stroke-linecap="round" stroke-linejoin="round"></path><path d="M35.75 12.8334C35.75 16.3772 32.8771 19.25 29.3333 19.25C32.8771 19.25 35.75 22.1229 35.75 25.6667C35.75 22.1229 38.6228 19.25 42.1666 19.25C38.6228 19.25 35.75 16.3772 35.75 12.8334Z" stroke="#B4E913" stroke-width="2.38333" stroke-linecap="round" stroke-linejoin="round"></path></svg> 