<?xml version="1.0" encoding="UTF-8"?> <svg xmlns="http://www.w3.org/2000/svg" width="18" height="18" viewBox="0 0 18 18" fill="none"><g clip-path="url(#clip0_478_50785)"><path fill-rule="evenodd" clip-rule="evenodd" d="M9 18C13.9706 18 18 13.9706 18 9C18 4.02944 13.9706 0 9 0C4.02944 0 0 4.02944 0 9C0 13.9706 4.02944 18 9 18Z" fill="white"></path><path fill-rule="evenodd" clip-rule="evenodd" d="M3.93213 15.5771H13.9224L7.38623 8.9502L14.1685 8.95898L3.93506 2.41992L3.93213 15.5771Z" fill="#CE0000"></path><path fill-rule="evenodd" clip-rule="evenodd" d="M3.75304 2.25L14.7922 9.22023L7.82161 9.21131L14.3572 15.7591H3.75L3.75304 2.25ZM4.11676 2.90634L4.11395 15.3995H13.4872L6.95054 8.85064L13.5444 8.85909L4.11676 2.90634Z" fill="#000063"></path><path fill-rule="evenodd" clip-rule="evenodd" d="M8.52588 12.0527L7.81396 12.29L8.37353 12.8115L7.62353 12.7646L7.93115 13.4561L7.25732 13.1309L7.27197 13.8867L6.77685 13.3359L6.49268 14.0361L6.25244 13.3418L5.71631 13.8867L5.76318 13.1543L5.0542 13.4561L5.38525 12.7969L4.61475 12.8115L5.18018 12.3311L4.4624 12.0527L5.17139 11.8154L4.61182 11.2939L5.35889 11.3408L5.0542 10.6494L5.72803 10.9746L5.71631 10.2217L6.21143 10.7725L6.49268 10.0693L6.73291 10.7637L7.27197 10.2217L7.22217 10.9512L7.93408 10.6494L7.59717 11.3086L8.37353 11.2939L7.8081 11.7773L8.52588 12.0527ZM7.67334 7.18359L7.37451 7.40332L7.521 7.52637C7.86963 7.2832 8.14795 6.95801 8.33252 6.57715C8.37939 7.13965 7.86377 8.39648 6.51904 8.4082C6.27588 8.41113 6.02979 8.36719 5.80127 8.27637C5.57568 8.18262 5.36768 8.04785 5.19189 7.875C5.01611 7.70215 4.87549 7.49707 4.78174 7.27148C4.68506 7.0459 4.63525 6.80273 4.63525 6.55664C4.89893 7.03418 5.06299 7.26855 5.479 7.51758L5.60205 7.40332L5.32373 7.16895L5.68408 7.07227L5.48779 6.74707L5.86865 6.77051L5.82178 6.39258L6.15283 6.58887L6.2583 6.23145L6.4956 6.51562L6.72119 6.24316L6.84131 6.6123L7.15185 6.39844L7.11377 6.77344L7.48877 6.72949L7.31006 7.07812L7.67334 7.18359Z" fill="white"></path><path fill-rule="evenodd" clip-rule="evenodd" d="M9 17.475C13.6806 17.475 17.475 13.6806 17.475 9C17.475 4.31939 13.6806 0.525 9 0.525C4.31939 0.525 0.525 4.31939 0.525 9C0.525 13.6806 4.31939 17.475 9 17.475ZM9 18C13.9706 18 18 13.9706 18 9C18 4.02944 13.9706 0 9 0C4.02944 0 0 4.02944 0 9C0 13.9706 4.02944 18 9 18Z" fill="#D9D9D9"></path></g><defs><clipPath id="clip0_478_50785"><rect width="18" height="18" fill="white"></rect></clipPath></defs></svg> 