<?xml version="1.0" encoding="UTF-8"?> <svg xmlns="http://www.w3.org/2000/svg" width="24" height="25" viewBox="0 0 24 25" fill="none"><path d="M6 6.9751V2.9751" stroke="#9FCE10" stroke-linecap="round" stroke-linejoin="round"></path><path d="M15 6.9751V2.9751" stroke="#9FCE10" stroke-linecap="round" stroke-linejoin="round"></path><circle cx="6" cy="10.9751" r="1" fill="#9FCE10"></circle><circle cx="9" cy="10.9751" r="1" fill="#9FCE10"></circle><circle cx="12" cy="10.9751" r="1" fill="#9FCE10"></circle><circle cx="15" cy="10.9751" r="1" fill="#9FCE10"></circle><circle cx="6" cy="13.9751" r="1" fill="#9FCE10"></circle><circle cx="9" cy="13.9751" r="1" fill="#9FCE10"></circle><circle cx="12" cy="13.9751" r="1" fill="#9FCE10"></circle><circle cx="15" cy="13.9751" r="1" fill="#9FCE10"></circle><circle cx="6" cy="16.9751" r="1" fill="#9FCE10"></circle><circle cx="9" cy="16.9751" r="1" fill="#9FCE10"></circle><circle cx="12" cy="16.9751" r="1" fill="#9FCE10"></circle><path d="M12 10.9751H15" stroke="#9FCE10" stroke-linecap="round" stroke-linejoin="round"></path><path d="M6 13.9751H12" stroke="#9FCE10" stroke-linecap="round" stroke-linejoin="round"></path><circle cx="17" cy="18.9751" r="4.5" stroke="#9FCE10"></circle><path fill-rule="evenodd" clip-rule="evenodd" d="M5 5.9751H16C17.1046 5.9751 18 6.87053 18 7.9751V14.0751C18.3478 14.1457 18.6825 14.2524 19 14.3911V7.9751C19 6.31824 17.6569 4.9751 16 4.9751H5C3.34315 4.9751 2 6.31824 2 7.9751V17.9751C2 19.632 3.34315 20.9751 5 20.9751H12.416C12.2773 20.6576 12.1706 20.3229 12.1 19.9751H5C3.89543 19.9751 3 19.0797 3 17.9751V7.9751C3 6.87053 3.89543 5.9751 5 5.9751Z" fill="#9FCE10"></path><path d="M16.6706 17.445H17.1698C17.3932 17.445 17.5751 17.6268 17.5751 17.8503C17.5751 18.1058 17.7822 18.313 18.0378 18.313C18.2933 18.313 18.5005 18.1058 18.5005 17.8503C18.5005 17.1891 18.0157 16.6392 17.3829 16.5369V16.4378C17.3829 16.1823 17.1758 15.9751 16.9202 15.9751C16.6647 15.9751 16.4575 16.1823 16.4575 16.4378V16.5369C15.8247 16.6392 15.3398 17.1891 15.3398 17.8503V18.1071C15.3398 18.8409 15.9368 19.4379 16.6706 19.4379H17.1698C17.3932 19.4379 17.5751 19.6197 17.5751 19.8431V20.0999C17.5751 20.3234 17.3932 20.5052 17.1698 20.5052H16.6706C16.4471 20.5052 16.2653 20.3234 16.2653 20.0999V20.076C16.2653 19.8204 16.0581 19.6132 15.8026 19.6132C15.547 19.6132 15.3398 19.8204 15.3398 20.076V20.0999C15.3398 20.7611 15.8247 21.3111 16.4575 21.4134V21.5124C16.4575 21.7679 16.6647 21.9751 16.9202 21.9751C17.1758 21.9751 17.3829 21.7679 17.3829 21.5124V21.4134C18.0157 21.311 18.5005 20.7611 18.5005 20.0999V19.8431C18.5005 19.1094 17.9035 18.5124 17.1698 18.5124H16.6706C16.4471 18.5124 16.2653 18.3306 16.2653 18.1071V17.8503C16.2653 17.6268 16.4471 17.445 16.6706 17.445Z" fill="#9FCE10" stroke="#9FCE10" stroke-width="0.134088"></path></svg> 