<?xml version="1.0" encoding="UTF-8"?> <svg xmlns="http://www.w3.org/2000/svg" width="24" height="24" viewBox="0 0 24 24" fill="none"><g clip-path="url(#clip0_2082_24)"><mask id="mask0_2082_24" style="mask-type:luminance" maskUnits="userSpaceOnUse" x="0" y="0" width="24" height="24"><path d="M24 0H0V24H24V0Z" fill="white"></path></mask><g mask="url(#mask0_2082_24)"><path fill-rule="evenodd" clip-rule="evenodd" d="M12 24C18.6274 24 24 18.6274 24 12C24 5.37258 18.6274 0 12 0C5.37258 0 0 5.37258 0 12C0 18.6274 5.37258 24 12 24Z" fill="white"></path><path fill-rule="evenodd" clip-rule="evenodd" d="M7.99875 23.3167C3.33863 21.669 0 17.2244 0 12C0 6.77555 3.33863 2.33093 7.99875 0.683228V23.3167Z" fill="#009246"></path><path fill-rule="evenodd" clip-rule="evenodd" d="M23.9997 11.9726V12.0273C23.9881 17.2399 20.653 21.6719 16.001 23.3167V0.683228C20.653 2.32804 23.9881 6.76004 23.9997 11.9726Z" fill="#CE2B37"></path><g clip-path="url(#clip1_2082_24)"><path d="M12 24C18.6274 24 24 18.6274 24 12C24 5.37258 18.6274 0 12 0C5.37258 0 0 5.37258 0 12C0 18.6274 5.37258 24 12 24Z" fill="#F0F0F0"></path><path d="M23.2536 7.82613H10.4348V4.69568H4.17389V7.82613H0.746391C0.264047 9.12607 0 10.5322 0 12C0 13.4679 0.264047 14.8739 0.746391 16.1739L12 17.2174L23.2536 16.1739C23.736 14.8739 24 13.4679 24 12C24 10.5322 23.736 9.12607 23.2536 7.82613Z" fill="#0052B4"></path><path d="M12.0002 24.0001C17.1598 24.0001 21.5583 20.7436 23.2538 16.174H0.746582C2.4421 20.7436 6.84061 24.0001 12.0002 24.0001Z" fill="#D80027"></path><path d="M4.17383 7.82616V8.8696C4.17383 11.2659 7.30428 12.0001 7.30428 12.0001C7.30428 12.0001 10.4347 11.2659 10.4347 8.8696V7.82616L9.39125 8.86965L7.30428 7.30444L5.21731 8.86965L4.17383 7.82616Z" fill="#F0F0F0"></path></g><path fill-rule="evenodd" clip-rule="evenodd" d="M12 23.3C18.2408 23.3 23.3 18.2408 23.3 12C23.3 5.75918 18.2408 0.7 12 0.7C5.75918 0.7 0.7 5.75918 0.7 12C0.7 18.2408 5.75918 23.3 12 23.3ZM12 24C18.6274 24 24 18.6274 24 12C24 5.37258 18.6274 0 12 0C5.37258 0 0 5.37258 0 12C0 18.6274 5.37258 24 12 24Z" fill="#D9D9D9"></path></g></g><defs><clipPath id="clip0_2082_24"><rect width="24" height="24" fill="white"></rect></clipPath><clipPath id="clip1_2082_24"><rect width="24" height="24" fill="white"></rect></clipPath></defs></svg> 