<?xml version="1.0" encoding="UTF-8"?> <svg xmlns="http://www.w3.org/2000/svg" width="236" height="49" viewBox="0 0 236 49" fill="none"><path d="M28.3641 33.6952C28.3641 38.3953 26.8762 42.0538 23.9092 44.7058C20.9421 47.314 16.811 48.6006 11.5157 48.6006C9.29262 48.6006 7.20079 48.3643 5.22274 47.8304C3.23594 47.2877 1.53797 46.5525 0.111328 45.5547V34.4304C1.79179 35.5595 3.74358 36.4785 5.93169 37.2487C8.1198 38.0014 10.1066 38.3953 11.8746 38.3953C13.3712 38.3953 14.5003 38.0714 15.2705 37.4237C16.032 36.7761 16.4171 35.8133 16.4171 34.623C16.4171 34.0716 16.2946 33.5114 16.0582 33.0125C15.8044 32.4961 15.4631 31.9972 15.0255 31.5071C14.5791 30.9907 13.3888 29.8967 11.4545 28.2162C9.09131 26.2119 7.37584 24.1726 6.30804 22.107C5.24025 20.0239 4.70635 17.7483 4.70635 15.2626C4.70635 12.4793 5.36278 9.97614 6.6844 7.76178C8.00601 5.54742 9.87028 3.84069 12.2859 2.6066C14.6929 1.38126 17.3886 0.777344 20.3819 0.777344C25.1958 0.777344 29.5282 1.91516 33.3793 4.19954L29.2832 13.6522C25.8347 11.7704 22.9026 10.8514 20.487 10.8514C19.2004 10.8514 18.2026 11.149 17.5024 11.7441C16.8197 12.3305 16.4696 13.197 16.4696 14.3348C16.4696 15.3764 16.811 16.3479 17.4849 17.2494C18.1588 18.1597 19.4454 19.3587 21.336 20.8642C23.7079 22.7109 25.4759 24.6715 26.6224 26.6933C27.7865 28.7238 28.3641 31.0432 28.3641 33.6952Z" fill="#F25822"></path><path d="M49.2294 47.9877H37.4049L44.5644 11.7177H34.9805L37.0635 1.43359H68.1522L66.0166 11.7177H56.3977L49.2294 47.9877Z" fill="#F25822"></path><path d="M62.8965 47.9868L72.2353 1.44141H84.2436L74.8961 47.9868H62.8965Z" fill="#F25822"></path><path d="M108.113 11.0846C105.924 11.0846 103.955 11.9073 102.205 13.5528C100.454 15.207 99.08 17.4914 98.0735 20.3972C97.0757 23.3117 96.5768 26.4538 96.5768 29.8585C96.5768 32.7118 97.137 34.8299 98.266 36.2478C99.3951 37.6132 101.014 38.3134 103.132 38.3134C104.787 38.3134 106.511 38.1296 108.209 37.7007C109.933 37.2368 111.946 36.4841 114.248 35.4601V45.7704C110.152 47.6872 105.706 48.5887 100.936 48.5887C95.7016 48.5887 91.6405 47.0133 88.8309 43.9062C86.0039 40.7641 84.6035 36.3091 84.6035 30.5325C84.6035 24.8697 85.6188 19.697 87.6756 14.9882C89.7149 10.2794 92.507 6.74338 96.0167 4.32772C99.5352 1.92955 103.561 0.730469 108.104 0.730469C113.443 0.730469 118.292 2.1221 122.65 4.92288L118.178 14.6118C116.305 13.4477 114.581 12.59 113.005 11.9861C111.43 11.3734 109.81 11.0846 108.113 11.0846Z" fill="#F25822"></path><path d="M155.827 15.384C155.827 20.7317 154.112 24.9504 150.646 27.97C147.18 31.0246 142.445 32.53 136.441 32.53H133.841L130.804 47.9868H118.971L128.301 1.44141H139.583C144.817 1.44141 148.834 2.64924 151.6 5.05616C154.444 7.46307 155.827 10.9115 155.827 15.384ZM135.968 22.3509H137.885C139.714 22.3509 141.202 21.747 142.331 20.4867C143.46 19.2438 144.02 17.6859 144.02 15.7604C144.02 14.5088 143.644 13.5022 142.926 12.732C142.208 11.9706 141.219 11.5855 139.933 11.5855H138.139L135.968 22.3509Z" fill="#F25822"></path><path d="M180.075 39.2694H166.518L162.728 47.9868H150.475L172.951 1.44141H188.163L191.874 47.9868H180.373L180.075 39.2694ZM170.841 29.3354H179.699L179.174 15.8391L179.121 13.0996C179.121 11.5067 179.156 10.1151 179.253 8.92473C178.762 10.7452 178.159 12.4957 177.397 14.2112L170.841 29.3354Z" fill="#F25822"></path><path d="M213.373 18.6846L222.808 1.43359H235.989L217.496 29.9052L213.828 47.9877H201.977L205.618 29.9227L198.459 1.4511H210.651L213.373 18.6846Z" fill="#F25822"></path></svg> 