<?xml version="1.0" encoding="UTF-8"?> <svg xmlns="http://www.w3.org/2000/svg" width="24" height="25" viewBox="0 0 24 25" fill="none"><g clip-path="url(#clip0_494_16371)"><path d="M19.9997 12.7559C19.9997 14.5359 19.4719 16.2759 18.4829 17.756C17.494 19.236 16.0884 20.3896 14.4439 21.0708C12.7993 21.752 10.9897 21.9302 9.24389 21.5829C7.49806 21.2357 5.89441 20.3785 4.63574 19.1198" stroke="#9FCE10"></path><path d="M22.8852 15.8667L20.2079 12.2765L16.362 14.5715" stroke="#9FCE10"></path><path d="M2.47002 12.7559C2.47002 10.9758 2.99786 9.23577 3.9868 7.75573C4.97573 6.27568 6.38134 5.12213 8.02587 4.44094C9.67041 3.75975 11.48 3.58152 13.2258 3.92879C14.9717 4.27606 16.5753 5.13323 17.834 6.3919" stroke="#9FCE10"></path><path d="M-0.41545 9.64501L2.26186 13.2352L6.10771 10.9403" stroke="#9FCE10"></path></g><defs><clipPath id="clip0_494_16371"><rect width="24" height="24" fill="white" transform="translate(0 0.755859)"></rect></clipPath></defs></svg> 