<?xml version="1.0" encoding="UTF-8"?> <svg xmlns="http://www.w3.org/2000/svg" width="127" height="172" viewBox="0 0 127 172" fill="none"><rect x="0.710938" width="126.289" height="171.392" rx="4.3299" fill="white"></rect><rect x="112.598" y="10.1348" width="7.2165" height="0.360825" rx="0.180413" transform="rotate(45 112.598 10.1348)" fill="#1B1B1B"></rect><rect width="7.2165" height="0.360825" rx="0.180413" transform="matrix(-0.707107 0.707107 0.707107 0.707107 117.287 10.1348)" fill="#1B1B1B"></rect><path d="M38.0766 31.0671C37.6869 31.0671 37.3237 31.0045 36.9869 30.8794C36.6549 30.7495 36.3663 30.5667 36.1209 30.331C35.8755 30.0952 35.6831 29.8186 35.5436 29.5011C35.4089 29.1836 35.3415 28.8348 35.3415 28.4547C35.3415 28.0746 35.4089 27.7258 35.5436 27.4083C35.6831 27.0908 35.8755 26.8141 36.1209 26.5784C36.3711 26.3427 36.6621 26.1623 36.9941 26.0372C37.3261 25.9073 37.6893 25.8423 38.0838 25.8423C38.5216 25.8423 38.9161 25.9193 39.2673 26.0732C39.6233 26.2224 39.9216 26.4437 40.1621 26.7372L39.4116 27.43C39.2384 27.2327 39.046 27.086 38.8343 26.9897C38.6226 26.8887 38.3917 26.8382 38.1415 26.8382C37.9058 26.8382 37.6893 26.8767 37.492 26.9537C37.2948 27.0306 37.124 27.1413 36.9797 27.2856C36.8353 27.4299 36.7223 27.6007 36.6405 27.798C36.5635 27.9952 36.525 28.2141 36.525 28.4547C36.525 28.6952 36.5635 28.9141 36.6405 29.1114C36.7223 29.3086 36.8353 29.4794 36.9797 29.6238C37.124 29.7681 37.2948 29.8787 37.492 29.9557C37.6893 30.0327 37.9058 30.0712 38.1415 30.0712C38.3917 30.0712 38.6226 30.0231 38.8343 29.9269C39.046 29.8258 39.2384 29.6743 39.4116 29.4722L40.1621 30.165C39.9216 30.4585 39.6233 30.6822 39.2673 30.8361C38.9161 30.9901 38.5192 31.0671 38.0766 31.0671ZM42.5858 31.0382C42.172 31.0382 41.804 30.9516 41.4816 30.7784C41.1641 30.6052 40.9115 30.3695 40.7239 30.0712C40.5411 29.7681 40.4497 29.4241 40.4497 29.0392C40.4497 28.6495 40.5411 28.3056 40.7239 28.0073C40.9115 27.7042 41.1641 27.4684 41.4816 27.3001C41.804 27.1269 42.172 27.0403 42.5858 27.0403C42.9947 27.0403 43.3603 27.1269 43.6827 27.3001C44.005 27.4684 44.2576 27.7018 44.4404 28.0001C44.6232 28.2983 44.7146 28.6447 44.7146 29.0392C44.7146 29.4241 44.6232 29.7681 44.4404 30.0712C44.2576 30.3695 44.005 30.6052 43.6827 30.7784C43.3603 30.9516 42.9947 31.0382 42.5858 31.0382ZM42.5858 30.1145C42.7734 30.1145 42.9418 30.0712 43.0909 29.9846C43.2401 29.898 43.3579 29.7753 43.4445 29.6165C43.5311 29.453 43.5744 29.2605 43.5744 29.0392C43.5744 28.8131 43.5311 28.6207 43.4445 28.4619C43.3579 28.3031 43.2401 28.1805 43.0909 28.0939C42.9418 28.0073 42.7734 27.964 42.5858 27.964C42.3981 27.964 42.2298 28.0073 42.0806 28.0939C41.9315 28.1805 41.8112 28.3031 41.7198 28.4619C41.6332 28.6207 41.5899 28.8131 41.5899 29.0392C41.5899 29.2605 41.6332 29.453 41.7198 29.6165C41.8112 29.7753 41.9315 29.898 42.0806 29.9846C42.2298 30.0712 42.3981 30.1145 42.5858 30.1145ZM47.762 31.0382C47.4348 31.0382 47.1486 30.966 46.9032 30.8217C46.6578 30.6774 46.4654 30.4585 46.3259 30.165C46.1912 29.8667 46.1238 29.4915 46.1238 29.0392C46.1238 28.5822 46.1888 28.2069 46.3187 27.9135C46.4486 27.62 46.6362 27.4011 46.8816 27.2568C47.1269 27.1124 47.4204 27.0403 47.762 27.0403C48.1276 27.0403 48.4548 27.1245 48.7434 27.2928C49.0369 27.4564 49.2678 27.6873 49.4362 27.9856C49.6094 28.2839 49.696 28.6351 49.696 29.0392C49.696 29.4482 49.6094 29.8018 49.4362 30.1001C49.2678 30.3983 49.0369 30.6293 48.7434 30.7928C48.4548 30.9564 48.1276 31.0382 47.762 31.0382ZM45.4671 32.3805V27.098H46.5424V27.8918L46.5207 29.0464L46.5929 30.1939V32.3805H45.4671ZM47.5671 30.1145C47.7548 30.1145 47.9207 30.0712 48.0651 29.9846C48.2142 29.898 48.3321 29.7753 48.4187 29.6165C48.5101 29.453 48.5558 29.2605 48.5558 29.0392C48.5558 28.8131 48.5101 28.6207 48.4187 28.4619C48.3321 28.3031 48.2142 28.1805 48.0651 28.0939C47.9207 28.0073 47.7548 27.964 47.5671 27.964C47.3795 27.964 47.2111 28.0073 47.062 28.0939C46.9128 28.1805 46.795 28.3031 46.7084 28.4619C46.6218 28.6207 46.5785 28.8131 46.5785 29.0392C46.5785 29.2605 46.6218 29.453 46.7084 29.6165C46.795 29.7753 46.9128 29.898 47.062 29.9846C47.2111 30.0712 47.3795 30.1145 47.5671 30.1145ZM50.8346 32.4382C50.6326 32.4382 50.4329 32.4069 50.2357 32.3444C50.0384 32.2818 49.8772 32.1952 49.7521 32.0846L50.1635 31.2836C50.2501 31.3605 50.3487 31.4207 50.4594 31.464C50.5748 31.5073 50.6879 31.5289 50.7985 31.5289C50.9573 31.5289 51.0824 31.4904 51.1738 31.4135C51.27 31.3413 51.3566 31.2186 51.4336 31.0454L51.6357 30.5691L51.7223 30.4464L53.115 27.098H54.1975L52.4439 31.2186C52.3188 31.5313 52.1745 31.7767 52.0109 31.9547C51.8521 32.1327 51.6741 32.2578 51.4769 32.33C51.2844 32.4021 51.0704 32.4382 50.8346 32.4382ZM51.4985 31.132L49.7666 27.098H50.9284L52.2707 30.3454L51.4985 31.132ZM58.4398 31.0671C58.0357 31.0671 57.6484 31.0141 57.2779 30.9083C56.9075 30.7977 56.6092 30.6557 56.3831 30.4825L56.78 29.6021C56.9965 29.7561 57.2515 29.8836 57.5449 29.9846C57.8432 30.0808 58.1439 30.1289 58.447 30.1289C58.6779 30.1289 58.8632 30.1073 59.0027 30.064C59.147 30.0159 59.2529 29.9509 59.3202 29.8691C59.3876 29.7873 59.4212 29.6935 59.4212 29.5877C59.4212 29.453 59.3683 29.3471 59.2625 29.2702C59.1566 29.1884 59.0171 29.1234 58.8439 29.0753C58.6707 29.0224 58.4783 28.9743 58.2666 28.931C58.0597 28.8829 57.8504 28.8251 57.6388 28.7578C57.4319 28.6904 57.2419 28.6038 57.0687 28.498C56.8955 28.3922 56.7535 28.2526 56.6429 28.0794C56.537 27.9062 56.4841 27.6849 56.4841 27.4155C56.4841 27.1269 56.5611 26.8647 56.7151 26.6289C56.8738 26.3884 57.1096 26.1983 57.4223 26.0588C57.7398 25.9145 58.1367 25.8423 58.613 25.8423C58.9305 25.8423 59.2432 25.8808 59.5511 25.9578C59.859 26.0299 60.1309 26.1406 60.3666 26.2897L60.0058 27.1774C59.77 27.0427 59.5343 26.944 59.2986 26.8815C59.0628 26.8141 58.8319 26.7805 58.6058 26.7805C58.3797 26.7805 58.1944 26.8069 58.0501 26.8598C57.9058 26.9128 57.8023 26.9825 57.7398 27.0691C57.6773 27.1509 57.646 27.2471 57.646 27.3578C57.646 27.4877 57.6989 27.5935 57.8047 27.6753C57.9106 27.7523 58.0501 27.8148 58.2233 27.8629C58.3965 27.9111 58.5865 27.9592 58.7934 28.0073C59.0051 28.0554 59.2144 28.1107 59.4212 28.1732C59.6329 28.2358 59.8254 28.32 59.9986 28.4258C60.1718 28.5317 60.3113 28.6712 60.4171 28.8444C60.5278 29.0176 60.5831 29.2365 60.5831 29.5011C60.5831 29.7849 60.5037 30.0447 60.345 30.2805C60.1862 30.5162 59.948 30.7062 59.6305 30.8506C59.3178 30.9949 58.9209 31.0671 58.4398 31.0671ZM62.8902 31.0382C62.4331 31.0382 62.0771 30.9227 61.8221 30.6918C61.5672 30.4561 61.4397 30.1073 61.4397 29.6454V26.2392H62.5654V29.631C62.5654 29.7946 62.6087 29.922 62.6953 30.0135C62.7819 30.1001 62.8998 30.1434 63.0489 30.1434C63.227 30.1434 63.3785 30.0952 63.5036 29.999L63.8067 30.7928C63.6912 30.8746 63.5517 30.9372 63.3881 30.9805C63.2294 31.019 63.0634 31.0382 62.8902 31.0382ZM60.8407 28.0506V27.1846H63.5324V28.0506H60.8407ZM64.4386 30.9805V27.098H65.5139V28.1949L65.3623 27.8774C65.4778 27.6031 65.663 27.3963 65.918 27.2568C66.173 27.1124 66.4833 27.0403 66.8489 27.0403V28.0794C66.8008 28.0746 66.7575 28.0722 66.719 28.0722C66.6806 28.0674 66.6397 28.065 66.5964 28.065C66.2885 28.065 66.0383 28.154 65.8458 28.332C65.6582 28.5052 65.5644 28.777 65.5644 29.1475V30.9805H64.4386ZM69.6461 30.9805V30.2227L69.5739 30.0568V28.7001C69.5739 28.4595 69.4993 28.2719 69.3502 28.1372C69.2059 28.0025 68.9821 27.9351 68.6791 27.9351C68.4722 27.9351 68.2677 27.9688 68.0657 28.0361C67.8684 28.0987 67.7 28.1853 67.5605 28.2959L67.1564 27.5093C67.3681 27.3602 67.623 27.2447 67.9213 27.1629C68.2196 27.0812 68.5227 27.0403 68.8306 27.0403C69.4224 27.0403 69.8818 27.1798 70.209 27.4588C70.5361 27.7379 70.6997 28.1732 70.6997 28.765V30.9805H69.6461ZM68.4626 31.0382C68.1595 31.0382 67.8997 30.9877 67.6832 30.8867C67.4667 30.7808 67.3007 30.6389 67.1852 30.4609C67.0698 30.2829 67.012 30.0832 67.012 29.8619C67.012 29.631 67.0674 29.4289 67.178 29.2557C67.2935 29.0825 67.4739 28.9478 67.7193 28.8516C67.9646 28.7506 68.2846 28.7001 68.6791 28.7001H69.711V29.3568H68.8017C68.5371 29.3568 68.3543 29.4001 68.2533 29.4867C68.1571 29.5733 68.109 29.6815 68.109 29.8114C68.109 29.9557 68.1643 30.0712 68.2749 30.1578C68.3904 30.2396 68.5468 30.2805 68.744 30.2805C68.9316 30.2805 69.1 30.2372 69.2492 30.1506C69.3983 30.0592 69.5065 29.9269 69.5739 29.7537L69.7471 30.2733C69.6653 30.5234 69.5162 30.7135 69.2997 30.8434C69.0832 30.9733 68.8041 31.0382 68.4626 31.0382ZM73.3062 31.0382C72.8491 31.0382 72.4931 30.9227 72.2381 30.6918C71.9832 30.4561 71.8557 30.1073 71.8557 29.6454V26.2392H72.9814V29.631C72.9814 29.7946 73.0247 29.922 73.1113 30.0135C73.1979 30.1001 73.3158 30.1434 73.4649 30.1434C73.643 30.1434 73.7945 30.0952 73.9196 29.999L74.2227 30.7928C74.1072 30.8746 73.9677 30.9372 73.8041 30.9805C73.6454 31.019 73.4794 31.0382 73.3062 31.0382ZM71.2567 28.0506V27.1846H73.9485V28.0506H71.2567ZM76.6616 31.0382C76.219 31.0382 75.8293 30.9516 75.4926 30.7784C75.1606 30.6052 74.9032 30.3695 74.7204 30.0712C74.5376 29.7681 74.4462 29.4241 74.4462 29.0392C74.4462 28.6495 74.5352 28.3056 74.7132 28.0073C74.896 27.7042 75.1438 27.4684 75.4565 27.3001C75.7692 27.1269 76.1228 27.0403 76.5173 27.0403C76.8974 27.0403 77.239 27.122 77.542 27.2856C77.85 27.4444 78.0929 27.6753 78.2709 27.9784C78.4489 28.2767 78.5379 28.6351 78.5379 29.0537C78.5379 29.097 78.5355 29.1475 78.5307 29.2052C78.5259 29.2581 78.5211 29.3086 78.5163 29.3568H75.3627V28.7001H77.9245L77.4915 28.8949C77.4915 28.6928 77.4506 28.5172 77.3689 28.3681C77.2871 28.219 77.174 28.1035 77.0297 28.0217C76.8853 27.9351 76.717 27.8918 76.5245 27.8918C76.3321 27.8918 76.1613 27.9351 76.0121 28.0217C75.8678 28.1035 75.7548 28.2214 75.673 28.3753C75.5912 28.5245 75.5503 28.7025 75.5503 28.9093V29.0825C75.5503 29.2942 75.596 29.4818 75.6874 29.6454C75.7836 29.8042 75.9159 29.9269 76.0843 30.0135C76.2575 30.0952 76.4596 30.1361 76.6905 30.1361C76.8974 30.1361 77.0778 30.1049 77.2317 30.0423C77.3905 29.9798 77.5348 29.886 77.6647 29.7609L78.2637 30.4104C78.0857 30.6124 77.862 30.7688 77.5926 30.8794C77.3231 30.9853 77.0128 31.0382 76.6616 31.0382ZM81.1132 32.4382C80.7476 32.4382 80.394 32.3925 80.0524 32.3011C79.7156 32.2145 79.4342 32.0822 79.208 31.9042L79.6555 31.0959C79.819 31.2306 80.0259 31.3365 80.2761 31.4135C80.5311 31.4952 80.7812 31.5361 81.0266 31.5361C81.4259 31.5361 81.7146 31.4471 81.8926 31.2691C82.0754 31.0911 82.1668 30.8265 82.1668 30.4753V29.8908L82.239 28.9165L82.2245 27.9351V27.098H83.2926V30.331C83.2926 31.0526 83.105 31.5842 82.7297 31.9258C82.3544 32.2674 81.8156 32.4382 81.1132 32.4382ZM80.94 30.7928C80.5792 30.7928 80.252 30.7159 79.9586 30.5619C79.6699 30.4031 79.4366 30.1842 79.2586 29.9052C79.0854 29.6214 78.9988 29.2918 78.9988 28.9165C78.9988 28.5365 79.0854 28.2069 79.2586 27.9279C79.4366 27.644 79.6699 27.4251 79.9586 27.2712C80.252 27.1172 80.5792 27.0403 80.94 27.0403C81.2672 27.0403 81.5558 27.1076 81.806 27.2423C82.0562 27.3722 82.251 27.5767 82.3905 27.8557C82.53 28.13 82.5998 28.4836 82.5998 28.9165C82.5998 29.3447 82.53 29.6983 82.3905 29.9774C82.251 30.2516 82.0562 30.4561 81.806 30.5908C81.5558 30.7255 81.2672 30.7928 80.94 30.7928ZM81.1637 29.8691C81.361 29.8691 81.5366 29.8306 81.6905 29.7537C81.8445 29.6719 81.9647 29.5588 82.0513 29.4145C82.1379 29.2702 82.1812 29.1042 82.1812 28.9165C82.1812 28.7241 82.1379 28.5581 82.0513 28.4186C81.9647 28.2743 81.8445 28.1636 81.6905 28.0867C81.5366 28.0049 81.361 27.964 81.1637 27.964C80.9665 27.964 80.7909 28.0049 80.6369 28.0867C80.483 28.1636 80.3603 28.2743 80.2689 28.4186C80.1823 28.5581 80.139 28.7241 80.139 28.9165C80.139 29.1042 80.1823 29.2702 80.2689 29.4145C80.3603 29.5588 80.483 29.6719 80.6369 29.7537C80.7909 29.8306 80.9665 29.8691 81.1637 29.8691ZM84.8311 32.4382C84.629 32.4382 84.4294 32.4069 84.2321 32.3444C84.0349 32.2818 83.8737 32.1952 83.7486 32.0846L84.16 31.2836C84.2466 31.3605 84.3452 31.4207 84.4559 31.464C84.5713 31.5073 84.6844 31.5289 84.795 31.5289C84.9538 31.5289 85.0789 31.4904 85.1703 31.4135C85.2665 31.3413 85.3531 31.2186 85.4301 31.0454L85.6321 30.5691L85.7187 30.4464L87.1115 27.098H88.194L86.4404 31.2186C86.3153 31.5313 86.171 31.7767 86.0074 31.9547C85.8486 32.1327 85.6706 32.2578 85.4734 32.33C85.2809 32.4021 85.0669 32.4382 84.8311 32.4382ZM85.495 31.132L83.7631 27.098H84.9249L86.2672 30.3454L85.495 31.132ZM89.9676 29.2269C89.9676 29.0585 89.994 28.9093 90.0469 28.7794C90.1047 28.6495 90.1744 28.5341 90.2562 28.433C90.3428 28.332 90.4342 28.2382 90.5304 28.1516C90.6267 28.065 90.7157 27.9832 90.7975 27.9062C90.8841 27.8245 90.9538 27.7403 91.0067 27.6537C91.0645 27.5671 91.0933 27.4708 91.0933 27.365C91.0933 27.1918 91.0212 27.0523 90.8768 26.9464C90.7373 26.8406 90.5497 26.7877 90.314 26.7877C90.0878 26.7877 89.8858 26.8358 89.7078 26.932C89.5298 27.0234 89.383 27.1533 89.2676 27.3217L88.3944 26.8093C88.5868 26.5159 88.8538 26.2825 89.1954 26.1093C89.537 25.9313 89.9507 25.8423 90.4366 25.8423C90.7975 25.8423 91.115 25.8952 91.3892 26.0011C91.6634 26.1021 91.8775 26.2513 92.0315 26.4485C92.1902 26.6458 92.2696 26.8887 92.2696 27.1774C92.2696 27.365 92.2408 27.531 92.183 27.6753C92.1253 27.8196 92.0507 27.9447 91.9593 28.0506C91.8679 28.1564 91.7693 28.255 91.6634 28.3464C91.5624 28.4379 91.4662 28.5269 91.3748 28.6135C91.2834 28.7001 91.2064 28.7915 91.1439 28.8877C91.0861 28.9839 91.0573 29.097 91.0573 29.2269H89.9676ZM90.516 31.0382C90.314 31.0382 90.148 30.9733 90.0181 30.8434C89.8882 30.7135 89.8232 30.5595 89.8232 30.3815C89.8232 30.1987 89.8882 30.0471 90.0181 29.9269C90.148 29.8018 90.314 29.7392 90.516 29.7392C90.7229 29.7392 90.8889 29.8018 91.014 29.9269C91.1439 30.0471 91.2088 30.1987 91.2088 30.3815C91.2088 30.5595 91.1439 30.7135 91.014 30.8434C90.8889 30.9733 90.7229 31.0382 90.516 31.0382Z" fill="#1B1B1B"></path><path d="M21.9115 45.6753C21.6113 45.6753 21.3226 45.6272 21.0455 45.5309C20.7723 45.4309 20.5606 45.3039 20.4105 45.1499L20.5779 44.8208C20.7203 44.9594 20.9108 45.0768 21.1495 45.173C21.3919 45.2654 21.6459 45.3116 21.9115 45.3116C22.1655 45.3116 22.3714 45.2808 22.5292 45.2192C22.6909 45.1538 22.8083 45.0672 22.8814 44.9594C22.9584 44.8516 22.9969 44.7323 22.9969 44.6014C22.9969 44.4436 22.9507 44.3166 22.8583 44.2204C22.7698 44.1242 22.6524 44.0491 22.5062 43.9953C22.3599 43.9375 22.1982 43.8875 22.0212 43.8452C21.8442 43.8028 21.6671 43.7586 21.4901 43.7124C21.313 43.6623 21.1495 43.5969 20.9993 43.5161C20.8531 43.4353 20.7338 43.3294 20.6414 43.1986C20.5529 43.0639 20.5086 42.8887 20.5086 42.6732C20.5086 42.4731 20.5606 42.2902 20.6645 42.1247C20.7723 41.9554 20.9358 41.8207 21.1552 41.7206C21.3746 41.6167 21.6556 41.5647 21.9981 41.5647C22.2252 41.5647 22.4503 41.5975 22.6736 41.6629C22.8968 41.7245 23.0892 41.8111 23.2509 41.9227L23.1066 42.2633C22.9334 42.1478 22.7486 42.0632 22.5523 42.0093C22.3599 41.9554 22.1732 41.9285 21.9923 41.9285C21.7499 41.9285 21.5497 41.9612 21.3919 42.0266C21.2341 42.092 21.1167 42.1806 21.0398 42.2922C20.9666 42.3999 20.9301 42.5231 20.9301 42.6617C20.9301 42.8195 20.9743 42.9465 21.0629 43.0427C21.1552 43.1389 21.2745 43.214 21.4208 43.2678C21.5709 43.3217 21.7345 43.3698 21.9115 43.4122C22.0886 43.4545 22.2637 43.5007 22.4369 43.5507C22.6139 43.6008 22.7756 43.6662 22.9218 43.747C23.0719 43.824 23.1912 43.9279 23.2798 44.0588C23.3721 44.1896 23.4183 44.3609 23.4183 44.5726C23.4183 44.7689 23.3644 44.9517 23.2567 45.121C23.1489 45.2865 22.9834 45.4212 22.7602 45.5252C22.5408 45.6252 22.2579 45.6753 21.9115 45.6753ZM25.55 45.6695C25.2344 45.6695 24.9573 45.6041 24.7186 45.4732C24.48 45.3385 24.2933 45.1557 24.1586 44.9247C24.0239 44.69 23.9566 44.4225 23.9566 44.1223C23.9566 43.8221 24.0201 43.5565 24.1471 43.3256C24.278 43.0946 24.455 42.9138 24.6782 42.7829C24.9053 42.6482 25.1593 42.5808 25.4403 42.5808C25.7251 42.5808 25.9772 42.6463 26.1966 42.7771C26.4198 42.9041 26.5949 43.085 26.7219 43.3198C26.849 43.5507 26.9125 43.8182 26.9125 44.1223C26.9125 44.1415 26.9105 44.1627 26.9067 44.1858C26.9067 44.205 26.9067 44.2262 26.9067 44.2493H24.2683V43.9433H26.6873L26.5257 44.0645C26.5257 43.8452 26.4775 43.6508 26.3813 43.4814C26.289 43.3083 26.1619 43.1735 26.0003 43.0773C25.8386 42.9811 25.652 42.933 25.4403 42.933C25.2325 42.933 25.0458 42.9811 24.8803 43.0773C24.7148 43.1735 24.5859 43.3083 24.4935 43.4814C24.4011 43.6546 24.3549 43.8529 24.3549 44.0761V44.1396C24.3549 44.3705 24.405 44.5745 24.505 44.7516C24.609 44.9247 24.7514 45.0614 24.9323 45.1614C25.117 45.2577 25.3268 45.3058 25.5615 45.3058C25.7463 45.3058 25.9175 45.2731 26.0753 45.2076C26.237 45.1422 26.3756 45.0421 26.491 44.9074L26.7219 45.173C26.5872 45.3346 26.4179 45.4578 26.2139 45.5425C26.0138 45.6272 25.7925 45.6695 25.55 45.6695ZM27.7468 45.6406V41.3569H28.1567V45.6406H27.7468ZM30.5846 45.6695C30.269 45.6695 29.9919 45.6041 29.7533 45.4732C29.5147 45.3385 29.328 45.1557 29.1933 44.9247C29.0586 44.69 28.9912 44.4225 28.9912 44.1223C28.9912 43.8221 29.0547 43.5565 29.1817 43.3256C29.3126 43.0946 29.4896 42.9138 29.7129 42.7829C29.9399 42.6482 30.194 42.5808 30.4749 42.5808C30.7597 42.5808 31.0118 42.6463 31.2312 42.7771C31.4544 42.9041 31.6296 43.085 31.7566 43.3198C31.8836 43.5507 31.9471 43.8182 31.9471 44.1223C31.9471 44.1415 31.9452 44.1627 31.9413 44.1858C31.9413 44.205 31.9413 44.2262 31.9413 44.2493H29.303V43.9433H31.7219L31.5603 44.0645C31.5603 43.8452 31.5122 43.6508 31.416 43.4814C31.3236 43.3083 31.1966 43.1735 31.0349 43.0773C30.8733 42.9811 30.6866 42.933 30.4749 42.933C30.2671 42.933 30.0804 42.9811 29.9149 43.0773C29.7494 43.1735 29.6205 43.3083 29.5281 43.4814C29.4358 43.6546 29.3896 43.8529 29.3896 44.0761V44.1396C29.3896 44.3705 29.4396 44.5745 29.5397 44.7516C29.6436 44.9247 29.786 45.0614 29.9669 45.1614C30.1516 45.2577 30.3614 45.3058 30.5962 45.3058C30.7809 45.3058 30.9522 45.2731 31.11 45.2076C31.2716 45.1422 31.4102 45.0421 31.5257 44.9074L31.7566 45.173C31.6219 45.3346 31.4525 45.4578 31.2485 45.5425C31.0484 45.6272 30.8271 45.6695 30.5846 45.6695ZM34.04 45.6695C33.7398 45.6695 33.4703 45.6041 33.2317 45.4732C32.9969 45.3385 32.8122 45.1557 32.6775 44.9247C32.5428 44.69 32.4754 44.4225 32.4754 44.1223C32.4754 43.8182 32.5428 43.5507 32.6775 43.3198C32.8122 43.0889 32.9969 42.908 33.2317 42.7771C33.4703 42.6463 33.7398 42.5808 34.04 42.5808C34.2978 42.5808 34.5307 42.6309 34.7385 42.7309C34.9464 42.831 35.1099 42.9811 35.2292 43.1812L34.9233 43.3891C34.8194 43.2351 34.6904 43.1216 34.5365 43.0485C34.3825 42.9753 34.2151 42.9388 34.0342 42.9388C33.8187 42.9388 33.6243 42.9888 33.4511 43.0889C33.2779 43.1851 33.1413 43.3217 33.0412 43.4988C32.9411 43.6758 32.8911 43.8836 32.8911 44.1223C32.8911 44.3609 32.9411 44.5687 33.0412 44.7458C33.1413 44.9228 33.2779 45.0614 33.4511 45.1614C33.6243 45.2577 33.8187 45.3058 34.0342 45.3058C34.2151 45.3058 34.3825 45.2692 34.5365 45.1961C34.6904 45.123 34.8194 45.0113 34.9233 44.8612L35.2292 45.0691C35.1099 45.2654 34.9464 45.4155 34.7385 45.5194C34.5307 45.6195 34.2978 45.6695 34.04 45.6695ZM37.0267 45.6695C36.7418 45.6695 36.5225 45.5925 36.3685 45.4386C36.2146 45.2846 36.1376 45.0672 36.1376 44.7862V41.94H36.5475V44.7631C36.5475 44.9401 36.5917 45.0768 36.6803 45.173C36.7726 45.2692 36.9035 45.3173 37.0728 45.3173C37.2537 45.3173 37.4038 45.2654 37.5231 45.1614L37.6675 45.4559C37.5867 45.529 37.4885 45.5829 37.373 45.6175C37.2614 45.6522 37.146 45.6695 37.0267 45.6695ZM35.5949 42.9503V42.6097H37.4712V42.9503H35.5949ZM41.824 45.6406V44.9709L41.8067 44.8612V43.7412C41.8067 43.4834 41.7336 43.2852 41.5873 43.1466C41.4449 43.008 41.2313 42.9388 40.9465 42.9388C40.7502 42.9388 40.5635 42.9715 40.3865 43.0369C40.2094 43.1023 40.0593 43.1889 39.9362 43.2967L39.7514 42.9907C39.9054 42.8599 40.0901 42.7598 40.3057 42.6905C40.5212 42.6174 40.7483 42.5808 40.9869 42.5808C41.3795 42.5808 41.6816 42.679 41.8933 42.8753C42.1088 43.0677 42.2166 43.3621 42.2166 43.7586V45.6406H41.824ZM40.7791 45.6695C40.552 45.6695 40.3538 45.6329 40.1844 45.5598C40.0189 45.4828 39.8919 45.3789 39.8034 45.248C39.7149 45.1133 39.6706 44.9594 39.6706 44.7862C39.6706 44.6284 39.7072 44.486 39.7803 44.359C39.8573 44.2281 39.9804 44.1242 40.1498 44.0472C40.323 43.9664 40.5539 43.926 40.8426 43.926H41.8875V44.232H40.8541C40.5616 44.232 40.3576 44.2839 40.2421 44.3878C40.1305 44.4918 40.0747 44.6207 40.0747 44.7746C40.0747 44.9478 40.1421 45.0864 40.2768 45.1903C40.4115 45.2942 40.6001 45.3462 40.8426 45.3462C41.0735 45.3462 41.2717 45.2942 41.4372 45.1903C41.6065 45.0825 41.7297 44.9286 41.8067 44.7285L41.8991 45.0113C41.8221 45.2115 41.6874 45.3712 41.4949 45.4905C41.3063 45.6098 41.0677 45.6695 40.7791 45.6695ZM46.6825 45.6753C46.3785 45.6753 46.0975 45.6252 45.8396 45.5252C45.5818 45.4212 45.3585 45.2769 45.1699 45.0922C44.9813 44.9074 44.8332 44.69 44.7254 44.4398C44.6215 44.1896 44.5695 43.9164 44.5695 43.62C44.5695 43.3236 44.6215 43.0504 44.7254 42.8002C44.8332 42.55 44.9813 42.3326 45.1699 42.1478C45.3624 41.9631 45.5875 41.8207 45.8454 41.7206C46.1033 41.6167 46.3842 41.5647 46.6883 41.5647C46.9808 41.5647 47.256 41.6148 47.5139 41.7148C47.7717 41.8111 47.9892 41.9573 48.1662 42.1536L47.8949 42.425C47.7294 42.2556 47.5466 42.1344 47.3464 42.0612C47.1463 41.9843 46.9308 41.9458 46.6998 41.9458C46.4574 41.9458 46.2322 41.9881 46.0244 42.0728C45.8165 42.1536 45.6356 42.271 45.4817 42.425C45.3277 42.5751 45.2065 42.7521 45.118 42.9561C45.0333 43.1562 44.991 43.3775 44.991 43.62C44.991 43.8625 45.0333 44.0857 45.118 44.2897C45.2065 44.4898 45.3277 44.6669 45.4817 44.8208C45.6356 44.9709 45.8165 45.0883 46.0244 45.173C46.2322 45.2538 46.4574 45.2942 46.6998 45.2942C46.9308 45.2942 47.1463 45.2557 47.3464 45.1788C47.5466 45.1018 47.7294 44.9786 47.8949 44.8093L48.1662 45.0806C47.9892 45.2769 47.7717 45.4251 47.5139 45.5252C47.256 45.6252 46.9789 45.6753 46.6825 45.6753ZM50.0905 45.6695C49.798 45.6695 49.5344 45.6041 49.2996 45.4732C49.0686 45.3385 48.8858 45.1557 48.7511 44.9247C48.6164 44.69 48.5491 44.4225 48.5491 44.1223C48.5491 43.8182 48.6164 43.5507 48.7511 43.3198C48.8858 43.0889 49.0686 42.908 49.2996 42.7771C49.5305 42.6463 49.7941 42.5808 50.0905 42.5808C50.3907 42.5808 50.6563 42.6463 50.8872 42.7771C51.122 42.908 51.3048 43.0889 51.4357 43.3198C51.5704 43.5507 51.6377 43.8182 51.6377 44.1223C51.6377 44.4225 51.5704 44.69 51.4357 44.9247C51.3048 45.1557 51.122 45.3385 50.8872 45.4732C50.6524 45.6041 50.3869 45.6695 50.0905 45.6695ZM50.0905 45.3058C50.3099 45.3058 50.5043 45.2577 50.6736 45.1614C50.8429 45.0614 50.9757 44.9228 51.0719 44.7458C51.172 44.5649 51.2221 44.3571 51.2221 44.1223C51.2221 43.8836 51.172 43.6758 51.0719 43.4988C50.9757 43.3217 50.8429 43.1851 50.6736 43.0889C50.5043 42.9888 50.3118 42.9388 50.0963 42.9388C49.8807 42.9388 49.6883 42.9888 49.519 43.0889C49.3496 43.1851 49.2149 43.3217 49.1148 43.4988C49.0148 43.6758 48.9647 43.8836 48.9647 44.1223C48.9647 44.3571 49.0148 44.5649 49.1148 44.7458C49.2149 44.9228 49.3496 45.0614 49.519 45.1614C49.6883 45.2577 49.8788 45.3058 50.0905 45.3058ZM54.0391 45.6695C53.7774 45.6695 53.5407 45.6098 53.329 45.4905C53.1173 45.3674 52.948 45.1922 52.821 44.9652C52.6978 44.7342 52.6362 44.4533 52.6362 44.1223C52.6362 43.7913 52.6978 43.5122 52.821 43.2852C52.9441 43.0542 53.1115 42.8791 53.3232 42.7598C53.5349 42.6405 53.7735 42.5808 54.0391 42.5808C54.3278 42.5808 54.5856 42.6463 54.8127 42.7771C55.0436 42.9041 55.2245 43.085 55.3554 43.3198C55.4862 43.5507 55.5517 43.8182 55.5517 44.1223C55.5517 44.4302 55.4862 44.6996 55.3554 44.9305C55.2245 45.1614 55.0436 45.3423 54.8127 45.4732C54.5856 45.6041 54.3278 45.6695 54.0391 45.6695ZM52.4746 46.7606V42.6097H52.8671V43.5219L52.8267 44.128L52.8845 44.74V46.7606H52.4746ZM54.0102 45.3058C54.2258 45.3058 54.4182 45.2577 54.5876 45.1614C54.7569 45.0614 54.8916 44.9228 54.9917 44.7458C55.0917 44.5649 55.1418 44.3571 55.1418 44.1223C55.1418 43.8875 55.0917 43.6816 54.9917 43.5045C54.8916 43.3275 54.7569 43.1889 54.5876 43.0889C54.4182 42.9888 54.2258 42.9388 54.0102 42.9388C53.7947 42.9388 53.6003 42.9888 53.4271 43.0889C53.2578 43.1889 53.1231 43.3275 53.023 43.5045C52.9268 43.6816 52.8787 43.8875 52.8787 44.1223C52.8787 44.3571 52.9268 44.5649 53.023 44.7458C53.1231 44.9228 53.2578 45.0614 53.4271 45.1614C53.6003 45.2577 53.7947 45.3058 54.0102 45.3058ZM56.3258 46.7895C56.1834 46.7895 56.0467 46.7664 55.9159 46.7202C55.7889 46.674 55.6792 46.6047 55.5868 46.5124L55.7773 46.2064C55.8543 46.2795 55.9371 46.3353 56.0256 46.3738C56.1179 46.4162 56.2199 46.4373 56.3316 46.4373C56.4663 46.4373 56.5817 46.3988 56.6779 46.3219C56.778 46.2487 56.8723 46.1179 56.9608 45.9293L57.1571 45.4847L57.2033 45.4212L58.4503 42.6097H58.8544L57.3361 46.0043C57.2514 46.2006 57.1571 46.3565 57.0532 46.472C56.9531 46.5874 56.8434 46.6683 56.7241 46.7144C56.6048 46.7645 56.472 46.7895 56.3258 46.7895ZM57.134 45.7272L55.7369 42.6097H56.1641L57.3996 45.3924L57.134 45.7272ZM60.3827 45.6406L62.2301 41.5994H62.6515L64.499 45.6406H64.0487L62.3513 41.8476H62.5245L60.8272 45.6406H60.3827ZM61.1101 44.561L61.2371 44.2146H63.5868L63.7138 44.561H61.1101ZM66.3113 45.6695C66.011 45.6695 65.7416 45.6041 65.503 45.4732C65.2682 45.3385 65.0835 45.1557 64.9488 44.9247C64.8141 44.69 64.7467 44.4225 64.7467 44.1223C64.7467 43.8182 64.8141 43.5507 64.9488 43.3198C65.0835 43.0889 65.2682 42.908 65.503 42.7771C65.7416 42.6463 66.011 42.5808 66.3113 42.5808C66.5691 42.5808 66.802 42.6309 67.0098 42.7309C67.2176 42.831 67.3812 42.9811 67.5005 43.1812L67.1946 43.3891C67.0906 43.2351 66.9617 43.1216 66.8078 43.0485C66.6538 42.9753 66.4864 42.9388 66.3055 42.9388C66.09 42.9388 65.8956 42.9888 65.7224 43.0889C65.5492 43.1851 65.4126 43.3217 65.3125 43.4988C65.2124 43.6758 65.1624 43.8836 65.1624 44.1223C65.1624 44.3609 65.2124 44.5687 65.3125 44.7458C65.4126 44.9228 65.5492 45.0614 65.7224 45.1614C65.8956 45.2577 66.09 45.3058 66.3055 45.3058C66.4864 45.3058 66.6538 45.2692 66.8078 45.1961C66.9617 45.123 67.0906 45.0113 67.1946 44.8612L67.5005 45.0691C67.3812 45.2654 67.2176 45.4155 67.0098 45.5194C66.802 45.6195 66.5691 45.6695 66.3113 45.6695ZM69.5136 45.6695C69.2134 45.6695 68.944 45.6041 68.7053 45.4732C68.4706 45.3385 68.2858 45.1557 68.1511 44.9247C68.0164 44.69 67.949 44.4225 67.949 44.1223C67.949 43.8182 68.0164 43.5507 68.1511 43.3198C68.2858 43.0889 68.4706 42.908 68.7053 42.7771C68.944 42.6463 69.2134 42.5808 69.5136 42.5808C69.7714 42.5808 70.0043 42.6309 70.2121 42.7309C70.42 42.831 70.5835 42.9811 70.7029 43.1812L70.3969 43.3891C70.293 43.2351 70.164 43.1216 70.0101 43.0485C69.8561 42.9753 69.6887 42.9388 69.5078 42.9388C69.2923 42.9388 69.0979 42.9888 68.9247 43.0889C68.7515 43.1851 68.6149 43.3217 68.5148 43.4988C68.4147 43.6758 68.3647 43.8836 68.3647 44.1223C68.3647 44.3609 68.4147 44.5687 68.5148 44.7458C68.6149 44.9228 68.7515 45.0614 68.9247 45.1614C69.0979 45.2577 69.2923 45.3058 69.5078 45.3058C69.6887 45.3058 69.8561 45.2692 70.0101 45.1961C70.164 45.123 70.293 45.0113 70.3969 44.8612L70.7029 45.0691C70.5835 45.2654 70.42 45.4155 70.2121 45.5194C70.0043 45.6195 69.7714 45.6695 69.5136 45.6695ZM72.6928 45.6695C72.4003 45.6695 72.1367 45.6041 71.9019 45.4732C71.671 45.3385 71.4881 45.1557 71.3534 44.9247C71.2187 44.69 71.1514 44.4225 71.1514 44.1223C71.1514 43.8182 71.2187 43.5507 71.3534 43.3198C71.4881 43.0889 71.671 42.908 71.9019 42.7771C72.1328 42.6463 72.3964 42.5808 72.6928 42.5808C72.993 42.5808 73.2586 42.6463 73.4895 42.7771C73.7243 42.908 73.9071 43.0889 74.038 43.3198C74.1727 43.5507 74.24 43.8182 74.24 44.1223C74.24 44.4225 74.1727 44.69 74.038 44.9247C73.9071 45.1557 73.7243 45.3385 73.4895 45.4732C73.2547 45.6041 72.9892 45.6695 72.6928 45.6695ZM72.6928 45.3058C72.9122 45.3058 73.1066 45.2577 73.2759 45.1614C73.4452 45.0614 73.578 44.9228 73.6743 44.7458C73.7743 44.5649 73.8244 44.3571 73.8244 44.1223C73.8244 43.8836 73.7743 43.6758 73.6743 43.4988C73.578 43.3217 73.4452 43.1851 73.2759 43.0889C73.1066 42.9888 72.9141 42.9388 72.6986 42.9388C72.483 42.9388 72.2906 42.9888 72.1213 43.0889C71.9519 43.1851 71.8172 43.3217 71.7171 43.4988C71.6171 43.6758 71.567 43.8836 71.567 44.1223C71.567 44.3571 71.6171 44.5649 71.7171 44.7458C71.8172 44.9228 71.9519 45.0614 72.1213 45.1614C72.2906 45.2577 72.4811 45.3058 72.6928 45.3058ZM76.3297 45.6695C76.0718 45.6695 75.8466 45.6214 75.6542 45.5252C75.4617 45.4289 75.3116 45.2846 75.2039 45.0922C75.1 44.8997 75.048 44.6592 75.048 44.3705V42.6097H75.4579V44.3243C75.4579 44.6476 75.5368 44.892 75.6946 45.0575C75.8563 45.2192 76.0814 45.3 76.3701 45.3C76.5817 45.3 76.7646 45.2577 76.9185 45.173C77.0763 45.0845 77.1956 44.9575 77.2765 44.792C77.3611 44.6265 77.4035 44.4283 77.4035 44.1973V42.6097H77.8134V45.6406H77.4208V44.8093L77.4843 44.9594C77.3881 45.1826 77.238 45.3577 77.034 45.4847C76.8338 45.6079 76.5991 45.6695 76.3297 45.6695ZM80.503 42.5808C80.7493 42.5808 80.9648 42.6289 81.1495 42.7252C81.3381 42.8175 81.4844 42.9599 81.5883 43.1524C81.6961 43.3448 81.75 43.5873 81.75 43.8798V45.6406H81.3401V43.9202C81.3401 43.6008 81.2592 43.3602 81.0976 43.1986C80.9398 43.0331 80.7166 42.9503 80.4279 42.9503C80.2124 42.9503 80.0238 42.9946 79.8621 43.0831C79.7043 43.1678 79.5812 43.2929 79.4926 43.4584C79.408 43.62 79.3656 43.8163 79.3656 44.0472V45.6406H78.9557V42.6097H79.3483V43.441L79.2848 43.2852C79.381 43.0658 79.535 42.8945 79.7467 42.7713C79.9583 42.6443 80.2104 42.5808 80.503 42.5808ZM83.8155 45.6695C83.5307 45.6695 83.3113 45.5925 83.1574 45.4386C83.0034 45.2846 82.9264 45.0672 82.9264 44.7862V41.94H83.3363V44.7631C83.3363 44.9401 83.3806 45.0768 83.4691 45.173C83.5615 45.2692 83.6924 45.3173 83.8617 45.3173C84.0426 45.3173 84.1927 45.2654 84.312 45.1614L84.4563 45.4559C84.3755 45.529 84.2774 45.5829 84.1619 45.6175C84.0503 45.6522 83.9348 45.6695 83.8155 45.6695ZM82.3838 42.9503V42.6097H84.26V42.9503H82.3838ZM87.9489 45.6695C87.6564 45.6695 87.3928 45.6041 87.158 45.4732C86.9271 45.3385 86.7443 45.1557 86.6096 44.9247C86.4748 44.69 86.4075 44.4225 86.4075 44.1223C86.4075 43.8182 86.4748 43.5507 86.6096 43.3198C86.7443 43.0889 86.9271 42.908 87.158 42.7771C87.3889 42.6463 87.6526 42.5808 87.9489 42.5808C88.2491 42.5808 88.5147 42.6463 88.7456 42.7771C88.9804 42.908 89.1632 43.0889 89.2941 43.3198C89.4288 43.5507 89.4962 43.8182 89.4962 44.1223C89.4962 44.4225 89.4288 44.69 89.2941 44.9247C89.1632 45.1557 88.9804 45.3385 88.7456 45.4732C88.5109 45.6041 88.2453 45.6695 87.9489 45.6695ZM87.9489 45.3058C88.1683 45.3058 88.3627 45.2577 88.532 45.1614C88.7014 45.0614 88.8342 44.9228 88.9304 44.7458C89.0304 44.5649 89.0805 44.3571 89.0805 44.1223C89.0805 43.8836 89.0304 43.6758 88.9304 43.4988C88.8342 43.3217 88.7014 43.1851 88.532 43.0889C88.3627 42.9888 88.1702 42.9388 87.9547 42.9388C87.7392 42.9388 87.5467 42.9888 87.3774 43.0889C87.208 43.1851 87.0733 43.3217 86.9733 43.4988C86.8732 43.6758 86.8232 43.8836 86.8232 44.1223C86.8232 44.3571 86.8732 44.5649 86.9733 44.7458C87.0733 44.9228 87.208 45.0614 87.3774 45.1614C87.5467 45.2577 87.7372 45.3058 87.9489 45.3058ZM90.333 45.6406V42.6097H90.7256V43.4353L90.6852 43.2909C90.7698 43.06 90.9123 42.8849 91.1124 42.7656C91.3125 42.6424 91.5608 42.5808 91.8571 42.5808V42.9792C91.8417 42.9792 91.8263 42.9792 91.8109 42.9792C91.7956 42.9753 91.7802 42.9734 91.7648 42.9734C91.4453 42.9734 91.1951 43.0716 91.0142 43.2678C90.8334 43.4603 90.7429 43.7355 90.7429 44.0934V45.6406H90.333ZM95.3966 45.6406L93.6069 41.5994H94.0688L95.743 45.4039H95.489L97.1747 41.5994H97.6077L95.818 45.6406H95.3966ZM98.0907 45.6406V42.6097H98.5006V45.6406H98.0907ZM98.2986 41.94C98.2139 41.94 98.1427 41.9111 98.085 41.8534C98.0272 41.7957 97.9984 41.7264 97.9984 41.6456C97.9984 41.5647 98.0272 41.4974 98.085 41.4435C98.1427 41.3858 98.2139 41.3569 98.2986 41.3569C98.3833 41.3569 98.4545 41.3839 98.5122 41.4377C98.5699 41.4916 98.5988 41.559 98.5988 41.6398C98.5988 41.7245 98.5699 41.7957 98.5122 41.8534C98.4583 41.9111 98.3871 41.94 98.2986 41.94ZM100.929 45.6695C100.613 45.6695 100.336 45.6041 100.097 45.4732C99.8586 45.3385 99.6719 45.1557 99.5372 44.9247C99.4025 44.69 99.3352 44.4225 99.3352 44.1223C99.3352 43.8221 99.3987 43.5565 99.5257 43.3256C99.6566 43.0946 99.8336 42.9138 100.057 42.7829C100.284 42.6482 100.538 42.5808 100.819 42.5808C101.104 42.5808 101.356 42.6463 101.575 42.7771C101.798 42.9041 101.974 43.085 102.101 43.3198C102.228 43.5507 102.291 43.8182 102.291 44.1223C102.291 44.1415 102.289 44.1627 102.285 44.1858C102.285 44.205 102.285 44.2262 102.285 44.2493H99.6469V43.9433H102.066L101.904 44.0645C101.904 43.8452 101.856 43.6508 101.76 43.4814C101.668 43.3083 101.541 43.1735 101.379 43.0773C101.217 42.9811 101.031 42.933 100.819 42.933C100.611 42.933 100.424 42.9811 100.259 43.0773C100.093 43.1735 99.9645 43.3083 99.8721 43.4814C99.7797 43.6546 99.7335 43.8529 99.7335 44.0761V44.1396C99.7335 44.3705 99.7836 44.5745 99.8836 44.7516C99.9875 44.9247 100.13 45.0614 100.311 45.1614C100.496 45.2577 100.705 45.3058 100.94 45.3058C101.125 45.3058 101.296 45.2731 101.454 45.2076C101.616 45.1422 101.754 45.0421 101.87 44.9074L102.101 45.173C101.966 45.3346 101.796 45.4578 101.592 45.5425C101.392 45.6272 101.171 45.6695 100.929 45.6695ZM103.687 45.6406L102.544 42.6097H102.936L103.975 45.4212H103.796L104.864 42.6097H105.217L106.273 45.4212H106.094L107.151 42.6097H107.526L106.377 45.6406H105.99L104.974 42.9965H105.095L104.074 45.6406H103.687ZM18.9903 53.6406V49.5994H20.6357C21.0668 49.5994 21.444 49.686 21.7673 49.8592C22.0944 50.0285 22.3484 50.2652 22.5293 50.5693C22.7102 50.8733 22.8007 51.2236 22.8007 51.62C22.8007 52.0164 22.7102 52.3667 22.5293 52.6707C22.3484 52.9748 22.0944 53.2134 21.7673 53.3866C21.444 53.556 21.0668 53.6406 20.6357 53.6406H18.9903ZM19.4176 53.2711H20.6126C20.9706 53.2711 21.2804 53.2019 21.5421 53.0633C21.8077 52.9209 22.0136 52.7265 22.1598 52.4802C22.3061 52.23 22.3792 51.9433 22.3792 51.62C22.3792 51.2929 22.3061 51.0061 22.1598 50.7598C22.0136 50.5135 21.8077 50.321 21.5421 50.1825C21.2804 50.0401 20.9706 49.9689 20.6126 49.9689H19.4176V53.2711ZM24.9608 53.6695C24.6452 53.6695 24.3681 53.6041 24.1295 53.4732C23.8909 53.3385 23.7042 53.1557 23.5695 52.9247C23.4348 52.69 23.3674 52.4225 23.3674 52.1223C23.3674 51.8221 23.4309 51.5565 23.5579 51.3256C23.6888 51.0946 23.8658 50.9138 24.0891 50.7829C24.3162 50.6482 24.5702 50.5808 24.8511 50.5808C25.1359 50.5808 25.388 50.6463 25.6074 50.7771C25.8307 50.9041 26.0058 51.085 26.1328 51.3198C26.2598 51.5507 26.3233 51.8182 26.3233 52.1223C26.3233 52.1415 26.3214 52.1627 26.3175 52.1858C26.3175 52.205 26.3175 52.2262 26.3175 52.2493H23.6792V51.9433H26.0981L25.9365 52.0645C25.9365 51.8452 25.8884 51.6508 25.7922 51.4814C25.6998 51.3083 25.5728 51.1735 25.4111 51.0773C25.2495 50.9811 25.0628 50.933 24.8511 50.933C24.6433 50.933 24.4566 50.9811 24.2911 51.0773C24.1256 51.1735 23.9967 51.3083 23.9043 51.4814C23.812 51.6546 23.7658 51.8529 23.7658 52.0761V52.1396C23.7658 52.3705 23.8158 52.5745 23.9159 52.7516C24.0198 52.9247 24.1622 53.0614 24.3431 53.1614C24.5278 53.2577 24.7376 53.3058 24.9724 53.3058C25.1571 53.3058 25.3284 53.2731 25.4862 53.2076C25.6478 53.1422 25.7864 53.0421 25.9019 52.9074L26.1328 53.173C25.9981 53.3346 25.8287 53.4578 25.6247 53.5425C25.4246 53.6272 25.2033 53.6695 24.9608 53.6695ZM28.116 53.6695C27.8312 53.6695 27.6118 53.5925 27.4578 53.4386C27.3039 53.2846 27.2269 53.0672 27.2269 52.7862V49.94H27.6368V52.7631C27.6368 52.9401 27.6811 53.0768 27.7696 53.173C27.8619 53.2692 27.9928 53.3173 28.1622 53.3173C28.343 53.3173 28.4932 53.2654 28.6125 53.1614L28.7568 53.4559C28.676 53.529 28.5778 53.5829 28.4624 53.6175C28.3507 53.6522 28.2353 53.6695 28.116 53.6695ZM26.6842 50.9503V50.6097H28.5605V50.9503H26.6842ZM31.4024 53.6406V52.9709L31.385 52.8612V51.7412C31.385 51.4834 31.3119 51.2852 31.1657 51.1466C31.0233 51.008 30.8096 50.9388 30.5248 50.9388C30.3285 50.9388 30.1419 50.9715 29.9648 51.0369C29.7878 51.1023 29.6377 51.1889 29.5145 51.2967L29.3298 50.9907C29.4837 50.8599 29.6685 50.7598 29.884 50.6905C30.0995 50.6174 30.3266 50.5808 30.5652 50.5808C30.9578 50.5808 31.26 50.679 31.4716 50.8753C31.6872 51.0677 31.7949 51.3621 31.7949 51.7586V53.6406H31.4024ZM30.3574 53.6695C30.1303 53.6695 29.9321 53.6329 29.7628 53.5598C29.5973 53.4828 29.4703 53.3789 29.3817 53.248C29.2932 53.1133 29.249 52.9594 29.249 52.7862C29.249 52.6284 29.2855 52.486 29.3587 52.359C29.4356 52.2281 29.5588 52.1242 29.7281 52.0472C29.9013 51.9664 30.1323 51.926 30.4209 51.926H31.4659V52.232H30.4325C30.14 52.232 29.936 52.2839 29.8205 52.3878C29.7089 52.4918 29.6531 52.6207 29.6531 52.7746C29.6531 52.9478 29.7204 53.0864 29.8551 53.1903C29.9899 53.2942 30.1784 53.3462 30.4209 53.3462C30.6518 53.3462 30.8501 53.2942 31.0156 53.1903C31.1849 53.0825 31.3081 52.9286 31.385 52.7285L31.4774 53.0113C31.4004 53.2115 31.2657 53.3712 31.0733 53.4905C30.8847 53.6098 30.6461 53.6695 30.3574 53.6695ZM32.9083 53.6406V50.6097H33.3182V53.6406H32.9083ZM33.1161 49.94C33.0314 49.94 32.9602 49.9111 32.9025 49.8534C32.8448 49.7957 32.8159 49.7264 32.8159 49.6456C32.8159 49.5647 32.8448 49.4974 32.9025 49.4435C32.9602 49.3858 33.0314 49.3569 33.1161 49.3569C33.2008 49.3569 33.272 49.3839 33.3297 49.4377C33.3874 49.4916 33.4163 49.559 33.4163 49.6398C33.4163 49.7245 33.3874 49.7957 33.3297 49.8534C33.2758 49.9111 33.2046 49.94 33.1161 49.94ZM34.4587 53.6406V49.3569H34.8686V53.6406H34.4587ZM37.2965 53.6695C36.9809 53.6695 36.7038 53.6041 36.4652 53.4732C36.2266 53.3385 36.0399 53.1557 35.9052 52.9247C35.7705 52.69 35.7031 52.4225 35.7031 52.1223C35.7031 51.8221 35.7666 51.5565 35.8936 51.3256C36.0245 51.0946 36.2015 50.9138 36.4248 50.7829C36.6519 50.6482 36.9059 50.5808 37.1868 50.5808C37.4716 50.5808 37.7237 50.6463 37.9431 50.7771C38.1664 50.9041 38.3415 51.085 38.4685 51.3198C38.5955 51.5507 38.659 51.8182 38.659 52.1223C38.659 52.1415 38.6571 52.1627 38.6532 52.1858C38.6532 52.205 38.6532 52.2262 38.6532 52.2493H36.0149V51.9433H38.4339L38.2722 52.0645C38.2722 51.8452 38.2241 51.6508 38.1279 51.4814C38.0355 51.3083 37.9085 51.1735 37.7468 51.0773C37.5852 50.9811 37.3985 50.933 37.1868 50.933C36.979 50.933 36.7923 50.9811 36.6268 51.0773C36.4613 51.1735 36.3324 51.3083 36.24 51.4814C36.1477 51.6546 36.1015 51.8529 36.1015 52.0761V52.1396C36.1015 52.3705 36.1515 52.5745 36.2516 52.7516C36.3555 52.9247 36.4979 53.0614 36.6788 53.1614C36.8635 53.2577 37.0733 53.3058 37.3081 53.3058C37.4928 53.3058 37.6641 53.2731 37.8219 53.2076C37.9835 53.1422 38.1221 53.0421 38.2376 52.9074L38.4685 53.173C38.3338 53.3346 38.1644 53.4578 37.9604 53.5425C37.7603 53.6272 37.539 53.6695 37.2965 53.6695ZM40.6999 53.6695C40.4113 53.6695 40.1515 53.6041 39.9205 53.4732C39.6935 53.3423 39.5145 53.1614 39.3836 52.9305C39.2528 52.6957 39.1873 52.4263 39.1873 52.1223C39.1873 51.8144 39.2528 51.545 39.3836 51.314C39.5145 51.0831 39.6935 50.9041 39.9205 50.7771C40.1515 50.6463 40.4113 50.5808 40.6999 50.5808C40.9655 50.5808 41.2022 50.6405 41.41 50.7598C41.6217 50.8791 41.7891 51.0542 41.9123 51.2852C42.0393 51.5122 42.1028 51.7913 42.1028 52.1223C42.1028 52.4494 42.0412 52.7285 41.9181 52.9594C41.7949 53.1903 41.6275 53.3674 41.4158 53.4905C41.208 53.6098 40.9693 53.6695 40.6999 53.6695ZM40.7288 53.3058C40.9443 53.3058 41.1368 53.2577 41.3061 53.1614C41.4793 53.0614 41.614 52.9228 41.7102 52.7458C41.8103 52.5649 41.8603 52.3571 41.8603 52.1223C41.8603 51.8836 41.8103 51.6758 41.7102 51.4988C41.614 51.3217 41.4793 51.1851 41.3061 51.0889C41.1368 50.9888 40.9443 50.9388 40.7288 50.9388C40.5171 50.9388 40.3266 50.9888 40.1572 51.0889C39.9879 51.1851 39.8532 51.3217 39.7531 51.4988C39.653 51.6758 39.603 51.8836 39.603 52.1223C39.603 52.3571 39.653 52.5649 39.7531 52.7458C39.8532 52.9228 39.9879 53.0614 40.1572 53.1614C40.3266 53.2577 40.5171 53.3058 40.7288 53.3058ZM41.8719 53.6406V52.7285L41.9123 52.1165L41.8546 51.5045V49.3569H42.2645V53.6406H41.8719ZM45.0036 53.6406V49.5994H45.4308V53.6406H45.0036ZM48.2063 50.5808C48.4526 50.5808 48.6682 50.6289 48.8529 50.7252C49.0415 50.8175 49.1877 50.9599 49.2917 51.1524C49.3994 51.3448 49.4533 51.5873 49.4533 51.8798V53.6406H49.0434V51.9202C49.0434 51.6008 48.9626 51.3602 48.8009 51.1986C48.6431 51.0331 48.4199 50.9503 48.1312 50.9503C47.9157 50.9503 47.7271 50.9946 47.5655 51.0831C47.4077 51.1678 47.2845 51.2929 47.196 51.4584C47.1113 51.62 47.069 51.8163 47.069 52.0472V53.6406H46.6591V50.6097H47.0517V51.441L46.9882 51.2852C47.0844 51.0658 47.2383 50.8945 47.45 50.7713C47.6617 50.6443 47.9138 50.5808 48.2063 50.5808ZM50.6298 53.6406V50.2287C50.6298 49.9592 50.7087 49.7418 50.8665 49.5763C51.0243 49.4108 51.2514 49.328 51.5477 49.328C51.6632 49.328 51.7748 49.3434 51.8826 49.3742C51.9903 49.405 52.0808 49.4531 52.1539 49.5186L52.0153 49.8245C51.9576 49.7745 51.8903 49.7379 51.8133 49.7148C51.7363 49.6879 51.6536 49.6744 51.565 49.6744C51.3918 49.6744 51.2591 49.7225 51.1667 49.8188C51.0743 49.915 51.0281 50.0574 51.0281 50.246V50.7078L51.0397 50.8984V53.6406H50.6298ZM50.0871 50.9503V50.6097H51.9634V50.9503H50.0871ZM53.7016 53.6695C53.4091 53.6695 53.1454 53.6041 52.9106 53.4732C52.6797 53.3385 52.4969 53.1557 52.3622 52.9247C52.2275 52.69 52.1601 52.4225 52.1601 52.1223C52.1601 51.8182 52.2275 51.5507 52.3622 51.3198C52.4969 51.0889 52.6797 50.908 52.9106 50.7771C53.1416 50.6463 53.4052 50.5808 53.7016 50.5808C54.0018 50.5808 54.2673 50.6463 54.4983 50.7771C54.7331 50.908 54.9159 51.0889 55.0467 51.3198C55.1814 51.5507 55.2488 51.8182 55.2488 52.1223C55.2488 52.4225 55.1814 52.69 55.0467 52.9247C54.9159 53.1557 54.7331 53.3385 54.4983 53.4732C54.2635 53.6041 53.9979 53.6695 53.7016 53.6695ZM53.7016 53.3058C53.921 53.3058 54.1153 53.2577 54.2847 53.1614C54.454 53.0614 54.5868 52.9228 54.683 52.7458C54.7831 52.5649 54.8331 52.3571 54.8331 52.1223C54.8331 51.8836 54.7831 51.6758 54.683 51.4988C54.5868 51.3217 54.454 51.1851 54.2847 51.0889C54.1153 50.9888 53.9229 50.9388 53.7073 50.9388C53.4918 50.9388 53.2994 50.9888 53.13 51.0889C52.9607 51.1851 52.826 51.3217 52.7259 51.4988C52.6258 51.6758 52.5758 51.8836 52.5758 52.1223C52.5758 52.3571 52.6258 52.5649 52.7259 52.7458C52.826 52.9228 52.9607 53.0614 53.13 53.1614C53.2994 53.2577 53.4899 53.3058 53.7016 53.3058ZM56.0856 53.6406V50.6097H56.4782V51.4353L56.4378 51.2909C56.5225 51.06 56.6649 50.8849 56.865 50.7656C57.0652 50.6424 57.3134 50.5808 57.6098 50.5808V50.9792C57.5944 50.9792 57.579 50.9792 57.5636 50.9792C57.5482 50.9753 57.5328 50.9734 57.5174 50.9734C57.1979 50.9734 56.9478 51.0716 56.7669 51.2678C56.586 51.4603 56.4955 51.7355 56.4955 52.0934V53.6406H56.0856ZM62.1449 50.5808C62.3912 50.5808 62.6049 50.6289 62.7858 50.7252C62.9705 50.8175 63.1129 50.9599 63.213 51.1524C63.3169 51.3448 63.3688 51.5873 63.3688 51.8798V53.6406H62.9589V51.9202C62.9589 51.6008 62.882 51.3602 62.728 51.1986C62.5779 51.0331 62.3643 50.9503 62.0872 50.9503C61.8794 50.9503 61.6985 50.9946 61.5445 51.0831C61.3944 51.1678 61.277 51.2929 61.1923 51.4584C61.1115 51.62 61.0711 51.8163 61.0711 52.0472V53.6406H60.6612V51.9202C60.6612 51.6008 60.5842 51.3602 60.4303 51.1986C60.2763 51.0331 60.0608 50.9503 59.7837 50.9503C59.5797 50.9503 59.4007 50.9946 59.2468 51.0831C59.0928 51.1678 58.9735 51.2929 58.8888 51.4584C58.808 51.62 58.7676 51.8163 58.7676 52.0472V53.6406H58.3577V50.6097H58.7503V51.4295L58.6868 51.2852C58.7791 51.0658 58.9273 50.8945 59.1313 50.7713C59.3392 50.6443 59.5835 50.5808 59.8645 50.5808C60.1609 50.5808 60.413 50.6559 60.6208 50.806C60.8286 50.9522 60.9633 51.1735 61.0249 51.4699L60.8633 51.4064C60.9518 51.1601 61.1077 50.9619 61.3309 50.8118C61.558 50.6578 61.8293 50.5808 62.1449 50.5808ZM66.3798 53.6406V52.9709L66.3625 52.8612V51.7412C66.3625 51.4834 66.2894 51.2852 66.1431 51.1466C66.0007 51.008 65.7871 50.9388 65.5023 50.9388C65.306 50.9388 65.1194 50.9715 64.9423 51.0369C64.7653 51.1023 64.6152 51.1889 64.492 51.2967L64.3073 50.9907C64.4612 50.8599 64.646 50.7598 64.8615 50.6905C65.077 50.6174 65.3041 50.5808 65.5427 50.5808C65.9353 50.5808 66.2374 50.679 66.4491 50.8753C66.6646 51.0677 66.7724 51.3621 66.7724 51.7586V53.6406H66.3798ZM65.3349 53.6695C65.1078 53.6695 64.9096 53.6329 64.7402 53.5598C64.5748 53.4828 64.4477 53.3789 64.3592 53.248C64.2707 53.1133 64.2264 52.9594 64.2264 52.7862C64.2264 52.6284 64.263 52.486 64.3361 52.359C64.4131 52.2281 64.5363 52.1242 64.7056 52.0472C64.8788 51.9664 65.1097 51.926 65.3984 51.926H66.4433V52.232H65.4099C65.1174 52.232 64.9134 52.2839 64.798 52.3878C64.6864 52.4918 64.6306 52.6207 64.6306 52.7746C64.6306 52.9478 64.6979 53.0864 64.8326 53.1903C64.9673 53.2942 65.1559 53.3462 65.3984 53.3462C65.6293 53.3462 65.8275 53.2942 65.993 53.1903C66.1624 53.0825 66.2855 52.9286 66.3625 52.7285L66.4549 53.0113C66.3779 53.2115 66.2432 53.3712 66.0508 53.4905C65.8622 53.6098 65.6235 53.6695 65.3349 53.6695ZM68.8441 53.6695C68.5593 53.6695 68.3399 53.5925 68.1859 53.4386C68.032 53.2846 67.955 53.0672 67.955 52.7862V49.94H68.3649V52.7631C68.3649 52.9401 68.4092 53.0768 68.4977 53.173C68.5901 53.2692 68.7209 53.3173 68.8903 53.3173C69.0712 53.3173 69.2213 53.2654 69.3406 53.1614L69.4849 53.4559C69.4041 53.529 69.3059 53.5829 69.1905 53.6175C69.0789 53.6522 68.9634 53.6695 68.8441 53.6695ZM67.4123 50.9503V50.6097H69.2886V50.9503H67.4123ZM70.2311 53.6406V50.6097H70.641V53.6406H70.2311ZM70.4389 49.94C70.3543 49.94 70.2831 49.9111 70.2253 49.8534C70.1676 49.7957 70.1387 49.7264 70.1387 49.6456C70.1387 49.5647 70.1676 49.4974 70.2253 49.4435C70.2831 49.3858 70.3543 49.3569 70.4389 49.3569C70.5236 49.3569 70.5948 49.3839 70.6525 49.4377C70.7103 49.4916 70.7391 49.559 70.7391 49.6398C70.7391 49.7245 70.7103 49.7957 70.6525 49.8534C70.5987 49.9111 70.5275 49.94 70.4389 49.94ZM73.017 53.6695C72.7245 53.6695 72.4608 53.6041 72.2261 53.4732C71.9951 53.3385 71.8123 53.1557 71.6776 52.9247C71.5429 52.69 71.4755 52.4225 71.4755 52.1223C71.4755 51.8182 71.5429 51.5507 71.6776 51.3198C71.8123 51.0889 71.9951 50.908 72.2261 50.7771C72.457 50.6463 72.7206 50.5808 73.017 50.5808C73.3172 50.5808 73.5828 50.6463 73.8137 50.7771C74.0485 50.908 74.2313 51.0889 74.3621 51.3198C74.4969 51.5507 74.5642 51.8182 74.5642 52.1223C74.5642 52.4225 74.4969 52.69 74.3621 52.9247C74.2313 53.1557 74.0485 53.3385 73.8137 53.4732C73.5789 53.6041 73.3133 53.6695 73.017 53.6695ZM73.017 53.3058C73.2364 53.3058 73.4307 53.2577 73.6001 53.1614C73.7694 53.0614 73.9022 52.9228 73.9984 52.7458C74.0985 52.5649 74.1485 52.3571 74.1485 52.1223C74.1485 51.8836 74.0985 51.6758 73.9984 51.4988C73.9022 51.3217 73.7694 51.1851 73.6001 51.0889C73.4307 50.9888 73.2383 50.9388 73.0228 50.9388C72.8072 50.9388 72.6148 50.9888 72.4454 51.0889C72.2761 51.1851 72.1414 51.3217 72.0413 51.4988C71.9412 51.6758 71.8912 51.8836 71.8912 52.1223C71.8912 52.3571 71.9412 52.5649 72.0413 52.7458C72.1414 52.9228 72.2761 53.0614 72.4454 53.1614C72.6148 53.2577 72.8053 53.3058 73.017 53.3058ZM76.9483 50.5808C77.1946 50.5808 77.4101 50.6289 77.5949 50.7252C77.7835 50.8175 77.9297 50.9599 78.0336 51.1524C78.1414 51.3448 78.1953 51.5873 78.1953 51.8798V53.6406H77.7854V51.9202C77.7854 51.6008 77.7046 51.3602 77.5429 51.1986C77.3851 51.0331 77.1619 50.9503 76.8732 50.9503C76.6577 50.9503 76.4691 50.9946 76.3074 51.0831C76.1496 51.1678 76.0265 51.2929 75.938 51.4584C75.8533 51.62 75.8109 51.8163 75.8109 52.0472V53.6406H75.401V50.6097H75.7936V51.441L75.7301 51.2852C75.8263 51.0658 75.9803 50.8945 76.192 50.7713C76.4037 50.6443 76.6558 50.5808 76.9483 50.5808ZM80.2534 53.6406L82.1009 49.5994H82.5223L84.3697 53.6406H83.9194L82.2221 49.8476H82.3953L80.698 53.6406H80.2534ZM80.9809 52.561L81.1079 52.2146H83.4576L83.5846 52.561H80.9809ZM86.5162 53.6695C86.2506 53.6695 86.012 53.6098 85.8003 53.4905C85.5886 53.3674 85.4212 53.1903 85.298 52.9594C85.1749 52.7285 85.1133 52.4494 85.1133 52.1223C85.1133 51.7913 85.1749 51.5122 85.298 51.2852C85.425 51.0542 85.5944 50.8791 85.8061 50.7598C86.0178 50.6405 86.2545 50.5808 86.5162 50.5808C86.8048 50.5808 87.0627 50.6463 87.2898 50.7771C87.5207 50.9041 87.7016 51.0831 87.8325 51.314C87.9633 51.545 88.0288 51.8144 88.0288 52.1223C88.0288 52.4263 87.9633 52.6957 87.8325 52.9305C87.7016 53.1614 87.5207 53.3423 87.2898 53.4732C87.0627 53.6041 86.8048 53.6695 86.5162 53.6695ZM84.9516 53.6406V49.3569H85.3615V51.5045L85.3038 52.1165L85.3442 52.7285V53.6406H84.9516ZM86.4873 53.3058C86.7028 53.3058 86.8953 53.2577 87.0646 53.1614C87.234 53.0614 87.3687 52.9228 87.4688 52.7458C87.5688 52.5649 87.6189 52.3571 87.6189 52.1223C87.6189 51.8836 87.5688 51.6758 87.4688 51.4988C87.3687 51.3217 87.234 51.1851 87.0646 51.0889C86.8953 50.9888 86.7028 50.9388 86.4873 50.9388C86.2718 50.9388 86.0774 50.9888 85.9042 51.0889C85.7349 51.1851 85.6002 51.3217 85.5001 51.4988C85.4039 51.6758 85.3558 51.8836 85.3558 52.1223C85.3558 52.3571 85.4039 52.5649 85.5001 52.7458C85.6002 52.9228 85.7349 53.0614 85.9042 53.1614C86.0774 53.2577 86.2718 53.3058 86.4873 53.3058ZM90.0998 53.6695C89.8073 53.6695 89.5436 53.6041 89.3089 53.4732C89.0779 53.3385 88.8951 53.1557 88.7604 52.9247C88.6257 52.69 88.5584 52.4225 88.5584 52.1223C88.5584 51.8182 88.6257 51.5507 88.7604 51.3198C88.8951 51.0889 89.0779 50.908 89.3089 50.7771C89.5398 50.6463 89.8034 50.5808 90.0998 50.5808C90.4 50.5808 90.6656 50.6463 90.8965 50.7771C91.1313 50.908 91.3141 51.0889 91.445 51.3198C91.5797 51.5507 91.647 51.8182 91.647 52.1223C91.647 52.4225 91.5797 52.69 91.445 52.9247C91.3141 53.1557 91.1313 53.3385 90.8965 53.4732C90.6617 53.6041 90.3962 53.6695 90.0998 53.6695ZM90.0998 53.3058C90.3192 53.3058 90.5135 53.2577 90.6829 53.1614C90.8522 53.0614 90.985 52.9228 91.0812 52.7458C91.1813 52.5649 91.2313 52.3571 91.2313 52.1223C91.2313 51.8836 91.1813 51.6758 91.0812 51.4988C90.985 51.3217 90.8522 51.1851 90.6829 51.0889C90.5135 50.9888 90.3211 50.9388 90.1056 50.9388C89.89 50.9388 89.6976 50.9888 89.5283 51.0889C89.3589 51.1851 89.2242 51.3217 89.1241 51.4988C89.0241 51.6758 88.974 51.8836 88.974 52.1223C88.974 52.3571 89.0241 52.5649 89.1241 52.7458C89.2242 52.9228 89.3589 53.0614 89.5283 53.1614C89.6976 53.2577 89.8881 53.3058 90.0998 53.3058ZM93.7366 53.6695C93.4788 53.6695 93.2536 53.6214 93.0612 53.5252C92.8687 53.4289 92.7186 53.2846 92.6109 53.0922C92.5069 52.8997 92.455 52.6592 92.455 52.3705V50.6097H92.8649V52.3243C92.8649 52.6476 92.9438 52.892 93.1016 53.0575C93.2632 53.2192 93.4884 53.3 93.7771 53.3C93.9887 53.3 94.1716 53.2577 94.3255 53.173C94.4833 53.0845 94.6026 52.9575 94.6834 52.792C94.7681 52.6265 94.8105 52.4283 94.8105 52.1973V50.6097H95.2204V53.6406H94.8278V52.8093L94.8913 52.9594C94.7951 53.1826 94.645 53.3577 94.441 53.4847C94.2408 53.6079 94.0061 53.6695 93.7366 53.6695ZM97.3211 53.6695C97.0363 53.6695 96.8169 53.5925 96.6629 53.4386C96.509 53.2846 96.432 53.0672 96.432 52.7862V49.94H96.8419V52.7631C96.8419 52.9401 96.8862 53.0768 96.9747 53.173C97.0671 53.2692 97.1979 53.3173 97.3673 53.3173C97.5482 53.3173 97.6983 53.2654 97.8176 53.1614L97.9619 53.4559C97.8811 53.529 97.7829 53.5829 97.6675 53.6175C97.5559 53.6522 97.4404 53.6695 97.3211 53.6695ZM95.8893 50.9503V50.6097H97.7656V50.9503H95.8893ZM101.177 53.6695C100.893 53.6695 100.673 53.5925 100.519 53.4386C100.365 53.2846 100.288 53.0672 100.288 52.7862V49.94H100.698V52.7631C100.698 52.9401 100.742 53.0768 100.831 53.173C100.923 53.2692 101.054 53.3173 101.224 53.3173C101.404 53.3173 101.555 53.2654 101.674 53.1614L101.818 53.4559C101.737 53.529 101.639 53.5829 101.524 53.6175C101.412 53.6522 101.297 53.6695 101.177 53.6695ZM99.7456 50.9503V50.6097H101.622V50.9503H99.7456ZM104.112 50.5808C104.358 50.5808 104.573 50.6289 104.758 50.7252C104.947 50.8175 105.093 50.9599 105.197 51.1524C105.305 51.3448 105.359 51.5873 105.359 51.8798V53.6406H104.949V51.9202C104.949 51.6008 104.868 51.3602 104.706 51.1986C104.548 51.0331 104.325 50.9503 104.037 50.9503C103.821 50.9503 103.632 50.9946 103.471 51.0831C103.313 51.1678 103.19 51.2929 103.101 51.4584C103.017 51.62 102.974 51.8163 102.974 52.0472V53.6406H102.564V49.3569H102.974V51.441L102.893 51.2852C102.99 51.0658 103.144 50.8945 103.355 50.7713C103.567 50.6443 103.819 50.5808 104.112 50.5808ZM107.753 53.6695C107.438 53.6695 107.161 53.6041 106.922 53.4732C106.683 53.3385 106.497 53.1557 106.362 52.9247C106.227 52.69 106.16 52.4225 106.16 52.1223C106.16 51.8221 106.223 51.5565 106.35 51.3256C106.481 51.0946 106.658 50.9138 106.881 50.7829C107.109 50.6482 107.363 50.5808 107.644 50.5808C107.928 50.5808 108.18 50.6463 108.4 50.7771C108.623 50.9041 108.798 51.085 108.925 51.3198C109.052 51.5507 109.116 51.8182 109.116 52.1223C109.116 52.1415 109.114 52.1627 109.11 52.1858C109.11 52.205 109.11 52.2262 109.11 52.2493H106.472V51.9433H108.891L108.729 52.0645C108.729 51.8452 108.681 51.6508 108.585 51.4814C108.492 51.3083 108.365 51.1735 108.204 51.0773C108.042 50.9811 107.855 50.933 107.644 50.933C107.436 50.933 107.249 50.9811 107.084 51.0773C106.918 51.1735 106.789 51.3083 106.697 51.4814C106.604 51.6546 106.558 51.8529 106.558 52.0761V52.1396C106.558 52.3705 106.608 52.5745 106.708 52.7516C106.812 52.9247 106.955 53.0614 107.136 53.1614C107.32 53.2577 107.53 53.3058 107.765 53.3058C107.95 53.3058 108.121 53.2731 108.279 53.2076C108.44 53.1422 108.579 53.0421 108.694 52.9074L108.925 53.173C108.791 53.3346 108.621 53.4578 108.417 53.5425C108.217 53.6272 107.996 53.6695 107.753 53.6695ZM53.5514 61.6753C53.2512 61.6753 52.9625 61.6272 52.6854 61.5309C52.4121 61.4309 52.2004 61.3039 52.0503 61.1499L52.2177 60.8208C52.3602 60.9594 52.5507 61.0768 52.7893 61.173C53.0318 61.2654 53.2858 61.3116 53.5514 61.3116C53.8054 61.3116 54.0113 61.2808 54.1691 61.2192C54.3307 61.1538 54.4481 61.0672 54.5213 60.9594C54.5982 60.8516 54.6367 60.7323 54.6367 60.6014C54.6367 60.4436 54.5905 60.3166 54.4982 60.2204C54.4096 60.1242 54.2923 60.0491 54.146 59.9953C53.9997 59.9375 53.8381 59.8875 53.661 59.8452C53.484 59.8028 53.307 59.7586 53.1299 59.7124C52.9529 59.6623 52.7893 59.5969 52.6392 59.5161C52.4929 59.4353 52.3736 59.3294 52.2813 59.1986C52.1927 59.0639 52.1485 58.8887 52.1485 58.6732C52.1485 58.4731 52.2004 58.2902 52.3043 58.1247C52.4121 57.9554 52.5757 57.8207 52.7951 57.7206C53.0144 57.6167 53.2954 57.5647 53.638 57.5647C53.865 57.5647 54.0902 57.5975 54.3134 57.6629C54.5366 57.7245 54.7291 57.8111 54.8907 57.9227L54.7464 58.2633C54.5732 58.1478 54.3885 58.0632 54.1922 58.0093C53.9997 57.9554 53.8131 57.9285 53.6322 57.9285C53.3897 57.9285 53.1896 57.9612 53.0318 58.0266C52.874 58.092 52.7566 58.1806 52.6796 58.2922C52.6065 58.3999 52.5699 58.5231 52.5699 58.6617C52.5699 58.8195 52.6142 58.9465 52.7027 59.0427C52.7951 59.1389 52.9144 59.214 53.0606 59.2678C53.2107 59.3217 53.3743 59.3698 53.5514 59.4122C53.7284 59.4545 53.9035 59.5007 54.0767 59.5507C54.2538 59.6008 54.4154 59.6662 54.5617 59.747C54.7118 59.824 54.8311 59.9279 54.9196 60.0588C55.012 60.1896 55.0582 60.3609 55.0582 60.5726C55.0582 60.7689 55.0043 60.9517 54.8965 61.121C54.7887 61.2865 54.6232 61.4212 54.4 61.5252C54.1806 61.6252 53.8977 61.6753 53.5514 61.6753ZM56.8608 61.6695C56.5759 61.6695 56.3566 61.5925 56.2026 61.4386C56.0487 61.2846 55.9717 61.0672 55.9717 60.7862V57.94H56.3816V60.7631C56.3816 60.9401 56.4258 61.0768 56.5144 61.173C56.6067 61.2692 56.7376 61.3173 56.9069 61.3173C57.0878 61.3173 57.2379 61.2654 57.3572 61.1614L57.5016 61.4559C57.4208 61.529 57.3226 61.5829 57.2071 61.6175C57.0955 61.6522 56.9801 61.6695 56.8608 61.6695ZM55.429 58.9503V58.6097H57.3053V58.9503H55.429ZM58.2478 61.6406V58.6097H58.6403V59.4353L58.5999 59.2909C58.6846 59.06 58.827 58.8849 59.0271 58.7656C59.2273 58.6424 59.4755 58.5808 59.7719 58.5808V58.9792C59.7565 58.9792 59.7411 58.9792 59.7257 58.9792C59.7103 58.9753 59.6949 58.9734 59.6795 58.9734C59.3601 58.9734 59.1099 59.0716 58.929 59.2678C58.7481 59.4603 58.6577 59.7355 58.6577 60.0934V61.6406H58.2478ZM62.1937 61.6406V60.9709L62.1764 60.8612V59.7412C62.1764 59.4834 62.1033 59.2852 61.957 59.1466C61.8146 59.008 61.601 58.9388 61.3162 58.9388C61.1199 58.9388 60.9332 58.9715 60.7562 59.0369C60.5791 59.1023 60.429 59.1889 60.3059 59.2967L60.1211 58.9907C60.2751 58.8599 60.4598 58.7598 60.6753 58.6905C60.8909 58.6174 61.118 58.5808 61.3566 58.5808C61.7492 58.5808 62.0513 58.679 62.263 58.8753C62.4785 59.0677 62.5863 59.3621 62.5863 59.7586V61.6406H62.1937ZM61.1488 61.6695C60.9217 61.6695 60.7235 61.6329 60.5541 61.5598C60.3886 61.4828 60.2616 61.3789 60.1731 61.248C60.0846 61.1133 60.0403 60.9594 60.0403 60.7862C60.0403 60.6284 60.0769 60.486 60.15 60.359C60.227 60.2281 60.3501 60.1242 60.5195 60.0472C60.6927 59.9664 60.9236 59.926 61.2123 59.926H62.2572V60.232H61.2238C60.9313 60.232 60.7273 60.2839 60.6118 60.3878C60.5002 60.4918 60.4444 60.6207 60.4444 60.7746C60.4444 60.9478 60.5118 61.0864 60.6465 61.1903C60.7812 61.2942 60.9698 61.3462 61.2123 61.3462C61.4432 61.3462 61.6414 61.2942 61.8069 61.1903C61.9762 61.0825 62.0994 60.9286 62.1764 60.7285L62.2688 61.0113C62.1918 61.2115 62.0571 61.3712 61.8646 61.4905C61.676 61.6098 61.4374 61.6695 61.1488 61.6695ZM64.658 61.6695C64.3731 61.6695 64.1538 61.5925 63.9998 61.4386C63.8459 61.2846 63.7689 61.0672 63.7689 60.7862V57.94H64.1788V60.7631C64.1788 60.9401 64.223 61.0768 64.3116 61.173C64.4039 61.2692 64.5348 61.3173 64.7041 61.3173C64.885 61.3173 65.0351 61.2654 65.1545 61.1614L65.2988 61.4559C65.218 61.529 65.1198 61.5829 65.0043 61.6175C64.8927 61.6522 64.7773 61.6695 64.658 61.6695ZM63.2262 58.9503V58.6097H65.1025V58.9503H63.2262ZM67.2253 61.6695C66.9097 61.6695 66.6326 61.6041 66.3939 61.4732C66.1553 61.3385 65.9686 61.1557 65.8339 60.9247C65.6992 60.69 65.6319 60.4225 65.6319 60.1223C65.6319 59.8221 65.6954 59.5565 65.8224 59.3256C65.9532 59.0946 66.1303 58.9138 66.3535 58.7829C66.5806 58.6482 66.8346 58.5808 67.1156 58.5808C67.4004 58.5808 67.6525 58.6463 67.8719 58.7771C68.0951 58.9041 68.2702 59.085 68.3972 59.3198C68.5242 59.5507 68.5877 59.8182 68.5877 60.1223C68.5877 60.1415 68.5858 60.1627 68.582 60.1858C68.582 60.205 68.582 60.2262 68.582 60.2493H65.9436V59.9433H68.3626L68.2009 60.0645C68.2009 59.8452 68.1528 59.6508 68.0566 59.4814C67.9642 59.3083 67.8372 59.1735 67.6756 59.0773C67.5139 58.9811 67.3273 58.933 67.1156 58.933C66.9077 58.933 66.7211 58.9811 66.5556 59.0773C66.3901 59.1735 66.2611 59.3083 66.1688 59.4814C66.0764 59.6546 66.0302 59.8529 66.0302 60.0761V60.1396C66.0302 60.3705 66.0803 60.5745 66.1803 60.7516C66.2842 60.9247 66.4266 61.0614 66.6075 61.1614C66.7923 61.2577 67.002 61.3058 67.2368 61.3058C67.4216 61.3058 67.5928 61.2731 67.7506 61.2076C67.9123 61.1422 68.0508 61.0421 68.1663 60.9074L68.3972 61.173C68.2625 61.3346 68.0932 61.4578 67.8892 61.5425C67.6891 61.6272 67.4677 61.6695 67.2253 61.6695ZM70.7153 62.7895C70.4381 62.7895 70.1726 62.7491 69.9186 62.6683C69.6645 62.5874 69.4586 62.472 69.3008 62.3219L69.5087 62.0101C69.6511 62.1371 69.8262 62.2372 70.034 62.3103C70.2457 62.3873 70.4689 62.4258 70.7037 62.4258C71.0886 62.4258 71.3715 62.3353 71.5524 62.1544C71.7333 61.9774 71.8237 61.7003 71.8237 61.3231V60.5668L71.8814 60.0472L71.841 59.5276V58.6097H72.2336V61.2711C72.2336 61.7946 72.1047 62.1775 71.8468 62.42C71.5928 62.6663 71.2156 62.7895 70.7153 62.7895ZM70.6402 61.5252C70.3515 61.5252 70.0918 61.4636 69.8608 61.3404C69.6299 61.2134 69.4471 61.0383 69.3124 60.8151C69.1815 60.5918 69.1161 60.3359 69.1161 60.0472C69.1161 59.7586 69.1815 59.5045 69.3124 59.2852C69.4471 59.0619 69.6299 58.8887 69.8608 58.7656C70.0918 58.6424 70.3515 58.5808 70.6402 58.5808C70.9096 58.5808 71.1521 58.6366 71.3676 58.7483C71.5832 58.8599 71.7544 59.0254 71.8814 59.2447C72.0085 59.4641 72.072 59.7316 72.072 60.0472C72.072 60.3628 72.0085 60.6303 71.8814 60.8497C71.7544 61.0691 71.5832 61.2365 71.3676 61.352C71.1521 61.4674 70.9096 61.5252 70.6402 61.5252ZM70.6806 61.1614C70.9039 61.1614 71.1021 61.1153 71.2753 61.0229C71.4485 60.9267 71.5851 60.7958 71.6852 60.6303C71.7852 60.461 71.8353 60.2666 71.8353 60.0472C71.8353 59.8278 71.7852 59.6354 71.6852 59.4699C71.5851 59.3044 71.4485 59.1755 71.2753 59.0831C71.1021 58.9869 70.9039 58.9388 70.6806 58.9388C70.4612 58.9388 70.263 58.9869 70.086 59.0831C69.9128 59.1755 69.7762 59.3044 69.6761 59.4699C69.5799 59.6354 69.5318 59.8278 69.5318 60.0472C69.5318 60.2666 69.5799 60.461 69.6761 60.6303C69.7762 60.7958 69.9128 60.9267 70.086 61.0229C70.263 61.1153 70.4612 61.1614 70.6806 61.1614ZM73.3973 62.7895C73.2549 62.7895 73.1183 62.7664 72.9874 62.7202C72.8604 62.674 72.7507 62.6047 72.6584 62.5124L72.8489 62.2064C72.9258 62.2795 73.0086 62.3353 73.0971 62.3738C73.1895 62.4162 73.2915 62.4373 73.4031 62.4373C73.5378 62.4373 73.6533 62.3988 73.7495 62.3219C73.8496 62.2487 73.9439 62.1179 74.0324 61.9293L74.2287 61.4847L74.2748 61.4212L75.5219 58.6097H75.926L74.4076 62.0043C74.323 62.2006 74.2287 62.3565 74.1247 62.472C74.0247 62.5874 73.915 62.6683 73.7957 62.7144C73.6764 62.7645 73.5436 62.7895 73.3973 62.7895ZM74.2056 61.7272L72.8085 58.6097H73.2357L74.4711 61.3924L74.2056 61.7272Z" fill="#1B1B1B"></path><path d="M86.1419 46.3623H107.572V46.6509H86.1419V46.3623ZM18.3322 54.3623H109.378V54.6509H18.3322V54.3623ZM51.779 62.3623H75.9318V62.6509H51.779V62.3623Z" fill="#1B1B1B"></path><path d="M9.88846 80.3891C9.63829 80.3891 9.40688 80.3484 9.19423 80.2671C8.98471 80.1827 8.80177 80.0654 8.64542 79.9153C8.49219 79.7621 8.37179 79.5838 8.28423 79.3806C8.19667 79.1773 8.15289 78.9537 8.15289 78.7098C8.15289 78.4659 8.19667 78.2423 8.28423 78.039C8.37179 77.8358 8.49375 77.6591 8.65011 77.509C8.80646 77.3558 8.9894 77.2385 9.19892 77.1572C9.41157 77.0727 9.64298 77.0305 9.89315 77.0305C10.1464 77.0305 10.3794 77.0743 10.5921 77.1619C10.8078 77.2463 10.9908 77.373 11.1409 77.5418L10.836 77.8373C10.7109 77.706 10.5702 77.6091 10.4138 77.5465C10.2575 77.4808 10.0902 77.448 9.91191 77.448C9.72741 77.448 9.55542 77.4793 9.39593 77.5418C9.23957 77.6044 9.10354 77.6919 8.98784 77.8045C8.87213 77.9171 8.78145 78.0515 8.71578 78.2079C8.65323 78.3611 8.62196 78.5284 8.62196 78.7098C8.62196 78.8912 8.65323 79.06 8.71578 79.2164C8.78145 79.3696 8.87213 79.5025 8.98784 79.6151C9.10354 79.7277 9.23957 79.8153 9.39593 79.8778C9.55542 79.9403 9.72741 79.9716 9.91191 79.9716C10.0902 79.9716 10.2575 79.9403 10.4138 79.8778C10.5702 79.8121 10.7109 79.7121 10.836 79.5776L11.1409 79.8731C10.9908 80.042 10.8078 80.1702 10.5921 80.2577C10.3794 80.3453 10.1449 80.3891 9.88846 80.3891ZM12.7038 80.3797C12.4536 80.3797 12.2316 80.325 12.0377 80.2155C11.8438 80.1061 11.6906 79.956 11.578 79.7652C11.4655 79.5713 11.4092 79.3524 11.4092 79.1085C11.4092 78.8615 11.4655 78.6426 11.578 78.4518C11.6906 78.2611 11.8438 78.1125 12.0377 78.0062C12.2316 77.8967 12.4536 77.842 12.7038 77.842C12.9509 77.842 13.1713 77.8967 13.3652 78.0062C13.5622 78.1125 13.7154 78.2611 13.8249 78.4518C13.9375 78.6394 13.9938 78.8583 13.9938 79.1085C13.9938 79.3556 13.9375 79.5745 13.8249 79.7652C13.7154 79.956 13.5622 80.1061 13.3652 80.2155C13.1713 80.325 12.9509 80.3797 12.7038 80.3797ZM12.7038 79.9857C12.8633 79.9857 13.0056 79.9497 13.1307 79.8778C13.2589 79.8059 13.3589 79.7042 13.4309 79.5729C13.5028 79.4384 13.5388 79.2836 13.5388 79.1085C13.5388 78.9303 13.5028 78.777 13.4309 78.6488C13.3589 78.5175 13.2589 78.4159 13.1307 78.3439C13.0056 78.272 12.8633 78.236 12.7038 78.236C12.5443 78.236 12.402 78.272 12.277 78.3439C12.1519 78.4159 12.0518 78.5175 11.9767 78.6488C11.9017 78.777 11.8642 78.9303 11.8642 79.1085C11.8642 79.2836 11.9017 79.4384 11.9767 79.5729C12.0518 79.7042 12.1519 79.8059 12.277 79.8778C12.402 79.9497 12.5443 79.9857 12.7038 79.9857ZM15.9346 80.3797C15.7282 80.3797 15.539 80.3328 15.367 80.239C15.1982 80.142 15.0621 79.9998 14.9589 79.8121C14.8589 79.6245 14.8088 79.39 14.8088 79.1085C14.8088 78.8271 14.8573 78.5925 14.9543 78.4049C15.0543 78.2173 15.1888 78.0766 15.3577 77.9827C15.5297 77.8889 15.722 77.842 15.9346 77.842C16.1785 77.842 16.3943 77.8952 16.5819 78.0015C16.7696 78.1078 16.9181 78.2564 17.0276 78.4471C17.137 78.6348 17.1917 78.8552 17.1917 79.1085C17.1917 79.3618 17.137 79.5838 17.0276 79.7746C16.9181 79.9654 16.7696 80.1139 16.5819 80.2202C16.3943 80.3265 16.1785 80.3797 15.9346 80.3797ZM14.6165 81.2616V77.8655H15.0481V78.5363L15.0199 79.1132L15.0668 79.6902V81.2616H14.6165ZM15.8971 79.9857C16.0566 79.9857 16.1989 79.9497 16.3239 79.8778C16.4522 79.8059 16.5522 79.7042 16.6242 79.5729C16.6992 79.4384 16.7367 79.2836 16.7367 79.1085C16.7367 78.9303 16.6992 78.777 16.6242 78.6488C16.5522 78.5175 16.4522 78.4159 16.3239 78.3439C16.1989 78.272 16.0566 78.236 15.8971 78.236C15.7407 78.236 15.5985 78.272 15.4702 78.3439C15.3452 78.4159 15.2451 78.5175 15.17 78.6488C15.0981 78.777 15.0621 78.9303 15.0621 79.1085C15.0621 79.2836 15.0981 79.4384 15.17 79.5729C15.2451 79.7042 15.3452 79.8059 15.4702 79.8778C15.5985 79.9497 15.7407 79.9857 15.8971 79.9857ZM17.8531 81.2897C17.7343 81.2897 17.6186 81.2694 17.506 81.2287C17.3934 81.1912 17.2965 81.1349 17.2152 81.0599L17.4075 80.7221C17.47 80.7815 17.5388 80.8269 17.6139 80.8582C17.6889 80.8894 17.7687 80.9051 17.8531 80.9051C17.9625 80.9051 18.0532 80.8769 18.1252 80.8206C18.1971 80.7643 18.2643 80.6643 18.3269 80.5204L18.4816 80.178L18.5286 80.1217L19.5042 77.8655H19.9452L18.7396 80.6002C18.6677 80.7753 18.5864 80.9129 18.4957 81.013C18.4082 81.113 18.3112 81.1834 18.2049 81.224C18.0986 81.2678 17.9813 81.2897 17.8531 81.2897ZM18.4441 80.4313L17.309 77.8655H17.778L18.7443 80.0795L18.4441 80.4313ZM21.1936 80.3516L22.6805 77.0681H23.1449L24.6366 80.3516H24.144L22.8166 77.3307H23.0042L21.6767 80.3516H21.1936ZM21.8268 79.5307L21.9535 79.1554H23.8016L23.9377 79.5307H21.8268ZM26.1214 80.3797C25.8681 80.3797 25.6414 80.325 25.4412 80.2155C25.2442 80.1061 25.0894 79.956 24.9768 79.7652C24.8643 79.5745 24.808 79.3556 24.808 79.1085C24.808 78.8615 24.8643 78.6426 24.9768 78.4518C25.0894 78.2611 25.2442 78.1125 25.4412 78.0062C25.6414 77.8967 25.8681 77.842 26.1214 77.842C26.3465 77.842 26.5467 77.8874 26.7218 77.9781C26.9 78.0656 27.0376 78.197 27.1346 78.3721L26.7921 78.5925C26.7108 78.4706 26.6108 78.3815 26.4919 78.3252C26.3762 78.2658 26.2511 78.236 26.1167 78.236C25.9541 78.236 25.8087 78.272 25.6804 78.3439C25.5522 78.4159 25.4506 78.5175 25.3755 78.6488C25.3005 78.777 25.263 78.9303 25.263 79.1085C25.263 79.2868 25.3005 79.4416 25.3755 79.5729C25.4506 79.7042 25.5522 79.8059 25.6804 79.8778C25.8087 79.9497 25.9541 79.9857 26.1167 79.9857C26.2511 79.9857 26.3762 79.9575 26.4919 79.9013C26.6108 79.8418 26.7108 79.7511 26.7921 79.6292L27.1346 79.845C27.0376 80.017 26.9 80.1499 26.7218 80.2437C26.5467 80.3344 26.3465 80.3797 26.1214 80.3797ZM28.7645 80.3797C28.5112 80.3797 28.2845 80.325 28.0843 80.2155C27.8873 80.1061 27.7325 79.956 27.6199 79.7652C27.5074 79.5745 27.4511 79.3556 27.4511 79.1085C27.4511 78.8615 27.5074 78.6426 27.6199 78.4518C27.7325 78.2611 27.8873 78.1125 28.0843 78.0062C28.2845 77.8967 28.5112 77.842 28.7645 77.842C28.9896 77.842 29.1898 77.8874 29.3649 77.9781C29.5431 78.0656 29.6807 78.197 29.7777 78.3721L29.4353 78.5925C29.354 78.4706 29.2539 78.3815 29.1351 78.3252C29.0193 78.2658 28.8943 78.236 28.7598 78.236C28.5972 78.236 28.4518 78.272 28.3236 78.3439C28.1953 78.4159 28.0937 78.5175 28.0187 78.6488C27.9436 78.777 27.9061 78.9303 27.9061 79.1085C27.9061 79.2868 27.9436 79.4416 28.0187 79.5729C28.0937 79.7042 28.1953 79.8059 28.3236 79.8778C28.4518 79.9497 28.5972 79.9857 28.7598 79.9857C28.8943 79.9857 29.0193 79.9575 29.1351 79.9013C29.2539 79.8418 29.354 79.7511 29.4353 79.6292L29.7777 79.845C29.6807 80.017 29.5431 80.1499 29.3649 80.2437C29.1898 80.3344 28.9896 80.3797 28.7645 80.3797ZM31.3888 80.3797C31.1387 80.3797 30.9166 80.325 30.7228 80.2155C30.5289 80.1061 30.3756 79.956 30.2631 79.7652C30.1505 79.5713 30.0942 79.3524 30.0942 79.1085C30.0942 78.8615 30.1505 78.6426 30.2631 78.4518C30.3756 78.2611 30.5289 78.1125 30.7228 78.0062C30.9166 77.8967 31.1387 77.842 31.3888 77.842C31.6359 77.842 31.8563 77.8967 32.0502 78.0062C32.2472 78.1125 32.4005 78.2611 32.5099 78.4518C32.6225 78.6394 32.6788 78.8583 32.6788 79.1085C32.6788 79.3556 32.6225 79.5745 32.5099 79.7652C32.4005 79.956 32.2472 80.1061 32.0502 80.2155C31.8563 80.325 31.6359 80.3797 31.3888 80.3797ZM31.3888 79.9857C31.5483 79.9857 31.6906 79.9497 31.8157 79.8778C31.9439 79.8059 32.044 79.7042 32.1159 79.5729C32.1878 79.4384 32.2238 79.2836 32.2238 79.1085C32.2238 78.9303 32.1878 78.777 32.1159 78.6488C32.044 78.5175 31.9439 78.4159 31.8157 78.3439C31.6906 78.272 31.5483 78.236 31.3888 78.236C31.2294 78.236 31.0871 78.272 30.962 78.3439C30.8369 78.4159 30.7368 78.5175 30.6618 78.6488C30.5867 78.777 30.5492 78.9303 30.5492 79.1085C30.5492 79.2836 30.5867 79.4384 30.6618 79.5729C30.7368 79.7042 30.8369 79.8059 30.962 79.8778C31.0871 79.9497 31.2294 79.9857 31.3888 79.9857ZM34.3476 80.3797C34.1349 80.3797 33.9473 80.3406 33.7847 80.2624C33.6252 80.1843 33.5001 80.0654 33.4094 79.9059C33.3219 79.7433 33.2781 79.5401 33.2781 79.2961V77.8655H33.7284V79.2446C33.7284 79.4885 33.7863 79.6714 33.902 79.7934C34.0208 79.9153 34.1865 79.9763 34.3992 79.9763C34.5555 79.9763 34.6916 79.945 34.8073 79.8825C34.923 79.8168 35.0121 79.723 35.0746 79.601C35.1372 79.476 35.1685 79.3259 35.1685 79.1507V77.8655H35.6188V80.3516H35.1919V79.6808L35.2623 79.859C35.181 80.0248 35.059 80.153 34.8964 80.2437C34.7338 80.3344 34.5508 80.3797 34.3476 80.3797ZM37.8035 77.842C38.0068 77.842 38.185 77.8811 38.3383 77.9593C38.4946 78.0375 38.6166 78.1563 38.7041 78.3158C38.7917 78.4753 38.8355 78.677 38.8355 78.9209V80.3516H38.3852V78.9725C38.3852 78.7317 38.3257 78.5503 38.2069 78.4284C38.0912 78.3064 37.927 78.2454 37.7144 78.2454C37.5549 78.2454 37.4157 78.2767 37.2969 78.3392C37.1781 78.4018 37.0858 78.494 37.0202 78.616C36.9576 78.738 36.9263 78.8896 36.9263 79.071V80.3516H36.476V77.8655H36.9076V78.5363L36.8372 78.358C36.9185 78.1954 37.0436 78.0687 37.2125 77.9781C37.3813 77.8874 37.5784 77.842 37.8035 77.842ZM40.5226 80.3797C40.2724 80.3797 40.0785 80.3125 39.9409 80.178C39.8033 80.0435 39.7345 79.8512 39.7345 79.601V77.3214H40.1848V79.5823C40.1848 79.7168 40.2177 79.8199 40.2833 79.8919C40.3521 79.9638 40.4491 79.9998 40.5742 79.9998C40.7149 79.9998 40.8321 79.9607 40.926 79.8825L41.0667 80.2062C40.9979 80.2656 40.915 80.3093 40.8181 80.3375C40.7243 80.3656 40.6258 80.3797 40.5226 80.3797ZM39.3124 78.236V77.8655H40.8978V78.236H39.3124Z" fill="#363538"></path><rect x="8.10815" y="83.4187" width="111.495" height="17.6804" rx="4.14949" stroke="#E4E4E4" stroke-width="0.360825"></rect><path d="M17.6265 92.953V92.6246L19.3058 90.4763H19.8124L18.1472 92.6246L17.9079 92.5496H20.53V92.953H17.6265ZM19.4512 93.7598V92.953L19.4653 92.5496V91.8366H19.9062V93.7598H19.4512ZM22.1903 93.7973C21.8995 93.7973 21.6509 93.7332 21.4445 93.605C21.2381 93.4768 21.0802 93.2923 20.9707 93.0515C20.8644 92.8075 20.8112 92.5105 20.8112 92.1602C20.8112 91.7881 20.8769 91.4738 21.0082 91.2174C21.1396 90.961 21.3225 90.7671 21.5571 90.6357C21.7916 90.5044 22.0605 90.4387 22.3639 90.4387C22.5202 90.4387 22.6688 90.4544 22.8095 90.4856C22.9533 90.5169 23.0769 90.5654 23.1801 90.6311L23.0018 90.9969C22.9174 90.9375 22.8204 90.8969 22.711 90.875C22.6047 90.8531 22.4921 90.8421 22.3732 90.8421C22.0386 90.8421 21.7728 90.9469 21.5758 91.1564C21.3788 91.3628 21.2803 91.6708 21.2803 92.0805C21.2803 92.1462 21.2834 92.2243 21.2897 92.315C21.2959 92.4057 21.3116 92.4948 21.3366 92.5824L21.1771 92.4229C21.224 92.2791 21.2975 92.1587 21.3976 92.0617C21.5008 91.9617 21.6227 91.8882 21.7635 91.8413C21.9073 91.7912 22.0621 91.7662 22.2278 91.7662C22.4467 91.7662 22.6406 91.8069 22.8095 91.8882C22.9784 91.9695 23.1113 92.0852 23.2082 92.2353C23.3051 92.3823 23.3536 92.5574 23.3536 92.7606C23.3536 92.9702 23.302 93.1531 23.1988 93.3095C23.0956 93.4658 22.9565 93.5862 22.7813 93.6706C22.6062 93.7551 22.4092 93.7973 22.1903 93.7973ZM22.1715 93.4173C22.3154 93.4173 22.4405 93.3908 22.5468 93.3376C22.6563 93.2844 22.7423 93.211 22.8048 93.1171C22.8673 93.0202 22.8986 92.9076 22.8986 92.7794C22.8986 92.5855 22.8314 92.4323 22.6969 92.3197C22.5624 92.204 22.3795 92.1462 22.1481 92.1462C21.998 92.1462 21.8666 92.1743 21.7541 92.2306C21.6415 92.2869 21.5524 92.3635 21.4867 92.4604C21.4242 92.5542 21.3929 92.6621 21.3929 92.7841C21.3929 92.8967 21.4226 93.0014 21.482 93.0984C21.5414 93.1922 21.629 93.2688 21.7447 93.3282C21.8604 93.3876 22.0027 93.4173 22.1715 93.4173ZM23.6547 93.7598V93.4408L24.9916 92.1508C25.1104 92.0383 25.1979 91.9398 25.2542 91.8553C25.3136 91.7678 25.3527 91.688 25.3715 91.6161C25.3934 91.5411 25.4043 91.4691 25.4043 91.4003C25.4043 91.2315 25.3449 91.0986 25.2261 91.0016C25.1073 90.9047 24.9337 90.8562 24.7054 90.8562C24.5303 90.8562 24.3724 90.8859 24.2317 90.9453C24.0909 91.0016 23.969 91.0907 23.8658 91.2127L23.5468 90.9359C23.6719 90.7765 23.8392 90.6545 24.0487 90.5701C24.2614 90.4825 24.4943 90.4387 24.7476 90.4387C24.9759 90.4387 25.1745 90.4763 25.3434 90.5513C25.5122 90.6232 25.642 90.728 25.7327 90.8656C25.8265 91.0032 25.8734 91.1658 25.8734 91.3534C25.8734 91.4597 25.8593 91.5645 25.8312 91.6677C25.803 91.7709 25.7499 91.8803 25.6717 91.9961C25.5935 92.1118 25.481 92.2415 25.334 92.3854L24.1425 93.5346L24.03 93.3517H26.0141V93.7598H23.6547ZM27.4599 93.7973C27.2285 93.7973 27.0033 93.7613 26.7844 93.6894C26.5687 93.6175 26.392 93.5205 26.2544 93.3986L26.4702 93.028C26.5796 93.1312 26.7219 93.2156 26.897 93.2813C27.0721 93.347 27.2582 93.3798 27.4552 93.3798C27.7054 93.3798 27.8977 93.3267 28.0322 93.2203C28.1666 93.114 28.2339 92.9717 28.2339 92.7935C28.2339 92.6715 28.2042 92.5652 28.1447 92.4745C28.0853 92.3838 27.9821 92.315 27.8352 92.2681C27.6913 92.2181 27.4927 92.1931 27.2394 92.1931H26.4936L26.6672 90.4763H28.52V90.8844H26.8407L27.0846 90.6545L26.9486 92.0101L26.7047 91.785H27.3379C27.6663 91.785 27.9305 91.8272 28.1307 91.9116C28.3308 91.9961 28.4762 92.1133 28.5669 92.2634C28.6576 92.4104 28.7029 92.5808 28.7029 92.7747C28.7029 92.9623 28.6576 93.1343 28.5669 93.2907C28.4762 93.4439 28.3386 93.5674 28.1541 93.6613C27.9728 93.7519 27.7413 93.7973 27.4599 93.7973ZM30.4348 93.7973C30.1784 93.7973 29.9486 93.7316 29.7453 93.6003C29.5452 93.4689 29.3857 93.2782 29.2669 93.028C29.1512 92.7778 29.0933 92.4745 29.0933 92.118C29.0933 91.7615 29.1512 91.4582 29.2669 91.208C29.3857 90.9578 29.5452 90.7671 29.7453 90.6357C29.9486 90.5044 30.1784 90.4387 30.4348 90.4387C30.6881 90.4387 30.9164 90.5044 31.1197 90.6357C31.323 90.7671 31.4824 90.9578 31.5981 91.208C31.7139 91.4582 31.7717 91.7615 31.7717 92.118C31.7717 92.4745 31.7139 92.7778 31.5981 93.028C31.4824 93.2782 31.323 93.4689 31.1197 93.6003C30.9164 93.7316 30.6881 93.7973 30.4348 93.7973ZM30.4348 93.3798C30.6068 93.3798 30.7569 93.3329 30.8852 93.2391C31.0165 93.1453 31.1181 93.0046 31.1901 92.8169C31.2651 92.6293 31.3026 92.3963 31.3026 92.118C31.3026 91.8397 31.2651 91.6067 31.1901 91.4191C31.1181 91.2315 31.0165 91.0907 30.8852 90.9969C30.7569 90.9031 30.6068 90.8562 30.4348 90.8562C30.2629 90.8562 30.1112 90.9031 29.9798 90.9969C29.8485 91.0907 29.7453 91.2315 29.6703 91.4191C29.5983 91.6067 29.5624 91.8397 29.5624 92.118C29.5624 92.3963 29.5983 92.6293 29.6703 92.8169C29.7453 93.0046 29.8485 93.1453 29.9798 93.2391C30.1112 93.3329 30.2629 93.3798 30.4348 93.3798ZM33.18 93.7973C32.9486 93.7973 32.7234 93.7613 32.5045 93.6894C32.2887 93.6175 32.1121 93.5205 31.9745 93.3986L32.1902 93.028C32.2997 93.1312 32.442 93.2156 32.6171 93.2813C32.7922 93.347 32.9798 93.3798 33.18 93.3798C33.4239 93.3798 33.6131 93.3282 33.7476 93.225C33.8852 93.1187 33.954 92.9764 33.954 92.7982C33.954 92.6262 33.8883 92.4886 33.7569 92.3854C33.6287 92.2791 33.4239 92.2259 33.1425 92.2259H32.8798V91.8975L33.8554 90.6967L33.9211 90.8844H32.1246V90.4763H34.2917V90.7952L33.3207 91.9914L33.0768 91.8459H33.2316C33.6287 91.8459 33.9258 91.9351 34.1228 92.1133C34.323 92.2916 34.423 92.5183 34.423 92.7935C34.423 92.978 34.3777 93.1468 34.287 93.3001C34.1963 93.4533 34.0587 93.5753 33.8742 93.666C33.6928 93.7535 33.4614 93.7973 33.18 93.7973ZM35.9253 90.4387C36.2224 90.4387 36.4726 90.5028 36.6758 90.6311C36.8822 90.7593 37.0386 90.9453 37.1449 91.1892C37.2512 91.43 37.3044 91.7256 37.3044 92.0758C37.3044 92.4479 37.2387 92.7622 37.1074 93.0186C36.976 93.2751 36.7947 93.4689 36.5632 93.6003C36.3318 93.7316 36.0613 93.7973 35.7517 93.7973C35.5985 93.7973 35.45 93.7817 35.3061 93.7504C35.1654 93.7191 35.0419 93.6706 34.9356 93.605L35.1138 93.2391C35.2014 93.2954 35.2983 93.336 35.4046 93.3611C35.5141 93.3829 35.6282 93.3939 35.7471 93.3939C36.0785 93.3939 36.3428 93.2907 36.5398 93.0843C36.7368 92.8748 36.8353 92.5652 36.8353 92.1555C36.8353 92.0899 36.8322 92.0117 36.8259 91.921C36.8197 91.8303 36.8056 91.7412 36.7837 91.6536L36.9385 91.8131C36.8947 91.957 36.8212 92.0789 36.718 92.179C36.618 92.2759 36.496 92.3494 36.3522 92.3995C36.2114 92.4464 36.0566 92.4698 35.8878 92.4698C35.672 92.4698 35.4797 92.4292 35.3108 92.3479C35.142 92.2666 35.009 92.1524 34.9121 92.0054C34.8152 91.8553 34.7667 91.6786 34.7667 91.4754C34.7667 91.2627 34.8167 91.0798 34.9168 90.9266C35.02 90.7702 35.1592 90.6498 35.3343 90.5654C35.5125 90.4809 35.7095 90.4387 35.9253 90.4387ZM35.9441 90.8187C35.8033 90.8187 35.6783 90.8453 35.5688 90.8984C35.4594 90.9516 35.3734 91.0251 35.3108 91.1189C35.2514 91.2127 35.2217 91.3253 35.2217 91.4566C35.2217 91.6505 35.2889 91.8053 35.4234 91.921C35.5579 92.0336 35.7392 92.0899 35.9675 92.0899C36.1176 92.0899 36.249 92.0617 36.3615 92.0054C36.4772 91.9491 36.5664 91.8725 36.6289 91.7756C36.6946 91.6786 36.7274 91.5708 36.7274 91.4519C36.7274 91.3362 36.6977 91.2315 36.6383 91.1377C36.5789 91.0438 36.4913 90.9672 36.3756 90.9078C36.2599 90.8484 36.1161 90.8187 35.9441 90.8187ZM38.7136 93.7973C38.4822 93.7973 38.257 93.7613 38.0381 93.6894C37.8223 93.6175 37.6457 93.5205 37.5081 93.3986L37.7238 93.028C37.8333 93.1312 37.9756 93.2156 38.1507 93.2813C38.3258 93.347 38.5134 93.3798 38.7136 93.3798C38.9575 93.3798 39.1467 93.3282 39.2812 93.225C39.4187 93.1187 39.4875 92.9764 39.4875 92.7982C39.4875 92.6262 39.4219 92.4886 39.2905 92.3854C39.1623 92.2791 38.9575 92.2259 38.676 92.2259H38.4134V91.8975L39.389 90.6967L39.4547 90.8844H37.6582V90.4763H39.8253V90.7952L38.8543 91.9914L38.6104 91.8459H38.7652C39.1623 91.8459 39.4594 91.9351 39.6564 92.1133C39.8565 92.2916 39.9566 92.5183 39.9566 92.7935C39.9566 92.978 39.9113 93.1468 39.8206 93.3001C39.7299 93.4533 39.5923 93.5753 39.4078 93.666C39.2264 93.7535 38.995 93.7973 38.7136 93.7973Z" fill="#1B1B1B"></path><path d="M63.4988 93.7598V90.6639L63.7005 90.8844H62.7577V90.4763H63.9632V93.7598H63.4988ZM66.023 93.7973C65.7665 93.7973 65.5367 93.7316 65.3334 93.6003C65.1333 93.4689 64.9738 93.2782 64.855 93.028C64.7393 92.7778 64.6814 92.4745 64.6814 92.118C64.6814 91.7615 64.7393 91.4582 64.855 91.208C64.9738 90.9578 65.1333 90.7671 65.3334 90.6357C65.5367 90.5044 65.7665 90.4387 66.023 90.4387C66.2763 90.4387 66.5045 90.5044 66.7078 90.6357C66.9111 90.7671 67.0706 90.9578 67.1863 91.208C67.302 91.4582 67.3598 91.7615 67.3598 92.118C67.3598 92.4745 67.302 92.7778 67.1863 93.028C67.0706 93.2782 66.9111 93.4689 66.7078 93.6003C66.5045 93.7316 66.2763 93.7973 66.023 93.7973ZM66.023 93.3798C66.195 93.3798 66.3451 93.3329 66.4733 93.2391C66.6046 93.1453 66.7062 93.0046 66.7782 92.8169C66.8532 92.6293 66.8908 92.3963 66.8908 92.118C66.8908 91.8397 66.8532 91.6067 66.7782 91.4191C66.7062 91.2315 66.6046 91.0907 66.4733 90.9969C66.3451 90.9031 66.195 90.8562 66.023 90.8562C65.851 90.8562 65.6993 90.9031 65.568 90.9969C65.4366 91.0907 65.3334 91.2315 65.2584 91.4191C65.1865 91.6067 65.1505 91.8397 65.1505 92.118C65.1505 92.3963 65.1865 92.6293 65.2584 92.8169C65.3334 93.0046 65.4366 93.1453 65.568 93.2391C65.6993 93.3329 65.851 93.3798 66.023 93.3798ZM69.1516 93.7973C68.8952 93.7973 68.6654 93.7316 68.4621 93.6003C68.262 93.4689 68.1025 93.2782 67.9837 93.028C67.8679 92.7778 67.8101 92.4745 67.8101 92.118C67.8101 91.7615 67.8679 91.4582 67.9837 91.208C68.1025 90.9578 68.262 90.7671 68.4621 90.6357C68.6654 90.5044 68.8952 90.4387 69.1516 90.4387C69.4049 90.4387 69.6332 90.5044 69.8365 90.6357C70.0398 90.7671 70.1992 90.9578 70.3149 91.208C70.4306 91.4582 70.4885 91.7615 70.4885 92.118C70.4885 92.4745 70.4306 92.7778 70.3149 93.028C70.1992 93.2782 70.0398 93.4689 69.8365 93.6003C69.6332 93.7316 69.4049 93.7973 69.1516 93.7973ZM69.1516 93.3798C69.3236 93.3798 69.4737 93.3329 69.602 93.2391C69.7333 93.1453 69.8349 93.0046 69.9069 92.8169C69.9819 92.6293 70.0194 92.3963 70.0194 92.118C70.0194 91.8397 69.9819 91.6067 69.9069 91.4191C69.8349 91.2315 69.7333 91.0907 69.602 90.9969C69.4737 90.9031 69.3236 90.8562 69.1516 90.8562C68.9797 90.8562 68.828 90.9031 68.6966 90.9969C68.5653 91.0907 68.4621 91.2315 68.3871 91.4191C68.3151 91.6067 68.2792 91.8397 68.2792 92.118C68.2792 92.3963 68.3151 92.6293 68.3871 92.8169C68.4621 93.0046 68.5653 93.1453 68.6966 93.2391C68.828 93.3329 68.9797 93.3798 69.1516 93.3798ZM72.2803 93.7973C72.0239 93.7973 71.794 93.7316 71.5908 93.6003C71.3906 93.4689 71.2312 93.2782 71.1123 93.028C70.9966 92.7778 70.9388 92.4745 70.9388 92.118C70.9388 91.7615 70.9966 91.4582 71.1123 91.208C71.2312 90.9578 71.3906 90.7671 71.5908 90.6357C71.794 90.5044 72.0239 90.4387 72.2803 90.4387C72.5336 90.4387 72.7619 90.5044 72.9652 90.6357C73.1684 90.7671 73.3279 90.9578 73.4436 91.208C73.5593 91.4582 73.6172 91.7615 73.6172 92.118C73.6172 92.4745 73.5593 92.7778 73.4436 93.028C73.3279 93.2782 73.1684 93.4689 72.9652 93.6003C72.7619 93.7316 72.5336 93.7973 72.2803 93.7973ZM72.2803 93.3798C72.4523 93.3798 72.6024 93.3329 72.7306 93.2391C72.862 93.1453 72.9636 93.0046 73.0355 92.8169C73.1106 92.6293 73.1481 92.3963 73.1481 92.118C73.1481 91.8397 73.1106 91.6067 73.0355 91.4191C72.9636 91.2315 72.862 91.0907 72.7306 90.9969C72.6024 90.9031 72.4523 90.8562 72.2803 90.8562C72.1083 90.8562 71.9567 90.9031 71.8253 90.9969C71.694 91.0907 71.5908 91.2315 71.5157 91.4191C71.4438 91.6067 71.4078 91.8397 71.4078 92.118C71.4078 92.3963 71.4438 92.6293 71.5157 92.8169C71.5908 93.0046 71.694 93.1453 71.8253 93.2391C71.9567 93.3329 72.1083 93.3798 72.2803 93.3798ZM75.409 93.7973C75.1526 93.7973 74.9227 93.7316 74.7195 93.6003C74.5193 93.4689 74.3598 93.2782 74.241 93.028C74.1253 92.7778 74.0675 92.4745 74.0675 92.118C74.0675 91.7615 74.1253 91.4582 74.241 91.208C74.3598 90.9578 74.5193 90.7671 74.7195 90.6357C74.9227 90.5044 75.1526 90.4387 75.409 90.4387C75.6623 90.4387 75.8906 90.5044 76.0938 90.6357C76.2971 90.7671 76.4566 90.9578 76.5723 91.208C76.688 91.4582 76.7459 91.7615 76.7459 92.118C76.7459 92.4745 76.688 92.7778 76.5723 93.028C76.4566 93.2782 76.2971 93.4689 76.0938 93.6003C75.8906 93.7316 75.6623 93.7973 75.409 93.7973ZM75.409 93.3798C75.581 93.3798 75.7311 93.3329 75.8593 93.2391C75.9906 93.1453 76.0923 93.0046 76.1642 92.8169C76.2393 92.6293 76.2768 92.3963 76.2768 92.118C76.2768 91.8397 76.2393 91.6067 76.1642 91.4191C76.0923 91.2315 75.9906 91.0907 75.8593 90.9969C75.7311 90.9031 75.581 90.8562 75.409 90.8562C75.237 90.8562 75.0853 90.9031 74.954 90.9969C74.8227 91.0907 74.7195 91.2315 74.6444 91.4191C74.5725 91.6067 74.5365 91.8397 74.5365 92.118C74.5365 92.3963 74.5725 92.6293 74.6444 92.8169C74.7195 93.0046 74.8227 93.1453 74.954 93.2391C75.0853 93.3329 75.237 93.3798 75.409 93.3798ZM77.4507 93.7879C77.3632 93.7879 77.2881 93.7582 77.2256 93.6988C77.163 93.6362 77.1318 93.5581 77.1318 93.4642C77.1318 93.3704 77.163 93.2938 77.2256 93.2344C77.2881 93.175 77.3632 93.1453 77.4507 93.1453C77.5352 93.1453 77.6071 93.175 77.6665 93.2344C77.7291 93.2938 77.7603 93.3704 77.7603 93.4642C77.7603 93.5581 77.7291 93.6362 77.6665 93.6988C77.6071 93.7582 77.5352 93.7879 77.4507 93.7879ZM79.4905 93.7973C79.2341 93.7973 79.0042 93.7316 78.8009 93.6003C78.6008 93.4689 78.4413 93.2782 78.3225 93.028C78.2068 92.7778 78.1489 92.4745 78.1489 92.118C78.1489 91.7615 78.2068 91.4582 78.3225 91.208C78.4413 90.9578 78.6008 90.7671 78.8009 90.6357C79.0042 90.5044 79.2341 90.4387 79.4905 90.4387C79.7438 90.4387 79.9721 90.5044 80.1753 90.6357C80.3786 90.7671 80.5381 90.9578 80.6538 91.208C80.7695 91.4582 80.8273 91.7615 80.8273 92.118C80.8273 92.4745 80.7695 92.7778 80.6538 93.028C80.5381 93.2782 80.3786 93.4689 80.1753 93.6003C79.9721 93.7316 79.7438 93.7973 79.4905 93.7973ZM79.4905 93.3798C79.6625 93.3798 79.8126 93.3329 79.9408 93.2391C80.0721 93.1453 80.1738 93.0046 80.2457 92.8169C80.3207 92.6293 80.3583 92.3963 80.3583 92.118C80.3583 91.8397 80.3207 91.6067 80.2457 91.4191C80.1738 91.2315 80.0721 91.0907 79.9408 90.9969C79.8126 90.9031 79.6625 90.8562 79.4905 90.8562C79.3185 90.8562 79.1668 90.9031 79.0355 90.9969C78.9041 91.0907 78.8009 91.2315 78.7259 91.4191C78.654 91.6067 78.618 91.8397 78.618 92.118C78.618 92.3963 78.654 92.6293 78.7259 92.8169C78.8009 93.0046 78.9041 93.1453 79.0355 93.2391C79.1668 93.3329 79.3185 93.3798 79.4905 93.3798ZM82.6192 93.7973C82.3627 93.7973 82.1329 93.7316 81.9296 93.6003C81.7295 93.4689 81.57 93.2782 81.4512 93.028C81.3355 92.7778 81.2776 92.4745 81.2776 92.118C81.2776 91.7615 81.3355 91.4582 81.4512 91.208C81.57 90.9578 81.7295 90.7671 81.9296 90.6357C82.1329 90.5044 82.3627 90.4387 82.6192 90.4387C82.8725 90.4387 83.1007 90.5044 83.304 90.6357C83.5073 90.7671 83.6668 90.9578 83.7825 91.208C83.8982 91.4582 83.956 91.7615 83.956 92.118C83.956 92.4745 83.8982 92.7778 83.7825 93.028C83.6668 93.2782 83.5073 93.4689 83.304 93.6003C83.1007 93.7316 82.8725 93.7973 82.6192 93.7973ZM82.6192 93.3798C82.7911 93.3798 82.9413 93.3329 83.0695 93.2391C83.2008 93.1453 83.3024 93.0046 83.3744 92.8169C83.4494 92.6293 83.4869 92.3963 83.4869 92.118C83.4869 91.8397 83.4494 91.6067 83.3744 91.4191C83.3024 91.2315 83.2008 91.0907 83.0695 90.9969C82.9413 90.9031 82.7911 90.8562 82.6192 90.8562C82.4472 90.8562 82.2955 90.9031 82.1642 90.9969C82.0328 91.0907 81.9296 91.2315 81.8546 91.4191C81.7826 91.6067 81.7467 91.8397 81.7467 92.118C81.7467 92.3963 81.7826 92.6293 81.8546 92.8169C81.9296 93.0046 82.0328 93.1453 82.1642 93.2391C82.2955 93.3329 82.4472 93.3798 82.6192 93.3798ZM87.2937 93.7973C86.8621 93.7973 86.5228 93.6738 86.2758 93.4267C86.0288 93.1797 85.9052 92.8185 85.9052 92.3432V90.4763H86.3743V92.3244C86.3743 92.6903 86.454 92.9577 86.6135 93.1265C86.7761 93.2954 87.0044 93.3798 87.2984 93.3798C87.5955 93.3798 87.8237 93.2954 87.9832 93.1265C88.1458 92.9577 88.2271 92.6903 88.2271 92.3244V90.4763H88.6821V92.3432C88.6821 92.8185 88.5586 93.1797 88.3116 93.4267C88.0677 93.6738 87.7284 93.7973 87.2937 93.7973ZM90.6007 93.7973C90.3505 93.7973 90.1113 93.7598 89.883 93.6847C89.6548 93.6065 89.4749 93.5065 89.3436 93.3845L89.5172 93.0186C89.6422 93.1281 89.8017 93.2188 89.9956 93.2907C90.1895 93.3626 90.3912 93.3986 90.6007 93.3986C90.7915 93.3986 90.9463 93.3767 91.0651 93.3329C91.1839 93.2891 91.2715 93.2297 91.3278 93.1547C91.3841 93.0765 91.4122 92.9889 91.4122 92.892C91.4122 92.7794 91.3747 92.6887 91.2996 92.6199C91.2277 92.5511 91.1323 92.4964 91.0135 92.4557C90.8978 92.412 90.7696 92.3744 90.6289 92.3432C90.4881 92.3119 90.3459 92.2759 90.202 92.2353C90.0613 92.1915 89.9315 92.1368 89.8127 92.0711C89.697 92.0054 89.6032 91.9179 89.5312 91.8084C89.4593 91.6958 89.4233 91.552 89.4233 91.3769C89.4233 91.208 89.4671 91.0532 89.5547 90.9125C89.6454 90.7686 89.783 90.6545 89.9675 90.5701C90.1551 90.4825 90.3928 90.4387 90.6805 90.4387C90.8712 90.4387 91.0604 90.4637 91.248 90.5138C91.4357 90.5638 91.5983 90.6357 91.7359 90.7296L91.5811 91.1048C91.4404 91.011 91.2918 90.9438 91.1355 90.9031C90.9791 90.8593 90.8274 90.8374 90.6805 90.8374C90.496 90.8374 90.3443 90.8609 90.2255 90.9078C90.1066 90.9547 90.0191 91.0173 89.9628 91.0954C89.9096 91.1736 89.883 91.2612 89.883 91.3581C89.883 91.4738 89.919 91.5661 89.9909 91.6349C90.066 91.7037 90.1614 91.7584 90.2771 91.799C90.3959 91.8397 90.5257 91.8772 90.6664 91.9116C90.8071 91.9429 90.9478 91.9789 91.0886 92.0195C91.2324 92.0602 91.3622 92.1133 91.4779 92.179C91.5967 92.2447 91.6921 92.3322 91.764 92.4417C91.8359 92.5511 91.8719 92.6918 91.8719 92.8638C91.8719 93.0296 91.8266 93.1844 91.7359 93.3282C91.6452 93.4689 91.5045 93.5831 91.3137 93.6706C91.1261 93.7551 90.8884 93.7973 90.6007 93.7973ZM92.5572 93.7598V90.4763H93.941C94.2912 90.4763 94.5992 90.5451 94.865 90.6826C95.134 90.8202 95.3419 91.0126 95.4889 91.2596C95.639 91.5067 95.714 91.7928 95.714 92.118C95.714 92.4432 95.639 92.7294 95.4889 92.9764C95.3419 93.2235 95.134 93.4158 94.865 93.5534C94.5992 93.691 94.2912 93.7598 93.941 93.7598H92.5572ZM93.0263 93.3517H93.9128C94.1849 93.3517 94.4194 93.3001 94.6164 93.1969C94.8166 93.0937 94.9714 92.9498 95.0808 92.7653C95.1903 92.5777 95.245 92.3619 95.245 92.118C95.245 91.871 95.1903 91.6552 95.0808 91.4707C94.9714 91.2862 94.8166 91.1423 94.6164 91.0391C94.4194 90.9359 94.1849 90.8844 93.9128 90.8844H93.0263V93.3517Z" fill="#1B1B1B"></path><path d="M106.432 91.1777L108.597 93.3427L110.762 91.1777" stroke="#1B1B1B" stroke-width="0.360825" stroke-linecap="round" stroke-linejoin="round"></path><rect x="7.92773" y="112.826" width="111.856" height="18.0413" rx="9.02063" fill="#B4E913"></rect><path d="M59.1885 123.891C58.8999 123.891 58.6329 123.844 58.3875 123.75C58.1457 123.653 57.9347 123.518 57.7542 123.344C57.5774 123.168 57.4385 122.962 57.3375 122.727C57.2365 122.493 57.1859 122.235 57.1859 121.953C57.1859 121.672 57.2365 121.414 57.3375 121.179C57.4385 120.945 57.5792 120.741 57.7597 120.568C57.9401 120.391 58.1511 120.256 58.3929 120.162C58.6383 120.064 58.9053 120.016 59.1939 120.016C59.4862 120.016 59.755 120.066 60.0004 120.167C60.2493 120.265 60.4604 120.411 60.6336 120.606L60.2818 120.947C60.1375 120.795 59.9751 120.683 59.7947 120.611C59.6143 120.535 59.4213 120.497 59.2156 120.497C59.0027 120.497 58.8042 120.533 58.6202 120.606C58.4398 120.678 58.2829 120.779 58.1493 120.909C58.0158 121.039 57.9112 121.194 57.8354 121.374C57.7633 121.551 57.7272 121.744 57.7272 121.953C57.7272 122.163 57.7633 122.357 57.8354 122.538C57.9112 122.715 58.0158 122.868 58.1493 122.998C58.2829 123.128 58.4398 123.229 58.6202 123.301C58.8042 123.373 59.0027 123.409 59.2156 123.409C59.4213 123.409 59.6143 123.373 59.7947 123.301C59.9751 123.225 60.1375 123.11 60.2818 122.955L60.6336 123.296C60.4604 123.49 60.2493 123.638 60.0004 123.739C59.755 123.84 59.4844 123.891 59.1885 123.891ZM62.437 123.88C62.1483 123.88 61.8922 123.817 61.6684 123.691C61.4447 123.564 61.2679 123.391 61.138 123.171C61.0081 122.947 60.9432 122.695 60.9432 122.413C60.9432 122.128 61.0081 121.876 61.138 121.656C61.2679 121.436 61.4447 121.264 61.6684 121.141C61.8922 121.015 62.1483 120.952 62.437 120.952C62.7221 120.952 62.9764 121.015 63.2001 121.141C63.4275 121.264 63.6043 121.436 63.7306 121.656C63.8605 121.872 63.9254 122.125 63.9254 122.413C63.9254 122.698 63.8605 122.951 63.7306 123.171C63.6043 123.391 63.4275 123.564 63.2001 123.691C62.9764 123.817 62.7221 123.88 62.437 123.88ZM62.437 123.425C62.621 123.425 62.7852 123.384 62.9295 123.301C63.0775 123.218 63.1929 123.101 63.2759 122.949C63.3589 122.794 63.4004 122.615 63.4004 122.413C63.4004 122.208 63.3589 122.031 63.2759 121.883C63.1929 121.731 63.0775 121.614 62.9295 121.531C62.7852 121.448 62.621 121.407 62.437 121.407C62.253 121.407 62.0888 121.448 61.9445 121.531C61.8001 121.614 61.6847 121.731 61.5981 121.883C61.5115 122.031 61.4682 122.208 61.4682 122.413C61.4682 122.615 61.5115 122.794 61.5981 122.949C61.6847 123.101 61.8001 123.218 61.9445 123.301C62.0888 123.384 62.253 123.425 62.437 123.425ZM66.1649 123.88C65.9267 123.88 65.7084 123.826 65.51 123.718C65.3151 123.606 65.1582 123.442 65.0391 123.225C64.9236 123.009 64.8659 122.738 64.8659 122.413C64.8659 122.089 64.9218 121.818 65.0337 121.602C65.1491 121.385 65.3043 121.223 65.4991 121.114C65.6976 121.006 65.9195 120.952 66.1649 120.952C66.4463 120.952 66.6953 121.013 66.9118 121.136C67.1283 121.259 67.2997 121.43 67.4259 121.65C67.5522 121.867 67.6154 122.121 67.6154 122.413C67.6154 122.706 67.5522 122.962 67.4259 123.182C67.2997 123.402 67.1283 123.573 66.9118 123.696C66.6953 123.819 66.4463 123.88 66.1649 123.88ZM64.644 124.898V120.979H65.1419V121.753L65.1094 122.419L65.1636 123.085V124.898H64.644ZM66.1216 123.425C66.3056 123.425 66.4698 123.384 66.6141 123.301C66.762 123.218 66.8775 123.101 66.9605 122.949C67.0471 122.794 67.0904 122.615 67.0904 122.413C67.0904 122.208 67.0471 122.031 66.9605 121.883C66.8775 121.731 66.762 121.614 66.6141 121.531C66.4698 121.448 66.3056 121.407 66.1216 121.407C65.9412 121.407 65.777 121.448 65.629 121.531C65.4847 121.614 65.3692 121.731 65.2826 121.883C65.1997 122.031 65.1582 122.208 65.1582 122.413C65.1582 122.615 65.1997 122.794 65.2826 122.949C65.3692 123.101 65.4847 123.218 65.629 123.301C65.777 123.384 65.9412 123.425 66.1216 123.425ZM68.3785 124.93C68.2414 124.93 68.1079 124.907 67.978 124.86C67.8481 124.816 67.7362 124.752 67.6424 124.665L67.8643 124.275C67.9365 124.344 68.0159 124.396 68.1025 124.432C68.189 124.468 68.2811 124.486 68.3785 124.486C68.5048 124.486 68.6094 124.454 68.6924 124.389C68.7754 124.324 68.853 124.208 68.9251 124.043L69.1037 123.647L69.1579 123.582L70.2836 120.979H70.7924L69.4014 124.135C69.3184 124.337 69.2246 124.495 69.12 124.611C69.0189 124.726 68.9071 124.807 68.7844 124.854C68.6617 124.905 68.5264 124.93 68.3785 124.93ZM69.0604 123.94L67.7506 120.979H68.2919L69.4068 123.534L69.0604 123.94Z" fill="#1B1B1B"></path><rect x="8.10815" y="133.934" width="111.495" height="17.6804" rx="8.84021" fill="white"></rect><rect x="8.10815" y="133.934" width="111.495" height="17.6804" rx="8.84021" stroke="#BEBEBE" stroke-width="0.360825"></rect><path d="M56.7836 144.819C56.4949 144.819 56.2279 144.772 55.9826 144.678C55.7408 144.581 55.5297 144.445 55.3493 144.272C55.1725 144.095 55.0336 143.89 54.9326 143.655C54.8315 143.42 54.781 143.163 54.781 142.881C54.781 142.6 54.8315 142.342 54.9326 142.107C55.0336 141.873 55.1743 141.669 55.3547 141.495C55.5352 141.319 55.7462 141.183 55.988 141.09C56.2334 140.992 56.5004 140.943 56.789 140.943C57.0813 140.943 57.3501 140.994 57.5955 141.095C57.8444 141.192 58.0555 141.339 58.2287 141.533L57.8769 141.874C57.7326 141.723 57.5702 141.611 57.3898 141.539C57.2094 141.463 57.0163 141.425 56.8107 141.425C56.5978 141.425 56.3993 141.461 56.2153 141.533C56.0349 141.606 55.8779 141.707 55.7444 141.836C55.6109 141.966 55.5063 142.122 55.4305 142.302C55.3584 142.479 55.3223 142.672 55.3223 142.881C55.3223 143.09 55.3584 143.285 55.4305 143.466C55.5063 143.642 55.6109 143.796 55.7444 143.926C55.8779 144.056 56.0349 144.157 56.2153 144.229C56.3993 144.301 56.5978 144.337 56.8107 144.337C57.0163 144.337 57.2094 144.301 57.3898 144.229C57.5702 144.153 57.7326 144.038 57.8769 143.882L58.2287 144.223C58.0555 144.418 57.8444 144.566 57.5955 144.667C57.3501 144.768 57.0795 144.819 56.7836 144.819ZM60.6687 144.775V144.169L60.6417 144.056V143.022C60.6417 142.802 60.5767 142.632 60.4468 142.513C60.3205 142.39 60.1293 142.329 59.8731 142.329C59.7035 142.329 59.5375 142.358 59.3752 142.416C59.2128 142.47 59.0757 142.544 58.9638 142.638L58.7473 142.248C58.8953 142.129 59.0721 142.039 59.2777 141.977C59.487 141.912 59.7053 141.88 59.9326 141.88C60.3259 141.88 60.629 141.975 60.8419 142.167C61.0548 142.358 61.1612 142.65 61.1612 143.043V144.775H60.6687ZM59.727 144.808C59.5141 144.808 59.3265 144.772 59.1641 144.7C59.0053 144.627 58.8826 144.528 58.796 144.402C58.7094 144.272 58.6661 144.126 58.6661 143.964C58.6661 143.808 58.7022 143.668 58.7744 143.541C58.8502 143.415 58.971 143.314 59.137 143.238C59.3066 143.163 59.5339 143.125 59.819 143.125H60.7283V143.498H59.8406C59.5808 143.498 59.4058 143.541 59.3156 143.628C59.2254 143.715 59.1803 143.819 59.1803 143.942C59.1803 144.083 59.2362 144.196 59.3481 144.283C59.46 144.366 59.6151 144.407 59.8136 144.407C60.0084 144.407 60.178 144.364 60.3223 144.277C60.4703 144.191 60.5767 144.065 60.6417 143.899L60.7445 144.256C60.6759 144.425 60.5551 144.561 60.3819 144.662C60.2087 144.759 59.9904 144.808 59.727 144.808ZM63.6545 141.88C63.889 141.88 64.0947 141.925 64.2715 142.015C64.4519 142.105 64.5926 142.242 64.6937 142.426C64.7947 142.61 64.8452 142.843 64.8452 143.125V144.775H64.3256V143.184C64.3256 142.906 64.2571 142.697 64.12 142.556C63.9865 142.416 63.797 142.345 63.5517 142.345C63.3676 142.345 63.2071 142.381 63.07 142.453C62.9328 142.526 62.8264 142.632 62.7506 142.773C62.6785 142.914 62.6424 143.089 62.6424 143.298V144.775H62.1228V141.907H62.6207V142.681L62.5395 142.475C62.6334 142.288 62.7777 142.141 62.9725 142.037C63.1674 141.932 63.3947 141.88 63.6545 141.88ZM67.0571 144.808C66.7648 144.808 66.5032 144.745 66.2723 144.618C66.0449 144.492 65.8663 144.319 65.7364 144.099C65.6065 143.879 65.5416 143.626 65.5416 143.341C65.5416 143.056 65.6065 142.803 65.7364 142.583C65.8663 142.363 66.0449 142.192 66.2723 142.069C66.5032 141.943 66.7648 141.88 67.0571 141.88C67.3169 141.88 67.5478 141.932 67.7498 142.037C67.9555 142.138 68.1143 142.289 68.2261 142.491L67.831 142.746C67.7372 142.605 67.6217 142.502 67.4846 142.437C67.3511 142.369 67.2068 142.334 67.0516 142.334C66.864 142.334 66.6962 142.376 66.5483 142.459C66.4004 142.542 66.2831 142.659 66.1965 142.811C66.1099 142.959 66.0666 143.135 66.0666 143.341C66.0666 143.547 66.1099 143.725 66.1965 143.877C66.2831 144.028 66.4004 144.146 66.5483 144.229C66.6962 144.312 66.864 144.353 67.0516 144.353C67.2068 144.353 67.3511 144.321 67.4846 144.256C67.6217 144.187 67.7372 144.083 67.831 143.942L68.2261 144.191C68.1143 144.389 67.9555 144.543 67.7498 144.651C67.5478 144.756 67.3169 144.808 67.0571 144.808ZM70.1339 144.808C69.8272 144.808 69.5565 144.745 69.322 144.618C69.0911 144.492 68.9107 144.319 68.7808 144.099C68.6545 143.879 68.5913 143.626 68.5913 143.341C68.5913 143.056 68.6527 142.803 68.7754 142.583C68.9016 142.363 69.073 142.192 69.2895 142.069C69.5096 141.943 69.7568 141.88 70.031 141.88C70.3089 141.88 70.5542 141.941 70.7671 142.064C70.98 142.186 71.146 142.36 71.2651 142.583C71.3877 142.803 71.4491 143.061 71.4491 143.357C71.4491 143.379 71.4473 143.404 71.4437 143.433C71.4437 143.462 71.4419 143.489 71.4382 143.514H68.9973V143.141H71.1676L70.9565 143.271C70.9602 143.087 70.9223 142.923 70.8429 142.778C70.7635 142.634 70.6535 142.522 70.5127 142.443C70.3756 142.36 70.2151 142.318 70.031 142.318C69.8506 142.318 69.6901 142.36 69.5493 142.443C69.4086 142.522 69.2986 142.636 69.2192 142.784C69.1398 142.928 69.1001 143.094 69.1001 143.282V143.368C69.1001 143.559 69.1434 143.731 69.23 143.882C69.3202 144.03 69.4447 144.146 69.6035 144.229C69.7622 144.312 69.9444 144.353 70.1501 144.353C70.3197 144.353 70.473 144.324 70.6102 144.267C70.7509 144.209 70.8736 144.122 70.9782 144.007L71.2651 144.342C71.1352 144.494 70.9728 144.609 70.7779 144.689C70.5867 144.768 70.372 144.808 70.1339 144.808ZM72.1706 144.775V140.759H72.6902V144.775H72.1706Z" fill="#1B1B1B"></path></svg> 