<?xml version="1.0" encoding="UTF-8"?> <svg xmlns="http://www.w3.org/2000/svg" width="38" height="38" viewBox="0 0 38 38" fill="none"><circle cx="19" cy="19" r="18" stroke="#B4E913" stroke-width="2"></circle><rect x="12" y="13" width="14" height="12" rx="1" fill="#B4E913"></rect><path d="M23.8664 19.1584C23.8664 19.4847 23.5996 19.7277 23.2828 19.742C22.9684 19.7563 22.6993 19.4633 22.6993 19.1584V17.9865C22.2181 18.4653 21.737 18.944 21.2558 19.4228C20.839 19.8372 20.4222 20.2517 20.0053 20.6661C19.8267 20.8448 19.517 20.8948 19.2979 20.7566C19.2074 20.6995 19.1169 20.6423 19.0264 20.5852C18.5238 20.2707 18.0212 19.954 17.5186 19.6395L17.4734 19.6896C16.966 20.2565 16.4563 20.8233 15.949 21.3902C15.6298 21.7451 15.3106 22.1024 14.9914 22.4573C14.7747 22.7003 14.3888 22.6622 14.1673 22.4573C13.9267 22.2358 13.9625 21.8595 14.1673 21.6332C14.284 21.5022 14.4007 21.3712 14.5198 21.2402C15.0272 20.6733 15.5369 20.1064 16.0442 19.5395C16.3634 19.1846 16.6826 18.8297 16.9994 18.4724C17.1661 18.2866 17.4972 18.2509 17.7068 18.3819C17.7973 18.4391 17.8878 18.4962 17.9783 18.5534C18.4881 18.8726 18.9978 19.1941 19.5075 19.5133C19.5504 19.4704 19.5933 19.4276 19.6361 19.3847C20.2983 18.7273 20.9581 18.0675 21.6203 17.4101C21.7012 17.3291 21.7846 17.2481 21.8656 17.1671H20.708C20.3817 17.1671 20.1387 16.9004 20.1244 16.5836C20.1101 16.2692 20.4031 16 20.708 16H23.29C23.4305 16 23.5615 16.0524 23.6615 16.1382C23.7663 16.2263 23.8378 16.3525 23.8569 16.4907C23.8569 16.4931 23.8569 16.4954 23.8569 16.4978C23.8569 16.5026 23.8569 16.505 23.8592 16.5097C23.8592 16.5169 23.8616 16.5216 23.8616 16.5288C23.864 16.5431 23.864 16.5597 23.864 16.574V19.1584H23.8664Z" fill="white"></path></svg> 