<?xml version="1.0" encoding="UTF-8"?> <svg xmlns="http://www.w3.org/2000/svg" width="38" height="38" viewBox="0 0 38 38" fill="none"><circle cx="19" cy="19" r="18" stroke="white" stroke-width="2"></circle><path d="M21.3032 20.7003H16.6968C14.1 20.7003 12 22.8229 12 25.3971V25.9616C12 26.1423 12.0677 26.3229 12.2032 26.4358C12.3387 26.5713 12.4968 26.639 12.6774 26.639H25.3226C25.7065 26.639 26 26.3455 26 25.9616V25.3971C26 22.8229 23.9 20.7003 21.3032 20.7003Z" fill="white"></path><path d="M19.0012 20.0226C21.246 20.0226 23.0657 18.2028 23.0657 15.9581C23.0657 13.7133 21.246 11.8936 19.0012 11.8936C16.7565 11.8936 14.9367 13.7133 14.9367 15.9581C14.9367 18.2028 16.7565 20.0226 19.0012 20.0226Z" fill="white"></path></svg> 