<?xml version="1.0" encoding="UTF-8"?> <svg xmlns="http://www.w3.org/2000/svg" width="13" height="23" viewBox="0 0 13 23" fill="none"><path d="M9.40598 0C9.14963 0 8.92177 0.121931 8.77722 0.310959C8.77152 0.317338 8.76588 0.323851 8.76029 0.330504L0.221163 10.4554C0.164153 10.5202 0.119032 10.5882 0.0851409 10.6575C0.0309381 10.7532 0 10.8639 0 10.9818C0 11.3202 0.254954 11.5991 0.583281 11.6369L3.87577 12.2193L2.74317 21.4184C2.74173 21.4301 2.74052 21.4418 2.73954 21.4534C2.73743 21.477 2.73636 21.5008 2.73636 21.5249C2.73636 21.5401 2.73679 21.5552 2.73764 21.5702C2.74455 21.7004 2.78188 21.8179 2.84136 21.919C2.97793 22.1562 3.23401 22.3159 3.5274 22.3159C3.7036 22.3159 3.86633 22.2583 3.99781 22.1609C4.06948 22.1117 4.13755 22.0494 4.19978 21.9729L12.5671 12.1006C12.6063 12.0545 12.6397 12.0075 12.6677 11.96C12.7462 11.8514 12.7925 11.7181 12.7925 11.5739C12.7925 11.2633 12.5778 11.0028 12.2887 10.9329C12.2664 10.9264 12.2436 10.9208 12.2201 10.9161L8.94615 10.337L10.1945 0.867087C10.1987 0.832868 10.1993 0.798691 10.1966 0.764786C10.1827 0.340059 9.83407 0 9.40598 0Z" fill="url(#paint0_linear_426_31341)"></path><defs><linearGradient id="paint0_linear_426_31341" x1="6.39624" y1="0" x2="19.3056" y2="16.7202" gradientUnits="userSpaceOnUse"><stop stop-color="#D1FF1B"></stop><stop offset="0.745" stop-color="#8BCC00"></stop></linearGradient></defs></svg> 