<?xml version="1.0" encoding="UTF-8"?> <svg xmlns="http://www.w3.org/2000/svg" width="18" height="18" viewBox="0 0 18 18" fill="none"><g clip-path="url(#clip0_478_59922)"><path fill-rule="evenodd" clip-rule="evenodd" d="M14.9531 15.75C16.8216 14.1009 18 11.6881 18 9C18 4.02944 13.9706 0 9 0C4.02944 0 0 4.02944 0 9C0 11.6881 1.17845 14.1009 3.0469 15.75H14.9531Z" fill="#FECB00"></path><path fill-rule="evenodd" clip-rule="evenodd" d="M14.9531 15.75C16.8216 14.1009 18 11.6881 18 9C18 8.22308 17.9016 7.46914 17.7165 6.75H0.283539C0.0984443 7.46914 0 8.22308 0 9C0 11.6881 1.17845 14.1009 3.0469 15.75H14.9531Z" fill="#34B233"></path><path fill-rule="evenodd" clip-rule="evenodd" d="M17.7166 11.25C16.7175 15.1318 13.1938 18 9.00015 18C4.80651 18 1.28279 15.1318 0.283691 11.25H17.7166Z" fill="#EA2839"></path><path fill-rule="evenodd" clip-rule="evenodd" d="M8.99999 4.50049L10.0563 8.0214L13.7313 7.93795L10.7091 10.0306L11.9241 13.4999L8.99996 11.2723L6.07586 13.4999L7.29083 10.0306L4.26855 7.93796L7.94371 8.02141L8.99999 4.50049ZM8.99998 9.47524L8.99997 9.47525L8.99995 9.47524H8.99998Z" fill="white"></path><path fill-rule="evenodd" clip-rule="evenodd" d="M9 17.475C13.6806 17.475 17.475 13.6806 17.475 9C17.475 4.31939 13.6806 0.525 9 0.525C4.31939 0.525 0.525 4.31939 0.525 9C0.525 13.6806 4.31939 17.475 9 17.475ZM9 18C13.9706 18 18 13.9706 18 9C18 4.02944 13.9706 0 9 0C4.02944 0 0 4.02944 0 9C0 13.9706 4.02944 18 9 18Z" fill="#D9D9D9"></path></g><defs><clipPath id="clip0_478_59922"><rect width="18" height="18" fill="white"></rect></clipPath></defs></svg> 