<?xml version="1.0" encoding="UTF-8"?> <svg xmlns="http://www.w3.org/2000/svg" width="25" height="25" viewBox="0 0 25 25" fill="none"><path fill-rule="evenodd" clip-rule="evenodd" d="M12.7957 0C19.4457 0 24.8365 5.39086 24.8365 12.0408C24.8365 18.6908 19.4457 24.0816 12.7957 24.0816C6.14574 24.0816 0.754883 18.6908 0.754883 12.0408C0.754883 5.39086 6.14574 0 12.7957 0Z" fill="#B4E913"></path><path d="M15.7134 12.7897L16.0737 10.5027H13.8544V9.01619C13.8544 8.39084 14.1642 7.77978 15.155 7.77978H16.1782V5.83225C15.5823 5.73732 14.9802 5.68596 14.3768 5.67859C12.5502 5.67859 11.3577 6.77564 11.3577 8.7589V10.5027H9.33301V12.7897H11.3577V18.3214H13.8544V12.7897H15.7134Z" fill="white"></path></svg> 