<?xml version="1.0" encoding="UTF-8"?> <svg xmlns="http://www.w3.org/2000/svg" width="36" height="34" viewBox="0 0 36 34" fill="none"><path d="M3.64644 32.9058C3.84171 33.1011 4.15829 33.1011 4.35355 32.9058L7.53553 29.7238C7.7308 29.5286 7.7308 29.212 7.53553 29.0167C7.34027 28.8214 7.02369 28.8214 6.82843 29.0167L4 31.8451L1.17157 29.0167C0.97631 28.8214 0.659728 28.8214 0.464465 29.0167C0.269202 29.212 0.269202 29.5286 0.464465 29.7238L3.64644 32.9058ZM4.5 32.5522C4.5 15.4314 18.3792 1.55225 35.5 1.55225L35.5 0.552246C17.8269 0.552245 3.5 14.8791 3.5 32.5522L4.5 32.5522Z" fill="#9FCE10"></path></svg> 