<?xml version="1.0" encoding="UTF-8"?> <svg xmlns="http://www.w3.org/2000/svg" width="24" height="24" viewBox="0 0 24 24" fill="none"><path fill-rule="evenodd" clip-rule="evenodd" d="M16.0502 1.85481L14.8195 11.1906L18.0471 11.7615C18.0702 11.7662 18.0928 11.7717 18.1147 11.7781C18.3997 11.8471 18.6114 12.1038 18.6114 12.41C18.6114 12.5522 18.5658 12.6837 18.4884 12.7907C18.4608 12.8375 18.4278 12.8838 18.3892 12.9293L10.1403 22.6619C10.079 22.7373 10.0119 22.7987 9.94122 22.8472C9.8116 22.9432 9.65117 23 9.47746 23C9.18823 23 8.93578 22.8426 8.80114 22.6087C8.7425 22.5091 8.7057 22.3932 8.69888 22.2649C8.69805 22.2501 8.69762 22.2352 8.69762 22.2202C8.69762 22.1964 8.69868 22.1729 8.70076 22.1497C8.70172 22.1383 8.70291 22.1268 8.70434 22.1152L9.8209 13.0463L6.57502 12.4722C6.25134 12.4349 6 12.16 6 11.8263C6 11.7101 6.0305 11.601 6.08394 11.5066C6.11735 11.4383 6.16183 11.3713 6.21803 11.3074L14.6363 1.32583C14.6418 1.31927 14.6473 1.31285 14.653 1.30656C14.7955 1.12021 15.0201 1 15.2728 1C15.6949 1 16.0386 1.33525 16.0522 1.75396C16.0549 1.78738 16.0543 1.82108 16.0502 1.85481ZM17.0212 12.7546L13.5282 12.1367L14.7318 3.00651L7.58809 11.4769L11.1029 12.0986L10.0025 21.0357L17.0212 12.7546Z" fill="#9FCE10"></path></svg> 