<?xml version="1.0" encoding="UTF-8"?> <svg xmlns="http://www.w3.org/2000/svg" width="106" height="26" viewBox="0 0 106 26" fill="none"><path d="M38.1451 1.77673H15.1818C5.35163 1.77673 0 6.29237 0 13.6949C0 21.0974 5.35163 25.613 15.1818 25.613H38.1451C47.9753 25.613 53.3269 21.0953 53.3269 13.6949C53.3269 6.29443 47.9753 1.77673 38.1451 1.77673Z" fill="#B4EA10"></path><path d="M75.2276 8.45203H64.7632C64.5305 8.45203 64.3741 8.29554 64.3741 8.06286C64.3741 6.42998 64.9177 5.88431 66.8635 5.88431C70.0531 5.88431 72.2708 6.07787 74.0601 6.27349C74.2928 6.31261 74.4102 6.11699 74.4493 5.88431L74.8385 3.55134C74.8776 3.31866 74.682 3.24041 74.4493 3.16217C71.4162 2.26851 68.6529 1.21631 64.7632 1.21631C61.3019 1.21631 59.1233 3.62753 59.1233 6.93446V8.06286C59.1233 8.29554 58.9668 8.45203 58.7341 8.45203H55.0772C54.8445 8.45203 54.688 8.60852 54.688 8.8412V12.1873C54.688 12.4199 54.8445 12.5764 55.0772 12.5764H58.7341C58.9668 12.5764 59.1233 12.7329 59.1233 12.9656V19.6557C59.1233 19.8883 59.2798 20.0448 59.5125 20.0448H63.9849C64.2176 20.0448 64.3741 19.8883 64.3741 19.6557V12.9656C64.3741 12.7329 64.5305 12.5764 64.7632 12.5764H75.2276C75.4603 12.5764 75.6168 12.4199 75.6168 12.1873V8.8412C75.6168 8.60852 75.4603 8.45203 75.2276 8.45203Z" fill="black"></path><path d="M82.7722 8.4519H78.2998C78.0849 8.4519 77.9106 8.62615 77.9106 8.84108V19.6555C77.9106 19.8705 78.0849 20.0447 78.2998 20.0447H82.7722C82.9871 20.0447 83.1614 19.8705 83.1614 19.6555V8.84108C83.1614 8.62615 82.9871 8.4519 82.7722 8.4519Z" fill="black"></path><path d="M80.5567 0.386475C78.7282 0.386475 77.4062 1.70842 77.4062 3.45867C77.4062 5.20891 78.7282 6.60911 80.5567 6.60911C82.3852 6.60911 83.7071 5.28716 83.7071 3.45867C83.7071 1.63018 82.3852 0.386475 80.5567 0.386475Z" fill="black"></path><path d="M100.083 6.07971C97.4371 6.07971 93.8584 7.28635 91.1753 8.56918C90.9427 8.68655 90.747 8.64742 90.6688 8.37562L90.2796 6.81893C90.2405 6.62538 90.0861 6.508 89.8513 6.508H86.1943C85.9617 6.508 85.8052 6.6645 85.8052 6.89718V19.6554C85.8052 19.8881 85.9617 20.0446 86.1943 20.0446H90.6667C90.8994 20.0446 91.0559 19.8881 91.0559 19.6554V11.7196C91.0559 11.5261 91.1342 11.3304 91.3277 11.2913C93.3106 10.7477 95.8001 10.4347 97.1632 10.4347C99.6136 10.4347 99.7701 11.5631 99.7701 14.1308V19.6554C99.7701 19.8881 99.9266 20.0446 100.159 20.0446H104.671C104.903 20.0446 105.06 19.8881 105.06 19.6554V12.3415C105.06 8.02352 104.127 6.07971 100.081 6.07971H100.083Z" fill="black"></path><path d="M41.8185 6.30235C39.2837 6.30235 35.8553 7.45751 33.2834 8.6868C33.059 8.798 32.8737 8.76093 32.7995 8.49942L32.4268 7.00863C32.3898 6.82331 32.2395 6.71005 32.0171 6.71005H28.6998C28.4754 6.71005 28.3271 6.85831 28.3271 7.08275V19.3077C28.3271 19.5321 28.4754 19.6804 28.6998 19.6804H32.7995C33.024 19.6804 33.1722 19.5321 33.1722 19.3077V11.7055C33.1722 11.5181 33.2464 11.3328 33.4337 11.2957C35.3343 10.7747 37.7188 10.4762 39.0242 10.4762C41.3716 10.4762 41.5219 11.5572 41.5219 14.0158V19.3077C41.5219 19.5321 41.6702 19.6804 41.8946 19.6804H45.9943C46.2188 19.6804 46.367 19.5321 46.367 19.3077V12.3005C46.367 8.16379 45.4734 6.30029 41.8205 6.30029L41.8185 6.30235Z" fill="black"></path><path d="M15.7358 6.11707C9.80968 6.11707 5.82324 8.42739 5.82324 12.8627C5.82324 17.2981 9.40198 19.8699 15.7358 19.8699C22.0696 19.8699 25.6484 17.4854 25.6484 12.8627C25.6484 8.24001 21.6599 6.11707 15.7358 6.11707ZM15.7358 15.8073C12.2333 15.8073 10.5921 14.6892 10.5921 12.8998C10.5921 11.1104 12.2312 10.0664 15.7358 10.0664C19.2404 10.0664 20.8795 11.1475 20.8795 12.8998C20.8795 14.6521 19.2404 15.8073 15.7358 15.8073Z" fill="black"></path></svg> 