<?xml version="1.0" encoding="UTF-8"?> <svg xmlns="http://www.w3.org/2000/svg" width="24" height="24" viewBox="0 0 24 24" fill="none"><g clip-path="url(#clip0_494_27481)"><path d="M19 11.0068V3.00684C19 1.90227 18.1046 1.00684 17 1.00684H3C1.89543 1.00684 1 1.90227 1 3.00684V16.0068C1 17.1114 1.89543 18.0068 3 18.0068H10.5" stroke="#9FCE10"></path><circle cx="6" cy="6.00684" r="2.5" stroke="#9FCE10"></circle><rect x="11" y="4.00684" width="5" height="1" fill="#9FCE10"></rect><rect x="11" y="6.00684" width="5" height="1" fill="#9FCE10"></rect><circle cx="16.5" cy="16.5068" r="6.03571" stroke="#9FCE10" stroke-width="0.928571"></circle><path d="M16.5809 18.9632C16.0699 18.9632 15.6221 18.8882 15.2377 18.7382C14.8579 18.5835 14.5579 18.3678 14.3376 18.0912C14.1219 17.8146 14.0094 17.4958 14 17.1348H15.1674C15.2002 17.4208 15.3408 17.6482 15.5893 17.817C15.8425 17.9811 16.18 18.0631 16.602 18.0631C17.0005 18.0631 17.3029 17.9998 17.5091 17.8732C17.7201 17.7466 17.8256 17.5802 17.8256 17.3739C17.8256 17.252 17.7928 17.1489 17.7271 17.0645C17.6662 16.9801 17.5584 16.9098 17.4037 16.8535C17.2536 16.7926 17.0427 16.7504 16.7707 16.7269L16.0323 16.6566C15.3619 16.5957 14.8673 16.4316 14.5485 16.1644C14.2297 15.8971 14.0703 15.5432 14.0703 15.1025C14.0703 14.7649 14.1664 14.4766 14.3586 14.2375C14.5556 13.9937 14.8298 13.8062 15.1814 13.6749C15.5331 13.5436 15.948 13.478 16.4262 13.478C16.9044 13.478 17.3216 13.5507 17.6779 13.696C18.0389 13.8367 18.3226 14.0359 18.5288 14.2938C18.7351 14.5469 18.8476 14.8446 18.8664 15.1869H17.706C17.6779 14.9525 17.5584 14.7602 17.3474 14.6102C17.1364 14.4555 16.8247 14.3781 16.4121 14.3781C16.0323 14.3781 15.7417 14.4391 15.5401 14.561C15.3432 14.6829 15.2447 14.8493 15.2447 15.0603C15.2447 15.1587 15.2729 15.2502 15.3291 15.3345C15.3854 15.4142 15.4838 15.4799 15.6245 15.5314C15.7651 15.583 15.9573 15.6205 16.2011 15.644L17.0028 15.7143C17.4857 15.7565 17.8725 15.8432 18.1632 15.9745C18.4585 16.1011 18.6718 16.2698 18.8031 16.4808C18.9344 16.6918 19 16.9473 19 17.2473C19 17.5802 18.9015 17.8779 18.7046 18.1405C18.5077 18.3983 18.2288 18.5999 17.8678 18.7452C17.5068 18.8906 17.0778 18.9632 16.5809 18.9632ZM16.9325 13.0068V19.4344H16.0534V13.0068H16.9325Z" fill="#9FCE10"></path></g><defs><clipPath id="clip0_494_27481"><rect width="24" height="24" fill="white" transform="translate(0 0.00683594)"></rect></clipPath></defs></svg> 