<?xml version="1.0" encoding="UTF-8"?> <svg xmlns="http://www.w3.org/2000/svg" width="12" height="20" viewBox="0 0 12 20" fill="none"><path d="M8.28473 0C8.05894 0 7.85824 0.107374 7.73092 0.273835C7.7259 0.279452 7.72093 0.285188 7.71601 0.291046L0.194799 9.20717C0.144585 9.26423 0.104843 9.32411 0.0749916 9.38514C0.0272501 9.46941 0 9.5669 0 9.67072C0 9.96872 0.224562 10.2143 0.51375 10.2476L3.41375 10.7605L2.41617 18.8613C2.4149 18.8716 2.41383 18.8819 2.41297 18.8922C2.41111 18.9129 2.41017 18.9339 2.41017 18.9551C2.41017 18.9685 2.41055 18.9818 2.4113 18.995C2.41738 19.1097 2.45026 19.2131 2.50265 19.3022C2.62294 19.511 2.8485 19.6517 3.10691 19.6517C3.26211 19.6517 3.40544 19.601 3.52125 19.5152C3.58437 19.4719 3.64433 19.417 3.69914 19.3496L11.069 10.656C11.1036 10.6154 11.133 10.574 11.1576 10.5321C11.2268 10.4365 11.2676 10.3191 11.2676 10.1921C11.2676 9.91861 11.0784 9.68921 10.8238 9.62766C10.8042 9.62193 10.7841 9.617 10.7634 9.61286L7.87971 9.1029L8.97925 0.763568C8.98295 0.733435 8.98348 0.703338 8.9811 0.673481C8.96886 0.299461 8.66179 0 8.28473 0Z" fill="url(#paint0_linear_513_604)"></path><defs><linearGradient id="paint0_linear_513_604" x1="5.63377" y1="6.62695e-08" x2="17.0013" y2="14.7263" gradientUnits="userSpaceOnUse"><stop stop-color="#D1FF1B"></stop><stop offset="0.745" stop-color="#8BCC00"></stop></linearGradient></defs></svg> 