<?xml version="1.0" encoding="UTF-8"?> <svg xmlns="http://www.w3.org/2000/svg" width="67" height="67" viewBox="0 0 67 67" fill="none"><g clip-path="url(#clip0_744_34292)"><path fill-rule="evenodd" clip-rule="evenodd" d="M51.4986 11.4613C52.8777 12.1508 53.4366 13.8277 52.747 15.2067L49.4682 21.7647C56.6917 26.8106 61.4168 35.1867 61.4168 44.6667V47.4583C61.4168 50.542 58.9172 53.0417 55.8335 53.0417H11.1668C8.08324 53.0417 5.5835 50.542 5.5835 47.4583V44.6667C5.5835 35.1867 10.3086 26.8106 17.5322 21.7647L14.2532 15.2067C13.5637 13.8277 14.1227 12.1508 15.5017 11.4613C16.8807 10.7718 18.5576 11.3308 19.2471 12.7098L22.4117 19.0389C25.8106 17.5663 29.56 16.75 33.5002 16.75C37.4403 16.75 41.1898 17.5663 44.5887 19.0389L47.7533 12.7098C48.4428 11.3308 50.1195 10.7718 51.4986 11.4613ZM20.9377 33.5C18.625 33.5 16.7502 35.3749 16.7502 37.6875C16.7502 40.0001 18.625 41.875 20.9377 41.875C23.2504 41.875 25.1252 40.0001 25.1252 37.6875C25.1252 35.3749 23.2504 33.5 20.9377 33.5ZM46.0627 33.5C43.75 33.5 41.8752 35.3749 41.8752 37.6875C41.8752 40.0001 43.75 41.875 46.0627 41.875C48.3753 41.875 50.2502 40.0001 50.2502 37.6875C50.2502 35.3749 48.3753 33.5 46.0627 33.5Z" fill="#323238"></path></g><defs><clipPath id="clip0_744_34292"><rect width="67" height="67" fill="white"></rect></clipPath></defs></svg> 