<?xml version="1.0" encoding="UTF-8"?> <svg xmlns="http://www.w3.org/2000/svg" width="24" height="24" viewBox="0 0 24 24" fill="none"><g clip-path="url(#clip0_526_2880)"><path d="M11.6228 9.47778H12.3794C12.7182 9.47778 12.9938 9.75333 12.9938 10.0921C12.9938 10.4794 13.3079 10.7935 13.6953 10.7935C14.0826 10.7935 14.3967 10.4794 14.3967 10.0921C14.3967 9.08978 13.6618 8.25623 12.7026 8.10107V7.95097C12.7026 7.56359 12.3885 7.24951 12.0011 7.24951C11.6138 7.24951 11.2997 7.56359 11.2997 7.95097V8.10107C10.3404 8.25618 9.60547 9.08976 9.60547 10.0921V10.4814C9.60547 11.5937 10.5105 12.4987 11.6228 12.4987H12.3794C12.7182 12.4987 12.9938 12.7743 12.9938 13.1131V13.5023C12.9938 13.8411 12.7182 14.1167 12.3794 14.1167H11.6228C11.284 14.1167 11.0084 13.8411 11.0084 13.5023V13.466C11.0084 13.0786 10.6943 12.7646 10.3069 12.7646C9.91955 12.7646 9.60547 13.0786 9.60547 13.466V13.5023C9.60547 14.5046 10.3404 15.3383 11.2997 15.4934V15.6434C11.2997 16.0308 11.6138 16.3449 12.0011 16.3449C12.3885 16.3449 12.7026 16.0308 12.7026 15.6434V15.4934C13.6618 15.3382 14.3967 14.5046 14.3967 13.5023V13.1131C14.3967 12.0008 13.4917 11.0958 12.3794 11.0958H11.6228C11.284 11.0958 11.0084 10.8202 11.0084 10.4814V10.0921C11.0084 9.75333 11.284 9.47778 11.6228 9.47778Z" fill="#9FCE10" stroke="#9FCE10" stroke-width="0.203263"></path><path d="M21.0431 6.77928C22.2829 8.92668 22.7181 11.4452 22.2707 13.8841C21.8234 16.323 20.5227 18.5232 18.6015 20.0907C16.6802 21.6583 14.2638 22.491 11.7848 22.4399C9.30567 22.3887 6.92571 21.457 5.07078 19.8115C3.21586 18.166 2.00705 15.9141 1.66069 13.4588C1.31433 11.0035 1.85303 8.50505 3.18038 6.41062C4.50772 4.3162 6.53708 2.76249 8.90527 2.02754C11.2735 1.29259 13.8259 1.42438 16.1058 2.39933" stroke="#9FCE10"></path></g><defs><clipPath id="clip0_526_2880"><rect width="24" height="24" fill="white"></rect></clipPath></defs></svg> 