<?xml version="1.0" encoding="UTF-8"?> <svg xmlns="http://www.w3.org/2000/svg" width="20" height="24" viewBox="0 0 20 24" fill="none"><path fill-rule="evenodd" clip-rule="evenodd" d="M19.9366 0.101074H0.000488281V1.1495L1.11246 1.27659C2.62156 1.46721 3.14578 2.38856 3.39994 4.54896C3.73354 8.59972 3.59057 15.9864 3.39994 19.5129C3.20932 21.6733 2.62156 22.6423 1.11246 22.7853L0.000488281 22.9759V23.8973H12.804V22.9759L11.4379 22.7853C9.92881 22.6582 9.40459 21.6733 9.15043 19.5129C9.02334 18.0038 8.9598 15.6528 8.9598 12.714L11.708 12.8411C13.4077 12.8411 14.1861 14.2072 14.5197 16.1135H15.5681V8.01196H14.5197C14.1861 9.90231 13.4077 11.2843 11.708 11.2843L8.9598 11.4114C8.9598 7.55128 9.08689 3.9612 9.15043 1.8008H13.1376C16.2035 1.8008 17.7761 3.69115 18.8881 7.09061L20.0001 6.75702L19.9366 0.101074Z" fill="#9FCE10"></path></svg> 