<?xml version="1.0" encoding="UTF-8"?> <svg xmlns="http://www.w3.org/2000/svg" width="12" height="9" viewBox="0 0 12 9" fill="none"><path d="M11.8536 4.85355C12.0488 4.65829 12.0488 4.34171 11.8536 4.14645L8.67157 0.964466C8.47631 0.769204 8.15973 0.769204 7.96447 0.964466C7.7692 1.15973 7.7692 1.47631 7.96447 1.67157L10.7929 4.5L7.96447 7.32843C7.7692 7.52369 7.7692 7.84027 7.96447 8.03553C8.15973 8.2308 8.47631 8.2308 8.67157 8.03553L11.8536 4.85355ZM0 5C0.00651042 5 0.0130347 5 0.0195728 5C0.0261108 5 0.0326627 5 0.0392283 5C0.0457938 5 0.0523731 5 0.0589661 5C0.065559 5 0.0721656 5 0.0787858 5C0.085406 5 0.0920397 5 0.098687 5C0.105334 5 0.111995 5 0.118669 5C0.125343 5 0.132031 5 0.138732 5C0.145433 5 0.152148 5 0.158875 5C0.165603 5 0.172344 5 0.179098 5C0.185852 5 0.19262 5 0.1994 5C0.206181 5 0.212975 5 0.219782 5C0.226589 5 0.233409 5 0.240242 5C0.247074 5 0.25392 5 0.260779 5C0.267638 5 0.27451 5 0.281395 5C0.28828 5 0.295177 5 0.302088 5C0.308998 5 0.315922 5 0.322858 5C0.329794 5 0.336742 5 0.343704 5C0.350665 5 0.357639 5 0.364626 5C0.371613 5 0.378612 5 0.385624 5C0.392636 5 0.39966 5 0.406697 5C0.413734 5 0.420783 5 0.427845 5C0.434906 5 0.44198 5 0.449067 5C0.456153 5 0.463252 5 0.470363 5C0.477473 5 0.484597 5 0.491732 5C0.498867 5 0.506015 5 0.513175 5C0.520334 5 0.527506 5 0.53469 5C0.541874 5 0.549069 5 0.556277 5C0.563485 5 0.570705 5 0.577936 5C0.585168 5 0.592412 5 0.599667 5C0.606923 5 0.61419 5 0.621469 5C0.628748 5 0.636038 5 0.643341 5C0.650643 5 0.657957 5 0.665283 5C0.672609 5 0.679946 5 0.687295 5C0.694644 5 0.702005 5 0.709377 5C0.716748 5 0.724132 5 0.731527 5C0.738922 5 0.746328 5 0.753745 5C0.761163 5 0.768592 5 0.776032 5C0.783472 5 0.790924 5 0.798386 5C0.805849 5 0.813323 5 0.820808 5C0.828293 5 0.835789 5 0.843296 5C0.850803 5 0.858321 5 0.865851 5C0.87338 5 0.88092 5 0.888471 5C0.896022 5 0.903584 5 0.911157 5C0.91873 5 0.926314 5 0.933908 5C0.941503 5 0.949108 5 0.956724 5C0.96434 5 0.971967 5 0.979604 5C0.987242 5 0.99489 5 1.00255 5C1.01021 5 1.01788 5 1.02556 5C1.03324 5 1.04093 5 1.04863 5C1.05633 5 1.06404 5 1.07176 5C1.07948 5 1.08721 5 1.09495 5C1.1027 5 1.11045 5 1.11821 5C1.12597 5 1.13375 5 1.14153 5C1.14931 5 1.1571 5 1.16491 5C1.17271 5 1.18052 5 1.18835 5C1.19617 5 1.204 5 1.21185 5C1.21969 5 1.22754 5 1.23541 5C1.24327 5 1.25114 5 1.25902 5C1.26691 5 1.2748 5 1.2827 5C1.2906 5 1.29851 5 1.30644 5C1.31436 5 1.32229 5 1.33023 5C1.33817 5 1.34612 5 1.35408 5C1.36204 5 1.37001 5 1.37799 5C1.38597 5 1.39396 5 1.40195 5C1.40995 5 1.41796 5 1.42597 5C1.43399 5 1.44202 5 1.45005 5C1.45809 5 1.46613 5 1.47418 5C1.48224 5 1.4903 5 1.49837 5C1.50644 5 1.51452 5 1.52261 5C1.5307 5 1.5388 5 1.54691 5C1.55502 5 1.56313 5 1.57126 5C1.57938 5 1.58752 5 1.59566 5C1.6038 5 1.61196 5 1.62012 5C1.62828 5 1.63645 5 1.64463 5C1.6528 5 1.66099 5 1.66919 5C1.67738 5 1.68559 5 1.6938 5C1.70201 5 1.71023 5 1.71846 5C1.72669 5 1.73493 5 1.74318 5C1.75142 5 1.75968 5 1.76794 5C1.7762 5 1.78448 5 1.79276 5C1.80103 5 1.80932 5 1.81762 5C1.82592 5 1.83422 5 1.84253 5C1.85084 5 1.85917 5 1.86749 5C1.87582 5 1.88416 5 1.8925 5C1.90085 5 1.9092 5 1.91756 5C1.92592 5 1.93429 5 1.94267 5C1.95104 5 1.95943 5 1.96782 5C1.97621 5 1.98461 5 1.99302 5C2.00143 5 2.00984 5 2.01827 5C2.02669 5 2.03512 5 2.04356 5C2.05199 5 2.06044 5 2.06889 5C2.07735 5 2.08581 5 2.09427 5C2.10274 5 2.11122 5 2.1197 5C2.12818 5 2.13667 5 2.14517 5C2.15367 5 2.16217 5 2.17068 5C2.1792 5 2.18771 5 2.19624 5C2.20477 5 2.2133 5 2.22184 5C2.23038 5 2.23893 5 2.24748 5C2.25604 5 2.2646 5 2.27317 5C2.28173 5 2.29031 5 2.29889 5C2.30747 5 2.31606 5 2.32466 5C2.33325 5 2.34186 5 2.35047 5C2.35907 5 2.36769 5 2.37631 5C2.38494 5 2.39357 5 2.4022 5C2.41084 5 2.41948 5 2.42813 5C2.43678 5 2.44543 5 2.45409 5C2.46276 5 2.47142 5 2.4801 5C2.48877 5 2.49745 5 2.50614 5C2.51483 5 2.52352 5 2.53222 5C2.54092 5 2.54963 5 2.55834 5C2.56705 5 2.57577 5 2.5845 5C2.59322 5 2.60195 5 2.61069 5C2.61942 5 2.62817 5 2.63691 5C2.64566 5 2.65442 5 2.66318 5C2.67194 5 2.6807 5 2.68948 5C2.69825 5 2.70703 5 2.71581 5C2.72459 5 2.73338 5 2.74218 5C2.75097 5 2.75977 5 2.76858 5C2.77739 5 2.7862 5 2.79502 5C2.80383 5 2.81266 5 2.82148 5C2.83031 5 2.83915 5 2.84798 5C2.85682 5 2.86567 5 2.87452 5C2.88337 5 2.89222 5 2.90108 5C2.90994 5 2.91881 5 2.92768 5C2.93655 5 2.94543 5 2.95431 5C2.96319 5 2.97208 5 2.98097 5C2.98986 5 2.99875 5 3.00766 5C3.01656 5 3.02546 5 3.03437 5C3.04329 5 3.0522 5 3.06112 5C3.07004 5 3.07897 5 3.0879 5C3.09683 5 3.10577 5 3.11471 5C3.12365 5 3.13259 5 3.14154 5C3.15049 5 3.15944 5 3.1684 5C3.17736 5 3.18632 5 3.19529 5C3.20426 5 3.21323 5 3.2222 5C3.23118 5 3.24016 5 3.24915 5C3.25813 5 3.26712 5 3.27611 5C3.28511 5 3.29411 5 3.30311 5C3.31211 5 3.32112 5 3.33013 5C3.33914 5 3.34815 5 3.35717 5C3.36619 5 3.37521 5 3.38424 5C3.39326 5 3.40229 5 3.41133 5C3.42036 5 3.4294 5 3.43844 5C3.44749 5 3.45653 5 3.46558 5C3.47463 5 3.48369 5 3.49274 5C3.5018 5 3.51086 5 3.51993 5C3.52899 5 3.53806 5 3.54713 5C3.5562 5 3.56528 5 3.57436 5C3.58344 5 3.59252 5 3.6016 5C3.61069 5 3.61978 5 3.62887 5C3.63796 5 3.64706 5 3.65616 5C3.66526 5 3.67436 5 3.68347 5C3.69257 5 3.70168 5 3.71079 5C3.71991 5 3.72902 5 3.73814 5C3.74726 5 3.75638 5 3.7655 5C3.77463 5 3.78376 5 3.79289 5C3.80202 5 3.81115 5 3.82029 5C3.82942 5 3.83856 5 3.8477 5C3.85685 5 3.86599 5 3.87514 5C3.88428 5 3.89344 5 3.90259 5C3.91174 5 3.9209 5 3.93005 5C3.93921 5 3.94837 5 3.95754 5C3.9667 5 3.97586 5 3.98503 5C3.9942 5 4.00337 5 4.01254 5C4.02172 5 4.03089 5 4.04007 5C4.04925 5 4.05843 5 4.06761 5C4.07679 5 4.08597 5 4.09516 5C4.10435 5 4.11354 5 4.12273 5C4.13192 5 4.14111 5 4.15031 5C4.1595 5 4.1687 5 4.1779 5C4.18709 5 4.1963 5 4.2055 5C4.2147 5 4.22391 5 4.23311 5C4.24232 5 4.25153 5 4.26074 5C4.26995 5 4.27916 5 4.28837 5C4.29758 5 4.3068 5 4.31602 5C4.32523 5 4.33445 5 4.34367 5C4.35289 5 4.36211 5 4.37133 5C4.38056 5 4.38978 5 4.39901 5C4.40823 5 4.41746 5 4.42669 5C4.43592 5 4.44515 5 4.45438 5C4.46361 5 4.47284 5 4.48207 5C4.49131 5 4.50054 5 4.50978 5C4.51901 5 4.52825 5 4.53749 5C4.54672 5 4.55596 5 4.5652 5C4.57444 5 4.58368 5 4.59293 5C4.60217 5 4.61141 5 4.62065 5C4.6299 5 4.63914 5 4.64839 5C4.65763 5 4.66688 5 4.67612 5C4.68537 5 4.69462 5 4.70386 5C4.71311 5 4.72236 5 4.73161 5C4.74086 5 4.75011 5 4.75936 5C4.76861 5 4.77786 5 4.78711 5C4.79636 5 4.80561 5 4.81486 5C4.82411 5 4.83337 5 4.84262 5C4.85187 5 4.86112 5 4.87038 5C4.87963 5 4.88888 5 4.89814 5C4.90739 5 4.91664 5 4.9259 5C4.93515 5 4.9444 5 4.95365 5C4.96291 5 4.97216 5 4.98141 5C4.99067 5 4.99992 5 5.00917 5C5.01843 5 5.02768 5 5.03693 5C5.04619 5 5.05544 5 5.06469 5C5.07394 5 5.08319 5 5.09245 5C5.1017 5 5.11095 5 5.1202 5C5.12945 5 5.1387 5 5.14795 5C5.1572 5 5.16645 5 5.1757 5C5.18495 5 5.19419 5 5.20344 5C5.21269 5 5.22194 5 5.23118 5C5.24043 5 5.24967 5 5.25892 5C5.26816 5 5.27741 5 5.28665 5C5.29589 5 5.30514 5 5.31438 5C5.32362 5 5.33286 5 5.3421 5C5.35134 5 5.36058 5 5.36981 5C5.37905 5 5.38829 5 5.39752 5C5.40676 5 5.41599 5 5.42522 5C5.43446 5 5.44369 5 5.45292 5C5.46215 5 5.47138 5 5.48061 5C5.48983 5 5.49906 5 5.50829 5C5.51751 5 5.52673 5 5.53596 5C5.54518 5 5.5544 5 5.56362 5C5.57284 5 5.58206 5 5.59127 5C5.60049 5 5.6097 5 5.61891 5C5.62813 5 5.63734 5 5.64655 5C5.65576 5 5.66496 5 5.67417 5C5.68338 5 5.69258 5 5.70178 5C5.71098 5 5.72018 5 5.72938 5C5.73858 5 5.74778 5 5.75697 5C5.76616 5 5.77536 5 5.78454 5C5.79374 5 5.80292 5 5.81211 5C5.82129 5 5.83048 5 5.83966 5C5.84884 5 5.85802 5 5.8672 5C5.87637 5 5.88555 5 5.89472 5C5.90389 5 5.91306 5 5.92223 5C5.93139 5 5.94056 5 5.94972 5C5.95888 5 5.96804 5 5.9772 5C5.98636 5 5.99551 5 6.00466 5C6.01381 5 6.02296 5 6.03211 5C6.04125 5 6.0504 5 6.05954 5C6.06868 5 6.07782 5 6.08695 5C6.09609 5 6.10522 5 6.11435 5C6.12348 5 6.1326 5 6.14173 5C6.15085 5 6.15997 5 6.16909 5C6.17821 5 6.18732 5 6.19643 5C6.20554 5 6.21465 5 6.22375 5C6.23286 5 6.24196 5 6.25106 5C6.26016 5 6.26925 5 6.27834 5C6.28743 5 6.29652 5 6.30561 5C6.31469 5 6.32377 5 6.33285 5C6.34193 5 6.351 5 6.36007 5C6.36914 5 6.37821 5 6.38727 5C6.39633 5 6.40539 5 6.41445 5C6.42351 5 6.43256 5 6.44161 5C6.45065 5 6.4597 5 6.46874 5C6.47778 5 6.48682 5 6.49585 5C6.50488 5 6.51391 5 6.52294 5C6.53196 5 6.54098 5 6.55 5C6.55902 5 6.56803 5 6.57704 5C6.58605 5 6.59505 5 6.60405 5C6.61305 5 6.62205 5 6.63104 5C6.64003 5 6.64902 5 6.658 5C6.66699 5 6.67597 5 6.68494 5C6.69391 5 6.70288 5 6.71185 5C6.72082 5 6.72978 5 6.73873 5C6.74769 5 6.75664 5 6.76559 5C6.77454 5 6.78348 5 6.79242 5C6.80136 5 6.81029 5 6.81922 5C6.82815 5 6.83707 5 6.84599 5C6.85491 5 6.86382 5 6.87273 5C6.88164 5 6.89054 5 6.89944 5C6.90834 5 6.91724 5 6.92613 5C6.93502 5 6.9439 5 6.95278 5C6.96166 5 6.97053 5 6.9794 5C6.98827 5 6.99713 5 7.00599 5C7.01485 5 7.0237 5 7.03255 5C7.0414 5 7.05024 5 7.05908 5C7.06791 5 7.07675 5 7.08557 5C7.0944 5 7.10322 5 7.11203 5C7.12085 5 7.12966 5 7.13846 5C7.14727 5 7.15607 5 7.16486 5C7.17365 5 7.18244 5 7.19122 5C7.2 5 7.20878 5 7.21755 5C7.22632 5 7.23508 5 7.24384 5C7.2526 5 7.26135 5 7.27009 5C7.27884 5 7.28758 5 7.29631 5C7.30505 5 7.31378 5 7.3225 5C7.33122 5 7.33994 5 7.34865 5C7.35736 5 7.36606 5 7.37476 5C7.38345 5 7.39215 5 7.40083 5C7.40951 5 7.41819 5 7.42687 5C7.43554 5 7.4442 5 7.45286 5C7.46152 5 7.47017 5 7.47882 5C7.48747 5 7.49611 5 7.50474 5C7.51337 5 7.522 5 7.53062 5C7.53924 5 7.54785 5 7.55646 5C7.56507 5 7.57367 5 7.58226 5C7.59085 5 7.59944 5 7.60802 5C7.6166 5 7.62517 5 7.63374 5C7.6423 5 7.65086 5 7.65941 5C7.66796 5 7.67651 5 7.68504 5C7.69358 5 7.70211 5 7.71064 5C7.71916 5 7.72767 5 7.73618 5C7.74469 5 7.75319 5 7.76169 5C7.77018 5 7.77867 5 7.78715 5C7.79563 5 7.8041 5 7.81257 5C7.82103 5 7.82949 5 7.83794 5C7.84639 5 7.85483 5 7.86327 5C7.8717 5 7.88013 5 7.88855 5C7.89697 5 7.90538 5 7.91379 5C7.92219 5 7.93059 5 7.93898 5C7.94736 5 7.95575 5 7.96412 5C7.97249 5 7.98086 5 7.98921 5C7.99757 5 8.00592 5 8.01426 5C8.0226 5 8.03094 5 8.03926 5C8.04759 5 8.05591 5 8.06422 5C8.07253 5 8.08083 5 8.08912 5C8.09741 5 8.1057 5 8.11397 5C8.12225 5 8.13052 5 8.13878 5C8.14704 5 8.15529 5 8.16353 5C8.17178 5 8.18001 5 8.18824 5C8.19646 5 8.20468 5 8.21289 5C8.2211 5 8.2293 5 8.23749 5C8.24568 5 8.25387 5 8.26204 5C8.27022 5 8.27838 5 8.28654 5C8.2947 5 8.30285 5 8.31099 5C8.31913 5 8.32726 5 8.33538 5C8.3435 5 8.35161 5 8.35972 5C8.36782 5 8.37592 5 8.384 5C8.39209 5 8.40017 5 8.40823 5C8.4163 5 8.42436 5 8.43241 5C8.44046 5 8.4485 5 8.45653 5C8.46456 5 8.47258 5 8.4806 5C8.48861 5 8.49661 5 8.50461 5C8.5126 5 8.52059 5 8.52856 5C8.53654 5 8.5445 5 8.55246 5C8.56041 5 8.56836 5 8.5763 5C8.58423 5 8.59216 5 8.60008 5C8.608 5 8.6159 5 8.6238 5C8.6317 5 8.63959 5 8.64747 5C8.65535 5 8.66322 5 8.67107 5C8.67893 5 8.68678 5 8.69462 5C8.70246 5 8.71029 5 8.71811 5C8.72593 5 8.73374 5 8.74154 5C8.74934 5 8.75713 5 8.7649 5C8.77268 5 8.78045 5 8.78821 5C8.79597 5 8.80372 5 8.81145 5C8.81919 5 8.82692 5 8.83464 5C8.84235 5 8.85006 5 8.85776 5C8.86545 5 8.87314 5 8.88082 5C8.88849 5 8.89616 5 8.90381 5C8.91146 5 8.91911 5 8.92674 5C8.93437 5 8.942 5 8.94961 5C8.95722 5 8.96482 5 8.97241 5C8.98 5 8.98758 5 8.99515 5C9.00272 5 9.01028 5 9.01782 5C9.02537 5 9.03291 5 9.04043 5C9.04796 5 9.05547 5 9.06297 5C9.07047 5 9.07797 5 9.08545 5C9.09293 5 9.1004 5 9.10786 5C9.11531 5 9.12276 5 9.1302 5C9.13763 5 9.14506 5 9.15247 5C9.15988 5 9.16728 5 9.17467 5C9.18207 5 9.18944 5 9.19681 5C9.20418 5 9.21153 5 9.21888 5C9.22622 5 9.23356 5 9.24088 5C9.2482 5 9.25551 5 9.2628 5C9.2701 5 9.27739 5 9.28466 5C9.29194 5 9.2992 5 9.30645 5C9.3137 5 9.32094 5 9.32817 5C9.33539 5 9.34261 5 9.34981 5C9.35702 5 9.36421 5 9.37139 5C9.37856 5 9.38573 5 9.39289 5C9.40004 5 9.40718 5 9.41431 5C9.42144 5 9.42856 5 9.43567 5C9.44278 5 9.44987 5 9.45695 5C9.46403 5 9.4711 5 9.47816 5C9.48522 5 9.49226 5 9.49929 5C9.50632 5 9.51334 5 9.52035 5C9.52736 5 9.53435 5 9.54133 5C9.54831 5 9.55528 5 9.56224 5C9.5692 5 9.57614 5 9.58307 5C9.59 5 9.59692 5 9.60382 5C9.61073 5 9.61762 5 9.6245 5C9.63138 5 9.63825 5 9.6451 5C9.65196 5 9.6588 5 9.66562 5C9.67245 5 9.67927 5 9.68607 5C9.69287 5 9.69966 5 9.70644 5C9.71321 5 9.71997 5 9.72672 5C9.73347 5 9.74021 5 9.74693 5C9.75365 5 9.76036 5 9.76706 5C9.77375 5 9.78043 5 9.7871 5C9.79377 5 9.80043 5 9.80707 5C9.81371 5 9.82034 5 9.82695 5C9.83357 5 9.84017 5 9.84676 5C9.85334 5 9.85992 5 9.86648 5C9.87304 5 9.87959 5 9.88612 5C9.89265 5 9.89917 5 9.90567 5C9.91218 5 9.91867 5 9.92515 5C9.93162 5 9.93809 5 9.94454 5C9.95099 5 9.95742 5 9.96384 5C9.97026 5 9.97667 5 9.98306 5C9.98946 5 9.99583 5 10.0022 5C10.0086 5 10.0149 5 10.0212 5C10.0276 5 10.0339 5 10.0402 5C10.0465 5 10.0528 5 10.0591 5C10.0654 5 10.0716 5 10.0779 5C10.0841 5 10.0904 5 10.0966 5C10.1028 5 10.109 5 10.1152 5C10.1214 5 10.1276 5 10.1337 5C10.1399 5 10.146 5 10.1522 5C10.1583 5 10.1644 5 10.1705 5C10.1766 5 10.1827 5 10.1888 5C10.1949 5 10.2009 5 10.207 5C10.213 5 10.219 5 10.2251 5C10.2311 5 10.2371 5 10.243 5C10.249 5 10.255 5 10.2609 5C10.2669 5 10.2728 5 10.2788 5C10.2847 5 10.2906 5 10.2965 5C10.3024 5 10.3082 5 10.3141 5C10.32 5 10.3258 5 10.3316 5C10.3375 5 10.3433 5 10.3491 5C10.3549 5 10.3607 5 10.3664 5C10.3722 5 10.378 5 10.3837 5C10.3894 5 10.3951 5 10.4009 5C10.4066 5 10.4122 5 10.4179 5C10.4236 5 10.4292 5 10.4349 5C10.4405 5 10.4462 5 10.4518 5C10.4574 5 10.463 5 10.4685 5C10.4741 5 10.4797 5 10.4852 5C10.4908 5 10.4963 5 10.5018 5C10.5073 5 10.5128 5 10.5183 5C10.5238 5 10.5293 5 10.5347 5C10.5401 5 10.5456 5 10.551 5C10.5564 5 10.5618 5 10.5672 5C10.5726 5 10.5779 5 10.5833 5C10.5886 5 10.594 5 10.5993 5C10.6046 5 10.6099 5 10.6152 5C10.6205 5 10.6257 5 10.631 5C10.6362 5 10.6415 5 10.6467 5C10.6519 5 10.6571 5 10.6623 5C10.6675 5 10.6726 5 10.6778 5C10.6829 5 10.6881 5 10.6932 5C10.6983 5 10.7034 5 10.7085 5C10.7135 5 10.7186 5 10.7237 5C10.7287 5 10.7337 5 10.7387 5C10.7438 5 10.7487 5 10.7537 5C10.7587 5 10.7637 5 10.7686 5C10.7735 5 10.7785 5 10.7834 5C10.7883 5 10.7932 5 10.798 5C10.8029 5 10.8078 5 10.8126 5C10.8174 5 10.8223 5 10.8271 5C10.8319 5 10.8367 5 10.8414 5C10.8462 5 10.8509 5 10.8557 5C10.8604 5 10.8651 5 10.8698 5C10.8745 5 10.8792 5 10.8838 5C10.8885 5 10.8931 5 10.8978 5C10.9024 5 10.907 5 10.9116 5C10.9162 5 10.9207 5 10.9253 5C10.9299 5 10.9344 5 10.9389 5C10.9434 5 10.9479 5 10.9524 5C10.9569 5 10.9613 5 10.9658 5C10.9702 5 10.9746 5 10.979 5C10.9835 5 10.9878 5 10.9922 5C10.9966 5 11.0009 5 11.0053 5C11.0096 5 11.0139 5 11.0182 5C11.0225 5 11.0268 5 11.031 5C11.0353 5 11.0395 5 11.0437 5C11.048 5 11.0522 5 11.0563 5C11.0605 5 11.0647 5 11.0688 5C11.073 5 11.0771 5 11.0812 5C11.0853 5 11.0894 5 11.0935 5C11.0975 5 11.1016 5 11.1056 5C11.1096 5 11.1137 5 11.1176 5C11.1216 5 11.1256 5 11.1296 5C11.1335 5 11.1374 5 11.1414 5C11.1453 5 11.1492 5 11.153 5C11.1569 5 11.1608 5 11.1646 5C11.1685 5 11.1723 5 11.1761 5C11.1799 5 11.1836 5 11.1874 5C11.1912 5 11.1949 5 11.1986 5C11.2023 5 11.206 5 11.2097 5C11.2134 5 11.2171 5 11.2207 5C11.2243 5 11.228 5 11.2316 5C11.2352 5 11.2387 5 11.2423 5C11.2459 5 11.2494 5 11.2529 5C11.2564 5 11.2599 5 11.2634 5C11.2669 5 11.2704 5 11.2738 5C11.2772 5 11.2807 5 11.2841 5C11.2875 5 11.2908 5 11.2942 5C11.2976 5 11.3009 5 11.3042 5C11.3075 5 11.3108 5 11.3141 5C11.3174 5 11.3207 5 11.3239 5C11.3271 5 11.3303 5 11.3335 5C11.3367 5 11.3399 5 11.3431 5C11.3462 5 11.3494 5 11.3525 5C11.3556 5 11.3587 5 11.3617 5C11.3648 5 11.3679 5 11.3709 5C11.3739 5 11.3769 5 11.3799 5C11.3829 5 11.3859 5 11.3888 5C11.3918 5 11.3947 5 11.3976 5C11.4005 5 11.4034 5 11.4062 5C11.4091 5 11.4119 5 11.4148 5C11.4176 5 11.4204 5 11.4232 5C11.4259 5 11.4287 5 11.4314 5C11.4342 5 11.4369 5 11.4396 5C11.4423 5 11.4449 5 11.4476 5C11.4502 5 11.4528 5 11.4555 5C11.4581 5 11.4606 5 11.4632 5C11.4658 5 11.4683 5 11.4708 5C11.4733 5 11.4758 5 11.4783 5C11.4808 5 11.4832 5 11.4857 5C11.4881 5 11.4905 5 11.4929 5C11.4953 5 11.4977 5 11.5 5V4C11.4977 4 11.4953 4 11.4929 4C11.4905 4 11.4881 4 11.4857 4C11.4832 4 11.4808 4 11.4783 4C11.4758 4 11.4733 4 11.4708 4C11.4683 4 11.4658 4 11.4632 4C11.4606 4 11.4581 4 11.4555 4C11.4528 4 11.4502 4 11.4476 4C11.4449 4 11.4423 4 11.4396 4C11.4369 4 11.4342 4 11.4314 4C11.4287 4 11.4259 4 11.4232 4C11.4204 4 11.4176 4 11.4148 4C11.4119 4 11.4091 4 11.4062 4C11.4034 4 11.4005 4 11.3976 4C11.3947 4 11.3918 4 11.3888 4C11.3859 4 11.3829 4 11.3799 4C11.3769 4 11.3739 4 11.3709 4C11.3679 4 11.3648 4 11.3617 4C11.3587 4 11.3556 4 11.3525 4C11.3494 4 11.3462 4 11.3431 4C11.3399 4 11.3367 4 11.3335 4C11.3303 4 11.3271 4 11.3239 4C11.3207 4 11.3174 4 11.3141 4C11.3108 4 11.3075 4 11.3042 4C11.3009 4 11.2976 4 11.2942 4C11.2908 4 11.2875 4 11.2841 4C11.2807 4 11.2772 4 11.2738 4C11.2704 4 11.2669 4 11.2634 4C11.2599 4 11.2564 4 11.2529 4C11.2494 4 11.2459 4 11.2423 4C11.2387 4 11.2352 4 11.2316 4C11.228 4 11.2243 4 11.2207 4C11.2171 4 11.2134 4 11.2097 4C11.206 4 11.2023 4 11.1986 4C11.1949 4 11.1912 4 11.1874 4C11.1836 4 11.1799 4 11.1761 4C11.1723 4 11.1685 4 11.1646 4C11.1608 4 11.1569 4 11.153 4C11.1492 4 11.1453 4 11.1414 4C11.1374 4 11.1335 4 11.1296 4C11.1256 4 11.1216 4 11.1176 4C11.1137 4 11.1096 4 11.1056 4C11.1016 4 11.0975 4 11.0935 4C11.0894 4 11.0853 4 11.0812 4C11.0771 4 11.073 4 11.0688 4C11.0647 4 11.0605 4 11.0563 4C11.0522 4 11.048 4 11.0437 4C11.0395 4 11.0353 4 11.031 4C11.0268 4 11.0225 4 11.0182 4C11.0139 4 11.0096 4 11.0053 4C11.0009 4 10.9966 4 10.9922 4C10.9878 4 10.9835 4 10.979 4C10.9746 4 10.9702 4 10.9658 4C10.9613 4 10.9569 4 10.9524 4C10.9479 4 10.9434 4 10.9389 4C10.9344 4 10.9299 4 10.9253 4C10.9207 4 10.9162 4 10.9116 4C10.907 4 10.9024 4 10.8978 4C10.8931 4 10.8885 4 10.8838 4C10.8792 4 10.8745 4 10.8698 4C10.8651 4 10.8604 4 10.8557 4C10.8509 4 10.8462 4 10.8414 4C10.8367 4 10.8319 4 10.8271 4C10.8223 4 10.8174 4 10.8126 4C10.8078 4 10.8029 4 10.798 4C10.7932 4 10.7883 4 10.7834 4C10.7785 4 10.7735 4 10.7686 4C10.7637 4 10.7587 4 10.7537 4C10.7487 4 10.7438 4 10.7387 4C10.7337 4 10.7287 4 10.7237 4C10.7186 4 10.7135 4 10.7085 4C10.7034 4 10.6983 4 10.6932 4C10.6881 4 10.6829 4 10.6778 4C10.6726 4 10.6675 4 10.6623 4C10.6571 4 10.6519 4 10.6467 4C10.6415 4 10.6362 4 10.631 4C10.6257 4 10.6205 4 10.6152 4C10.6099 4 10.6046 4 10.5993 4C10.594 4 10.5886 4 10.5833 4C10.5779 4 10.5726 4 10.5672 4C10.5618 4 10.5564 4 10.551 4C10.5456 4 10.5401 4 10.5347 4C10.5293 4 10.5238 4 10.5183 4C10.5128 4 10.5073 4 10.5018 4C10.4963 4 10.4908 4 10.4852 4C10.4797 4 10.4741 4 10.4685 4C10.463 4 10.4574 4 10.4518 4C10.4462 4 10.4405 4 10.4349 4C10.4292 4 10.4236 4 10.4179 4C10.4122 4 10.4066 4 10.4009 4C10.3951 4 10.3894 4 10.3837 4C10.378 4 10.3722 4 10.3664 4C10.3607 4 10.3549 4 10.3491 4C10.3433 4 10.3375 4 10.3316 4C10.3258 4 10.32 4 10.3141 4C10.3082 4 10.3024 4 10.2965 4C10.2906 4 10.2847 4 10.2788 4C10.2728 4 10.2669 4 10.2609 4C10.255 4 10.249 4 10.243 4C10.2371 4 10.2311 4 10.2251 4C10.219 4 10.213 4 10.207 4C10.2009 4 10.1949 4 10.1888 4C10.1827 4 10.1766 4 10.1705 4C10.1644 4 10.1583 4 10.1522 4C10.146 4 10.1399 4 10.1337 4C10.1276 4 10.1214 4 10.1152 4C10.109 4 10.1028 4 10.0966 4C10.0904 4 10.0841 4 10.0779 4C10.0716 4 10.0654 4 10.0591 4C10.0528 4 10.0465 4 10.0402 4C10.0339 4 10.0276 4 10.0212 4C10.0149 4 10.0086 4 10.0022 4C9.99583 4 9.98946 4 9.98306 4C9.97667 4 9.97026 4 9.96384 4C9.95742 4 9.95099 4 9.94454 4C9.93809 4 9.93162 4 9.92515 4C9.91867 4 9.91218 4 9.90567 4C9.89917 4 9.89265 4 9.88612 4C9.87959 4 9.87304 4 9.86648 4C9.85992 4 9.85334 4 9.84676 4C9.84017 4 9.83357 4 9.82695 4C9.82034 4 9.81371 4 9.80707 4C9.80043 4 9.79377 4 9.7871 4C9.78043 4 9.77375 4 9.76706 4C9.76036 4 9.75365 4 9.74693 4C9.74021 4 9.73347 4 9.72672 4C9.71997 4 9.71321 4 9.70644 4C9.69966 4 9.69287 4 9.68607 4C9.67927 4 9.67245 4 9.66562 4C9.6588 4 9.65196 4 9.6451 4C9.63825 4 9.63138 4 9.6245 4C9.61762 4 9.61073 4 9.60382 4C9.59692 4 9.59 4 9.58307 4C9.57614 4 9.5692 4 9.56224 4C9.55528 4 9.54831 4 9.54133 4C9.53435 4 9.52736 4 9.52035 4C9.51334 4 9.50632 4 9.49929 4C9.49226 4 9.48522 4 9.47816 4C9.4711 4 9.46403 4 9.45695 4C9.44987 4 9.44278 4 9.43567 4C9.42856 4 9.42144 4 9.41431 4C9.40718 4 9.40004 4 9.39289 4C9.38573 4 9.37856 4 9.37139 4C9.36421 4 9.35702 4 9.34981 4C9.34261 4 9.33539 4 9.32817 4C9.32094 4 9.3137 4 9.30645 4C9.2992 4 9.29194 4 9.28466 4C9.27739 4 9.2701 4 9.2628 4C9.25551 4 9.2482 4 9.24088 4C9.23356 4 9.22622 4 9.21888 4C9.21153 4 9.20418 4 9.19681 4C9.18944 4 9.18207 4 9.17467 4C9.16728 4 9.15988 4 9.15247 4C9.14506 4 9.13763 4 9.1302 4C9.12276 4 9.11531 4 9.10786 4C9.1004 4 9.09293 4 9.08545 4C9.07797 4 9.07047 4 9.06297 4C9.05547 4 9.04796 4 9.04043 4C9.03291 4 9.02537 4 9.01782 4C9.01028 4 9.00272 4 8.99515 4C8.98758 4 8.98 4 8.97241 4C8.96482 4 8.95722 4 8.94961 4C8.942 4 8.93437 4 8.92674 4C8.91911 4 8.91146 4 8.90381 4C8.89616 4 8.88849 4 8.88082 4C8.87314 4 8.86545 4 8.85776 4C8.85006 4 8.84235 4 8.83464 4C8.82692 4 8.81919 4 8.81145 4C8.80372 4 8.79597 4 8.78821 4C8.78045 4 8.77268 4 8.7649 4C8.75713 4 8.74934 4 8.74154 4C8.73374 4 8.72593 4 8.71811 4C8.71029 4 8.70246 4 8.69462 4C8.68678 4 8.67893 4 8.67107 4C8.66322 4 8.65535 4 8.64747 4C8.63959 4 8.6317 4 8.6238 4C8.6159 4 8.608 4 8.60008 4C8.59216 4 8.58423 4 8.5763 4C8.56836 4 8.56041 4 8.55246 4C8.5445 4 8.53654 4 8.52856 4C8.52059 4 8.5126 4 8.50461 4C8.49661 4 8.48861 4 8.4806 4C8.47258 4 8.46456 4 8.45653 4C8.4485 4 8.44046 4 8.43241 4C8.42436 4 8.4163 4 8.40823 4C8.40017 4 8.39209 4 8.384 4C8.37592 4 8.36782 4 8.35972 4C8.35161 4 8.3435 4 8.33538 4C8.32726 4 8.31913 4 8.31099 4C8.30285 4 8.2947 4 8.28654 4C8.27838 4 8.27022 4 8.26204 4C8.25387 4 8.24568 4 8.23749 4C8.2293 4 8.2211 4 8.21289 4C8.20468 4 8.19646 4 8.18824 4C8.18001 4 8.17178 4 8.16353 4C8.15529 4 8.14704 4 8.13878 4C8.13052 4 8.12225 4 8.11397 4C8.1057 4 8.09741 4 8.08912 4C8.08083 4 8.07253 4 8.06422 4C8.05591 4 8.04759 4 8.03926 4C8.03094 4 8.0226 4 8.01426 4C8.00592 4 7.99757 4 7.98921 4C7.98086 4 7.97249 4 7.96412 4C7.95575 4 7.94736 4 7.93898 4C7.93059 4 7.92219 4 7.91379 4C7.90538 4 7.89697 4 7.88855 4C7.88013 4 7.8717 4 7.86327 4C7.85483 4 7.84639 4 7.83794 4C7.82949 4 7.82103 4 7.81257 4C7.8041 4 7.79563 4 7.78715 4C7.77867 4 7.77018 4 7.76169 4C7.75319 4 7.74469 4 7.73618 4C7.72767 4 7.71916 4 7.71064 4C7.70211 4 7.69358 4 7.68504 4C7.67651 4 7.66796 4 7.65941 4C7.65086 4 7.6423 4 7.63374 4C7.62517 4 7.6166 4 7.60802 4C7.59944 4 7.59085 4 7.58226 4C7.57367 4 7.56507 4 7.55646 4C7.54785 4 7.53924 4 7.53062 4C7.522 4 7.51337 4 7.50474 4C7.49611 4 7.48747 4 7.47882 4C7.47017 4 7.46152 4 7.45286 4C7.4442 4 7.43554 4 7.42687 4C7.41819 4 7.40951 4 7.40083 4C7.39215 4 7.38345 4 7.37476 4C7.36606 4 7.35736 4 7.34865 4C7.33994 4 7.33122 4 7.3225 4C7.31378 4 7.30505 4 7.29631 4C7.28758 4 7.27884 4 7.27009 4C7.26135 4 7.2526 4 7.24384 4C7.23508 4 7.22632 4 7.21755 4C7.20878 4 7.2 4 7.19122 4C7.18244 4 7.17365 4 7.16486 4C7.15607 4 7.14727 4 7.13846 4C7.12966 4 7.12085 4 7.11203 4C7.10322 4 7.0944 4 7.08557 4C7.07675 4 7.06791 4 7.05908 4C7.05024 4 7.0414 4 7.03255 4C7.0237 4 7.01485 4 7.00599 4C6.99713 4 6.98827 4 6.9794 4C6.97053 4 6.96166 4 6.95278 4C6.9439 4 6.93502 4 6.92613 4C6.91724 4 6.90834 4 6.89944 4C6.89054 4 6.88164 4 6.87273 4C6.86382 4 6.85491 4 6.84599 4C6.83707 4 6.82815 4 6.81922 4C6.81029 4 6.80136 4 6.79242 4C6.78348 4 6.77454 4 6.76559 4C6.75664 4 6.74769 4 6.73873 4C6.72978 4 6.72082 4 6.71185 4C6.70288 4 6.69391 4 6.68494 4C6.67597 4 6.66699 4 6.658 4C6.64902 4 6.64003 4 6.63104 4C6.62205 4 6.61305 4 6.60405 4C6.59505 4 6.58605 4 6.57704 4C6.56803 4 6.55902 4 6.55 4C6.54098 4 6.53196 4 6.52294 4C6.51391 4 6.50488 4 6.49585 4C6.48682 4 6.47778 4 6.46874 4C6.4597 4 6.45065 4 6.44161 4C6.43256 4 6.42351 4 6.41445 4C6.40539 4 6.39633 4 6.38727 4C6.37821 4 6.36914 4 6.36007 4C6.351 4 6.34193 4 6.33285 4C6.32377 4 6.31469 4 6.30561 4C6.29652 4 6.28743 4 6.27834 4C6.26925 4 6.26016 4 6.25106 4C6.24196 4 6.23286 4 6.22375 4C6.21465 4 6.20554 4 6.19643 4C6.18732 4 6.17821 4 6.16909 4C6.15997 4 6.15085 4 6.14173 4C6.1326 4 6.12348 4 6.11435 4C6.10522 4 6.09609 4 6.08695 4C6.07782 4 6.06868 4 6.05954 4C6.0504 4 6.04125 4 6.03211 4C6.02296 4 6.01381 4 6.00466 4C5.99551 4 5.98636 4 5.9772 4C5.96804 4 5.95888 4 5.94972 4C5.94056 4 5.93139 4 5.92223 4C5.91306 4 5.90389 4 5.89472 4C5.88555 4 5.87637 4 5.8672 4C5.85802 4 5.84884 4 5.83966 4C5.83048 4 5.82129 4 5.81211 4C5.80292 4 5.79374 4 5.78454 4C5.77536 4 5.76616 4 5.75697 4C5.74778 4 5.73858 4 5.72938 4C5.72018 4 5.71098 4 5.70178 4C5.69258 4 5.68338 4 5.67417 4C5.66496 4 5.65576 4 5.64655 4C5.63734 4 5.62813 4 5.61891 4C5.6097 4 5.60049 4 5.59127 4C5.58206 4 5.57284 4 5.56362 4C5.5544 4 5.54518 4 5.53596 4C5.52673 4 5.51751 4 5.50829 4C5.49906 4 5.48983 4 5.48061 4C5.47138 4 5.46215 4 5.45292 4C5.44369 4 5.43446 4 5.42522 4C5.41599 4 5.40676 4 5.39752 4C5.38829 4 5.37905 4 5.36981 4C5.36058 4 5.35134 4 5.3421 4C5.33286 4 5.32362 4 5.31438 4C5.30514 4 5.29589 4 5.28665 4C5.27741 4 5.26816 4 5.25892 4C5.24967 4 5.24043 4 5.23118 4C5.22194 4 5.21269 4 5.20344 4C5.19419 4 5.18495 4 5.1757 4C5.16645 4 5.1572 4 5.14795 4C5.1387 4 5.12945 4 5.1202 4C5.11095 4 5.1017 4 5.09245 4C5.08319 4 5.07394 4 5.06469 4C5.05544 4 5.04619 4 5.03693 4C5.02768 4 5.01843 4 5.00917 4C4.99992 4 4.99067 4 4.98141 4C4.97216 4 4.96291 4 4.95365 4C4.9444 4 4.93515 4 4.9259 4C4.91664 4 4.90739 4 4.89814 4C4.88888 4 4.87963 4 4.87038 4C4.86112 4 4.85187 4 4.84262 4C4.83337 4 4.82411 4 4.81486 4C4.80561 4 4.79636 4 4.78711 4C4.77786 4 4.76861 4 4.75936 4C4.75011 4 4.74086 4 4.73161 4C4.72236 4 4.71311 4 4.70386 4C4.69462 4 4.68537 4 4.67612 4C4.66688 4 4.65763 4 4.64839 4C4.63914 4 4.6299 4 4.62065 4C4.61141 4 4.60217 4 4.59293 4C4.58368 4 4.57444 4 4.5652 4C4.55596 4 4.54672 4 4.53749 4C4.52825 4 4.51901 4 4.50978 4C4.50054 4 4.49131 4 4.48207 4C4.47284 4 4.46361 4 4.45438 4C4.44515 4 4.43592 4 4.42669 4C4.41746 4 4.40823 4 4.39901 4C4.38978 4 4.38056 4 4.37133 4C4.36211 4 4.35289 4 4.34367 4C4.33445 4 4.32523 4 4.31602 4C4.3068 4 4.29758 4 4.28837 4C4.27916 4 4.26995 4 4.26074 4C4.25153 4 4.24232 4 4.23311 4C4.22391 4 4.2147 4 4.2055 4C4.1963 4 4.18709 4 4.1779 4C4.1687 4 4.1595 4 4.15031 4C4.14111 4 4.13192 4 4.12273 4C4.11354 4 4.10435 4 4.09516 4C4.08597 4 4.07679 4 4.06761 4C4.05843 4 4.04925 4 4.04007 4C4.03089 4 4.02172 4 4.01254 4C4.00337 4 3.9942 4 3.98503 4C3.97586 4 3.9667 4 3.95754 4C3.94837 4 3.93921 4 3.93005 4C3.9209 4 3.91174 4 3.90259 4C3.89344 4 3.88428 4 3.87514 4C3.86599 4 3.85685 4 3.8477 4C3.83856 4 3.82942 4 3.82029 4C3.81115 4 3.80202 4 3.79289 4C3.78376 4 3.77463 4 3.7655 4C3.75638 4 3.74726 4 3.73814 4C3.72902 4 3.71991 4 3.71079 4C3.70168 4 3.69257 4 3.68347 4C3.67436 4 3.66526 4 3.65616 4C3.64706 4 3.63796 4 3.62887 4C3.61978 4 3.61069 4 3.6016 4C3.59252 4 3.58344 4 3.57436 4C3.56528 4 3.5562 4 3.54713 4C3.53806 4 3.52899 4 3.51993 4C3.51086 4 3.5018 4 3.49274 4C3.48369 4 3.47463 4 3.46558 4C3.45653 4 3.44749 4 3.43844 4C3.4294 4 3.42036 4 3.41133 4C3.40229 4 3.39326 4 3.38424 4C3.37521 4 3.36619 4 3.35717 4C3.34815 4 3.33914 4 3.33013 4C3.32112 4 3.31211 4 3.30311 4C3.29411 4 3.28511 4 3.27611 4C3.26712 4 3.25813 4 3.24915 4C3.24016 4 3.23118 4 3.2222 4C3.21323 4 3.20426 4 3.19529 4C3.18632 4 3.17736 4 3.1684 4C3.15944 4 3.15049 4 3.14154 4C3.13259 4 3.12365 4 3.11471 4C3.10577 4 3.09683 4 3.0879 4C3.07897 4 3.07004 4 3.06112 4C3.0522 4 3.04329 4 3.03437 4C3.02546 4 3.01656 4 3.00766 4C2.99875 4 2.98986 4 2.98097 4C2.97208 4 2.96319 4 2.95431 4C2.94543 4 2.93655 4 2.92768 4C2.91881 4 2.90994 4 2.90108 4C2.89222 4 2.88337 4 2.87452 4C2.86567 4 2.85682 4 2.84798 4C2.83915 4 2.83031 4 2.82148 4C2.81266 4 2.80383 4 2.79502 4C2.7862 4 2.77739 4 2.76858 4C2.75977 4 2.75097 4 2.74218 4C2.73338 4 2.72459 4 2.71581 4C2.70703 4 2.69825 4 2.68948 4C2.6807 4 2.67194 4 2.66318 4C2.65442 4 2.64566 4 2.63691 4C2.62817 4 2.61942 4 2.61069 4C2.60195 4 2.59322 4 2.5845 4C2.57577 4 2.56705 4 2.55834 4C2.54963 4 2.54092 4 2.53222 4C2.52352 4 2.51483 4 2.50614 4C2.49745 4 2.48877 4 2.4801 4C2.47142 4 2.46276 4 2.45409 4C2.44543 4 2.43678 4 2.42813 4C2.41948 4 2.41084 4 2.4022 4C2.39357 4 2.38494 4 2.37631 4C2.36769 4 2.35907 4 2.35047 4C2.34186 4 2.33325 4 2.32466 4C2.31606 4 2.30747 4 2.29889 4C2.29031 4 2.28173 4 2.27317 4C2.2646 4 2.25604 4 2.24748 4C2.23893 4 2.23038 4 2.22184 4C2.2133 4 2.20477 4 2.19624 4C2.18771 4 2.1792 4 2.17068 4C2.16217 4 2.15367 4 2.14517 4C2.13667 4 2.12818 4 2.1197 4C2.11122 4 2.10274 4 2.09427 4C2.08581 4 2.07735 4 2.06889 4C2.06044 4 2.05199 4 2.04356 4C2.03512 4 2.02669 4 2.01827 4C2.00984 4 2.00143 4 1.99302 4C1.98461 4 1.97621 4 1.96782 4C1.95943 4 1.95104 4 1.94267 4C1.93429 4 1.92592 4 1.91756 4C1.9092 4 1.90085 4 1.8925 4C1.88416 4 1.87582 4 1.86749 4C1.85917 4 1.85084 4 1.84253 4C1.83422 4 1.82592 4 1.81762 4C1.80932 4 1.80103 4 1.79276 4C1.78448 4 1.7762 4 1.76794 4C1.75968 4 1.75142 4 1.74318 4C1.73493 4 1.72669 4 1.71846 4C1.71023 4 1.70201 4 1.6938 4C1.68559 4 1.67738 4 1.66919 4C1.66099 4 1.6528 4 1.64463 4C1.63645 4 1.62828 4 1.62012 4C1.61196 4 1.6038 4 1.59566 4C1.58752 4 1.57938 4 1.57126 4C1.56313 4 1.55502 4 1.54691 4C1.5388 4 1.5307 4 1.52261 4C1.51452 4 1.50644 4 1.49837 4C1.4903 4 1.48224 4 1.47418 4C1.46613 4 1.45809 4 1.45005 4C1.44202 4 1.43399 4 1.42597 4C1.41796 4 1.40995 4 1.40195 4C1.39396 4 1.38597 4 1.37799 4C1.37001 4 1.36204 4 1.35408 4C1.34612 4 1.33817 4 1.33023 4C1.32229 4 1.31436 4 1.30644 4C1.29851 4 1.2906 4 1.2827 4C1.2748 4 1.26691 4 1.25902 4C1.25114 4 1.24327 4 1.23541 4C1.22754 4 1.21969 4 1.21185 4C1.204 4 1.19617 4 1.18835 4C1.18052 4 1.17271 4 1.16491 4C1.1571 4 1.14931 4 1.14153 4C1.13375 4 1.12597 4 1.11821 4C1.11045 4 1.1027 4 1.09495 4C1.08721 4 1.07948 4 1.07176 4C1.06404 4 1.05633 4 1.04863 4C1.04093 4 1.03324 4 1.02556 4C1.01788 4 1.01021 4 1.00255 4C0.99489 4 0.987242 4 0.979604 4C0.971967 4 0.96434 4 0.956724 4C0.949108 4 0.941503 4 0.933908 4C0.926314 4 0.91873 4 0.911157 4C0.903584 4 0.896022 4 0.888471 4C0.88092 4 0.87338 4 0.865851 4C0.858321 4 0.850803 4 0.843296 4C0.835789 4 0.828293 4 0.820808 4C0.813323 4 0.805849 4 0.798386 4C0.790924 4 0.783472 4 0.776032 4C0.768592 4 0.761163 4 0.753745 4C0.746328 4 0.738922 4 0.731527 4C0.724132 4 0.716748 4 0.709377 4C0.702005 4 0.694644 4 0.687295 4C0.679946 4 0.672609 4 0.665283 4C0.657957 4 0.650643 4 0.643341 4C0.636038 4 0.628748 4 0.621469 4C0.61419 4 0.606923 4 0.599667 4C0.592412 4 0.585168 4 0.577936 4C0.570705 4 0.563485 4 0.556277 4C0.549069 4 0.541874 4 0.53469 4C0.527506 4 0.520334 4 0.513175 4C0.506015 4 0.498867 4 0.491732 4C0.484597 4 0.477473 4 0.470363 4C0.463252 4 0.456153 4 0.449067 4C0.44198 4 0.434906 4 0.427845 4C0.420783 4 0.413734 4 0.406697 4C0.39966 4 0.392636 4 0.385624 4C0.378612 4 0.371613 4 0.364626 4C0.357639 4 0.350665 4 0.343704 4C0.336742 4 0.329794 4 0.322858 4C0.315922 4 0.308998 4 0.302088 4C0.295177 4 0.28828 4 0.281395 4C0.27451 4 0.267638 4 0.260779 4C0.25392 4 0.247074 4 0.240242 4C0.233409 4 0.226589 4 0.219782 4C0.212975 4 0.206181 4 0.1994 4C0.19262 4 0.185852 4 0.179098 4C0.172344 4 0.165603 4 0.158875 4C0.152148 4 0.145433 4 0.138732 4C0.132031 4 0.125343 4 0.118669 4C0.111995 4 0.105334 4 0.098687 4C0.0920397 4 0.085406 4 0.0787858 4C0.0721656 4 0.065559 4 0.0589661 4C0.0523731 4 0.0457938 4 0.0392283 4C0.0326627 4 0.0261108 4 0.0195728 4C0.0130347 4 0.00651042 4 0 4V5Z" fill="#9FCE10"></path></svg> 