<?xml version="1.0" encoding="UTF-8"?> <svg xmlns="http://www.w3.org/2000/svg" width="32" height="34" viewBox="0 0 32 34" fill="none"><path d="M10.8617 0.769745C9.74258 0.987762 8.70578 1.67573 8.07596 2.60594C7.69321 3.17278 7.56725 3.4877 7.39768 4.27256C7.30563 4.7086 7.30078 4.90724 7.30078 8.37614C7.30078 11.7966 7.30563 12.0437 7.39283 12.47C7.54787 13.2161 7.67868 13.5407 8.05173 14.1124C8.60404 14.9506 9.49065 15.6046 10.4984 15.9147C10.8617 16.0213 10.8811 16.0213 14.4857 16.0407L18.1048 16.0552L18.2986 16.312C18.5505 16.6463 18.8073 17.247 18.8848 17.6685C18.9575 18.0949 18.9187 18.7538 18.7927 19.1123C18.7007 19.3933 18.7007 19.3933 18.7976 19.3933C19.0059 19.3933 19.6261 19.0348 19.9555 18.7247C20.5514 18.1627 20.9535 17.4263 21.2248 16.3895L21.3363 15.9777L21.6512 15.876C22.0921 15.7306 22.7752 15.3624 23.1289 15.0814C23.7151 14.6115 24.2771 13.7878 24.5193 13.0466C24.7374 12.378 24.7422 12.2762 24.7422 8.36161C24.7422 4.85879 24.7374 4.61655 24.6453 4.19505C24.2723 2.41215 22.9399 1.10404 21.157 0.769745C20.813 0.701918 20.1154 0.692228 15.9779 0.697073C12.1311 0.701918 11.133 0.716452 10.8617 0.769745ZM21.2297 3.02744C21.2442 3.09042 21.2491 5.42564 21.2442 8.22595L21.2297 13.313L16.036 13.3276L10.8375 13.3373V13.0223V12.7074H15.7066H20.5756V7.84806C20.5756 5.17371 20.5902 2.9693 20.6096 2.95477C20.6241 2.93539 20.7646 2.92085 20.9196 2.92085C21.1716 2.92085 21.2055 2.93054 21.2297 3.02744ZM19.1658 4.20958C19.3014 4.64077 19.4129 5.01383 19.4129 5.04289C19.4129 5.14464 19.3305 5.10588 19.0495 4.87817C18.8993 4.75705 18.7637 4.665 18.7491 4.68438C18.7249 4.7086 18.6619 4.90239 18.4439 5.68241C18.3373 6.04578 18.1145 6.80642 17.9061 7.48954C17.8238 7.75116 17.6881 8.22111 17.5961 8.53118C17.097 10.285 16.9808 10.6532 16.9226 10.7114C16.8742 10.7598 16.7821 10.5369 16.4333 9.48561C16.1959 8.77827 15.9876 8.21626 15.973 8.23564C15.9537 8.25987 15.881 8.4149 15.8035 8.58932C15.7308 8.76373 15.6145 9.02535 15.5515 9.1707C15.4837 9.31604 15.3045 9.72301 15.1494 10.067C14.9944 10.4158 14.8054 10.8422 14.7279 11.0117C14.6504 11.1862 14.5244 11.4768 14.4469 11.6561C14.3742 11.8354 14.287 11.9759 14.258 11.9662C14.2047 11.9468 13.4053 10.0234 13.4053 9.90711C13.4053 9.75208 13.2938 9.92649 12.7997 10.8567C12.3055 11.7869 12.2571 11.8596 12.1262 11.8741C11.9179 11.8983 11.5642 11.8402 11.5642 11.7772C11.5642 11.753 11.9421 11.0166 12.4024 10.1494C12.8578 9.27728 13.2406 8.54087 13.2502 8.50696C13.2599 8.47304 13.3035 8.44397 13.3471 8.44397C13.4101 8.44397 13.4925 8.61354 13.6669 9.08834C13.8026 9.43716 13.9867 9.92165 14.0836 10.1542L14.258 10.5805L15.1058 8.68137C15.5709 7.63488 15.973 6.7725 15.9973 6.76281C16.0263 6.75797 16.0845 6.84033 16.1281 6.95661C16.5108 7.91104 16.8451 8.78796 16.8451 8.8364C16.8451 8.98659 16.9372 8.77827 17.0534 8.3713C17.1213 8.12906 17.2763 7.59612 17.3974 7.18431C17.5137 6.7725 17.7123 6.09422 17.8335 5.68241C17.9497 5.2706 18.0709 4.86848 18.0999 4.79581C18.2017 4.53419 18.1823 4.51965 17.7899 4.51965C17.5912 4.51965 17.4265 4.50027 17.4265 4.47605C17.4265 4.40337 18.846 3.35205 18.8848 3.3908C18.8993 3.41503 19.0301 3.77839 19.1658 4.20958Z" fill="#9FCE10"></path><path d="M9.99006 19.8095C9.85925 19.9015 9.60732 20.0566 9.4329 20.1534C9.25849 20.2503 9.08407 20.3569 9.04531 20.386C8.87574 20.5217 7.57733 21.1951 6.74886 21.5778C5.75567 22.0381 3.83711 22.7406 3.27996 22.852C2.63559 22.9828 1.93309 23.3365 1.47768 23.7532C0.673433 24.4944 0.174414 25.6378 0.0436035 27.0477L0 27.5079L0.222863 27.7162C1.60364 29.0147 2.59683 29.7947 4.01153 30.6764C6.62289 32.314 9.4765 33.3653 12.6547 33.8692C13.4687 33.9952 13.5026 34 15.9734 34C18.3329 34 18.5073 33.9952 19.2195 33.8886C21.1041 33.6076 23.2794 33.0117 24.7184 32.377C24.825 32.3285 24.9994 32.251 25.106 32.2026C26.2057 31.7229 27.509 31.0107 28.4683 30.3761C29.602 29.6203 30.6969 28.7482 31.6077 27.8664L32.0002 27.4837L31.9759 27.1833C31.9469 26.757 31.7821 25.9237 31.661 25.5458C31.4188 24.7996 30.9827 24.1165 30.4498 23.6708C29.9605 23.2541 29.5487 23.07 28.3762 22.7406C26.511 22.2125 24.3453 21.2387 22.4897 20.0953C22.0731 19.8385 21.7243 19.6351 21.7146 19.6447C21.7 19.6641 21.3124 20.885 21.2301 21.1854C21.1962 21.3065 20.9878 21.9606 20.7698 22.6389C20.5518 23.3171 20.2902 24.1456 20.1884 24.4799C20.0867 24.8142 19.9123 25.3665 19.8009 25.7153C19.6894 26.0593 19.5489 26.5099 19.4908 26.7085C19.3212 27.2414 18.7689 28.9565 18.5121 29.7269C18.391 30.0951 18.2699 30.3906 18.2408 30.3809C18.1827 30.3615 18.1827 30.3615 17.5722 28.6222C17.33 27.9294 17.0732 27.2124 17.0102 27.0331C16.9472 26.849 16.894 26.6698 16.894 26.6262C16.894 26.5826 17.0199 26.3645 17.1701 26.1368C17.5286 25.5942 17.9211 24.8239 18.0519 24.3927C18.1778 23.9712 18.1875 23.3704 18.0761 23.0943C17.8968 22.6631 17.6449 22.4499 17.0635 22.2367C16.051 21.8734 14.583 22.1253 14.1276 22.7406C13.895 23.0555 13.8659 23.1669 13.8659 23.6514C13.8659 23.9712 13.895 24.2086 13.958 24.4072C14.0936 24.8384 14.4715 25.6087 14.8058 26.1174C14.9706 26.3645 15.1014 26.6019 15.1014 26.6504C15.1014 26.694 15.0142 26.9701 14.9027 27.2657C14.7961 27.5564 14.6556 27.9488 14.5975 28.1377C14.5345 28.3218 14.3601 28.8257 14.2051 29.2521C14.0549 29.6784 13.895 30.1193 13.8562 30.2307C13.8175 30.347 13.7642 30.439 13.7448 30.439C13.7206 30.439 13.6382 30.2259 13.551 29.9642C13.4687 29.7075 13.3136 29.2327 13.2119 28.9129C13.1101 28.5932 12.9599 28.1232 12.8824 27.8713C12.8049 27.6193 12.6063 26.9944 12.4464 26.4905C12.2865 25.9818 12.0297 25.1775 11.8795 24.6979C11.7294 24.2183 11.521 23.5642 11.4193 23.2445C11.3175 22.9247 11.1334 22.3336 11.0075 21.9363C10.8815 21.5342 10.6732 20.8802 10.5424 20.4829C10.4116 20.0808 10.305 19.7271 10.305 19.6932C10.305 19.606 10.2565 19.6254 9.99006 19.8095Z" fill="#9FCE10"></path></svg> 