<?xml version="1.0" encoding="UTF-8"?> <svg xmlns="http://www.w3.org/2000/svg" width="31" height="34" viewBox="0 0 31 34" fill="none"><path d="M15.8575 7.8806L18.9708 3.64198C18.9708 3.64198 24.3106 3.76805 29.6265 6.51909C28.2654 8.81068 25.5622 9.93407 25.5622 9.93407C25.3786 7.91842 24.1106 7.42676 20.0853 7.42676L15.8575 33.9874L11.6045 7.42116C7.60442 7.42116 6.33646 7.91702 6.15154 9.93127C6.15154 9.93127 3.45209 8.81769 2.08978 6.52749C7.40441 3.77505 12.7442 3.64759 12.7442 3.64759L15.8575 7.8806ZM15.8575 7.8806L15.8525 7.8834H15.8575V7.8806ZM15.8575 2.41914C20.1532 2.37712 25.0729 3.15873 30.107 5.61281C30.78 4.2569 30.9523 3.65879 30.9523 3.65879C25.449 1.22712 20.2954 0.390884 15.8575 0.369873C11.4196 0.390884 6.26601 1.22432 0.762695 3.66019C0.762695 3.66019 1.00799 4.39558 1.608 5.61561C6.64213 3.15593 11.5618 2.37992 15.8575 2.41494V2.41914Z" fill="#E82127"></path></svg> 