<?xml version="1.0" encoding="UTF-8"?> <svg xmlns="http://www.w3.org/2000/svg" width="18" height="18" viewBox="0 0 18 18" fill="none"><g clip-path="url(#clip0_478_59807)"><path fill-rule="evenodd" clip-rule="evenodd" d="M17.7161 6.75H0.283203C1.2823 2.86824 4.80603 0 8.99966 0C13.1933 0 16.717 2.86824 17.7161 6.75Z" fill="#D90012"></path><path fill-rule="evenodd" clip-rule="evenodd" d="M17.7165 11.25C17.9016 10.5309 18 9.77692 18 9C18 8.22308 17.9016 7.46914 17.7165 6.75H0.283539C0.0984443 7.46914 0 8.22308 0 9C0 9.77692 0.0984443 10.5309 0.283539 11.25H17.7165Z" fill="#0033A0"></path><path fill-rule="evenodd" clip-rule="evenodd" d="M17.7161 11.25C16.717 15.1318 13.1933 18 8.99966 18C4.80602 18 1.2823 15.1318 0.283203 11.25H17.7161Z" fill="#F2A800"></path><path fill-rule="evenodd" clip-rule="evenodd" d="M9 17.475C13.6806 17.475 17.475 13.6806 17.475 9C17.475 4.31939 13.6806 0.525 9 0.525C4.31939 0.525 0.525 4.31939 0.525 9C0.525 13.6806 4.31939 17.475 9 17.475ZM9 18C13.9706 18 18 13.9706 18 9C18 4.02944 13.9706 0 9 0C4.02944 0 0 4.02944 0 9C0 13.9706 4.02944 18 9 18Z" fill="#D9D9D9"></path></g><defs><clipPath id="clip0_478_59807"><rect width="18" height="18" fill="white"></rect></clipPath></defs></svg> 