<?xml version="1.0" encoding="UTF-8"?> <svg xmlns="http://www.w3.org/2000/svg" width="24" height="24" viewBox="0 0 24 24" fill="none"><path d="M13.8438 6.37564V5.02243L14.0188 5.48612L12.5615 3.0636H13.3753L14.492 4.92307H14.0236L15.1449 3.0636H15.8972L14.4399 5.48612L14.6103 5.02243V6.37564H13.8438Z" fill="#9FCE10"></path><path d="M9.60156 6.37564V3.0636H11.0352C11.3317 3.0636 11.5872 3.11249 11.8017 3.21027C12.0162 3.3049 12.1818 3.44212 12.2985 3.62191C12.4152 3.80171 12.4736 4.0162 12.4736 4.2654C12.4736 4.51143 12.4152 4.72435 12.2985 4.90415C12.1818 5.08394 12.0162 5.22273 11.8017 5.32052C11.5872 5.41515 11.3317 5.46246 11.0352 5.46246H10.0274L10.3681 5.11706V6.37564H9.60156ZM10.3681 5.20223L10.0274 4.8379H10.9926C11.2292 4.8379 11.4058 4.78744 11.5225 4.6865C11.6393 4.58556 11.6976 4.44519 11.6976 4.2654C11.6976 4.08244 11.6393 3.9405 11.5225 3.83956C11.4058 3.73862 11.2292 3.68815 10.9926 3.68815H10.0274L10.3681 3.32383V5.20223Z" fill="#9FCE10"></path><path d="M7.21728 6.43243C6.95547 6.43243 6.71259 6.38985 6.48863 6.30468C6.26783 6.21951 6.07542 6.09965 5.91139 5.94509C5.75052 5.79052 5.62435 5.60915 5.53287 5.40097C5.44455 5.19278 5.40039 4.96567 5.40039 4.71963C5.40039 4.4736 5.44455 4.24648 5.53287 4.0383C5.62435 3.83011 5.7521 3.64874 5.91612 3.49418C6.08015 3.33962 6.27256 3.21975 6.49336 3.13459C6.71417 3.04942 6.95389 3.00684 7.21255 3.00684C7.47436 3.00684 7.71409 3.04942 7.93173 3.13459C8.15254 3.21975 8.34337 3.33962 8.50424 3.49418C8.66827 3.64874 8.79602 3.83011 8.88749 4.0383C8.97897 4.24333 9.02471 4.47044 9.02471 4.71963C9.02471 4.96567 8.97897 5.19436 8.88749 5.4057C8.79602 5.61388 8.66827 5.79526 8.50424 5.94982C8.34337 6.10123 8.15254 6.21951 7.93173 6.30468C7.71409 6.38985 7.47593 6.43243 7.21728 6.43243ZM7.21255 5.77948C7.3608 5.77948 7.49644 5.75425 7.61946 5.70378C7.74563 5.65331 7.85603 5.58076 7.95066 5.48613C8.04529 5.3915 8.11784 5.27952 8.16831 5.1502C8.22193 5.02087 8.24874 4.87735 8.24874 4.71963C8.24874 4.56192 8.22193 4.41839 8.16831 4.28907C8.11784 4.15974 8.04529 4.04776 7.95066 3.95313C7.85918 3.8585 7.75036 3.78595 7.62419 3.73548C7.49801 3.68502 7.3608 3.65978 7.21255 3.65978C7.06429 3.65978 6.92708 3.68502 6.80091 3.73548C6.67789 3.78595 6.56907 3.8585 6.47444 3.95313C6.37981 4.04776 6.30568 4.15974 6.25206 4.28907C6.20159 4.41839 6.17635 4.56192 6.17635 4.71963C6.17635 4.87419 6.20159 5.01772 6.25206 5.1502C6.30568 5.27952 6.37823 5.3915 6.46971 5.48613C6.56433 5.58076 6.67474 5.65331 6.80091 5.70378C6.92708 5.75425 7.06429 5.77948 7.21255 5.77948Z" fill="#9FCE10"></path><path d="M3.79323 6.43243C3.53773 6.43243 3.29958 6.39142 3.07878 6.30941C2.86113 6.22424 2.67187 6.10438 2.511 5.94982C2.35013 5.79526 2.22396 5.61388 2.13248 5.4057C2.04416 5.19751 2 4.96882 2 4.71963C2 4.47044 2.04416 4.24175 2.13248 4.03357C2.22396 3.82538 2.35013 3.64401 2.511 3.48945C2.67502 3.33489 2.86586 3.2166 3.08351 3.13459C3.30116 3.04942 3.53931 3.00684 3.79796 3.00684C4.08501 3.00684 4.34366 3.05731 4.57393 3.15824C4.80735 3.25603 5.00291 3.40113 5.16063 3.59354L4.66856 4.04776C4.555 3.91843 4.42883 3.82223 4.29004 3.75914C4.15125 3.6929 3.99984 3.65978 3.83581 3.65978C3.68125 3.65978 3.53931 3.68502 3.40998 3.73548C3.28065 3.78595 3.16868 3.8585 3.07405 3.95313C2.97942 4.04776 2.90529 4.15974 2.85167 4.28907C2.8012 4.41839 2.77596 4.56192 2.77596 4.71963C2.77596 4.87735 2.8012 5.02087 2.85167 5.1502C2.90529 5.27952 2.97942 5.3915 3.07405 5.48613C3.16868 5.58076 3.28065 5.65331 3.40998 5.70378C3.53931 5.75425 3.68125 5.77948 3.83581 5.77948C3.99984 5.77948 4.15125 5.74794 4.29004 5.68485C4.42883 5.61861 4.555 5.51925 4.66856 5.38677L5.16063 5.84099C5.00291 6.03341 4.80735 6.18008 4.57393 6.28102C4.34366 6.38196 4.08343 6.43243 3.79323 6.43243Z" fill="#9FCE10"></path><path d="M16 4.50684H18.5C19.0523 4.50684 19.5 4.95455 19.5 5.50684V14.5068C19.5 15.0591 19.0523 15.5068 18.5 15.5068H3.5C2.94772 15.5068 2.5 15.0591 2.5 14.5068V8.00684" stroke="#9FCE10"></path><path d="M19.5 9.00684H21C21.5523 9.00684 22 9.45455 22 10.0068V19.0068C22 19.5591 21.5523 20.0068 21 20.0068H6C5.44772 20.0068 5 19.5591 5 19.0068L5 15.5068" stroke="#9FCE10"></path><rect x="7" y="10.0068" width="8" height="1" fill="#9FCE10"></rect><rect x="7" y="12.0068" width="8" height="1" fill="#9FCE10"></rect></svg> 