<?xml version="1.0" encoding="UTF-8"?> <svg xmlns="http://www.w3.org/2000/svg" width="37" height="36" viewBox="0 0 37 36" fill="none"><g clip-path="url(#clip0_1166_42700)"><path d="M18.0686 28.9992C22.7587 28.9992 26.5608 25.1971 26.5608 20.507C26.5608 15.8169 22.7587 12.0148 18.0686 12.0148C13.3785 12.0148 9.57642 15.8169 9.57642 20.507C9.57642 25.1971 13.3785 28.9992 18.0686 28.9992Z" fill="#E58613"></path><path d="M18.0684 27.2744C21.805 27.2744 24.8342 24.2453 24.8342 20.5086C24.8342 16.772 21.805 13.7429 18.0684 13.7429C14.3318 13.7429 11.3026 16.772 11.3026 20.5086C11.3026 24.2453 14.3318 27.2744 18.0684 27.2744Z" fill="white"></path><path d="M18.0961 9.29637C19.9837 9.29637 21.5139 7.40003 21.5139 5.06077C21.5139 2.7215 19.9837 0.825157 18.0961 0.825157C16.2085 0.825157 14.6782 2.7215 14.6782 5.06077C14.6782 7.40003 16.2085 9.29637 18.0961 9.29637Z" fill="#678925"></path><path d="M23.5347 12.771C23.7962 12.0706 23.9928 11.3477 24.1218 10.6113C24.66 10.8769 25.0654 12.9667 25.0095 14.0571C26.5643 15.7048 27.4791 17.8541 27.5886 20.1169C28.7069 18.4045 31.985 6.5574 22.0949 3.62183C22.6261 9.43706 18.6631 10.0941 18.2018 10.108C17.7405 10.122 13.4419 9.56986 14.0081 3.72668C7.5079 5.14553 6.96272 11.1285 7.15143 13.3232C8.56156 12.5213 10.1327 12.0438 11.7505 11.9253C11.8575 11.4411 12.0806 10.9902 12.4005 10.6113C12.4005 11.1285 12.4355 11.4221 12.4424 11.8484C12.757 11.8065 13.5957 11.7226 14.6861 11.6807C16.1389 11.1277 17.7052 10.9392 19.2478 11.1318C20.7904 11.3243 22.2623 11.8919 23.5347 12.785L23.5347 12.771Z" fill="#678925"></path><path d="M35.1701 30.2078C36.1142 28.5732 35.2374 26.2997 33.2118 25.1297C31.1861 23.9597 28.7786 24.3363 27.8345 25.9709C26.8904 27.6055 27.7672 29.879 29.7929 31.049C31.8185 32.219 34.226 31.8423 35.1701 30.2078Z" fill="#2F6FA8"></path><path d="M27.0556 25.638C27.2932 25.2187 29.9003 21.7869 34.6671 25.2187C36.722 18.8722 31.8154 15.4334 29.8164 14.4759C29.8216 16.1017 29.4583 17.7075 28.754 19.1728C29.115 19.5111 29.3905 19.9303 29.5578 20.3959L28.4605 19.8158C28.3417 20.1024 28.0132 20.8363 27.5239 21.7729C27.3245 23.3376 26.7399 24.8285 25.8226 26.1118C24.9053 27.3951 23.6838 28.4307 22.2678 29.1258C22.7071 29.6295 23.1863 30.0969 23.7007 30.5237C23.2533 30.8172 21.6038 30.286 20.5764 29.7478C18.3733 30.3401 16.0313 30.1269 13.9713 29.1467C15.6348 31.5791 23.6657 38.9529 30.7251 32.278C25.4201 29.8107 26.8319 26.0434 27.0556 25.638Z" fill="#2F6FA8"></path><path d="M8.2892 25.945C7.33863 24.3095 4.93426 23.9391 2.90732 25.1063C0.880375 26.2735 0.0346508 28.5521 0.985217 30.1806C1.93578 31.8092 4.34015 32.1936 6.36011 31.0194C8.38006 29.8451 9.25374 27.5806 8.2892 25.945Z" fill="#C1A840"></path><path d="M8.54727 20.571C8.54727 20.2075 8.54727 19.872 8.61017 19.4946C7.86154 19.6198 7.12661 19.8164 6.41548 20.0817C6.37355 19.4597 8.08596 17.9849 9.04352 17.5376C9.56438 15.9875 10.4769 14.5983 11.6925 13.5047C12.1116 13.0626 12.5807 12.6709 13.0904 12.3374C11.7834 12.0089 -1.10517 14.9375 1.42501 25.2889C6.18483 21.913 8.74297 25.0093 8.98061 25.4077C9.21825 25.8061 10.9097 29.818 5.56277 32.2783C10.029 37.1709 15.4808 34.6617 17.2911 33.3966C15.8784 32.5903 14.6668 31.4744 13.7474 30.1326C13.2758 30.272 12.7789 30.303 12.2936 30.2234L13.342 29.5245C13.1883 29.3218 12.8388 28.8255 12.4124 28.1895C11.2184 27.3093 10.2469 26.1618 9.57578 24.8389C8.90462 23.516 8.55239 22.0544 8.54727 20.571Z" fill="#C1A840"></path><path d="M18.0872 25.0094C17.5325 25.0094 16.9815 24.9372 16.4344 24.7928C15.8948 24.6408 15.4312 24.428 15.0437 24.1545L15.7732 22.741C16.0772 22.9614 16.4268 23.1362 16.8219 23.2653C17.2247 23.3945 17.6313 23.4591 18.0416 23.4591C18.5052 23.4591 18.8699 23.3679 19.1359 23.1856C19.4019 23.0032 19.5349 22.7486 19.5349 22.4218C19.5349 22.2166 19.4817 22.0343 19.3753 21.8747C19.2689 21.7151 19.0789 21.5935 18.8054 21.5099C18.5394 21.4263 18.1632 21.3845 17.6768 21.3845L15.6364 21.3845L16.0468 16.8933L20.9142 16.8933L20.9142 18.3752L16.7079 18.3752L17.6654 17.5316L17.3805 20.7348L16.423 19.8912L18.11 19.8912C18.9003 19.8912 19.5349 20.0014 20.0136 20.2218C20.5 20.4346 20.8534 20.7272 21.0738 21.0995C21.2941 21.4719 21.4043 21.8937 21.4043 22.3648C21.4043 22.836 21.2865 23.2729 21.051 23.6757C20.8154 24.0709 20.4506 24.3938 19.9567 24.6446C19.4703 24.8878 18.8471 25.0094 18.0872 25.0094Z" fill="black"></path></g><defs><clipPath id="clip0_1166_42700"><rect width="36" height="36" fill="white" transform="translate(0.0371094)"></rect></clipPath></defs></svg> 