<?xml version="1.0" encoding="UTF-8"?> <svg xmlns="http://www.w3.org/2000/svg" width="25" height="25" viewBox="0 0 25 25" fill="none"><path fill-rule="evenodd" clip-rule="evenodd" d="M12.6326 0C19.2826 0 24.6734 5.39086 24.6734 12.0408C24.6734 18.6908 19.2826 24.0816 12.6326 24.0816C5.98266 24.0816 0.591797 18.6908 0.591797 12.0408C0.591797 5.39086 5.98266 0 12.6326 0Z" fill="#B4E913"></path><g clip-path="url(#clip0_16_14705)"><path fill-rule="evenodd" clip-rule="evenodd" d="M12.5926 8.38365C10.5974 8.38365 8.97968 10.0013 8.97968 11.9966C8.97968 13.9918 10.5974 15.6095 12.5926 15.6095C14.5878 15.6095 16.2055 13.9918 16.2055 11.9966C16.2055 10.0013 14.5895 8.38365 12.5926 8.38365ZM12.5926 14.3428C11.2978 14.3428 10.2464 13.293 10.2464 11.9966C10.2464 10.7001 11.2961 9.65032 12.5926 9.65032C13.8874 9.65032 14.9388 10.7001 14.9388 11.9966C14.9388 13.293 13.8891 14.3428 12.5926 14.3428Z" fill="white"></path><path d="M17.1946 8.24096C17.1946 8.70733 16.8165 9.08541 16.3502 9.08541C15.8838 9.08541 15.5057 8.70733 15.5057 8.24096C15.5057 7.77458 15.8838 7.39651 16.3502 7.39651C16.8165 7.39651 17.1946 7.77458 17.1946 8.24096Z" fill="white"></path><path fill-rule="evenodd" clip-rule="evenodd" d="M12.5919 4.9613C10.6812 4.9613 10.4411 4.96958 9.69101 5.00435C8.9426 5.03913 8.43097 5.15669 7.98225 5.3322C7.52029 5.51268 7.12787 5.75277 6.73545 6.14353C6.34469 6.53429 6.10294 6.92671 5.92412 7.39033C5.75026 7.83739 5.63105 8.34903 5.59627 9.09909C5.5615 9.84916 5.55322 10.0892 5.55322 12C5.55322 13.9108 5.5615 14.1509 5.59627 14.9009C5.63105 15.6493 5.74861 16.161 5.92412 16.6097C6.1046 17.0717 6.34469 17.4641 6.73545 17.8565C7.12621 18.2473 7.51863 18.489 7.98225 18.6678C8.42931 18.8417 8.94095 18.9609 9.69101 18.9957C10.4411 19.0304 10.6812 19.0387 12.5919 19.0387C14.5027 19.0387 14.7428 19.0304 15.4929 18.9957C16.2413 18.9609 16.7529 18.8433 17.2016 18.6678C17.6636 18.4874 18.056 18.2473 18.4484 17.8565C18.8392 17.4657 19.0809 17.0733 19.2598 16.6097C19.4336 16.1626 19.5528 15.651 19.5876 14.9009C19.6224 14.1509 19.6306 13.9108 19.6306 12C19.6306 10.0892 19.6224 9.84916 19.5876 9.09909C19.5528 8.35068 19.4353 7.83905 19.2598 7.39033C19.0793 6.92837 18.8392 6.53595 18.4484 6.14353C18.0577 5.75277 17.6652 5.51102 17.2016 5.3322C16.7546 5.15834 16.2429 5.03913 15.4929 5.00435C14.7428 4.96793 14.5044 4.9613 12.5919 4.9613ZM12.5919 6.22797C14.4712 6.22797 14.6931 6.2346 15.4349 6.26937C16.1204 6.30083 16.4929 6.41508 16.7413 6.51111C17.0692 6.63861 17.3043 6.79094 17.551 7.03765C17.7977 7.28436 17.95 7.51782 18.0775 7.84732C18.1736 8.09569 18.2878 8.46824 18.3193 9.15373C18.3524 9.89552 18.3607 10.1191 18.3607 11.9967C18.3607 13.8744 18.354 14.0979 18.3193 14.8397C18.2878 15.5252 18.1736 15.8977 18.0775 16.1461C17.95 16.4739 17.7977 16.709 17.551 16.9558C17.3043 17.2025 17.0708 17.3548 16.7413 17.4823C16.4929 17.5783 16.1204 17.6926 15.4349 17.724C14.6931 17.7572 14.4712 17.7654 12.5919 17.7654C10.7126 17.7654 10.4908 17.7588 9.74897 17.724C9.06347 17.6926 8.69092 17.5783 8.44256 17.4823C8.11471 17.3548 7.87959 17.2025 7.63288 16.9558C7.38617 16.709 7.23384 16.4756 7.10634 16.1461C7.01031 15.8977 6.89606 15.5252 6.8646 14.8397C6.83149 14.0979 6.82321 13.8744 6.82321 11.9967C6.82321 10.1191 6.82983 9.89552 6.8646 9.15373C6.89606 8.46824 7.01031 8.09569 7.10634 7.84732C7.23384 7.51948 7.38617 7.28436 7.63288 7.03765C7.87959 6.79094 8.11306 6.63861 8.44256 6.51111C8.69092 6.41508 9.06347 6.30083 9.74897 6.26937C10.4908 6.23625 10.7143 6.22797 12.5919 6.22797Z" fill="white"></path></g><defs><clipPath id="clip0_16_14705"><rect width="15.6531" height="15.6531" fill="white" transform="translate(4.76562 4.17346)"></rect></clipPath></defs></svg> 