<?xml version="1.0" encoding="UTF-8"?> <svg xmlns="http://www.w3.org/2000/svg" width="24" height="25" viewBox="0 0 24 25" fill="none"><path d="M11.5516 4.79413C11.735 4.42251 12.265 4.42251 12.4484 4.79413L14.2579 8.46062C14.4764 8.90333 14.8987 9.21018 15.3873 9.28118L19.4335 9.86913C19.8436 9.92872 20.0074 10.4327 19.7106 10.722L16.7827 13.5759C16.4292 13.9205 16.2679 14.417 16.3513 14.9036L17.0425 18.9335C17.1126 19.3419 16.6839 19.6534 16.3171 19.4606L12.698 17.5579C12.261 17.3282 11.739 17.3282 11.302 17.5579L7.68295 19.4606C7.31614 19.6534 6.88742 19.3419 6.95747 18.9335L7.64865 14.9036C7.73211 14.417 7.57078 13.9205 7.21726 13.5759L4.28939 10.722C3.99263 10.4327 4.15639 9.92872 4.5665 9.86913L8.61271 9.28118C9.10127 9.21018 9.52362 8.90333 9.74211 8.46062L11.5516 4.79413Z" stroke="#9FCE10"></path><path d="M7 6.75586L4 3.75586" stroke="#9FCE10" stroke-linecap="round" stroke-linejoin="round"></path><path d="M17 6.75586L20 3.75586" stroke="#9FCE10" stroke-linecap="round" stroke-linejoin="round"></path></svg> 