<?xml version="1.0" encoding="UTF-8"?> <svg xmlns="http://www.w3.org/2000/svg" width="37" height="36" viewBox="0 0 37 36" fill="none"><g clip-path="url(#clip0_1166_42701)"><path d="M18.0131 28.9995C22.7033 28.9995 26.5055 25.1973 26.5055 20.5071C26.5055 15.817 22.7033 12.0148 18.0131 12.0148C13.323 12.0148 9.52081 15.817 9.52081 20.5071C9.52081 25.1973 13.323 28.9995 18.0131 28.9995Z" fill="#E58613"></path><path d="M18.0113 27.2742C21.748 27.2742 24.7772 24.245 24.7772 20.5083C24.7772 16.7715 21.748 13.7423 18.0113 13.7423C14.2746 13.7423 11.2454 16.7715 11.2454 20.5083C11.2454 24.245 14.2746 27.2742 18.0113 27.2742Z" fill="white"></path><path d="M20.5931 22.799H19.5866V24.5324H17.8672V22.799H14.3724V21.5688L17.965 16.2008H19.5866V21.464H20.5931V22.799ZM17.8672 21.4011V19.7935C17.8672 19.6956 17.8672 19.5908 17.8672 19.472C17.8672 19.3531 17.8672 19.2343 17.8672 19.1085V18.745C17.8672 18.6332 17.8672 18.5354 17.8672 18.4445C17.8672 18.3536 17.8672 18.2977 17.8672 18.2628H17.8182L17.5876 18.773C17.5037 18.9477 17.3989 19.1295 17.294 19.3112L15.8961 21.4081L17.8672 21.4011Z" fill="black"></path><path d="M18.0403 9.29623C19.9279 9.29623 21.4582 7.39985 21.4582 5.06055C21.4582 2.72125 19.9279 0.824867 18.0403 0.824867C16.1526 0.824867 14.6224 2.72125 14.6224 5.06055C14.6224 7.39985 16.1526 9.29623 18.0403 9.29623Z" fill="#678925"></path><path d="M23.4787 12.7706C23.7403 12.0702 23.9368 11.3472 24.0659 10.6108C24.604 10.8764 25.0094 12.9663 24.9535 14.0567C26.5084 15.7044 27.4232 17.8537 27.5327 20.1166C28.651 18.4042 31.9291 6.55687 22.0389 3.62125C22.5701 9.43657 18.607 10.0936 18.1457 10.1076C17.6844 10.1216 13.3858 9.56938 13.9519 3.7261C7.45164 5.14498 6.90646 11.128 7.09518 13.3228C8.50533 12.5209 10.0765 12.0434 11.6943 11.9249C11.8014 11.4407 12.0244 10.9897 12.3443 10.6108C12.3443 11.1281 12.3793 11.4216 12.3863 11.848C12.7008 11.806 13.5396 11.7222 14.6299 11.6802C16.0828 11.1273 17.6491 10.9388 19.1917 11.1313C20.7344 11.3238 22.2063 11.8915 23.4787 12.7846V12.7706Z" fill="#678925"></path><path d="M35.1148 30.2081C36.0589 28.5735 35.1821 26.2999 33.1564 25.1299C31.1307 23.9599 28.7232 24.3365 27.7791 25.9711C26.835 27.6057 27.7118 29.8793 29.7375 31.0493C31.7632 32.2193 34.1707 31.8427 35.1148 30.2081Z" fill="#2F6FA8"></path><path d="M26.9998 25.6381C27.2375 25.2187 29.8446 21.7868 34.6115 25.2187C36.6664 18.8722 31.7597 15.4333 29.7607 14.4757C29.7658 16.1016 29.4026 17.7074 28.6983 19.1727C29.0593 19.5111 29.3348 19.9303 29.5021 20.3959L28.4047 19.8158C28.2859 20.1023 27.9574 20.8363 27.4681 21.7729C27.2687 23.3377 26.6841 24.8285 25.7668 26.1118C24.8494 27.3951 23.628 28.4308 22.212 29.1259C22.6513 29.6296 23.1304 30.0971 23.6448 30.5238C23.1975 30.8174 21.548 30.2862 20.5205 29.748C18.3174 30.3402 15.9753 30.1271 13.9153 29.1469C15.5789 31.5792 23.6099 38.9532 30.6693 32.2782C25.3643 29.8109 26.7762 26.0435 26.9998 25.6381Z" fill="#2F6FA8"></path><path d="M8.23397 25.9454C7.28338 24.3099 4.87897 23.9394 2.852 25.1067C0.825021 26.2739 -0.0207174 28.5525 0.929864 30.1811C1.88045 31.8097 4.28486 32.1941 6.30484 31.0199C8.32483 29.8456 9.19853 27.581 8.23397 25.9454Z" fill="#C1A840"></path><path d="M8.49287 20.5712C8.49287 20.2077 8.49287 19.8722 8.55578 19.4948C7.80713 19.62 7.0722 19.8166 6.36105 20.0819C6.31912 19.4599 8.03156 17.9851 8.98913 17.5377C9.51 15.9877 10.4225 14.5984 11.6382 13.5047C12.0572 13.0627 12.5264 12.671 13.0361 12.3375C11.729 12.009 -1.15972 14.9376 1.3705 25.2892C6.1304 21.9132 8.68858 25.0096 8.92623 25.408C9.16387 25.8064 10.8553 29.8184 5.50833 32.2787C9.97466 37.1714 15.4265 34.6622 17.2368 33.3971C15.8241 32.5907 14.6125 31.4748 13.6931 30.1329C13.2215 30.2723 12.7245 30.3034 12.2393 30.2238L13.2877 29.5248C13.1339 29.3221 12.7845 28.8259 12.3581 28.1898C11.164 27.3096 10.1926 26.1621 9.5214 24.8392C8.85023 23.5163 8.498 22.0546 8.49287 20.5712Z" fill="#C1A840"></path></g><defs><clipPath id="clip0_1166_42701"><rect width="36" height="36" fill="white" transform="translate(0.0371094)"></rect></clipPath></defs></svg> 