<?xml version="1.0" encoding="UTF-8"?> <svg xmlns="http://www.w3.org/2000/svg" width="24" height="25" viewBox="0 0 24 25" fill="none"><path d="M22.0198 8.47697H21.297V5.03235C21.297 4.49192 20.8573 4.05225 20.3168 4.05225H1.98015C1.43971 4.05225 1 4.49192 1 5.03235V15.5353C1 16.0757 1.43971 16.5154 1.98015 16.5154H2.70304V19.96C2.70304 20.5005 3.14275 20.9401 3.68319 20.9401H22.0198C22.5603 20.9401 23 20.5005 23 19.96V9.45713C23 8.91669 22.5603 8.47697 22.0198 8.47697ZM1.98015 15.8252C1.82028 15.8252 1.6902 15.6951 1.6902 15.5353V5.03235C1.6902 4.87249 1.82028 4.74244 1.98015 4.74244H20.3168C20.4767 4.74244 20.6068 4.87249 20.6068 5.03235V8.47697H19.5903V7.54523C19.5903 7.35465 19.4358 7.20013 19.2452 7.20013C18.5601 7.20013 18.0027 6.64276 18.0027 5.95762C18.0027 5.76704 17.8482 5.61252 17.6576 5.61252H4.63937C4.44879 5.61252 4.29427 5.76704 4.29427 5.95762C4.29427 6.64276 3.7369 7.20013 3.05176 7.20013C2.86118 7.20013 2.70666 7.35465 2.70666 7.54523L2.70304 15.8252H1.98015ZM14.0282 8.47697C13.4257 7.5201 12.3604 6.88262 11.1485 6.88262C9.93658 6.88262 8.87127 7.5201 8.2688 8.47697H3.68319C3.5836 8.47697 3.48748 8.49201 3.39686 8.51975V7.85949C4.18655 7.7166 4.81074 7.09241 4.95359 6.30271H17.3433C17.4862 7.09241 18.1104 7.7166 18.9001 7.85949V8.47697H14.0282ZM13.1667 8.47697H9.13027C9.62685 7.92257 10.3473 7.57282 11.1485 7.57282C11.9496 7.57282 12.6701 7.92257 13.1667 8.47697ZM22.3098 19.96C22.3098 20.1199 22.1797 20.2499 22.0198 20.2499H3.68319C3.52332 20.2499 3.39323 20.1199 3.39323 19.96V9.45713C3.39323 9.29726 3.52332 9.16717 3.68319 9.16717H22.0198C22.1797 9.16717 22.3098 9.29726 22.3098 9.45713V19.96Z" fill="#9FCE10" stroke="#9FCE10" stroke-width="0.3"></path><path d="M20.9487 11.6252C20.2636 11.6252 19.7062 11.0678 19.7062 10.3827C19.7062 10.1921 19.5517 10.0376 19.3611 10.0376H6.34287C6.15229 10.0376 5.99777 10.1921 5.99777 10.3827C5.99777 11.0678 5.4404 11.6252 4.75525 11.6252C4.56468 11.6252 4.41016 11.7797 4.41016 11.9703V17.4475C4.41016 17.6381 4.56468 17.7926 4.75525 17.7926C5.4404 17.7926 5.99777 18.3499 5.99777 19.0351C5.99777 19.2257 6.15229 19.3802 6.34287 19.3802H19.3611C19.5517 19.3802 19.7062 19.2257 19.7062 19.0351C19.7062 18.3499 20.2636 17.7926 20.9487 17.7926C21.1393 17.7926 21.2938 17.6381 21.2938 17.4475V11.9703C21.2938 11.7797 21.1393 11.6252 20.9487 11.6252ZM20.6036 17.1332C19.8139 17.2761 19.1897 17.9003 19.0469 18.69H6.65713C6.51423 17.9003 5.89005 17.2761 5.10035 17.1332V12.2845C5.89005 12.1416 6.51423 11.5174 6.65708 10.7278H19.0469C19.1897 11.5174 19.8139 12.1416 20.6036 12.2845V17.1332Z" fill="#9FCE10" stroke="#9FCE10" stroke-width="0.3"></path><path d="M12.8514 11.3071C10.976 11.3071 9.4502 12.8329 9.4502 14.7084C9.4502 16.5838 10.976 18.1095 12.8514 18.1095C14.7268 18.1095 16.2526 16.5838 16.2526 14.7084C16.2526 12.8329 14.7268 11.3071 12.8514 11.3071ZM12.8514 17.4193C11.3566 17.4193 10.1404 16.2032 10.1404 14.7084C10.1404 13.2135 11.3566 11.9973 12.8514 11.9973C14.3463 11.9973 15.5624 13.2135 15.5624 14.7084C15.5624 16.2032 14.3463 17.4193 12.8514 17.4193Z" fill="#9FCE10" stroke="#9FCE10" stroke-width="0.3"></path><path d="M12.6653 13.5684H13.0376C13.2042 13.5684 13.3398 13.704 13.3398 13.8706C13.3398 14.0612 13.4943 14.2157 13.6849 14.2157C13.8755 14.2157 14.03 14.0612 14.03 13.8706C14.03 13.3775 13.6685 12.9674 13.1966 12.8911V12.8173C13.1966 12.6267 13.042 12.4722 12.8515 12.4722C12.6609 12.4722 12.5064 12.6267 12.5064 12.8173V12.8911C12.0344 12.9674 11.6729 13.3775 11.6729 13.8706V14.0622C11.6729 14.6094 12.1181 15.0546 12.6653 15.0546H13.0376C13.2042 15.0546 13.3398 15.1902 13.3398 15.3569V15.5484C13.3398 15.715 13.2042 15.8506 13.0376 15.8506H12.6653C12.4987 15.8506 12.363 15.715 12.363 15.5484V15.5305C12.363 15.34 12.2085 15.1854 12.0179 15.1854C11.8274 15.1854 11.6729 15.34 11.6729 15.5305V15.5484C11.6729 16.0415 12.0344 16.4516 12.5064 16.528V16.6018C12.5064 16.7923 12.6609 16.9469 12.8515 16.9469C13.042 16.9469 13.1966 16.7923 13.1966 16.6018V16.5279C13.6685 16.4516 14.03 16.0415 14.03 15.5484V15.3569C14.03 14.8097 13.5848 14.3644 13.0376 14.3644H12.6653C12.4987 14.3644 12.363 14.2288 12.363 14.0622V13.8706C12.363 13.704 12.4987 13.5684 12.6653 13.5684Z" fill="#9FCE10" stroke="#9FCE10" stroke-width="0.3"></path><path d="M19.2311 14.3638H17.724C17.5334 14.3638 17.3789 14.5183 17.3789 14.7089C17.3789 14.8994 17.5334 15.054 17.724 15.054H19.2311C19.4217 15.054 19.5762 14.8994 19.5762 14.7089C19.5762 14.5183 19.4217 14.3638 19.2311 14.3638Z" fill="#9FCE10" stroke="#9FCE10" stroke-width="0.3"></path><path d="M7.97916 14.3638H6.47205C6.28147 14.3638 6.12695 14.5183 6.12695 14.7089C6.12695 14.8994 6.28147 15.054 6.47205 15.054H7.97916C8.16974 15.054 8.32426 14.8994 8.32426 14.7089C8.32426 14.5183 8.16974 14.3638 7.97916 14.3638Z" fill="#9FCE10" stroke="#9FCE10" stroke-width="0.3"></path></svg> 