<?xml version="1.0" encoding="UTF-8"?> <svg xmlns="http://www.w3.org/2000/svg" width="34" height="34" viewBox="0 0 34 34" fill="none"><g clip-path="url(#clip0_2286_9257)"><path d="M17 0C26.3889 0 34.0008 7.61113 34.001 17C34.001 26.389 26.389 34.001 17 34.001C7.61113 34.0008 0 26.3889 0 17C0.000164925 7.61123 7.61123 0.000164936 17 0ZM9.13672 12.2109H14.917V14.7373C10.219 14.9532 6.68798 15.8822 6.6875 16.9971C6.6875 18.1121 10.2218 19.0415 14.917 19.2598V27.3564H19.0967V19.2598C23.7862 19.0439 27.3119 18.1149 27.3125 17C27.3125 15.885 23.7866 14.9551 19.0967 14.7393L19.0938 12.2109H24.874V8.36035H9.13672V12.2109ZM14.915 17.8506C15.1857 17.8694 15.965 17.916 17.0391 17.916C18.3273 17.916 18.9723 17.8616 19.0938 17.8506V15.0303C23.2369 15.2163 26.3258 15.9369 26.3262 16.8008C26.3262 17.6647 23.2347 18.3862 19.0938 18.5723V18.5664C18.9764 18.5743 18.3696 18.6103 17.0195 18.6104C15.9399 18.6104 15.1827 18.5804 14.915 18.5664V18.5693C10.7632 18.3863 7.66699 17.6642 7.66699 16.7979C7.66707 15.9315 10.7662 15.2094 14.915 15.0264V17.8506Z" fill="black"></path></g><defs><clipPath id="clip0_2286_9257"><rect width="34" height="34" fill="white"></rect></clipPath></defs></svg> 