<?xml version="1.0" encoding="UTF-8"?> <svg xmlns="http://www.w3.org/2000/svg" width="42" height="32" viewBox="0 0 42 32" fill="none"><g clip-path="url(#clip0_2286_9225)"><path d="M7.4679 31.9298V29.8061C7.4679 28.9937 6.97305 28.4617 6.12357 28.4617C5.69883 28.4617 5.23697 28.6019 4.91945 29.0638C4.67202 28.6762 4.31738 28.4617 3.78543 28.4617C3.43079 28.4617 3.07615 28.5689 2.79574 28.9566V28.5318H2.05347V31.9298H2.79574V30.0535C2.79574 29.4514 3.11326 29.1669 3.60811 29.1669C4.10295 29.1669 4.35037 29.4844 4.35037 30.0535V31.9298H5.09264V30.0535C5.09264 29.4514 5.44728 29.1669 5.90501 29.1669C6.39986 29.1669 6.64728 29.4844 6.64728 30.0535V31.9298H7.4679ZM18.4782 28.5318H17.2741V27.505H16.5318V28.5318H15.8597V29.204H16.5318V30.7628C16.5318 31.5421 16.8493 31.9999 17.6988 31.9999C18.0164 31.9999 18.371 31.8927 18.6184 31.7524L18.404 31.1133C18.1895 31.2535 17.9421 31.2906 17.7648 31.2906C17.4102 31.2906 17.27 31.0762 17.27 30.7256V29.204H18.4741V28.5318H18.4782ZM24.7792 28.4576C24.3545 28.4576 24.07 28.672 23.8926 28.9524V28.5277H23.1504V31.9256H23.8926V30.0122C23.8926 29.4473 24.1401 29.1256 24.6019 29.1256C24.7421 29.1256 24.9194 29.1628 25.0638 29.1957L25.2782 28.4865C25.1298 28.4576 24.9194 28.4576 24.7792 28.4576ZM15.2576 28.8122C14.903 28.5648 14.4081 28.4576 13.8761 28.4576C13.0267 28.4576 12.4617 28.8823 12.4617 29.5545C12.4617 30.1195 12.8865 30.4411 13.6287 30.5442L13.9834 30.5813C14.371 30.6514 14.5854 30.7586 14.5854 30.936C14.5854 31.1834 14.3009 31.3607 13.806 31.3607C13.3112 31.3607 12.9194 31.1834 12.672 31.0061L12.3174 31.571C12.705 31.8555 13.237 31.9957 13.7689 31.9957C14.7586 31.9957 15.3277 31.5339 15.3277 30.8988C15.3277 30.2968 14.8658 29.9793 14.1607 29.872L13.806 29.8349C13.4885 29.7978 13.2411 29.7277 13.2411 29.5174C13.2411 29.27 13.4885 29.1298 13.8803 29.1298C14.305 29.1298 14.7298 29.3071 14.9442 29.4143L15.2576 28.8122ZM35.006 28.4576C34.5813 28.4576 34.2968 28.672 34.1194 28.9524V28.5277H33.3772V31.9256H34.1194V30.0122C34.1194 29.4473 34.3669 29.1256 34.8287 29.1256C34.9689 29.1256 35.1462 29.1628 35.2906 29.1957L35.505 28.4947C35.3607 28.4576 35.1504 28.4576 35.006 28.4576ZM25.5215 30.2308C25.5215 31.2576 26.2308 31.9999 27.3277 31.9999C27.8225 31.9999 28.1772 31.8927 28.5318 31.6122L28.1772 31.0102C27.8926 31.2246 27.6122 31.3277 27.2906 31.3277C26.6885 31.3277 26.2638 30.903 26.2638 30.2308C26.2638 29.5916 26.6885 29.1669 27.2906 29.1339C27.6081 29.1339 27.8926 29.2411 28.1772 29.4514L28.5318 28.8494C28.1772 28.5648 27.8225 28.4617 27.3277 28.4617C26.2308 28.4576 25.5215 29.204 25.5215 30.2308ZM32.3875 30.2308V28.5318H31.6452V28.9566C31.3978 28.639 31.0432 28.4617 30.5813 28.4617C29.6246 28.4617 28.8823 29.204 28.8823 30.2308C28.8823 31.2576 29.6246 31.9999 30.5813 31.9999C31.0761 31.9999 31.4308 31.8226 31.6452 31.505V31.9298H32.3875V30.2308ZM29.6617 30.2308C29.6617 29.6287 30.0493 29.1339 30.6885 29.1339C31.2906 29.1339 31.7153 29.5957 31.7153 30.2308C31.7153 30.8329 31.2906 31.3277 30.6885 31.3277C30.0535 31.2906 29.6617 30.8287 29.6617 30.2308ZM20.7792 28.4576C19.7895 28.4576 19.0803 29.1669 19.0803 30.2267C19.0803 31.2906 19.7895 31.9957 20.8164 31.9957C21.3112 31.9957 21.806 31.8555 22.1978 31.5339L21.8432 31.0019C21.5586 31.2164 21.204 31.3566 20.8535 31.3566C20.3916 31.3566 19.9339 31.1421 19.8267 30.5442H22.338C22.338 30.437 22.338 30.3669 22.338 30.2597C22.371 29.1669 21.7318 28.4576 20.7792 28.4576ZM20.7792 29.0968C21.2411 29.0968 21.5586 29.3813 21.6287 29.9091H19.8597C19.9298 29.4514 20.2473 29.0968 20.7792 29.0968ZM39.2205 30.2308V27.1875H38.4782V28.9566C38.2308 28.639 37.8761 28.4617 37.4143 28.4617C36.4576 28.4617 35.7153 29.204 35.7153 30.2308C35.7153 31.2576 36.4576 31.9999 37.4143 31.9999C37.9091 31.9999 38.2638 31.8226 38.4782 31.505V31.9298H39.2205V30.2308ZM36.4947 30.2308C36.4947 29.6287 36.8823 29.1339 37.5215 29.1339C38.1236 29.1339 38.5483 29.5957 38.5483 30.2308C38.5483 30.8329 38.1236 31.3277 37.5215 31.3277C36.8823 31.2906 36.4947 30.8287 36.4947 30.2308ZM11.6452 30.2308V28.5318H10.903V28.9566C10.6555 28.639 10.3009 28.4617 9.83903 28.4617C8.88233 28.4617 8.14006 29.204 8.14006 30.2308C8.14006 31.2576 8.88233 31.9999 9.83903 31.9999C10.3339 31.9999 10.6885 31.8226 10.903 31.505V31.9298H11.6452V30.2308ZM8.88646 30.2308C8.88646 29.6287 9.27408 29.1339 9.91326 29.1339C10.5153 29.1339 10.9401 29.5957 10.9401 30.2308C10.9401 30.8329 10.5153 31.3277 9.91326 31.3277C9.27408 31.2906 8.88646 30.8287 8.88646 30.2308Z" fill="black"></path><path d="M19.4731 23.0922C19.5723 23.1788 19.6774 23.2619 19.7813 23.3474C17.7634 24.6911 15.3391 25.4749 12.7324 25.4749C5.69976 25.4749 -0.000732422 19.7745 -0.000732422 12.7418C-0.000732422 5.7091 5.69976 0.00976562 12.7324 0.00976562C15.3391 0.00976562 17.7622 0.793611 19.7813 2.13735C19.6785 2.22162 19.5735 2.30474 19.4742 2.39247C16.4739 5.0026 14.7538 8.77522 14.7538 12.7429C14.7538 16.7106 16.4739 20.4833 19.4742 23.0922H19.4731Z" fill="black"></path><path d="M28.4707 0.00976562C25.864 0.00976562 23.4409 0.793611 21.4219 2.13735C21.5246 2.22162 21.6297 2.30474 21.7301 2.39247C24.7304 5.0026 26.4505 8.77406 26.4505 12.7418C26.4505 16.7095 24.7304 20.4821 21.7312 23.0911C21.632 23.1777 21.5269 23.2608 21.423 23.3462C23.4409 24.6899 25.8652 25.4738 28.4719 25.4738C35.5034 25.4738 41.205 19.7733 41.205 12.7418C41.205 5.71025 35.5022 0.00976562 28.4707 0.00976562Z" fill="black"></path><path d="M20.6009 2.73633C20.437 2.86562 20.2765 2.99838 20.1195 3.1346C17.4367 5.46882 15.7385 8.9055 15.7385 12.7416C15.7385 16.5777 17.4367 20.0144 20.1195 22.3486C20.2765 22.486 20.437 22.6188 20.6009 22.7469C20.7648 22.6176 20.9253 22.4848 21.0823 22.3486C23.7651 20.0144 25.4633 16.5777 25.4633 12.7416C25.4633 8.9055 23.7651 5.46882 21.0823 3.1346C20.9253 2.99723 20.7648 2.86447 20.6009 2.73633Z" fill="black"></path></g><defs><clipPath id="clip0_2286_9225"><rect width="41.2041" height="32" fill="white"></rect></clipPath></defs></svg> 