<?xml version="1.0" encoding="UTF-8"?> <svg xmlns="http://www.w3.org/2000/svg" width="24" height="24" viewBox="0 0 24 24" fill="none"><path d="M12.9355 10.1604H13.4793V8.27653C13.4793 7.176 13.7383 6.33441 14.2562 5.75177C14.7741 5.15619 15.5574 4.8584 16.6062 4.8584C17.6549 4.8584 18.4382 5.15619 18.9561 5.75177C19.474 6.33441 19.733 7.176 19.733 8.27653V9.40296H17.7132V8.14058C17.7132 7.64858 17.6225 7.30547 17.4413 7.11126C17.26 6.9041 17.0011 6.80052 16.6644 6.80052C16.3278 6.80052 16.0688 6.9041 15.8876 7.11126C15.7063 7.30547 15.6157 7.64858 15.6157 8.14058V10.1604H18.6065V11.2286H15.6157V12.2967H18.6065V13.3649H15.6157V15.4818C15.6157 15.9738 15.7063 16.3169 15.8876 16.5111C16.0688 16.7053 16.3278 16.8024 16.6644 16.8024C17.0011 16.8024 17.26 16.7053 17.4413 16.5111C17.6225 16.3169 17.7132 15.9738 17.7132 15.4818V14.1223H19.733V15.3459C19.733 16.4464 19.474 17.2945 18.9561 17.89C18.4382 18.4727 17.6549 18.764 16.6062 18.764C15.5574 18.764 14.7741 18.4727 14.2562 17.89C13.7383 17.2945 13.4793 16.4464 13.4793 15.3459V13.3649H12.9355V12.2967H13.4793V11.2286H12.9355V10.1604Z" fill="#9FCE10"></path><path d="M4.55045 8.47107C4.55045 7.5518 4.73819 6.81379 5.11367 6.25705C5.48914 5.68736 6.05236 5.31836 6.80331 5.15004V4.14014H8.55122V5.15004C9.31512 5.30541 9.88481 5.66794 10.2603 6.23763C10.6487 6.79437 10.8429 7.53885 10.8429 8.47107V8.89834H8.82312V8.33512C8.82312 7.84312 8.72601 7.50001 8.5318 7.3058C8.35054 7.09864 8.09159 6.99506 7.75495 6.99506C7.41832 6.99506 7.15289 7.09864 6.95868 7.3058C6.77742 7.50001 6.68679 7.84312 6.68679 8.33512C6.68679 8.80123 6.79036 9.2026 6.99752 9.53924C7.20468 9.87587 7.46363 10.1931 7.77437 10.4909C8.08511 10.7757 8.41527 11.0606 8.76486 11.3454C9.12738 11.6173 9.46402 11.928 9.77476 12.2776C10.0855 12.6272 10.3444 13.0351 10.5516 13.5012C10.7588 13.9543 10.8623 14.5046 10.8623 15.152C10.8623 16.0842 10.6681 16.8351 10.2797 17.4048C9.89129 17.9745 9.31512 18.337 8.55122 18.4924V19.4829H6.80331V18.4924C6.02646 18.337 5.44383 17.9745 5.0554 17.4048C4.67993 16.8351 4.49219 16.0842 4.49219 15.152V14.2198H6.51199V15.2879C6.51199 15.7799 6.6091 16.123 6.80331 16.3172C7.01047 16.5115 7.28237 16.6086 7.619 16.6086C7.95564 16.6086 8.22106 16.5115 8.41527 16.3172C8.62243 16.123 8.72601 15.7799 8.72601 15.2879C8.72601 14.8218 8.62243 14.4204 8.41527 14.0838C8.20811 13.7472 7.94916 13.4364 7.63843 13.1516C7.32769 12.8538 6.99105 12.5689 6.62852 12.297C6.27894 12.0122 5.94878 11.695 5.63804 11.3454C5.3273 10.9958 5.06835 10.5945 4.86119 10.1413C4.65403 9.67519 4.55045 9.11844 4.55045 8.47107Z" fill="#9FCE10"></path></svg> 